<svg xmlns="http://www.w3.org/2000/svg" width="567.809" height="127.527" viewBox="0 0 567.809 127.527">
  <g id="Grupo_1113362" data-name="Grupo 1113362" transform="translate(-305.102 -2237.075)">
    <g id="Grupo_1113326" data-name="Grupo 1113326" transform="translate(305.102 2237.075)">
      <rect id="Rect치ngulo_406002" data-name="Rect치ngulo 406002" width="556.809" height="119.527" transform="translate(11 8)" fill="#bce0fc"/>
      <g id="Rect치ngulo_406003" data-name="Rect치ngulo 406003" fill="#fbfbf9" stroke="#000" stroke-width="0.5">
        <rect width="563.809" height="121.527" stroke="none"/>
        <rect x="0.25" y="0.25" width="563.309" height="121.027" fill="none"/>
      </g>
    </g>
    <g id="Grupo_1113327" data-name="Grupo 1113327" transform="translate(350.102 2262.075)">
      <path id="Trazado_908234" data-name="Trazado 908234" d="M24.656,7.367q-.164-.094-.383-.191T23.8,6.992q-.254-.086-.523-.148a3.9,3.9,0,0,0-.527-.086l-.93,4.32q.414.3.8.625a5.323,5.323,0,0,1,.691.676,3.245,3.245,0,0,1,.484.762,2.118,2.118,0,0,1,.184.883,3.448,3.448,0,0,1-.172,1.059,2.637,2.637,0,0,1-.574.977,3.174,3.174,0,0,1-1.062.738,4.312,4.312,0,0,1-1.629.328l-.336,1.508h-.8l.32-1.523a5.562,5.562,0,0,1-.687-.078q-.359-.062-.687-.148t-.609-.184a3.5,3.5,0,0,1-.461-.191l.219-1.266a4.014,4.014,0,0,0,.512.273,6.423,6.423,0,0,0,.621.242q.328.109.664.188a5.158,5.158,0,0,0,.641.109l.891-4.141q-.477-.344-.883-.676a4.568,4.568,0,0,1-.7-.7,2.961,2.961,0,0,1-.457-.816,2.9,2.9,0,0,1-.164-1.008,2.811,2.811,0,0,1,.254-1.191,2.859,2.859,0,0,1,.715-.957,3.456,3.456,0,0,1,1.113-.645,4.323,4.323,0,0,1,1.449-.246l.273-1.3h.82L22.961,5.7a5.513,5.513,0,0,1,1.055.18,7,7,0,0,1,.867.289Zm-2.734-.625a2.4,2.4,0,0,0-.863.2,1.956,1.956,0,0,0-.621.441,1.813,1.813,0,0,0-.375.605,1.957,1.957,0,0,0-.125.688,1.743,1.743,0,0,0,.086.555,1.917,1.917,0,0,0,.242.484,2.708,2.708,0,0,0,.371.43,6.035,6.035,0,0,0,.48.406Zm.75,7.406a1.492,1.492,0,0,0-.062-.434,1.654,1.654,0,0,0-.2-.414,2.471,2.471,0,0,0-.352-.422,6.057,6.057,0,0,0-.531-.457l-.75,3.633a2.347,2.347,0,0,0,.863-.215,1.877,1.877,0,0,0,.586-.437,1.652,1.652,0,0,0,.336-.586A2.146,2.146,0,0,0,22.672,14.148ZM32.4,8.281a1.517,1.517,0,0,0-.449-1.168A1.759,1.759,0,0,0,30.7,6.7a3.922,3.922,0,0,0-1.523.32,4.92,4.92,0,0,0-1.43.93l.32-1.437a4.15,4.15,0,0,1,1.355-.7,5.811,5.811,0,0,1,1.59-.2,2.888,2.888,0,0,1,1.992.66,2.26,2.26,0,0,1,.742,1.777,4.059,4.059,0,0,1-.324,1.676,4.455,4.455,0,0,1-1.035,1.395,13.8,13.8,0,0,1-2.078,1.531q-1.242.773-1.887,1.273a5.032,5.032,0,0,0-.957.922,2.657,2.657,0,0,0-.445,1.008h5.531L32.313,17H25.4l.117-.555a5.4,5.4,0,0,1,.605-1.625A5.57,5.57,0,0,1,27.25,13.5a19.257,19.257,0,0,1,2.242-1.609,13.31,13.31,0,0,0,1.723-1.25,4.048,4.048,0,0,0,.9-1.086A2.688,2.688,0,0,0,32.4,8.281ZM34.461,14.3a3.246,3.246,0,0,1,.789-2.145,3.708,3.708,0,0,1,2.063-1.238,2.706,2.706,0,0,1-.859-.891,2.439,2.439,0,0,1-.336-1.289,2.93,2.93,0,0,1,.461-1.6,3.077,3.077,0,0,1,1.293-1.129,4.317,4.317,0,0,1,1.9-.4,2.9,2.9,0,0,1,2,.672,2.255,2.255,0,0,1,.758,1.773,2.858,2.858,0,0,1-.555,1.754,3.28,3.28,0,0,1-1.6,1.113,2.316,2.316,0,0,1,1.086.953,2.8,2.8,0,0,1,.406,1.492,3.6,3.6,0,0,1-.547,1.93,3.794,3.794,0,0,1-1.508,1.383,4.468,4.468,0,0,1-2.094.5,3.589,3.589,0,0,1-2.4-.73A2.664,2.664,0,0,1,34.461,14.3Zm1.422-.047a1.732,1.732,0,0,0,.5,1.3,2.007,2.007,0,0,0,1.453.484,2.682,2.682,0,0,0,2.309-1.336,2.67,2.67,0,0,0,.371-1.375,1.817,1.817,0,0,0-.5-1.332,1.776,1.776,0,0,0-1.324-.512,2.852,2.852,0,0,0-2.426,1.379A2.663,2.663,0,0,0,35.883,14.258Zm1.531-5.352a1.494,1.494,0,0,0,.434,1.109,1.535,1.535,0,0,0,1.129.43,2.162,2.162,0,0,0,1.059-.293,2.337,2.337,0,0,0,.852-.8,2.067,2.067,0,0,0,.324-1.129,1.488,1.488,0,0,0-.43-1.105,1.581,1.581,0,0,0-1.164-.426,2.188,2.188,0,0,0-2.2,2.219Zm7.07,7.406a.854.854,0,0,1-.25.609.9.9,0,0,1-.277.188.836.836,0,0,1-.34.07.809.809,0,0,1-.336-.07.912.912,0,0,1-.273-.187.854.854,0,0,1-.25-.609.878.878,0,0,1,.066-.34.845.845,0,0,1,.184-.277.854.854,0,0,1,.609-.25.878.878,0,0,1,.34.066.834.834,0,0,1,.461.461A.878.878,0,0,1,44.484,16.313ZM46.57,14.3a3.246,3.246,0,0,1,.789-2.145,3.708,3.708,0,0,1,2.063-1.238,2.706,2.706,0,0,1-.859-.891,2.439,2.439,0,0,1-.336-1.289,2.93,2.93,0,0,1,.461-1.6A3.077,3.077,0,0,1,49.98,6.012a4.317,4.317,0,0,1,1.9-.4,2.9,2.9,0,0,1,2,.672,2.255,2.255,0,0,1,.758,1.773,2.858,2.858,0,0,1-.555,1.754,3.28,3.28,0,0,1-1.6,1.113,2.316,2.316,0,0,1,1.086.953,2.8,2.8,0,0,1,.406,1.492,3.6,3.6,0,0,1-.547,1.93,3.794,3.794,0,0,1-1.508,1.383,4.468,4.468,0,0,1-2.094.5,3.589,3.589,0,0,1-2.4-.73A2.664,2.664,0,0,1,46.57,14.3Zm1.422-.047a1.732,1.732,0,0,0,.5,1.3,2.007,2.007,0,0,0,1.453.484,2.682,2.682,0,0,0,2.309-1.336,2.67,2.67,0,0,0,.371-1.375,1.817,1.817,0,0,0-.5-1.332,1.776,1.776,0,0,0-1.324-.512,2.852,2.852,0,0,0-2.426,1.379A2.663,2.663,0,0,0,47.992,14.258Zm1.531-5.352a1.494,1.494,0,0,0,.434,1.109,1.535,1.535,0,0,0,1.129.43,2.162,2.162,0,0,0,1.059-.293,2.337,2.337,0,0,0,.852-.8,2.067,2.067,0,0,0,.324-1.129,1.488,1.488,0,0,0-.43-1.105,1.581,1.581,0,0,0-1.164-.426,2.188,2.188,0,0,0-2.2,2.219Zm13.742.016q0,.586-.055,1.223t-.172,1.285a12.946,12.946,0,0,1-.3,1.285,10.137,10.137,0,0,1-.441,1.23,8.317,8.317,0,0,1-.59,1.121,5.918,5.918,0,0,1-.746.957,3.614,3.614,0,0,1-2.7,1.172,2.709,2.709,0,0,1-1.16-.246,2.479,2.479,0,0,1-.9-.719,3.438,3.438,0,0,1-.582-1.164,5.551,5.551,0,0,1-.207-1.59,11.938,11.938,0,0,1,.141-1.793,11.1,11.1,0,0,1,.43-1.8,9.769,9.769,0,0,1,.719-1.66,6.191,6.191,0,0,1,1.016-1.375,4.129,4.129,0,0,1,1.242-.91,3.6,3.6,0,0,1,1.555-.324,2.927,2.927,0,0,1,1.133.211,2.318,2.318,0,0,1,.871.629,2.879,2.879,0,0,1,.559,1.035A4.775,4.775,0,0,1,63.266,8.922Zm-1.3.109a3.111,3.111,0,0,0-.406-1.715,1.323,1.323,0,0,0-1.18-.621,1.944,1.944,0,0,0-.867.2,2.953,2.953,0,0,0-.8.6,4.512,4.512,0,0,0-.574.762,7.791,7.791,0,0,0-.492.953,10.053,10.053,0,0,0-.395,1.074q-.172.563-.293,1.125t-.184,1.1a8.781,8.781,0,0,0-.062,1.008,4.622,4.622,0,0,0,.129,1.168,2.446,2.446,0,0,0,.355.8,1.412,1.412,0,0,0,.535.465,1.5,1.5,0,0,0,.66.148,1.958,1.958,0,0,0,.828-.187,2.451,2.451,0,0,0,.758-.562,5.036,5.036,0,0,0,.773-1.152,10.287,10.287,0,0,0,.629-1.559,13.046,13.046,0,0,0,.426-1.785A11.042,11.042,0,0,0,61.969,9.031Zm9.922-.109q0,.586-.055,1.223t-.172,1.285a12.945,12.945,0,0,1-.3,1.285,10.138,10.138,0,0,1-.441,1.23,8.318,8.318,0,0,1-.59,1.121,5.918,5.918,0,0,1-.746.957,3.614,3.614,0,0,1-2.7,1.172,2.709,2.709,0,0,1-1.16-.246,2.479,2.479,0,0,1-.9-.719,3.438,3.438,0,0,1-.582-1.164,5.551,5.551,0,0,1-.207-1.59,11.938,11.938,0,0,1,.141-1.793,11.1,11.1,0,0,1,.43-1.8,9.769,9.769,0,0,1,.719-1.66,6.191,6.191,0,0,1,1.016-1.375,4.129,4.129,0,0,1,1.242-.91,3.6,3.6,0,0,1,1.555-.324,2.927,2.927,0,0,1,1.133.211,2.318,2.318,0,0,1,.871.629A2.879,2.879,0,0,1,71.7,7.484,4.774,4.774,0,0,1,71.891,8.922Zm-1.3.109a3.111,3.111,0,0,0-.406-1.715,1.323,1.323,0,0,0-1.18-.621,1.944,1.944,0,0,0-.867.2,2.953,2.953,0,0,0-.8.6,4.512,4.512,0,0,0-.574.762,7.791,7.791,0,0,0-.492.953,10.054,10.054,0,0,0-.395,1.074q-.172.563-.293,1.125t-.184,1.1a8.781,8.781,0,0,0-.062,1.008,4.622,4.622,0,0,0,.129,1.168,2.446,2.446,0,0,0,.355.8,1.412,1.412,0,0,0,.535.465,1.5,1.5,0,0,0,.66.148,1.958,1.958,0,0,0,.828-.187,2.451,2.451,0,0,0,.758-.562,5.037,5.037,0,0,0,.773-1.152,10.287,10.287,0,0,0,.629-1.559,13.045,13.045,0,0,0,.426-1.785A11.043,11.043,0,0,0,70.594,9.031Zm3.25,7.281a.854.854,0,0,1-.25.609.9.9,0,0,1-.277.188.836.836,0,0,1-.34.07.809.809,0,0,1-.336-.07.912.912,0,0,1-.273-.187.854.854,0,0,1-.25-.609.878.878,0,0,1,.066-.34.845.845,0,0,1,.184-.277.854.854,0,0,1,.609-.25.878.878,0,0,1,.34.066.834.834,0,0,1,.461.461A.878.878,0,0,1,73.844,16.313ZM84,8.922q0,.586-.055,1.223t-.172,1.285a12.945,12.945,0,0,1-.3,1.285,10.138,10.138,0,0,1-.441,1.23,8.318,8.318,0,0,1-.59,1.121,5.918,5.918,0,0,1-.746.957,3.614,3.614,0,0,1-2.7,1.172,2.709,2.709,0,0,1-1.16-.246,2.479,2.479,0,0,1-.9-.719,3.438,3.438,0,0,1-.582-1.164,5.551,5.551,0,0,1-.207-1.59,11.938,11.938,0,0,1,.141-1.793,11.1,11.1,0,0,1,.43-1.8,9.769,9.769,0,0,1,.719-1.66,6.191,6.191,0,0,1,1.016-1.375,4.129,4.129,0,0,1,1.242-.91,3.6,3.6,0,0,1,1.555-.324,2.927,2.927,0,0,1,1.133.211,2.318,2.318,0,0,1,.871.629A2.879,2.879,0,0,1,83.8,7.484,4.774,4.774,0,0,1,84,8.922Zm-1.3.109A3.111,3.111,0,0,0,82.3,7.316a1.323,1.323,0,0,0-1.18-.621,1.944,1.944,0,0,0-.867.2,2.953,2.953,0,0,0-.8.6,4.512,4.512,0,0,0-.574.762,7.791,7.791,0,0,0-.492.953,10.054,10.054,0,0,0-.395,1.074q-.172.563-.293,1.125t-.184,1.1a8.781,8.781,0,0,0-.062,1.008,4.622,4.622,0,0,0,.129,1.168,2.446,2.446,0,0,0,.355.8,1.412,1.412,0,0,0,.535.465,1.5,1.5,0,0,0,.66.148,1.958,1.958,0,0,0,.828-.187,2.451,2.451,0,0,0,.758-.562,5.037,5.037,0,0,0,.773-1.152,10.287,10.287,0,0,0,.629-1.559,13.045,13.045,0,0,0,.426-1.785A11.043,11.043,0,0,0,82.7,9.031Zm9.922-.109q0,.586-.055,1.223T92.4,11.43a12.945,12.945,0,0,1-.3,1.285,10.138,10.138,0,0,1-.441,1.23,8.318,8.318,0,0,1-.59,1.121,5.918,5.918,0,0,1-.746.957,3.614,3.614,0,0,1-2.7,1.172,2.709,2.709,0,0,1-1.16-.246,2.479,2.479,0,0,1-.9-.719,3.438,3.438,0,0,1-.582-1.164,5.551,5.551,0,0,1-.207-1.59,11.938,11.938,0,0,1,.141-1.793,11.1,11.1,0,0,1,.43-1.8,9.769,9.769,0,0,1,.719-1.66A6.191,6.191,0,0,1,87.07,6.844a4.129,4.129,0,0,1,1.242-.91,3.6,3.6,0,0,1,1.555-.324A2.927,2.927,0,0,1,91,5.82a2.318,2.318,0,0,1,.871.629,2.879,2.879,0,0,1,.559,1.035A4.774,4.774,0,0,1,92.625,8.922Zm-1.3.109a3.111,3.111,0,0,0-.406-1.715,1.323,1.323,0,0,0-1.18-.621,1.944,1.944,0,0,0-.867.2,2.953,2.953,0,0,0-.8.6,4.512,4.512,0,0,0-.574.762,7.791,7.791,0,0,0-.492.953,10.054,10.054,0,0,0-.395,1.074q-.172.563-.293,1.125t-.184,1.1a8.781,8.781,0,0,0-.062,1.008,4.622,4.622,0,0,0,.129,1.168,2.446,2.446,0,0,0,.355.8,1.412,1.412,0,0,0,.535.465,1.5,1.5,0,0,0,.66.148,1.958,1.958,0,0,0,.828-.187,2.451,2.451,0,0,0,.758-.562,5.037,5.037,0,0,0,.773-1.152,10.287,10.287,0,0,0,.629-1.559,13.045,13.045,0,0,0,.426-1.785A11.043,11.043,0,0,0,91.328,9.031Zm9.922-.109q0,.586-.055,1.223t-.172,1.285a12.945,12.945,0,0,1-.3,1.285,10.138,10.138,0,0,1-.441,1.23,8.318,8.318,0,0,1-.59,1.121,5.918,5.918,0,0,1-.746.957,3.614,3.614,0,0,1-2.7,1.172,2.709,2.709,0,0,1-1.16-.246,2.479,2.479,0,0,1-.9-.719,3.438,3.438,0,0,1-.582-1.164,5.551,5.551,0,0,1-.207-1.59,11.938,11.938,0,0,1,.141-1.793,11.1,11.1,0,0,1,.43-1.8,9.769,9.769,0,0,1,.719-1.66A6.191,6.191,0,0,1,95.7,6.844a4.129,4.129,0,0,1,1.242-.91,3.6,3.6,0,0,1,1.555-.324,2.927,2.927,0,0,1,1.133.211,2.318,2.318,0,0,1,.871.629,2.879,2.879,0,0,1,.559,1.035A4.774,4.774,0,0,1,101.25,8.922Zm-1.3.109a3.111,3.111,0,0,0-.406-1.715,1.323,1.323,0,0,0-1.18-.621,1.944,1.944,0,0,0-.867.2,2.953,2.953,0,0,0-.8.6,4.512,4.512,0,0,0-.574.762,7.791,7.791,0,0,0-.492.953,10.054,10.054,0,0,0-.395,1.074q-.172.563-.293,1.125t-.184,1.1a8.781,8.781,0,0,0-.062,1.008,4.622,4.622,0,0,0,.129,1.168,2.446,2.446,0,0,0,.355.8,1.412,1.412,0,0,0,.535.465,1.5,1.5,0,0,0,.66.148,1.958,1.958,0,0,0,.828-.187,2.451,2.451,0,0,0,.758-.562,5.037,5.037,0,0,0,.773-1.152,10.287,10.287,0,0,0,.629-1.559,13.045,13.045,0,0,0,.426-1.785A11.043,11.043,0,0,0,99.953,9.031ZM20.344,26.367q-.164-.094-.383-.191t-.473-.184q-.254-.086-.523-.148a3.9,3.9,0,0,0-.527-.086l-.93,4.32q.414.3.8.625a5.323,5.323,0,0,1,.691.676,3.245,3.245,0,0,1,.484.762,2.118,2.118,0,0,1,.184.883,3.448,3.448,0,0,1-.172,1.059,2.637,2.637,0,0,1-.574.977,3.174,3.174,0,0,1-1.062.738,4.312,4.312,0,0,1-1.629.328L15.9,37.633h-.8l.32-1.523a5.562,5.562,0,0,1-.687-.078q-.359-.063-.687-.148T13.43,35.7a3.5,3.5,0,0,1-.461-.191l.219-1.266a4.014,4.014,0,0,0,.512.273,6.423,6.423,0,0,0,.621.242q.328.109.664.188a5.158,5.158,0,0,0,.641.109l.891-4.141q-.477-.344-.883-.676a4.568,4.568,0,0,1-.7-.7,2.961,2.961,0,0,1-.457-.816,2.9,2.9,0,0,1-.164-1.008,2.811,2.811,0,0,1,.254-1.191,2.859,2.859,0,0,1,.715-.957,3.456,3.456,0,0,1,1.113-.645,4.323,4.323,0,0,1,1.449-.246l.273-1.3h.82L18.648,24.7a5.513,5.513,0,0,1,1.055.18,7,7,0,0,1,.867.289Zm-2.734-.625a2.4,2.4,0,0,0-.863.2,1.956,1.956,0,0,0-.621.441,1.813,1.813,0,0,0-.375.605,1.957,1.957,0,0,0-.125.688,1.743,1.743,0,0,0,.086.555,1.917,1.917,0,0,0,.242.484,2.708,2.708,0,0,0,.371.43,6.035,6.035,0,0,0,.48.406Zm.75,7.406a1.492,1.492,0,0,0-.062-.434,1.654,1.654,0,0,0-.2-.414,2.471,2.471,0,0,0-.352-.422,6.057,6.057,0,0,0-.531-.457l-.75,3.633a2.347,2.347,0,0,0,.863-.215,1.877,1.877,0,0,0,.586-.437,1.652,1.652,0,0,0,.336-.586A2.146,2.146,0,0,0,18.359,33.148ZM24.609,36,26.7,26.242l-2.766.75.273-1.234,4.109-1.148L25.906,36Zm8.625,0,2.086-9.758-2.766.75.273-1.234,4.109-1.148L34.531,36ZM46.492,25.969H42.281l-.687,3.266.828-.031a3.568,3.568,0,0,1,2.438.77,2.735,2.735,0,0,1,.875,2.168,4.074,4.074,0,0,1-.57,2.133,3.629,3.629,0,0,1-1.582,1.438,5.4,5.4,0,0,1-2.355.484,8.377,8.377,0,0,1-1.387-.117,4.335,4.335,0,0,1-1.1-.3l.289-1.258a3.418,3.418,0,0,0,1.031.422,5.058,5.058,0,0,0,1.258.164,3.6,3.6,0,0,0,1.672-.355,2.581,2.581,0,0,0,1.059-.977,2.681,2.681,0,0,0,.371-1.4,1.977,1.977,0,0,0-.562-1.527,2.581,2.581,0,0,0-1.789-.52q-1.086,0-1.945.078l1.18-5.6h5.422Zm2.3,9.344a.854.854,0,0,1-.25.609.9.9,0,0,1-.277.188.836.836,0,0,1-.34.07.809.809,0,0,1-.336-.07.912.912,0,0,1-.273-.187.854.854,0,0,1-.25-.609.878.878,0,0,1,.066-.34.845.845,0,0,1,.184-.277.854.854,0,0,1,.609-.25.878.878,0,0,1,.34.066.834.834,0,0,1,.461.461A.878.878,0,0,1,48.8,35.313ZM50.883,33.3a3.246,3.246,0,0,1,.789-2.145,3.708,3.708,0,0,1,2.063-1.238,2.706,2.706,0,0,1-.859-.891,2.439,2.439,0,0,1-.336-1.289,2.93,2.93,0,0,1,.461-1.6,3.077,3.077,0,0,1,1.293-1.129,4.317,4.317,0,0,1,1.9-.4,2.9,2.9,0,0,1,2,.672,2.255,2.255,0,0,1,.758,1.773,2.858,2.858,0,0,1-.555,1.754,3.28,3.28,0,0,1-1.6,1.113,2.316,2.316,0,0,1,1.086.953,2.8,2.8,0,0,1,.406,1.492,3.6,3.6,0,0,1-.547,1.93,3.794,3.794,0,0,1-1.508,1.383,4.468,4.468,0,0,1-2.094.5,3.589,3.589,0,0,1-2.4-.73A2.664,2.664,0,0,1,50.883,33.3Zm1.422-.047a1.732,1.732,0,0,0,.5,1.3,2.007,2.007,0,0,0,1.453.484,2.682,2.682,0,0,0,2.309-1.336,2.67,2.67,0,0,0,.371-1.375,1.817,1.817,0,0,0-.5-1.332,1.776,1.776,0,0,0-1.324-.512,2.852,2.852,0,0,0-2.426,1.379A2.663,2.663,0,0,0,52.3,33.258Zm1.531-5.352a1.494,1.494,0,0,0,.434,1.109,1.535,1.535,0,0,0,1.129.43,2.162,2.162,0,0,0,1.059-.293,2.337,2.337,0,0,0,.852-.8,2.067,2.067,0,0,0,.324-1.129,1.488,1.488,0,0,0-.43-1.105,1.581,1.581,0,0,0-1.164-.426,2.188,2.188,0,0,0-2.2,2.219Zm13.742.016q0,.586-.055,1.223t-.172,1.285a12.945,12.945,0,0,1-.3,1.285,10.138,10.138,0,0,1-.441,1.23,8.318,8.318,0,0,1-.59,1.121,5.918,5.918,0,0,1-.746.957,3.614,3.614,0,0,1-2.7,1.172,2.709,2.709,0,0,1-1.16-.246,2.479,2.479,0,0,1-.9-.719,3.438,3.438,0,0,1-.582-1.164,5.551,5.551,0,0,1-.207-1.59,11.938,11.938,0,0,1,.141-1.793,11.1,11.1,0,0,1,.43-1.8,9.769,9.769,0,0,1,.719-1.66,6.191,6.191,0,0,1,1.016-1.375,4.129,4.129,0,0,1,1.242-.91,3.6,3.6,0,0,1,1.555-.324,2.927,2.927,0,0,1,1.133.211,2.318,2.318,0,0,1,.871.629,2.879,2.879,0,0,1,.559,1.035A4.774,4.774,0,0,1,67.578,27.922Zm-1.3.109a3.111,3.111,0,0,0-.406-1.715A1.323,1.323,0,0,0,64.7,25.7a1.944,1.944,0,0,0-.867.2,2.953,2.953,0,0,0-.8.6,4.512,4.512,0,0,0-.574.762,7.791,7.791,0,0,0-.492.953,10.053,10.053,0,0,0-.395,1.074q-.172.563-.293,1.125t-.184,1.1a8.781,8.781,0,0,0-.062,1.008,4.622,4.622,0,0,0,.129,1.168,2.446,2.446,0,0,0,.355.8,1.412,1.412,0,0,0,.535.465,1.5,1.5,0,0,0,.66.148,1.958,1.958,0,0,0,.828-.187,2.451,2.451,0,0,0,.758-.562A5.037,5.037,0,0,0,65.07,33.2a10.287,10.287,0,0,0,.629-1.559,13.045,13.045,0,0,0,.426-1.785A11.043,11.043,0,0,0,66.281,28.031Zm9.555-.914a3.281,3.281,0,0,1-.172,1.066,2.6,2.6,0,0,1-.539.91,3.243,3.243,0,0,1-.937.7,4.822,4.822,0,0,1-1.359.434v.031a2.607,2.607,0,0,1,.859.281,2.319,2.319,0,0,1,1.1,1.266,2.582,2.582,0,0,1,.152.9,3.527,3.527,0,0,1-.258,1.344,3.015,3.015,0,0,1-.785,1.109,3.872,3.872,0,0,1-1.32.758,5.576,5.576,0,0,1-1.863.281,6.015,6.015,0,0,1-.844-.059,7.785,7.785,0,0,1-.777-.148,6.172,6.172,0,0,1-.668-.2,4.266,4.266,0,0,1-.523-.23l.273-1.219a4.154,4.154,0,0,0,.5.281,4.637,4.637,0,0,0,.633.246,5.907,5.907,0,0,0,.711.172,4.184,4.184,0,0,0,.738.066,4.1,4.1,0,0,0,1.375-.2,2.46,2.46,0,0,0,.891-.523,1.836,1.836,0,0,0,.477-.742,2.665,2.665,0,0,0,.141-.855,1.777,1.777,0,0,0-.687-1.473,3.319,3.319,0,0,0-2.078-.543h-.852l.242-1.1h.93a5.638,5.638,0,0,0,1.434-.164,3.181,3.181,0,0,0,1.043-.465,1.979,1.979,0,0,0,.637-.73,2.119,2.119,0,0,0,.215-.961,1.849,1.849,0,0,0-.109-.637,1.369,1.369,0,0,0-.34-.523,1.685,1.685,0,0,0-.578-.355,2.333,2.333,0,0,0-.832-.133,4.781,4.781,0,0,0-.762.059,5.619,5.619,0,0,0-.684.152,5.346,5.346,0,0,0-1.078.445l.266-1.281q.2-.078.453-.16a5.633,5.633,0,0,1,.555-.148q.3-.066.672-.109a6.952,6.952,0,0,1,.8-.043,3.668,3.668,0,0,1,1.344.219,2.675,2.675,0,0,1,.914.574,2.171,2.171,0,0,1,.523.8A2.635,2.635,0,0,1,75.836,27.117Zm2.32,8.2a.854.854,0,0,1-.25.609.9.9,0,0,1-.277.188.836.836,0,0,1-.34.07.809.809,0,0,1-.336-.07.912.912,0,0,1-.273-.187.854.854,0,0,1-.25-.609.878.878,0,0,1,.066-.34.845.845,0,0,1,.184-.277.854.854,0,0,1,.609-.25.878.878,0,0,1,.34.066.834.834,0,0,1,.461.461A.878.878,0,0,1,78.156,35.313ZM86.8,27.281a1.517,1.517,0,0,0-.449-1.168,1.759,1.759,0,0,0-1.246-.418,3.922,3.922,0,0,0-1.523.32,4.92,4.92,0,0,0-1.43.93l.32-1.437a4.15,4.15,0,0,1,1.355-.7,5.811,5.811,0,0,1,1.59-.2,2.888,2.888,0,0,1,1.992.66,2.26,2.26,0,0,1,.742,1.777,4.059,4.059,0,0,1-.324,1.676A4.455,4.455,0,0,1,86.8,30.117a13.8,13.8,0,0,1-2.078,1.531q-1.242.773-1.887,1.273a5.032,5.032,0,0,0-.957.922,2.657,2.657,0,0,0-.445,1.008h5.531L86.719,36H79.8l.117-.555a5.4,5.4,0,0,1,.605-1.625,5.57,5.57,0,0,1,1.129-1.32A19.257,19.257,0,0,1,83.9,30.891a13.31,13.31,0,0,0,1.723-1.25,4.048,4.048,0,0,0,.9-1.086A2.688,2.688,0,0,0,86.8,27.281Zm10.133.641q0,.586-.055,1.223t-.172,1.285a12.945,12.945,0,0,1-.3,1.285,10.138,10.138,0,0,1-.441,1.23,8.318,8.318,0,0,1-.59,1.121,5.918,5.918,0,0,1-.746.957,3.614,3.614,0,0,1-2.7,1.172,2.709,2.709,0,0,1-1.16-.246,2.479,2.479,0,0,1-.9-.719,3.438,3.438,0,0,1-.582-1.164,5.551,5.551,0,0,1-.207-1.59,11.938,11.938,0,0,1,.141-1.793,11.1,11.1,0,0,1,.43-1.8,9.769,9.769,0,0,1,.719-1.66,6.191,6.191,0,0,1,1.016-1.375,4.129,4.129,0,0,1,1.242-.91,3.6,3.6,0,0,1,1.555-.324,2.927,2.927,0,0,1,1.133.211,2.318,2.318,0,0,1,.871.629,2.879,2.879,0,0,1,.559,1.035A4.774,4.774,0,0,1,96.938,27.922Zm-1.3.109a3.111,3.111,0,0,0-.406-1.715,1.323,1.323,0,0,0-1.18-.621,1.944,1.944,0,0,0-.867.2,2.953,2.953,0,0,0-.8.6,4.512,4.512,0,0,0-.574.762,7.791,7.791,0,0,0-.492.953,10.054,10.054,0,0,0-.395,1.074q-.172.563-.293,1.125t-.184,1.1a8.781,8.781,0,0,0-.062,1.008,4.622,4.622,0,0,0,.129,1.168,2.446,2.446,0,0,0,.355.8,1.412,1.412,0,0,0,.535.465,1.5,1.5,0,0,0,.66.148,1.958,1.958,0,0,0,.828-.187,2.451,2.451,0,0,0,.758-.562A5.037,5.037,0,0,0,94.43,33.2a10.287,10.287,0,0,0,.629-1.559,13.045,13.045,0,0,0,.426-1.785A11.043,11.043,0,0,0,95.641,28.031Zm9.922-.109q0,.586-.055,1.223t-.172,1.285a12.945,12.945,0,0,1-.3,1.285,10.138,10.138,0,0,1-.441,1.23,8.318,8.318,0,0,1-.59,1.121,5.918,5.918,0,0,1-.746.957,3.614,3.614,0,0,1-2.7,1.172,2.709,2.709,0,0,1-1.16-.246,2.479,2.479,0,0,1-.9-.719,3.438,3.438,0,0,1-.582-1.164,5.551,5.551,0,0,1-.207-1.59,11.938,11.938,0,0,1,.141-1.793,11.1,11.1,0,0,1,.43-1.8,9.769,9.769,0,0,1,.719-1.66,6.191,6.191,0,0,1,1.016-1.375,4.129,4.129,0,0,1,1.242-.91,3.6,3.6,0,0,1,1.555-.324,2.927,2.927,0,0,1,1.133.211,2.318,2.318,0,0,1,.871.629,2.879,2.879,0,0,1,.559,1.035A4.774,4.774,0,0,1,105.563,27.922Zm-1.3.109a3.111,3.111,0,0,0-.406-1.715,1.323,1.323,0,0,0-1.18-.621,1.944,1.944,0,0,0-.867.2,2.953,2.953,0,0,0-.8.6,4.512,4.512,0,0,0-.574.762,7.791,7.791,0,0,0-.492.953,10.054,10.054,0,0,0-.395,1.074q-.172.563-.293,1.125t-.184,1.1a8.781,8.781,0,0,0-.062,1.008,4.622,4.622,0,0,0,.129,1.168,2.446,2.446,0,0,0,.355.8,1.412,1.412,0,0,0,.535.465,1.5,1.5,0,0,0,.66.148,1.958,1.958,0,0,0,.828-.187,2.451,2.451,0,0,0,.758-.562,5.037,5.037,0,0,0,.773-1.152,10.287,10.287,0,0,0,.629-1.559,13.045,13.045,0,0,0,.426-1.785A11.043,11.043,0,0,0,104.266,28.031Z" transform="translate(331.809)" fill="#12263f"/>
      <path id="Trazado_908233" data-name="Trazado 908233" d="M29.3,8.742a4.3,4.3,0,0,1-.281,1.559,3.463,3.463,0,0,1-.855,1.277,4.07,4.07,0,0,1-1.457.863,6.161,6.161,0,0,1-2.078.316h-1.7L22.031,17H20.688L23.055,5.8h2.9a4.264,4.264,0,0,1,1.535.246,2.889,2.889,0,0,1,1.039.656,2.493,2.493,0,0,1,.586.941A3.349,3.349,0,0,1,29.3,8.742Zm-1.383.117a1.986,1.986,0,0,0-.145-.77,1.589,1.589,0,0,0-.426-.594,1.937,1.937,0,0,0-.7-.379,3.189,3.189,0,0,0-.965-.133H24.156l-.977,4.594h1.57a4.37,4.37,0,0,0,1.426-.207,2.71,2.71,0,0,0,.984-.57,2.222,2.222,0,0,0,.57-.859A3.1,3.1,0,0,0,27.914,8.859Zm8.469,5.578q-.063.3-.121.668t-.1.734q-.043.363-.07.676T36.063,17H34.734q.008-.156.023-.375t.043-.453q.027-.234.055-.461t.059-.391h-.031q-.242.383-.492.723a3.478,3.478,0,0,1-.555.6,2.429,2.429,0,0,1-.68.406,2.612,2.612,0,0,1-1.84-.039,2.006,2.006,0,0,1-.746-.559,2.574,2.574,0,0,1-.48-.93,4.532,4.532,0,0,1-.168-1.3,6.518,6.518,0,0,1,.094-1.031,6.309,6.309,0,0,1,.316-1.18,6.006,6.006,0,0,1,.594-1.176A4.465,4.465,0,0,1,31.848,9.8a4.4,4.4,0,0,1,1.3-.727A5.051,5.051,0,0,1,34.883,8.8a9.22,9.22,0,0,1,1.289.094q.664.094,1.32.227Zm-.367-4.383q-.273-.062-.641-.109a5.447,5.447,0,0,0-.687-.047,3.119,3.119,0,0,0-1.2.215,3.077,3.077,0,0,0-.9.563,3.313,3.313,0,0,0-.645.8,4.965,4.965,0,0,0-.418.926,5.449,5.449,0,0,0-.223.934,5.91,5.91,0,0,0-.066.836,3.744,3.744,0,0,0,.078.8,1.749,1.749,0,0,0,.246.605,1.156,1.156,0,0,0,.43.387,1.325,1.325,0,0,0,.621.137,1.692,1.692,0,0,0,.73-.16,2.532,2.532,0,0,0,.637-.434,3.56,3.56,0,0,0,.539-.633,6.225,6.225,0,0,0,.438-.762,6.515,6.515,0,0,0,.332-.82q.137-.418.223-.809Zm7.953.3h-.031a2.307,2.307,0,0,0-.41-.184,1.5,1.5,0,0,0-.5-.09,1.479,1.479,0,0,0-.867.293,3.188,3.188,0,0,0-.754.773,5.549,5.549,0,0,0-.594,1.1,7.5,7.5,0,0,0-.395,1.266L39.664,17H38.383l1.125-5.312q.07-.328.141-.687t.129-.719q.059-.359.105-.687T39.953,9h1.266q-.023.234-.055.5T41.1,10q-.031.246-.062.445t-.047.309h.031a8.623,8.623,0,0,1,.508-.8,3.718,3.718,0,0,1,.543-.613,2.3,2.3,0,0,1,.605-.395,1.71,1.71,0,0,1,.7-.141,2.206,2.206,0,0,1,.434.043q.215.043.387.09Zm5.086-.273H47.039l-.9,4.242q-.047.242-.094.523A2.892,2.892,0,0,0,46,15.3a.789.789,0,0,0,.176.574.764.764,0,0,0,.559.176,1.228,1.228,0,0,0,.242-.031q.148-.031.3-.078t.309-.105l.27-.105-.242,1.125a3.788,3.788,0,0,1-.621.2,2.877,2.877,0,0,1-.66.082,2.234,2.234,0,0,1-.758-.113,1.3,1.3,0,0,1-.512-.324,1.256,1.256,0,0,1-.289-.512,2.359,2.359,0,0,1-.09-.676,3.788,3.788,0,0,1,.043-.527,5.466,5.466,0,0,1,.105-.551l.922-4.352H44.43L44.672,9h1.313L46.4,7.047a2.408,2.408,0,0,1,.238-.074q.207-.059.453-.133l.453-.137.23-.07L47.281,9H49.3Zm3.031,6.883a2.994,2.994,0,0,1-.441.1,3.111,3.111,0,0,1-.488.039,1.594,1.594,0,0,1-1.18-.395,1.439,1.439,0,0,1-.391-1.059,3.227,3.227,0,0,1,.039-.461q.039-.266.125-.656L50.914,9h1.3l-1.172,5.57q-.07.328-.1.508a2.078,2.078,0,0,0-.027.3.644.644,0,0,0,.176.488.787.787,0,0,0,.559.168A2.366,2.366,0,0,0,52,16.016a1.575,1.575,0,0,0,.285-.07ZM53,6.148a.841.841,0,0,1-.238.6.782.782,0,0,1-.59.25.831.831,0,0,1-.6-.246.81.81,0,0,1-.254-.605.749.749,0,0,1,.254-.586.869.869,0,0,1,.6-.227.819.819,0,0,1,.586.23A.769.769,0,0,1,53,6.148Zm6.727,4.438a2.941,2.941,0,0,0-.793-.488,2.582,2.582,0,0,0-1.027-.2,2.427,2.427,0,0,0-.973.188,2.684,2.684,0,0,0-.77.5,3.244,3.244,0,0,0-.578.719,4.793,4.793,0,0,0-.4.844,5.193,5.193,0,0,0-.23.871,4.81,4.81,0,0,0-.074.809,2.552,2.552,0,0,0,.492,1.7,1.672,1.672,0,0,0,1.344.578,2.957,2.957,0,0,0,1.07-.215,5.151,5.151,0,0,0,1.047-.551l-.273,1.281a5.483,5.483,0,0,1-1.012.426,3.666,3.666,0,0,1-1.066.152,3.029,3.029,0,0,1-1.277-.25,2.5,2.5,0,0,1-.9-.687,2.946,2.946,0,0,1-.539-1.035,4.472,4.472,0,0,1-.18-1.293,6.315,6.315,0,0,1,.133-1.293,5.569,5.569,0,0,1,.395-1.2,5.218,5.218,0,0,1,.645-1.051A4.107,4.107,0,0,1,56.742,9,4.451,4.451,0,0,1,58.7,8.852a3.8,3.8,0,0,1,.555.125,3.737,3.737,0,0,1,.445.168,1.829,1.829,0,0,1,.313.176ZM63.2,16.969a2.994,2.994,0,0,1-.441.1,3.111,3.111,0,0,1-.488.039,1.594,1.594,0,0,1-1.18-.395,1.439,1.439,0,0,1-.391-1.059,3.227,3.227,0,0,1,.039-.461q.039-.266.125-.656L62.031,9h1.3l-1.172,5.57q-.07.328-.1.508a2.078,2.078,0,0,0-.027.3.644.644,0,0,0,.176.488.787.787,0,0,0,.559.168,2.366,2.366,0,0,0,.355-.023,1.575,1.575,0,0,0,.285-.07Zm.914-10.82a.841.841,0,0,1-.238.6.782.782,0,0,1-.59.25.831.831,0,0,1-.6-.246.81.81,0,0,1-.254-.605.749.749,0,0,1,.254-.586.869.869,0,0,1,.6-.227.819.819,0,0,1,.586.23A.769.769,0,0,1,64.117,6.148ZM72.156,11.8a6.075,6.075,0,0,1-.125,1.2,6.207,6.207,0,0,1-.383,1.223A6.02,6.02,0,0,1,71,15.359a4.625,4.625,0,0,1-.91.949,4.22,4.22,0,0,1-1.187.648,4.323,4.323,0,0,1-1.469.238,4.833,4.833,0,0,1-.91-.086,5.6,5.6,0,0,1-.785-.2l-.8,3.8h-1.3l1.953-9.25q.055-.25.1-.6t.082-.707q.035-.355.059-.668T65.867,9H67.18q0,.133-.02.359t-.051.473q-.031.246-.062.477t-.055.371h.031a4.221,4.221,0,0,1,1.25-1.41A2.672,2.672,0,0,1,69.789,8.8a2.476,2.476,0,0,1,.984.188,1.949,1.949,0,0,1,.746.563,2.6,2.6,0,0,1,.473.938A4.675,4.675,0,0,1,72.156,11.8Zm-1.312.055a3.864,3.864,0,0,0-.074-.781,1.733,1.733,0,0,0-.246-.617,1.246,1.246,0,0,0-.441-.406,1.352,1.352,0,0,0-.66-.148,1.76,1.76,0,0,0-.762.168,2.623,2.623,0,0,0-.66.449,3.682,3.682,0,0,0-.555.652,6.485,6.485,0,0,0-.445.77,6.762,6.762,0,0,0-.332.8,6.036,6.036,0,0,0-.207.754l-.492,2.32a2.192,2.192,0,0,0,.336.113q.2.051.406.09t.43.063a3.83,3.83,0,0,0,.406.023,2.7,2.7,0,0,0,1-.18,2.891,2.891,0,0,0,.82-.488A3.446,3.446,0,0,0,70,14.707a4.821,4.821,0,0,0,.465-.891,5.242,5.242,0,0,0,.281-.977A5.4,5.4,0,0,0,70.844,11.852Zm8.992,2.586q-.062.3-.121.668t-.1.734q-.043.363-.07.676T79.516,17H78.188q.008-.156.023-.375t.043-.453q.027-.234.055-.461t.059-.391h-.031q-.242.383-.492.723a3.478,3.478,0,0,1-.555.6,2.429,2.429,0,0,1-.68.406,2.612,2.612,0,0,1-1.84-.039,2.006,2.006,0,0,1-.746-.559,2.574,2.574,0,0,1-.48-.93,4.532,4.532,0,0,1-.168-1.3,6.518,6.518,0,0,1,.094-1.031,6.309,6.309,0,0,1,.316-1.18,6.006,6.006,0,0,1,.594-1.176A4.465,4.465,0,0,1,75.3,9.8a4.4,4.4,0,0,1,1.3-.727A5.051,5.051,0,0,1,78.336,8.8a9.22,9.22,0,0,1,1.289.094q.664.094,1.32.227Zm-.367-4.383q-.273-.062-.641-.109a5.447,5.447,0,0,0-.687-.047,3.119,3.119,0,0,0-1.2.215,3.077,3.077,0,0,0-.9.563,3.312,3.312,0,0,0-.645.8,4.965,4.965,0,0,0-.418.926,5.449,5.449,0,0,0-.223.934,5.91,5.91,0,0,0-.066.836,3.744,3.744,0,0,0,.078.8,1.749,1.749,0,0,0,.246.605,1.156,1.156,0,0,0,.43.387,1.325,1.325,0,0,0,.621.137,1.692,1.692,0,0,0,.73-.16,2.532,2.532,0,0,0,.637-.434,3.56,3.56,0,0,0,.539-.633,6.225,6.225,0,0,0,.438-.762,6.515,6.515,0,0,0,.332-.82q.137-.418.223-.809Zm8.719.531a2.941,2.941,0,0,0-.793-.488,2.582,2.582,0,0,0-1.027-.2,2.427,2.427,0,0,0-.973.188,2.684,2.684,0,0,0-.77.5,3.244,3.244,0,0,0-.578.719,4.792,4.792,0,0,0-.4.844,5.193,5.193,0,0,0-.23.871,4.81,4.81,0,0,0-.074.809,2.552,2.552,0,0,0,.492,1.7,1.672,1.672,0,0,0,1.344.578,2.957,2.957,0,0,0,1.07-.215,5.152,5.152,0,0,0,1.047-.551l-.273,1.281a5.483,5.483,0,0,1-1.012.426,3.666,3.666,0,0,1-1.066.152,3.029,3.029,0,0,1-1.277-.25,2.5,2.5,0,0,1-.9-.687,2.946,2.946,0,0,1-.539-1.035,4.472,4.472,0,0,1-.18-1.293,6.315,6.315,0,0,1,.133-1.293,5.569,5.569,0,0,1,.395-1.2,5.218,5.218,0,0,1,.645-1.051A4.107,4.107,0,0,1,85.2,9a4.451,4.451,0,0,1,1.961-.152,3.8,3.8,0,0,1,.555.125,3.737,3.737,0,0,1,.445.168,1.829,1.829,0,0,1,.313.176Zm3.477,6.383a2.994,2.994,0,0,1-.441.1,3.111,3.111,0,0,1-.488.039,1.594,1.594,0,0,1-1.18-.395,1.439,1.439,0,0,1-.391-1.059A3.228,3.228,0,0,1,89.2,15.2q.039-.266.125-.656L90.492,9h1.3l-1.172,5.57q-.07.328-.1.508a2.079,2.079,0,0,0-.027.3.644.644,0,0,0,.176.488.787.787,0,0,0,.559.168,2.366,2.366,0,0,0,.355-.023,1.575,1.575,0,0,0,.285-.07Zm.914-10.82a.841.841,0,0,1-.238.6.782.782,0,0,1-.59.25.831.831,0,0,1-.6-.246.81.81,0,0,1-.254-.605.749.749,0,0,1,.254-.586.869.869,0,0,1,.6-.227.819.819,0,0,1,.586.23A.769.769,0,0,1,92.578,6.148Zm7.93,5.813a6.659,6.659,0,0,1-.3,2.016,5.154,5.154,0,0,1-.867,1.668,4.19,4.19,0,0,1-1.375,1.133,3.914,3.914,0,0,1-1.824.418,3.33,3.33,0,0,1-1.238-.219,2.576,2.576,0,0,1-.937-.629,2.786,2.786,0,0,1-.594-.992,3.912,3.912,0,0,1-.207-1.316,6.519,6.519,0,0,1,.316-2.059,5.2,5.2,0,0,1,.891-1.664,4.161,4.161,0,0,1,1.375-1.109,3.885,3.885,0,0,1,1.77-.4,3.308,3.308,0,0,1,1.23.219,2.614,2.614,0,0,1,.941.629,2.848,2.848,0,0,1,.605.992A3.783,3.783,0,0,1,100.508,11.961Zm-1.312.063a2.987,2.987,0,0,0-.125-.9,1.92,1.92,0,0,0-.352-.664,1.525,1.525,0,0,0-.547-.414,1.729,1.729,0,0,0-.719-.145,2.272,2.272,0,0,0-1.242.352,3.143,3.143,0,0,0-.937.926,4.591,4.591,0,0,0-.59,1.3,5.46,5.46,0,0,0-.207,1.5,2.988,2.988,0,0,0,.121.879,2,2,0,0,0,.344.672,1.484,1.484,0,0,0,.547.426,1.735,1.735,0,0,0,.73.148,2.3,2.3,0,0,0,1.25-.348,3.1,3.1,0,0,0,.938-.922,4.505,4.505,0,0,0,.586-1.309A5.6,5.6,0,0,0,99.2,12.023ZM97.547,7.477h-.961l2.258-2.555H100.1ZM109.289,11a2.547,2.547,0,0,1-.027.32q-.027.2-.07.438t-.086.465q-.043.23-.082.395L108.094,17h-1.3l.977-4.687q.031-.125.063-.289t.055-.328q.023-.164.039-.3a2.01,2.01,0,0,0,.016-.215,1.424,1.424,0,0,0-.285-.937,1.038,1.038,0,0,0-.848-.344,1.972,1.972,0,0,0-1.023.3,4.211,4.211,0,0,0-.937.773,5.274,5.274,0,0,0-.738,1.031,3.952,3.952,0,0,0-.418,1.086L102.859,17h-1.3l1.234-5.711q.062-.3.125-.637t.117-.641q.055-.309.094-.574T103.2,9h1.25q-.039.3-.094.637t-.094.613q-.047.328-.1.641h.031a6.607,6.607,0,0,1,.605-.809,4.531,4.531,0,0,1,.719-.664,3.413,3.413,0,0,1,.82-.449,2.55,2.55,0,0,1,.91-.164,2.362,2.362,0,0,1,.914.16,1.712,1.712,0,0,1,.637.449,1.829,1.829,0,0,1,.375.7A3.108,3.108,0,0,1,109.289,11Zm13.172.961a6.659,6.659,0,0,1-.3,2.016,5.154,5.154,0,0,1-.867,1.668,4.19,4.19,0,0,1-1.375,1.133,3.914,3.914,0,0,1-1.824.418,3.33,3.33,0,0,1-1.238-.219,2.576,2.576,0,0,1-.937-.629,2.786,2.786,0,0,1-.594-.992,3.912,3.912,0,0,1-.207-1.316,6.519,6.519,0,0,1,.316-2.059,5.2,5.2,0,0,1,.891-1.664A4.161,4.161,0,0,1,117.7,9.207a3.885,3.885,0,0,1,1.77-.4,3.308,3.308,0,0,1,1.23.219,2.614,2.614,0,0,1,.941.629,2.848,2.848,0,0,1,.605.992A3.783,3.783,0,0,1,122.461,11.961Zm-1.312.063a2.987,2.987,0,0,0-.125-.9,1.92,1.92,0,0,0-.352-.664,1.525,1.525,0,0,0-.547-.414,1.729,1.729,0,0,0-.719-.145,2.272,2.272,0,0,0-1.242.352,3.143,3.143,0,0,0-.937.926,4.591,4.591,0,0,0-.59,1.3,5.46,5.46,0,0,0-.207,1.5,2.988,2.988,0,0,0,.121.879,2,2,0,0,0,.344.672,1.484,1.484,0,0,0,.547.426,1.735,1.735,0,0,0,.73.148,2.3,2.3,0,0,0,1.25-.348,3.1,3.1,0,0,0,.938-.922,4.505,4.505,0,0,0,.586-1.309A5.6,5.6,0,0,0,121.148,12.023Zm9.984-.227a6.411,6.411,0,0,1-.109,1.137,6.074,6.074,0,0,1-.352,1.2,6.236,6.236,0,0,1-.617,1.152,4.4,4.4,0,0,1-.9.977,4.314,4.314,0,0,1-1.219.676,4.523,4.523,0,0,1-1.566.254,5.644,5.644,0,0,1-.742-.051,6.466,6.466,0,0,1-.75-.145,5.84,5.84,0,0,1-.7-.227,3.7,3.7,0,0,1-.609-.3l2.406-11.312h1.3l-.8,3.828q-.086.383-.176.8t-.176.75h.016a5.586,5.586,0,0,1,.531-.719,3.394,3.394,0,0,1,.605-.547,2.635,2.635,0,0,1,.7-.348,2.593,2.593,0,0,1,.809-.121,2.1,2.1,0,0,1,1.754.781A3.507,3.507,0,0,1,131.133,11.8Zm-1.312.031a3.625,3.625,0,0,0-.082-.8,1.71,1.71,0,0,0-.258-.609,1.161,1.161,0,0,0-.449-.383,1.51,1.51,0,0,0-.664-.133,1.732,1.732,0,0,0-.945.289,3.355,3.355,0,0,0-.828.766,5.242,5.242,0,0,0-.648,1.078,5.622,5.622,0,0,0-.4,1.227l-.523,2.492a2.765,2.765,0,0,0,.668.25,3.386,3.386,0,0,0,.832.1,2.721,2.721,0,0,0,1.016-.184,2.859,2.859,0,0,0,.828-.5,3.517,3.517,0,0,0,.641-.742,4.73,4.73,0,0,0,.453-.895,5.417,5.417,0,0,0,.27-.977A5.541,5.541,0,0,0,129.82,11.828Zm5.172,5.141a2.994,2.994,0,0,1-.441.1,3.111,3.111,0,0,1-.488.039,1.594,1.594,0,0,1-1.18-.395,1.439,1.439,0,0,1-.391-1.059,3.227,3.227,0,0,1,.039-.461q.039-.266.125-.656l2-9.391h1.3l-2.008,9.422q-.07.328-.1.508a2.078,2.078,0,0,0-.027.3.644.644,0,0,0,.176.488.787.787,0,0,0,.559.168,2.366,2.366,0,0,0,.355-.023,1.575,1.575,0,0,0,.285-.07Zm4.141,0a2.994,2.994,0,0,1-.441.1,3.111,3.111,0,0,1-.488.039,1.594,1.594,0,0,1-1.18-.395,1.439,1.439,0,0,1-.391-1.059,3.227,3.227,0,0,1,.039-.461q.039-.266.125-.656L137.961,9h1.3l-1.172,5.57q-.07.328-.1.508a2.078,2.078,0,0,0-.027.3.644.644,0,0,0,.176.488.787.787,0,0,0,.559.168,2.366,2.366,0,0,0,.355-.023,1.575,1.575,0,0,0,.285-.07Zm.914-10.82a.841.841,0,0,1-.238.6.782.782,0,0,1-.59.25.831.831,0,0,1-.6-.246.81.81,0,0,1-.254-.605.749.749,0,0,1,.254-.586.869.869,0,0,1,.6-.227.819.819,0,0,1,.586.23A.769.769,0,0,1,140.047,6.148Zm6.617,10.273a10.132,10.132,0,0,1-.516,1.73,4.581,4.581,0,0,1-.848,1.375,3.611,3.611,0,0,1-1.3.906,4.869,4.869,0,0,1-1.883.324,4.42,4.42,0,0,1-1.332-.18,6.143,6.143,0,0,1-1.035-.43l.242-1.2a6.047,6.047,0,0,0,1.047.5,3.45,3.45,0,0,0,1.2.2,3.263,3.263,0,0,0,1.207-.2,2.424,2.424,0,0,0,.883-.6,3.3,3.3,0,0,0,.617-.965,7.336,7.336,0,0,0,.41-1.3l.273-1.25h-.031a7.841,7.841,0,0,1-.582.824,3.357,3.357,0,0,1-.6.578,2.333,2.333,0,0,1-.656.344A2.589,2.589,0,0,1,142.023,17a1.985,1.985,0,0,1-.746-.566,2.649,2.649,0,0,1-.477-.937,4.541,4.541,0,0,1-.168-1.3,6.163,6.163,0,0,1,.152-1.367,5.986,5.986,0,0,1,.441-1.273,5.361,5.361,0,0,1,.707-1.105,4.7,4.7,0,0,1,.949-.871,4.475,4.475,0,0,1,1.168-.574,4.383,4.383,0,0,1,1.363-.207,11.344,11.344,0,0,1,1.453.094q.727.094,1.336.211Zm.063-6.367a6.181,6.181,0,0,0-.645-.109,6.6,6.6,0,0,0-.809-.047,2.712,2.712,0,0,0-1.344.34,3.373,3.373,0,0,0-1.051.922,4.459,4.459,0,0,0-.687,1.355,5.353,5.353,0,0,0-.246,1.633,3.864,3.864,0,0,0,.074.781,1.883,1.883,0,0,0,.234.617,1.188,1.188,0,0,0,.414.406,1.212,1.212,0,0,0,.621.148,1.764,1.764,0,0,0,.793-.18,2.617,2.617,0,0,0,.668-.477,3.655,3.655,0,0,0,.543-.676,6.822,6.822,0,0,0,.422-.777,7.086,7.086,0,0,0,.309-.785q.125-.387.2-.7Zm9.039,4.383q-.063.3-.121.668t-.1.734q-.043.363-.07.676t-.027.484h-1.328q.008-.156.023-.375t.043-.453q.027-.234.055-.461t.059-.391h-.031q-.242.383-.492.723a3.478,3.478,0,0,1-.555.6,2.429,2.429,0,0,1-.68.406,2.612,2.612,0,0,1-1.84-.039,2.006,2.006,0,0,1-.746-.559,2.574,2.574,0,0,1-.48-.93,4.531,4.531,0,0,1-.168-1.3,6.518,6.518,0,0,1,.094-1.031,6.309,6.309,0,0,1,.316-1.18,6.007,6.007,0,0,1,.594-1.176A4.465,4.465,0,0,1,151.23,9.8a4.4,4.4,0,0,1,1.3-.727,5.051,5.051,0,0,1,1.734-.273,9.22,9.22,0,0,1,1.289.094q.664.094,1.32.227Zm-.367-4.383q-.273-.062-.641-.109a5.447,5.447,0,0,0-.687-.047,3.119,3.119,0,0,0-1.2.215,3.077,3.077,0,0,0-.9.563,3.313,3.313,0,0,0-.645.8,4.965,4.965,0,0,0-.418.926,5.448,5.448,0,0,0-.223.934,5.911,5.911,0,0,0-.066.836,3.744,3.744,0,0,0,.078.8,1.748,1.748,0,0,0,.246.605,1.156,1.156,0,0,0,.43.387,1.325,1.325,0,0,0,.621.137,1.692,1.692,0,0,0,.73-.16,2.532,2.532,0,0,0,.637-.434,3.56,3.56,0,0,0,.539-.633,6.225,6.225,0,0,0,.438-.762,6.515,6.515,0,0,0,.332-.82q.137-.418.223-.809Zm8.719.531a2.941,2.941,0,0,0-.793-.488,2.582,2.582,0,0,0-1.027-.2,2.427,2.427,0,0,0-.973.188,2.684,2.684,0,0,0-.77.5,3.244,3.244,0,0,0-.578.719,4.793,4.793,0,0,0-.4.844,5.193,5.193,0,0,0-.23.871,4.809,4.809,0,0,0-.074.809,2.552,2.552,0,0,0,.492,1.7,1.672,1.672,0,0,0,1.344.578,2.957,2.957,0,0,0,1.07-.215,5.151,5.151,0,0,0,1.047-.551l-.273,1.281a5.483,5.483,0,0,1-1.012.426,3.666,3.666,0,0,1-1.066.152,3.029,3.029,0,0,1-1.277-.25,2.5,2.5,0,0,1-.9-.687,2.946,2.946,0,0,1-.539-1.035,4.472,4.472,0,0,1-.18-1.293,6.315,6.315,0,0,1,.133-1.293,5.569,5.569,0,0,1,.395-1.2,5.219,5.219,0,0,1,.645-1.051A4.107,4.107,0,0,1,161.133,9a4.451,4.451,0,0,1,1.961-.152,3.8,3.8,0,0,1,.555.125,3.736,3.736,0,0,1,.445.168,1.829,1.829,0,0,1,.313.176Zm3.477,6.383a2.994,2.994,0,0,1-.441.1,3.111,3.111,0,0,1-.488.039,1.594,1.594,0,0,1-1.18-.395,1.439,1.439,0,0,1-.391-1.059,3.227,3.227,0,0,1,.039-.461q.039-.266.125-.656L166.422,9h1.3l-1.172,5.57q-.07.328-.1.508a2.078,2.078,0,0,0-.027.3.644.644,0,0,0,.176.488.787.787,0,0,0,.559.168,2.366,2.366,0,0,0,.355-.023,1.575,1.575,0,0,0,.285-.07Zm.914-10.82a.841.841,0,0,1-.238.6.782.782,0,0,1-.59.25.831.831,0,0,1-.6-.246.81.81,0,0,1-.254-.605.749.749,0,0,1,.254-.586.869.869,0,0,1,.6-.227.819.819,0,0,1,.586.23A.769.769,0,0,1,168.508,6.148Zm7.93,5.813a6.659,6.659,0,0,1-.3,2.016,5.153,5.153,0,0,1-.867,1.668,4.19,4.19,0,0,1-1.375,1.133,3.914,3.914,0,0,1-1.824.418,3.33,3.33,0,0,1-1.238-.219,2.576,2.576,0,0,1-.937-.629,2.786,2.786,0,0,1-.594-.992,3.912,3.912,0,0,1-.207-1.316,6.519,6.519,0,0,1,.316-2.059,5.2,5.2,0,0,1,.891-1.664,4.161,4.161,0,0,1,1.375-1.109,3.885,3.885,0,0,1,1.77-.4,3.308,3.308,0,0,1,1.23.219,2.614,2.614,0,0,1,.941.629,2.848,2.848,0,0,1,.605.992A3.783,3.783,0,0,1,176.438,11.961Zm-1.312.063a2.987,2.987,0,0,0-.125-.9,1.919,1.919,0,0,0-.352-.664,1.525,1.525,0,0,0-.547-.414,1.729,1.729,0,0,0-.719-.145,2.272,2.272,0,0,0-1.242.352,3.143,3.143,0,0,0-.937.926,4.591,4.591,0,0,0-.59,1.3,5.46,5.46,0,0,0-.207,1.5,2.988,2.988,0,0,0,.121.879,2,2,0,0,0,.344.672,1.484,1.484,0,0,0,.547.426,1.735,1.735,0,0,0,.73.148,2.3,2.3,0,0,0,1.25-.348,3.1,3.1,0,0,0,.938-.922,4.506,4.506,0,0,0,.586-1.309A5.6,5.6,0,0,0,175.125,12.023ZM185.219,11a2.545,2.545,0,0,1-.027.32q-.027.2-.07.438t-.086.465q-.043.23-.082.395L184.023,17h-1.3l.977-4.687q.031-.125.063-.289t.055-.328q.023-.164.039-.3a2.008,2.008,0,0,0,.016-.215,1.424,1.424,0,0,0-.285-.937,1.038,1.038,0,0,0-.848-.344,1.972,1.972,0,0,0-1.023.3,4.21,4.21,0,0,0-.937.773,5.275,5.275,0,0,0-.738,1.031,3.952,3.952,0,0,0-.418,1.086L178.789,17h-1.3l1.234-5.711q.063-.3.125-.637t.117-.641q.055-.309.094-.574T179.125,9h1.25q-.039.3-.094.637t-.094.613q-.047.328-.1.641h.031a6.607,6.607,0,0,1,.605-.809,4.531,4.531,0,0,1,.719-.664,3.413,3.413,0,0,1,.82-.449,2.55,2.55,0,0,1,.91-.164,2.362,2.362,0,0,1,.914.16,1.712,1.712,0,0,1,.637.449,1.829,1.829,0,0,1,.375.7A3.108,3.108,0,0,1,185.219,11Zm8.3-.125a2.381,2.381,0,0,1-.281,1.152,2.331,2.331,0,0,1-.93.891,5.584,5.584,0,0,1-1.711.574,14.678,14.678,0,0,1-2.625.211,1,1,0,0,0-.016.18v.156a2.657,2.657,0,0,0,.117.8,1.8,1.8,0,0,0,.363.656,1.714,1.714,0,0,0,.633.445,2.341,2.341,0,0,0,.918.164,3.9,3.9,0,0,0,1.184-.207,5.087,5.087,0,0,0,1.23-.59l-.242,1.266a5.078,5.078,0,0,1-1.023.438,4.4,4.4,0,0,1-1.328.188,3.609,3.609,0,0,1-1.488-.273,2.621,2.621,0,0,1-.977-.73,2.848,2.848,0,0,1-.535-1.055,4.716,4.716,0,0,1-.164-1.254,5.8,5.8,0,0,1,.156-1.355,5.519,5.519,0,0,1,.441-1.215,5.149,5.149,0,0,1,.684-1.027,4.443,4.443,0,0,1,.883-.793,4.092,4.092,0,0,1,1.039-.508A3.7,3.7,0,0,1,191,8.8a3.319,3.319,0,0,1,1.09.164,2.277,2.277,0,0,1,.789.449,1.915,1.915,0,0,1,.48.66A1.966,1.966,0,0,1,193.523,10.875Zm-1.3.063a.9.9,0,0,0-.363-.766,1.565,1.565,0,0,0-.965-.273,2.163,2.163,0,0,0-.922.207,2.984,2.984,0,0,0-.82.57,3.56,3.56,0,0,0-.648.867,4.038,4.038,0,0,0-.4,1.09,13.5,13.5,0,0,0,1.9-.113,4.925,4.925,0,0,0,1.273-.332,1.712,1.712,0,0,0,.719-.535A1.2,1.2,0,0,0,192.219,10.938Zm7.273-.531a3.329,3.329,0,0,0-.789-.367,2.845,2.845,0,0,0-.875-.141,1.726,1.726,0,0,0-1.137.336,1.1,1.1,0,0,0-.4.891,1.116,1.116,0,0,0,.074.414,1.25,1.25,0,0,0,.219.355,1.986,1.986,0,0,0,.367.324q.223.156.512.336a4.028,4.028,0,0,1,1.262,1.043,2.01,2.01,0,0,1,.387,1.207,2.435,2.435,0,0,1-.168.887,2,2,0,0,1-.535.766,2.745,2.745,0,0,1-.949.535,4.331,4.331,0,0,1-1.418.2,4.7,4.7,0,0,1-.516-.031,5.462,5.462,0,0,1-.566-.094,4.941,4.941,0,0,1-.547-.152,2.407,2.407,0,0,1-.457-.207l.258-1.219a2.692,2.692,0,0,0,.387.219,4,4,0,0,0,.5.2,4.673,4.673,0,0,0,.563.141,3.166,3.166,0,0,0,.582.055,1.834,1.834,0,0,0,1.168-.312,1.053,1.053,0,0,0,.387-.867,1.155,1.155,0,0,0-.059-.375,1.052,1.052,0,0,0-.207-.344,2.3,2.3,0,0,0-.391-.348q-.242-.176-.609-.395a3.947,3.947,0,0,1-1.176-1.012,1.992,1.992,0,0,1-.379-1.191,2.432,2.432,0,0,1,.18-.926,2.24,2.24,0,0,1,.535-.781,2.6,2.6,0,0,1,.895-.543,3.559,3.559,0,0,1,1.258-.2,5.018,5.018,0,0,1,1.066.109,3.786,3.786,0,0,1,.855.281Zm11.484-4.141a1.339,1.339,0,0,0-.187-.074q-.109-.035-.234-.066a2.588,2.588,0,0,0-.262-.051,1.852,1.852,0,0,0-.262-.02,1.213,1.213,0,0,0-.988.418,2.912,2.912,0,0,0-.527,1.246L208.227,9h1.891l-.258,1.086h-1.891l-2.047,9.57h-1.3l2.063-9.57h-1.375L205.555,9h1.375l.32-1.484a4.341,4.341,0,0,1,.414-1.172,2.689,2.689,0,0,1,.633-.789,2.359,2.359,0,0,1,.832-.445,3.509,3.509,0,0,1,1.02-.141,3.393,3.393,0,0,1,.566.047,3.473,3.473,0,0,1,.473.109Zm1.539,10.7a2.994,2.994,0,0,1-.441.1,3.111,3.111,0,0,1-.488.039,1.594,1.594,0,0,1-1.18-.395,1.439,1.439,0,0,1-.391-1.059,3.227,3.227,0,0,1,.039-.461q.039-.266.125-.656L211.344,9h1.3l-1.172,5.57q-.07.328-.1.508a2.078,2.078,0,0,0-.027.3.644.644,0,0,0,.176.488.787.787,0,0,0,.559.168,2.366,2.366,0,0,0,.355-.023,1.575,1.575,0,0,0,.285-.07Zm.914-10.82a.841.841,0,0,1-.238.6.782.782,0,0,1-.59.25.831.831,0,0,1-.6-.246.81.81,0,0,1-.254-.605A.749.749,0,0,1,212,5.563a.869.869,0,0,1,.6-.227.819.819,0,0,1,.586.23A.769.769,0,0,1,213.43,6.148ZM221.578,11a2.545,2.545,0,0,1-.027.32q-.027.2-.07.438t-.086.465q-.043.23-.082.395L220.383,17h-1.3l.977-4.687q.031-.125.063-.289t.055-.328q.023-.164.039-.3a2.008,2.008,0,0,0,.016-.215,1.424,1.424,0,0,0-.285-.937A1.038,1.038,0,0,0,219.1,9.9a1.972,1.972,0,0,0-1.023.3,4.21,4.21,0,0,0-.937.773,5.275,5.275,0,0,0-.738,1.031,3.952,3.952,0,0,0-.418,1.086L215.148,17h-1.3l1.234-5.711q.063-.3.125-.637t.117-.641q.055-.309.094-.574T215.484,9h1.25q-.039.3-.094.637t-.094.613q-.047.328-.1.641h.031a6.607,6.607,0,0,1,.605-.809,4.531,4.531,0,0,1,.719-.664,3.413,3.413,0,0,1,.82-.449,2.55,2.55,0,0,1,.91-.164,2.362,2.362,0,0,1,.914.16,1.712,1.712,0,0,1,.637.449,1.829,1.829,0,0,1,.375.7A3.108,3.108,0,0,1,221.578,11Zm7.891,3.438q-.063.3-.121.668t-.1.734q-.043.363-.07.676t-.027.484H227.82q.008-.156.023-.375t.043-.453q.027-.234.055-.461T228,15.32h-.031q-.242.383-.492.723a3.478,3.478,0,0,1-.555.6,2.429,2.429,0,0,1-.68.406,2.612,2.612,0,0,1-1.84-.039,2.006,2.006,0,0,1-.746-.559,2.574,2.574,0,0,1-.48-.93,4.531,4.531,0,0,1-.168-1.3,6.518,6.518,0,0,1,.094-1.031,6.309,6.309,0,0,1,.316-1.18,6.007,6.007,0,0,1,.594-1.176,4.465,4.465,0,0,1,.922-1.027,4.4,4.4,0,0,1,1.3-.727,5.051,5.051,0,0,1,1.734-.273,9.22,9.22,0,0,1,1.289.094q.664.094,1.32.227Zm-.367-4.383q-.273-.062-.641-.109a5.447,5.447,0,0,0-.687-.047,3.119,3.119,0,0,0-1.2.215,3.077,3.077,0,0,0-.9.563,3.313,3.313,0,0,0-.645.8,4.965,4.965,0,0,0-.418.926,5.448,5.448,0,0,0-.223.934,5.911,5.911,0,0,0-.066.836,3.744,3.744,0,0,0,.078.8,1.748,1.748,0,0,0,.246.605,1.156,1.156,0,0,0,.43.387,1.325,1.325,0,0,0,.621.137,1.692,1.692,0,0,0,.73-.16,2.532,2.532,0,0,0,.637-.434,3.56,3.56,0,0,0,.539-.633,6.225,6.225,0,0,0,.438-.762,6.515,6.515,0,0,0,.332-.82q.137-.418.223-.809ZM239.242,11a2.545,2.545,0,0,1-.027.32q-.027.2-.07.438t-.086.465q-.043.23-.082.395L238.047,17h-1.3l.977-4.687q.031-.125.063-.289t.055-.328q.023-.164.039-.3a2.008,2.008,0,0,0,.016-.215,1.424,1.424,0,0,0-.285-.937,1.038,1.038,0,0,0-.848-.344,1.972,1.972,0,0,0-1.023.3,4.21,4.21,0,0,0-.937.773,5.275,5.275,0,0,0-.738,1.031,3.952,3.952,0,0,0-.418,1.086L232.813,17h-1.3l1.234-5.711q.063-.3.125-.637t.117-.641q.055-.309.094-.574T233.148,9h1.25q-.039.3-.094.637t-.094.613q-.047.328-.1.641h.031a6.607,6.607,0,0,1,.605-.809,4.531,4.531,0,0,1,.719-.664,3.413,3.413,0,0,1,.82-.449,2.55,2.55,0,0,1,.91-.164,2.362,2.362,0,0,1,.914.16,1.712,1.712,0,0,1,.637.449,1.829,1.829,0,0,1,.375.7A3.108,3.108,0,0,1,239.242,11Zm7.57-.414a2.941,2.941,0,0,0-.793-.488,2.582,2.582,0,0,0-1.027-.2,2.427,2.427,0,0,0-.973.188,2.684,2.684,0,0,0-.77.5,3.244,3.244,0,0,0-.578.719,4.793,4.793,0,0,0-.4.844,5.193,5.193,0,0,0-.23.871,4.809,4.809,0,0,0-.074.809,2.552,2.552,0,0,0,.492,1.7,1.672,1.672,0,0,0,1.344.578,2.957,2.957,0,0,0,1.07-.215,5.151,5.151,0,0,0,1.047-.551l-.273,1.281a5.483,5.483,0,0,1-1.012.426,3.666,3.666,0,0,1-1.066.152,3.029,3.029,0,0,1-1.277-.25,2.5,2.5,0,0,1-.9-.687,2.946,2.946,0,0,1-.539-1.035,4.472,4.472,0,0,1-.18-1.293,6.315,6.315,0,0,1,.133-1.293,5.569,5.569,0,0,1,.395-1.2,5.219,5.219,0,0,1,.645-1.051A4.107,4.107,0,0,1,243.828,9a4.451,4.451,0,0,1,1.961-.152,3.8,3.8,0,0,1,.555.125,3.736,3.736,0,0,1,.445.168,1.829,1.829,0,0,1,.313.176Zm3.477,6.383a2.994,2.994,0,0,1-.441.1,3.111,3.111,0,0,1-.488.039,1.594,1.594,0,0,1-1.18-.395,1.439,1.439,0,0,1-.391-1.059,3.227,3.227,0,0,1,.039-.461q.039-.266.125-.656L249.117,9h1.3l-1.172,5.57q-.07.328-.1.508a2.078,2.078,0,0,0-.027.3.644.644,0,0,0,.176.488.787.787,0,0,0,.559.168,2.366,2.366,0,0,0,.355-.023,1.575,1.575,0,0,0,.285-.07Zm.914-10.82a.841.841,0,0,1-.238.6.782.782,0,0,1-.59.25.831.831,0,0,1-.6-.246.81.81,0,0,1-.254-.605.749.749,0,0,1,.254-.586.869.869,0,0,1,.6-.227.819.819,0,0,1,.586.23A.769.769,0,0,1,251.2,6.148Zm7.461,4.727a2.381,2.381,0,0,1-.281,1.152,2.331,2.331,0,0,1-.93.891,5.584,5.584,0,0,1-1.711.574,14.678,14.678,0,0,1-2.625.211,1,1,0,0,0-.016.18v.156a2.657,2.657,0,0,0,.117.8,1.8,1.8,0,0,0,.363.656,1.714,1.714,0,0,0,.633.445,2.341,2.341,0,0,0,.918.164,3.9,3.9,0,0,0,1.184-.207,5.087,5.087,0,0,0,1.23-.59L257.3,16.57a5.078,5.078,0,0,1-1.023.438,4.4,4.4,0,0,1-1.328.188,3.609,3.609,0,0,1-1.488-.273,2.621,2.621,0,0,1-.977-.73,2.848,2.848,0,0,1-.535-1.055,4.716,4.716,0,0,1-.164-1.254,5.8,5.8,0,0,1,.156-1.355,5.519,5.519,0,0,1,.441-1.215,5.149,5.149,0,0,1,.684-1.027,4.443,4.443,0,0,1,.883-.793,4.092,4.092,0,0,1,1.039-.508,3.7,3.7,0,0,1,1.148-.18,3.319,3.319,0,0,1,1.09.164,2.277,2.277,0,0,1,.789.449,1.915,1.915,0,0,1,.48.66A1.966,1.966,0,0,1,258.664,10.875Zm-1.3.063a.9.9,0,0,0-.363-.766,1.565,1.565,0,0,0-.965-.273,2.163,2.163,0,0,0-.922.207,2.984,2.984,0,0,0-.82.57,3.56,3.56,0,0,0-.648.867,4.038,4.038,0,0,0-.4,1.09,13.5,13.5,0,0,0,1.9-.113,4.925,4.925,0,0,0,1.273-.332,1.712,1.712,0,0,0,.719-.535A1.2,1.2,0,0,0,257.359,10.938Zm7.594-.578h-.031a2.306,2.306,0,0,0-.41-.184,1.5,1.5,0,0,0-.5-.09,1.479,1.479,0,0,0-.867.293,3.188,3.188,0,0,0-.754.773,5.55,5.55,0,0,0-.594,1.1,7.5,7.5,0,0,0-.395,1.266L260.648,17h-1.281l1.125-5.312q.07-.328.141-.687t.129-.719q.059-.359.105-.687t.07-.594H262.2q-.023.234-.055.5t-.062.508q-.031.246-.062.445t-.047.309h.031a8.621,8.621,0,0,1,.508-.8,3.718,3.718,0,0,1,.543-.613,2.3,2.3,0,0,1,.605-.395,1.71,1.71,0,0,1,.7-.141,2.205,2.205,0,0,1,.434.043q.215.043.387.09Zm6.766,4.078q-.062.3-.121.668t-.1.734q-.043.363-.07.676T271.4,17H270.07q.008-.156.023-.375t.043-.453q.027-.234.055-.461t.059-.391h-.031q-.242.383-.492.723a3.478,3.478,0,0,1-.555.6,2.429,2.429,0,0,1-.68.406,2.612,2.612,0,0,1-1.84-.039,2.006,2.006,0,0,1-.746-.559,2.574,2.574,0,0,1-.48-.93,4.532,4.532,0,0,1-.168-1.3,6.518,6.518,0,0,1,.094-1.031,6.309,6.309,0,0,1,.316-1.18,6.006,6.006,0,0,1,.594-1.176,4.465,4.465,0,0,1,.922-1.027,4.4,4.4,0,0,1,1.3-.727,5.051,5.051,0,0,1,1.734-.273,9.221,9.221,0,0,1,1.289.094q.664.094,1.32.227Zm-.367-4.383q-.273-.062-.641-.109a5.447,5.447,0,0,0-.687-.047,3.118,3.118,0,0,0-1.2.215,3.077,3.077,0,0,0-.9.563,3.312,3.312,0,0,0-.645.8,4.965,4.965,0,0,0-.418.926,5.45,5.45,0,0,0-.223.934,5.909,5.909,0,0,0-.066.836,3.743,3.743,0,0,0,.078.8,1.749,1.749,0,0,0,.246.605,1.156,1.156,0,0,0,.43.387,1.325,1.325,0,0,0,.621.137,1.692,1.692,0,0,0,.73-.16,2.532,2.532,0,0,0,.637-.434,3.561,3.561,0,0,0,.539-.633,6.225,6.225,0,0,0,.438-.762,6.515,6.515,0,0,0,.332-.82q.137-.418.223-.809Zm7.633.352a3.33,3.33,0,0,0-.789-.367,2.845,2.845,0,0,0-.875-.141,1.726,1.726,0,0,0-1.137.336,1.1,1.1,0,0,0-.4.891,1.116,1.116,0,0,0,.074.414,1.25,1.25,0,0,0,.219.355,1.985,1.985,0,0,0,.367.324q.223.156.512.336a4.028,4.028,0,0,1,1.262,1.043A2.01,2.01,0,0,1,278.6,14.8a2.436,2.436,0,0,1-.168.887,2,2,0,0,1-.535.766,2.744,2.744,0,0,1-.949.535,4.331,4.331,0,0,1-1.418.2,4.7,4.7,0,0,1-.516-.031,5.462,5.462,0,0,1-.566-.094,4.941,4.941,0,0,1-.547-.152,2.408,2.408,0,0,1-.457-.207l.258-1.219a2.69,2.69,0,0,0,.387.219,4,4,0,0,0,.5.2,4.673,4.673,0,0,0,.563.141,3.166,3.166,0,0,0,.582.055,1.834,1.834,0,0,0,1.168-.312,1.053,1.053,0,0,0,.387-.867,1.155,1.155,0,0,0-.059-.375,1.052,1.052,0,0,0-.207-.344,2.3,2.3,0,0,0-.391-.348q-.242-.176-.609-.395a3.946,3.946,0,0,1-1.176-1.012,1.992,1.992,0,0,1-.379-1.191,2.432,2.432,0,0,1,.18-.926,2.24,2.24,0,0,1,.535-.781,2.6,2.6,0,0,1,.895-.543,3.559,3.559,0,0,1,1.258-.2,5.018,5.018,0,0,1,1.066.109,3.786,3.786,0,0,1,.855.281Zm7.055.789V10.148h7.344V11.2Zm0,3.328V13.477h7.344v1.047Z" transform="translate(29 10)" fill="#12263f"/>
      <path id="Trazado_908235" data-name="Trazado 908235" d="M25.344,8.742a4.3,4.3,0,0,1-.281,1.559,3.463,3.463,0,0,1-.855,1.277,4.07,4.07,0,0,1-1.457.863,6.161,6.161,0,0,1-2.078.316h-1.7L18.078,17H16.734L19.1,5.8H22a4.264,4.264,0,0,1,1.535.246,2.889,2.889,0,0,1,1.039.656,2.493,2.493,0,0,1,.586.941A3.349,3.349,0,0,1,25.344,8.742Zm-1.383.117a1.986,1.986,0,0,0-.145-.77,1.589,1.589,0,0,0-.426-.594,1.937,1.937,0,0,0-.7-.379,3.189,3.189,0,0,0-.965-.133H20.2l-.977,4.594H20.8a4.37,4.37,0,0,0,1.426-.207,2.71,2.71,0,0,0,.984-.57,2.222,2.222,0,0,0,.57-.859A3.1,3.1,0,0,0,23.961,8.859Zm8.469,5.578q-.063.3-.121.668t-.1.734q-.043.363-.07.676T32.109,17H30.781q.008-.156.023-.375t.043-.453q.027-.234.055-.461t.059-.391H30.93q-.242.383-.492.723a3.478,3.478,0,0,1-.555.6,2.429,2.429,0,0,1-.68.406,2.612,2.612,0,0,1-1.84-.039,2.006,2.006,0,0,1-.746-.559,2.574,2.574,0,0,1-.48-.93,4.532,4.532,0,0,1-.168-1.3,6.518,6.518,0,0,1,.094-1.031,6.309,6.309,0,0,1,.316-1.18,6.006,6.006,0,0,1,.594-1.176A4.465,4.465,0,0,1,27.895,9.8a4.4,4.4,0,0,1,1.3-.727A5.051,5.051,0,0,1,30.93,8.8a9.22,9.22,0,0,1,1.289.094q.664.094,1.32.227Zm-.367-4.383q-.273-.062-.641-.109a5.447,5.447,0,0,0-.687-.047,3.119,3.119,0,0,0-1.2.215,3.077,3.077,0,0,0-.9.563,3.313,3.313,0,0,0-.645.8,4.965,4.965,0,0,0-.418.926,5.449,5.449,0,0,0-.223.934,5.91,5.91,0,0,0-.066.836,3.744,3.744,0,0,0,.078.8,1.749,1.749,0,0,0,.246.605,1.156,1.156,0,0,0,.43.387,1.325,1.325,0,0,0,.621.137,1.692,1.692,0,0,0,.73-.16,2.532,2.532,0,0,0,.637-.434,3.56,3.56,0,0,0,.539-.633A6.225,6.225,0,0,0,31,14.113a6.515,6.515,0,0,0,.332-.82q.137-.418.223-.809Zm7.953.3h-.031a2.307,2.307,0,0,0-.41-.184,1.5,1.5,0,0,0-.5-.09,1.479,1.479,0,0,0-.867.293,3.188,3.188,0,0,0-.754.773,5.549,5.549,0,0,0-.594,1.1,7.5,7.5,0,0,0-.395,1.266L35.711,17H34.43l1.125-5.312q.07-.328.141-.687t.129-.719q.059-.359.105-.687T36,9h1.266q-.023.234-.055.5T37.148,10q-.031.246-.062.445t-.047.309h.031a8.623,8.623,0,0,1,.508-.8,3.718,3.718,0,0,1,.543-.613,2.3,2.3,0,0,1,.605-.395,1.71,1.71,0,0,1,.7-.141,2.206,2.206,0,0,1,.434.043q.215.043.387.09Zm5.086-.273H43.086l-.9,4.242q-.047.242-.094.523a2.892,2.892,0,0,0-.047.453.789.789,0,0,0,.176.574.764.764,0,0,0,.559.176,1.228,1.228,0,0,0,.242-.031q.148-.031.3-.078t.309-.105l.27-.105-.242,1.125a3.788,3.788,0,0,1-.621.2,2.877,2.877,0,0,1-.66.082,2.234,2.234,0,0,1-.758-.113,1.3,1.3,0,0,1-.512-.324,1.256,1.256,0,0,1-.289-.512,2.359,2.359,0,0,1-.09-.676,3.788,3.788,0,0,1,.043-.527,5.466,5.466,0,0,1,.105-.551l.922-4.352H40.477L40.719,9h1.313l.414-1.953a2.408,2.408,0,0,1,.238-.074q.207-.059.453-.133L43.59,6.7l.23-.07L43.328,9h2.016Zm3.031,6.883a2.994,2.994,0,0,1-.441.1,3.111,3.111,0,0,1-.488.039,1.594,1.594,0,0,1-1.18-.395,1.439,1.439,0,0,1-.391-1.059,3.227,3.227,0,0,1,.039-.461q.039-.266.125-.656L46.961,9h1.3l-1.172,5.57q-.07.328-.1.508a2.078,2.078,0,0,0-.027.3.644.644,0,0,0,.176.488.787.787,0,0,0,.559.168,2.366,2.366,0,0,0,.355-.023,1.575,1.575,0,0,0,.285-.07Zm.914-10.82a.841.841,0,0,1-.238.6.782.782,0,0,1-.59.25.831.831,0,0,1-.6-.246.81.81,0,0,1-.254-.605.749.749,0,0,1,.254-.586.869.869,0,0,1,.6-.227.819.819,0,0,1,.586.23A.769.769,0,0,1,49.047,6.148Zm6.727,4.438a2.941,2.941,0,0,0-.793-.488,2.582,2.582,0,0,0-1.027-.2,2.427,2.427,0,0,0-.973.188,2.684,2.684,0,0,0-.77.5,3.244,3.244,0,0,0-.578.719,4.793,4.793,0,0,0-.4.844,5.193,5.193,0,0,0-.23.871,4.81,4.81,0,0,0-.074.809,2.552,2.552,0,0,0,.492,1.7,1.672,1.672,0,0,0,1.344.578,2.957,2.957,0,0,0,1.07-.215,5.151,5.151,0,0,0,1.047-.551l-.273,1.281a5.483,5.483,0,0,1-1.012.426,3.666,3.666,0,0,1-1.066.152,3.029,3.029,0,0,1-1.277-.25,2.5,2.5,0,0,1-.9-.687,2.946,2.946,0,0,1-.539-1.035,4.472,4.472,0,0,1-.18-1.293,6.315,6.315,0,0,1,.133-1.293,5.569,5.569,0,0,1,.395-1.2,5.218,5.218,0,0,1,.645-1.051A4.107,4.107,0,0,1,52.789,9a4.451,4.451,0,0,1,1.961-.152,3.8,3.8,0,0,1,.555.125,3.737,3.737,0,0,1,.445.168,1.829,1.829,0,0,1,.313.176Zm3.477,6.383a2.994,2.994,0,0,1-.441.1,3.111,3.111,0,0,1-.488.039,1.594,1.594,0,0,1-1.18-.395,1.439,1.439,0,0,1-.391-1.059,3.227,3.227,0,0,1,.039-.461q.039-.266.125-.656L58.078,9h1.3L58.2,14.57q-.07.328-.1.508a2.078,2.078,0,0,0-.027.3.644.644,0,0,0,.176.488.787.787,0,0,0,.559.168,2.366,2.366,0,0,0,.355-.023,1.575,1.575,0,0,0,.285-.07Zm.914-10.82a.841.841,0,0,1-.238.6.782.782,0,0,1-.59.25.831.831,0,0,1-.6-.246.81.81,0,0,1-.254-.605.749.749,0,0,1,.254-.586.869.869,0,0,1,.6-.227.819.819,0,0,1,.586.23A.769.769,0,0,1,60.164,6.148ZM68.2,11.8a6.075,6.075,0,0,1-.125,1.2,6.207,6.207,0,0,1-.383,1.223,6.02,6.02,0,0,1-.645,1.141,4.625,4.625,0,0,1-.91.949,4.22,4.22,0,0,1-1.187.648,4.323,4.323,0,0,1-1.469.238,4.833,4.833,0,0,1-.91-.086,5.6,5.6,0,0,1-.785-.2l-.8,3.8H59.7l1.953-9.25q.055-.25.1-.6t.082-.707q.035-.355.059-.668T61.914,9h1.313q0,.133-.02.359t-.051.473q-.031.246-.062.477t-.055.371h.031a4.221,4.221,0,0,1,1.25-1.41A2.672,2.672,0,0,1,65.836,8.8a2.476,2.476,0,0,1,.984.188,1.949,1.949,0,0,1,.746.563,2.6,2.6,0,0,1,.473.938A4.675,4.675,0,0,1,68.2,11.8Zm-1.312.055a3.864,3.864,0,0,0-.074-.781,1.733,1.733,0,0,0-.246-.617,1.246,1.246,0,0,0-.441-.406,1.352,1.352,0,0,0-.66-.148,1.76,1.76,0,0,0-.762.168,2.623,2.623,0,0,0-.66.449,3.682,3.682,0,0,0-.555.652,6.484,6.484,0,0,0-.445.77,6.762,6.762,0,0,0-.332.8,6.037,6.037,0,0,0-.207.754l-.492,2.32a2.192,2.192,0,0,0,.336.113q.2.051.406.09t.43.063a3.83,3.83,0,0,0,.406.023,2.7,2.7,0,0,0,1-.18,2.891,2.891,0,0,0,.82-.488,3.446,3.446,0,0,0,.641-.727,4.821,4.821,0,0,0,.465-.891,5.242,5.242,0,0,0,.281-.977A5.4,5.4,0,0,0,66.891,11.852Zm8.992,2.586q-.062.3-.121.668t-.1.734q-.043.363-.07.676T75.563,17H74.234q.008-.156.023-.375t.043-.453q.027-.234.055-.461t.059-.391h-.031q-.242.383-.492.723a3.478,3.478,0,0,1-.555.6,2.429,2.429,0,0,1-.68.406,2.612,2.612,0,0,1-1.84-.039,2.006,2.006,0,0,1-.746-.559,2.574,2.574,0,0,1-.48-.93,4.532,4.532,0,0,1-.168-1.3,6.518,6.518,0,0,1,.094-1.031,6.309,6.309,0,0,1,.316-1.18,6.006,6.006,0,0,1,.594-1.176A4.465,4.465,0,0,1,71.348,9.8a4.4,4.4,0,0,1,1.3-.727A5.051,5.051,0,0,1,74.383,8.8a9.22,9.22,0,0,1,1.289.094q.664.094,1.32.227Zm-.367-4.383q-.273-.062-.641-.109a5.447,5.447,0,0,0-.687-.047,3.119,3.119,0,0,0-1.2.215,3.077,3.077,0,0,0-.9.563,3.312,3.312,0,0,0-.645.8,4.965,4.965,0,0,0-.418.926,5.449,5.449,0,0,0-.223.934,5.91,5.91,0,0,0-.066.836,3.744,3.744,0,0,0,.078.8,1.749,1.749,0,0,0,.246.605,1.156,1.156,0,0,0,.43.387,1.325,1.325,0,0,0,.621.137,1.692,1.692,0,0,0,.73-.16,2.532,2.532,0,0,0,.637-.434,3.56,3.56,0,0,0,.539-.633,6.225,6.225,0,0,0,.438-.762,6.515,6.515,0,0,0,.332-.82q.137-.418.223-.809Zm8.719.531a2.941,2.941,0,0,0-.793-.488,2.582,2.582,0,0,0-1.027-.2,2.427,2.427,0,0,0-.973.188,2.684,2.684,0,0,0-.77.5,3.244,3.244,0,0,0-.578.719,4.792,4.792,0,0,0-.4.844,5.193,5.193,0,0,0-.23.871,4.81,4.81,0,0,0-.074.809,2.552,2.552,0,0,0,.492,1.7,1.672,1.672,0,0,0,1.344.578,2.957,2.957,0,0,0,1.07-.215,5.152,5.152,0,0,0,1.047-.551l-.273,1.281a5.483,5.483,0,0,1-1.012.426,3.666,3.666,0,0,1-1.066.152,3.029,3.029,0,0,1-1.277-.25,2.5,2.5,0,0,1-.9-.687,2.946,2.946,0,0,1-.539-1.035,4.472,4.472,0,0,1-.18-1.293,6.315,6.315,0,0,1,.133-1.293,5.569,5.569,0,0,1,.395-1.2,5.218,5.218,0,0,1,.645-1.051A4.107,4.107,0,0,1,81.25,9a4.451,4.451,0,0,1,1.961-.152,3.8,3.8,0,0,1,.555.125,3.737,3.737,0,0,1,.445.168,1.829,1.829,0,0,1,.313.176Zm3.477,6.383a2.994,2.994,0,0,1-.441.1,3.111,3.111,0,0,1-.488.039,1.594,1.594,0,0,1-1.18-.395,1.439,1.439,0,0,1-.391-1.059,3.228,3.228,0,0,1,.039-.461q.039-.266.125-.656L86.539,9h1.3l-1.172,5.57q-.07.328-.1.508a2.079,2.079,0,0,0-.027.3.644.644,0,0,0,.176.488.787.787,0,0,0,.559.168,2.366,2.366,0,0,0,.355-.023,1.575,1.575,0,0,0,.285-.07Zm.914-10.82a.841.841,0,0,1-.238.6A.782.782,0,0,1,87.8,7a.831.831,0,0,1-.6-.246.81.81,0,0,1-.254-.605.749.749,0,0,1,.254-.586.869.869,0,0,1,.6-.227.819.819,0,0,1,.586.23A.769.769,0,0,1,88.625,6.148Zm7.93,5.813a6.659,6.659,0,0,1-.3,2.016,5.154,5.154,0,0,1-.867,1.668,4.19,4.19,0,0,1-1.375,1.133,3.914,3.914,0,0,1-1.824.418,3.33,3.33,0,0,1-1.238-.219,2.576,2.576,0,0,1-.937-.629,2.786,2.786,0,0,1-.594-.992,3.912,3.912,0,0,1-.207-1.316,6.519,6.519,0,0,1,.316-2.059,5.2,5.2,0,0,1,.891-1.664,4.161,4.161,0,0,1,1.375-1.109,3.885,3.885,0,0,1,1.77-.4,3.308,3.308,0,0,1,1.23.219,2.614,2.614,0,0,1,.941.629,2.848,2.848,0,0,1,.605.992A3.783,3.783,0,0,1,96.555,11.961Zm-1.312.063a2.987,2.987,0,0,0-.125-.9,1.92,1.92,0,0,0-.352-.664,1.525,1.525,0,0,0-.547-.414A1.729,1.729,0,0,0,93.5,9.9a2.272,2.272,0,0,0-1.242.352,3.143,3.143,0,0,0-.937.926,4.591,4.591,0,0,0-.59,1.3,5.46,5.46,0,0,0-.207,1.5,2.988,2.988,0,0,0,.121.879,2,2,0,0,0,.344.672,1.484,1.484,0,0,0,.547.426,1.735,1.735,0,0,0,.73.148,2.3,2.3,0,0,0,1.25-.348,3.1,3.1,0,0,0,.938-.922,4.505,4.505,0,0,0,.586-1.309A5.6,5.6,0,0,0,95.242,12.023ZM93.594,7.477h-.961l2.258-2.555h1.258ZM105.336,11a2.547,2.547,0,0,1-.027.32q-.027.2-.07.438t-.086.465q-.043.23-.082.395L104.141,17h-1.3l.977-4.687q.031-.125.063-.289t.055-.328q.023-.164.039-.3a2.01,2.01,0,0,0,.016-.215,1.424,1.424,0,0,0-.285-.937,1.038,1.038,0,0,0-.848-.344,1.972,1.972,0,0,0-1.023.3,4.211,4.211,0,0,0-.937.773,5.274,5.274,0,0,0-.738,1.031,3.952,3.952,0,0,0-.418,1.086L98.906,17h-1.3l1.234-5.711q.062-.3.125-.637t.117-.641q.055-.309.094-.574T99.242,9h1.25q-.039.3-.094.637t-.094.613q-.047.328-.1.641h.031a6.607,6.607,0,0,1,.605-.809,4.531,4.531,0,0,1,.719-.664,3.413,3.413,0,0,1,.82-.449,2.55,2.55,0,0,1,.91-.164,2.362,2.362,0,0,1,.914.16,1.712,1.712,0,0,1,.637.449,1.829,1.829,0,0,1,.375.7A3.108,3.108,0,0,1,105.336,11Zm13.172.961a6.659,6.659,0,0,1-.3,2.016,5.154,5.154,0,0,1-.867,1.668,4.19,4.19,0,0,1-1.375,1.133,3.914,3.914,0,0,1-1.824.418,3.33,3.33,0,0,1-1.238-.219,2.576,2.576,0,0,1-.937-.629,2.786,2.786,0,0,1-.594-.992,3.912,3.912,0,0,1-.207-1.316,6.519,6.519,0,0,1,.316-2.059,5.2,5.2,0,0,1,.891-1.664,4.161,4.161,0,0,1,1.375-1.109,3.885,3.885,0,0,1,1.77-.4,3.308,3.308,0,0,1,1.23.219,2.614,2.614,0,0,1,.941.629,2.848,2.848,0,0,1,.605.992A3.783,3.783,0,0,1,118.508,11.961Zm-1.312.063a2.987,2.987,0,0,0-.125-.9,1.92,1.92,0,0,0-.352-.664,1.525,1.525,0,0,0-.547-.414,1.729,1.729,0,0,0-.719-.145,2.272,2.272,0,0,0-1.242.352,3.143,3.143,0,0,0-.937.926,4.591,4.591,0,0,0-.59,1.3,5.46,5.46,0,0,0-.207,1.5,2.988,2.988,0,0,0,.121.879,2,2,0,0,0,.344.672,1.484,1.484,0,0,0,.547.426,1.735,1.735,0,0,0,.73.148,2.3,2.3,0,0,0,1.25-.348,3.1,3.1,0,0,0,.938-.922,4.505,4.505,0,0,0,.586-1.309A5.6,5.6,0,0,0,117.2,12.023Zm9.984-.227a6.412,6.412,0,0,1-.109,1.137,6.073,6.073,0,0,1-.352,1.2,6.237,6.237,0,0,1-.617,1.152,4.4,4.4,0,0,1-.9.977,4.314,4.314,0,0,1-1.219.676,4.523,4.523,0,0,1-1.566.254,5.644,5.644,0,0,1-.742-.051,6.466,6.466,0,0,1-.75-.145,5.84,5.84,0,0,1-.7-.227,3.7,3.7,0,0,1-.609-.3l2.406-11.312h1.3l-.8,3.828q-.086.383-.176.8t-.176.75h.016a5.586,5.586,0,0,1,.531-.719,3.394,3.394,0,0,1,.605-.547,2.635,2.635,0,0,1,.7-.348,2.593,2.593,0,0,1,.809-.121,2.1,2.1,0,0,1,1.754.781A3.507,3.507,0,0,1,127.18,11.8Zm-1.312.031a3.625,3.625,0,0,0-.082-.8,1.71,1.71,0,0,0-.258-.609,1.161,1.161,0,0,0-.449-.383,1.51,1.51,0,0,0-.664-.133,1.732,1.732,0,0,0-.945.289,3.355,3.355,0,0,0-.828.766,5.242,5.242,0,0,0-.648,1.078,5.622,5.622,0,0,0-.4,1.227l-.523,2.492a2.765,2.765,0,0,0,.668.25,3.386,3.386,0,0,0,.832.1,2.721,2.721,0,0,0,1.016-.184,2.859,2.859,0,0,0,.828-.5,3.517,3.517,0,0,0,.641-.742,4.73,4.73,0,0,0,.453-.895,5.418,5.418,0,0,0,.27-.977A5.54,5.54,0,0,0,125.867,11.828Zm5.172,5.141a2.994,2.994,0,0,1-.441.1,3.111,3.111,0,0,1-.488.039,1.594,1.594,0,0,1-1.18-.395,1.439,1.439,0,0,1-.391-1.059,3.227,3.227,0,0,1,.039-.461q.039-.266.125-.656l2-9.391H132l-2.008,9.422q-.07.328-.1.508a2.078,2.078,0,0,0-.027.3.644.644,0,0,0,.176.488.787.787,0,0,0,.559.168,2.366,2.366,0,0,0,.355-.023,1.575,1.575,0,0,0,.285-.07Zm4.141,0a2.994,2.994,0,0,1-.441.1,3.111,3.111,0,0,1-.488.039,1.594,1.594,0,0,1-1.18-.395,1.439,1.439,0,0,1-.391-1.059,3.227,3.227,0,0,1,.039-.461q.039-.266.125-.656L134.008,9h1.3l-1.172,5.57q-.07.328-.1.508a2.078,2.078,0,0,0-.027.3.644.644,0,0,0,.176.488.787.787,0,0,0,.559.168,2.366,2.366,0,0,0,.355-.023,1.575,1.575,0,0,0,.285-.07Zm.914-10.82a.841.841,0,0,1-.238.6.782.782,0,0,1-.59.25.831.831,0,0,1-.6-.246.81.81,0,0,1-.254-.605.749.749,0,0,1,.254-.586.869.869,0,0,1,.6-.227.819.819,0,0,1,.586.23A.769.769,0,0,1,136.094,6.148Zm6.617,10.273a10.132,10.132,0,0,1-.516,1.73,4.581,4.581,0,0,1-.848,1.375,3.611,3.611,0,0,1-1.3.906,4.869,4.869,0,0,1-1.883.324,4.42,4.42,0,0,1-1.332-.18,6.143,6.143,0,0,1-1.035-.43l.242-1.2a6.047,6.047,0,0,0,1.047.5,3.45,3.45,0,0,0,1.2.2,3.263,3.263,0,0,0,1.207-.2,2.424,2.424,0,0,0,.883-.6,3.3,3.3,0,0,0,.617-.965,7.336,7.336,0,0,0,.41-1.3l.273-1.25h-.031a7.841,7.841,0,0,1-.582.824,3.357,3.357,0,0,1-.6.578,2.333,2.333,0,0,1-.656.344A2.589,2.589,0,0,1,138.07,17a1.985,1.985,0,0,1-.746-.566,2.649,2.649,0,0,1-.477-.937,4.541,4.541,0,0,1-.168-1.3,6.163,6.163,0,0,1,.152-1.367,5.986,5.986,0,0,1,.441-1.273,5.361,5.361,0,0,1,.707-1.105,4.7,4.7,0,0,1,.949-.871,4.475,4.475,0,0,1,1.168-.574,4.383,4.383,0,0,1,1.363-.207,11.344,11.344,0,0,1,1.453.094q.727.094,1.336.211Zm.063-6.367a6.181,6.181,0,0,0-.645-.109,6.6,6.6,0,0,0-.809-.047,2.712,2.712,0,0,0-1.344.34,3.373,3.373,0,0,0-1.051.922,4.459,4.459,0,0,0-.687,1.355,5.353,5.353,0,0,0-.246,1.633,3.864,3.864,0,0,0,.074.781,1.883,1.883,0,0,0,.234.617,1.188,1.188,0,0,0,.414.406,1.212,1.212,0,0,0,.621.148,1.764,1.764,0,0,0,.793-.18,2.617,2.617,0,0,0,.668-.477,3.655,3.655,0,0,0,.543-.676,6.822,6.822,0,0,0,.422-.777,7.086,7.086,0,0,0,.309-.785q.125-.387.2-.7Zm9.039,4.383q-.063.3-.121.668t-.1.734q-.043.363-.07.676t-.027.484h-1.328q.008-.156.023-.375t.043-.453q.027-.234.055-.461t.059-.391h-.031q-.242.383-.492.723a3.478,3.478,0,0,1-.555.6,2.429,2.429,0,0,1-.68.406,2.612,2.612,0,0,1-1.84-.039,2.006,2.006,0,0,1-.746-.559,2.574,2.574,0,0,1-.48-.93,4.531,4.531,0,0,1-.168-1.3,6.518,6.518,0,0,1,.094-1.031,6.309,6.309,0,0,1,.316-1.18,6.007,6.007,0,0,1,.594-1.176,4.465,4.465,0,0,1,.922-1.027,4.4,4.4,0,0,1,1.3-.727,5.051,5.051,0,0,1,1.734-.273A9.22,9.22,0,0,1,151.6,8.9q.664.094,1.32.227Zm-.367-4.383q-.273-.062-.641-.109a5.447,5.447,0,0,0-.687-.047,3.119,3.119,0,0,0-1.2.215,3.077,3.077,0,0,0-.9.563,3.313,3.313,0,0,0-.645.8,4.965,4.965,0,0,0-.418.926,5.448,5.448,0,0,0-.223.934,5.911,5.911,0,0,0-.066.836,3.744,3.744,0,0,0,.078.8,1.748,1.748,0,0,0,.246.605,1.156,1.156,0,0,0,.43.387,1.325,1.325,0,0,0,.621.137,1.692,1.692,0,0,0,.73-.16,2.532,2.532,0,0,0,.637-.434,3.56,3.56,0,0,0,.539-.633,6.225,6.225,0,0,0,.438-.762,6.515,6.515,0,0,0,.332-.82q.137-.418.223-.809Zm8.719.531a2.941,2.941,0,0,0-.793-.488,2.582,2.582,0,0,0-1.027-.2,2.427,2.427,0,0,0-.973.188,2.684,2.684,0,0,0-.77.5,3.244,3.244,0,0,0-.578.719,4.793,4.793,0,0,0-.4.844,5.193,5.193,0,0,0-.23.871,4.809,4.809,0,0,0-.074.809,2.552,2.552,0,0,0,.492,1.7,1.672,1.672,0,0,0,1.344.578,2.957,2.957,0,0,0,1.07-.215,5.151,5.151,0,0,0,1.047-.551L159,16.617a5.483,5.483,0,0,1-1.012.426,3.666,3.666,0,0,1-1.066.152,3.029,3.029,0,0,1-1.277-.25,2.5,2.5,0,0,1-.9-.687,2.946,2.946,0,0,1-.539-1.035,4.472,4.472,0,0,1-.18-1.293,6.315,6.315,0,0,1,.133-1.293,5.569,5.569,0,0,1,.395-1.2,5.219,5.219,0,0,1,.645-1.051A4.107,4.107,0,0,1,157.18,9a4.451,4.451,0,0,1,1.961-.152,3.8,3.8,0,0,1,.555.125,3.736,3.736,0,0,1,.445.168,1.829,1.829,0,0,1,.313.176Zm3.477,6.383a2.994,2.994,0,0,1-.441.1,3.111,3.111,0,0,1-.488.039,1.594,1.594,0,0,1-1.18-.395,1.439,1.439,0,0,1-.391-1.059,3.227,3.227,0,0,1,.039-.461q.039-.266.125-.656L162.469,9h1.3l-1.172,5.57q-.07.328-.1.508a2.078,2.078,0,0,0-.027.3.644.644,0,0,0,.176.488.787.787,0,0,0,.559.168,2.366,2.366,0,0,0,.355-.023,1.575,1.575,0,0,0,.285-.07Zm.914-10.82a.841.841,0,0,1-.238.6.782.782,0,0,1-.59.25.831.831,0,0,1-.6-.246.81.81,0,0,1-.254-.605.749.749,0,0,1,.254-.586.869.869,0,0,1,.6-.227.819.819,0,0,1,.586.23A.769.769,0,0,1,164.555,6.148Zm7.93,5.813a6.659,6.659,0,0,1-.3,2.016,5.153,5.153,0,0,1-.867,1.668,4.19,4.19,0,0,1-1.375,1.133,3.914,3.914,0,0,1-1.824.418,3.33,3.33,0,0,1-1.238-.219,2.576,2.576,0,0,1-.937-.629,2.786,2.786,0,0,1-.594-.992,3.912,3.912,0,0,1-.207-1.316,6.519,6.519,0,0,1,.316-2.059,5.2,5.2,0,0,1,.891-1.664,4.161,4.161,0,0,1,1.375-1.109,3.885,3.885,0,0,1,1.77-.4,3.308,3.308,0,0,1,1.23.219,2.614,2.614,0,0,1,.941.629,2.848,2.848,0,0,1,.605.992A3.783,3.783,0,0,1,172.484,11.961Zm-1.312.063a2.987,2.987,0,0,0-.125-.9,1.919,1.919,0,0,0-.352-.664,1.525,1.525,0,0,0-.547-.414,1.729,1.729,0,0,0-.719-.145,2.272,2.272,0,0,0-1.242.352,3.143,3.143,0,0,0-.937.926,4.591,4.591,0,0,0-.59,1.3,5.46,5.46,0,0,0-.207,1.5,2.988,2.988,0,0,0,.121.879,2,2,0,0,0,.344.672,1.484,1.484,0,0,0,.547.426,1.735,1.735,0,0,0,.73.148,2.3,2.3,0,0,0,1.25-.348,3.1,3.1,0,0,0,.938-.922,4.506,4.506,0,0,0,.586-1.309A5.6,5.6,0,0,0,171.172,12.023ZM181.266,11a2.545,2.545,0,0,1-.027.32q-.027.2-.07.438t-.086.465q-.043.23-.082.395L180.07,17h-1.3l.977-4.687q.031-.125.063-.289t.055-.328q.023-.164.039-.3a2.008,2.008,0,0,0,.016-.215,1.424,1.424,0,0,0-.285-.937,1.038,1.038,0,0,0-.848-.344,1.972,1.972,0,0,0-1.023.3,4.21,4.21,0,0,0-.937.773,5.275,5.275,0,0,0-.738,1.031,3.952,3.952,0,0,0-.418,1.086L174.836,17h-1.3l1.234-5.711q.063-.3.125-.637t.117-.641q.055-.309.094-.574T175.172,9h1.25q-.039.3-.094.637t-.094.613q-.047.328-.1.641h.031a6.607,6.607,0,0,1,.605-.809,4.531,4.531,0,0,1,.719-.664,3.413,3.413,0,0,1,.82-.449,2.55,2.55,0,0,1,.91-.164,2.362,2.362,0,0,1,.914.16,1.712,1.712,0,0,1,.637.449,1.829,1.829,0,0,1,.375.7A3.108,3.108,0,0,1,181.266,11Zm8.3-.125a2.381,2.381,0,0,1-.281,1.152,2.331,2.331,0,0,1-.93.891,5.584,5.584,0,0,1-1.711.574,14.678,14.678,0,0,1-2.625.211,1,1,0,0,0-.016.18v.156a2.657,2.657,0,0,0,.117.8,1.8,1.8,0,0,0,.363.656,1.714,1.714,0,0,0,.633.445,2.341,2.341,0,0,0,.918.164,3.9,3.9,0,0,0,1.184-.207,5.087,5.087,0,0,0,1.23-.59l-.242,1.266a5.078,5.078,0,0,1-1.023.438,4.4,4.4,0,0,1-1.328.188,3.609,3.609,0,0,1-1.488-.273,2.621,2.621,0,0,1-.977-.73,2.848,2.848,0,0,1-.535-1.055,4.716,4.716,0,0,1-.164-1.254,5.8,5.8,0,0,1,.156-1.355,5.519,5.519,0,0,1,.441-1.215,5.149,5.149,0,0,1,.684-1.027,4.443,4.443,0,0,1,.883-.793,4.092,4.092,0,0,1,1.039-.508,3.7,3.7,0,0,1,1.148-.18,3.319,3.319,0,0,1,1.09.164,2.277,2.277,0,0,1,.789.449,1.915,1.915,0,0,1,.48.66A1.966,1.966,0,0,1,189.57,10.875Zm-1.3.063a.9.9,0,0,0-.363-.766,1.565,1.565,0,0,0-.965-.273,2.163,2.163,0,0,0-.922.207,2.984,2.984,0,0,0-.82.57,3.56,3.56,0,0,0-.648.867,4.038,4.038,0,0,0-.4,1.09,13.5,13.5,0,0,0,1.9-.113,4.925,4.925,0,0,0,1.273-.332,1.712,1.712,0,0,0,.719-.535A1.2,1.2,0,0,0,188.266,10.938Zm7.273-.531a3.329,3.329,0,0,0-.789-.367,2.845,2.845,0,0,0-.875-.141,1.726,1.726,0,0,0-1.137.336,1.1,1.1,0,0,0-.4.891,1.116,1.116,0,0,0,.074.414,1.25,1.25,0,0,0,.219.355,1.986,1.986,0,0,0,.367.324q.223.156.512.336A4.028,4.028,0,0,1,194.77,13.6a2.01,2.01,0,0,1,.387,1.207,2.435,2.435,0,0,1-.168.887,2,2,0,0,1-.535.766,2.745,2.745,0,0,1-.949.535,4.331,4.331,0,0,1-1.418.2,4.7,4.7,0,0,1-.516-.031A5.462,5.462,0,0,1,191,17.07a4.941,4.941,0,0,1-.547-.152,2.407,2.407,0,0,1-.457-.207l.258-1.219a2.692,2.692,0,0,0,.387.219,4,4,0,0,0,.5.2,4.673,4.673,0,0,0,.563.141,3.166,3.166,0,0,0,.582.055,1.834,1.834,0,0,0,1.168-.312,1.053,1.053,0,0,0,.387-.867,1.155,1.155,0,0,0-.059-.375,1.052,1.052,0,0,0-.207-.344,2.3,2.3,0,0,0-.391-.348q-.242-.176-.609-.395a3.947,3.947,0,0,1-1.176-1.012,1.992,1.992,0,0,1-.379-1.191,2.432,2.432,0,0,1,.18-.926,2.24,2.24,0,0,1,.535-.781,2.6,2.6,0,0,1,.895-.543,3.559,3.559,0,0,1,1.258-.2,5.018,5.018,0,0,1,1.066.109,3.786,3.786,0,0,1,.855.281Zm11.484-4.141a1.339,1.339,0,0,0-.187-.074q-.109-.035-.234-.066a2.588,2.588,0,0,0-.262-.051,1.852,1.852,0,0,0-.262-.02,1.213,1.213,0,0,0-.988.418,2.912,2.912,0,0,0-.527,1.246L204.273,9h1.891l-.258,1.086h-1.891l-2.047,9.57h-1.3l2.063-9.57h-1.375L201.6,9h1.375l.32-1.484a4.341,4.341,0,0,1,.414-1.172,2.689,2.689,0,0,1,.633-.789,2.359,2.359,0,0,1,.832-.445,3.509,3.509,0,0,1,1.02-.141,3.393,3.393,0,0,1,.566.047,3.473,3.473,0,0,1,.473.109Zm1.539,10.7a2.994,2.994,0,0,1-.441.1,3.111,3.111,0,0,1-.488.039,1.594,1.594,0,0,1-1.18-.395,1.439,1.439,0,0,1-.391-1.059,3.227,3.227,0,0,1,.039-.461q.039-.266.125-.656L207.391,9h1.3l-1.172,5.57q-.07.328-.1.508a2.078,2.078,0,0,0-.027.3.644.644,0,0,0,.176.488.787.787,0,0,0,.559.168,2.366,2.366,0,0,0,.355-.023,1.575,1.575,0,0,0,.285-.07Zm.914-10.82a.841.841,0,0,1-.238.6.782.782,0,0,1-.59.25.831.831,0,0,1-.6-.246.81.81,0,0,1-.254-.605.749.749,0,0,1,.254-.586.869.869,0,0,1,.6-.227.819.819,0,0,1,.586.23A.769.769,0,0,1,209.477,6.148ZM217.625,11a2.545,2.545,0,0,1-.027.32q-.027.2-.07.438t-.086.465q-.043.23-.082.395L216.43,17h-1.3l.977-4.687q.031-.125.063-.289t.055-.328q.023-.164.039-.3a2.008,2.008,0,0,0,.016-.215,1.424,1.424,0,0,0-.285-.937,1.038,1.038,0,0,0-.848-.344,1.972,1.972,0,0,0-1.023.3,4.21,4.21,0,0,0-.937.773,5.275,5.275,0,0,0-.738,1.031,3.952,3.952,0,0,0-.418,1.086L211.2,17h-1.3l1.234-5.711q.063-.3.125-.637t.117-.641q.055-.309.094-.574T211.531,9h1.25q-.039.3-.094.637t-.094.613q-.047.328-.1.641h.031a6.607,6.607,0,0,1,.605-.809,4.531,4.531,0,0,1,.719-.664,3.413,3.413,0,0,1,.82-.449,2.55,2.55,0,0,1,.91-.164,2.362,2.362,0,0,1,.914.16,1.712,1.712,0,0,1,.637.449,1.829,1.829,0,0,1,.375.7A3.108,3.108,0,0,1,217.625,11Zm7.891,3.438q-.063.3-.121.668t-.1.734q-.043.363-.07.676T225.2,17h-1.328q.008-.156.023-.375t.043-.453q.027-.234.055-.461t.059-.391h-.031q-.242.383-.492.723a3.478,3.478,0,0,1-.555.6,2.429,2.429,0,0,1-.68.406,2.612,2.612,0,0,1-1.84-.039,2.006,2.006,0,0,1-.746-.559,2.574,2.574,0,0,1-.48-.93,4.531,4.531,0,0,1-.168-1.3,6.518,6.518,0,0,1,.094-1.031,6.309,6.309,0,0,1,.316-1.18,6.007,6.007,0,0,1,.594-1.176A4.465,4.465,0,0,1,220.98,9.8a4.4,4.4,0,0,1,1.3-.727,5.051,5.051,0,0,1,1.734-.273A9.22,9.22,0,0,1,225.3,8.9q.664.094,1.32.227Zm-.367-4.383q-.273-.062-.641-.109a5.447,5.447,0,0,0-.687-.047,3.119,3.119,0,0,0-1.2.215,3.077,3.077,0,0,0-.9.563,3.313,3.313,0,0,0-.645.8,4.965,4.965,0,0,0-.418.926,5.448,5.448,0,0,0-.223.934,5.911,5.911,0,0,0-.066.836,3.744,3.744,0,0,0,.078.8,1.748,1.748,0,0,0,.246.605,1.156,1.156,0,0,0,.43.387,1.325,1.325,0,0,0,.621.137,1.692,1.692,0,0,0,.73-.16,2.532,2.532,0,0,0,.637-.434,3.56,3.56,0,0,0,.539-.633,6.225,6.225,0,0,0,.438-.762,6.515,6.515,0,0,0,.332-.82q.137-.418.223-.809ZM235.289,11a2.545,2.545,0,0,1-.027.32q-.027.2-.07.438t-.086.465q-.043.23-.082.395L234.094,17h-1.3l.977-4.687q.031-.125.063-.289t.055-.328q.023-.164.039-.3a2.008,2.008,0,0,0,.016-.215,1.424,1.424,0,0,0-.285-.937,1.038,1.038,0,0,0-.848-.344,1.972,1.972,0,0,0-1.023.3,4.21,4.21,0,0,0-.937.773,5.275,5.275,0,0,0-.738,1.031,3.952,3.952,0,0,0-.418,1.086L228.859,17h-1.3l1.234-5.711q.063-.3.125-.637t.117-.641q.055-.309.094-.574T229.2,9h1.25q-.039.3-.094.637t-.094.613q-.047.328-.1.641h.031a6.607,6.607,0,0,1,.605-.809,4.531,4.531,0,0,1,.719-.664,3.413,3.413,0,0,1,.82-.449,2.55,2.55,0,0,1,.91-.164,2.362,2.362,0,0,1,.914.16,1.712,1.712,0,0,1,.637.449,1.829,1.829,0,0,1,.375.7A3.108,3.108,0,0,1,235.289,11Zm7.57-.414a2.941,2.941,0,0,0-.793-.488,2.582,2.582,0,0,0-1.027-.2,2.427,2.427,0,0,0-.973.188,2.684,2.684,0,0,0-.77.5,3.244,3.244,0,0,0-.578.719,4.793,4.793,0,0,0-.4.844,5.193,5.193,0,0,0-.23.871,4.809,4.809,0,0,0-.074.809,2.552,2.552,0,0,0,.492,1.7,1.672,1.672,0,0,0,1.344.578,2.957,2.957,0,0,0,1.07-.215,5.151,5.151,0,0,0,1.047-.551l-.273,1.281a5.483,5.483,0,0,1-1.012.426,3.666,3.666,0,0,1-1.066.152,3.029,3.029,0,0,1-1.277-.25,2.5,2.5,0,0,1-.9-.687,2.946,2.946,0,0,1-.539-1.035,4.472,4.472,0,0,1-.18-1.293,6.315,6.315,0,0,1,.133-1.293,5.569,5.569,0,0,1,.395-1.2,5.219,5.219,0,0,1,.645-1.051A4.107,4.107,0,0,1,239.875,9a4.451,4.451,0,0,1,1.961-.152,3.8,3.8,0,0,1,.555.125,3.736,3.736,0,0,1,.445.168,1.829,1.829,0,0,1,.313.176Zm3.477,6.383a2.994,2.994,0,0,1-.441.1,3.111,3.111,0,0,1-.488.039,1.594,1.594,0,0,1-1.18-.395,1.439,1.439,0,0,1-.391-1.059,3.227,3.227,0,0,1,.039-.461q.039-.266.125-.656L245.164,9h1.3l-1.172,5.57q-.07.328-.1.508a2.078,2.078,0,0,0-.027.3.644.644,0,0,0,.176.488.787.787,0,0,0,.559.168,2.366,2.366,0,0,0,.355-.023,1.575,1.575,0,0,0,.285-.07Zm.914-10.82a.841.841,0,0,1-.238.6.782.782,0,0,1-.59.25.831.831,0,0,1-.6-.246.81.81,0,0,1-.254-.605.749.749,0,0,1,.254-.586.869.869,0,0,1,.6-.227.819.819,0,0,1,.586.23A.769.769,0,0,1,247.25,6.148Zm7.461,4.727a2.381,2.381,0,0,1-.281,1.152,2.331,2.331,0,0,1-.93.891,5.584,5.584,0,0,1-1.711.574,14.678,14.678,0,0,1-2.625.211,1,1,0,0,0-.016.18v.156a2.657,2.657,0,0,0,.117.8,1.8,1.8,0,0,0,.363.656,1.714,1.714,0,0,0,.633.445,2.341,2.341,0,0,0,.918.164,3.9,3.9,0,0,0,1.184-.207,5.087,5.087,0,0,0,1.23-.59l-.242,1.266a5.078,5.078,0,0,1-1.023.438A4.4,4.4,0,0,1,251,17.2a3.609,3.609,0,0,1-1.488-.273,2.621,2.621,0,0,1-.977-.73A2.848,2.848,0,0,1,248,15.137a4.716,4.716,0,0,1-.164-1.254,5.8,5.8,0,0,1,.156-1.355,5.519,5.519,0,0,1,.441-1.215,5.149,5.149,0,0,1,.684-1.027A4.443,4.443,0,0,1,250,9.492a4.092,4.092,0,0,1,1.039-.508,3.7,3.7,0,0,1,1.148-.18,3.319,3.319,0,0,1,1.09.164,2.277,2.277,0,0,1,.789.449,1.915,1.915,0,0,1,.48.66A1.966,1.966,0,0,1,254.711,10.875Zm-1.3.063a.9.9,0,0,0-.363-.766,1.565,1.565,0,0,0-.965-.273,2.163,2.163,0,0,0-.922.207,2.984,2.984,0,0,0-.82.57,3.56,3.56,0,0,0-.648.867,4.038,4.038,0,0,0-.4,1.09,13.5,13.5,0,0,0,1.9-.113,4.925,4.925,0,0,0,1.273-.332,1.712,1.712,0,0,0,.719-.535A1.2,1.2,0,0,0,253.406,10.938ZM261,10.359h-.031a2.306,2.306,0,0,0-.41-.184,1.5,1.5,0,0,0-.5-.09,1.479,1.479,0,0,0-.867.293,3.188,3.188,0,0,0-.754.773,5.55,5.55,0,0,0-.594,1.1,7.5,7.5,0,0,0-.395,1.266L256.7,17h-1.281l1.125-5.312q.07-.328.141-.687t.129-.719q.059-.359.105-.687t.07-.594h1.266q-.023.234-.055.5t-.062.508q-.031.246-.062.445t-.047.309h.031a8.621,8.621,0,0,1,.508-.8,3.718,3.718,0,0,1,.543-.613,2.3,2.3,0,0,1,.605-.395,1.71,1.71,0,0,1,.7-.141,2.205,2.205,0,0,1,.434.043q.215.043.387.09Zm6.766,4.078q-.062.3-.121.668t-.1.734q-.043.363-.07.676t-.027.484h-1.328q.008-.156.023-.375t.043-.453q.027-.234.055-.461t.059-.391h-.031q-.242.383-.492.723a3.478,3.478,0,0,1-.555.6,2.429,2.429,0,0,1-.68.406,2.612,2.612,0,0,1-1.84-.039,2.006,2.006,0,0,1-.746-.559,2.574,2.574,0,0,1-.48-.93,4.532,4.532,0,0,1-.168-1.3,6.518,6.518,0,0,1,.094-1.031,6.309,6.309,0,0,1,.316-1.18,6.006,6.006,0,0,1,.594-1.176A4.465,4.465,0,0,1,263.23,9.8a4.4,4.4,0,0,1,1.3-.727,5.051,5.051,0,0,1,1.734-.273,9.221,9.221,0,0,1,1.289.094q.664.094,1.32.227Zm-.367-4.383q-.273-.062-.641-.109a5.447,5.447,0,0,0-.687-.047,3.118,3.118,0,0,0-1.2.215,3.077,3.077,0,0,0-.9.563,3.312,3.312,0,0,0-.645.8,4.965,4.965,0,0,0-.418.926,5.45,5.45,0,0,0-.223.934,5.909,5.909,0,0,0-.066.836,3.743,3.743,0,0,0,.078.8,1.749,1.749,0,0,0,.246.605,1.156,1.156,0,0,0,.43.387,1.325,1.325,0,0,0,.621.137,1.692,1.692,0,0,0,.73-.16,2.532,2.532,0,0,0,.637-.434,3.561,3.561,0,0,0,.539-.633,6.225,6.225,0,0,0,.438-.762,6.515,6.515,0,0,0,.332-.82q.137-.418.223-.809Zm7.633.352a3.33,3.33,0,0,0-.789-.367,2.845,2.845,0,0,0-.875-.141,1.726,1.726,0,0,0-1.137.336,1.1,1.1,0,0,0-.4.891,1.116,1.116,0,0,0,.074.414,1.25,1.25,0,0,0,.219.355,1.985,1.985,0,0,0,.367.324q.223.156.512.336a4.028,4.028,0,0,1,1.262,1.043,2.01,2.01,0,0,1,.387,1.207,2.436,2.436,0,0,1-.168.887,2,2,0,0,1-.535.766,2.744,2.744,0,0,1-.949.535,4.331,4.331,0,0,1-1.418.2,4.7,4.7,0,0,1-.516-.031,5.462,5.462,0,0,1-.566-.094,4.941,4.941,0,0,1-.547-.152,2.408,2.408,0,0,1-.457-.207l.258-1.219a2.69,2.69,0,0,0,.387.219,4,4,0,0,0,.5.2,4.673,4.673,0,0,0,.563.141,3.166,3.166,0,0,0,.582.055,1.834,1.834,0,0,0,1.168-.312,1.053,1.053,0,0,0,.387-.867,1.155,1.155,0,0,0-.059-.375,1.052,1.052,0,0,0-.207-.344,2.3,2.3,0,0,0-.391-.348q-.242-.176-.609-.395a3.946,3.946,0,0,1-1.176-1.012,1.992,1.992,0,0,1-.379-1.191,2.432,2.432,0,0,1,.18-.926,2.24,2.24,0,0,1,.535-.781,2.6,2.6,0,0,1,.895-.543,3.559,3.559,0,0,1,1.258-.2,5.018,5.018,0,0,1,1.066.109,3.786,3.786,0,0,1,.855.281Zm7.055.789V10.148h7.344V11.2Zm0,3.328V13.477h7.344v1.047Zm24.828-6.242a1.517,1.517,0,0,0-.449-1.168,1.759,1.759,0,0,0-1.246-.418,3.922,3.922,0,0,0-1.523.32,4.92,4.92,0,0,0-1.43.93l.32-1.437a4.15,4.15,0,0,1,1.355-.7,5.811,5.811,0,0,1,1.59-.2,2.888,2.888,0,0,1,1.992.66,2.26,2.26,0,0,1,.742,1.777,4.059,4.059,0,0,1-.324,1.676,4.455,4.455,0,0,1-1.035,1.395,13.8,13.8,0,0,1-2.078,1.531q-1.242.773-1.887,1.273a5.032,5.032,0,0,0-.957.922,2.657,2.657,0,0,0-.445,1.008h5.531L306.828,17h-6.914l.117-.555a5.4,5.4,0,0,1,.605-1.625,5.57,5.57,0,0,1,1.129-1.32,19.258,19.258,0,0,1,2.242-1.609,13.31,13.31,0,0,0,1.723-1.25,4.048,4.048,0,0,0,.9-1.086A2.688,2.688,0,0,0,306.914,8.281ZM316.7,5.8l-1.57,7.4H316.6l-.25,1.172h-1.469L314.32,17h-1.266l.563-2.633h-5.258l.234-1.109a48.65,48.65,0,0,0,3.477-3.523q1.781-1.984,3.219-3.937Zm-2.836,7.4,1.141-5.367a56.664,56.664,0,0,1-4.891,5.367ZM319,16.313a.854.854,0,0,1-.25.609.9.9,0,0,1-.277.188.836.836,0,0,1-.34.07.809.809,0,0,1-.336-.07.912.912,0,0,1-.273-.187.854.854,0,0,1-.25-.609.878.878,0,0,1,.066-.34.846.846,0,0,1,.184-.277.854.854,0,0,1,.609-.25.879.879,0,0,1,.34.066.834.834,0,0,1,.461.461A.878.878,0,0,1,319,16.313Zm2.086-2.008a3.246,3.246,0,0,1,.789-2.145,3.708,3.708,0,0,1,2.063-1.238,2.706,2.706,0,0,1-.859-.891,2.439,2.439,0,0,1-.336-1.289,2.93,2.93,0,0,1,.461-1.6A3.077,3.077,0,0,1,324.5,6.012a4.317,4.317,0,0,1,1.9-.4,2.9,2.9,0,0,1,2,.672,2.255,2.255,0,0,1,.758,1.773,2.858,2.858,0,0,1-.555,1.754,3.28,3.28,0,0,1-1.6,1.113,2.316,2.316,0,0,1,1.086.953,2.8,2.8,0,0,1,.406,1.492,3.6,3.6,0,0,1-.547,1.93,3.794,3.794,0,0,1-1.508,1.383,4.468,4.468,0,0,1-2.094.5,3.589,3.589,0,0,1-2.4-.73A2.664,2.664,0,0,1,321.086,14.3Zm1.422-.047a1.732,1.732,0,0,0,.5,1.3,2.007,2.007,0,0,0,1.453.484,2.682,2.682,0,0,0,2.309-1.336,2.67,2.67,0,0,0,.371-1.375,1.817,1.817,0,0,0-.5-1.332,1.776,1.776,0,0,0-1.324-.512,2.852,2.852,0,0,0-2.426,1.379A2.663,2.663,0,0,0,322.508,14.258Zm1.531-5.352a1.494,1.494,0,0,0,.434,1.109,1.535,1.535,0,0,0,1.129.43,2.162,2.162,0,0,0,1.059-.293,2.337,2.337,0,0,0,.852-.8,2.067,2.067,0,0,0,.324-1.129,1.488,1.488,0,0,0-.43-1.105,1.581,1.581,0,0,0-1.164-.426,2.188,2.188,0,0,0-2.2,2.219ZM332.258,17H330.8a26.185,26.185,0,0,1,2.363-4.766,51.918,51.918,0,0,1,3.691-5.281H331.32l.25-1.156H338.7l-.156.742a55.288,55.288,0,0,0-4,5.738A24.685,24.685,0,0,0,332.258,17Zm18-3.344a3.886,3.886,0,0,1-.219,1.285,3.741,3.741,0,0,1-.613,1.121,3.081,3.081,0,0,1-.953.793,2.57,2.57,0,0,1-1.238.3,2.412,2.412,0,0,1-1.121-.23,1.985,1.985,0,0,1-1.055-1.324,3.254,3.254,0,0,1-.1-.758,3.829,3.829,0,0,1,.84-2.371,3.15,3.15,0,0,1,.973-.8,2.676,2.676,0,0,1,1.281-.3,2.564,2.564,0,0,1,.906.152,1.9,1.9,0,0,1,.7.445,1.976,1.976,0,0,1,.445.719A2.813,2.813,0,0,1,350.258,13.656ZM340.469,17h-1.156l9.6-11.2h1.156Zm3.984-9.07a3.886,3.886,0,0,1-.219,1.285,3.694,3.694,0,0,1-.617,1.121,3.142,3.142,0,0,1-.953.793,2.547,2.547,0,0,1-1.234.3,2.763,2.763,0,0,1-.8-.105,2.017,2.017,0,0,1-.6-.289,1.837,1.837,0,0,1-.422-.418,2.151,2.151,0,0,1-.266-.492,2.7,2.7,0,0,1-.141-.52,3.066,3.066,0,0,1-.043-.5,3.68,3.68,0,0,1,.1-.84,3.842,3.842,0,0,1,.285-.8A3.692,3.692,0,0,1,340,6.746a3.2,3.2,0,0,1,.609-.578,2.826,2.826,0,0,1,.754-.387,2.727,2.727,0,0,1,.883-.141,2.564,2.564,0,0,1,.906.152,1.9,1.9,0,0,1,.7.445,2.02,2.02,0,0,1,.449.719A2.75,2.75,0,0,1,344.453,7.93Zm4.75,5.758a2.33,2.33,0,0,0-.062-.543,1.365,1.365,0,0,0-.2-.465,1.028,1.028,0,0,0-.367-.324,1.146,1.146,0,0,0-.547-.121,1.482,1.482,0,0,0-.848.25,2.288,2.288,0,0,0-.629.637,3.03,3.03,0,0,0-.391.848,3.212,3.212,0,0,0-.133.891,2.054,2.054,0,0,0,.07.535,1.348,1.348,0,0,0,.219.461,1.1,1.1,0,0,0,.383.32,1.231,1.231,0,0,0,.57.121,1.463,1.463,0,0,0,.793-.223,2.1,2.1,0,0,0,.609-.586,2.89,2.89,0,0,0,.395-.832A3.353,3.353,0,0,0,349.2,13.688Zm-5.8-5.727a2.33,2.33,0,0,0-.062-.543,1.365,1.365,0,0,0-.2-.465,1.028,1.028,0,0,0-.367-.324,1.164,1.164,0,0,0-.555-.121,1.482,1.482,0,0,0-.848.25,2.309,2.309,0,0,0-.629.633,2.964,2.964,0,0,0-.391.848,3.228,3.228,0,0,0-.133.887,2.01,2.01,0,0,0,.07.531,1.4,1.4,0,0,0,.219.461,1.107,1.107,0,0,0,.387.328,1.222,1.222,0,0,0,.574.125,1.45,1.45,0,0,0,.785-.223,2.148,2.148,0,0,0,.613-.586,2.831,2.831,0,0,0,.4-.832A3.353,3.353,0,0,0,343.4,7.961Z" transform="translate(34 55)" fill="#12263f"/>
      <line id="L칤nea_575" data-name="L칤nea 575" x2="116.191" transform="translate(333.309 19.5)" fill="none" stroke="#12263f" stroke-width="1"/>
    </g>
  </g>
</svg>
