<svg xmlns="http://www.w3.org/2000/svg" width="567.809" height="82" viewBox="0 0 567.809 82">
  <g id="Grupo_1113361" data-name="Grupo 1113361" transform="translate(-305.102 -2237)">
    <g id="Grupo_1113326" data-name="Grupo 1113326" transform="translate(305.102 2237)">
      <rect id="Rect치ngulo_406002" data-name="Rect치ngulo 406002" width="556.809" height="74" transform="translate(11 8)" fill="#bce0fc"/>
      <g id="Rect치ngulo_406003" data-name="Rect치ngulo 406003" fill="#fbfbf9" stroke="#000" stroke-width="0.5">
        <rect width="563.809" height="76" stroke="none"/>
        <rect x="0.25" y="0.25" width="563.309" height="75.5" fill="none"/>
      </g>
    </g>
    <path id="Trazado_908386" data-name="Trazado 908386" d="M2.836,10.7A5.387,5.387,0,0,1,4.309,7.57,4,4,0,0,1,7.25,6.391,2.942,2.942,0,0,1,9.809,7.613a4.1,4.1,0,0,1,.6,3.082l-.031.172A5.4,5.4,0,0,1,8.9,14a4.018,4.018,0,0,1-2.945,1.168,2.945,2.945,0,0,1-2.559-1.219,4.063,4.063,0,0,1-.59-3.078Zm1.508.172a3.681,3.681,0,0,0,.227,2.242,1.6,1.6,0,0,0,1.563.852,2.211,2.211,0,0,0,1.777-.887,4.5,4.5,0,0,0,.926-2.207l.031-.172a3.683,3.683,0,0,0-.238-2.234A1.6,1.6,0,0,0,7.07,7.6,2.212,2.212,0,0,0,5.285,8.5a4.425,4.425,0,0,0-.91,2.2Zm15.1.227a5.388,5.388,0,0,1-1.32,2.984,3.417,3.417,0,0,1-2.586,1.086,2.647,2.647,0,0,1-1.391-.344,2.313,2.313,0,0,1-.891-1.008L12.82,15h-1.18L13.469,2.813h1.539L14.3,7.547a3.416,3.416,0,0,1,1.125-.859,3.289,3.289,0,0,1,1.414-.3,2.373,2.373,0,0,1,2.215,1.262,5.062,5.062,0,0,1,.418,3.277ZM17.93,10.93a4.356,4.356,0,0,0-.172-2.4,1.491,1.491,0,0,0-1.5-.891A2.234,2.234,0,0,0,15.02,8a3.1,3.1,0,0,0-.934.957l-.547,3.641a2.012,2.012,0,0,0,.633.973,1.8,1.8,0,0,0,1.164.348,2.149,2.149,0,0,0,1.715-.785,3.978,3.978,0,0,0,.855-2.035ZM22.4,15H20.859L22.688,2.813h1.539Zm4.031,0H24.891l1.266-8.453H27.7ZM28.023,4.383H26.484l.234-1.57h1.539Zm1.109,6.547A6.411,6.411,0,0,1,30.492,7.6a3.326,3.326,0,0,1,2.625-1.211,2.589,2.589,0,0,1,1.352.336,2.364,2.364,0,0,1,.891.969l.359-1.148h1.227l-1.273,8.5a3.807,3.807,0,0,1-1.316,2.527,4.483,4.483,0,0,1-2.863.84,5.369,5.369,0,0,1-1.281-.172,4.632,4.632,0,0,1-1.187-.453l.414-1.2a3.921,3.921,0,0,0,1.02.379,5.216,5.216,0,0,0,1.215.145,2.536,2.536,0,0,0,1.691-.52,2.421,2.421,0,0,0,.77-1.551l.141-.961a3.255,3.255,0,0,1-2.484,1.078,2.466,2.466,0,0,1-2.219-1.133,4.13,4.13,0,0,1-.461-2.937Zm1.516.164a3.283,3.283,0,0,0,.207,2.07,1.568,1.568,0,0,0,1.512.75,2.223,2.223,0,0,0,1.2-.324,3.092,3.092,0,0,0,.922-.91l.586-3.867a2.008,2.008,0,0,0-.652-.855,1.793,1.793,0,0,0-1.1-.316,2.1,2.1,0,0,0-1.746.93,5.147,5.147,0,0,0-.9,2.359ZM43.086,15q-.016-.438-.016-.707a4.987,4.987,0,0,1,.031-.551,4.564,4.564,0,0,1-1.277,1.012,3.193,3.193,0,0,1-1.543.41,2.41,2.41,0,0,1-1.887-.684,2.155,2.155,0,0,1-.434-1.855,2.584,2.584,0,0,1,1.25-1.914,5.194,5.194,0,0,1,2.773-.664h1.672l.125-.836a1.369,1.369,0,0,0-.27-1.191A1.593,1.593,0,0,0,42.289,7.6a2.134,2.134,0,0,0-1.25.375,1.3,1.3,0,0,0-.609.9l-1.469.016-.008-.047A2.422,2.422,0,0,1,40.07,7.137a4.1,4.1,0,0,1,2.484-.746,3.053,3.053,0,0,1,2.172.738,2.258,2.258,0,0,1,.594,2.1l-.609,4.07a6.686,6.686,0,0,0-.09.887,4.511,4.511,0,0,0,.051.816ZM40.7,13.875a3.032,3.032,0,0,0,1.547-.437,2.613,2.613,0,0,0,1.039-.984l.211-1.367H41.773a2.54,2.54,0,0,0-1.547.477,1.651,1.651,0,0,0-.734,1.094,1.011,1.011,0,0,0,.207.9A1.341,1.341,0,0,0,40.7,13.875Zm9.5.086a2.076,2.076,0,0,0,1.293-.477,1.8,1.8,0,0,0,.723-1.156h1.391l.016.047A2.885,2.885,0,0,1,52.4,14.34a3.838,3.838,0,0,1-2.379.824A2.837,2.837,0,0,1,47.5,13.941a4.112,4.112,0,0,1-.559-3l.047-.328a5.417,5.417,0,0,1,1.422-3.035,3.89,3.89,0,0,1,2.93-1.184,2.769,2.769,0,0,1,2.164.883,2.407,2.407,0,0,1,.57,2.148l-.016.039H52.648a1.676,1.676,0,0,0-.3-1.332,1.429,1.429,0,0,0-1.2-.527,2.118,2.118,0,0,0-1.766.895,4.517,4.517,0,0,0-.859,2.113l-.047.328a3.852,3.852,0,0,0,.18,2.168A1.514,1.514,0,0,0,50.2,13.961ZM56.727,15H55.188l1.266-8.453h1.539ZM58.32,4.383H56.781l.234-1.57h1.539ZM59.383,10.7A5.387,5.387,0,0,1,60.855,7.57,4,4,0,0,1,63.8,6.391a2.942,2.942,0,0,1,2.559,1.223,4.1,4.1,0,0,1,.6,3.082l-.031.172A5.4,5.4,0,0,1,65.445,14,4.018,4.018,0,0,1,62.5,15.164a2.945,2.945,0,0,1-2.559-1.219,4.063,4.063,0,0,1-.59-3.078Zm1.508.172a3.681,3.681,0,0,0,.227,2.242,1.6,1.6,0,0,0,1.563.852,2.211,2.211,0,0,0,1.777-.887,4.5,4.5,0,0,0,.926-2.207l.031-.172a3.683,3.683,0,0,0-.238-2.234A1.6,1.6,0,0,0,63.617,7.6a2.212,2.212,0,0,0-1.785.895,4.425,4.425,0,0,0-.91,2.2Zm9.867-3.109a3.653,3.653,0,0,1,1.207-1.012,3.241,3.241,0,0,1,1.5-.355,2.384,2.384,0,0,1,1.973.809,3.111,3.111,0,0,1,.4,2.465L75.047,15H73.508l.8-5.3a2.11,2.11,0,0,0-.2-1.605,1.585,1.585,0,0,0-1.289-.449,2.518,2.518,0,0,0-1.234.3,2.729,2.729,0,0,0-.922.832L69.727,15H68.188l1.266-8.453h1.375Zm10,7.406a3.069,3.069,0,0,1-2.629-1.18,3.934,3.934,0,0,1-.6-3.047l.055-.344a5.061,5.061,0,0,1,1.488-3.047,3.89,3.89,0,0,1,2.754-1.156,2.624,2.624,0,0,1,2.352,1.07,3.846,3.846,0,0,1,.461,2.789l-.117.813H79.055a3.355,3.355,0,0,0,.266,2.121,1.7,1.7,0,0,0,1.617.777,4.177,4.177,0,0,0,1.395-.227,3.661,3.661,0,0,0,1.113-.609l.453,1a4.447,4.447,0,0,1-1.3.738A5.139,5.139,0,0,1,80.758,15.164ZM81.648,7.6a1.948,1.948,0,0,0-1.4.625,3.561,3.561,0,0,0-.9,1.578l.016.047h3.8l.016-.125a2.256,2.256,0,0,0-.219-1.535A1.41,1.41,0,0,0,81.648,7.6Zm9.281,5.125a.908.908,0,0,0-.266-.836,3.27,3.27,0,0,0-1.391-.555,5.344,5.344,0,0,1-2.176-.9,1.562,1.562,0,0,1-.582-1.547A2.6,2.6,0,0,1,87.637,7.1a3.935,3.935,0,0,1,2.387-.711,3.006,3.006,0,0,1,2.188.789,1.943,1.943,0,0,1,.633,1.813l-.016.047H91.352a1.162,1.162,0,0,0-.336-1A1.515,1.515,0,0,0,89.859,7.6a1.974,1.974,0,0,0-1.254.371,1.334,1.334,0,0,0-.543.871.821.821,0,0,0,.234.781,3.447,3.447,0,0,0,1.375.492,5.217,5.217,0,0,1,2.227.93,1.632,1.632,0,0,1,.586,1.57,2.62,2.62,0,0,1-1.164,1.855,4.265,4.265,0,0,1-2.484.691,3.283,3.283,0,0,1-2.395-.828,2.033,2.033,0,0,1-.652-1.906l.016-.047h1.477a1.245,1.245,0,0,0,.445,1.2,2.1,2.1,0,0,0,1.281.379,2.3,2.3,0,0,0,1.313-.352A1.3,1.3,0,0,0,90.93,12.727ZM98.43,15l1.094-7.312H98.2l.172-1.141H99.7l.141-.914a3.361,3.361,0,0,1,1.156-2.23,3.757,3.757,0,0,1,2.43-.754,4.252,4.252,0,0,1,1.012.125,11.614,11.614,0,0,1,1.145.352l-.453,1.25a6.225,6.225,0,0,0-.84-.281,3.715,3.715,0,0,0-.941-.117,2.042,2.042,0,0,0-1.367.414,1.918,1.918,0,0,0-.6,1.242l-.141.914h1.68l-.172,1.141h-1.68L99.969,15Zm6.117,0H103l1.266-8.453h1.547Zm4.93-7.242a3.653,3.653,0,0,1,1.207-1.012,3.241,3.241,0,0,1,1.5-.355,2.384,2.384,0,0,1,1.973.809,3.111,3.111,0,0,1,.4,2.465l-.8,5.336h-1.539l.8-5.3a2.11,2.11,0,0,0-.2-1.605,1.585,1.585,0,0,0-1.289-.449,2.518,2.518,0,0,0-1.234.3,2.729,2.729,0,0,0-.922.832L108.445,15h-1.539l1.266-8.453h1.375ZM121.2,15q-.016-.438-.016-.707a4.986,4.986,0,0,1,.031-.551,4.564,4.564,0,0,1-1.277,1.012,3.193,3.193,0,0,1-1.543.41,2.41,2.41,0,0,1-1.887-.684,2.155,2.155,0,0,1-.434-1.855,2.584,2.584,0,0,1,1.25-1.914,5.194,5.194,0,0,1,2.773-.664h1.672l.125-.836a1.369,1.369,0,0,0-.27-1.191A1.593,1.593,0,0,0,120.4,7.6a2.134,2.134,0,0,0-1.25.375,1.3,1.3,0,0,0-.609.9l-1.469.016-.008-.047a2.422,2.422,0,0,1,1.117-1.707,4.1,4.1,0,0,1,2.484-.746,3.053,3.053,0,0,1,2.172.738,2.258,2.258,0,0,1,.594,2.1l-.609,4.07a6.685,6.685,0,0,0-.09.887,4.511,4.511,0,0,0,.051.816Zm-2.383-1.125a3.032,3.032,0,0,0,1.547-.437,2.613,2.613,0,0,0,1.039-.984l.211-1.367h-1.727a2.54,2.54,0,0,0-1.547.477,1.651,1.651,0,0,0-.734,1.094,1.011,1.011,0,0,0,.207.9A1.341,1.341,0,0,0,118.813,13.875Zm8.555-6.117a3.653,3.653,0,0,1,1.207-1.012,3.241,3.241,0,0,1,1.5-.355,2.384,2.384,0,0,1,1.973.809,3.111,3.111,0,0,1,.4,2.465l-.8,5.336h-1.539l.8-5.3a2.11,2.11,0,0,0-.2-1.605,1.585,1.585,0,0,0-1.289-.449,2.518,2.518,0,0,0-1.234.3,2.729,2.729,0,0,0-.922.832L126.336,15H124.8l1.266-8.453h1.375Zm10.039,6.2a2.076,2.076,0,0,0,1.293-.477,1.8,1.8,0,0,0,.723-1.156h1.391l.016.047a2.885,2.885,0,0,1-1.223,1.965,3.838,3.838,0,0,1-2.379.824,2.837,2.837,0,0,1-2.527-1.223,4.112,4.112,0,0,1-.559-3l.047-.328a5.417,5.417,0,0,1,1.422-3.035,3.89,3.89,0,0,1,2.93-1.184,2.769,2.769,0,0,1,2.164.883,2.407,2.407,0,0,1,.57,2.148l-.016.039h-1.406a1.676,1.676,0,0,0-.3-1.332,1.429,1.429,0,0,0-1.2-.527,2.118,2.118,0,0,0-1.766.895,4.517,4.517,0,0,0-.859,2.113l-.047.328a3.852,3.852,0,0,0,.18,2.168A1.514,1.514,0,0,0,137.406,13.961ZM143.93,15h-1.539l1.266-8.453H145.2Zm1.594-10.617h-1.539l.234-1.57h1.539Zm4.25,10.781a3.069,3.069,0,0,1-2.629-1.18,3.934,3.934,0,0,1-.6-3.047l.055-.344a5.061,5.061,0,0,1,1.488-3.047,3.89,3.89,0,0,1,2.754-1.156,2.624,2.624,0,0,1,2.352,1.07,3.845,3.845,0,0,1,.461,2.789l-.117.813H148.07a3.355,3.355,0,0,0,.266,2.121,1.7,1.7,0,0,0,1.617.777,4.177,4.177,0,0,0,1.395-.227,3.661,3.661,0,0,0,1.113-.609l.453,1a4.447,4.447,0,0,1-1.3.738A5.139,5.139,0,0,1,149.773,15.164Zm.891-7.562a1.948,1.948,0,0,0-1.4.625,3.561,3.561,0,0,0-.9,1.578l.016.047h3.8l.016-.125a2.257,2.257,0,0,0-.219-1.535A1.41,1.41,0,0,0,150.664,7.6Zm9.07.3-.781-.047a1.9,1.9,0,0,0-1.062.3,2.49,2.49,0,0,0-.781.848l-.9,5.992h-1.539l1.266-8.453h1.375l-.031,1.2a3.552,3.552,0,0,1,1.031-1,2.384,2.384,0,0,1,1.273-.355,1.923,1.923,0,0,1,.324.027,1.787,1.787,0,0,1,.254.059ZM165.469,15q-.016-.438-.016-.707a4.988,4.988,0,0,1,.031-.551,4.564,4.564,0,0,1-1.277,1.012,3.193,3.193,0,0,1-1.543.41,2.41,2.41,0,0,1-1.887-.684,2.155,2.155,0,0,1-.434-1.855,2.584,2.584,0,0,1,1.25-1.914,5.194,5.194,0,0,1,2.773-.664h1.672l.125-.836a1.369,1.369,0,0,0-.27-1.191,1.593,1.593,0,0,0-1.223-.418,2.134,2.134,0,0,0-1.25.375,1.3,1.3,0,0,0-.609.9l-1.469.016-.008-.047a2.422,2.422,0,0,1,1.117-1.707,4.1,4.1,0,0,1,2.484-.746,3.053,3.053,0,0,1,2.172.738,2.258,2.258,0,0,1,.594,2.1l-.609,4.07a6.686,6.686,0,0,0-.09.887,4.51,4.51,0,0,0,.051.816Zm-2.383-1.125a3.032,3.032,0,0,0,1.547-.437,2.613,2.613,0,0,0,1.039-.984l.211-1.367h-1.727a2.54,2.54,0,0,0-1.547.477,1.651,1.651,0,0,0-.734,1.094,1.011,1.011,0,0,0,.207.9A1.341,1.341,0,0,0,163.086,13.875Zm11.258-1.148a.908.908,0,0,0-.266-.836,3.27,3.27,0,0,0-1.391-.555,5.344,5.344,0,0,1-2.176-.9,1.562,1.562,0,0,1-.582-1.547A2.6,2.6,0,0,1,171.051,7.1a3.935,3.935,0,0,1,2.387-.711,3.006,3.006,0,0,1,2.188.789,1.943,1.943,0,0,1,.633,1.813l-.016.047h-1.477a1.162,1.162,0,0,0-.336-1,1.515,1.515,0,0,0-1.156-.437,1.974,1.974,0,0,0-1.254.371,1.334,1.334,0,0,0-.543.871.821.821,0,0,0,.234.781,3.446,3.446,0,0,0,1.375.492,5.217,5.217,0,0,1,2.227.93,1.632,1.632,0,0,1,.586,1.57,2.62,2.62,0,0,1-1.164,1.855,4.265,4.265,0,0,1-2.484.691,3.283,3.283,0,0,1-2.395-.828,2.033,2.033,0,0,1-.652-1.906l.016-.047H170.7a1.245,1.245,0,0,0,.445,1.2,2.1,2.1,0,0,0,1.281.379,2.3,2.3,0,0,0,1.313-.352A1.3,1.3,0,0,0,174.344,12.727ZM35.867,32.961a2.076,2.076,0,0,0,1.293-.477,1.8,1.8,0,0,0,.723-1.156h1.391l.016.047a2.885,2.885,0,0,1-1.223,1.965,3.838,3.838,0,0,1-2.379.824,2.837,2.837,0,0,1-2.527-1.223,4.112,4.112,0,0,1-.559-3l.047-.328a5.417,5.417,0,0,1,1.422-3.035A3.89,3.89,0,0,1,37,25.391a2.769,2.769,0,0,1,2.164.883,2.407,2.407,0,0,1,.57,2.148l-.016.039H38.313a1.676,1.676,0,0,0-.3-1.332,1.429,1.429,0,0,0-1.2-.527,2.118,2.118,0,0,0-1.766.895,4.517,4.517,0,0,0-.859,2.113l-.047.328a3.852,3.852,0,0,0,.18,2.168A1.514,1.514,0,0,0,35.867,32.961ZM45.922,34q-.016-.438-.016-.707a4.987,4.987,0,0,1,.031-.551,4.564,4.564,0,0,1-1.277,1.012,3.193,3.193,0,0,1-1.543.41,2.41,2.41,0,0,1-1.887-.684,2.155,2.155,0,0,1-.434-1.855,2.584,2.584,0,0,1,1.25-1.914,5.194,5.194,0,0,1,2.773-.664h1.672l.125-.836a1.369,1.369,0,0,0-.27-1.191,1.593,1.593,0,0,0-1.223-.418,2.134,2.134,0,0,0-1.25.375,1.3,1.3,0,0,0-.609.9l-1.469.016-.008-.047a2.422,2.422,0,0,1,1.117-1.707,4.1,4.1,0,0,1,2.484-.746,3.053,3.053,0,0,1,2.172.738,2.258,2.258,0,0,1,.594,2.1l-.609,4.07a6.686,6.686,0,0,0-.09.887,4.511,4.511,0,0,0,.051.816Zm-2.383-1.125a3.032,3.032,0,0,0,1.547-.437,2.613,2.613,0,0,0,1.039-.984l.211-1.367H44.609a2.54,2.54,0,0,0-1.547.477,1.651,1.651,0,0,0-.734,1.094,1.011,1.011,0,0,0,.207.9A1.341,1.341,0,0,0,43.539,32.875Zm13.773-2.781A5.4,5.4,0,0,1,56,33.078a3.4,3.4,0,0,1-2.582,1.086,2.9,2.9,0,0,1-1.312-.277,2.238,2.238,0,0,1-.9-.816l-.625,4.18H49.039l1.75-11.7h1.18l.078,1.094a3.5,3.5,0,0,1,1.172-.93,3.372,3.372,0,0,1,1.484-.32,2.371,2.371,0,0,1,2.219,1.262,5.081,5.081,0,0,1,.414,3.277ZM55.8,29.93a4.127,4.127,0,0,0-.2-2.391,1.558,1.558,0,0,0-1.539-.9,2.229,2.229,0,0,0-1.16.309,3,3,0,0,0-.9.84l-.609,4.063a1.819,1.819,0,0,0,.641.816,1.893,1.893,0,0,0,1.1.293,2.237,2.237,0,0,0,1.754-.809,3.935,3.935,0,0,0,.895-2.059ZM60.281,34H58.742l1.266-8.453h1.539Zm1.594-10.617H60.336l.234-1.57h1.539Zm4.484.125-.3,2.039h1.6l-.172,1.141h-1.6l-.766,5.133a1.052,1.052,0,0,0,.113.848.793.793,0,0,0,.621.23,1.571,1.571,0,0,0,.3-.035,2.1,2.1,0,0,0,.285-.074l.055,1.055a1.634,1.634,0,0,1-.543.23,2.7,2.7,0,0,1-.676.09,1.735,1.735,0,0,1-1.395-.57,2.153,2.153,0,0,1-.3-1.773l.766-5.133H63l.172-1.141h1.344l.3-2.039ZM73.234,34q-.016-.438-.016-.707a4.986,4.986,0,0,1,.031-.551,4.564,4.564,0,0,1-1.277,1.012,3.193,3.193,0,0,1-1.543.41,2.41,2.41,0,0,1-1.887-.684,2.155,2.155,0,0,1-.434-1.855,2.584,2.584,0,0,1,1.25-1.914,5.194,5.194,0,0,1,2.773-.664H73.8l.125-.836a1.369,1.369,0,0,0-.27-1.191,1.593,1.593,0,0,0-1.223-.418,2.134,2.134,0,0,0-1.25.375,1.3,1.3,0,0,0-.609.9l-1.469.016-.008-.047a2.422,2.422,0,0,1,1.117-1.707,4.1,4.1,0,0,1,2.484-.746,3.053,3.053,0,0,1,2.172.738,2.258,2.258,0,0,1,.594,2.1l-.609,4.07a6.685,6.685,0,0,0-.09.887A4.511,4.511,0,0,0,74.82,34Zm-2.383-1.125a3.032,3.032,0,0,0,1.547-.437,2.613,2.613,0,0,0,1.039-.984l.211-1.367H71.922a2.54,2.54,0,0,0-1.547.477,1.651,1.651,0,0,0-.734,1.094,1.011,1.011,0,0,0,.207.9A1.341,1.341,0,0,0,70.852,32.875ZM78.5,34H76.961l1.828-12.187h1.539Zm8.008,0H84.969l1.266-8.453h1.539ZM88.1,23.383H86.563l.234-1.57h1.539Zm3.344,3.375a3.653,3.653,0,0,1,1.207-1.012,3.241,3.241,0,0,1,1.5-.355,2.384,2.384,0,0,1,1.973.809,3.111,3.111,0,0,1,.4,2.465L95.734,34H94.2l.8-5.3a2.11,2.11,0,0,0-.2-1.605,1.585,1.585,0,0,0-1.289-.449,2.518,2.518,0,0,0-1.234.3,2.729,2.729,0,0,0-.922.832L90.414,34H88.875l1.266-8.453h1.375Zm9.719,4.75.047.594.047.008.234-.6,2.836-5.961h1.57L101.523,34h-1.164l-1.883-8.453h1.578Zm8.227,2.656a3.069,3.069,0,0,1-2.629-1.18,3.934,3.934,0,0,1-.6-3.047l.055-.344a5.061,5.061,0,0,1,1.488-3.047,3.89,3.89,0,0,1,2.754-1.156,2.624,2.624,0,0,1,2.352,1.07,3.846,3.846,0,0,1,.461,2.789l-.117.813h-5.469a3.355,3.355,0,0,0,.266,2.121,1.7,1.7,0,0,0,1.617.777,4.177,4.177,0,0,0,1.395-.227,3.661,3.661,0,0,0,1.113-.609l.453,1a4.447,4.447,0,0,1-1.3.738A5.139,5.139,0,0,1,109.391,34.164Zm.891-7.562a1.948,1.948,0,0,0-1.4.625,3.561,3.561,0,0,0-.9,1.578l.016.047h3.8l.016-.125a2.256,2.256,0,0,0-.219-1.535A1.41,1.41,0,0,0,110.281,26.6Zm9.07.3-.781-.047a1.9,1.9,0,0,0-1.062.3,2.49,2.49,0,0,0-.781.848l-.9,5.992h-1.539l1.266-8.453h1.375l-.031,1.2a3.552,3.552,0,0,1,1.031-1,2.384,2.384,0,0,1,1.273-.355,1.923,1.923,0,0,1,.324.027,1.787,1.787,0,0,1,.254.059Zm4.383-3.4-.3,2.039h1.6l-.172,1.141h-1.6l-.766,5.133a1.052,1.052,0,0,0,.113.848.793.793,0,0,0,.621.23,1.571,1.571,0,0,0,.3-.035,2.1,2.1,0,0,0,.285-.074l.055,1.055a1.634,1.634,0,0,1-.543.23,2.7,2.7,0,0,1-.676.09,1.735,1.735,0,0,1-1.395-.57,2.153,2.153,0,0,1-.3-1.773l.766-5.133h-1.344l.172-1.141h1.344l.3-2.039ZM127.078,34h-1.539l1.266-8.453h1.539Zm1.594-10.617h-1.539l.234-1.57h1.539ZM129.7,29.93a6.411,6.411,0,0,1,1.359-3.328,3.334,3.334,0,0,1,2.633-1.211,2.617,2.617,0,0,1,1.262.289,2.29,2.29,0,0,1,.871.836l.7-4.7h1.539L136.242,34h-1.18l-.07-1.07a3.432,3.432,0,0,1-1.164.922,3.355,3.355,0,0,1-1.461.313,2.473,2.473,0,0,1-2.227-1.133,4.13,4.13,0,0,1-.461-2.937Zm1.516.164a3.283,3.283,0,0,0,.207,2.07,1.575,1.575,0,0,0,1.52.75,2.229,2.229,0,0,0,1.188-.32,3.028,3.028,0,0,0,.914-.891l.586-3.914a1.906,1.906,0,0,0-.645-.84,1.811,1.811,0,0,0-1.09-.309,2.105,2.105,0,0,0-1.754.926,5.128,5.128,0,0,0-.9,2.363Zm7.609-.4A5.387,5.387,0,0,1,140.3,26.57a4,4,0,0,1,2.941-1.18,2.942,2.942,0,0,1,2.559,1.223,4.1,4.1,0,0,1,.6,3.082l-.031.172A5.4,5.4,0,0,1,144.891,33a4.018,4.018,0,0,1-2.945,1.168,2.945,2.945,0,0,1-2.559-1.219,4.063,4.063,0,0,1-.59-3.078Zm1.508.172a3.681,3.681,0,0,0,.227,2.242,1.6,1.6,0,0,0,1.563.852,2.211,2.211,0,0,0,1.777-.887,4.5,4.5,0,0,0,.926-2.207l.031-.172a3.683,3.683,0,0,0-.238-2.234,1.6,1.6,0,0,0-1.559-.859,2.212,2.212,0,0,0-1.785.895,4.425,4.425,0,0,0-.91,2.2Z" transform="translate(650.91 2256)" fill="#12263f"/>
    <path id="Trazado_908387" data-name="Trazado 908387" d="M11.141,10.438,10.461,15H8.922l1.7-11.375h4.352a3.5,3.5,0,0,1,2.652.945,2.794,2.794,0,0,1,.684,2.461,3.815,3.815,0,0,1-1.379,2.508,4.633,4.633,0,0,1-2.973.9Zm.18-1.2h2.82a2.518,2.518,0,0,0,2.625-2.187,2.042,2.042,0,0,0-.332-1.594A1.94,1.94,0,0,0,14.8,4.836H11.984ZM23.992,15q-.016-.438-.016-.707a4.986,4.986,0,0,1,.031-.551,4.564,4.564,0,0,1-1.277,1.012,3.193,3.193,0,0,1-1.543.41A2.41,2.41,0,0,1,19.3,14.48a2.155,2.155,0,0,1-.434-1.855,2.584,2.584,0,0,1,1.25-1.914,5.194,5.194,0,0,1,2.773-.664h1.672l.125-.836a1.369,1.369,0,0,0-.27-1.191A1.593,1.593,0,0,0,23.2,7.6a2.134,2.134,0,0,0-1.25.375,1.3,1.3,0,0,0-.609.9l-1.469.016-.008-.047a2.422,2.422,0,0,1,1.117-1.707,4.1,4.1,0,0,1,2.484-.746,3.053,3.053,0,0,1,2.172.738,2.258,2.258,0,0,1,.594,2.1l-.609,4.07a6.686,6.686,0,0,0-.09.887,4.511,4.511,0,0,0,.051.816Zm-2.383-1.125a3.032,3.032,0,0,0,1.547-.437,2.613,2.613,0,0,0,1.039-.984l.211-1.367H22.68a2.54,2.54,0,0,0-1.547.477,1.651,1.651,0,0,0-.734,1.094,1.011,1.011,0,0,0,.207.9A1.341,1.341,0,0,0,21.609,13.875ZM32.656,7.906l-.781-.047a1.9,1.9,0,0,0-1.062.3,2.49,2.49,0,0,0-.781.848L29.133,15H27.594l1.266-8.453h1.375l-.031,1.2a3.552,3.552,0,0,1,1.031-1,2.384,2.384,0,0,1,1.273-.355,1.923,1.923,0,0,1,.324.027,1.787,1.787,0,0,1,.254.059Zm4.383-3.4-.3,2.039h1.6l-.172,1.141h-1.6L35.8,12.82a1.052,1.052,0,0,0,.113.848.793.793,0,0,0,.621.23,1.571,1.571,0,0,0,.3-.035,2.1,2.1,0,0,0,.285-.074l.055,1.055a1.634,1.634,0,0,1-.543.23,2.7,2.7,0,0,1-.676.09,1.735,1.735,0,0,1-1.395-.57,2.153,2.153,0,0,1-.3-1.773l.766-5.133H33.68l.172-1.141H35.2l.3-2.039ZM40.383,15H38.844l1.266-8.453h1.539ZM41.977,4.383H40.438l.234-1.57h1.539Zm4.289,9.578a2.076,2.076,0,0,0,1.293-.477,1.8,1.8,0,0,0,.723-1.156h1.391l.016.047a2.885,2.885,0,0,1-1.223,1.965,3.838,3.838,0,0,1-2.379.824,2.837,2.837,0,0,1-2.527-1.223,4.112,4.112,0,0,1-.559-3l.047-.328a5.417,5.417,0,0,1,1.422-3.035A3.89,3.89,0,0,1,47.4,6.391a2.769,2.769,0,0,1,2.164.883,2.407,2.407,0,0,1,.57,2.148l-.016.039H48.711a1.676,1.676,0,0,0-.3-1.332,1.429,1.429,0,0,0-1.2-.527,2.118,2.118,0,0,0-1.766.895,4.517,4.517,0,0,0-.859,2.113l-.047.328a3.852,3.852,0,0,0,.18,2.168A1.514,1.514,0,0,0,46.266,13.961ZM52.789,15H51.25l1.266-8.453h1.539ZM54.383,4.383H52.844l.234-1.57h1.539Zm8.563,6.711a5.4,5.4,0,0,1-1.316,2.984,3.4,3.4,0,0,1-2.582,1.086,2.9,2.9,0,0,1-1.312-.277,2.238,2.238,0,0,1-.9-.816l-.625,4.18H54.672l1.75-11.7H57.6l.078,1.094a3.5,3.5,0,0,1,1.172-.93,3.372,3.372,0,0,1,1.484-.32,2.371,2.371,0,0,1,2.219,1.262,5.081,5.081,0,0,1,.414,3.277ZM61.43,10.93a4.127,4.127,0,0,0-.2-2.391,1.558,1.558,0,0,0-1.539-.9,2.229,2.229,0,0,0-1.16.309,3,3,0,0,0-.9.84l-.609,4.063a1.819,1.819,0,0,0,.641.816,1.893,1.893,0,0,0,1.1.293,2.237,2.237,0,0,0,1.754-.809,3.935,3.935,0,0,0,.895-2.059ZM69.445,15q-.016-.438-.016-.707a4.986,4.986,0,0,1,.031-.551,4.564,4.564,0,0,1-1.277,1.012,3.193,3.193,0,0,1-1.543.41,2.41,2.41,0,0,1-1.887-.684,2.155,2.155,0,0,1-.434-1.855,2.584,2.584,0,0,1,1.25-1.914,5.194,5.194,0,0,1,2.773-.664h1.672l.125-.836a1.369,1.369,0,0,0-.27-1.191A1.593,1.593,0,0,0,68.648,7.6a2.134,2.134,0,0,0-1.25.375,1.3,1.3,0,0,0-.609.9l-1.469.016-.008-.047A2.422,2.422,0,0,1,66.43,7.137a4.1,4.1,0,0,1,2.484-.746,3.053,3.053,0,0,1,2.172.738,2.258,2.258,0,0,1,.594,2.1L71.07,13.3a6.685,6.685,0,0,0-.09.887,4.511,4.511,0,0,0,.051.816Zm-2.383-1.125a3.032,3.032,0,0,0,1.547-.437,2.613,2.613,0,0,0,1.039-.984l.211-1.367H68.133a2.54,2.54,0,0,0-1.547.477,1.651,1.651,0,0,0-.734,1.094,1.011,1.011,0,0,0,.207.9A1.341,1.341,0,0,0,67.063,13.875Zm9.5.086a2.076,2.076,0,0,0,1.293-.477,1.8,1.8,0,0,0,.723-1.156h1.391l.016.047a2.885,2.885,0,0,1-1.223,1.965,3.838,3.838,0,0,1-2.379.824,2.837,2.837,0,0,1-2.527-1.223,4.112,4.112,0,0,1-.559-3l.047-.328a5.417,5.417,0,0,1,1.422-3.035A3.89,3.89,0,0,1,77.7,6.391a2.769,2.769,0,0,1,2.164.883,2.407,2.407,0,0,1,.57,2.148l-.016.039H79.008a1.676,1.676,0,0,0-.3-1.332,1.429,1.429,0,0,0-1.2-.527A2.118,2.118,0,0,0,75.75,8.5a4.517,4.517,0,0,0-.859,2.113l-.047.328a3.852,3.852,0,0,0,.18,2.168A1.514,1.514,0,0,0,76.563,13.961ZM83.086,15H81.547l1.266-8.453h1.539ZM84.68,4.383H83.141l.234-1.57h1.539ZM85.742,10.7A5.387,5.387,0,0,1,87.215,7.57a4,4,0,0,1,2.941-1.18,2.942,2.942,0,0,1,2.559,1.223,4.1,4.1,0,0,1,.6,3.082l-.031.172A5.4,5.4,0,0,1,91.8,14a4.018,4.018,0,0,1-2.945,1.168A2.945,2.945,0,0,1,86.3,13.945a4.063,4.063,0,0,1-.59-3.078Zm1.508.172a3.681,3.681,0,0,0,.227,2.242,1.6,1.6,0,0,0,1.563.852,2.211,2.211,0,0,0,1.777-.887,4.5,4.5,0,0,0,.926-2.207l.031-.172a3.683,3.683,0,0,0-.238-2.234A1.6,1.6,0,0,0,89.977,7.6a2.212,2.212,0,0,0-1.785.895,4.425,4.425,0,0,0-.91,2.2Zm4.1-7.906h1.789l.016.047L90.766,5.039h-1.1L89.648,5Zm5.766,4.8a3.653,3.653,0,0,1,1.207-1.012,3.241,3.241,0,0,1,1.5-.355A2.384,2.384,0,0,1,101.8,7.2a3.111,3.111,0,0,1,.4,2.465l-.8,5.336H99.867l.8-5.3a2.11,2.11,0,0,0-.2-1.605,1.585,1.585,0,0,0-1.289-.449,2.518,2.518,0,0,0-1.234.3,2.729,2.729,0,0,0-.922.832L96.086,15H94.547l1.266-8.453h1.375ZM107.906,10.7a5.387,5.387,0,0,1,1.473-3.125,4,4,0,0,1,2.941-1.18,2.942,2.942,0,0,1,2.559,1.223,4.1,4.1,0,0,1,.6,3.082l-.031.172A5.4,5.4,0,0,1,113.969,14a4.018,4.018,0,0,1-2.945,1.168,2.945,2.945,0,0,1-2.559-1.219,4.063,4.063,0,0,1-.59-3.078Zm1.508.172a3.681,3.681,0,0,0,.227,2.242,1.6,1.6,0,0,0,1.563.852,2.211,2.211,0,0,0,1.777-.887,4.5,4.5,0,0,0,.926-2.207l.031-.172a3.683,3.683,0,0,0-.238-2.234,1.6,1.6,0,0,0-1.559-.859,2.212,2.212,0,0,0-1.785.895,4.425,4.425,0,0,0-.91,2.2Zm15.1.227a5.388,5.388,0,0,1-1.32,2.984,3.417,3.417,0,0,1-2.586,1.086,2.647,2.647,0,0,1-1.391-.344,2.313,2.313,0,0,1-.891-1.008L117.891,15h-1.18l1.828-12.187h1.539l-.711,4.734a3.416,3.416,0,0,1,1.125-.859,3.289,3.289,0,0,1,1.414-.3,2.373,2.373,0,0,1,2.215,1.262,5.062,5.062,0,0,1,.418,3.277ZM123,10.93a4.356,4.356,0,0,0-.172-2.4,1.491,1.491,0,0,0-1.5-.891A2.234,2.234,0,0,0,120.09,8a3.1,3.1,0,0,0-.934.957l-.547,3.641a2.012,2.012,0,0,0,.633.973,1.8,1.8,0,0,0,1.164.348,2.149,2.149,0,0,0,1.715-.785,3.978,3.978,0,0,0,.855-2.035ZM127.469,15H125.93l1.828-12.187H129.3Zm4.031,0h-1.539l1.266-8.453h1.539Zm1.594-10.617h-1.539l.234-1.57h1.539ZM134.2,10.93A6.411,6.411,0,0,1,135.563,7.6a3.326,3.326,0,0,1,2.625-1.211,2.589,2.589,0,0,1,1.352.336,2.364,2.364,0,0,1,.891.969l.359-1.148h1.227l-1.273,8.5a3.807,3.807,0,0,1-1.316,2.527,4.483,4.483,0,0,1-2.863.84,5.369,5.369,0,0,1-1.281-.172,4.632,4.632,0,0,1-1.187-.453l.414-1.2a3.921,3.921,0,0,0,1.02.379,5.216,5.216,0,0,0,1.215.145,2.536,2.536,0,0,0,1.691-.52,2.421,2.421,0,0,0,.77-1.551l.141-.961a3.255,3.255,0,0,1-2.484,1.078,2.466,2.466,0,0,1-2.219-1.133,4.13,4.13,0,0,1-.461-2.937Zm1.516.164a3.283,3.283,0,0,0,.207,2.07,1.568,1.568,0,0,0,1.512.75,2.223,2.223,0,0,0,1.2-.324,3.092,3.092,0,0,0,.922-.91l.586-3.867a2.008,2.008,0,0,0-.652-.855,1.793,1.793,0,0,0-1.1-.316,2.1,2.1,0,0,0-1.746.93,5.147,5.147,0,0,0-.9,2.359ZM148.156,15q-.016-.438-.016-.707a4.988,4.988,0,0,1,.031-.551,4.564,4.564,0,0,1-1.277,1.012,3.193,3.193,0,0,1-1.543.41,2.41,2.41,0,0,1-1.887-.684,2.155,2.155,0,0,1-.434-1.855,2.584,2.584,0,0,1,1.25-1.914,5.194,5.194,0,0,1,2.773-.664h1.672l.125-.836a1.369,1.369,0,0,0-.27-1.191,1.593,1.593,0,0,0-1.223-.418,2.134,2.134,0,0,0-1.25.375,1.3,1.3,0,0,0-.609.9l-1.469.016-.008-.047a2.422,2.422,0,0,1,1.117-1.707,4.1,4.1,0,0,1,2.484-.746,3.053,3.053,0,0,1,2.172.738,2.258,2.258,0,0,1,.594,2.1l-.609,4.07a6.686,6.686,0,0,0-.09.887,4.51,4.51,0,0,0,.051.816Zm-2.383-1.125a3.032,3.032,0,0,0,1.547-.437,2.613,2.613,0,0,0,1.039-.984l.211-1.367h-1.727a2.54,2.54,0,0,0-1.547.477,1.651,1.651,0,0,0-.734,1.094,1.011,1.011,0,0,0,.207.9A1.341,1.341,0,0,0,145.773,13.875Zm9.5.086a2.076,2.076,0,0,0,1.293-.477,1.8,1.8,0,0,0,.723-1.156h1.391l.016.047a2.885,2.885,0,0,1-1.223,1.965,3.838,3.838,0,0,1-2.379.824,2.837,2.837,0,0,1-2.527-1.223,4.112,4.112,0,0,1-.559-3l.047-.328a5.417,5.417,0,0,1,1.422-3.035,3.89,3.89,0,0,1,2.93-1.184,2.769,2.769,0,0,1,2.164.883,2.407,2.407,0,0,1,.57,2.148l-.016.039h-1.406a1.676,1.676,0,0,0-.3-1.332,1.429,1.429,0,0,0-1.2-.527,2.118,2.118,0,0,0-1.766.895,4.517,4.517,0,0,0-.859,2.113l-.047.328a3.852,3.852,0,0,0,.18,2.168A1.514,1.514,0,0,0,155.273,13.961ZM161.8,15h-1.539l1.266-8.453h1.539Zm1.594-10.617h-1.539l.234-1.57h1.539Zm1.063,6.313a5.387,5.387,0,0,1,1.473-3.125,4,4,0,0,1,2.941-1.18,2.942,2.942,0,0,1,2.559,1.223,4.1,4.1,0,0,1,.6,3.082l-.031.172A5.4,5.4,0,0,1,170.516,14a4.018,4.018,0,0,1-2.945,1.168,2.945,2.945,0,0,1-2.559-1.219,4.063,4.063,0,0,1-.59-3.078Zm1.508.172a3.681,3.681,0,0,0,.227,2.242,1.6,1.6,0,0,0,1.563.852,2.211,2.211,0,0,0,1.777-.887,4.5,4.5,0,0,0,.926-2.207l.031-.172a3.683,3.683,0,0,0-.238-2.234,1.6,1.6,0,0,0-1.559-.859A2.212,2.212,0,0,0,166.9,8.5a4.425,4.425,0,0,0-.91,2.2Zm9.867-3.109a3.653,3.653,0,0,1,1.207-1.012,3.241,3.241,0,0,1,1.5-.355,2.384,2.384,0,0,1,1.973.809,3.111,3.111,0,0,1,.4,2.465l-.8,5.336h-1.539l.8-5.3a2.11,2.11,0,0,0-.2-1.605,1.585,1.585,0,0,0-1.289-.449,2.518,2.518,0,0,0-1.234.3,2.729,2.729,0,0,0-.922.832L174.8,15h-1.539l1.266-8.453H175.9Zm10,7.406a3.069,3.069,0,0,1-2.629-1.18,3.934,3.934,0,0,1-.6-3.047l.055-.344a5.061,5.061,0,0,1,1.488-3.047A3.89,3.89,0,0,1,186.9,6.391a2.624,2.624,0,0,1,2.352,1.07,3.845,3.845,0,0,1,.461,2.789l-.117.813h-5.469a3.355,3.355,0,0,0,.266,2.121,1.7,1.7,0,0,0,1.617.777,4.177,4.177,0,0,0,1.395-.227,3.661,3.661,0,0,0,1.113-.609l.453,1a4.447,4.447,0,0,1-1.3.738A5.139,5.139,0,0,1,185.828,15.164Zm.891-7.562a1.948,1.948,0,0,0-1.4.625,3.561,3.561,0,0,0-.9,1.578l.016.047h3.8l.016-.125a2.257,2.257,0,0,0-.219-1.535A1.41,1.41,0,0,0,186.719,7.6ZM196,12.727a.908.908,0,0,0-.266-.836,3.27,3.27,0,0,0-1.391-.555,5.344,5.344,0,0,1-2.176-.9,1.562,1.562,0,0,1-.582-1.547A2.6,2.6,0,0,1,192.707,7.1a3.935,3.935,0,0,1,2.387-.711,3.006,3.006,0,0,1,2.188.789,1.943,1.943,0,0,1,.633,1.813l-.016.047h-1.477a1.162,1.162,0,0,0-.336-1A1.515,1.515,0,0,0,194.93,7.6a1.974,1.974,0,0,0-1.254.371,1.334,1.334,0,0,0-.543.871.821.821,0,0,0,.234.781,3.446,3.446,0,0,0,1.375.492,5.217,5.217,0,0,1,2.227.93,1.632,1.632,0,0,1,.586,1.57,2.62,2.62,0,0,1-1.164,1.855,4.265,4.265,0,0,1-2.484.691,3.283,3.283,0,0,1-2.395-.828,2.033,2.033,0,0,1-.652-1.906l.016-.047h1.477a1.245,1.245,0,0,0,.445,1.2,2.1,2.1,0,0,0,1.281.379,2.3,2.3,0,0,0,1.313-.352A1.3,1.3,0,0,0,196,12.727ZM203.5,15l1.094-7.312h-1.328l.172-1.141h1.328l.141-.914a3.361,3.361,0,0,1,1.156-2.23,3.757,3.757,0,0,1,2.43-.754,4.252,4.252,0,0,1,1.012.125,11.614,11.614,0,0,1,1.145.352l-.453,1.25a6.225,6.225,0,0,0-.84-.281,3.715,3.715,0,0,0-.941-.117,2.042,2.042,0,0,0-1.367.414,1.918,1.918,0,0,0-.6,1.242l-.141.914h1.68l-.172,1.141h-1.68L205.039,15Zm6.117,0H208.07l1.266-8.453h1.547Zm4.93-7.242a3.653,3.653,0,0,1,1.207-1.012,3.241,3.241,0,0,1,1.5-.355,2.384,2.384,0,0,1,1.973.809,3.111,3.111,0,0,1,.4,2.465l-.8,5.336H217.3l.8-5.3a2.11,2.11,0,0,0-.2-1.605,1.585,1.585,0,0,0-1.289-.449,2.518,2.518,0,0,0-1.234.3,2.729,2.729,0,0,0-.922.832L213.516,15h-1.539l1.266-8.453h1.375ZM226.266,15q-.016-.438-.016-.707a4.988,4.988,0,0,1,.031-.551A4.564,4.564,0,0,1,225,14.754a3.193,3.193,0,0,1-1.543.41,2.41,2.41,0,0,1-1.887-.684,2.155,2.155,0,0,1-.434-1.855,2.584,2.584,0,0,1,1.25-1.914,5.194,5.194,0,0,1,2.773-.664h1.672l.125-.836a1.369,1.369,0,0,0-.27-1.191,1.593,1.593,0,0,0-1.223-.418,2.134,2.134,0,0,0-1.25.375,1.3,1.3,0,0,0-.609.9l-1.469.016-.008-.047a2.422,2.422,0,0,1,1.117-1.707,4.1,4.1,0,0,1,2.484-.746,3.053,3.053,0,0,1,2.172.738,2.258,2.258,0,0,1,.594,2.1l-.609,4.07a6.686,6.686,0,0,0-.09.887,4.51,4.51,0,0,0,.051.816Zm-2.383-1.125a3.032,3.032,0,0,0,1.547-.437,2.613,2.613,0,0,0,1.039-.984l.211-1.367h-1.727a2.54,2.54,0,0,0-1.547.477,1.651,1.651,0,0,0-.734,1.094,1.011,1.011,0,0,0,.207.9A1.341,1.341,0,0,0,223.883,13.875Zm8.555-6.117a3.653,3.653,0,0,1,1.207-1.012,3.241,3.241,0,0,1,1.5-.355,2.384,2.384,0,0,1,1.973.809,3.111,3.111,0,0,1,.4,2.465l-.8,5.336h-1.539l.8-5.3a2.11,2.11,0,0,0-.2-1.605,1.585,1.585,0,0,0-1.289-.449,2.518,2.518,0,0,0-1.234.3,2.729,2.729,0,0,0-.922.832L231.406,15h-1.539l1.266-8.453h1.375Zm10.039,6.2a2.076,2.076,0,0,0,1.293-.477,1.8,1.8,0,0,0,.723-1.156h1.391l.016.047a2.885,2.885,0,0,1-1.223,1.965,3.838,3.838,0,0,1-2.379.824,2.837,2.837,0,0,1-2.527-1.223,4.112,4.112,0,0,1-.559-3l.047-.328a5.417,5.417,0,0,1,1.422-3.035,3.89,3.89,0,0,1,2.93-1.184,2.769,2.769,0,0,1,2.164.883,2.407,2.407,0,0,1,.57,2.148l-.016.039h-1.406a1.676,1.676,0,0,0-.3-1.332,1.429,1.429,0,0,0-1.2-.527,2.118,2.118,0,0,0-1.766.895,4.517,4.517,0,0,0-.859,2.113l-.047.328a3.852,3.852,0,0,0,.18,2.168A1.514,1.514,0,0,0,242.477,13.961ZM249,15h-1.539l1.266-8.453h1.539Zm1.594-10.617h-1.539l.234-1.57h1.539Zm4.25,10.781a3.069,3.069,0,0,1-2.629-1.18,3.934,3.934,0,0,1-.6-3.047l.055-.344a5.061,5.061,0,0,1,1.488-3.047,3.89,3.89,0,0,1,2.754-1.156,2.624,2.624,0,0,1,2.352,1.07,3.846,3.846,0,0,1,.461,2.789l-.117.813h-5.469a3.355,3.355,0,0,0,.266,2.121,1.7,1.7,0,0,0,1.617.777,4.177,4.177,0,0,0,1.395-.227,3.661,3.661,0,0,0,1.113-.609l.453,1a4.447,4.447,0,0,1-1.3.738A5.139,5.139,0,0,1,254.844,15.164Zm.891-7.562a1.948,1.948,0,0,0-1.4.625,3.561,3.561,0,0,0-.9,1.578l.016.047h3.8l.016-.125a2.256,2.256,0,0,0-.219-1.535A1.41,1.41,0,0,0,255.734,7.6Zm9.07.3-.781-.047a1.9,1.9,0,0,0-1.062.3,2.49,2.49,0,0,0-.781.848l-.9,5.992h-1.539l1.266-8.453h1.375l-.031,1.2a3.553,3.553,0,0,1,1.031-1,2.384,2.384,0,0,1,1.273-.355,1.923,1.923,0,0,1,.324.027,1.787,1.787,0,0,1,.254.059ZM270.539,15q-.016-.438-.016-.707a4.984,4.984,0,0,1,.031-.551,4.564,4.564,0,0,1-1.277,1.012,3.193,3.193,0,0,1-1.543.41,2.41,2.41,0,0,1-1.887-.684,2.155,2.155,0,0,1-.434-1.855,2.584,2.584,0,0,1,1.25-1.914,5.194,5.194,0,0,1,2.773-.664h1.672l.125-.836a1.369,1.369,0,0,0-.27-1.191,1.593,1.593,0,0,0-1.223-.418,2.134,2.134,0,0,0-1.25.375,1.3,1.3,0,0,0-.609.9l-1.469.016-.008-.047a2.422,2.422,0,0,1,1.117-1.707,4.1,4.1,0,0,1,2.484-.746,3.053,3.053,0,0,1,2.172.738,2.258,2.258,0,0,1,.594,2.1l-.609,4.07a6.684,6.684,0,0,0-.09.887,4.512,4.512,0,0,0,.051.816Zm-2.383-1.125a3.032,3.032,0,0,0,1.547-.437,2.613,2.613,0,0,0,1.039-.984l.211-1.367h-1.727a2.54,2.54,0,0,0-1.547.477,1.651,1.651,0,0,0-.734,1.094,1.011,1.011,0,0,0,.207.9A1.341,1.341,0,0,0,268.156,13.875Zm11.258-1.148a.908.908,0,0,0-.266-.836,3.27,3.27,0,0,0-1.391-.555,5.344,5.344,0,0,1-2.176-.9A1.562,1.562,0,0,1,275,8.891,2.6,2.6,0,0,1,276.121,7.1a3.935,3.935,0,0,1,2.387-.711,3.006,3.006,0,0,1,2.188.789,1.943,1.943,0,0,1,.633,1.813l-.016.047h-1.477a1.162,1.162,0,0,0-.336-1,1.515,1.515,0,0,0-1.156-.437,1.974,1.974,0,0,0-1.254.371,1.334,1.334,0,0,0-.543.871.821.821,0,0,0,.234.781,3.447,3.447,0,0,0,1.375.492,5.217,5.217,0,0,1,2.227.93,1.632,1.632,0,0,1,.586,1.57,2.62,2.62,0,0,1-1.164,1.855,4.265,4.265,0,0,1-2.484.691,3.283,3.283,0,0,1-2.395-.828,2.033,2.033,0,0,1-.652-1.906l.016-.047h1.477a1.245,1.245,0,0,0,.445,1.2,2.1,2.1,0,0,0,1.281.379,2.3,2.3,0,0,0,1.313-.352A1.3,1.3,0,0,0,279.414,12.727ZM294.031,8.57h-6.516l.2-1.281h6.516Zm-.484,3.25h-6.516l.2-1.281h6.516Z" transform="translate(348.102 2266)" fill="#12263f"/>
    <path id="Trazado_908388" data-name="Trazado 908388" d="M0,0H176.949" transform="translate(652.41 2275.5)" fill="none" stroke="#12263f" stroke-width="1"/>
  </g>
</svg>
