<svg xmlns="http://www.w3.org/2000/svg" width="295" height="125" viewBox="0 0 295 125">
  <g id="Grupo_1113385" data-name="Grupo 1113385" transform="translate(-600.051 -11605.363)">
    <g id="Grupo_1113381" data-name="Grupo 1113381" transform="translate(0.051)">
      <rect id="Rectángulo_406002" data-name="Rectángulo 406002" width="284" height="117" transform="translate(611 11613.363)" fill="#bce0fc"/>
      <g id="Rectángulo_406003" data-name="Rectángulo 406003" transform="translate(600 11605.363)" fill="#fbfbf9" stroke="#000" stroke-width="0.5">
        <rect width="291" height="119" stroke="none"/>
        <rect x="0.25" y="0.25" width="290.5" height="118.5" fill="none"/>
      </g>
    </g>
    <g id="Grupo_1113382" data-name="Grupo 1113382" transform="translate(-50.949)">
      <path id="Trazado_908252" data-name="Trazado 908252" d="M38.957,7.367q-.164-.094-.383-.191T38.1,6.992q-.254-.086-.523-.148a3.9,3.9,0,0,0-.527-.086l-.93,4.32q.414.3.8.625a5.323,5.323,0,0,1,.691.676,3.245,3.245,0,0,1,.484.762,2.118,2.118,0,0,1,.184.883,3.448,3.448,0,0,1-.172,1.059,2.637,2.637,0,0,1-.574.977,3.174,3.174,0,0,1-1.062.738,4.312,4.312,0,0,1-1.629.328l-.336,1.508h-.8l.32-1.523a5.562,5.562,0,0,1-.687-.078q-.359-.062-.687-.148t-.609-.184a3.5,3.5,0,0,1-.461-.191l.219-1.266a4.014,4.014,0,0,0,.512.273,6.423,6.423,0,0,0,.621.242q.328.109.664.188a5.158,5.158,0,0,0,.641.109l.891-4.141q-.477-.344-.883-.676a4.568,4.568,0,0,1-.7-.7,2.961,2.961,0,0,1-.457-.816,2.9,2.9,0,0,1-.164-1.008A2.811,2.811,0,0,1,33.18,7.52a2.859,2.859,0,0,1,.715-.957,3.456,3.456,0,0,1,1.113-.645,4.323,4.323,0,0,1,1.449-.246l.273-1.3h.82L37.262,5.7a5.513,5.513,0,0,1,1.055.18,7,7,0,0,1,.867.289Zm-2.734-.625a2.4,2.4,0,0,0-.863.2,1.956,1.956,0,0,0-.621.441,1.813,1.813,0,0,0-.375.605,1.957,1.957,0,0,0-.125.688,1.743,1.743,0,0,0,.086.555,1.917,1.917,0,0,0,.242.484,2.708,2.708,0,0,0,.371.43,6.036,6.036,0,0,0,.48.406Zm.75,7.406a1.492,1.492,0,0,0-.062-.434,1.654,1.654,0,0,0-.2-.414,2.471,2.471,0,0,0-.352-.422,6.057,6.057,0,0,0-.531-.457l-.75,3.633a2.347,2.347,0,0,0,.863-.215,1.877,1.877,0,0,0,.586-.437,1.652,1.652,0,0,0,.336-.586A2.146,2.146,0,0,0,36.973,14.148ZM52.262,5.8l-1.57,7.4H52.16l-.25,1.172H50.441L49.879,17H48.613l.563-2.633H43.918l.234-1.109a48.653,48.653,0,0,0,3.477-3.523Q49.41,7.75,50.848,5.8Zm-2.836,7.4,1.141-5.367A56.664,56.664,0,0,1,45.676,13.2Zm11.8-4.273q0,.586-.055,1.223T61,11.43a12.946,12.946,0,0,1-.3,1.285,10.137,10.137,0,0,1-.441,1.23,8.317,8.317,0,0,1-.59,1.121,5.918,5.918,0,0,1-.746.957,3.614,3.614,0,0,1-2.7,1.172,2.709,2.709,0,0,1-1.16-.246,2.479,2.479,0,0,1-.9-.719,3.438,3.438,0,0,1-.582-1.164,5.551,5.551,0,0,1-.207-1.59,11.938,11.938,0,0,1,.141-1.793,11.1,11.1,0,0,1,.43-1.8,9.769,9.769,0,0,1,.719-1.66,6.191,6.191,0,0,1,1.016-1.375,4.129,4.129,0,0,1,1.242-.91,3.6,3.6,0,0,1,1.555-.324,2.927,2.927,0,0,1,1.133.211,2.318,2.318,0,0,1,.871.629,2.879,2.879,0,0,1,.559,1.035A4.775,4.775,0,0,1,61.23,8.922Zm-1.3.109a3.111,3.111,0,0,0-.406-1.715,1.323,1.323,0,0,0-1.18-.621,1.944,1.944,0,0,0-.867.2,2.953,2.953,0,0,0-.8.6,4.512,4.512,0,0,0-.574.762,7.791,7.791,0,0,0-.492.953,10.053,10.053,0,0,0-.395,1.074q-.172.563-.293,1.125t-.184,1.1a8.781,8.781,0,0,0-.062,1.008,4.622,4.622,0,0,0,.129,1.168,2.446,2.446,0,0,0,.355.8,1.412,1.412,0,0,0,.535.465,1.5,1.5,0,0,0,.66.148,1.958,1.958,0,0,0,.828-.187,2.451,2.451,0,0,0,.758-.562,5.036,5.036,0,0,0,.773-1.152,10.287,10.287,0,0,0,.629-1.559,13.046,13.046,0,0,0,.426-1.785A11.042,11.042,0,0,0,59.934,9.031Zm3.25,7.281a.854.854,0,0,1-.25.609.9.9,0,0,1-.277.188.836.836,0,0,1-.34.07.809.809,0,0,1-.336-.07.912.912,0,0,1-.273-.187.854.854,0,0,1-.25-.609.878.878,0,0,1,.066-.34.845.845,0,0,1,.184-.277.854.854,0,0,1,.609-.25.878.878,0,0,1,.34.066.834.834,0,0,1,.461.461A.878.878,0,0,1,63.184,16.313ZM73.34,8.922q0,.586-.055,1.223t-.172,1.285a12.945,12.945,0,0,1-.3,1.285,10.138,10.138,0,0,1-.441,1.23,8.318,8.318,0,0,1-.59,1.121,5.918,5.918,0,0,1-.746.957,3.614,3.614,0,0,1-2.7,1.172,2.709,2.709,0,0,1-1.16-.246,2.479,2.479,0,0,1-.9-.719,3.438,3.438,0,0,1-.582-1.164,5.551,5.551,0,0,1-.207-1.59,11.938,11.938,0,0,1,.141-1.793,11.1,11.1,0,0,1,.43-1.8,9.769,9.769,0,0,1,.719-1.66,6.191,6.191,0,0,1,1.016-1.375,4.129,4.129,0,0,1,1.242-.91,3.6,3.6,0,0,1,1.555-.324,2.927,2.927,0,0,1,1.133.211,2.318,2.318,0,0,1,.871.629,2.879,2.879,0,0,1,.559,1.035A4.774,4.774,0,0,1,73.34,8.922Zm-1.3.109a3.111,3.111,0,0,0-.406-1.715,1.323,1.323,0,0,0-1.18-.621,1.944,1.944,0,0,0-.867.2,2.953,2.953,0,0,0-.8.6,4.512,4.512,0,0,0-.574.762,7.791,7.791,0,0,0-.492.953,10.054,10.054,0,0,0-.395,1.074q-.172.563-.293,1.125t-.184,1.1a8.781,8.781,0,0,0-.062,1.008,4.622,4.622,0,0,0,.129,1.168,2.446,2.446,0,0,0,.355.8,1.412,1.412,0,0,0,.535.465,1.5,1.5,0,0,0,.66.148,1.958,1.958,0,0,0,.828-.187,2.451,2.451,0,0,0,.758-.562,5.037,5.037,0,0,0,.773-1.152,10.287,10.287,0,0,0,.629-1.559,13.045,13.045,0,0,0,.426-1.785A11.043,11.043,0,0,0,72.043,9.031Zm9.922-.109q0,.586-.055,1.223t-.172,1.285a12.945,12.945,0,0,1-.3,1.285A10.138,10.138,0,0,1,81,13.945a8.318,8.318,0,0,1-.59,1.121,5.918,5.918,0,0,1-.746.957,3.614,3.614,0,0,1-2.7,1.172,2.709,2.709,0,0,1-1.16-.246,2.479,2.479,0,0,1-.9-.719,3.438,3.438,0,0,1-.582-1.164,5.551,5.551,0,0,1-.207-1.59,11.938,11.938,0,0,1,.141-1.793,11.1,11.1,0,0,1,.43-1.8,9.769,9.769,0,0,1,.719-1.66A6.191,6.191,0,0,1,76.41,6.844a4.129,4.129,0,0,1,1.242-.91,3.6,3.6,0,0,1,1.555-.324,2.927,2.927,0,0,1,1.133.211,2.318,2.318,0,0,1,.871.629,2.879,2.879,0,0,1,.559,1.035A4.774,4.774,0,0,1,81.965,8.922Zm-1.3.109a3.111,3.111,0,0,0-.406-1.715,1.323,1.323,0,0,0-1.18-.621,1.944,1.944,0,0,0-.867.2,2.953,2.953,0,0,0-.8.6,4.512,4.512,0,0,0-.574.762,7.791,7.791,0,0,0-.492.953,10.054,10.054,0,0,0-.395,1.074q-.172.563-.293,1.125t-.184,1.1a8.781,8.781,0,0,0-.062,1.008,4.622,4.622,0,0,0,.129,1.168,2.446,2.446,0,0,0,.355.8,1.412,1.412,0,0,0,.535.465,1.5,1.5,0,0,0,.66.148,1.958,1.958,0,0,0,.828-.187,2.451,2.451,0,0,0,.758-.562,5.037,5.037,0,0,0,.773-1.152,10.287,10.287,0,0,0,.629-1.559,13.045,13.045,0,0,0,.426-1.785A11.043,11.043,0,0,0,80.668,9.031Zm9.922-.109q0,.586-.055,1.223t-.172,1.285a12.945,12.945,0,0,1-.3,1.285,10.138,10.138,0,0,1-.441,1.23,8.318,8.318,0,0,1-.59,1.121,5.918,5.918,0,0,1-.746.957,3.614,3.614,0,0,1-2.7,1.172,2.709,2.709,0,0,1-1.16-.246,2.479,2.479,0,0,1-.9-.719,3.438,3.438,0,0,1-.582-1.164,5.551,5.551,0,0,1-.207-1.59,11.938,11.938,0,0,1,.141-1.793,11.1,11.1,0,0,1,.43-1.8,9.769,9.769,0,0,1,.719-1.66,6.191,6.191,0,0,1,1.016-1.375,4.129,4.129,0,0,1,1.242-.91,3.6,3.6,0,0,1,1.555-.324,2.927,2.927,0,0,1,1.133.211,2.318,2.318,0,0,1,.871.629,2.879,2.879,0,0,1,.559,1.035A4.774,4.774,0,0,1,90.59,8.922Zm-1.3.109a3.111,3.111,0,0,0-.406-1.715,1.323,1.323,0,0,0-1.18-.621,1.944,1.944,0,0,0-.867.2,2.953,2.953,0,0,0-.8.6,4.512,4.512,0,0,0-.574.762,7.791,7.791,0,0,0-.492.953,10.054,10.054,0,0,0-.395,1.074q-.172.563-.293,1.125t-.184,1.1a8.781,8.781,0,0,0-.062,1.008,4.622,4.622,0,0,0,.129,1.168,2.446,2.446,0,0,0,.355.8,1.412,1.412,0,0,0,.535.465,1.5,1.5,0,0,0,.66.148,1.958,1.958,0,0,0,.828-.187,2.451,2.451,0,0,0,.758-.562,5.037,5.037,0,0,0,.773-1.152,10.287,10.287,0,0,0,.629-1.559,13.045,13.045,0,0,0,.426-1.785A11.043,11.043,0,0,0,89.293,9.031Zm3.25,7.281a.854.854,0,0,1-.25.609.9.9,0,0,1-.277.188.836.836,0,0,1-.34.07.809.809,0,0,1-.336-.07.912.912,0,0,1-.273-.187.854.854,0,0,1-.25-.609.878.878,0,0,1,.066-.34.845.845,0,0,1,.184-.277.854.854,0,0,1,.609-.25.878.878,0,0,1,.34.066.834.834,0,0,1,.461.461A.878.878,0,0,1,92.543,16.313ZM102.7,8.922q0,.586-.055,1.223t-.172,1.285a12.945,12.945,0,0,1-.3,1.285,10.138,10.138,0,0,1-.441,1.23,8.318,8.318,0,0,1-.59,1.121,5.918,5.918,0,0,1-.746.957,3.614,3.614,0,0,1-2.7,1.172,2.709,2.709,0,0,1-1.16-.246,2.479,2.479,0,0,1-.9-.719,3.438,3.438,0,0,1-.582-1.164,5.551,5.551,0,0,1-.207-1.59,11.938,11.938,0,0,1,.141-1.793,11.1,11.1,0,0,1,.43-1.8,9.769,9.769,0,0,1,.719-1.66,6.191,6.191,0,0,1,1.016-1.375,4.129,4.129,0,0,1,1.242-.91,3.6,3.6,0,0,1,1.555-.324,2.927,2.927,0,0,1,1.133.211,2.318,2.318,0,0,1,.871.629,2.879,2.879,0,0,1,.559,1.035A4.774,4.774,0,0,1,102.7,8.922Zm-1.3.109A3.111,3.111,0,0,0,101,7.316a1.323,1.323,0,0,0-1.18-.621,1.944,1.944,0,0,0-.867.2,2.953,2.953,0,0,0-.8.6,4.512,4.512,0,0,0-.574.762,7.791,7.791,0,0,0-.492.953,10.054,10.054,0,0,0-.395,1.074q-.172.563-.293,1.125t-.184,1.1a8.781,8.781,0,0,0-.062,1.008,4.622,4.622,0,0,0,.129,1.168,2.446,2.446,0,0,0,.355.8,1.412,1.412,0,0,0,.535.465,1.5,1.5,0,0,0,.66.148,1.958,1.958,0,0,0,.828-.187,2.451,2.451,0,0,0,.758-.562,5.037,5.037,0,0,0,.773-1.152,10.287,10.287,0,0,0,.629-1.559,13.045,13.045,0,0,0,.426-1.785A11.043,11.043,0,0,0,101.4,9.031Zm9.922-.109q0,.586-.055,1.223T111.1,11.43a12.945,12.945,0,0,1-.3,1.285,10.138,10.138,0,0,1-.441,1.23,8.318,8.318,0,0,1-.59,1.121,5.918,5.918,0,0,1-.746.957,3.614,3.614,0,0,1-2.7,1.172,2.709,2.709,0,0,1-1.16-.246,2.479,2.479,0,0,1-.9-.719,3.438,3.438,0,0,1-.582-1.164,5.551,5.551,0,0,1-.207-1.59,11.938,11.938,0,0,1,.141-1.793,11.1,11.1,0,0,1,.43-1.8,9.769,9.769,0,0,1,.719-1.66,6.191,6.191,0,0,1,1.016-1.375,4.129,4.129,0,0,1,1.242-.91,3.6,3.6,0,0,1,1.555-.324,2.927,2.927,0,0,1,1.133.211,2.318,2.318,0,0,1,.871.629,2.879,2.879,0,0,1,.559,1.035A4.774,4.774,0,0,1,111.324,8.922Zm-1.3.109a3.111,3.111,0,0,0-.406-1.715,1.323,1.323,0,0,0-1.18-.621,1.944,1.944,0,0,0-.867.2,2.953,2.953,0,0,0-.8.6,4.512,4.512,0,0,0-.574.762,7.791,7.791,0,0,0-.492.953,10.054,10.054,0,0,0-.395,1.074q-.172.563-.293,1.125t-.184,1.1a8.781,8.781,0,0,0-.062,1.008,4.622,4.622,0,0,0,.129,1.168,2.446,2.446,0,0,0,.355.8,1.412,1.412,0,0,0,.535.465,1.5,1.5,0,0,0,.66.148,1.958,1.958,0,0,0,.828-.187,2.451,2.451,0,0,0,.758-.562,5.037,5.037,0,0,0,.773-1.152,10.287,10.287,0,0,0,.629-1.559,13.045,13.045,0,0,0,.426-1.785A11.043,11.043,0,0,0,110.027,9.031Zm9.922-.109q0,.586-.055,1.223t-.172,1.285a12.945,12.945,0,0,1-.3,1.285,10.138,10.138,0,0,1-.441,1.23,8.318,8.318,0,0,1-.59,1.121,5.918,5.918,0,0,1-.746.957,3.614,3.614,0,0,1-2.7,1.172,2.709,2.709,0,0,1-1.16-.246,2.479,2.479,0,0,1-.9-.719,3.438,3.438,0,0,1-.582-1.164,5.551,5.551,0,0,1-.207-1.59,11.938,11.938,0,0,1,.141-1.793,11.1,11.1,0,0,1,.43-1.8,9.769,9.769,0,0,1,.719-1.66,6.191,6.191,0,0,1,1.016-1.375,4.129,4.129,0,0,1,1.242-.91,3.6,3.6,0,0,1,1.555-.324,2.927,2.927,0,0,1,1.133.211,2.318,2.318,0,0,1,.871.629,2.879,2.879,0,0,1,.559,1.035A4.774,4.774,0,0,1,119.949,8.922Zm-1.3.109a3.111,3.111,0,0,0-.406-1.715,1.323,1.323,0,0,0-1.18-.621,1.944,1.944,0,0,0-.867.2,2.953,2.953,0,0,0-.8.6,4.512,4.512,0,0,0-.574.762,7.791,7.791,0,0,0-.492.953,10.054,10.054,0,0,0-.395,1.074q-.172.563-.293,1.125t-.184,1.1a8.781,8.781,0,0,0-.062,1.008,4.622,4.622,0,0,0,.129,1.168,2.446,2.446,0,0,0,.355.8,1.412,1.412,0,0,0,.535.465,1.5,1.5,0,0,0,.66.148,1.958,1.958,0,0,0,.828-.187,2.451,2.451,0,0,0,.758-.562,5.037,5.037,0,0,0,.773-1.152,10.287,10.287,0,0,0,.629-1.559,13.045,13.045,0,0,0,.426-1.785A11.043,11.043,0,0,0,118.652,9.031ZM16.223,26.367q-.164-.094-.383-.191t-.473-.184q-.254-.086-.523-.148a3.9,3.9,0,0,0-.527-.086l-.93,4.32q.414.3.8.625a5.323,5.323,0,0,1,.691.676,3.245,3.245,0,0,1,.484.762,2.118,2.118,0,0,1,.184.883,3.448,3.448,0,0,1-.172,1.059,2.637,2.637,0,0,1-.574.977,3.174,3.174,0,0,1-1.062.738,4.312,4.312,0,0,1-1.629.328l-.336,1.508h-.8l.32-1.523a5.562,5.562,0,0,1-.687-.078q-.359-.063-.687-.148T9.309,35.7a3.5,3.5,0,0,1-.461-.191l.219-1.266a4.014,4.014,0,0,0,.512.273,6.423,6.423,0,0,0,.621.242q.328.109.664.188a5.158,5.158,0,0,0,.641.109l.891-4.141q-.477-.344-.883-.676a4.568,4.568,0,0,1-.7-.7,2.961,2.961,0,0,1-.457-.816,2.9,2.9,0,0,1-.164-1.008,2.811,2.811,0,0,1,.254-1.191,2.859,2.859,0,0,1,.715-.957,3.456,3.456,0,0,1,1.113-.645,4.323,4.323,0,0,1,1.449-.246l.273-1.3h.82L14.527,24.7a5.513,5.513,0,0,1,1.055.18,7,7,0,0,1,.867.289Zm-2.734-.625a2.4,2.4,0,0,0-.863.2,1.956,1.956,0,0,0-.621.441,1.813,1.813,0,0,0-.375.605,1.957,1.957,0,0,0-.125.688,1.743,1.743,0,0,0,.086.555,1.917,1.917,0,0,0,.242.484,2.708,2.708,0,0,0,.371.43,6.036,6.036,0,0,0,.48.406Zm.75,7.406a1.492,1.492,0,0,0-.062-.434,1.654,1.654,0,0,0-.2-.414,2.471,2.471,0,0,0-.352-.422,6.057,6.057,0,0,0-.531-.457l-.75,3.633a2.347,2.347,0,0,0,.863-.215A1.877,1.877,0,0,0,13.8,34.4a1.652,1.652,0,0,0,.336-.586A2.146,2.146,0,0,0,14.238,33.148ZM29.527,24.8l-1.57,7.4h1.469l-.25,1.172H27.707L27.145,36H25.879l.563-2.633H21.184l.234-1.109a48.652,48.652,0,0,0,3.477-3.523q1.781-1.984,3.219-3.937Zm-2.836,7.4,1.141-5.367A56.664,56.664,0,0,1,22.941,32.2Zm11.8-4.273q0,.586-.055,1.223T38.27,30.43a12.946,12.946,0,0,1-.3,1.285,10.137,10.137,0,0,1-.441,1.23,8.317,8.317,0,0,1-.59,1.121,5.918,5.918,0,0,1-.746.957,3.614,3.614,0,0,1-2.7,1.172,2.709,2.709,0,0,1-1.16-.246,2.479,2.479,0,0,1-.9-.719,3.438,3.438,0,0,1-.582-1.164,5.551,5.551,0,0,1-.207-1.59,11.938,11.938,0,0,1,.141-1.793,11.1,11.1,0,0,1,.43-1.8,9.769,9.769,0,0,1,.719-1.66,6.191,6.191,0,0,1,1.016-1.375,4.129,4.129,0,0,1,1.242-.91,3.6,3.6,0,0,1,1.555-.324,2.927,2.927,0,0,1,1.133.211,2.318,2.318,0,0,1,.871.629,2.879,2.879,0,0,1,.559,1.035A4.775,4.775,0,0,1,38.5,27.922Zm-1.3.109a3.111,3.111,0,0,0-.406-1.715,1.323,1.323,0,0,0-1.18-.621,1.944,1.944,0,0,0-.867.2,2.953,2.953,0,0,0-.8.6,4.512,4.512,0,0,0-.574.762,7.791,7.791,0,0,0-.492.953,10.053,10.053,0,0,0-.395,1.074q-.172.563-.293,1.125t-.184,1.1a8.781,8.781,0,0,0-.062,1.008,4.622,4.622,0,0,0,.129,1.168,2.446,2.446,0,0,0,.355.8,1.412,1.412,0,0,0,.535.465,1.5,1.5,0,0,0,.66.148,1.958,1.958,0,0,0,.828-.187,2.451,2.451,0,0,0,.758-.562,5.036,5.036,0,0,0,.773-1.152,10.288,10.288,0,0,0,.629-1.559,13.046,13.046,0,0,0,.426-1.785A11.042,11.042,0,0,0,37.2,28.031Zm3.25,7.281a.854.854,0,0,1-.25.609.9.9,0,0,1-.277.188.836.836,0,0,1-.34.07.809.809,0,0,1-.336-.07.912.912,0,0,1-.273-.187.854.854,0,0,1-.25-.609.878.878,0,0,1,.066-.34.845.845,0,0,1,.184-.277.854.854,0,0,1,.609-.25.878.878,0,0,1,.34.066.834.834,0,0,1,.461.461A.878.878,0,0,1,40.449,35.313Zm10.156-7.391q0,.586-.055,1.223t-.172,1.285a12.946,12.946,0,0,1-.3,1.285,10.137,10.137,0,0,1-.441,1.23,8.317,8.317,0,0,1-.59,1.121,5.918,5.918,0,0,1-.746.957A3.614,3.614,0,0,1,45.6,36.2a2.709,2.709,0,0,1-1.16-.246,2.479,2.479,0,0,1-.9-.719,3.438,3.438,0,0,1-.582-1.164,5.551,5.551,0,0,1-.207-1.59,11.938,11.938,0,0,1,.141-1.793,11.1,11.1,0,0,1,.43-1.8,9.769,9.769,0,0,1,.719-1.66,6.191,6.191,0,0,1,1.016-1.375,4.129,4.129,0,0,1,1.242-.91,3.6,3.6,0,0,1,1.555-.324,2.927,2.927,0,0,1,1.133.211,2.318,2.318,0,0,1,.871.629,2.879,2.879,0,0,1,.559,1.035A4.775,4.775,0,0,1,50.605,27.922Zm-1.3.109a3.111,3.111,0,0,0-.406-1.715,1.323,1.323,0,0,0-1.18-.621,1.944,1.944,0,0,0-.867.2,2.953,2.953,0,0,0-.8.6,4.512,4.512,0,0,0-.574.762,7.791,7.791,0,0,0-.492.953,10.053,10.053,0,0,0-.395,1.074q-.172.563-.293,1.125t-.184,1.1a8.781,8.781,0,0,0-.062,1.008,4.622,4.622,0,0,0,.129,1.168,2.446,2.446,0,0,0,.355.8,1.412,1.412,0,0,0,.535.465,1.5,1.5,0,0,0,.66.148,1.958,1.958,0,0,0,.828-.187,2.451,2.451,0,0,0,.758-.562A5.036,5.036,0,0,0,48.1,33.2a10.288,10.288,0,0,0,.629-1.559,13.046,13.046,0,0,0,.426-1.785A11.042,11.042,0,0,0,49.309,28.031Zm9.922-.109q0,.586-.055,1.223T59,30.43a12.946,12.946,0,0,1-.3,1.285,10.137,10.137,0,0,1-.441,1.23,8.317,8.317,0,0,1-.59,1.121,5.918,5.918,0,0,1-.746.957,3.614,3.614,0,0,1-2.7,1.172,2.709,2.709,0,0,1-1.16-.246,2.479,2.479,0,0,1-.9-.719,3.438,3.438,0,0,1-.582-1.164,5.551,5.551,0,0,1-.207-1.59,11.938,11.938,0,0,1,.141-1.793,11.1,11.1,0,0,1,.43-1.8,9.769,9.769,0,0,1,.719-1.66,6.191,6.191,0,0,1,1.016-1.375,4.129,4.129,0,0,1,1.242-.91,3.6,3.6,0,0,1,1.555-.324,2.927,2.927,0,0,1,1.133.211,2.318,2.318,0,0,1,.871.629,2.879,2.879,0,0,1,.559,1.035A4.775,4.775,0,0,1,59.23,27.922Zm-1.3.109a3.111,3.111,0,0,0-.406-1.715,1.323,1.323,0,0,0-1.18-.621,1.944,1.944,0,0,0-.867.2,2.953,2.953,0,0,0-.8.6,4.512,4.512,0,0,0-.574.762,7.791,7.791,0,0,0-.492.953,10.053,10.053,0,0,0-.395,1.074q-.172.563-.293,1.125t-.184,1.1a8.781,8.781,0,0,0-.062,1.008,4.622,4.622,0,0,0,.129,1.168,2.446,2.446,0,0,0,.355.8,1.412,1.412,0,0,0,.535.465,1.5,1.5,0,0,0,.66.148,1.958,1.958,0,0,0,.828-.187,2.451,2.451,0,0,0,.758-.562,5.036,5.036,0,0,0,.773-1.152,10.288,10.288,0,0,0,.629-1.559,13.046,13.046,0,0,0,.426-1.785A11.042,11.042,0,0,0,57.934,28.031Zm9.922-.109q0,.586-.055,1.223t-.172,1.285a12.945,12.945,0,0,1-.3,1.285,10.138,10.138,0,0,1-.441,1.23,8.318,8.318,0,0,1-.59,1.121,5.918,5.918,0,0,1-.746.957,3.614,3.614,0,0,1-2.7,1.172,2.709,2.709,0,0,1-1.16-.246,2.479,2.479,0,0,1-.9-.719,3.438,3.438,0,0,1-.582-1.164A5.551,5.551,0,0,1,60,32.477a11.938,11.938,0,0,1,.141-1.793,11.1,11.1,0,0,1,.43-1.8,9.769,9.769,0,0,1,.719-1.66A6.191,6.191,0,0,1,62.3,25.844a4.129,4.129,0,0,1,1.242-.91,3.6,3.6,0,0,1,1.555-.324,2.927,2.927,0,0,1,1.133.211,2.318,2.318,0,0,1,.871.629,2.879,2.879,0,0,1,.559,1.035A4.774,4.774,0,0,1,67.855,27.922Zm-1.3.109a3.111,3.111,0,0,0-.406-1.715,1.323,1.323,0,0,0-1.18-.621,1.944,1.944,0,0,0-.867.2,2.953,2.953,0,0,0-.8.6,4.512,4.512,0,0,0-.574.762,7.791,7.791,0,0,0-.492.953,10.053,10.053,0,0,0-.395,1.074q-.172.563-.293,1.125t-.184,1.1a8.781,8.781,0,0,0-.062,1.008,4.622,4.622,0,0,0,.129,1.168,2.446,2.446,0,0,0,.355.8,1.412,1.412,0,0,0,.535.465,1.5,1.5,0,0,0,.66.148,1.958,1.958,0,0,0,.828-.187,2.451,2.451,0,0,0,.758-.562,5.037,5.037,0,0,0,.773-1.152,10.287,10.287,0,0,0,.629-1.559,13.045,13.045,0,0,0,.426-1.785A11.043,11.043,0,0,0,66.559,28.031ZM77.6,32.047H73.324l.227-1.008h4.273Zm13.453-5.68q-.164-.094-.383-.191t-.473-.184q-.254-.086-.523-.148a3.9,3.9,0,0,0-.527-.086l-.93,4.32q.414.3.8.625a5.324,5.324,0,0,1,.691.676,3.245,3.245,0,0,1,.484.762,2.118,2.118,0,0,1,.184.883,3.447,3.447,0,0,1-.172,1.059,2.637,2.637,0,0,1-.574.977,3.174,3.174,0,0,1-1.062.738,4.312,4.312,0,0,1-1.629.328l-.336,1.508h-.8l.32-1.523a5.563,5.563,0,0,1-.687-.078q-.359-.063-.687-.148t-.609-.184a3.5,3.5,0,0,1-.461-.191l.219-1.266a4.014,4.014,0,0,0,.512.273,6.423,6.423,0,0,0,.621.242q.328.109.664.188a5.158,5.158,0,0,0,.641.109l.891-4.141q-.477-.344-.883-.676a4.568,4.568,0,0,1-.7-.7,2.961,2.961,0,0,1-.457-.816,2.9,2.9,0,0,1-.164-1.008,2.811,2.811,0,0,1,.254-1.191,2.859,2.859,0,0,1,.715-.957,3.456,3.456,0,0,1,1.113-.645,4.323,4.323,0,0,1,1.449-.246l.273-1.3h.82L89.355,24.7a5.513,5.513,0,0,1,1.055.18,7,7,0,0,1,.867.289Zm-2.734-.625a2.4,2.4,0,0,0-.863.2,1.956,1.956,0,0,0-.621.441,1.813,1.813,0,0,0-.375.605,1.957,1.957,0,0,0-.125.688,1.743,1.743,0,0,0,.086.555,1.917,1.917,0,0,0,.242.484,2.708,2.708,0,0,0,.371.43,6.035,6.035,0,0,0,.48.406Zm.75,7.406A1.492,1.492,0,0,0,89,32.715a1.654,1.654,0,0,0-.2-.414,2.471,2.471,0,0,0-.352-.422,6.057,6.057,0,0,0-.531-.457l-.75,3.633a2.347,2.347,0,0,0,.863-.215,1.877,1.877,0,0,0,.586-.437,1.652,1.652,0,0,0,.336-.586A2.146,2.146,0,0,0,89.066,33.148ZM104.355,24.8l-1.57,7.4h1.469L104,33.367h-1.469L101.973,36h-1.266l.563-2.633H96.012l.234-1.109a48.652,48.652,0,0,0,3.477-3.523q1.781-1.984,3.219-3.937Zm-2.836,7.4,1.141-5.367A56.664,56.664,0,0,1,97.77,32.2Zm11.453-6.227h-4.211l-.687,3.266.828-.031a3.568,3.568,0,0,1,2.438.77,2.734,2.734,0,0,1,.875,2.168,4.074,4.074,0,0,1-.57,2.133,3.629,3.629,0,0,1-1.582,1.438,5.4,5.4,0,0,1-2.355.484,8.377,8.377,0,0,1-1.387-.117,4.335,4.335,0,0,1-1.1-.3l.289-1.258a3.418,3.418,0,0,0,1.031.422,5.058,5.058,0,0,0,1.258.164,3.605,3.605,0,0,0,1.672-.355,2.581,2.581,0,0,0,1.059-.977,2.681,2.681,0,0,0,.371-1.4,1.977,1.977,0,0,0-.562-1.527,2.581,2.581,0,0,0-1.789-.52q-1.086,0-1.945.078l1.18-5.6h5.422Zm2.3,9.344a.854.854,0,0,1-.25.609.9.9,0,0,1-.277.188.836.836,0,0,1-.34.07.809.809,0,0,1-.336-.07.912.912,0,0,1-.273-.187.854.854,0,0,1-.25-.609.878.878,0,0,1,.066-.34.845.845,0,0,1,.184-.277.854.854,0,0,1,.609-.25.878.878,0,0,1,.34.066.834.834,0,0,1,.461.461A.878.878,0,0,1,115.277,35.313Zm10.156-7.391q0,.586-.055,1.223t-.172,1.285a12.945,12.945,0,0,1-.3,1.285,10.138,10.138,0,0,1-.441,1.23,8.318,8.318,0,0,1-.59,1.121,5.918,5.918,0,0,1-.746.957,3.614,3.614,0,0,1-2.7,1.172,2.709,2.709,0,0,1-1.16-.246,2.479,2.479,0,0,1-.9-.719,3.438,3.438,0,0,1-.582-1.164,5.551,5.551,0,0,1-.207-1.59,11.938,11.938,0,0,1,.141-1.793,11.1,11.1,0,0,1,.43-1.8,9.769,9.769,0,0,1,.719-1.66,6.191,6.191,0,0,1,1.016-1.375,4.129,4.129,0,0,1,1.242-.91,3.6,3.6,0,0,1,1.555-.324,2.927,2.927,0,0,1,1.133.211,2.318,2.318,0,0,1,.871.629,2.879,2.879,0,0,1,.559,1.035A4.774,4.774,0,0,1,125.434,27.922Zm-1.3.109a3.111,3.111,0,0,0-.406-1.715,1.323,1.323,0,0,0-1.18-.621,1.944,1.944,0,0,0-.867.2,2.953,2.953,0,0,0-.8.6,4.512,4.512,0,0,0-.574.762,7.791,7.791,0,0,0-.492.953,10.054,10.054,0,0,0-.395,1.074q-.172.563-.293,1.125t-.184,1.1a8.781,8.781,0,0,0-.062,1.008,4.622,4.622,0,0,0,.129,1.168,2.446,2.446,0,0,0,.355.8,1.412,1.412,0,0,0,.535.465,1.5,1.5,0,0,0,.66.148,1.958,1.958,0,0,0,.828-.187,2.451,2.451,0,0,0,.758-.562,5.037,5.037,0,0,0,.773-1.152,10.287,10.287,0,0,0,.629-1.559,13.045,13.045,0,0,0,.426-1.785A11.043,11.043,0,0,0,124.137,28.031Zm9.922-.109q0,.586-.055,1.223t-.172,1.285a12.947,12.947,0,0,1-.3,1.285,10.137,10.137,0,0,1-.441,1.23,8.317,8.317,0,0,1-.59,1.121,5.918,5.918,0,0,1-.746.957,3.614,3.614,0,0,1-2.7,1.172,2.709,2.709,0,0,1-1.16-.246,2.479,2.479,0,0,1-.9-.719,3.438,3.438,0,0,1-.582-1.164,5.551,5.551,0,0,1-.207-1.59,11.938,11.938,0,0,1,.141-1.793,11.1,11.1,0,0,1,.43-1.8,9.769,9.769,0,0,1,.719-1.66,6.191,6.191,0,0,1,1.016-1.375,4.13,4.13,0,0,1,1.242-.91,3.6,3.6,0,0,1,1.555-.324,2.927,2.927,0,0,1,1.133.211,2.318,2.318,0,0,1,.871.629,2.879,2.879,0,0,1,.559,1.035A4.775,4.775,0,0,1,134.059,27.922Zm-1.3.109a3.111,3.111,0,0,0-.406-1.715,1.323,1.323,0,0,0-1.18-.621,1.944,1.944,0,0,0-.867.2,2.953,2.953,0,0,0-.8.6,4.512,4.512,0,0,0-.574.762,7.791,7.791,0,0,0-.492.953,10.052,10.052,0,0,0-.395,1.074q-.172.563-.293,1.125t-.184,1.1a8.781,8.781,0,0,0-.062,1.008,4.622,4.622,0,0,0,.129,1.168,2.446,2.446,0,0,0,.355.8,1.412,1.412,0,0,0,.535.465,1.5,1.5,0,0,0,.66.148,1.958,1.958,0,0,0,.828-.187,2.451,2.451,0,0,0,.758-.562,5.036,5.036,0,0,0,.773-1.152,10.288,10.288,0,0,0,.629-1.559,13.046,13.046,0,0,0,.426-1.785A11.042,11.042,0,0,0,132.762,28.031Zm9.922-.109q0,.586-.055,1.223t-.172,1.285a12.947,12.947,0,0,1-.3,1.285,10.137,10.137,0,0,1-.441,1.23,8.317,8.317,0,0,1-.59,1.121,5.918,5.918,0,0,1-.746.957,3.614,3.614,0,0,1-2.7,1.172,2.709,2.709,0,0,1-1.16-.246,2.479,2.479,0,0,1-.9-.719,3.438,3.438,0,0,1-.582-1.164,5.551,5.551,0,0,1-.207-1.59,11.938,11.938,0,0,1,.141-1.793,11.1,11.1,0,0,1,.43-1.8,9.769,9.769,0,0,1,.719-1.66,6.19,6.19,0,0,1,1.016-1.375,4.13,4.13,0,0,1,1.242-.91,3.6,3.6,0,0,1,1.555-.324,2.927,2.927,0,0,1,1.133.211,2.318,2.318,0,0,1,.871.629,2.879,2.879,0,0,1,.559,1.035A4.775,4.775,0,0,1,142.684,27.922Zm-1.3.109a3.111,3.111,0,0,0-.406-1.715,1.323,1.323,0,0,0-1.18-.621,1.944,1.944,0,0,0-.867.2,2.953,2.953,0,0,0-.8.6,4.512,4.512,0,0,0-.574.762,7.791,7.791,0,0,0-.492.953,10.052,10.052,0,0,0-.395,1.074q-.172.563-.293,1.125t-.184,1.1a8.78,8.78,0,0,0-.062,1.008,4.622,4.622,0,0,0,.129,1.168,2.446,2.446,0,0,0,.355.8,1.412,1.412,0,0,0,.535.465,1.5,1.5,0,0,0,.66.148,1.958,1.958,0,0,0,.828-.187,2.451,2.451,0,0,0,.758-.562,5.036,5.036,0,0,0,.773-1.152,10.288,10.288,0,0,0,.629-1.559,13.046,13.046,0,0,0,.426-1.785A11.042,11.042,0,0,0,141.387,28.031Z" transform="translate(756 11625.363)" fill="#12263f"/>
      <path id="Trazado_908251" data-name="Trazado 908251" d="M23.578,8.742A4.3,4.3,0,0,1,23.3,10.3a3.463,3.463,0,0,1-.855,1.277,4.07,4.07,0,0,1-1.457.863,6.161,6.161,0,0,1-2.078.316H17.2L16.313,17H14.969L17.336,5.8h2.9a4.264,4.264,0,0,1,1.535.246,2.889,2.889,0,0,1,1.039.656,2.493,2.493,0,0,1,.586.941A3.349,3.349,0,0,1,23.578,8.742ZM22.2,8.859a1.986,1.986,0,0,0-.145-.77,1.589,1.589,0,0,0-.426-.594,1.937,1.937,0,0,0-.7-.379,3.189,3.189,0,0,0-.965-.133H18.438l-.977,4.594h1.57a4.37,4.37,0,0,0,1.426-.207,2.71,2.71,0,0,0,.984-.57,2.222,2.222,0,0,0,.57-.859A3.1,3.1,0,0,0,22.2,8.859Zm9.766-1.875h-4.32l-.812,3.82h4l-.258,1.188h-4l-.82,3.82h4.594L30.109,17H24.172L26.539,5.8h5.68ZM43.2,10.375a7.742,7.742,0,0,1-.6,3.031A6.684,6.684,0,0,1,40.93,15.8a5.049,5.049,0,0,1-2.469,1.246l2.25,2.656H38.953L37.133,17.2a4.756,4.756,0,0,1-2.367-.637A4.086,4.086,0,0,1,33.2,14.883a5.233,5.233,0,0,1-.551-2.43,7.054,7.054,0,0,1,1.742-4.914,5.6,5.6,0,0,1,4.336-1.93,4.536,4.536,0,0,1,2.348.605,4.011,4.011,0,0,1,1.574,1.7A5.42,5.42,0,0,1,43.2,10.375Zm-1.391.047a3.912,3.912,0,0,0-.852-2.645,2.922,2.922,0,0,0-2.336-.988,3.987,3.987,0,0,0-2.293.723,4.954,4.954,0,0,0-1.68,2.047,6.731,6.731,0,0,0-.621,2.895,3.722,3.722,0,0,0,.871,2.586,3.019,3.019,0,0,0,2.363.969,3.971,3.971,0,0,0,2.285-.7,4.816,4.816,0,0,0,1.645-2.062A6.776,6.776,0,0,0,41.8,10.422Zm8.234.773V10.148h7.344V11.2Zm0,3.328V13.477h7.344v1.047Z" transform="translate(685 11634.363)" fill="#12263f"/>
      <path id="Trazado_908253" data-name="Trazado 908253" d="M22.609,8.742a4.3,4.3,0,0,1-.281,1.559,3.463,3.463,0,0,1-.855,1.277,4.07,4.07,0,0,1-1.457.863,6.161,6.161,0,0,1-2.078.316h-1.7L15.344,17H14L16.367,5.8h2.9a4.264,4.264,0,0,1,1.535.246A2.889,2.889,0,0,1,21.84,6.7a2.493,2.493,0,0,1,.586.941A3.349,3.349,0,0,1,22.609,8.742Zm-1.383.117a1.986,1.986,0,0,0-.145-.77,1.589,1.589,0,0,0-.426-.594,1.937,1.937,0,0,0-.7-.379,3.189,3.189,0,0,0-.965-.133H17.469l-.977,4.594h1.57a4.37,4.37,0,0,0,1.426-.207,2.71,2.71,0,0,0,.984-.57,2.222,2.222,0,0,0,.57-.859A3.1,3.1,0,0,0,21.227,8.859Zm9.766-1.875h-4.32l-.812,3.82h4L29.6,11.992h-4l-.82,3.82h4.594L29.141,17H23.2L25.57,5.8h5.68Zm11.234,3.391a7.742,7.742,0,0,1-.6,3.031A6.684,6.684,0,0,1,39.961,15.8a5.049,5.049,0,0,1-2.469,1.246l2.25,2.656H37.984L36.164,17.2a4.756,4.756,0,0,1-2.367-.637,4.086,4.086,0,0,1-1.566-1.676,5.233,5.233,0,0,1-.551-2.43,7.054,7.054,0,0,1,1.742-4.914,5.6,5.6,0,0,1,4.336-1.93,4.536,4.536,0,0,1,2.348.605,4.011,4.011,0,0,1,1.574,1.7A5.42,5.42,0,0,1,42.227,10.375Zm-1.391.047a3.912,3.912,0,0,0-.852-2.645,2.922,2.922,0,0,0-2.336-.988,3.987,3.987,0,0,0-2.293.723,4.954,4.954,0,0,0-1.68,2.047,6.731,6.731,0,0,0-.621,2.895,3.722,3.722,0,0,0,.871,2.586,3.019,3.019,0,0,0,2.363.969,3.971,3.971,0,0,0,2.285-.7,4.816,4.816,0,0,0,1.645-2.062A6.776,6.776,0,0,0,40.836,10.422Zm8.234.773V10.148h7.344V11.2Zm0,3.328V13.477h7.344v1.047ZM62.938,14.3a3.246,3.246,0,0,1,.789-2.145,3.708,3.708,0,0,1,2.063-1.238,2.706,2.706,0,0,1-.859-.891,2.439,2.439,0,0,1-.336-1.289,2.93,2.93,0,0,1,.461-1.6,3.077,3.077,0,0,1,1.293-1.129,4.317,4.317,0,0,1,1.9-.4,2.9,2.9,0,0,1,2,.672,2.255,2.255,0,0,1,.758,1.773,2.858,2.858,0,0,1-.555,1.754,3.28,3.28,0,0,1-1.6,1.113,2.316,2.316,0,0,1,1.086.953,2.8,2.8,0,0,1,.406,1.492A3.6,3.6,0,0,1,69.8,15.3a3.794,3.794,0,0,1-1.508,1.383,4.468,4.468,0,0,1-2.094.5,3.589,3.589,0,0,1-2.4-.73A2.664,2.664,0,0,1,62.938,14.3Zm1.422-.047a1.732,1.732,0,0,0,.5,1.3,2.007,2.007,0,0,0,1.453.484,2.682,2.682,0,0,0,2.309-1.336,2.67,2.67,0,0,0,.371-1.375,1.817,1.817,0,0,0-.5-1.332,1.776,1.776,0,0,0-1.324-.512,2.852,2.852,0,0,0-2.426,1.379A2.663,2.663,0,0,0,64.359,14.258Zm1.531-5.352a1.494,1.494,0,0,0,.434,1.109,1.535,1.535,0,0,0,1.129.43,2.162,2.162,0,0,0,1.059-.293,2.337,2.337,0,0,0,.852-.8,2.067,2.067,0,0,0,.324-1.129,1.488,1.488,0,0,0-.43-1.105,1.581,1.581,0,0,0-1.164-.426,2.188,2.188,0,0,0-2.2,2.219Zm7.07,7.406a.854.854,0,0,1-.25.609.9.9,0,0,1-.277.188.836.836,0,0,1-.34.07.809.809,0,0,1-.336-.07.912.912,0,0,1-.273-.187.854.854,0,0,1-.25-.609.878.878,0,0,1,.066-.34.845.845,0,0,1,.184-.277.854.854,0,0,1,.609-.25.878.878,0,0,1,.34.066.834.834,0,0,1,.461.461A.878.878,0,0,1,72.961,16.313ZM83.117,8.922q0,.586-.055,1.223t-.172,1.285a12.945,12.945,0,0,1-.3,1.285,10.138,10.138,0,0,1-.441,1.23,8.318,8.318,0,0,1-.59,1.121,5.918,5.918,0,0,1-.746.957,3.614,3.614,0,0,1-2.7,1.172,2.709,2.709,0,0,1-1.16-.246,2.479,2.479,0,0,1-.9-.719,3.438,3.438,0,0,1-.582-1.164,5.551,5.551,0,0,1-.207-1.59,11.938,11.938,0,0,1,.141-1.793,11.1,11.1,0,0,1,.43-1.8,9.769,9.769,0,0,1,.719-1.66,6.191,6.191,0,0,1,1.016-1.375,4.129,4.129,0,0,1,1.242-.91,3.6,3.6,0,0,1,1.555-.324,2.927,2.927,0,0,1,1.133.211,2.318,2.318,0,0,1,.871.629,2.879,2.879,0,0,1,.559,1.035A4.774,4.774,0,0,1,83.117,8.922Zm-1.3.109a3.111,3.111,0,0,0-.406-1.715,1.323,1.323,0,0,0-1.18-.621,1.944,1.944,0,0,0-.867.2,2.953,2.953,0,0,0-.8.6A4.512,4.512,0,0,0,78,8.254a7.791,7.791,0,0,0-.492.953,10.054,10.054,0,0,0-.395,1.074q-.172.563-.293,1.125t-.184,1.1a8.781,8.781,0,0,0-.062,1.008,4.622,4.622,0,0,0,.129,1.168,2.446,2.446,0,0,0,.355.8,1.412,1.412,0,0,0,.535.465,1.5,1.5,0,0,0,.66.148,1.958,1.958,0,0,0,.828-.187,2.451,2.451,0,0,0,.758-.562,5.037,5.037,0,0,0,.773-1.152,10.287,10.287,0,0,0,.629-1.559,13.045,13.045,0,0,0,.426-1.785A11.043,11.043,0,0,0,81.82,9.031Zm9.922-.109q0,.586-.055,1.223t-.172,1.285a12.945,12.945,0,0,1-.3,1.285,10.138,10.138,0,0,1-.441,1.23,8.318,8.318,0,0,1-.59,1.121,5.918,5.918,0,0,1-.746.957,3.614,3.614,0,0,1-2.7,1.172,2.709,2.709,0,0,1-1.16-.246,2.479,2.479,0,0,1-.9-.719,3.438,3.438,0,0,1-.582-1.164,5.551,5.551,0,0,1-.207-1.59,11.938,11.938,0,0,1,.141-1.793,11.1,11.1,0,0,1,.43-1.8,9.769,9.769,0,0,1,.719-1.66,6.191,6.191,0,0,1,1.016-1.375,4.129,4.129,0,0,1,1.242-.91,3.6,3.6,0,0,1,1.555-.324,2.927,2.927,0,0,1,1.133.211,2.318,2.318,0,0,1,.871.629,2.879,2.879,0,0,1,.559,1.035A4.774,4.774,0,0,1,91.742,8.922Zm-1.3.109a3.111,3.111,0,0,0-.406-1.715,1.323,1.323,0,0,0-1.18-.621,1.944,1.944,0,0,0-.867.2,2.953,2.953,0,0,0-.8.6,4.512,4.512,0,0,0-.574.762,7.791,7.791,0,0,0-.492.953,10.054,10.054,0,0,0-.395,1.074q-.172.563-.293,1.125t-.184,1.1a8.781,8.781,0,0,0-.062,1.008,4.622,4.622,0,0,0,.129,1.168,2.446,2.446,0,0,0,.355.8,1.412,1.412,0,0,0,.535.465,1.5,1.5,0,0,0,.66.148,1.958,1.958,0,0,0,.828-.187,2.451,2.451,0,0,0,.758-.562,5.037,5.037,0,0,0,.773-1.152,10.287,10.287,0,0,0,.629-1.559,13.045,13.045,0,0,0,.426-1.785A11.043,11.043,0,0,0,90.445,9.031Zm9.922-.109q0,.586-.055,1.223t-.172,1.285a12.945,12.945,0,0,1-.3,1.285,10.138,10.138,0,0,1-.441,1.23,8.318,8.318,0,0,1-.59,1.121,5.918,5.918,0,0,1-.746.957,3.614,3.614,0,0,1-2.7,1.172,2.709,2.709,0,0,1-1.16-.246,2.479,2.479,0,0,1-.9-.719,3.438,3.438,0,0,1-.582-1.164,5.551,5.551,0,0,1-.207-1.59,11.938,11.938,0,0,1,.141-1.793,11.1,11.1,0,0,1,.43-1.8,9.769,9.769,0,0,1,.719-1.66,6.191,6.191,0,0,1,1.016-1.375,4.129,4.129,0,0,1,1.242-.91,3.6,3.6,0,0,1,1.555-.324,2.927,2.927,0,0,1,1.133.211,2.318,2.318,0,0,1,.871.629,2.879,2.879,0,0,1,.559,1.035A4.774,4.774,0,0,1,100.367,8.922Zm-1.3.109a3.111,3.111,0,0,0-.406-1.715,1.323,1.323,0,0,0-1.18-.621,1.944,1.944,0,0,0-.867.2,2.953,2.953,0,0,0-.8.6,4.512,4.512,0,0,0-.574.762,7.791,7.791,0,0,0-.492.953,10.054,10.054,0,0,0-.395,1.074q-.172.563-.293,1.125t-.184,1.1a8.781,8.781,0,0,0-.062,1.008,4.622,4.622,0,0,0,.129,1.168,2.446,2.446,0,0,0,.355.8,1.412,1.412,0,0,0,.535.465,1.5,1.5,0,0,0,.66.148,1.958,1.958,0,0,0,.828-.187,2.451,2.451,0,0,0,.758-.562,5.037,5.037,0,0,0,.773-1.152,10.287,10.287,0,0,0,.629-1.559,13.045,13.045,0,0,0,.426-1.785A11.043,11.043,0,0,0,99.07,9.031Zm13.008,5.7q-.07.3-.129.633l-.113.633q-.055.3-.094.57T111.68,17h-1.25q.039-.3.09-.637t.1-.613q.055-.328.1-.641h-.031a6.607,6.607,0,0,1-.605.809,4.531,4.531,0,0,1-.719.664,3.413,3.413,0,0,1-.82.449,2.529,2.529,0,0,1-.9.164,2.346,2.346,0,0,1-.9-.16,1.741,1.741,0,0,1-.645-.449,1.886,1.886,0,0,1-.387-.7,2.988,2.988,0,0,1-.129-.906,2.2,2.2,0,0,1,.031-.3q.031-.2.07-.437t.09-.465q.051-.23.082-.395L106.781,9h1.3l-.992,4.688q-.031.125-.062.289t-.059.328q-.027.164-.043.3a2.01,2.01,0,0,0-.016.215,1.427,1.427,0,0,0,.285.934,1.042,1.042,0,0,0,.855.348,1.8,1.8,0,0,0,.688-.141,3.128,3.128,0,0,0,.668-.379,4.2,4.2,0,0,0,.613-.555,5.41,5.41,0,0,0,.523-.672,4.879,4.879,0,0,0,.4-.73,4.028,4.028,0,0,0,.242-.719L112.016,9H113.3ZM121.914,11a2.547,2.547,0,0,1-.027.32q-.027.2-.07.438t-.086.465q-.043.23-.082.395L120.719,17h-1.3l.977-4.687q.031-.125.063-.289t.055-.328q.023-.164.039-.3a2.01,2.01,0,0,0,.016-.215,1.424,1.424,0,0,0-.285-.937,1.038,1.038,0,0,0-.848-.344,1.972,1.972,0,0,0-1.023.3,4.211,4.211,0,0,0-.937.773,5.274,5.274,0,0,0-.738,1.031,3.952,3.952,0,0,0-.418,1.086L115.484,17h-1.3l1.234-5.711q.062-.3.125-.637t.117-.641q.055-.309.094-.574T115.82,9h1.25q-.039.3-.094.637t-.094.613q-.047.328-.1.641h.031a6.607,6.607,0,0,1,.605-.809,4.531,4.531,0,0,1,.719-.664,3.413,3.413,0,0,1,.82-.449,2.55,2.55,0,0,1,.91-.164,2.362,2.362,0,0,1,.914.16,1.712,1.712,0,0,1,.637.449,1.829,1.829,0,0,1,.375.7A3.108,3.108,0,0,1,121.914,11Zm4.07,5.969a2.994,2.994,0,0,1-.441.1,3.111,3.111,0,0,1-.488.039,1.594,1.594,0,0,1-1.18-.395,1.439,1.439,0,0,1-.391-1.059,3.228,3.228,0,0,1,.039-.461q.039-.266.125-.656L124.813,9h1.3l-1.172,5.57q-.07.328-.1.508a2.079,2.079,0,0,0-.027.3.644.644,0,0,0,.176.488.787.787,0,0,0,.559.168,2.366,2.366,0,0,0,.355-.023,1.575,1.575,0,0,0,.285-.07Zm.914-10.82a.841.841,0,0,1-.238.6.782.782,0,0,1-.59.25.831.831,0,0,1-.6-.246.81.81,0,0,1-.254-.605.749.749,0,0,1,.254-.586.869.869,0,0,1,.6-.227.819.819,0,0,1,.586.23A.769.769,0,0,1,126.9,6.148Zm7.016,8.391q-.055.25-.105.6t-.09.707q-.039.355-.066.668t-.027.484H132.3q0-.133.02-.355t.047-.465q.027-.242.059-.465t.055-.363h-.031a7.891,7.891,0,0,1-.562.8,3.256,3.256,0,0,1-.594.578,2.385,2.385,0,0,1-.664.348,2.434,2.434,0,0,1-.773.117,2.39,2.39,0,0,1-.984-.2,2.006,2.006,0,0,1-.746-.574,2.646,2.646,0,0,1-.473-.937,4.57,4.57,0,0,1-.164-1.285,6.325,6.325,0,0,1,.121-1.2,6.161,6.161,0,0,1,.375-1.227,5.748,5.748,0,0,1,.645-1.141,4.367,4.367,0,0,1,2.164-1.59,4.775,4.775,0,0,1,1.555-.238,5.273,5.273,0,0,1,.813.059q.375.059.648.121l.813-3.828h1.266Zm-.336-4.453a5.033,5.033,0,0,0-.621-.137,4.471,4.471,0,0,0-.691-.051,3.17,3.17,0,0,0-1.2.211,3.024,3.024,0,0,0-.906.563,3.367,3.367,0,0,0-.648.8,5.045,5.045,0,0,0-.422.922,5.248,5.248,0,0,0-.227.93,5.786,5.786,0,0,0-.066.824,3.949,3.949,0,0,0,.074.8,1.779,1.779,0,0,0,.242.617,1.157,1.157,0,0,0,.434.4,1.353,1.353,0,0,0,.641.141,1.658,1.658,0,0,0,.73-.164,2.516,2.516,0,0,0,.637-.445,3.676,3.676,0,0,0,.539-.648,6.291,6.291,0,0,0,.438-.781,6.943,6.943,0,0,0,.332-.84q.137-.426.223-.816Zm9.039,4.352q-.063.3-.121.668t-.1.734q-.043.363-.07.676T142.3,17h-1.328q.008-.156.023-.375t.043-.453q.027-.234.055-.461t.059-.391h-.031q-.242.383-.492.723a3.478,3.478,0,0,1-.555.6,2.429,2.429,0,0,1-.68.406,2.612,2.612,0,0,1-1.84-.039,2.006,2.006,0,0,1-.746-.559,2.574,2.574,0,0,1-.48-.93,4.531,4.531,0,0,1-.168-1.3,6.518,6.518,0,0,1,.094-1.031,6.309,6.309,0,0,1,.316-1.18,6.007,6.007,0,0,1,.594-1.176,4.465,4.465,0,0,1,.922-1.027,4.4,4.4,0,0,1,1.3-.727,5.051,5.051,0,0,1,1.734-.273,9.22,9.22,0,0,1,1.289.094q.664.094,1.32.227Zm-.367-4.383q-.273-.062-.641-.109a5.447,5.447,0,0,0-.687-.047,3.119,3.119,0,0,0-1.2.215,3.077,3.077,0,0,0-.9.563,3.313,3.313,0,0,0-.645.8,4.965,4.965,0,0,0-.418.926,5.448,5.448,0,0,0-.223.934,5.911,5.911,0,0,0-.066.836,3.744,3.744,0,0,0,.078.8,1.748,1.748,0,0,0,.246.605,1.156,1.156,0,0,0,.43.387,1.325,1.325,0,0,0,.621.137,1.692,1.692,0,0,0,.73-.16,2.532,2.532,0,0,0,.637-.434,3.56,3.56,0,0,0,.539-.633,6.225,6.225,0,0,0,.438-.762,6.515,6.515,0,0,0,.332-.82q.137-.418.223-.809Zm9.008,4.484q-.055.25-.105.6t-.09.707q-.039.355-.066.668t-.027.484h-1.328q0-.133.02-.355t.047-.465q.027-.242.059-.465t.055-.363h-.031a7.891,7.891,0,0,1-.562.8,3.256,3.256,0,0,1-.594.578,2.385,2.385,0,0,1-.664.348,2.434,2.434,0,0,1-.773.117,2.39,2.39,0,0,1-.984-.2,2.006,2.006,0,0,1-.746-.574,2.646,2.646,0,0,1-.473-.937,4.57,4.57,0,0,1-.164-1.285,6.324,6.324,0,0,1,.121-1.2,6.162,6.162,0,0,1,.375-1.227,5.748,5.748,0,0,1,.645-1.141,4.367,4.367,0,0,1,2.164-1.59,4.775,4.775,0,0,1,1.555-.238,5.273,5.273,0,0,1,.813.059q.375.059.648.121l.813-3.828h1.266Zm-.336-4.453a5.033,5.033,0,0,0-.621-.137,4.471,4.471,0,0,0-.691-.051,3.17,3.17,0,0,0-1.2.211,3.024,3.024,0,0,0-.906.563,3.367,3.367,0,0,0-.648.8,5.045,5.045,0,0,0-.422.922,5.248,5.248,0,0,0-.227.93,5.786,5.786,0,0,0-.066.824,3.949,3.949,0,0,0,.074.8,1.779,1.779,0,0,0,.242.617,1.157,1.157,0,0,0,.434.4,1.353,1.353,0,0,0,.641.141,1.658,1.658,0,0,0,.73-.164,2.516,2.516,0,0,0,.637-.445,3.676,3.676,0,0,0,.539-.648,6.291,6.291,0,0,0,.438-.781,6.943,6.943,0,0,0,.332-.84q.137-.426.223-.816Zm9.453.789a2.381,2.381,0,0,1-.281,1.152,2.331,2.331,0,0,1-.93.891,5.584,5.584,0,0,1-1.711.574,14.678,14.678,0,0,1-2.625.211,1,1,0,0,0-.016.18v.156a2.657,2.657,0,0,0,.117.8,1.8,1.8,0,0,0,.363.656,1.714,1.714,0,0,0,.633.445,2.341,2.341,0,0,0,.918.164,3.9,3.9,0,0,0,1.184-.207,5.087,5.087,0,0,0,1.23-.59l-.242,1.266a5.078,5.078,0,0,1-1.023.438,4.4,4.4,0,0,1-1.328.188,3.609,3.609,0,0,1-1.488-.273,2.621,2.621,0,0,1-.977-.73,2.848,2.848,0,0,1-.535-1.055,4.716,4.716,0,0,1-.164-1.254,5.8,5.8,0,0,1,.156-1.355,5.519,5.519,0,0,1,.441-1.215,5.149,5.149,0,0,1,.684-1.027,4.443,4.443,0,0,1,.883-.793,4.092,4.092,0,0,1,1.039-.508,3.7,3.7,0,0,1,1.148-.18,3.319,3.319,0,0,1,1.09.164,2.277,2.277,0,0,1,.789.449,1.915,1.915,0,0,1,.48.66A1.966,1.966,0,0,1,160.375,10.875Zm-1.3.063a.9.9,0,0,0-.363-.766,1.565,1.565,0,0,0-.965-.273,2.163,2.163,0,0,0-.922.207,2.984,2.984,0,0,0-.82.57,3.56,3.56,0,0,0-.648.867,4.038,4.038,0,0,0-.4,1.09,13.5,13.5,0,0,0,1.9-.113,4.925,4.925,0,0,0,1.273-.332,1.712,1.712,0,0,0,.719-.535A1.2,1.2,0,0,0,159.07,10.938Zm7.273-.531a3.329,3.329,0,0,0-.789-.367,2.845,2.845,0,0,0-.875-.141,1.726,1.726,0,0,0-1.137.336,1.1,1.1,0,0,0-.4.891,1.116,1.116,0,0,0,.074.414,1.25,1.25,0,0,0,.219.355,1.986,1.986,0,0,0,.367.324q.223.156.512.336a4.028,4.028,0,0,1,1.262,1.043,2.01,2.01,0,0,1,.387,1.207,2.435,2.435,0,0,1-.168.887,2,2,0,0,1-.535.766,2.745,2.745,0,0,1-.949.535,4.331,4.331,0,0,1-1.418.2,4.7,4.7,0,0,1-.516-.031,5.462,5.462,0,0,1-.566-.094,4.941,4.941,0,0,1-.547-.152,2.407,2.407,0,0,1-.457-.207l.258-1.219a2.692,2.692,0,0,0,.387.219,4,4,0,0,0,.5.2,4.673,4.673,0,0,0,.563.141,3.166,3.166,0,0,0,.582.055,1.834,1.834,0,0,0,1.168-.312,1.053,1.053,0,0,0,.387-.867,1.155,1.155,0,0,0-.059-.375,1.052,1.052,0,0,0-.207-.344,2.3,2.3,0,0,0-.391-.348q-.242-.176-.609-.395a3.947,3.947,0,0,1-1.176-1.012,1.992,1.992,0,0,1-.379-1.191,2.432,2.432,0,0,1,.18-.926,2.24,2.24,0,0,1,.535-.781,2.6,2.6,0,0,1,.895-.543,3.559,3.559,0,0,1,1.258-.2,5.018,5.018,0,0,1,1.066.109,3.786,3.786,0,0,1,.855.281Z" transform="translate(685 11685.363)" fill="#12263f"/>
      <line id="Línea_575" data-name="Línea 575" x2="161.949" transform="translate(750.5 11643.863)" fill="none" stroke="#12263f" stroke-width="1"/>
    </g>
  </g>
</svg>
