<svg xmlns="http://www.w3.org/2000/svg" width="85" height="85" viewBox="0 0 85 85">
  <g id="Grupo_1114568" data-name="Grupo 1114568" transform="translate(-337.051 -10354)">
    <g id="Elipse_12758" data-name="Elipse 12758" transform="translate(337.051 10354)" fill="#8454ee" stroke="#fff" stroke-width="3">
      <circle cx="42.5" cy="42.5" r="42.5" stroke="none"/>
      <circle cx="42.5" cy="42.5" r="41" fill="none"/>
    </g>
    <g id="Grupo_1114567" data-name="Grupo 1114567" transform="translate(350.044 10366.002)">
      <path id="Trazado_907831" data-name="Trazado 907831" d="M31.99,25h-4V36.03l-4.91,4.91a3.694,3.694,0,0,0,0,5.22L25.92,49H10a2.006,2.006,0,0,1-2-2V25H4.01a2.991,2.991,0,0,1-2.38-4.82L15.62,2.16a3.007,3.007,0,0,1,4.75,0l14,18.02A2.991,2.991,0,0,1,31.99,25Z" fill="#60a917"/>
      <path id="Trazado_907832" data-name="Trazado 907832" d="M24.99,36.03l-4.91,4.91a3.694,3.694,0,0,0,0,5.22L22.92,49h3l-2.84-2.84a3.694,3.694,0,0,1,0-5.22l4.91-4.91V25h-3Z" fill="#549414"/>
      <path id="Trazado_907833" data-name="Trazado 907833" d="M34.37,20.18l-14-18.02a2.994,2.994,0,0,0-3.87-.742,2.983,2.983,0,0,1,.875.742l14,18.02A2.991,2.991,0,0,1,28.99,25h3a2.991,2.991,0,0,0,2.38-4.82Z" fill="#549414"/>
      <path id="Trazado_907834" data-name="Trazado 907834" d="M58.12,26.57V38.33a3.694,3.694,0,0,1-1.08,2.61L40.06,57.92a3.694,3.694,0,0,1-5.22,0L23.08,46.16a3.694,3.694,0,0,1,0-5.22L40.06,23.96a3.694,3.694,0,0,1,2.61-1.08H54.43a3.687,3.687,0,0,1,3.69,3.69Z" fill="#ffdf00"/>
      <path id="Trazado_907835" data-name="Trazado 907835" d="M54.43,22.88h-3a3.687,3.687,0,0,1,3.69,3.69V38.33a3.694,3.694,0,0,1-1.08,2.61L37.06,57.92a3.671,3.671,0,0,1-1.11.752,3.687,3.687,0,0,0,4.11-.752L57.04,40.94a3.694,3.694,0,0,0,1.08-2.61V26.57a3.687,3.687,0,0,0-3.69-3.69Z" fill="#fec108"/>
      <rect id="Rectángulo_406753" data-name="Rectángulo 406753" width="16.013" height="21" rx="2" transform="translate(40.976 28.694) rotate(45)" fill="#a4c400"/>
      <path id="Trazado_907836" data-name="Trazado 907836" d="M50.885,38.61l-8.495-8.5a2,2,0,0,0-2.828,0l-.086.086,8.409,8.409a2,2,0,0,1,0,2.828L35.95,53.373l.086.086a2,2,0,0,0,2.828,0L50.885,41.438A2,2,0,0,0,50.885,38.61Z" fill="#90ac00"/>
      <path id="Trazado_907837" data-name="Trazado 907837" d="M43.1,29.408a3.073,3.073,0,0,0-4.243,0L26.834,41.429a3,3,0,0,0,0,4.242l8.5,8.495a3,3,0,0,0,4.242,0L51.6,42.146a3,3,0,0,0,0-4.244Zm7.08,11.323L38.157,52.752a1,1,0,0,1-1.414,0l-8.5-8.5a1,1,0,0,1,0-1.413L40.27,30.822a1.02,1.02,0,0,1,1.413,0l8.495,8.494a1,1,0,0,1,0,1.415Z"/>
      <path id="Trazado_907838" data-name="Trazado 907838" d="M44.517,37.9A1,1,0,1,0,43.1,36.483l-.1.107a3.738,3.738,0,0,0-4.489,5.9,1.774,1.774,0,0,1,.523,1.252,1.736,1.736,0,0,1-1.743,1.746,1.775,1.775,0,0,1-1.269-3.013,1,1,0,1,0-1.422-1.41,3.747,3.747,0,0,0-.586,4.5l-.107.107a1,1,0,1,0,1.414,1.414l.106-.106a3.733,3.733,0,0,0,1.845.507h.015A3.748,3.748,0,0,0,39.92,41.08a1.751,1.751,0,1,1,2.49.015,1,1,0,1,0,1.414,1.414,3.748,3.748,0,0,0,.586-4.5Z"/>
      <path id="Trazado_907839" data-name="Trazado 907839" d="M58.293,21.293l-1.338,1.338a4.649,4.649,0,0,0-2.525-.751H42.67a4.723,4.723,0,0,0-3.317,1.373L28.99,33.617V26h3a3.99,3.99,0,0,0,3.169-6.433l-14-18.021a4.007,4.007,0,0,0-6.328,0L.839,19.57A3.991,3.991,0,0,0,4.01,26H7V47a3,3,0,0,0,3,3H25.506l8.627,8.627a4.693,4.693,0,0,0,6.634,0l16.981-16.98A4.73,4.73,0,0,0,59.12,38.33V26.57a4.649,4.649,0,0,0-.751-2.525l1.338-1.338a1,1,0,1,0-1.414-1.414ZM10,48a1,1,0,0,1-1-1V25a1,1,0,0,0-1-1H4.01a1.99,1.99,0,0,1-1.59-3.2L16.408,2.777a2.072,2.072,0,0,1,3.173,0l14,18.018a1.953,1.953,0,0,1,.214,2.093A1.973,1.973,0,0,1,31.98,24H27.99a1,1,0,0,0-1,1V35.617l-4.617,4.616a4.693,4.693,0,0,0,0,6.634L23.506,48ZM57.12,26.57V38.33a2.712,2.712,0,0,1-.787,1.9L39.353,57.21a2.757,2.757,0,0,1-3.806,0L23.787,45.45a2.694,2.694,0,0,1,0-3.806l16.981-16.98a2.7,2.7,0,0,1,1.9-.787H54.43a2.669,2.669,0,0,1,1.058.218L53.58,26.006a3,3,0,1,0,1.411,1.417L56.9,25.512a2.669,2.669,0,0,1,.22,1.058ZM53,27.993a1,1,0,1,1-.707-.292A1,1,0,0,1,53,27.993Z"/>
    </g>
  </g>
</svg>
