<svg xmlns="http://www.w3.org/2000/svg" width="295" height="125" viewBox="0 0 295 125">
  <g id="Grupo_1114725" data-name="Grupo 1114725" transform="translate(-915.051 -11234.322)">
    <path id="Trazado_908111" data-name="Trazado 908111" d="M0,0H284V117H0Z" transform="translate(926.051 11242.322)" fill="#bce0fc"/>
    <g id="Trazado_908112" data-name="Trazado 908112" transform="translate(915.051 11234.322)" fill="#fbfbf9">
      <path d="M 290.75 118.75 L 0.25 118.75 L 0.25 0.25 L 290.75 0.25 L 290.75 118.75 Z" stroke="none"/>
      <path d="M 0.5 0.5 L 0.5 118.5 L 290.5 118.5 L 290.5 0.5 L 0.5 0.5 M 0 0 L 291 0 L 291 119 L 0 119 L 0 0 Z" stroke="none" fill="#000"/>
    </g>
    <path id="Trazado_908113" data-name="Trazado 908113" d="M37.113,12.063a1.478,1.478,0,0,0-.324-1.211,3.611,3.611,0,0,0-1.527-.875,4.768,4.768,0,0,1-2.2-1.273,2.542,2.542,0,0,1-.508-2.125,3.442,3.442,0,0,1,1.031-2.133,3.73,3.73,0,0,1,2.18-.953L36,1.773h1.234L37,3.508A2.576,2.576,0,0,1,38.848,4.6a3.375,3.375,0,0,1,.414,2.387H37.73a2.315,2.315,0,0,0-.258-1.625,1.424,1.424,0,0,0-1.281-.6,1.985,1.985,0,0,0-2.1,1.8,1.47,1.47,0,0,0,.3,1.238,3.977,3.977,0,0,0,1.594.879,4.9,4.9,0,0,1,2.191,1.285,2.544,2.544,0,0,1,.48,2.09,3.351,3.351,0,0,1-1.1,2.168,4.084,4.084,0,0,1-2.352.91l-.2,1.5H33.77l.2-1.492a3.12,3.12,0,0,1-2.051-1,2.949,2.949,0,0,1-.527-2.484h1.539a1.913,1.913,0,0,0,.352,1.738,2.03,2.03,0,0,0,1.43.488,2.646,2.646,0,0,0,1.625-.488A1.915,1.915,0,0,0,37.113,12.063Zm9.656-.891h1.578l-.187,1.2H46.59L46.2,15H44.668l.391-2.625H40.176l.133-.867,5.969-7.883H47.9Zm-4.758,0h3.227l.8-5.312L46,5.844l-.2.375Zm14.945-.187a5.235,5.235,0,0,1-1.437,3.09,3.888,3.888,0,0,1-2.8,1.09,2.863,2.863,0,0,1-2.437-1.137,3.926,3.926,0,0,1-.562-3.043l.5-3.344a5.2,5.2,0,0,1,1.438-3.082,3.89,3.89,0,0,1,2.8-1.1A2.846,2.846,0,0,1,56.895,4.6a3.967,3.967,0,0,1,.563,3.039ZM55.965,7.32a2.859,2.859,0,0,0-.25-1.961,1.581,1.581,0,0,0-1.445-.687,2.123,2.123,0,0,0-1.613.719A3.556,3.556,0,0,0,51.8,7.32L51.207,11.3a2.845,2.845,0,0,0,.246,1.969,1.577,1.577,0,0,0,1.441.7,2.126,2.126,0,0,0,1.621-.723,3.585,3.585,0,0,0,.855-1.941ZM60.035,15H58.5l.234-1.578H60.27Zm10.211-4.016a5.235,5.235,0,0,1-1.437,3.09,3.888,3.888,0,0,1-2.8,1.09,2.863,2.863,0,0,1-2.437-1.137A3.926,3.926,0,0,1,63,10.984l.5-3.344a5.2,5.2,0,0,1,1.438-3.082,3.89,3.89,0,0,1,2.8-1.1A2.846,2.846,0,0,1,70.184,4.6a3.967,3.967,0,0,1,.563,3.039ZM69.254,7.32A2.859,2.859,0,0,0,69,5.359a1.581,1.581,0,0,0-1.445-.687,2.123,2.123,0,0,0-1.613.719,3.556,3.556,0,0,0-.855,1.93L64.5,11.3a2.845,2.845,0,0,0,.246,1.969,1.577,1.577,0,0,0,1.441.7,2.126,2.126,0,0,0,1.621-.723A3.585,3.585,0,0,0,68.66,11.3Zm10,3.664a5.235,5.235,0,0,1-1.437,3.09,3.888,3.888,0,0,1-2.8,1.09,2.863,2.863,0,0,1-2.437-1.137,3.926,3.926,0,0,1-.562-3.043l.5-3.344a5.2,5.2,0,0,1,1.438-3.082,3.89,3.89,0,0,1,2.8-1.1A2.846,2.846,0,0,1,79.191,4.6a3.967,3.967,0,0,1,.563,3.039ZM78.262,7.32a2.859,2.859,0,0,0-.25-1.961,1.581,1.581,0,0,0-1.445-.687,2.123,2.123,0,0,0-1.613.719A3.556,3.556,0,0,0,74.1,7.32L73.5,11.3a2.845,2.845,0,0,0,.246,1.969,1.577,1.577,0,0,0,1.441.7,2.126,2.126,0,0,0,1.621-.723,3.585,3.585,0,0,0,.855-1.941Zm10,3.664a5.235,5.235,0,0,1-1.437,3.09,3.888,3.888,0,0,1-2.8,1.09,2.863,2.863,0,0,1-2.437-1.137,3.926,3.926,0,0,1-.562-3.043l.5-3.344a5.2,5.2,0,0,1,1.438-3.082,3.89,3.89,0,0,1,2.8-1.1A2.846,2.846,0,0,1,88.2,4.6a3.967,3.967,0,0,1,.563,3.039ZM87.27,7.32a2.859,2.859,0,0,0-.25-1.961,1.581,1.581,0,0,0-1.445-.687,2.123,2.123,0,0,0-1.613.719,3.556,3.556,0,0,0-.855,1.93L82.512,11.3a2.845,2.845,0,0,0,.246,1.969,1.577,1.577,0,0,0,1.441.7,2.126,2.126,0,0,0,1.621-.723,3.585,3.585,0,0,0,.855-1.941ZM91.34,15H89.8l.234-1.578h1.539Zm10.211-4.016a5.235,5.235,0,0,1-1.437,3.09,3.888,3.888,0,0,1-2.8,1.09,2.863,2.863,0,0,1-2.437-1.137,3.926,3.926,0,0,1-.562-3.043l.5-3.344a5.2,5.2,0,0,1,1.438-3.082,3.89,3.89,0,0,1,2.8-1.1A2.846,2.846,0,0,1,101.488,4.6a3.967,3.967,0,0,1,.563,3.039Zm-.992-3.664a2.859,2.859,0,0,0-.25-1.961,1.581,1.581,0,0,0-1.445-.687,2.123,2.123,0,0,0-1.613.719,3.556,3.556,0,0,0-.855,1.93L95.8,11.3a2.845,2.845,0,0,0,.246,1.969,1.577,1.577,0,0,0,1.441.7,2.126,2.126,0,0,0,1.621-.723,3.585,3.585,0,0,0,.855-1.941Zm10,3.664a5.235,5.235,0,0,1-1.437,3.09,3.888,3.888,0,0,1-2.8,1.09,2.863,2.863,0,0,1-2.437-1.137,3.926,3.926,0,0,1-.562-3.043l.5-3.344a5.2,5.2,0,0,1,1.438-3.082,3.89,3.89,0,0,1,2.8-1.1A2.846,2.846,0,0,1,110.5,4.6a3.967,3.967,0,0,1,.563,3.039Zm-.992-3.664a2.859,2.859,0,0,0-.25-1.961,1.581,1.581,0,0,0-1.445-.687,2.123,2.123,0,0,0-1.613.719,3.556,3.556,0,0,0-.855,1.93l-.594,3.977a2.845,2.845,0,0,0,.246,1.969,1.577,1.577,0,0,0,1.441.7,2.126,2.126,0,0,0,1.621-.723,3.585,3.585,0,0,0,.855-1.941Zm10,3.664a5.235,5.235,0,0,1-1.437,3.09,3.888,3.888,0,0,1-2.8,1.09,2.863,2.863,0,0,1-2.437-1.137,3.926,3.926,0,0,1-.562-3.043l.5-3.344a5.2,5.2,0,0,1,1.438-3.082,3.89,3.89,0,0,1,2.8-1.1A2.846,2.846,0,0,1,119.5,4.6a3.967,3.967,0,0,1,.563,3.039Zm-.992-3.664a2.859,2.859,0,0,0-.25-1.961,1.581,1.581,0,0,0-1.445-.687,2.123,2.123,0,0,0-1.613.719,3.556,3.556,0,0,0-.855,1.93l-.594,3.977a2.845,2.845,0,0,0,.246,1.969,1.577,1.577,0,0,0,1.441.7,2.126,2.126,0,0,0,1.621-.723,3.585,3.585,0,0,0,.855-1.941ZM15.863,31.063a1.478,1.478,0,0,0-.324-1.211,3.611,3.611,0,0,0-1.527-.875,4.768,4.768,0,0,1-2.2-1.273,2.542,2.542,0,0,1-.508-2.125,3.442,3.442,0,0,1,1.031-2.133,3.73,3.73,0,0,1,2.18-.953l.242-1.719h1.234l-.242,1.734A2.576,2.576,0,0,1,17.6,23.6a3.375,3.375,0,0,1,.414,2.387H16.48a2.315,2.315,0,0,0-.258-1.625,1.424,1.424,0,0,0-1.281-.6,1.985,1.985,0,0,0-2.1,1.8,1.47,1.47,0,0,0,.3,1.238,3.977,3.977,0,0,0,1.594.879,4.9,4.9,0,0,1,2.191,1.285,2.544,2.544,0,0,1,.48,2.09,3.351,3.351,0,0,1-1.1,2.168,4.084,4.084,0,0,1-2.352.91l-.2,1.5H12.52l.2-1.492a3.12,3.12,0,0,1-2.051-1,2.949,2.949,0,0,1-.527-2.484h1.539a1.913,1.913,0,0,0,.352,1.738,2.03,2.03,0,0,0,1.43.488,2.646,2.646,0,0,0,1.625-.488A1.915,1.915,0,0,0,15.863,31.063Zm9.656-.891H27.1l-.187,1.2H25.34L24.949,34H23.418l.391-2.625H18.926l.133-.867,5.969-7.883h1.625Zm-4.758,0h3.227l.8-5.312-.039-.016-.2.375Zm14.945-.187a5.235,5.235,0,0,1-1.437,3.09,3.888,3.888,0,0,1-2.8,1.09,2.863,2.863,0,0,1-2.437-1.137,3.926,3.926,0,0,1-.562-3.043l.5-3.344A5.2,5.2,0,0,1,30.4,23.559a3.89,3.89,0,0,1,2.8-1.1A2.846,2.846,0,0,1,35.645,23.6a3.967,3.967,0,0,1,.563,3.039Zm-.992-3.664a2.859,2.859,0,0,0-.25-1.961,1.581,1.581,0,0,0-1.445-.687,2.123,2.123,0,0,0-1.613.719,3.556,3.556,0,0,0-.855,1.93L29.957,30.3a2.845,2.845,0,0,0,.246,1.969,1.577,1.577,0,0,0,1.441.7,2.126,2.126,0,0,0,1.621-.723,3.585,3.585,0,0,0,.855-1.941ZM38.785,34H37.246l.234-1.578H39.02ZM49,29.984a5.235,5.235,0,0,1-1.437,3.09,3.888,3.888,0,0,1-2.8,1.09,2.863,2.863,0,0,1-2.437-1.137,3.926,3.926,0,0,1-.562-3.043l.5-3.344a5.2,5.2,0,0,1,1.438-3.082,3.89,3.89,0,0,1,2.8-1.1A2.846,2.846,0,0,1,48.934,23.6a3.967,3.967,0,0,1,.563,3.039ZM48,26.32a2.859,2.859,0,0,0-.25-1.961,1.581,1.581,0,0,0-1.445-.687,2.123,2.123,0,0,0-1.613.719,3.556,3.556,0,0,0-.855,1.93L43.246,30.3a2.845,2.845,0,0,0,.246,1.969,1.577,1.577,0,0,0,1.441.7,2.126,2.126,0,0,0,1.621-.723A3.585,3.585,0,0,0,47.41,30.3Zm10,3.664a5.235,5.235,0,0,1-1.437,3.09,3.888,3.888,0,0,1-2.8,1.09,2.863,2.863,0,0,1-2.437-1.137,3.926,3.926,0,0,1-.562-3.043l.5-3.344A5.2,5.2,0,0,1,52.7,23.559a3.89,3.89,0,0,1,2.8-1.1A2.846,2.846,0,0,1,57.941,23.6a3.967,3.967,0,0,1,.563,3.039Zm-.992-3.664a2.859,2.859,0,0,0-.25-1.961,1.581,1.581,0,0,0-1.445-.687,2.123,2.123,0,0,0-1.613.719,3.556,3.556,0,0,0-.855,1.93L52.254,30.3a2.845,2.845,0,0,0,.246,1.969,1.577,1.577,0,0,0,1.441.7,2.126,2.126,0,0,0,1.621-.723,3.585,3.585,0,0,0,.855-1.941Zm10,3.664a5.235,5.235,0,0,1-1.437,3.09,3.888,3.888,0,0,1-2.8,1.09,2.863,2.863,0,0,1-2.437-1.137,3.926,3.926,0,0,1-.562-3.043l.5-3.344a5.2,5.2,0,0,1,1.438-3.082,3.89,3.89,0,0,1,2.8-1.1A2.846,2.846,0,0,1,66.949,23.6a3.967,3.967,0,0,1,.563,3.039ZM66.02,26.32a2.859,2.859,0,0,0-.25-1.961,1.581,1.581,0,0,0-1.445-.687,2.123,2.123,0,0,0-1.613.719,3.556,3.556,0,0,0-.855,1.93L61.262,30.3a2.845,2.845,0,0,0,.246,1.969,1.577,1.577,0,0,0,1.441.7,2.126,2.126,0,0,0,1.621-.723,3.585,3.585,0,0,0,.855-1.941Zm11.8,3.477H73.207l.18-1.2H78Zm11.852,1.266a1.478,1.478,0,0,0-.324-1.211,3.611,3.611,0,0,0-1.527-.875,4.768,4.768,0,0,1-2.2-1.273,2.542,2.542,0,0,1-.508-2.125,3.442,3.442,0,0,1,1.031-2.133,3.73,3.73,0,0,1,2.18-.953l.242-1.719h1.234l-.242,1.734A2.576,2.576,0,0,1,91.4,23.6a3.375,3.375,0,0,1,.414,2.387H90.285a2.315,2.315,0,0,0-.258-1.625,1.424,1.424,0,0,0-1.281-.6,1.985,1.985,0,0,0-2.1,1.8,1.47,1.47,0,0,0,.3,1.238,3.977,3.977,0,0,0,1.594.879,4.9,4.9,0,0,1,2.191,1.285,2.544,2.544,0,0,1,.48,2.09,3.351,3.351,0,0,1-1.1,2.168,4.084,4.084,0,0,1-2.352.91l-.2,1.5H86.324l.2-1.492a3.12,3.12,0,0,1-2.051-1,2.949,2.949,0,0,1-.527-2.484h1.539a1.913,1.913,0,0,0,.352,1.738,2.03,2.03,0,0,0,1.43.488,2.646,2.646,0,0,0,1.625-.488A1.915,1.915,0,0,0,89.668,31.063Zm9.656-.891H100.9l-.187,1.2h-1.57L98.754,34H97.223l.391-2.625H92.73l.133-.867,5.969-7.883h1.625Zm-4.758,0h3.227l.8-5.312-.039-.016-.2.375Zm8.344-1.227,1.6-6.32h5.7l-.2,1.367h-4.4l-.859,3.273a4.172,4.172,0,0,1,.879-.449,3.1,3.1,0,0,1,1.043-.184,2.67,2.67,0,0,1,2.324.988,3.6,3.6,0,0,1,.488,2.754,4.693,4.693,0,0,1-1.332,2.781,3.937,3.937,0,0,1-2.832,1.008,3.212,3.212,0,0,1-2.262-.793,2.412,2.412,0,0,1-.605-2.324l.016-.039h1.4a1.679,1.679,0,0,0,.309,1.457,1.711,1.711,0,0,0,1.324.5,2.122,2.122,0,0,0,1.6-.7,3.384,3.384,0,0,0,.84-1.875,2.485,2.485,0,0,0-.273-1.777,1.578,1.578,0,0,0-1.414-.652,2.616,2.616,0,0,0-1.336.281,1.946,1.946,0,0,0-.742.836ZM112.59,34h-1.539l.234-1.578h1.539ZM122.8,29.984a5.235,5.235,0,0,1-1.437,3.09,3.888,3.888,0,0,1-2.8,1.09,2.863,2.863,0,0,1-2.437-1.137,3.926,3.926,0,0,1-.562-3.043l.5-3.344a5.2,5.2,0,0,1,1.438-3.082,3.89,3.89,0,0,1,2.8-1.1,2.846,2.846,0,0,1,2.438,1.141,3.967,3.967,0,0,1,.563,3.039Zm-.992-3.664a2.859,2.859,0,0,0-.25-1.961,1.581,1.581,0,0,0-1.445-.687,2.123,2.123,0,0,0-1.613.719,3.556,3.556,0,0,0-.855,1.93l-.594,3.977a2.845,2.845,0,0,0,.246,1.969,1.577,1.577,0,0,0,1.441.7,2.126,2.126,0,0,0,1.621-.723,3.585,3.585,0,0,0,.855-1.941Zm10,3.664a5.235,5.235,0,0,1-1.437,3.09,3.888,3.888,0,0,1-2.8,1.09,2.863,2.863,0,0,1-2.437-1.137,3.926,3.926,0,0,1-.562-3.043l.5-3.344a5.2,5.2,0,0,1,1.438-3.082,3.89,3.89,0,0,1,2.8-1.1,2.846,2.846,0,0,1,2.438,1.141,3.967,3.967,0,0,1,.563,3.039Zm-.992-3.664a2.859,2.859,0,0,0-.25-1.961,1.581,1.581,0,0,0-1.445-.687,2.123,2.123,0,0,0-1.613.719,3.556,3.556,0,0,0-.855,1.93l-.594,3.977a2.845,2.845,0,0,0,.246,1.969,1.577,1.577,0,0,0,1.441.7,2.126,2.126,0,0,0,1.621-.723,3.585,3.585,0,0,0,.855-1.941Zm10,3.664a5.235,5.235,0,0,1-1.437,3.09,3.888,3.888,0,0,1-2.8,1.09,2.863,2.863,0,0,1-2.437-1.137,3.926,3.926,0,0,1-.562-3.043l.5-3.344a5.2,5.2,0,0,1,1.438-3.082,3.89,3.89,0,0,1,2.8-1.1,2.846,2.846,0,0,1,2.438,1.141,3.967,3.967,0,0,1,.563,3.039Zm-.992-3.664a2.859,2.859,0,0,0-.25-1.961,1.581,1.581,0,0,0-1.445-.687,2.123,2.123,0,0,0-1.613.719,3.556,3.556,0,0,0-.855,1.93l-.594,3.977a2.845,2.845,0,0,0,.246,1.969,1.577,1.577,0,0,0,1.441.7,2.126,2.126,0,0,0,1.621-.723,3.585,3.585,0,0,0,.855-1.941Z" transform="translate(1020.051 11254.322)" fill="#12263f"/>
    <path id="Trazado_908114" data-name="Trazado 908114" d="M18.789,10.438,18.109,15H16.57l1.7-11.375h4.352a3.5,3.5,0,0,1,2.652.945,2.794,2.794,0,0,1,.684,2.461,3.815,3.815,0,0,1-1.379,2.508,4.633,4.633,0,0,1-2.973.9Zm.18-1.2h2.82a2.518,2.518,0,0,0,2.625-2.187,2.042,2.042,0,0,0-.332-1.594,1.94,1.94,0,0,0-1.637-.617H19.633Zm14.773.492H29.07l-.609,4.07H33.93L33.75,15H26.742l1.7-11.375h6.922l-.18,1.211H29.8l-.547,3.68h4.68Zm11.219.6a6.458,6.458,0,0,1-.523,1.738,5.638,5.638,0,0,1-.937,1.418l1.43,1.625-1.2,1.008-1.469-1.641a4.962,4.962,0,0,1-1.27.516,5.667,5.667,0,0,1-1.4.172,3.575,3.575,0,0,1-3-1.387,4.337,4.337,0,0,1-.762-3.449l.3-2.023a5.782,5.782,0,0,1,1.758-3.5,4.886,4.886,0,0,1,3.453-1.34,3.767,3.767,0,0,1,3.1,1.395,4.257,4.257,0,0,1,.82,3.449ZM43.727,8.289a3.493,3.493,0,0,0-.453-2.59,2.425,2.425,0,0,0-2.125-.973,3.07,3.07,0,0,0-2.27,1.012,4.5,4.5,0,0,0-1.207,2.551l-.3,2.039a3.608,3.608,0,0,0,.4,2.605,2.244,2.244,0,0,0,2.008.973A3.283,3.283,0,0,0,42.164,12.9a4.477,4.477,0,0,0,1.258-2.57Zm14.3.281H51.516l.2-1.281h6.516Zm-.484,3.25H51.031l.2-1.281h6.516Z" transform="translate(949.051 11263.322)" fill="#12263f"/>
    <path id="Trazado_908115" data-name="Trazado 908115" d="M12.578,10.438,11.9,15H10.359l1.7-11.375h4.352a3.5,3.5,0,0,1,2.652.945,2.794,2.794,0,0,1,.684,2.461,3.815,3.815,0,0,1-1.379,2.508,4.633,4.633,0,0,1-2.973.9Zm.18-1.2h2.82A2.518,2.518,0,0,0,18.2,7.047a2.042,2.042,0,0,0-.332-1.594,1.94,1.94,0,0,0-1.637-.617H13.422Zm14.773.492H22.859L22.25,13.8h5.469l-.18,1.2H20.531l1.7-11.375h6.922l-.18,1.211H23.586l-.547,3.68h4.68Zm11.219.6a6.458,6.458,0,0,1-.523,1.738,5.638,5.638,0,0,1-.937,1.418l1.43,1.625-1.2,1.008-1.469-1.641a4.962,4.962,0,0,1-1.27.516,5.667,5.667,0,0,1-1.4.172,3.575,3.575,0,0,1-3-1.387,4.337,4.337,0,0,1-.762-3.449l.3-2.023A5.782,5.782,0,0,1,31.68,4.8a4.886,4.886,0,0,1,3.453-1.34,3.767,3.767,0,0,1,3.1,1.395,4.257,4.257,0,0,1,.82,3.449ZM37.516,8.289a3.493,3.493,0,0,0-.453-2.59,2.425,2.425,0,0,0-2.125-.973,3.07,3.07,0,0,0-2.27,1.012,4.5,4.5,0,0,0-1.207,2.551l-.3,2.039a3.608,3.608,0,0,0,.4,2.605,2.244,2.244,0,0,0,2.008.973A3.283,3.283,0,0,0,35.953,12.9a4.477,4.477,0,0,0,1.258-2.57Zm14.3.281H45.3l.2-1.281h6.516Zm-.484,3.25H44.82l.2-1.281h6.516ZM65.3,6.531a3.1,3.1,0,0,1-.742,1.6,3.549,3.549,0,0,1-1.477.992,2.882,2.882,0,0,1,1.379,1.086,2.325,2.325,0,0,1,.348,1.664,3.567,3.567,0,0,1-1.379,2.461,4.489,4.489,0,0,1-2.73.828,3.7,3.7,0,0,1-2.578-.867,2.526,2.526,0,0,1-.719-2.422,3.068,3.068,0,0,1,.855-1.734,4.105,4.105,0,0,1,1.785-1.055,2.585,2.585,0,0,1-1.23-1.016,2.193,2.193,0,0,1-.285-1.539A3.273,3.273,0,0,1,59.82,4.223a4.388,4.388,0,0,1,2.625-.762,3.1,3.1,0,0,1,2.234.8A2.472,2.472,0,0,1,65.3,6.531Zm-2.016,5.313a1.836,1.836,0,0,0-.371-1.547,1.774,1.774,0,0,0-1.41-.586,2.591,2.591,0,0,0-1.676.605,2.338,2.338,0,0,0-.879,1.527A1.73,1.73,0,0,0,59.34,13.4a2.045,2.045,0,0,0,1.543.563,2.367,2.367,0,0,0,1.559-.586A2.417,2.417,0,0,0,63.289,11.844Zm.469-5.289a1.665,1.665,0,0,0-.3-1.367,1.471,1.471,0,0,0-1.2-.516,2.214,2.214,0,0,0-1.437.516,2.088,2.088,0,0,0-.758,1.367,1.672,1.672,0,0,0,.332,1.422A1.659,1.659,0,0,0,61.7,8.5a1.925,1.925,0,0,0,1.324-.543A2.307,2.307,0,0,0,63.758,6.555ZM67.945,15H66.406l.234-1.578H68.18Zm10.211-4.016a5.235,5.235,0,0,1-1.437,3.09,3.888,3.888,0,0,1-2.8,1.09,2.863,2.863,0,0,1-2.437-1.137,3.926,3.926,0,0,1-.562-3.043l.5-3.344a5.2,5.2,0,0,1,1.438-3.082,3.89,3.89,0,0,1,2.8-1.1A2.846,2.846,0,0,1,78.094,4.6a3.967,3.967,0,0,1,.563,3.039ZM77.164,7.32a2.859,2.859,0,0,0-.25-1.961,1.581,1.581,0,0,0-1.445-.687,2.123,2.123,0,0,0-1.613.719A3.556,3.556,0,0,0,73,7.32L72.406,11.3a2.845,2.845,0,0,0,.246,1.969,1.577,1.577,0,0,0,1.441.7,2.126,2.126,0,0,0,1.621-.723A3.585,3.585,0,0,0,76.57,11.3Zm10,3.664a5.235,5.235,0,0,1-1.437,3.09,3.888,3.888,0,0,1-2.8,1.09,2.863,2.863,0,0,1-2.437-1.137,3.926,3.926,0,0,1-.562-3.043l.5-3.344a5.2,5.2,0,0,1,1.438-3.082,3.89,3.89,0,0,1,2.8-1.1A2.846,2.846,0,0,1,87.1,4.6a3.967,3.967,0,0,1,.563,3.039ZM86.172,7.32a2.859,2.859,0,0,0-.25-1.961,1.581,1.581,0,0,0-1.445-.687,2.123,2.123,0,0,0-1.613.719,3.556,3.556,0,0,0-.855,1.93L81.414,11.3a2.845,2.845,0,0,0,.246,1.969,1.577,1.577,0,0,0,1.441.7,2.126,2.126,0,0,0,1.621-.723,3.585,3.585,0,0,0,.855-1.941Zm10,3.664a5.235,5.235,0,0,1-1.437,3.09,3.888,3.888,0,0,1-2.8,1.09,2.863,2.863,0,0,1-2.437-1.137,3.926,3.926,0,0,1-.562-3.043l.5-3.344a5.2,5.2,0,0,1,1.438-3.082,3.89,3.89,0,0,1,2.8-1.1A2.846,2.846,0,0,1,96.109,4.6a3.967,3.967,0,0,1,.563,3.039ZM95.18,7.32a2.859,2.859,0,0,0-.25-1.961,1.581,1.581,0,0,0-1.445-.687,2.123,2.123,0,0,0-1.613.719,3.556,3.556,0,0,0-.855,1.93L90.422,11.3a2.845,2.845,0,0,0,.246,1.969,1.577,1.577,0,0,0,1.441.7,2.126,2.126,0,0,0,1.621-.723,3.585,3.585,0,0,0,.855-1.941ZM107.016,15l.086-1.211a3.446,3.446,0,0,1-1.176,1.023,3.209,3.209,0,0,1-1.5.352,2.33,2.33,0,0,1-2-.895,3.643,3.643,0,0,1-.383-2.738l.742-4.984h1.539l-.75,5a2.963,2.963,0,0,0,.109,1.883,1.311,1.311,0,0,0,1.18.484,2.606,2.606,0,0,0,2.367-1.328l.9-6.039h1.539L108.4,15Zm6.2-7.242a3.653,3.653,0,0,1,1.207-1.012,3.241,3.241,0,0,1,1.5-.355,2.384,2.384,0,0,1,1.973.809,3.111,3.111,0,0,1,.4,2.465L117.5,15h-1.539l.8-5.3a2.11,2.11,0,0,0-.2-1.605,1.585,1.585,0,0,0-1.289-.449,2.518,2.518,0,0,0-1.234.3,2.729,2.729,0,0,0-.922.832L112.18,15h-1.539l1.266-8.453h1.375ZM121.4,15h-1.539l1.266-8.453h1.539Zm1.594-10.617h-1.539l.234-1.57h1.539Zm1.031,6.547A6.411,6.411,0,0,1,125.383,7.6a3.334,3.334,0,0,1,2.633-1.211,2.617,2.617,0,0,1,1.262.289,2.29,2.29,0,0,1,.871.836l.7-4.7h1.539L130.563,15h-1.18l-.07-1.07a3.432,3.432,0,0,1-1.164.922,3.355,3.355,0,0,1-1.461.313,2.473,2.473,0,0,1-2.227-1.133A4.13,4.13,0,0,1,124,11.094Zm1.516.164a3.283,3.283,0,0,0,.207,2.07,1.575,1.575,0,0,0,1.52.75,2.229,2.229,0,0,0,1.188-.32,3.028,3.028,0,0,0,.914-.891l.586-3.914a1.906,1.906,0,0,0-.645-.84,1.811,1.811,0,0,0-1.09-.309,2.105,2.105,0,0,0-1.754.926,5.128,5.128,0,0,0-.9,2.363ZM138.055,15q-.016-.438-.016-.707a4.988,4.988,0,0,1,.031-.551,4.564,4.564,0,0,1-1.277,1.012,3.193,3.193,0,0,1-1.543.41,2.41,2.41,0,0,1-1.887-.684,2.155,2.155,0,0,1-.434-1.855,2.584,2.584,0,0,1,1.25-1.914,5.194,5.194,0,0,1,2.773-.664h1.672l.125-.836a1.369,1.369,0,0,0-.27-1.191,1.593,1.593,0,0,0-1.223-.418,2.134,2.134,0,0,0-1.25.375,1.3,1.3,0,0,0-.609.9l-1.469.016-.008-.047a2.422,2.422,0,0,1,1.117-1.707,4.1,4.1,0,0,1,2.484-.746,3.053,3.053,0,0,1,2.172.738,2.258,2.258,0,0,1,.594,2.1l-.609,4.07a6.686,6.686,0,0,0-.09.887,4.51,4.51,0,0,0,.051.816Zm-2.383-1.125a3.032,3.032,0,0,0,1.547-.437,2.613,2.613,0,0,0,1.039-.984l.211-1.367h-1.727a2.54,2.54,0,0,0-1.547.477,1.651,1.651,0,0,0-.734,1.094,1.011,1.011,0,0,0,.207.9A1.341,1.341,0,0,0,135.672,13.875Zm6.242-2.945A6.411,6.411,0,0,1,143.273,7.6a3.334,3.334,0,0,1,2.633-1.211,2.617,2.617,0,0,1,1.262.289,2.29,2.29,0,0,1,.871.836l.7-4.7h1.539L148.453,15h-1.18l-.07-1.07a3.432,3.432,0,0,1-1.164.922,3.355,3.355,0,0,1-1.461.313,2.473,2.473,0,0,1-2.227-1.133,4.13,4.13,0,0,1-.461-2.937Zm1.516.164a3.283,3.283,0,0,0,.207,2.07,1.575,1.575,0,0,0,1.52.75,2.229,2.229,0,0,0,1.188-.32,3.028,3.028,0,0,0,.914-.891l.586-3.914a1.906,1.906,0,0,0-.645-.84,1.811,1.811,0,0,0-1.09-.309,2.105,2.105,0,0,0-1.754.926,5.128,5.128,0,0,0-.9,2.363Zm10.8,4.07a3.069,3.069,0,0,1-2.629-1.18,3.934,3.934,0,0,1-.6-3.047l.055-.344a5.061,5.061,0,0,1,1.488-3.047A3.89,3.89,0,0,1,155.3,6.391a2.624,2.624,0,0,1,2.352,1.07,3.845,3.845,0,0,1,.461,2.789l-.117.813h-5.469a3.355,3.355,0,0,0,.266,2.121,1.7,1.7,0,0,0,1.617.777,4.177,4.177,0,0,0,1.395-.227,3.661,3.661,0,0,0,1.113-.609l.453,1a4.447,4.447,0,0,1-1.3.738A5.139,5.139,0,0,1,154.227,15.164Zm.891-7.562a1.948,1.948,0,0,0-1.4.625,3.561,3.561,0,0,0-.9,1.578l.016.047h3.8l.016-.125a2.257,2.257,0,0,0-.219-1.535A1.41,1.41,0,0,0,155.117,7.6Zm9.281,5.125a.908.908,0,0,0-.266-.836,3.27,3.27,0,0,0-1.391-.555,5.344,5.344,0,0,1-2.176-.9,1.562,1.562,0,0,1-.582-1.547A2.6,2.6,0,0,1,161.105,7.1a3.935,3.935,0,0,1,2.387-.711,3.006,3.006,0,0,1,2.188.789,1.943,1.943,0,0,1,.633,1.813l-.016.047H164.82a1.162,1.162,0,0,0-.336-1,1.515,1.515,0,0,0-1.156-.437,1.974,1.974,0,0,0-1.254.371,1.334,1.334,0,0,0-.543.871.821.821,0,0,0,.234.781,3.446,3.446,0,0,0,1.375.492,5.217,5.217,0,0,1,2.227.93,1.632,1.632,0,0,1,.586,1.57,2.62,2.62,0,0,1-1.164,1.855,4.265,4.265,0,0,1-2.484.691,3.283,3.283,0,0,1-2.395-.828,2.033,2.033,0,0,1-.652-1.906l.016-.047h1.477a1.245,1.245,0,0,0,.445,1.2,2.1,2.1,0,0,0,1.281.379,2.3,2.3,0,0,0,1.313-.352A1.3,1.3,0,0,0,164.4,12.727Z" transform="translate(949.051 11314.322)" fill="#12263f"/>
    <path id="Trazado_908116" data-name="Trazado 908116" d="M0,0H161.949" transform="translate(1014.551 11272.822)" fill="none" stroke="#12263f" stroke-width="1"/>
  </g>
</svg>
