<svg id="Grupo_1113330" data-name="Grupo 1113330" xmlns="http://www.w3.org/2000/svg" width="279.487" height="82" viewBox="0 0 279.487 82">
  <g id="Grupo_1113326" data-name="Grupo 1113326">
    <rect id="Rect치ngulo_406002" data-name="Rect치ngulo 406002" width="268.487" height="74" transform="translate(11 8)" fill="#bce0fc"/>
    <g id="Rect치ngulo_406003" data-name="Rect치ngulo 406003" fill="#fbfbf9" stroke="#000" stroke-width="0.5">
      <rect width="275.487" height="76" stroke="none"/>
      <rect x="0.25" y="0.25" width="274.987" height="75.5" fill="none"/>
    </g>
  </g>
  <path id="Trazado_908371" data-name="Trazado 908371" d="M12.063,9.727H7.391L6.781,13.8H12.25L12.07,15H5.063l1.7-11.375h6.922l-.18,1.211H8.117L7.57,8.516h4.68Zm5.727,2.289.117.938.047.008.4-.945,4.2-8.391h1.664L18.281,15h-1.32L14.438,3.625h1.672Zm11.953.055H25.453L24,15H22.43l5.8-11.375h1.32L31.867,15H30.3Zm-3.648-1.289h3.4L28.57,5.9l-.047-.008ZM44.852,8.57H38.336l.2-1.281h6.516Zm-.484,3.25H37.852l.2-1.281h6.516Zm16.227-8.2L59.461,11.18a4.32,4.32,0,0,1-1.648,2.965,5.35,5.35,0,0,1-3.3,1.02A3.819,3.819,0,0,1,51.664,14.1a3.227,3.227,0,0,1-.773-2.918l1.133-7.555h1.539L52.43,11.18a2.446,2.446,0,0,0,.43,2.07,2.319,2.319,0,0,0,1.828.711,3.276,3.276,0,0,0,2.121-.742,3.108,3.108,0,0,0,1.113-2.039l1.133-7.555Zm10.125,6.7a5.733,5.733,0,0,1-1.812,3.5,5.132,5.132,0,0,1-3.562,1.332,3.575,3.575,0,0,1-3-1.387,4.337,4.337,0,0,1-.762-3.449l.3-2.023a5.782,5.782,0,0,1,1.758-3.5A4.886,4.886,0,0,1,67.1,3.461a3.767,3.767,0,0,1,3.1,1.395,4.257,4.257,0,0,1,.82,3.449ZM69.484,8.289a3.493,3.493,0,0,0-.453-2.59,2.425,2.425,0,0,0-2.125-.973,3.07,3.07,0,0,0-2.27,1.012A4.5,4.5,0,0,0,63.43,8.289l-.3,2.039a3.608,3.608,0,0,0,.4,2.605,2.244,2.244,0,0,0,2.008.973A3.283,3.283,0,0,0,67.922,12.9a4.477,4.477,0,0,0,1.258-2.57ZM73.938,15H72.391l1.7-11.375h1.547Zm2.82,0,1.7-11.375h3.578a4.154,4.154,0,0,1,3.336,1.387,4.208,4.208,0,0,1,.867,3.527l-.234,1.555a5.675,5.675,0,0,1-1.879,3.582A5.6,5.6,0,0,1,80.336,15ZM79.82,4.836,78.477,13.8h2.039a3.649,3.649,0,0,0,2.613-1.051,4.488,4.488,0,0,0,1.34-2.652l.234-1.57a3.476,3.476,0,0,0-.5-2.676,2.725,2.725,0,0,0-2.344-1.012ZM89.3,15H87.75l1.7-11.375H91Zm12.016-4.2H96.7l.18-1.2h4.609Zm6.359-.414a11.684,11.684,0,0,1,1.965-5.316,8.782,8.782,0,0,1,3.027-2.848l.047.008.172.906a8.17,8.17,0,0,0-2.242,2.68,12.607,12.607,0,0,0-1.43,4.555l-.016.1a11.079,11.079,0,0,0,.129,4.6,6.02,6.02,0,0,0,1.5,2.7l-.414.844h-.047a5.9,5.9,0,0,1-2.207-2.9,9.705,9.705,0,0,1-.5-5.262Zm13.57.977.016.047a4.027,4.027,0,0,1-1.523,2.711,4.979,4.979,0,0,1-3.219,1.047,3.446,3.446,0,0,1-2.9-1.379,4.374,4.374,0,0,1-.73-3.457l.3-2.023a5.839,5.839,0,0,1,1.727-3.512,4.715,4.715,0,0,1,3.359-1.332A3.859,3.859,0,0,1,121.152,4.5a2.951,2.951,0,0,1,.738,2.715l-.023.047h-1.477a2.277,2.277,0,0,0-.414-1.914,2.4,2.4,0,0,0-1.891-.672A2.872,2.872,0,0,0,115.9,5.723a4.789,4.789,0,0,0-1.176,2.566l-.3,2.039a3.844,3.844,0,0,0,.359,2.625,2.075,2.075,0,0,0,1.914,1.008,3.087,3.087,0,0,0,2.063-.7,3,3,0,0,0,1.016-1.9Zm3.7-.922L124.258,15h-1.539l1.7-11.375h4.352a3.5,3.5,0,0,1,2.652.945,2.794,2.794,0,0,1,.684,2.461,3.815,3.815,0,0,1-1.379,2.508,4.633,4.633,0,0,1-2.973.9Zm.18-1.2h2.82a2.518,2.518,0,0,0,2.625-2.187,2.042,2.042,0,0,0-.332-1.594,1.94,1.94,0,0,0-1.637-.617h-2.812Zm9.992,1.2L134.43,15h-1.539l1.7-11.375h4.352a3.5,3.5,0,0,1,2.652.945,2.794,2.794,0,0,1,.684,2.461A3.815,3.815,0,0,1,140.9,9.539a4.633,4.633,0,0,1-2.973.9Zm.18-1.2h2.82a2.518,2.518,0,0,0,2.625-2.187,2.042,2.042,0,0,0-.332-1.594,1.94,1.94,0,0,0-1.637-.617h-2.812Zm16.43,2.125.016.047a4.027,4.027,0,0,1-1.523,2.711,4.979,4.979,0,0,1-3.219,1.047,3.446,3.446,0,0,1-2.9-1.379,4.374,4.374,0,0,1-.73-3.457l.3-2.023a5.839,5.839,0,0,1,1.727-3.512,4.715,4.715,0,0,1,3.359-1.332A3.859,3.859,0,0,1,151.629,4.5a2.951,2.951,0,0,1,.738,2.715l-.023.047h-1.477a2.277,2.277,0,0,0-.414-1.914,2.4,2.4,0,0,0-1.891-.672,2.872,2.872,0,0,0-2.184,1.051A4.789,4.789,0,0,0,145.2,8.289l-.3,2.039a3.844,3.844,0,0,0,.359,2.625,2.075,2.075,0,0,0,1.914,1.008,3.087,3.087,0,0,0,2.063-.7,3,3,0,0,0,1.016-1.9Zm7.469-1.8-1.766-.523.57-1.2,1.734.7.219-1.984H161.2l-.383,2.031,1.93-.7.188,1.219-1.969.531.961,1.563-1.141.75-.844-1.7-1.3,1.641-.93-.719Zm17.523,1.8.016.047a4.027,4.027,0,0,1-1.523,2.711,4.979,4.979,0,0,1-3.219,1.047,3.446,3.446,0,0,1-2.9-1.379,4.374,4.374,0,0,1-.73-3.457l.3-2.023a5.839,5.839,0,0,1,1.727-3.512,4.715,4.715,0,0,1,3.359-1.332A3.859,3.859,0,0,1,176.621,4.5a2.951,2.951,0,0,1,.738,2.715l-.023.047h-1.477a2.277,2.277,0,0,0-.414-1.914,2.4,2.4,0,0,0-1.891-.672,2.872,2.872,0,0,0-2.184,1.051A4.789,4.789,0,0,0,170.2,8.289l-.3,2.039a3.844,3.844,0,0,0,.359,2.625,2.075,2.075,0,0,0,1.914,1.008,3.087,3.087,0,0,0,2.063-.7,3,3,0,0,0,1.016-1.9ZM179.891,15h-1.547l1.7-11.375h1.547Zm11.422,0h-1.539l-4.18-8.7-.047.008L184.25,15h-1.539l1.7-11.375h1.539l4.18,8.688.047-.008,1.3-8.68h1.539Zm6.25-4.547a11.73,11.73,0,0,1-1.973,5.32,8.822,8.822,0,0,1-3.02,2.844l-.047-.008-.18-.836a8.091,8.091,0,0,0,2.234-2.7,12.974,12.974,0,0,0,1.445-4.605l.016-.1a10.855,10.855,0,0,0-.164-4.605,6.226,6.226,0,0,0-1.469-2.7l.414-.844h.047a5.924,5.924,0,0,1,2.2,2.906,9.745,9.745,0,0,1,.512,5.258Z" transform="translate(38 29)" fill="#12263f"/>
</svg>
