<svg id="Grupo_1113330" data-name="Grupo 1113330" xmlns="http://www.w3.org/2000/svg" width="279.487" height="82" viewBox="0 0 279.487 82">
  <g id="Grupo_1113326" data-name="Grupo 1113326">
    <rect id="Rect치ngulo_406002" data-name="Rect치ngulo 406002" width="268.487" height="74" transform="translate(11 8)" fill="#bce0fc"/>
    <g id="Rect치ngulo_406003" data-name="Rect치ngulo 406003" fill="#fbfbf9" stroke="#000" stroke-width="0.5">
      <rect width="275.487" height="76" stroke="none"/>
      <rect x="0.25" y="0.25" width="274.987" height="75.5" fill="none"/>
    </g>
  </g>
  <g id="Grupo_1113327" data-name="Grupo 1113327" transform="translate(38 29)">
    <path id="Trazado_908222" data-name="Trazado 908222" d="M11.535,6.984H7.215L6.4,10.8h4l-.258,1.188h-4l-.82,3.82H9.918L9.684,17H3.746L6.113,5.8h5.68ZM15.809,17H14.5L12.816,5.8h1.359L15.41,14.57a4.182,4.182,0,0,1,.055.5,2.856,2.856,0,0,1-.008.48h.031q.039-.1.09-.227t.117-.254l.133-.258q.066-.129.121-.238L20.957,5.8h1.508ZM29,17,28.5,13.867h-4.75L21.934,17H20.387L27.059,5.8h1.375L30.387,17ZM27.566,7.914q-.008-.078-.012-.18t0-.2V7.156H27.52q-.023.07-.062.168t-.086.2q-.047.105-.1.207l-.09.18L24.418,12.68h3.867ZM37.707,11.2V10.148h7.344V11.2Zm0,3.328V13.477h7.344v1.047Zm23.1-1.922a11.212,11.212,0,0,1-.59,1.949,4.645,4.645,0,0,1-.914,1.441,3.668,3.668,0,0,1-1.363.895,5.394,5.394,0,0,1-1.93.309,4.117,4.117,0,0,1-1.547-.273,3.248,3.248,0,0,1-1.141-.75,3.216,3.216,0,0,1-.7-1.125,3.988,3.988,0,0,1-.242-1.406,7.553,7.553,0,0,1,.043-.758q.043-.422.113-.8L53.895,5.8h1.352l-1.352,6.211q-.031.18-.066.391t-.062.422q-.027.211-.043.4t-.016.328a2.872,2.872,0,0,0,.188,1.086,2.089,2.089,0,0,0,.52.766,2.172,2.172,0,0,0,.781.457,3.01,3.01,0,0,0,.973.152,3.508,3.508,0,0,0,1.188-.187,2.465,2.465,0,0,0,.922-.586,3.487,3.487,0,0,0,.684-1.016,7.194,7.194,0,0,0,.473-1.477L60.926,5.8H62.27Zm12.9-2.258a7.875,7.875,0,0,1-.133,1.441,8.11,8.11,0,0,1-.383,1.379,7.4,7.4,0,0,1-.613,1.258,6.147,6.147,0,0,1-.824,1.07,5.991,5.991,0,0,1-.812.707,5.151,5.151,0,0,1-2.008.879,6.091,6.091,0,0,1-1.227.117,4.755,4.755,0,0,1-1.9-.363,4.179,4.179,0,0,1-1.434-1,4.345,4.345,0,0,1-.9-1.512,5.605,5.605,0,0,1-.312-1.9,7.637,7.637,0,0,1,.527-2.914A6.72,6.72,0,0,1,65.16,7.273a5.871,5.871,0,0,1,1.77-1.215,5.52,5.52,0,0,1,2.277-.449,4.743,4.743,0,0,1,1.863.352,4.057,4.057,0,0,1,1.418.984,4.4,4.4,0,0,1,.9,1.5A5.5,5.5,0,0,1,73.707,10.344Zm-1.391.047a4.63,4.63,0,0,0-.227-1.5,3.227,3.227,0,0,0-.648-1.133,2.821,2.821,0,0,0-1.016-.719,3.391,3.391,0,0,0-1.328-.25,3.813,3.813,0,0,0-1.656.375,4.516,4.516,0,0,0-1.4,1.039,4.781,4.781,0,0,0-.621.859,6.654,6.654,0,0,0-.477,1.031,6.888,6.888,0,0,0-.41,2.344,4.6,4.6,0,0,0,.215,1.438A3.235,3.235,0,0,0,65.375,15a2.835,2.835,0,0,0,1.012.738,3.394,3.394,0,0,0,1.383.266,4.091,4.091,0,0,0,1.66-.348,3.986,3.986,0,0,0,1.395-1.027,4.843,4.843,0,0,0,.652-.941,7.047,7.047,0,0,0,.465-1.078,7.226,7.226,0,0,0,.281-1.129A6.746,6.746,0,0,0,72.316,10.391ZM76.074,17H74.73L77.1,5.8h1.359Zm13.281-6.672a8.2,8.2,0,0,1-.168,1.648,6.961,6.961,0,0,1-.516,1.563,5.965,5.965,0,0,1-.895,1.375,5.531,5.531,0,0,1-1.3,1.1,6.521,6.521,0,0,1-1.738.727,8.532,8.532,0,0,1-2.2.262H78.988L81.371,5.8h3.117a6.1,6.1,0,0,1,1.992.309A4.294,4.294,0,0,1,88.016,7,4.017,4.017,0,0,1,89,8.426,4.886,4.886,0,0,1,89.355,10.328Zm-1.375.094a3.306,3.306,0,0,0-.961-2.539,4.036,4.036,0,0,0-2.852-.9H82.457l-1.891,8.828h2.086a5.9,5.9,0,0,0,2.316-.422,4.679,4.679,0,0,0,1.664-1.156,4.9,4.9,0,0,0,1.008-1.715A6.361,6.361,0,0,0,87.98,10.422ZM91.723,17H90.379L92.746,5.8h1.359Zm12.031-3.953H99.48l.227-1.008h4.273ZM115.605,5.8a18.767,18.767,0,0,0-1.746,1.969,13.3,13.3,0,0,0-1.324,2.1,11.048,11.048,0,0,0-.844,2.254,9.991,9.991,0,0,0-.215,3.7,9.556,9.556,0,0,0,.246,1.25,10.148,10.148,0,0,0,.4,1.191,7.436,7.436,0,0,0,.539,1.078h-1.1a7.428,7.428,0,0,1-.574-1.1,9.192,9.192,0,0,1-.41-1.191,9.557,9.557,0,0,1-.246-1.227,9.129,9.129,0,0,1-.082-1.2,10.858,10.858,0,0,1,.289-2.551,11.1,11.1,0,0,1,.82-2.285,12.112,12.112,0,0,1,1.293-2.074,18.133,18.133,0,0,1,1.707-1.91Zm8.867,1.859q-.227-.148-.52-.3a4.751,4.751,0,0,0-.645-.281,5.088,5.088,0,0,0-.77-.2,4.868,4.868,0,0,0-.895-.078,5.2,5.2,0,0,0-2.113.414,4.639,4.639,0,0,0-1.6,1.141,5.119,5.119,0,0,0-1.012,1.707,6.178,6.178,0,0,0-.355,2.121,4.834,4.834,0,0,0,.258,1.645,3.3,3.3,0,0,0,.734,1.2,3.1,3.1,0,0,0,1.141.738,4.139,4.139,0,0,0,1.469.25,6.851,6.851,0,0,0,.938-.059,5.428,5.428,0,0,0,.781-.164,5.041,5.041,0,0,0,.676-.25q.316-.145.613-.309l-.3,1.375a6.456,6.456,0,0,1-1.355.441,7.887,7.887,0,0,1-1.621.152,5.123,5.123,0,0,1-1.934-.352,4.177,4.177,0,0,1-1.484-1,4.474,4.474,0,0,1-.949-1.551,5.762,5.762,0,0,1-.336-2.016,7.548,7.548,0,0,1,.465-2.7,6.093,6.093,0,0,1,1.32-2.109A5.988,5.988,0,0,1,119.031,6.1a6.944,6.944,0,0,1,2.66-.492,6.6,6.6,0,0,1,1.77.215,6.945,6.945,0,0,1,1.3.488Zm9.063,1.086a4.3,4.3,0,0,1-.281,1.559,3.463,3.463,0,0,1-.855,1.277,4.07,4.07,0,0,1-1.457.863,6.161,6.161,0,0,1-2.078.316h-1.7L126.27,17h-1.344l2.367-11.2h2.9a4.264,4.264,0,0,1,1.535.246,2.889,2.889,0,0,1,1.039.656,2.493,2.493,0,0,1,.586.941A3.349,3.349,0,0,1,133.535,8.742Zm-1.383.117a1.986,1.986,0,0,0-.145-.77,1.589,1.589,0,0,0-.426-.594,1.937,1.937,0,0,0-.7-.379,3.189,3.189,0,0,0-.965-.133h-1.523l-.977,4.594h1.57a4.37,4.37,0,0,0,1.426-.207,2.71,2.71,0,0,0,.984-.57,2.222,2.222,0,0,0,.57-.859A3.1,3.1,0,0,0,132.152,8.859Zm10.586-.117a4.3,4.3,0,0,1-.281,1.559,3.463,3.463,0,0,1-.855,1.277,4.07,4.07,0,0,1-1.457.863,6.161,6.161,0,0,1-2.078.316h-1.7L135.473,17h-1.344L136.5,5.8h2.9a4.264,4.264,0,0,1,1.535.246,2.889,2.889,0,0,1,1.039.656,2.493,2.493,0,0,1,.586.941A3.349,3.349,0,0,1,142.738,8.742Zm-1.383.117a1.986,1.986,0,0,0-.145-.77,1.589,1.589,0,0,0-.426-.594,1.937,1.937,0,0,0-.7-.379,3.189,3.189,0,0,0-.965-.133H137.6l-.977,4.594h1.57a4.37,4.37,0,0,0,1.426-.207,2.71,2.71,0,0,0,.984-.57,2.222,2.222,0,0,0,.57-.859A3.1,3.1,0,0,0,141.355,8.859Zm11.75-1.2q-.227-.148-.52-.3a4.751,4.751,0,0,0-.645-.281,5.089,5.089,0,0,0-.77-.2,4.868,4.868,0,0,0-.895-.078,5.2,5.2,0,0,0-2.113.414,4.639,4.639,0,0,0-1.6,1.141,5.119,5.119,0,0,0-1.012,1.707,6.177,6.177,0,0,0-.355,2.121,4.834,4.834,0,0,0,.258,1.645,3.3,3.3,0,0,0,.734,1.2,3.1,3.1,0,0,0,1.141.738,4.139,4.139,0,0,0,1.469.25,6.851,6.851,0,0,0,.938-.059,5.428,5.428,0,0,0,.781-.164,5.041,5.041,0,0,0,.676-.25q.316-.145.613-.309l-.3,1.375a6.457,6.457,0,0,1-1.355.441,7.887,7.887,0,0,1-1.621.152,5.123,5.123,0,0,1-1.934-.352,4.177,4.177,0,0,1-1.484-1,4.474,4.474,0,0,1-.949-1.551,5.762,5.762,0,0,1-.336-2.016,7.548,7.548,0,0,1,.465-2.7,6.092,6.092,0,0,1,1.32-2.109A5.988,5.988,0,0,1,147.664,6.1a6.944,6.944,0,0,1,2.66-.492,6.6,6.6,0,0,1,1.77.215,6.945,6.945,0,0,1,1.3.488ZM162.066,8.8l1.492,1.906-.867.594-1.219-2.062L160.246,11.3l-.867-.594L160.887,8.8l-2.164-.43.336-.977,2.047.773L160.934,5.8H162l-.18,2.375,2.047-.773.336.977Zm16.75-1.148q-.227-.148-.52-.3a4.751,4.751,0,0,0-.645-.281,5.089,5.089,0,0,0-.77-.2,4.868,4.868,0,0,0-.895-.078,5.2,5.2,0,0,0-2.113.414,4.639,4.639,0,0,0-1.6,1.141,5.119,5.119,0,0,0-1.012,1.707,6.177,6.177,0,0,0-.355,2.121,4.834,4.834,0,0,0,.258,1.645,3.3,3.3,0,0,0,.734,1.2,3.1,3.1,0,0,0,1.141.738,4.139,4.139,0,0,0,1.469.25,6.851,6.851,0,0,0,.938-.059,5.428,5.428,0,0,0,.781-.164,5.041,5.041,0,0,0,.676-.25q.316-.145.613-.309l-.3,1.375a6.457,6.457,0,0,1-1.355.441,7.887,7.887,0,0,1-1.621.152,5.123,5.123,0,0,1-1.934-.352,4.177,4.177,0,0,1-1.484-1,4.474,4.474,0,0,1-.949-1.551,5.762,5.762,0,0,1-.336-2.016,7.548,7.548,0,0,1,.465-2.7,6.092,6.092,0,0,1,1.32-2.109A5.988,5.988,0,0,1,173.375,6.1a6.944,6.944,0,0,1,2.66-.492,6.6,6.6,0,0,1,1.77.215,6.945,6.945,0,0,1,1.3.488Zm1.8,9.344H179.27l2.367-11.2H183Zm12.031,0h-1.453l-4.133-8.977q-.023-.062-.055-.152t-.062-.191q-.031-.1-.055-.2t-.031-.148h-.047q-.008.078-.02.191t-.027.23q-.016.117-.035.23t-.035.2L184.824,17h-1.3l2.367-11.2h1.57l3.961,8.789a1.483,1.483,0,0,1,.078.168q.039.1.078.2t.074.207q.035.1.059.172h.031q.008-.094.023-.219t.031-.262q.016-.137.039-.27t.039-.227L193.7,5.8h1.328Zm6.258-6.477a10.731,10.731,0,0,1-1.113,4.832,12.371,12.371,0,0,1-1.3,2.07,18.134,18.134,0,0,1-1.707,1.91h-1.258a19.358,19.358,0,0,0,1.75-1.965,12.992,12.992,0,0,0,1.328-2.1,11.049,11.049,0,0,0,.844-2.254,9.97,9.97,0,0,0,.215-3.691,10.185,10.185,0,0,0-.242-1.25,9.586,9.586,0,0,0-.395-1.2,7.809,7.809,0,0,0-.539-1.086h1.086a7.983,7.983,0,0,1,.578,1.109,9.013,9.013,0,0,1,.414,1.2,10.081,10.081,0,0,1,.25,1.223A8.637,8.637,0,0,1,198.9,10.523Z" fill="#12263f"/>
  </g>
</svg>
