<svg xmlns="http://www.w3.org/2000/svg" width="295" height="82" viewBox="0 0 295 82">
  <g id="Grupo_1113386" data-name="Grupo 1113386" transform="translate(-600.051 -11605.363)">
    <g id="Grupo_1113381" data-name="Grupo 1113381" transform="translate(0.051)">
      <rect id="Rect치ngulo_406002" data-name="Rect치ngulo 406002" width="284" height="74" transform="translate(611 11613.363)" fill="#bce0fc"/>
      <g id="Rect치ngulo_406003" data-name="Rect치ngulo 406003" transform="translate(600 11605.363)" fill="#fbfbf9" stroke="#000" stroke-width="0.5">
        <rect width="291" height="76" stroke="none"/>
        <rect x="0.25" y="0.25" width="290.5" height="75.5" fill="none"/>
      </g>
    </g>
    <path id="Trazado_908411" data-name="Trazado 908411" d="M79.879,11.359l.016.047a4.027,4.027,0,0,1-1.523,2.711,4.979,4.979,0,0,1-3.219,1.047,3.446,3.446,0,0,1-2.9-1.379,4.374,4.374,0,0,1-.73-3.457l.3-2.023a5.839,5.839,0,0,1,1.727-3.512A4.715,4.715,0,0,1,76.91,3.461,3.859,3.859,0,0,1,79.789,4.5a2.951,2.951,0,0,1,.738,2.715l-.023.047H79.027a2.277,2.277,0,0,0-.414-1.914,2.4,2.4,0,0,0-1.891-.672,2.872,2.872,0,0,0-2.184,1.051,4.789,4.789,0,0,0-1.176,2.566l-.3,2.039a3.844,3.844,0,0,0,.359,2.625,2.075,2.075,0,0,0,1.914,1.008,3.087,3.087,0,0,0,2.063-.7,3,3,0,0,0,1.016-1.9Zm8.57-1.391h-4.8L82.895,15H81.355l1.7-11.375h7.133l-.18,1.211H84.418l-.594,3.922h4.8ZM19.492,29.383a11.684,11.684,0,0,1,1.965-5.316,8.782,8.782,0,0,1,3.027-2.848l.047.008.172.906a8.17,8.17,0,0,0-2.242,2.68,12.607,12.607,0,0,0-1.43,4.555l-.016.1a11.079,11.079,0,0,0,.129,4.6,6.02,6.02,0,0,0,1.5,2.7l-.414.844h-.047a5.9,5.9,0,0,1-2.207-2.9,9.705,9.705,0,0,1-.5-5.262Zm7.133.055L25.945,34H24.406l1.7-11.375h4.352a3.5,3.5,0,0,1,2.652.945,2.794,2.794,0,0,1,.684,2.461,3.815,3.815,0,0,1-1.379,2.508,4.633,4.633,0,0,1-2.973.9Zm.18-1.2h2.82a2.518,2.518,0,0,0,2.625-2.187,2.042,2.042,0,0,0-.332-1.594,1.94,1.94,0,0,0-1.637-.617H27.469Zm11.672,2.781.117.938.047.008.4-.945,4.2-8.391H44.9L38.969,34h-1.32L35.125,22.625H36.8Zm16.313-8.391L53.656,30.18a4.32,4.32,0,0,1-1.648,2.965,5.35,5.35,0,0,1-3.3,1.02A3.819,3.819,0,0,1,45.859,33.1a3.227,3.227,0,0,1-.773-2.918l1.133-7.555h1.539L46.625,30.18a2.446,2.446,0,0,0,.43,2.07,2.319,2.319,0,0,0,1.828.711A3.276,3.276,0,0,0,51,32.219a3.108,3.108,0,0,0,1.113-2.039l1.133-7.555ZM60.742,29.8H56.133l.18-1.2h4.609Zm10.648.563.016.047a4.027,4.027,0,0,1-1.523,2.711,4.979,4.979,0,0,1-3.219,1.047,3.446,3.446,0,0,1-2.9-1.379,4.374,4.374,0,0,1-.73-3.457l.3-2.023a5.839,5.839,0,0,1,1.727-3.512,4.715,4.715,0,0,1,3.359-1.332A3.859,3.859,0,0,1,71.3,23.5a2.951,2.951,0,0,1,.738,2.715l-.023.047H70.539a2.277,2.277,0,0,0-.414-1.914,2.4,2.4,0,0,0-1.891-.672,2.872,2.872,0,0,0-2.184,1.051,4.789,4.789,0,0,0-1.176,2.566l-.3,2.039a3.844,3.844,0,0,0,.359,2.625,2.075,2.075,0,0,0,1.914,1.008,3.087,3.087,0,0,0,2.063-.7,3,3,0,0,0,1.016-1.9Zm5.375.656.117.938.047.008.4-.945,4.2-8.391h1.664L77.258,34h-1.32L73.414,22.625h1.672Zm16.313-8.391L91.945,30.18A4.32,4.32,0,0,1,90.3,33.145a5.35,5.35,0,0,1-3.3,1.02A3.819,3.819,0,0,1,84.148,33.1a3.227,3.227,0,0,1-.773-2.918l1.133-7.555h1.539L84.914,30.18a2.446,2.446,0,0,0,.43,2.07,2.319,2.319,0,0,0,1.828.711,3.276,3.276,0,0,0,2.121-.742,3.108,3.108,0,0,0,1.113-2.039l1.133-7.555Zm4.32,6.828a11.73,11.73,0,0,1-1.973,5.32,8.822,8.822,0,0,1-3.02,2.844l-.047-.008-.18-.836a8.091,8.091,0,0,0,2.234-2.7,12.974,12.974,0,0,0,1.445-4.605l.016-.1a10.855,10.855,0,0,0-.164-4.605,6.225,6.225,0,0,0-1.469-2.7l.414-.844H94.7a5.924,5.924,0,0,1,2.2,2.906,9.745,9.745,0,0,1,.512,5.258Zm1.742,5.523H97.828l6.6-12.352h1.3Zm8.9-5.539L107.359,34H105.82l1.7-11.375h4.352a3.5,3.5,0,0,1,2.652.945,2.794,2.794,0,0,1,.684,2.461,3.815,3.815,0,0,1-1.379,2.508,4.633,4.633,0,0,1-2.973.9Zm.18-1.2h2.82a2.518,2.518,0,0,0,2.625-2.187,2.042,2.042,0,0,0-.332-1.594,1.94,1.94,0,0,0-1.637-.617h-2.812Zm11.672,2.781.117.938.047.008.4-.945,4.2-8.391h1.664L120.383,34h-1.32l-2.523-11.375h1.672ZM136.2,22.625,135.07,30.18a4.32,4.32,0,0,1-1.648,2.965,5.35,5.35,0,0,1-3.3,1.02,3.819,3.819,0,0,1-2.844-1.066,3.227,3.227,0,0,1-.773-2.918l1.133-7.555h1.539l-1.133,7.555a2.446,2.446,0,0,0,.43,2.07,2.319,2.319,0,0,0,1.828.711,3.276,3.276,0,0,0,2.121-.742,3.108,3.108,0,0,0,1.113-2.039l1.133-7.555Zm4.32,6.828a11.73,11.73,0,0,1-1.973,5.32,8.822,8.822,0,0,1-3.02,2.844l-.047-.008-.18-.836a8.091,8.091,0,0,0,2.234-2.7,12.974,12.974,0,0,0,1.445-4.605l.016-.1a10.855,10.855,0,0,0-.164-4.605,6.226,6.226,0,0,0-1.469-2.7l.414-.844h.047a5.924,5.924,0,0,1,2.2,2.906,9.745,9.745,0,0,1,.512,5.258Z" transform="translate(700.102 11624.363)" fill="#12263f"/>
    <path id="Trazado_908412" data-name="Trazado 908412" d="M18.789,10.438,18.109,15H16.57l1.7-11.375h4.352a3.5,3.5,0,0,1,2.652.945,2.794,2.794,0,0,1,.684,2.461,3.815,3.815,0,0,1-1.379,2.508,4.633,4.633,0,0,1-2.973.9Zm.18-1.2h2.82a2.518,2.518,0,0,0,2.625-2.187,2.042,2.042,0,0,0-.332-1.594,1.94,1.94,0,0,0-1.637-.617H19.633Zm14.773.492H29.07l-.609,4.07H33.93L33.75,15H26.742l1.7-11.375h6.922l-.18,1.211H29.8l-.547,3.68h4.68Zm11.219.6a6.458,6.458,0,0,1-.523,1.738,5.638,5.638,0,0,1-.937,1.418l1.43,1.625-1.2,1.008-1.469-1.641a4.962,4.962,0,0,1-1.27.516,5.667,5.667,0,0,1-1.4.172,3.575,3.575,0,0,1-3-1.387,4.337,4.337,0,0,1-.762-3.449l.3-2.023a5.782,5.782,0,0,1,1.758-3.5,4.886,4.886,0,0,1,3.453-1.34,3.767,3.767,0,0,1,3.1,1.395,4.257,4.257,0,0,1,.82,3.449ZM43.727,8.289a3.493,3.493,0,0,0-.453-2.59,2.425,2.425,0,0,0-2.125-.973,3.07,3.07,0,0,0-2.27,1.012,4.5,4.5,0,0,0-1.207,2.551l-.3,2.039a3.608,3.608,0,0,0,.4,2.605,2.244,2.244,0,0,0,2.008.973A3.283,3.283,0,0,0,42.164,12.9a4.477,4.477,0,0,0,1.258-2.57Zm14.3.281H51.516l.2-1.281h6.516Zm-.484,3.25H51.031l.2-1.281h6.516Z" transform="translate(634.051 11634.363)" fill="#12263f"/>
    <path id="Trazado_908413" data-name="Trazado 908413" d="M0,0H122" transform="translate(701.602 11643.863)" fill="none" stroke="#12263f" stroke-width="1"/>
  </g>
</svg>
