<svg xmlns="http://www.w3.org/2000/svg" width="400" height="201" viewBox="0 0 400 201">
  <g id="Grupo_1113398" data-name="Grupo 1113398" transform="translate(-0.051)">
    <g id="Grupo_1113395" data-name="Grupo 1113395" transform="translate(0)">
      <rect id="Rectángulo_406002" data-name="Rectángulo 406002" width="389" height="193" transform="translate(11.051 8)" fill="#bce0fc"/>
      <g id="Rectángulo_406003" data-name="Rectángulo 406003" transform="translate(0.051)" fill="#fbfbf9" stroke="#000" stroke-width="0.5">
        <rect width="396" height="195" stroke="none"/>
        <rect x="0.25" y="0.25" width="395.5" height="194.5" fill="none"/>
      </g>
    </g>
    <g id="Grupo_1113396" data-name="Grupo 1113396" transform="translate(50 20)">
      <g id="Grupo_1113382" data-name="Grupo 1113382">
        <path id="Trazado_908105" data-name="Trazado 908105" d="M30.48,7.367q-.164-.094-.383-.191t-.473-.184q-.254-.086-.523-.148a3.9,3.9,0,0,0-.527-.086l-.93,4.32q.414.3.8.625a5.323,5.323,0,0,1,.691.676,3.245,3.245,0,0,1,.484.762,2.118,2.118,0,0,1,.184.883,3.448,3.448,0,0,1-.172,1.059,2.637,2.637,0,0,1-.574.977A3.174,3.174,0,0,1,28,16.8a4.312,4.312,0,0,1-1.629.328l-.336,1.508h-.8l.32-1.523a5.562,5.562,0,0,1-.687-.078q-.359-.062-.687-.148t-.609-.184a3.5,3.5,0,0,1-.461-.191l.219-1.266a4.014,4.014,0,0,0,.512.273,6.423,6.423,0,0,0,.621.242q.328.109.664.188a5.158,5.158,0,0,0,.641.109l.891-4.141q-.477-.344-.883-.676a4.568,4.568,0,0,1-.7-.7,2.961,2.961,0,0,1-.457-.816,2.9,2.9,0,0,1-.164-1.008A2.811,2.811,0,0,1,24.7,7.52a2.859,2.859,0,0,1,.715-.957,3.456,3.456,0,0,1,1.113-.645,4.323,4.323,0,0,1,1.449-.246l.273-1.3h.82L28.785,5.7a5.513,5.513,0,0,1,1.055.18,7,7,0,0,1,.867.289Zm-2.734-.625a2.4,2.4,0,0,0-.863.2,1.956,1.956,0,0,0-.621.441,1.813,1.813,0,0,0-.375.605,1.957,1.957,0,0,0-.125.688,1.743,1.743,0,0,0,.086.555,1.917,1.917,0,0,0,.242.484,2.708,2.708,0,0,0,.371.43,6.035,6.035,0,0,0,.48.406Zm.75,7.406a1.492,1.492,0,0,0-.062-.434,1.654,1.654,0,0,0-.2-.414,2.471,2.471,0,0,0-.352-.422,6.057,6.057,0,0,0-.531-.457l-.75,3.633a2.347,2.347,0,0,0,.863-.215,1.877,1.877,0,0,0,.586-.437,1.652,1.652,0,0,0,.336-.586A2.146,2.146,0,0,0,28.5,14.148ZM43.785,5.8l-1.57,7.4h1.469l-.25,1.172H41.965L41.4,17H40.137l.563-2.633H35.441l.234-1.109a48.653,48.653,0,0,0,3.477-3.523Q40.934,7.75,42.371,5.8Zm-2.836,7.4L42.09,7.828A56.664,56.664,0,0,1,37.2,13.2Zm11.8-4.273q0,.586-.055,1.223t-.172,1.285a12.946,12.946,0,0,1-.3,1.285,10.137,10.137,0,0,1-.441,1.23,8.317,8.317,0,0,1-.59,1.121,5.918,5.918,0,0,1-.746.957,3.614,3.614,0,0,1-2.7,1.172,2.709,2.709,0,0,1-1.16-.246,2.479,2.479,0,0,1-.9-.719,3.438,3.438,0,0,1-.582-1.164,5.551,5.551,0,0,1-.207-1.59,11.938,11.938,0,0,1,.141-1.793,11.1,11.1,0,0,1,.43-1.8,9.769,9.769,0,0,1,.719-1.66A6.191,6.191,0,0,1,47.2,6.844a4.129,4.129,0,0,1,1.242-.91A3.6,3.6,0,0,1,50,5.609a2.927,2.927,0,0,1,1.133.211A2.318,2.318,0,0,1,52,6.449a2.879,2.879,0,0,1,.559,1.035A4.775,4.775,0,0,1,52.754,8.922Zm-1.3.109a3.111,3.111,0,0,0-.406-1.715,1.323,1.323,0,0,0-1.18-.621,1.944,1.944,0,0,0-.867.2,2.953,2.953,0,0,0-.8.6,4.512,4.512,0,0,0-.574.762,7.791,7.791,0,0,0-.492.953,10.053,10.053,0,0,0-.395,1.074q-.172.563-.293,1.125t-.184,1.1a8.781,8.781,0,0,0-.062,1.008,4.622,4.622,0,0,0,.129,1.168,2.446,2.446,0,0,0,.355.8,1.412,1.412,0,0,0,.535.465,1.5,1.5,0,0,0,.66.148,1.958,1.958,0,0,0,.828-.187,2.451,2.451,0,0,0,.758-.562,5.036,5.036,0,0,0,.773-1.152,10.287,10.287,0,0,0,.629-1.559,13.046,13.046,0,0,0,.426-1.785A11.042,11.042,0,0,0,51.457,9.031Zm3.25,7.281a.854.854,0,0,1-.25.609.9.9,0,0,1-.277.188.836.836,0,0,1-.34.07.809.809,0,0,1-.336-.07.912.912,0,0,1-.273-.187.854.854,0,0,1-.25-.609.878.878,0,0,1,.066-.34.845.845,0,0,1,.184-.277.854.854,0,0,1,.609-.25.878.878,0,0,1,.34.066.834.834,0,0,1,.461.461A.878.878,0,0,1,54.707,16.313ZM64.863,8.922q0,.586-.055,1.223t-.172,1.285a12.945,12.945,0,0,1-.3,1.285,10.138,10.138,0,0,1-.441,1.23,8.317,8.317,0,0,1-.59,1.121,5.918,5.918,0,0,1-.746.957,3.614,3.614,0,0,1-2.7,1.172,2.709,2.709,0,0,1-1.16-.246,2.479,2.479,0,0,1-.9-.719,3.438,3.438,0,0,1-.582-1.164A5.551,5.551,0,0,1,57,13.477a11.938,11.938,0,0,1,.141-1.793,11.1,11.1,0,0,1,.43-1.8,9.769,9.769,0,0,1,.719-1.66,6.191,6.191,0,0,1,1.016-1.375,4.129,4.129,0,0,1,1.242-.91,3.6,3.6,0,0,1,1.555-.324,2.927,2.927,0,0,1,1.133.211,2.318,2.318,0,0,1,.871.629,2.879,2.879,0,0,1,.559,1.035A4.774,4.774,0,0,1,64.863,8.922Zm-1.3.109a3.111,3.111,0,0,0-.406-1.715A1.323,1.323,0,0,0,61.98,6.7a1.944,1.944,0,0,0-.867.2,2.953,2.953,0,0,0-.8.6,4.512,4.512,0,0,0-.574.762,7.791,7.791,0,0,0-.492.953,10.053,10.053,0,0,0-.395,1.074q-.172.563-.293,1.125t-.184,1.1a8.781,8.781,0,0,0-.062,1.008,4.622,4.622,0,0,0,.129,1.168,2.446,2.446,0,0,0,.355.8,1.412,1.412,0,0,0,.535.465A1.5,1.5,0,0,0,60,16.1a1.958,1.958,0,0,0,.828-.187,2.451,2.451,0,0,0,.758-.562,5.036,5.036,0,0,0,.773-1.152,10.287,10.287,0,0,0,.629-1.559,13.046,13.046,0,0,0,.426-1.785A11.042,11.042,0,0,0,63.566,9.031Zm9.922-.109q0,.586-.055,1.223t-.172,1.285a12.945,12.945,0,0,1-.3,1.285,10.138,10.138,0,0,1-.441,1.23,8.318,8.318,0,0,1-.59,1.121,5.918,5.918,0,0,1-.746.957,3.614,3.614,0,0,1-2.7,1.172,2.709,2.709,0,0,1-1.16-.246,2.479,2.479,0,0,1-.9-.719,3.438,3.438,0,0,1-.582-1.164,5.551,5.551,0,0,1-.207-1.59,11.938,11.938,0,0,1,.141-1.793,11.1,11.1,0,0,1,.43-1.8,9.769,9.769,0,0,1,.719-1.66,6.191,6.191,0,0,1,1.016-1.375,4.129,4.129,0,0,1,1.242-.91,3.6,3.6,0,0,1,1.555-.324,2.927,2.927,0,0,1,1.133.211,2.318,2.318,0,0,1,.871.629,2.879,2.879,0,0,1,.559,1.035A4.774,4.774,0,0,1,73.488,8.922Zm-1.3.109a3.111,3.111,0,0,0-.406-1.715,1.323,1.323,0,0,0-1.18-.621,1.944,1.944,0,0,0-.867.2,2.953,2.953,0,0,0-.8.6,4.512,4.512,0,0,0-.574.762,7.791,7.791,0,0,0-.492.953,10.054,10.054,0,0,0-.395,1.074q-.172.563-.293,1.125T67,12.508a8.781,8.781,0,0,0-.062,1.008,4.622,4.622,0,0,0,.129,1.168,2.446,2.446,0,0,0,.355.8,1.412,1.412,0,0,0,.535.465,1.5,1.5,0,0,0,.66.148,1.958,1.958,0,0,0,.828-.187,2.451,2.451,0,0,0,.758-.562A5.037,5.037,0,0,0,70.98,14.2a10.287,10.287,0,0,0,.629-1.559,13.045,13.045,0,0,0,.426-1.785A11.043,11.043,0,0,0,72.191,9.031Zm9.922-.109q0,.586-.055,1.223t-.172,1.285a12.945,12.945,0,0,1-.3,1.285,10.138,10.138,0,0,1-.441,1.23,8.318,8.318,0,0,1-.59,1.121,5.918,5.918,0,0,1-.746.957,3.614,3.614,0,0,1-2.7,1.172,2.709,2.709,0,0,1-1.16-.246,2.479,2.479,0,0,1-.9-.719,3.438,3.438,0,0,1-.582-1.164,5.551,5.551,0,0,1-.207-1.59,11.938,11.938,0,0,1,.141-1.793,11.1,11.1,0,0,1,.43-1.8,9.769,9.769,0,0,1,.719-1.66,6.191,6.191,0,0,1,1.016-1.375,4.129,4.129,0,0,1,1.242-.91,3.6,3.6,0,0,1,1.555-.324,2.927,2.927,0,0,1,1.133.211,2.318,2.318,0,0,1,.871.629,2.879,2.879,0,0,1,.559,1.035A4.774,4.774,0,0,1,82.113,8.922Zm-1.3.109a3.111,3.111,0,0,0-.406-1.715A1.323,1.323,0,0,0,79.23,6.7a1.944,1.944,0,0,0-.867.2,2.953,2.953,0,0,0-.8.6,4.512,4.512,0,0,0-.574.762,7.791,7.791,0,0,0-.492.953,10.054,10.054,0,0,0-.395,1.074q-.172.563-.293,1.125t-.184,1.1a8.781,8.781,0,0,0-.062,1.008,4.622,4.622,0,0,0,.129,1.168,2.446,2.446,0,0,0,.355.8,1.412,1.412,0,0,0,.535.465,1.5,1.5,0,0,0,.66.148,1.958,1.958,0,0,0,.828-.187,2.451,2.451,0,0,0,.758-.562,5.037,5.037,0,0,0,.773-1.152,10.287,10.287,0,0,0,.629-1.559,13.045,13.045,0,0,0,.426-1.785A11.043,11.043,0,0,0,80.816,9.031Zm3.25,7.281a.854.854,0,0,1-.25.609.9.9,0,0,1-.277.188.836.836,0,0,1-.34.07.809.809,0,0,1-.336-.07.912.912,0,0,1-.273-.187.854.854,0,0,1-.25-.609.878.878,0,0,1,.066-.34.845.845,0,0,1,.184-.277.854.854,0,0,1,.609-.25.878.878,0,0,1,.34.066.834.834,0,0,1,.461.461A.878.878,0,0,1,84.066,16.313ZM94.223,8.922q0,.586-.055,1.223T94,11.43a12.945,12.945,0,0,1-.3,1.285,10.138,10.138,0,0,1-.441,1.23,8.318,8.318,0,0,1-.59,1.121,5.918,5.918,0,0,1-.746.957,3.614,3.614,0,0,1-2.7,1.172,2.709,2.709,0,0,1-1.16-.246,2.479,2.479,0,0,1-.9-.719,3.438,3.438,0,0,1-.582-1.164,5.551,5.551,0,0,1-.207-1.59,11.938,11.938,0,0,1,.141-1.793,11.1,11.1,0,0,1,.43-1.8,9.769,9.769,0,0,1,.719-1.66,6.191,6.191,0,0,1,1.016-1.375,4.129,4.129,0,0,1,1.242-.91,3.6,3.6,0,0,1,1.555-.324A2.927,2.927,0,0,1,92.6,5.82a2.318,2.318,0,0,1,.871.629,2.879,2.879,0,0,1,.559,1.035A4.774,4.774,0,0,1,94.223,8.922Zm-1.3.109a3.111,3.111,0,0,0-.406-1.715A1.323,1.323,0,0,0,91.34,6.7a1.944,1.944,0,0,0-.867.2,2.953,2.953,0,0,0-.8.6,4.512,4.512,0,0,0-.574.762,7.791,7.791,0,0,0-.492.953,10.054,10.054,0,0,0-.395,1.074q-.172.563-.293,1.125t-.184,1.1a8.781,8.781,0,0,0-.062,1.008,4.622,4.622,0,0,0,.129,1.168,2.446,2.446,0,0,0,.355.8,1.412,1.412,0,0,0,.535.465,1.5,1.5,0,0,0,.66.148,1.958,1.958,0,0,0,.828-.187,2.451,2.451,0,0,0,.758-.562,5.037,5.037,0,0,0,.773-1.152,10.287,10.287,0,0,0,.629-1.559,13.045,13.045,0,0,0,.426-1.785A11.043,11.043,0,0,0,92.926,9.031Zm9.922-.109q0,.586-.055,1.223t-.172,1.285a12.945,12.945,0,0,1-.3,1.285,10.138,10.138,0,0,1-.441,1.23,8.318,8.318,0,0,1-.59,1.121,5.918,5.918,0,0,1-.746.957,3.614,3.614,0,0,1-2.7,1.172,2.709,2.709,0,0,1-1.16-.246,2.479,2.479,0,0,1-.9-.719,3.438,3.438,0,0,1-.582-1.164,5.551,5.551,0,0,1-.207-1.59,11.938,11.938,0,0,1,.141-1.793,11.1,11.1,0,0,1,.43-1.8,9.769,9.769,0,0,1,.719-1.66,6.191,6.191,0,0,1,1.016-1.375,4.129,4.129,0,0,1,1.242-.91,3.6,3.6,0,0,1,1.555-.324,2.927,2.927,0,0,1,1.133.211,2.318,2.318,0,0,1,.871.629,2.879,2.879,0,0,1,.559,1.035A4.774,4.774,0,0,1,102.848,8.922Zm-1.3.109a3.111,3.111,0,0,0-.406-1.715,1.323,1.323,0,0,0-1.18-.621,1.944,1.944,0,0,0-.867.2,2.953,2.953,0,0,0-.8.6,4.512,4.512,0,0,0-.574.762,7.791,7.791,0,0,0-.492.953,10.054,10.054,0,0,0-.395,1.074q-.172.563-.293,1.125t-.184,1.1a8.781,8.781,0,0,0-.062,1.008,4.622,4.622,0,0,0,.129,1.168,2.446,2.446,0,0,0,.355.8,1.412,1.412,0,0,0,.535.465,1.5,1.5,0,0,0,.66.148,1.958,1.958,0,0,0,.828-.187,2.451,2.451,0,0,0,.758-.562,5.037,5.037,0,0,0,.773-1.152,10.287,10.287,0,0,0,.629-1.559,13.045,13.045,0,0,0,.426-1.785A11.043,11.043,0,0,0,101.551,9.031Zm9.922-.109q0,.586-.055,1.223t-.172,1.285a12.945,12.945,0,0,1-.3,1.285,10.138,10.138,0,0,1-.441,1.23,8.318,8.318,0,0,1-.59,1.121,5.918,5.918,0,0,1-.746.957,3.614,3.614,0,0,1-2.7,1.172,2.709,2.709,0,0,1-1.16-.246,2.479,2.479,0,0,1-.9-.719,3.438,3.438,0,0,1-.582-1.164,5.551,5.551,0,0,1-.207-1.59,11.938,11.938,0,0,1,.141-1.793,11.1,11.1,0,0,1,.43-1.8,9.769,9.769,0,0,1,.719-1.66,6.191,6.191,0,0,1,1.016-1.375,4.129,4.129,0,0,1,1.242-.91,3.6,3.6,0,0,1,1.555-.324,2.927,2.927,0,0,1,1.133.211,2.318,2.318,0,0,1,.871.629,2.879,2.879,0,0,1,.559,1.035A4.774,4.774,0,0,1,111.473,8.922Zm-1.3.109a3.111,3.111,0,0,0-.406-1.715,1.323,1.323,0,0,0-1.18-.621,1.944,1.944,0,0,0-.867.2,2.953,2.953,0,0,0-.8.6,4.512,4.512,0,0,0-.574.762,7.791,7.791,0,0,0-.492.953,10.054,10.054,0,0,0-.395,1.074q-.172.563-.293,1.125t-.184,1.1a8.781,8.781,0,0,0-.062,1.008,4.622,4.622,0,0,0,.129,1.168,2.446,2.446,0,0,0,.355.8,1.412,1.412,0,0,0,.535.465,1.5,1.5,0,0,0,.66.148,1.958,1.958,0,0,0,.828-.187,2.451,2.451,0,0,0,.758-.562,5.037,5.037,0,0,0,.773-1.152,10.287,10.287,0,0,0,.629-1.559,13.045,13.045,0,0,0,.426-1.785A11.043,11.043,0,0,0,110.176,9.031Zm7.539,3.828v3.148h-1.023V12.859H113.52V11.813h3.172V8.664h1.023v3.148h3.148v1.047Zm12.719-5.492q-.164-.094-.383-.191t-.473-.184q-.254-.086-.523-.148a3.9,3.9,0,0,0-.527-.086l-.93,4.32q.414.3.8.625a5.323,5.323,0,0,1,.691.676,3.245,3.245,0,0,1,.484.762,2.119,2.119,0,0,1,.184.883,3.448,3.448,0,0,1-.172,1.059,2.637,2.637,0,0,1-.574.977,3.174,3.174,0,0,1-1.062.738,4.312,4.312,0,0,1-1.629.328l-.336,1.508h-.8l.32-1.523a5.563,5.563,0,0,1-.687-.078q-.359-.062-.687-.148t-.609-.184a3.5,3.5,0,0,1-.461-.191l.219-1.266a4.014,4.014,0,0,0,.512.273,6.423,6.423,0,0,0,.621.242q.328.109.664.188a5.158,5.158,0,0,0,.641.109l.891-4.141q-.477-.344-.883-.676a4.568,4.568,0,0,1-.7-.7,2.961,2.961,0,0,1-.457-.816,2.9,2.9,0,0,1-.164-1.008,2.811,2.811,0,0,1,.254-1.191,2.859,2.859,0,0,1,.715-.957,3.456,3.456,0,0,1,1.113-.645,4.323,4.323,0,0,1,1.449-.246l.273-1.3h.82L128.738,5.7a5.513,5.513,0,0,1,1.055.18,7,7,0,0,1,.867.289ZM127.7,6.742a2.4,2.4,0,0,0-.863.2,1.956,1.956,0,0,0-.621.441,1.813,1.813,0,0,0-.375.605,1.957,1.957,0,0,0-.125.688,1.743,1.743,0,0,0,.086.555,1.917,1.917,0,0,0,.242.484,2.708,2.708,0,0,0,.371.43,6.035,6.035,0,0,0,.48.406Zm.75,7.406a1.492,1.492,0,0,0-.062-.434,1.654,1.654,0,0,0-.2-.414,2.471,2.471,0,0,0-.352-.422,6.057,6.057,0,0,0-.531-.457l-.75,3.633a2.347,2.347,0,0,0,.863-.215,1.877,1.877,0,0,0,.586-.437,1.652,1.652,0,0,0,.336-.586A2.146,2.146,0,0,0,128.449,14.148ZM139.1,17l2.086-9.758-2.766.75.273-1.234L142.8,5.609,140.395,17Zm13.609-8.078q0,.586-.055,1.223t-.172,1.285a12.947,12.947,0,0,1-.3,1.285,10.137,10.137,0,0,1-.441,1.23,8.317,8.317,0,0,1-.59,1.121,5.918,5.918,0,0,1-.746.957,3.614,3.614,0,0,1-2.7,1.172,2.709,2.709,0,0,1-1.16-.246,2.479,2.479,0,0,1-.9-.719,3.438,3.438,0,0,1-.582-1.164,5.551,5.551,0,0,1-.207-1.59,11.938,11.938,0,0,1,.141-1.793,11.1,11.1,0,0,1,.43-1.8,9.769,9.769,0,0,1,.719-1.66,6.19,6.19,0,0,1,1.016-1.375,4.13,4.13,0,0,1,1.242-.91,3.6,3.6,0,0,1,1.555-.324,2.927,2.927,0,0,1,1.133.211,2.318,2.318,0,0,1,.871.629,2.879,2.879,0,0,1,.559,1.035A4.775,4.775,0,0,1,152.707,8.922Zm-1.3.109A3.111,3.111,0,0,0,151,7.316a1.323,1.323,0,0,0-1.18-.621,1.944,1.944,0,0,0-.867.2,2.953,2.953,0,0,0-.8.6,4.512,4.512,0,0,0-.574.762,7.791,7.791,0,0,0-.492.953,10.052,10.052,0,0,0-.395,1.074q-.172.563-.293,1.125t-.184,1.1a8.78,8.78,0,0,0-.062,1.008,4.622,4.622,0,0,0,.129,1.168,2.446,2.446,0,0,0,.355.8,1.412,1.412,0,0,0,.535.465,1.5,1.5,0,0,0,.66.148,1.958,1.958,0,0,0,.828-.187,2.451,2.451,0,0,0,.758-.562A5.036,5.036,0,0,0,150.2,14.2a10.288,10.288,0,0,0,.629-1.559,13.046,13.046,0,0,0,.426-1.785A11.042,11.042,0,0,0,151.41,9.031Zm3.25,7.281a.854.854,0,0,1-.25.609.9.9,0,0,1-.277.188.836.836,0,0,1-.34.07.809.809,0,0,1-.336-.07.912.912,0,0,1-.273-.187.854.854,0,0,1-.25-.609.879.879,0,0,1,.066-.34.845.845,0,0,1,.184-.277.854.854,0,0,1,.609-.25.878.878,0,0,1,.34.066.834.834,0,0,1,.461.461A.879.879,0,0,1,154.66,16.313Zm10.156-7.391q0,.586-.055,1.223t-.172,1.285a12.947,12.947,0,0,1-.3,1.285,10.137,10.137,0,0,1-.441,1.23,8.317,8.317,0,0,1-.59,1.121,5.918,5.918,0,0,1-.746.957,3.614,3.614,0,0,1-2.7,1.172,2.709,2.709,0,0,1-1.16-.246,2.479,2.479,0,0,1-.9-.719,3.438,3.438,0,0,1-.582-1.164,5.551,5.551,0,0,1-.207-1.59,11.938,11.938,0,0,1,.141-1.793,11.1,11.1,0,0,1,.43-1.8,9.769,9.769,0,0,1,.719-1.66,6.19,6.19,0,0,1,1.016-1.375,4.13,4.13,0,0,1,1.242-.91,3.6,3.6,0,0,1,1.555-.324,2.927,2.927,0,0,1,1.133.211,2.318,2.318,0,0,1,.871.629,2.879,2.879,0,0,1,.559,1.035A4.775,4.775,0,0,1,164.816,8.922Zm-1.3.109a3.111,3.111,0,0,0-.406-1.715,1.323,1.323,0,0,0-1.18-.621,1.944,1.944,0,0,0-.867.2,2.953,2.953,0,0,0-.8.6,4.512,4.512,0,0,0-.574.762,7.791,7.791,0,0,0-.492.953,10.052,10.052,0,0,0-.395,1.074q-.172.563-.293,1.125t-.184,1.1a8.78,8.78,0,0,0-.062,1.008,4.622,4.622,0,0,0,.129,1.168,2.446,2.446,0,0,0,.355.8,1.412,1.412,0,0,0,.535.465,1.5,1.5,0,0,0,.66.148,1.958,1.958,0,0,0,.828-.187,2.451,2.451,0,0,0,.758-.562,5.036,5.036,0,0,0,.773-1.152,10.288,10.288,0,0,0,.629-1.559,13.046,13.046,0,0,0,.426-1.785A11.042,11.042,0,0,0,163.52,9.031Zm9.922-.109q0,.586-.055,1.223t-.172,1.285a12.947,12.947,0,0,1-.3,1.285,10.137,10.137,0,0,1-.441,1.23,8.317,8.317,0,0,1-.59,1.121,5.918,5.918,0,0,1-.746.957,3.614,3.614,0,0,1-2.7,1.172,2.709,2.709,0,0,1-1.16-.246,2.479,2.479,0,0,1-.9-.719,3.438,3.438,0,0,1-.582-1.164,5.551,5.551,0,0,1-.207-1.59,11.938,11.938,0,0,1,.141-1.793,11.1,11.1,0,0,1,.43-1.8,9.769,9.769,0,0,1,.719-1.66,6.19,6.19,0,0,1,1.016-1.375,4.13,4.13,0,0,1,1.242-.91,3.6,3.6,0,0,1,1.555-.324,2.927,2.927,0,0,1,1.133.211,2.318,2.318,0,0,1,.871.629,2.879,2.879,0,0,1,.559,1.035A4.775,4.775,0,0,1,173.441,8.922Zm-1.3.109a3.111,3.111,0,0,0-.406-1.715,1.323,1.323,0,0,0-1.18-.621,1.944,1.944,0,0,0-.867.2,2.953,2.953,0,0,0-.8.6,4.512,4.512,0,0,0-.574.762,7.791,7.791,0,0,0-.492.953,10.052,10.052,0,0,0-.395,1.074q-.172.563-.293,1.125t-.184,1.1a8.78,8.78,0,0,0-.062,1.008,4.622,4.622,0,0,0,.129,1.168,2.446,2.446,0,0,0,.355.8,1.412,1.412,0,0,0,.535.465,1.5,1.5,0,0,0,.66.148,1.958,1.958,0,0,0,.828-.187,2.451,2.451,0,0,0,.758-.562,5.036,5.036,0,0,0,.773-1.152,10.288,10.288,0,0,0,.629-1.559,13.046,13.046,0,0,0,.426-1.785A11.042,11.042,0,0,0,172.145,9.031Zm9.922-.109q0,.586-.055,1.223t-.172,1.285a12.947,12.947,0,0,1-.3,1.285,10.137,10.137,0,0,1-.441,1.23,8.317,8.317,0,0,1-.59,1.121,5.918,5.918,0,0,1-.746.957,3.614,3.614,0,0,1-2.7,1.172,2.709,2.709,0,0,1-1.16-.246,2.479,2.479,0,0,1-.9-.719,3.438,3.438,0,0,1-.582-1.164,5.551,5.551,0,0,1-.207-1.59,11.938,11.938,0,0,1,.141-1.793,11.1,11.1,0,0,1,.43-1.8,9.769,9.769,0,0,1,.719-1.66,6.19,6.19,0,0,1,1.016-1.375,4.13,4.13,0,0,1,1.242-.91,3.6,3.6,0,0,1,1.555-.324,2.927,2.927,0,0,1,1.133.211,2.318,2.318,0,0,1,.871.629,2.879,2.879,0,0,1,.559,1.035A4.775,4.775,0,0,1,182.066,8.922Zm-1.3.109a3.111,3.111,0,0,0-.406-1.715,1.323,1.323,0,0,0-1.18-.621,1.944,1.944,0,0,0-.867.2,2.953,2.953,0,0,0-.8.6,4.512,4.512,0,0,0-.574.762,7.791,7.791,0,0,0-.492.953,10.052,10.052,0,0,0-.395,1.074q-.172.563-.293,1.125t-.184,1.1a8.78,8.78,0,0,0-.062,1.008,4.622,4.622,0,0,0,.129,1.168,2.446,2.446,0,0,0,.355.8,1.412,1.412,0,0,0,.535.465,1.5,1.5,0,0,0,.66.148,1.958,1.958,0,0,0,.828-.187,2.451,2.451,0,0,0,.758-.562,5.036,5.036,0,0,0,.773-1.152,10.288,10.288,0,0,0,.629-1.559,13.046,13.046,0,0,0,.426-1.785A11.042,11.042,0,0,0,180.77,9.031Zm3.25,7.281a.854.854,0,0,1-.25.609.9.9,0,0,1-.277.188.836.836,0,0,1-.34.07.809.809,0,0,1-.336-.07.912.912,0,0,1-.273-.187.854.854,0,0,1-.25-.609.879.879,0,0,1,.066-.34.845.845,0,0,1,.184-.277.854.854,0,0,1,.609-.25.878.878,0,0,1,.34.066.834.834,0,0,1,.461.461A.879.879,0,0,1,184.02,16.313Zm10.156-7.391q0,.586-.055,1.223t-.172,1.285a12.947,12.947,0,0,1-.3,1.285,10.137,10.137,0,0,1-.441,1.23,8.317,8.317,0,0,1-.59,1.121,5.918,5.918,0,0,1-.746.957,3.614,3.614,0,0,1-2.7,1.172,2.709,2.709,0,0,1-1.16-.246,2.479,2.479,0,0,1-.9-.719,3.438,3.438,0,0,1-.582-1.164,5.551,5.551,0,0,1-.207-1.59,11.938,11.938,0,0,1,.141-1.793,11.1,11.1,0,0,1,.43-1.8,9.769,9.769,0,0,1,.719-1.66,6.19,6.19,0,0,1,1.016-1.375,4.13,4.13,0,0,1,1.242-.91,3.6,3.6,0,0,1,1.555-.324,2.927,2.927,0,0,1,1.133.211,2.318,2.318,0,0,1,.871.629,2.879,2.879,0,0,1,.559,1.035A4.775,4.775,0,0,1,194.176,8.922Zm-1.3.109a3.111,3.111,0,0,0-.406-1.715,1.323,1.323,0,0,0-1.18-.621,1.944,1.944,0,0,0-.867.2,2.953,2.953,0,0,0-.8.6,4.512,4.512,0,0,0-.574.762,7.791,7.791,0,0,0-.492.953,10.052,10.052,0,0,0-.395,1.074q-.172.563-.293,1.125t-.184,1.1a8.78,8.78,0,0,0-.062,1.008,4.622,4.622,0,0,0,.129,1.168,2.446,2.446,0,0,0,.355.8,1.412,1.412,0,0,0,.535.465,1.5,1.5,0,0,0,.66.148,1.958,1.958,0,0,0,.828-.187,2.451,2.451,0,0,0,.758-.562,5.036,5.036,0,0,0,.773-1.152,10.288,10.288,0,0,0,.629-1.559,13.046,13.046,0,0,0,.426-1.785A11.042,11.042,0,0,0,192.879,9.031Zm9.922-.109q0,.586-.055,1.223t-.172,1.285a12.947,12.947,0,0,1-.3,1.285,10.137,10.137,0,0,1-.441,1.23,8.317,8.317,0,0,1-.59,1.121,5.918,5.918,0,0,1-.746.957,3.614,3.614,0,0,1-2.7,1.172,2.709,2.709,0,0,1-1.16-.246,2.479,2.479,0,0,1-.9-.719,3.438,3.438,0,0,1-.582-1.164,5.551,5.551,0,0,1-.207-1.59,11.938,11.938,0,0,1,.141-1.793,11.1,11.1,0,0,1,.43-1.8,9.769,9.769,0,0,1,.719-1.66,6.19,6.19,0,0,1,1.016-1.375,4.13,4.13,0,0,1,1.242-.91,3.6,3.6,0,0,1,1.555-.324,2.927,2.927,0,0,1,1.133.211,2.318,2.318,0,0,1,.871.629,2.879,2.879,0,0,1,.559,1.035A4.775,4.775,0,0,1,202.8,8.922Zm-1.3.109a3.111,3.111,0,0,0-.406-1.715,1.323,1.323,0,0,0-1.18-.621,1.944,1.944,0,0,0-.867.2,2.953,2.953,0,0,0-.8.6,4.512,4.512,0,0,0-.574.762,7.791,7.791,0,0,0-.492.953,10.052,10.052,0,0,0-.395,1.074q-.172.563-.293,1.125t-.184,1.1a8.78,8.78,0,0,0-.062,1.008,4.622,4.622,0,0,0,.129,1.168,2.446,2.446,0,0,0,.355.8,1.412,1.412,0,0,0,.535.465,1.5,1.5,0,0,0,.66.148,1.958,1.958,0,0,0,.828-.187,2.451,2.451,0,0,0,.758-.562,5.036,5.036,0,0,0,.773-1.152,10.288,10.288,0,0,0,.629-1.559,13.046,13.046,0,0,0,.426-1.785A11.042,11.042,0,0,0,201.5,9.031Zm9.922-.109q0,.586-.055,1.223T211.2,11.43a12.947,12.947,0,0,1-.3,1.285,10.137,10.137,0,0,1-.441,1.23,8.317,8.317,0,0,1-.59,1.121,5.918,5.918,0,0,1-.746.957,3.614,3.614,0,0,1-2.7,1.172,2.709,2.709,0,0,1-1.16-.246,2.479,2.479,0,0,1-.9-.719,3.438,3.438,0,0,1-.582-1.164,5.551,5.551,0,0,1-.207-1.59,11.938,11.938,0,0,1,.141-1.793,11.1,11.1,0,0,1,.43-1.8,9.769,9.769,0,0,1,.719-1.66,6.19,6.19,0,0,1,1.016-1.375,4.13,4.13,0,0,1,1.242-.91,3.6,3.6,0,0,1,1.555-.324,2.927,2.927,0,0,1,1.133.211,2.318,2.318,0,0,1,.871.629,2.879,2.879,0,0,1,.559,1.035A4.775,4.775,0,0,1,211.426,8.922Zm-1.3.109a3.111,3.111,0,0,0-.406-1.715,1.323,1.323,0,0,0-1.18-.621,1.944,1.944,0,0,0-.867.2,2.953,2.953,0,0,0-.8.6,4.512,4.512,0,0,0-.574.762,7.791,7.791,0,0,0-.492.953,10.052,10.052,0,0,0-.395,1.074q-.172.563-.293,1.125t-.184,1.1a8.78,8.78,0,0,0-.062,1.008,4.622,4.622,0,0,0,.129,1.168,2.446,2.446,0,0,0,.355.8,1.412,1.412,0,0,0,.535.465,1.5,1.5,0,0,0,.66.148,1.958,1.958,0,0,0,.828-.187,2.451,2.451,0,0,0,.758-.562,5.036,5.036,0,0,0,.773-1.152,10.288,10.288,0,0,0,.629-1.559,13.046,13.046,0,0,0,.426-1.785A11.042,11.042,0,0,0,210.129,9.031ZM20.469,24.8a18.768,18.768,0,0,0-1.746,1.969,13.3,13.3,0,0,0-1.324,2.1,11.049,11.049,0,0,0-.844,2.254,9.991,9.991,0,0,0-.215,3.7,9.556,9.556,0,0,0,.246,1.25,10.148,10.148,0,0,0,.4,1.191,7.436,7.436,0,0,0,.539,1.078h-1.1a7.428,7.428,0,0,1-.574-1.1,9.192,9.192,0,0,1-.41-1.191,9.557,9.557,0,0,1-.246-1.227,9.129,9.129,0,0,1-.082-1.2,10.858,10.858,0,0,1,.289-2.551,11.1,11.1,0,0,1,.82-2.285,12.112,12.112,0,0,1,1.293-2.074,18.133,18.133,0,0,1,1.707-1.91Zm6.469,1.57q-.164-.094-.383-.191t-.473-.184q-.254-.086-.523-.148a3.9,3.9,0,0,0-.527-.086l-.93,4.32q.414.3.8.625a5.323,5.323,0,0,1,.691.676,3.245,3.245,0,0,1,.484.762,2.118,2.118,0,0,1,.184.883,3.448,3.448,0,0,1-.172,1.059,2.637,2.637,0,0,1-.574.977,3.174,3.174,0,0,1-1.062.738,4.312,4.312,0,0,1-1.629.328l-.336,1.508h-.8l.32-1.523a5.562,5.562,0,0,1-.687-.078q-.359-.063-.687-.148t-.609-.184a3.5,3.5,0,0,1-.461-.191l.219-1.266a4.014,4.014,0,0,0,.512.273,6.423,6.423,0,0,0,.621.242q.328.109.664.188a5.158,5.158,0,0,0,.641.109l.891-4.141q-.477-.344-.883-.676a4.568,4.568,0,0,1-.7-.7,2.961,2.961,0,0,1-.457-.816,2.9,2.9,0,0,1-.164-1.008,2.811,2.811,0,0,1,.254-1.191,2.859,2.859,0,0,1,.715-.957,3.456,3.456,0,0,1,1.113-.645,4.323,4.323,0,0,1,1.449-.246l.273-1.3h.82L25.242,24.7a5.513,5.513,0,0,1,1.055.18,7,7,0,0,1,.867.289ZM24.2,25.742a2.4,2.4,0,0,0-.863.2,1.956,1.956,0,0,0-.621.441,1.813,1.813,0,0,0-.375.605,1.957,1.957,0,0,0-.125.688,1.743,1.743,0,0,0,.086.555,1.917,1.917,0,0,0,.242.484,2.708,2.708,0,0,0,.371.43,6.035,6.035,0,0,0,.48.406Zm.75,7.406a1.492,1.492,0,0,0-.062-.434,1.654,1.654,0,0,0-.2-.414,2.471,2.471,0,0,0-.352-.422,6.057,6.057,0,0,0-.531-.457l-.75,3.633a2.347,2.347,0,0,0,.863-.215,1.877,1.877,0,0,0,.586-.437,1.652,1.652,0,0,0,.336-.586A2.146,2.146,0,0,0,24.953,33.148ZM40.242,24.8l-1.57,7.4h1.469l-.25,1.172H38.422L37.859,36H36.594l.563-2.633H31.9l.234-1.109a48.653,48.653,0,0,0,3.477-3.523q1.781-1.984,3.219-3.937Zm-2.836,7.4,1.141-5.367A56.664,56.664,0,0,1,33.656,32.2Zm11.8-4.273q0,.586-.055,1.223t-.172,1.285a12.946,12.946,0,0,1-.3,1.285,10.137,10.137,0,0,1-.441,1.23,8.317,8.317,0,0,1-.59,1.121,5.918,5.918,0,0,1-.746.957A3.614,3.614,0,0,1,44.2,36.2a2.709,2.709,0,0,1-1.16-.246,2.479,2.479,0,0,1-.9-.719,3.438,3.438,0,0,1-.582-1.164,5.551,5.551,0,0,1-.207-1.59,11.938,11.938,0,0,1,.141-1.793,11.1,11.1,0,0,1,.43-1.8,9.769,9.769,0,0,1,.719-1.66,6.191,6.191,0,0,1,1.016-1.375,4.129,4.129,0,0,1,1.242-.91,3.6,3.6,0,0,1,1.555-.324,2.927,2.927,0,0,1,1.133.211,2.318,2.318,0,0,1,.871.629,2.879,2.879,0,0,1,.559,1.035A4.775,4.775,0,0,1,49.211,27.922Zm-1.3.109a3.111,3.111,0,0,0-.406-1.715,1.323,1.323,0,0,0-1.18-.621,1.944,1.944,0,0,0-.867.2,2.953,2.953,0,0,0-.8.6,4.512,4.512,0,0,0-.574.762,7.791,7.791,0,0,0-.492.953,10.053,10.053,0,0,0-.395,1.074q-.172.563-.293,1.125t-.184,1.1a8.781,8.781,0,0,0-.062,1.008,4.622,4.622,0,0,0,.129,1.168,2.446,2.446,0,0,0,.355.8,1.412,1.412,0,0,0,.535.465,1.5,1.5,0,0,0,.66.148,1.958,1.958,0,0,0,.828-.187,2.451,2.451,0,0,0,.758-.562A5.036,5.036,0,0,0,46.7,33.2a10.288,10.288,0,0,0,.629-1.559,13.046,13.046,0,0,0,.426-1.785A11.042,11.042,0,0,0,47.914,28.031Zm3.25,7.281a.854.854,0,0,1-.25.609.9.9,0,0,1-.277.188.836.836,0,0,1-.34.07.809.809,0,0,1-.336-.07.912.912,0,0,1-.273-.187.854.854,0,0,1-.25-.609.878.878,0,0,1,.066-.34.845.845,0,0,1,.184-.277.854.854,0,0,1,.609-.25.878.878,0,0,1,.34.066.834.834,0,0,1,.461.461A.878.878,0,0,1,51.164,35.313ZM61.32,27.922q0,.586-.055,1.223t-.172,1.285a12.946,12.946,0,0,1-.3,1.285,10.137,10.137,0,0,1-.441,1.23,8.317,8.317,0,0,1-.59,1.121,5.918,5.918,0,0,1-.746.957,3.614,3.614,0,0,1-2.7,1.172,2.709,2.709,0,0,1-1.16-.246,2.479,2.479,0,0,1-.9-.719,3.438,3.438,0,0,1-.582-1.164,5.551,5.551,0,0,1-.207-1.59,11.938,11.938,0,0,1,.141-1.793,11.1,11.1,0,0,1,.43-1.8,9.769,9.769,0,0,1,.719-1.66,6.191,6.191,0,0,1,1.016-1.375,4.129,4.129,0,0,1,1.242-.91,3.6,3.6,0,0,1,1.555-.324,2.927,2.927,0,0,1,1.133.211,2.318,2.318,0,0,1,.871.629,2.879,2.879,0,0,1,.559,1.035A4.775,4.775,0,0,1,61.32,27.922Zm-1.3.109a3.111,3.111,0,0,0-.406-1.715,1.323,1.323,0,0,0-1.18-.621,1.944,1.944,0,0,0-.867.2,2.953,2.953,0,0,0-.8.6,4.512,4.512,0,0,0-.574.762,7.791,7.791,0,0,0-.492.953,10.053,10.053,0,0,0-.395,1.074q-.172.563-.293,1.125t-.184,1.1a8.781,8.781,0,0,0-.062,1.008,4.622,4.622,0,0,0,.129,1.168,2.446,2.446,0,0,0,.355.8,1.412,1.412,0,0,0,.535.465,1.5,1.5,0,0,0,.66.148,1.958,1.958,0,0,0,.828-.187,2.451,2.451,0,0,0,.758-.562,5.036,5.036,0,0,0,.773-1.152,10.288,10.288,0,0,0,.629-1.559,13.046,13.046,0,0,0,.426-1.785A11.042,11.042,0,0,0,60.023,28.031Zm9.922-.109q0,.586-.055,1.223t-.172,1.285a12.945,12.945,0,0,1-.3,1.285,10.138,10.138,0,0,1-.441,1.23,8.318,8.318,0,0,1-.59,1.121,5.918,5.918,0,0,1-.746.957,3.614,3.614,0,0,1-2.7,1.172,2.709,2.709,0,0,1-1.16-.246,2.479,2.479,0,0,1-.9-.719,3.438,3.438,0,0,1-.582-1.164,5.551,5.551,0,0,1-.207-1.59,11.938,11.938,0,0,1,.141-1.793,11.1,11.1,0,0,1,.43-1.8,9.769,9.769,0,0,1,.719-1.66,6.191,6.191,0,0,1,1.016-1.375,4.129,4.129,0,0,1,1.242-.91,3.6,3.6,0,0,1,1.555-.324,2.927,2.927,0,0,1,1.133.211,2.318,2.318,0,0,1,.871.629,2.879,2.879,0,0,1,.559,1.035A4.774,4.774,0,0,1,69.945,27.922Zm-1.3.109a3.111,3.111,0,0,0-.406-1.715,1.323,1.323,0,0,0-1.18-.621,1.944,1.944,0,0,0-.867.2,2.953,2.953,0,0,0-.8.6,4.512,4.512,0,0,0-.574.762,7.791,7.791,0,0,0-.492.953,10.054,10.054,0,0,0-.395,1.074q-.172.563-.293,1.125t-.184,1.1a8.781,8.781,0,0,0-.062,1.008,4.622,4.622,0,0,0,.129,1.168,2.446,2.446,0,0,0,.355.8,1.412,1.412,0,0,0,.535.465,1.5,1.5,0,0,0,.66.148,1.958,1.958,0,0,0,.828-.187,2.451,2.451,0,0,0,.758-.562,5.037,5.037,0,0,0,.773-1.152,10.287,10.287,0,0,0,.629-1.559,13.045,13.045,0,0,0,.426-1.785A11.043,11.043,0,0,0,68.648,28.031Zm9.922-.109q0,.586-.055,1.223t-.172,1.285a12.945,12.945,0,0,1-.3,1.285,10.138,10.138,0,0,1-.441,1.23,8.318,8.318,0,0,1-.59,1.121,5.918,5.918,0,0,1-.746.957,3.614,3.614,0,0,1-2.7,1.172,2.709,2.709,0,0,1-1.16-.246,2.479,2.479,0,0,1-.9-.719,3.438,3.438,0,0,1-.582-1.164,5.551,5.551,0,0,1-.207-1.59,11.938,11.938,0,0,1,.141-1.793,11.1,11.1,0,0,1,.43-1.8A9.769,9.769,0,0,1,72,27.219a6.191,6.191,0,0,1,1.016-1.375,4.129,4.129,0,0,1,1.242-.91,3.6,3.6,0,0,1,1.555-.324,2.927,2.927,0,0,1,1.133.211,2.318,2.318,0,0,1,.871.629,2.879,2.879,0,0,1,.559,1.035A4.774,4.774,0,0,1,78.57,27.922Zm-1.3.109a3.111,3.111,0,0,0-.406-1.715,1.323,1.323,0,0,0-1.18-.621,1.944,1.944,0,0,0-.867.2,2.953,2.953,0,0,0-.8.6,4.512,4.512,0,0,0-.574.762,7.791,7.791,0,0,0-.492.953,10.054,10.054,0,0,0-.395,1.074q-.172.563-.293,1.125t-.184,1.1a8.781,8.781,0,0,0-.062,1.008,4.622,4.622,0,0,0,.129,1.168,2.446,2.446,0,0,0,.355.8,1.412,1.412,0,0,0,.535.465,1.5,1.5,0,0,0,.66.148,1.958,1.958,0,0,0,.828-.187,2.451,2.451,0,0,0,.758-.562,5.037,5.037,0,0,0,.773-1.152,10.287,10.287,0,0,0,.629-1.559,13.045,13.045,0,0,0,.426-1.785A11.043,11.043,0,0,0,77.273,28.031Zm6.641,4.016H79.641l.227-1.008h4.273Zm9.055-5.68q-.164-.094-.383-.191t-.473-.184q-.254-.086-.523-.148a3.9,3.9,0,0,0-.527-.086l-.93,4.32q.414.3.8.625a5.324,5.324,0,0,1,.691.676,3.245,3.245,0,0,1,.484.762,2.118,2.118,0,0,1,.184.883,3.447,3.447,0,0,1-.172,1.059,2.637,2.637,0,0,1-.574.977,3.174,3.174,0,0,1-1.062.738,4.312,4.312,0,0,1-1.629.328l-.336,1.508h-.8l.32-1.523a5.563,5.563,0,0,1-.687-.078q-.359-.063-.687-.148t-.609-.184a3.5,3.5,0,0,1-.461-.191l.219-1.266a4.014,4.014,0,0,0,.512.273,6.423,6.423,0,0,0,.621.242q.328.109.664.188a5.158,5.158,0,0,0,.641.109l.891-4.141q-.477-.344-.883-.676a4.568,4.568,0,0,1-.7-.7,2.961,2.961,0,0,1-.457-.816,2.9,2.9,0,0,1-.164-1.008,2.811,2.811,0,0,1,.254-1.191,2.859,2.859,0,0,1,.715-.957,3.456,3.456,0,0,1,1.113-.645,4.323,4.323,0,0,1,1.449-.246l.273-1.3h.82L91.273,24.7a5.513,5.513,0,0,1,1.055.18,7,7,0,0,1,.867.289Zm-2.734-.625a2.4,2.4,0,0,0-.863.2,1.956,1.956,0,0,0-.621.441,1.813,1.813,0,0,0-.375.605,1.957,1.957,0,0,0-.125.688,1.743,1.743,0,0,0,.086.555,1.917,1.917,0,0,0,.242.484,2.708,2.708,0,0,0,.371.43,6.035,6.035,0,0,0,.48.406Zm.75,7.406a1.492,1.492,0,0,0-.062-.434,1.654,1.654,0,0,0-.2-.414,2.471,2.471,0,0,0-.352-.422,6.057,6.057,0,0,0-.531-.457l-.75,3.633a2.347,2.347,0,0,0,.863-.215,1.877,1.877,0,0,0,.586-.437,1.652,1.652,0,0,0,.336-.586A2.146,2.146,0,0,0,90.984,33.148Zm15.266-6.031a3.281,3.281,0,0,1-.172,1.066,2.6,2.6,0,0,1-.539.91,3.243,3.243,0,0,1-.937.7,4.822,4.822,0,0,1-1.359.434v.031a2.607,2.607,0,0,1,.859.281,2.319,2.319,0,0,1,1.1,1.266,2.582,2.582,0,0,1,.152.9,3.527,3.527,0,0,1-.258,1.344,3.015,3.015,0,0,1-.785,1.109,3.872,3.872,0,0,1-1.32.758,5.576,5.576,0,0,1-1.863.281,6.015,6.015,0,0,1-.844-.059,7.785,7.785,0,0,1-.777-.148,6.172,6.172,0,0,1-.668-.2,4.266,4.266,0,0,1-.523-.23l.273-1.219a4.154,4.154,0,0,0,.5.281,4.637,4.637,0,0,0,.633.246,5.907,5.907,0,0,0,.711.172,4.184,4.184,0,0,0,.738.066,4.1,4.1,0,0,0,1.375-.2,2.46,2.46,0,0,0,.891-.523,1.836,1.836,0,0,0,.477-.742,2.665,2.665,0,0,0,.141-.855,1.777,1.777,0,0,0-.687-1.473,3.319,3.319,0,0,0-2.078-.543h-.852l.242-1.1h.93a5.638,5.638,0,0,0,1.434-.164,3.181,3.181,0,0,0,1.043-.465,1.979,1.979,0,0,0,.637-.73,2.119,2.119,0,0,0,.215-.961,1.849,1.849,0,0,0-.109-.637,1.369,1.369,0,0,0-.34-.523,1.685,1.685,0,0,0-.578-.355,2.333,2.333,0,0,0-.832-.133,4.781,4.781,0,0,0-.762.059,5.619,5.619,0,0,0-.684.152,5.346,5.346,0,0,0-1.078.445l.266-1.281q.2-.078.453-.16a5.633,5.633,0,0,1,.555-.148q.3-.066.672-.109a6.952,6.952,0,0,1,.8-.043,3.668,3.668,0,0,1,1.344.219,2.675,2.675,0,0,1,.914.574,2.171,2.171,0,0,1,.523.8A2.635,2.635,0,0,1,106.25,27.117Zm8.641-1.148H110.68l-.687,3.266.828-.031a3.568,3.568,0,0,1,2.438.77,2.734,2.734,0,0,1,.875,2.168,4.074,4.074,0,0,1-.57,2.133,3.629,3.629,0,0,1-1.582,1.438,5.4,5.4,0,0,1-2.355.484,8.377,8.377,0,0,1-1.387-.117,4.335,4.335,0,0,1-1.1-.3l.289-1.258a3.418,3.418,0,0,0,1.031.422,5.058,5.058,0,0,0,1.258.164,3.605,3.605,0,0,0,1.672-.355,2.581,2.581,0,0,0,1.059-.977,2.681,2.681,0,0,0,.371-1.4,1.977,1.977,0,0,0-.562-1.527,2.581,2.581,0,0,0-1.789-.52q-1.086,0-1.945.078l1.18-5.6h5.422Zm2.3,9.344a.854.854,0,0,1-.25.609.9.9,0,0,1-.277.188.836.836,0,0,1-.34.07.809.809,0,0,1-.336-.07.912.912,0,0,1-.273-.187.854.854,0,0,1-.25-.609.878.878,0,0,1,.066-.34.845.845,0,0,1,.184-.277.854.854,0,0,1,.609-.25.878.878,0,0,1,.34.066.834.834,0,0,1,.461.461A.878.878,0,0,1,117.2,35.313Zm10.156-7.391q0,.586-.055,1.223t-.172,1.285a12.945,12.945,0,0,1-.3,1.285,10.138,10.138,0,0,1-.441,1.23,8.318,8.318,0,0,1-.59,1.121,5.918,5.918,0,0,1-.746.957,3.614,3.614,0,0,1-2.7,1.172,2.709,2.709,0,0,1-1.16-.246,2.479,2.479,0,0,1-.9-.719,3.438,3.438,0,0,1-.582-1.164,5.551,5.551,0,0,1-.207-1.59,11.938,11.938,0,0,1,.141-1.793,11.1,11.1,0,0,1,.43-1.8,9.769,9.769,0,0,1,.719-1.66,6.191,6.191,0,0,1,1.016-1.375,4.129,4.129,0,0,1,1.242-.91,3.6,3.6,0,0,1,1.555-.324,2.927,2.927,0,0,1,1.133.211,2.318,2.318,0,0,1,.871.629,2.879,2.879,0,0,1,.559,1.035A4.774,4.774,0,0,1,127.352,27.922Zm-1.3.109a3.111,3.111,0,0,0-.406-1.715,1.323,1.323,0,0,0-1.18-.621,1.944,1.944,0,0,0-.867.2,2.953,2.953,0,0,0-.8.6,4.512,4.512,0,0,0-.574.762,7.791,7.791,0,0,0-.492.953,10.054,10.054,0,0,0-.395,1.074q-.172.563-.293,1.125t-.184,1.1a8.781,8.781,0,0,0-.062,1.008,4.622,4.622,0,0,0,.129,1.168,2.446,2.446,0,0,0,.355.8,1.412,1.412,0,0,0,.535.465,1.5,1.5,0,0,0,.66.148,1.958,1.958,0,0,0,.828-.187,2.451,2.451,0,0,0,.758-.562,5.037,5.037,0,0,0,.773-1.152,10.287,10.287,0,0,0,.629-1.559,13.045,13.045,0,0,0,.426-1.785A11.043,11.043,0,0,0,126.055,28.031Zm9.922-.109q0,.586-.055,1.223t-.172,1.285a12.947,12.947,0,0,1-.3,1.285,10.137,10.137,0,0,1-.441,1.23,8.317,8.317,0,0,1-.59,1.121,5.918,5.918,0,0,1-.746.957,3.614,3.614,0,0,1-2.7,1.172,2.709,2.709,0,0,1-1.16-.246,2.479,2.479,0,0,1-.9-.719,3.438,3.438,0,0,1-.582-1.164,5.551,5.551,0,0,1-.207-1.59,11.938,11.938,0,0,1,.141-1.793,11.1,11.1,0,0,1,.43-1.8,9.769,9.769,0,0,1,.719-1.66,6.19,6.19,0,0,1,1.016-1.375,4.13,4.13,0,0,1,1.242-.91,3.6,3.6,0,0,1,1.555-.324,2.927,2.927,0,0,1,1.133.211,2.318,2.318,0,0,1,.871.629,2.879,2.879,0,0,1,.559,1.035A4.775,4.775,0,0,1,135.977,27.922Zm-1.3.109a3.111,3.111,0,0,0-.406-1.715,1.323,1.323,0,0,0-1.18-.621,1.944,1.944,0,0,0-.867.2,2.953,2.953,0,0,0-.8.6,4.512,4.512,0,0,0-.574.762,7.791,7.791,0,0,0-.492.953,10.052,10.052,0,0,0-.395,1.074q-.172.563-.293,1.125t-.184,1.1a8.78,8.78,0,0,0-.062,1.008,4.622,4.622,0,0,0,.129,1.168,2.446,2.446,0,0,0,.355.8,1.412,1.412,0,0,0,.535.465,1.5,1.5,0,0,0,.66.148,1.958,1.958,0,0,0,.828-.187,2.451,2.451,0,0,0,.758-.562,5.036,5.036,0,0,0,.773-1.152,10.288,10.288,0,0,0,.629-1.559,13.046,13.046,0,0,0,.426-1.785A11.042,11.042,0,0,0,134.68,28.031Zm9.922-.109q0,.586-.055,1.223t-.172,1.285a12.947,12.947,0,0,1-.3,1.285,10.137,10.137,0,0,1-.441,1.23,8.317,8.317,0,0,1-.59,1.121,5.918,5.918,0,0,1-.746.957,3.614,3.614,0,0,1-2.7,1.172,2.709,2.709,0,0,1-1.16-.246,2.479,2.479,0,0,1-.9-.719,3.438,3.438,0,0,1-.582-1.164,5.551,5.551,0,0,1-.207-1.59,11.938,11.938,0,0,1,.141-1.793,11.1,11.1,0,0,1,.43-1.8,9.769,9.769,0,0,1,.719-1.66,6.19,6.19,0,0,1,1.016-1.375,4.13,4.13,0,0,1,1.242-.91,3.6,3.6,0,0,1,1.555-.324,2.927,2.927,0,0,1,1.133.211,2.318,2.318,0,0,1,.871.629,2.879,2.879,0,0,1,.559,1.035A4.775,4.775,0,0,1,144.6,27.922Zm-1.3.109a3.111,3.111,0,0,0-.406-1.715,1.323,1.323,0,0,0-1.18-.621,1.944,1.944,0,0,0-.867.2,2.953,2.953,0,0,0-.8.6,4.512,4.512,0,0,0-.574.762,7.791,7.791,0,0,0-.492.953,10.052,10.052,0,0,0-.395,1.074q-.172.563-.293,1.125t-.184,1.1a8.78,8.78,0,0,0-.062,1.008,4.622,4.622,0,0,0,.129,1.168,2.446,2.446,0,0,0,.355.8,1.412,1.412,0,0,0,.535.465,1.5,1.5,0,0,0,.66.148,1.958,1.958,0,0,0,.828-.187,2.451,2.451,0,0,0,.758-.562,5.036,5.036,0,0,0,.773-1.152,10.288,10.288,0,0,0,.629-1.559,13.046,13.046,0,0,0,.426-1.785A11.042,11.042,0,0,0,143.3,28.031Zm5.281,1.492a10.731,10.731,0,0,1-1.113,4.832,12.371,12.371,0,0,1-1.3,2.07,18.134,18.134,0,0,1-1.707,1.91h-1.258a19.358,19.358,0,0,0,1.75-1.965,12.993,12.993,0,0,0,1.328-2.1,11.049,11.049,0,0,0,.844-2.254,9.97,9.97,0,0,0,.215-3.691,10.185,10.185,0,0,0-.242-1.25,9.586,9.586,0,0,0-.395-1.2,7.809,7.809,0,0,0-.539-1.086h1.086a7.983,7.983,0,0,1,.578,1.109,9.013,9.013,0,0,1,.414,1.2,10.081,10.081,0,0,1,.25,1.223A8.637,8.637,0,0,1,148.586,29.523Zm5.359,8.336h-1.312L160.766,24.8h1.3ZM172.6,26.367q-.164-.094-.383-.191t-.473-.184q-.254-.086-.523-.148a3.9,3.9,0,0,0-.527-.086l-.93,4.32q.414.3.8.625a5.323,5.323,0,0,1,.691.676,3.245,3.245,0,0,1,.484.762,2.119,2.119,0,0,1,.184.883,3.448,3.448,0,0,1-.172,1.059,2.637,2.637,0,0,1-.574.977,3.174,3.174,0,0,1-1.062.738,4.312,4.312,0,0,1-1.629.328l-.336,1.508h-.8l.32-1.523a5.562,5.562,0,0,1-.687-.078q-.359-.063-.687-.148t-.609-.184a3.5,3.5,0,0,1-.461-.191l.219-1.266a4.014,4.014,0,0,0,.512.273,6.423,6.423,0,0,0,.621.242q.328.109.664.188a5.158,5.158,0,0,0,.641.109l.891-4.141q-.477-.344-.883-.676a4.568,4.568,0,0,1-.7-.7,2.961,2.961,0,0,1-.457-.816,2.9,2.9,0,0,1-.164-1.008,2.811,2.811,0,0,1,.254-1.191,2.859,2.859,0,0,1,.715-.957,3.456,3.456,0,0,1,1.113-.645,4.323,4.323,0,0,1,1.449-.246l.273-1.3h.82l-.289,1.328a5.513,5.513,0,0,1,1.055.18,7,7,0,0,1,.867.289Zm-2.734-.625a2.4,2.4,0,0,0-.863.2,1.956,1.956,0,0,0-.621.441,1.813,1.813,0,0,0-.375.605,1.957,1.957,0,0,0-.125.688,1.743,1.743,0,0,0,.086.555,1.917,1.917,0,0,0,.242.484,2.708,2.708,0,0,0,.371.43,6.037,6.037,0,0,0,.48.406Zm.75,7.406a1.492,1.492,0,0,0-.062-.434,1.654,1.654,0,0,0-.2-.414,2.472,2.472,0,0,0-.352-.422,6.057,6.057,0,0,0-.531-.457l-.75,3.633a2.347,2.347,0,0,0,.863-.215,1.877,1.877,0,0,0,.586-.437,1.652,1.652,0,0,0,.336-.586A2.146,2.146,0,0,0,170.617,33.148ZM181.508,24.8l-1.57,7.4h1.469l-.25,1.172h-1.469L179.125,36h-1.266l.563-2.633h-5.258l.234-1.109a48.653,48.653,0,0,0,3.477-3.523q1.781-1.984,3.219-3.937Zm-2.836,7.4,1.141-5.367a56.664,56.664,0,0,1-4.891,5.367Zm11.8-4.273q0,.586-.055,1.223t-.172,1.285a12.947,12.947,0,0,1-.3,1.285,10.137,10.137,0,0,1-.441,1.23,8.317,8.317,0,0,1-.59,1.121,5.918,5.918,0,0,1-.746.957,3.614,3.614,0,0,1-2.7,1.172,2.709,2.709,0,0,1-1.16-.246,2.479,2.479,0,0,1-.9-.719,3.438,3.438,0,0,1-.582-1.164,5.551,5.551,0,0,1-.207-1.59,11.938,11.938,0,0,1,.141-1.793,11.1,11.1,0,0,1,.43-1.8,9.769,9.769,0,0,1,.719-1.66,6.19,6.19,0,0,1,1.016-1.375,4.13,4.13,0,0,1,1.242-.91,3.6,3.6,0,0,1,1.555-.324,2.927,2.927,0,0,1,1.133.211,2.318,2.318,0,0,1,.871.629,2.879,2.879,0,0,1,.559,1.035A4.775,4.775,0,0,1,190.477,27.922Zm-1.3.109a3.111,3.111,0,0,0-.406-1.715,1.323,1.323,0,0,0-1.18-.621,1.944,1.944,0,0,0-.867.2,2.953,2.953,0,0,0-.8.6,4.512,4.512,0,0,0-.574.762,7.791,7.791,0,0,0-.492.953,10.052,10.052,0,0,0-.395,1.074q-.172.563-.293,1.125t-.184,1.1a8.78,8.78,0,0,0-.062,1.008,4.622,4.622,0,0,0,.129,1.168,2.446,2.446,0,0,0,.355.8,1.412,1.412,0,0,0,.535.465,1.5,1.5,0,0,0,.66.148,1.958,1.958,0,0,0,.828-.187,2.451,2.451,0,0,0,.758-.562,5.036,5.036,0,0,0,.773-1.152,10.288,10.288,0,0,0,.629-1.559,13.046,13.046,0,0,0,.426-1.785A11.042,11.042,0,0,0,189.18,28.031Zm3.25,7.281a.854.854,0,0,1-.25.609.9.9,0,0,1-.277.188.836.836,0,0,1-.34.07.809.809,0,0,1-.336-.07.912.912,0,0,1-.273-.187.854.854,0,0,1-.25-.609.879.879,0,0,1,.066-.34.845.845,0,0,1,.184-.277.854.854,0,0,1,.609-.25.878.878,0,0,1,.34.066.834.834,0,0,1,.461.461A.879.879,0,0,1,192.43,35.313Zm10.156-7.391q0,.586-.055,1.223t-.172,1.285a12.947,12.947,0,0,1-.3,1.285,10.137,10.137,0,0,1-.441,1.23,8.317,8.317,0,0,1-.59,1.121,5.918,5.918,0,0,1-.746.957,3.614,3.614,0,0,1-2.7,1.172,2.709,2.709,0,0,1-1.16-.246,2.479,2.479,0,0,1-.9-.719,3.438,3.438,0,0,1-.582-1.164,5.551,5.551,0,0,1-.207-1.59,11.938,11.938,0,0,1,.141-1.793,11.1,11.1,0,0,1,.43-1.8,9.769,9.769,0,0,1,.719-1.66,6.19,6.19,0,0,1,1.016-1.375,4.13,4.13,0,0,1,1.242-.91,3.6,3.6,0,0,1,1.555-.324,2.927,2.927,0,0,1,1.133.211,2.318,2.318,0,0,1,.871.629,2.879,2.879,0,0,1,.559,1.035A4.775,4.775,0,0,1,202.586,27.922Zm-1.3.109a3.111,3.111,0,0,0-.406-1.715,1.323,1.323,0,0,0-1.18-.621,1.944,1.944,0,0,0-.867.2,2.953,2.953,0,0,0-.8.6,4.512,4.512,0,0,0-.574.762,7.791,7.791,0,0,0-.492.953,10.052,10.052,0,0,0-.395,1.074q-.172.563-.293,1.125t-.184,1.1a8.78,8.78,0,0,0-.062,1.008,4.622,4.622,0,0,0,.129,1.168,2.446,2.446,0,0,0,.355.8,1.412,1.412,0,0,0,.535.465,1.5,1.5,0,0,0,.66.148,1.958,1.958,0,0,0,.828-.187,2.451,2.451,0,0,0,.758-.562,5.036,5.036,0,0,0,.773-1.152,10.288,10.288,0,0,0,.629-1.559,13.046,13.046,0,0,0,.426-1.785A11.042,11.042,0,0,0,201.289,28.031Zm9.922-.109q0,.586-.055,1.223t-.172,1.285a12.947,12.947,0,0,1-.3,1.285,10.137,10.137,0,0,1-.441,1.23,8.317,8.317,0,0,1-.59,1.121,5.918,5.918,0,0,1-.746.957,3.614,3.614,0,0,1-2.7,1.172,2.709,2.709,0,0,1-1.16-.246,2.479,2.479,0,0,1-.9-.719,3.438,3.438,0,0,1-.582-1.164,5.551,5.551,0,0,1-.207-1.59,11.938,11.938,0,0,1,.141-1.793,11.1,11.1,0,0,1,.43-1.8,9.769,9.769,0,0,1,.719-1.66,6.19,6.19,0,0,1,1.016-1.375,4.13,4.13,0,0,1,1.242-.91,3.6,3.6,0,0,1,1.555-.324,2.927,2.927,0,0,1,1.133.211,2.318,2.318,0,0,1,.871.629,2.879,2.879,0,0,1,.559,1.035A4.775,4.775,0,0,1,211.211,27.922Zm-1.3.109a3.111,3.111,0,0,0-.406-1.715,1.323,1.323,0,0,0-1.18-.621,1.944,1.944,0,0,0-.867.2,2.953,2.953,0,0,0-.8.6,4.512,4.512,0,0,0-.574.762,7.791,7.791,0,0,0-.492.953,10.052,10.052,0,0,0-.395,1.074q-.172.563-.293,1.125t-.184,1.1a8.78,8.78,0,0,0-.062,1.008,4.622,4.622,0,0,0,.129,1.168,2.446,2.446,0,0,0,.355.8,1.412,1.412,0,0,0,.535.465,1.5,1.5,0,0,0,.66.148,1.958,1.958,0,0,0,.828-.187,2.451,2.451,0,0,0,.758-.562A5.036,5.036,0,0,0,208.7,33.2a10.288,10.288,0,0,0,.629-1.559,13.046,13.046,0,0,0,.426-1.785A11.042,11.042,0,0,0,209.914,28.031Zm9.922-.109q0,.586-.055,1.223t-.172,1.285a12.947,12.947,0,0,1-.3,1.285,10.137,10.137,0,0,1-.441,1.23,8.317,8.317,0,0,1-.59,1.121,5.918,5.918,0,0,1-.746.957,3.614,3.614,0,0,1-2.7,1.172,2.709,2.709,0,0,1-1.16-.246,2.479,2.479,0,0,1-.9-.719,3.438,3.438,0,0,1-.582-1.164,5.551,5.551,0,0,1-.207-1.59,11.938,11.938,0,0,1,.141-1.793,11.1,11.1,0,0,1,.43-1.8,9.769,9.769,0,0,1,.719-1.66,6.19,6.19,0,0,1,1.016-1.375,4.13,4.13,0,0,1,1.242-.91,3.6,3.6,0,0,1,1.555-.324,2.927,2.927,0,0,1,1.133.211,2.318,2.318,0,0,1,.871.629,2.879,2.879,0,0,1,.559,1.035A4.775,4.775,0,0,1,219.836,27.922Zm-1.3.109a3.111,3.111,0,0,0-.406-1.715,1.323,1.323,0,0,0-1.18-.621,1.944,1.944,0,0,0-.867.2,2.953,2.953,0,0,0-.8.6,4.512,4.512,0,0,0-.574.762,7.791,7.791,0,0,0-.492.953,10.052,10.052,0,0,0-.395,1.074q-.172.563-.293,1.125t-.184,1.1a8.78,8.78,0,0,0-.062,1.008,4.622,4.622,0,0,0,.129,1.168,2.446,2.446,0,0,0,.355.8,1.412,1.412,0,0,0,.535.465,1.5,1.5,0,0,0,.66.148,1.958,1.958,0,0,0,.828-.187,2.451,2.451,0,0,0,.758-.562,5.036,5.036,0,0,0,.773-1.152,10.288,10.288,0,0,0,.629-1.559,13.046,13.046,0,0,0,.426-1.785A11.042,11.042,0,0,0,218.539,28.031Z" transform="translate(66.051)" fill="#12263f"/>
        <path id="Trazado_908104" data-name="Trazado 908104" d="M23.578,8.742A4.3,4.3,0,0,1,23.3,10.3a3.463,3.463,0,0,1-.855,1.277,4.07,4.07,0,0,1-1.457.863,6.161,6.161,0,0,1-2.078.316H17.2L16.313,17H14.969L17.336,5.8h2.9a4.264,4.264,0,0,1,1.535.246,2.889,2.889,0,0,1,1.039.656,2.493,2.493,0,0,1,.586.941A3.349,3.349,0,0,1,23.578,8.742ZM22.2,8.859a1.986,1.986,0,0,0-.145-.77,1.589,1.589,0,0,0-.426-.594,1.937,1.937,0,0,0-.7-.379,3.189,3.189,0,0,0-.965-.133H18.438l-.977,4.594h1.57a4.37,4.37,0,0,0,1.426-.207,2.71,2.71,0,0,0,.984-.57,2.222,2.222,0,0,0,.57-.859A3.1,3.1,0,0,0,22.2,8.859Zm9.766-1.875h-4.32l-.812,3.82h4l-.258,1.188h-4l-.82,3.82h4.594L30.109,17H24.172L26.539,5.8h5.68ZM43.2,10.375a7.742,7.742,0,0,1-.6,3.031A6.684,6.684,0,0,1,40.93,15.8a5.049,5.049,0,0,1-2.469,1.246l2.25,2.656H38.953L37.133,17.2a4.756,4.756,0,0,1-2.367-.637A4.086,4.086,0,0,1,33.2,14.883a5.233,5.233,0,0,1-.551-2.43,7.054,7.054,0,0,1,1.742-4.914,5.6,5.6,0,0,1,4.336-1.93,4.536,4.536,0,0,1,2.348.605,4.011,4.011,0,0,1,1.574,1.7A5.42,5.42,0,0,1,43.2,10.375Zm-1.391.047a3.912,3.912,0,0,0-.852-2.645,2.922,2.922,0,0,0-2.336-.988,3.987,3.987,0,0,0-2.293.723,4.954,4.954,0,0,0-1.68,2.047,6.731,6.731,0,0,0-.621,2.895,3.722,3.722,0,0,0,.871,2.586,3.019,3.019,0,0,0,2.363.969,3.971,3.971,0,0,0,2.285-.7,4.816,4.816,0,0,0,1.645-2.062A6.776,6.776,0,0,0,41.8,10.422Zm8.234.773V10.148h7.344V11.2Zm0,3.328V13.477h7.344v1.047Z" transform="translate(0.051 9)" fill="#12263f"/>
        <line id="Línea_575" data-name="Línea 575" x2="233" transform="translate(66.733 18.5)" fill="none" stroke="#12263f" stroke-width="1"/>
      </g>
      <g id="Grupo_1113388" data-name="Grupo 1113388" transform="translate(54 67)">
        <path id="Trazado_908107" data-name="Trazado 908107" d="M23.457,7.367q-.164-.094-.383-.191T22.6,6.992q-.254-.086-.523-.148a3.9,3.9,0,0,0-.527-.086l-.93,4.32q.414.3.8.625a5.323,5.323,0,0,1,.691.676,3.245,3.245,0,0,1,.484.762,2.118,2.118,0,0,1,.184.883,3.448,3.448,0,0,1-.172,1.059,2.637,2.637,0,0,1-.574.977,3.174,3.174,0,0,1-1.062.738,4.312,4.312,0,0,1-1.629.328l-.336,1.508h-.8l.32-1.523a5.562,5.562,0,0,1-.687-.078q-.359-.062-.687-.148t-.609-.184a3.5,3.5,0,0,1-.461-.191l.219-1.266a4.014,4.014,0,0,0,.512.273,6.423,6.423,0,0,0,.621.242q.328.109.664.188a5.158,5.158,0,0,0,.641.109l.891-4.141q-.477-.344-.883-.676a4.568,4.568,0,0,1-.7-.7,2.961,2.961,0,0,1-.457-.816,2.9,2.9,0,0,1-.164-1.008A2.811,2.811,0,0,1,17.68,7.52a2.859,2.859,0,0,1,.715-.957,3.456,3.456,0,0,1,1.113-.645,4.323,4.323,0,0,1,1.449-.246l.273-1.3h.82L21.762,5.7a5.513,5.513,0,0,1,1.055.18,7,7,0,0,1,.867.289Zm-2.734-.625a2.4,2.4,0,0,0-.863.2,1.956,1.956,0,0,0-.621.441,1.813,1.813,0,0,0-.375.605,1.957,1.957,0,0,0-.125.688,1.743,1.743,0,0,0,.086.555,1.917,1.917,0,0,0,.242.484,2.708,2.708,0,0,0,.371.43,6.035,6.035,0,0,0,.48.406Zm.75,7.406a1.492,1.492,0,0,0-.062-.434,1.654,1.654,0,0,0-.2-.414,2.471,2.471,0,0,0-.352-.422,6.057,6.057,0,0,0-.531-.457l-.75,3.633a2.347,2.347,0,0,0,.863-.215,1.877,1.877,0,0,0,.586-.437,1.652,1.652,0,0,0,.336-.586A2.146,2.146,0,0,0,21.473,14.148Zm15.281-7.18H32.543l-.687,3.266.828-.031a3.568,3.568,0,0,1,2.438.77A2.735,2.735,0,0,1,36,13.141a4.074,4.074,0,0,1-.57,2.133,3.629,3.629,0,0,1-1.582,1.438,5.4,5.4,0,0,1-2.355.484,8.377,8.377,0,0,1-1.387-.117,4.335,4.335,0,0,1-1.1-.3l.289-1.258a3.418,3.418,0,0,0,1.031.422,5.058,5.058,0,0,0,1.258.164,3.605,3.605,0,0,0,1.672-.355,2.581,2.581,0,0,0,1.059-.977,2.681,2.681,0,0,0,.371-1.4,1.977,1.977,0,0,0-.562-1.527,2.581,2.581,0,0,0-1.789-.52q-1.086,0-1.945.078l1.18-5.6h5.422ZM45.73,8.922q0,.586-.055,1.223T45.5,11.43a12.946,12.946,0,0,1-.3,1.285,10.137,10.137,0,0,1-.441,1.23,8.317,8.317,0,0,1-.59,1.121,5.918,5.918,0,0,1-.746.957,3.614,3.614,0,0,1-2.7,1.172,2.709,2.709,0,0,1-1.16-.246,2.479,2.479,0,0,1-.9-.719,3.438,3.438,0,0,1-.582-1.164,5.551,5.551,0,0,1-.207-1.59,11.938,11.938,0,0,1,.141-1.793,11.1,11.1,0,0,1,.43-1.8,9.769,9.769,0,0,1,.719-1.66,6.191,6.191,0,0,1,1.016-1.375,4.129,4.129,0,0,1,1.242-.91,3.6,3.6,0,0,1,1.555-.324,2.927,2.927,0,0,1,1.133.211,2.318,2.318,0,0,1,.871.629,2.879,2.879,0,0,1,.559,1.035A4.775,4.775,0,0,1,45.73,8.922Zm-1.3.109a3.111,3.111,0,0,0-.406-1.715,1.323,1.323,0,0,0-1.18-.621,1.944,1.944,0,0,0-.867.2,2.953,2.953,0,0,0-.8.6,4.512,4.512,0,0,0-.574.762,7.791,7.791,0,0,0-.492.953,10.053,10.053,0,0,0-.395,1.074q-.172.563-.293,1.125t-.184,1.1a8.781,8.781,0,0,0-.062,1.008,4.622,4.622,0,0,0,.129,1.168,2.446,2.446,0,0,0,.355.8,1.412,1.412,0,0,0,.535.465,1.5,1.5,0,0,0,.66.148,1.958,1.958,0,0,0,.828-.187,2.451,2.451,0,0,0,.758-.562,5.036,5.036,0,0,0,.773-1.152,10.287,10.287,0,0,0,.629-1.559,13.046,13.046,0,0,0,.426-1.785A11.042,11.042,0,0,0,44.434,9.031Zm3.25,7.281a.854.854,0,0,1-.25.609.9.9,0,0,1-.277.188.836.836,0,0,1-.34.07.809.809,0,0,1-.336-.07.912.912,0,0,1-.273-.187.854.854,0,0,1-.25-.609.878.878,0,0,1,.066-.34.845.845,0,0,1,.184-.277.854.854,0,0,1,.609-.25.878.878,0,0,1,.34.066.834.834,0,0,1,.461.461A.878.878,0,0,1,47.684,16.313ZM57.84,8.922q0,.586-.055,1.223t-.172,1.285a12.946,12.946,0,0,1-.3,1.285,10.137,10.137,0,0,1-.441,1.23,8.317,8.317,0,0,1-.59,1.121,5.918,5.918,0,0,1-.746.957,3.614,3.614,0,0,1-2.7,1.172,2.709,2.709,0,0,1-1.16-.246,2.479,2.479,0,0,1-.9-.719,3.438,3.438,0,0,1-.582-1.164,5.551,5.551,0,0,1-.207-1.59,11.938,11.938,0,0,1,.141-1.793,11.1,11.1,0,0,1,.43-1.8,9.769,9.769,0,0,1,.719-1.66,6.191,6.191,0,0,1,1.016-1.375,4.129,4.129,0,0,1,1.242-.91,3.6,3.6,0,0,1,1.555-.324,2.927,2.927,0,0,1,1.133.211,2.318,2.318,0,0,1,.871.629,2.879,2.879,0,0,1,.559,1.035A4.775,4.775,0,0,1,57.84,8.922Zm-1.3.109a3.111,3.111,0,0,0-.406-1.715,1.323,1.323,0,0,0-1.18-.621,1.944,1.944,0,0,0-.867.2,2.953,2.953,0,0,0-.8.6,4.512,4.512,0,0,0-.574.762,7.791,7.791,0,0,0-.492.953,10.053,10.053,0,0,0-.395,1.074q-.172.563-.293,1.125t-.184,1.1a8.781,8.781,0,0,0-.062,1.008,4.622,4.622,0,0,0,.129,1.168,2.446,2.446,0,0,0,.355.8,1.412,1.412,0,0,0,.535.465,1.5,1.5,0,0,0,.66.148,1.958,1.958,0,0,0,.828-.187,2.451,2.451,0,0,0,.758-.562,5.036,5.036,0,0,0,.773-1.152,10.287,10.287,0,0,0,.629-1.559,13.046,13.046,0,0,0,.426-1.785A11.042,11.042,0,0,0,56.543,9.031Zm9.922-.109q0,.586-.055,1.223t-.172,1.285a12.945,12.945,0,0,1-.3,1.285,10.138,10.138,0,0,1-.441,1.23,8.318,8.318,0,0,1-.59,1.121,5.918,5.918,0,0,1-.746.957,3.614,3.614,0,0,1-2.7,1.172,2.709,2.709,0,0,1-1.16-.246,2.479,2.479,0,0,1-.9-.719,3.438,3.438,0,0,1-.582-1.164,5.551,5.551,0,0,1-.207-1.59,11.938,11.938,0,0,1,.141-1.793,11.1,11.1,0,0,1,.43-1.8,9.769,9.769,0,0,1,.719-1.66A6.191,6.191,0,0,1,60.91,6.844a4.129,4.129,0,0,1,1.242-.91,3.6,3.6,0,0,1,1.555-.324,2.927,2.927,0,0,1,1.133.211,2.318,2.318,0,0,1,.871.629,2.879,2.879,0,0,1,.559,1.035A4.774,4.774,0,0,1,66.465,8.922Zm-1.3.109a3.111,3.111,0,0,0-.406-1.715,1.323,1.323,0,0,0-1.18-.621,1.944,1.944,0,0,0-.867.2,2.953,2.953,0,0,0-.8.6,4.512,4.512,0,0,0-.574.762,7.791,7.791,0,0,0-.492.953,10.053,10.053,0,0,0-.395,1.074q-.172.563-.293,1.125t-.184,1.1a8.781,8.781,0,0,0-.062,1.008,4.622,4.622,0,0,0,.129,1.168,2.446,2.446,0,0,0,.355.8,1.412,1.412,0,0,0,.535.465,1.5,1.5,0,0,0,.66.148,1.958,1.958,0,0,0,.828-.187,2.451,2.451,0,0,0,.758-.562,5.036,5.036,0,0,0,.773-1.152,10.287,10.287,0,0,0,.629-1.559,13.045,13.045,0,0,0,.426-1.785A11.043,11.043,0,0,0,65.168,9.031Zm9.922-.109q0,.586-.055,1.223t-.172,1.285a12.945,12.945,0,0,1-.3,1.285,10.138,10.138,0,0,1-.441,1.23,8.318,8.318,0,0,1-.59,1.121,5.918,5.918,0,0,1-.746.957,3.614,3.614,0,0,1-2.7,1.172,2.709,2.709,0,0,1-1.16-.246,2.479,2.479,0,0,1-.9-.719,3.438,3.438,0,0,1-.582-1.164,5.551,5.551,0,0,1-.207-1.59,11.938,11.938,0,0,1,.141-1.793,11.1,11.1,0,0,1,.43-1.8,9.769,9.769,0,0,1,.719-1.66,6.191,6.191,0,0,1,1.016-1.375,4.129,4.129,0,0,1,1.242-.91,3.6,3.6,0,0,1,1.555-.324,2.927,2.927,0,0,1,1.133.211,2.318,2.318,0,0,1,.871.629,2.879,2.879,0,0,1,.559,1.035A4.774,4.774,0,0,1,75.09,8.922Zm-1.3.109a3.111,3.111,0,0,0-.406-1.715,1.323,1.323,0,0,0-1.18-.621,1.944,1.944,0,0,0-.867.2,2.953,2.953,0,0,0-.8.6,4.512,4.512,0,0,0-.574.762,7.791,7.791,0,0,0-.492.953,10.054,10.054,0,0,0-.395,1.074q-.172.563-.293,1.125t-.184,1.1a8.781,8.781,0,0,0-.062,1.008,4.622,4.622,0,0,0,.129,1.168,2.446,2.446,0,0,0,.355.8,1.412,1.412,0,0,0,.535.465,1.5,1.5,0,0,0,.66.148,1.958,1.958,0,0,0,.828-.187,2.451,2.451,0,0,0,.758-.562,5.037,5.037,0,0,0,.773-1.152,10.287,10.287,0,0,0,.629-1.559,13.045,13.045,0,0,0,.426-1.785A11.043,11.043,0,0,0,73.793,9.031Zm3.25,7.281a.854.854,0,0,1-.25.609.9.9,0,0,1-.277.188.836.836,0,0,1-.34.07.809.809,0,0,1-.336-.07.912.912,0,0,1-.273-.187.854.854,0,0,1-.25-.609.878.878,0,0,1,.066-.34.845.845,0,0,1,.184-.277.854.854,0,0,1,.609-.25.878.878,0,0,1,.34.066.834.834,0,0,1,.461.461A.878.878,0,0,1,77.043,16.313ZM87.2,8.922q0,.586-.055,1.223t-.172,1.285a12.945,12.945,0,0,1-.3,1.285,10.138,10.138,0,0,1-.441,1.23,8.318,8.318,0,0,1-.59,1.121,5.918,5.918,0,0,1-.746.957,3.614,3.614,0,0,1-2.7,1.172,2.709,2.709,0,0,1-1.16-.246,2.479,2.479,0,0,1-.9-.719,3.438,3.438,0,0,1-.582-1.164,5.551,5.551,0,0,1-.207-1.59,11.938,11.938,0,0,1,.141-1.793,11.1,11.1,0,0,1,.43-1.8,9.769,9.769,0,0,1,.719-1.66,6.191,6.191,0,0,1,1.016-1.375,4.129,4.129,0,0,1,1.242-.91,3.6,3.6,0,0,1,1.555-.324,2.927,2.927,0,0,1,1.133.211,2.318,2.318,0,0,1,.871.629A2.879,2.879,0,0,1,87,7.484,4.774,4.774,0,0,1,87.2,8.922Zm-1.3.109A3.111,3.111,0,0,0,85.5,7.316a1.323,1.323,0,0,0-1.18-.621,1.944,1.944,0,0,0-.867.2,2.953,2.953,0,0,0-.8.6,4.512,4.512,0,0,0-.574.762,7.791,7.791,0,0,0-.492.953,10.054,10.054,0,0,0-.395,1.074q-.172.563-.293,1.125t-.184,1.1a8.781,8.781,0,0,0-.062,1.008,4.622,4.622,0,0,0,.129,1.168,2.446,2.446,0,0,0,.355.8,1.412,1.412,0,0,0,.535.465,1.5,1.5,0,0,0,.66.148,1.958,1.958,0,0,0,.828-.187,2.451,2.451,0,0,0,.758-.562,5.037,5.037,0,0,0,.773-1.152,10.287,10.287,0,0,0,.629-1.559,13.045,13.045,0,0,0,.426-1.785A11.043,11.043,0,0,0,85.9,9.031Zm9.922-.109q0,.586-.055,1.223T95.6,11.43a12.945,12.945,0,0,1-.3,1.285,10.138,10.138,0,0,1-.441,1.23,8.318,8.318,0,0,1-.59,1.121,5.918,5.918,0,0,1-.746.957,3.614,3.614,0,0,1-2.7,1.172,2.709,2.709,0,0,1-1.16-.246,2.479,2.479,0,0,1-.9-.719,3.438,3.438,0,0,1-.582-1.164,5.551,5.551,0,0,1-.207-1.59,11.938,11.938,0,0,1,.141-1.793,11.1,11.1,0,0,1,.43-1.8,9.769,9.769,0,0,1,.719-1.66A6.191,6.191,0,0,1,90.27,6.844a4.129,4.129,0,0,1,1.242-.91,3.6,3.6,0,0,1,1.555-.324A2.927,2.927,0,0,1,94.2,5.82a2.318,2.318,0,0,1,.871.629,2.879,2.879,0,0,1,.559,1.035A4.774,4.774,0,0,1,95.824,8.922Zm-1.3.109a3.111,3.111,0,0,0-.406-1.715,1.323,1.323,0,0,0-1.18-.621,1.944,1.944,0,0,0-.867.2,2.953,2.953,0,0,0-.8.6,4.512,4.512,0,0,0-.574.762,7.791,7.791,0,0,0-.492.953,10.054,10.054,0,0,0-.395,1.074q-.172.563-.293,1.125t-.184,1.1a8.781,8.781,0,0,0-.062,1.008,4.622,4.622,0,0,0,.129,1.168,2.446,2.446,0,0,0,.355.8,1.412,1.412,0,0,0,.535.465,1.5,1.5,0,0,0,.66.148,1.958,1.958,0,0,0,.828-.187,2.451,2.451,0,0,0,.758-.562,5.037,5.037,0,0,0,.773-1.152,10.287,10.287,0,0,0,.629-1.559,13.045,13.045,0,0,0,.426-1.785A11.043,11.043,0,0,0,94.527,9.031Zm9.922-.109q0,.586-.055,1.223t-.172,1.285a12.945,12.945,0,0,1-.3,1.285,10.138,10.138,0,0,1-.441,1.23,8.318,8.318,0,0,1-.59,1.121,5.918,5.918,0,0,1-.746.957,3.614,3.614,0,0,1-2.7,1.172,2.709,2.709,0,0,1-1.16-.246,2.479,2.479,0,0,1-.9-.719,3.438,3.438,0,0,1-.582-1.164,5.551,5.551,0,0,1-.207-1.59,11.938,11.938,0,0,1,.141-1.793,11.1,11.1,0,0,1,.43-1.8,9.769,9.769,0,0,1,.719-1.66,6.191,6.191,0,0,1,1.016-1.375,4.129,4.129,0,0,1,1.242-.91,3.6,3.6,0,0,1,1.555-.324,2.927,2.927,0,0,1,1.133.211,2.318,2.318,0,0,1,.871.629,2.879,2.879,0,0,1,.559,1.035A4.774,4.774,0,0,1,104.449,8.922Zm-1.3.109a3.111,3.111,0,0,0-.406-1.715,1.323,1.323,0,0,0-1.18-.621,1.944,1.944,0,0,0-.867.2,2.953,2.953,0,0,0-.8.6,4.512,4.512,0,0,0-.574.762,7.791,7.791,0,0,0-.492.953,10.054,10.054,0,0,0-.395,1.074q-.172.563-.293,1.125t-.184,1.1a8.781,8.781,0,0,0-.062,1.008,4.622,4.622,0,0,0,.129,1.168,2.446,2.446,0,0,0,.355.8,1.412,1.412,0,0,0,.535.465,1.5,1.5,0,0,0,.66.148,1.958,1.958,0,0,0,.828-.187,2.451,2.451,0,0,0,.758-.562,5.037,5.037,0,0,0,.773-1.152,10.287,10.287,0,0,0,.629-1.559A13.045,13.045,0,0,0,103,10.855,11.043,11.043,0,0,0,103.152,9.031ZM49.586,27.922q0,.586-.055,1.223t-.172,1.285a12.946,12.946,0,0,1-.3,1.285,10.137,10.137,0,0,1-.441,1.23,8.317,8.317,0,0,1-.59,1.121,5.918,5.918,0,0,1-.746.957,3.614,3.614,0,0,1-2.7,1.172,2.709,2.709,0,0,1-1.16-.246,2.479,2.479,0,0,1-.9-.719,3.438,3.438,0,0,1-.582-1.164,5.551,5.551,0,0,1-.207-1.59,11.938,11.938,0,0,1,.141-1.793,11.1,11.1,0,0,1,.43-1.8,9.769,9.769,0,0,1,.719-1.66,6.191,6.191,0,0,1,1.016-1.375,4.129,4.129,0,0,1,1.242-.91,3.6,3.6,0,0,1,1.555-.324,2.927,2.927,0,0,1,1.133.211,2.318,2.318,0,0,1,.871.629,2.879,2.879,0,0,1,.559,1.035A4.775,4.775,0,0,1,49.586,27.922Zm-1.3.109a3.111,3.111,0,0,0-.406-1.715A1.323,1.323,0,0,0,46.7,25.7a1.944,1.944,0,0,0-.867.2,2.953,2.953,0,0,0-.8.6,4.512,4.512,0,0,0-.574.762,7.791,7.791,0,0,0-.492.953,10.053,10.053,0,0,0-.395,1.074q-.172.563-.293,1.125t-.184,1.1a8.781,8.781,0,0,0-.062,1.008,4.622,4.622,0,0,0,.129,1.168,2.446,2.446,0,0,0,.355.8,1.412,1.412,0,0,0,.535.465,1.5,1.5,0,0,0,.66.148,1.958,1.958,0,0,0,.828-.187,2.451,2.451,0,0,0,.758-.562,5.036,5.036,0,0,0,.773-1.152,10.288,10.288,0,0,0,.629-1.559,13.046,13.046,0,0,0,.426-1.785A11.042,11.042,0,0,0,48.289,28.031Zm1.742,10.031H49.023l1.57-3.836h1.281ZM56.711,36,58.8,26.242l-2.766.75.273-1.234,4.109-1.148L58.008,36Zm12.1-8.719a1.517,1.517,0,0,0-.449-1.168,1.759,1.759,0,0,0-1.246-.418,3.922,3.922,0,0,0-1.523.32,4.92,4.92,0,0,0-1.43.93l.32-1.437a4.15,4.15,0,0,1,1.355-.7,5.811,5.811,0,0,1,1.59-.2,2.888,2.888,0,0,1,1.992.66,2.26,2.26,0,0,1,.742,1.777,4.059,4.059,0,0,1-.324,1.676A4.455,4.455,0,0,1,68.8,30.117a13.8,13.8,0,0,1-2.078,1.531q-1.242.773-1.887,1.273a5.032,5.032,0,0,0-.957.922,2.657,2.657,0,0,0-.445,1.008h5.531L68.727,36H61.813l.117-.555a5.4,5.4,0,0,1,.605-1.625,5.57,5.57,0,0,1,1.129-1.32,19.257,19.257,0,0,1,2.242-1.609,13.31,13.31,0,0,0,1.723-1.25,4.048,4.048,0,0,0,.9-1.086A2.688,2.688,0,0,0,68.813,27.281Zm9.781-1.312H74.383L73.7,29.234l.828-.031a3.568,3.568,0,0,1,2.438.77,2.734,2.734,0,0,1,.875,2.168,4.074,4.074,0,0,1-.57,2.133,3.629,3.629,0,0,1-1.582,1.438,5.4,5.4,0,0,1-2.355.484,8.377,8.377,0,0,1-1.387-.117,4.335,4.335,0,0,1-1.1-.3l.289-1.258a3.418,3.418,0,0,0,1.031.422,5.058,5.058,0,0,0,1.258.164,3.605,3.605,0,0,0,1.672-.355,2.581,2.581,0,0,0,1.059-.977,2.681,2.681,0,0,0,.371-1.4,1.977,1.977,0,0,0-.562-1.527,2.581,2.581,0,0,0-1.789-.52q-1.086,0-1.945.078l1.18-5.6h5.422Z" transform="translate(71.051)" fill="#12263f"/>
        <path id="Trazado_908106" data-name="Trazado 908106" d="M23.578,8.742A4.3,4.3,0,0,1,23.3,10.3a3.463,3.463,0,0,1-.855,1.277,4.07,4.07,0,0,1-1.457.863,6.161,6.161,0,0,1-2.078.316H17.2L16.313,17H14.969L17.336,5.8h2.9a4.264,4.264,0,0,1,1.535.246,2.889,2.889,0,0,1,1.039.656,2.493,2.493,0,0,1,.586.941A3.349,3.349,0,0,1,23.578,8.742ZM22.2,8.859a1.986,1.986,0,0,0-.145-.77,1.589,1.589,0,0,0-.426-.594,1.937,1.937,0,0,0-.7-.379,3.189,3.189,0,0,0-.965-.133H18.438l-.977,4.594h1.57a4.37,4.37,0,0,0,1.426-.207,2.71,2.71,0,0,0,.984-.57,2.222,2.222,0,0,0,.57-.859A3.1,3.1,0,0,0,22.2,8.859Zm9.766-1.875h-4.32l-.812,3.82h4l-.258,1.188h-4l-.82,3.82h4.594L30.109,17H24.172L26.539,5.8h5.68ZM43.2,10.375a7.742,7.742,0,0,1-.6,3.031A6.684,6.684,0,0,1,40.93,15.8a5.049,5.049,0,0,1-2.469,1.246l2.25,2.656H38.953L37.133,17.2a4.756,4.756,0,0,1-2.367-.637A4.086,4.086,0,0,1,33.2,14.883a5.233,5.233,0,0,1-.551-2.43,7.054,7.054,0,0,1,1.742-4.914,5.6,5.6,0,0,1,4.336-1.93,4.536,4.536,0,0,1,2.348.605,4.011,4.011,0,0,1,1.574,1.7A5.42,5.42,0,0,1,43.2,10.375Zm-1.391.047a3.912,3.912,0,0,0-.852-2.645,2.922,2.922,0,0,0-2.336-.988,3.987,3.987,0,0,0-2.293.723,4.954,4.954,0,0,0-1.68,2.047,6.731,6.731,0,0,0-.621,2.895,3.722,3.722,0,0,0,.871,2.586,3.019,3.019,0,0,0,2.363.969,3.971,3.971,0,0,0,2.285-.7,4.816,4.816,0,0,0,1.645-2.062A6.776,6.776,0,0,0,41.8,10.422Zm8.234.773V10.148h7.344V11.2Zm0,3.328V13.477h7.344v1.047Z" transform="translate(0.051 9)" fill="#12263f"/>
        <line id="Línea_575-2" data-name="Línea 575" x2="126" transform="translate(65.894 18.5)" fill="none" stroke="#12263f" stroke-width="1"/>
      </g>
      <path id="Trazado_908108" data-name="Trazado 908108" d="M36.574,8.742a4.3,4.3,0,0,1-.281,1.559,3.463,3.463,0,0,1-.855,1.277,4.07,4.07,0,0,1-1.457.863,6.161,6.161,0,0,1-2.078.316H30.2L29.309,17H27.965L30.332,5.8h2.9a4.264,4.264,0,0,1,1.535.246A2.889,2.889,0,0,1,35.8,6.7a2.493,2.493,0,0,1,.586.941A3.349,3.349,0,0,1,36.574,8.742Zm-1.383.117a1.986,1.986,0,0,0-.145-.77,1.589,1.589,0,0,0-.426-.594,1.937,1.937,0,0,0-.7-.379,3.189,3.189,0,0,0-.965-.133H31.434l-.977,4.594h1.57a4.37,4.37,0,0,0,1.426-.207,2.71,2.71,0,0,0,.984-.57,2.222,2.222,0,0,0,.57-.859A3.1,3.1,0,0,0,35.191,8.859Zm9.766-1.875h-4.32l-.812,3.82h4l-.258,1.188h-4l-.82,3.82H43.34L43.105,17H37.168L39.535,5.8h5.68Zm11.234,3.391a7.742,7.742,0,0,1-.6,3.031A6.684,6.684,0,0,1,53.926,15.8a5.049,5.049,0,0,1-2.469,1.246l2.25,2.656H51.949L50.129,17.2a4.756,4.756,0,0,1-2.367-.637A4.086,4.086,0,0,1,46.2,14.883a5.233,5.233,0,0,1-.551-2.43,7.054,7.054,0,0,1,1.742-4.914,5.6,5.6,0,0,1,4.336-1.93,4.536,4.536,0,0,1,2.348.605,4.011,4.011,0,0,1,1.574,1.7A5.42,5.42,0,0,1,56.191,10.375Zm-1.391.047a3.912,3.912,0,0,0-.852-2.645,2.922,2.922,0,0,0-2.336-.988,3.987,3.987,0,0,0-2.293.723,4.954,4.954,0,0,0-1.68,2.047,6.731,6.731,0,0,0-.621,2.895,3.722,3.722,0,0,0,.871,2.586,3.019,3.019,0,0,0,2.363.969,3.971,3.971,0,0,0,2.285-.7,4.816,4.816,0,0,0,1.645-2.062A6.776,6.776,0,0,0,54.8,10.422Zm8.234.773V10.148h7.344V11.2Zm0,3.328V13.477h7.344v1.047ZM84.348,7.367q-.164-.094-.383-.191t-.473-.184q-.254-.086-.523-.148a3.9,3.9,0,0,0-.527-.086l-.93,4.32q.414.3.8.625a5.324,5.324,0,0,1,.691.676,3.245,3.245,0,0,1,.484.762,2.118,2.118,0,0,1,.184.883,3.447,3.447,0,0,1-.172,1.059,2.637,2.637,0,0,1-.574.977,3.174,3.174,0,0,1-1.062.738,4.312,4.312,0,0,1-1.629.328L79.9,18.633h-.8l.32-1.523a5.563,5.563,0,0,1-.687-.078q-.359-.062-.687-.148t-.609-.184a3.5,3.5,0,0,1-.461-.191l.219-1.266a4.014,4.014,0,0,0,.512.273,6.423,6.423,0,0,0,.621.242q.328.109.664.188a5.158,5.158,0,0,0,.641.109l.891-4.141q-.477-.344-.883-.676a4.568,4.568,0,0,1-.7-.7,2.961,2.961,0,0,1-.457-.816,2.9,2.9,0,0,1-.164-1.008A2.811,2.811,0,0,1,78.57,7.52a2.859,2.859,0,0,1,.715-.957A3.456,3.456,0,0,1,80.4,5.918a4.323,4.323,0,0,1,1.449-.246l.273-1.3h.82L82.652,5.7a5.513,5.513,0,0,1,1.055.18,7,7,0,0,1,.867.289Zm-2.734-.625a2.4,2.4,0,0,0-.863.2,1.956,1.956,0,0,0-.621.441,1.813,1.813,0,0,0-.375.605,1.957,1.957,0,0,0-.125.688,1.743,1.743,0,0,0,.086.555,1.917,1.917,0,0,0,.242.484,2.708,2.708,0,0,0,.371.43,6.035,6.035,0,0,0,.48.406Zm.75,7.406a1.492,1.492,0,0,0-.062-.434,1.654,1.654,0,0,0-.2-.414,2.471,2.471,0,0,0-.352-.422,6.057,6.057,0,0,0-.531-.457l-.75,3.633a2.347,2.347,0,0,0,.863-.215,1.877,1.877,0,0,0,.586-.437,1.652,1.652,0,0,0,.336-.586A2.146,2.146,0,0,0,82.363,14.148ZM93.254,5.8l-1.57,7.4h1.469l-.25,1.172H91.434L90.871,17H89.605l.563-2.633H84.91l.234-1.109a48.652,48.652,0,0,0,3.477-3.523Q90.4,7.75,91.84,5.8Zm-2.836,7.4,1.141-5.367A56.664,56.664,0,0,1,86.668,13.2Zm11.8-4.273q0,.586-.055,1.223T102,11.43a12.945,12.945,0,0,1-.3,1.285,10.138,10.138,0,0,1-.441,1.23,8.318,8.318,0,0,1-.59,1.121,5.918,5.918,0,0,1-.746.957,3.614,3.614,0,0,1-2.7,1.172,2.709,2.709,0,0,1-1.16-.246,2.479,2.479,0,0,1-.9-.719,3.438,3.438,0,0,1-.582-1.164,5.551,5.551,0,0,1-.207-1.59,11.938,11.938,0,0,1,.141-1.793,11.1,11.1,0,0,1,.43-1.8,9.769,9.769,0,0,1,.719-1.66,6.191,6.191,0,0,1,1.016-1.375,4.129,4.129,0,0,1,1.242-.91,3.6,3.6,0,0,1,1.555-.324,2.927,2.927,0,0,1,1.133.211,2.318,2.318,0,0,1,.871.629,2.879,2.879,0,0,1,.559,1.035A4.774,4.774,0,0,1,102.223,8.922Zm-1.3.109a3.111,3.111,0,0,0-.406-1.715A1.323,1.323,0,0,0,99.34,6.7a1.944,1.944,0,0,0-.867.2,2.953,2.953,0,0,0-.8.6,4.512,4.512,0,0,0-.574.762,7.791,7.791,0,0,0-.492.953,10.054,10.054,0,0,0-.395,1.074q-.172.563-.293,1.125t-.184,1.1a8.781,8.781,0,0,0-.062,1.008,4.622,4.622,0,0,0,.129,1.168,2.446,2.446,0,0,0,.355.8,1.412,1.412,0,0,0,.535.465,1.5,1.5,0,0,0,.66.148,1.958,1.958,0,0,0,.828-.187,2.451,2.451,0,0,0,.758-.562,5.037,5.037,0,0,0,.773-1.152,10.287,10.287,0,0,0,.629-1.559,13.045,13.045,0,0,0,.426-1.785A11.043,11.043,0,0,0,100.926,9.031Zm9.922-.109q0,.586-.055,1.223t-.172,1.285a12.945,12.945,0,0,1-.3,1.285,10.138,10.138,0,0,1-.441,1.23,8.318,8.318,0,0,1-.59,1.121,5.918,5.918,0,0,1-.746.957,3.614,3.614,0,0,1-2.7,1.172,2.709,2.709,0,0,1-1.16-.246,2.479,2.479,0,0,1-.9-.719,3.438,3.438,0,0,1-.582-1.164,5.551,5.551,0,0,1-.207-1.59,11.938,11.938,0,0,1,.141-1.793,11.1,11.1,0,0,1,.43-1.8,9.769,9.769,0,0,1,.719-1.66,6.191,6.191,0,0,1,1.016-1.375,4.129,4.129,0,0,1,1.242-.91,3.6,3.6,0,0,1,1.555-.324,2.927,2.927,0,0,1,1.133.211,2.318,2.318,0,0,1,.871.629,2.879,2.879,0,0,1,.559,1.035A4.774,4.774,0,0,1,110.848,8.922Zm-1.3.109a3.111,3.111,0,0,0-.406-1.715,1.323,1.323,0,0,0-1.18-.621,1.944,1.944,0,0,0-.867.2,2.953,2.953,0,0,0-.8.6,4.512,4.512,0,0,0-.574.762,7.791,7.791,0,0,0-.492.953,10.054,10.054,0,0,0-.395,1.074q-.172.563-.293,1.125t-.184,1.1a8.781,8.781,0,0,0-.062,1.008,4.622,4.622,0,0,0,.129,1.168,2.446,2.446,0,0,0,.355.8,1.412,1.412,0,0,0,.535.465,1.5,1.5,0,0,0,.66.148,1.958,1.958,0,0,0,.828-.187,2.451,2.451,0,0,0,.758-.562,5.037,5.037,0,0,0,.773-1.152,10.287,10.287,0,0,0,.629-1.559,13.045,13.045,0,0,0,.426-1.785A11.043,11.043,0,0,0,109.551,9.031Zm3.25,7.281a.854.854,0,0,1-.25.609.9.9,0,0,1-.277.188.836.836,0,0,1-.34.07.809.809,0,0,1-.336-.07.912.912,0,0,1-.273-.187.854.854,0,0,1-.25-.609.878.878,0,0,1,.066-.34.845.845,0,0,1,.184-.277.854.854,0,0,1,.609-.25.878.878,0,0,1,.34.066.834.834,0,0,1,.461.461A.878.878,0,0,1,112.8,16.313Zm10.156-7.391q0,.586-.055,1.223t-.172,1.285a12.945,12.945,0,0,1-.3,1.285,10.138,10.138,0,0,1-.441,1.23,8.318,8.318,0,0,1-.59,1.121,5.918,5.918,0,0,1-.746.957,3.614,3.614,0,0,1-2.7,1.172,2.709,2.709,0,0,1-1.16-.246,2.479,2.479,0,0,1-.9-.719,3.438,3.438,0,0,1-.582-1.164,5.551,5.551,0,0,1-.207-1.59,11.938,11.938,0,0,1,.141-1.793,11.1,11.1,0,0,1,.43-1.8,9.769,9.769,0,0,1,.719-1.66A6.191,6.191,0,0,1,117.4,6.844a4.129,4.129,0,0,1,1.242-.91,3.6,3.6,0,0,1,1.555-.324,2.927,2.927,0,0,1,1.133.211,2.318,2.318,0,0,1,.871.629,2.879,2.879,0,0,1,.559,1.035A4.774,4.774,0,0,1,122.957,8.922Zm-1.3.109a3.111,3.111,0,0,0-.406-1.715,1.323,1.323,0,0,0-1.18-.621,1.944,1.944,0,0,0-.867.2,2.953,2.953,0,0,0-.8.6,4.512,4.512,0,0,0-.574.762,7.791,7.791,0,0,0-.492.953,10.054,10.054,0,0,0-.395,1.074q-.172.563-.293,1.125t-.184,1.1a8.781,8.781,0,0,0-.062,1.008,4.622,4.622,0,0,0,.129,1.168,2.446,2.446,0,0,0,.355.8,1.412,1.412,0,0,0,.535.465,1.5,1.5,0,0,0,.66.148,1.958,1.958,0,0,0,.828-.187,2.451,2.451,0,0,0,.758-.562,5.037,5.037,0,0,0,.773-1.152,10.287,10.287,0,0,0,.629-1.559,13.045,13.045,0,0,0,.426-1.785A11.043,11.043,0,0,0,121.66,9.031Zm9.922-.109q0,.586-.055,1.223t-.172,1.285a12.947,12.947,0,0,1-.3,1.285,10.137,10.137,0,0,1-.441,1.23,8.317,8.317,0,0,1-.59,1.121,5.918,5.918,0,0,1-.746.957,3.614,3.614,0,0,1-2.7,1.172,2.709,2.709,0,0,1-1.16-.246,2.479,2.479,0,0,1-.9-.719,3.438,3.438,0,0,1-.582-1.164,5.551,5.551,0,0,1-.207-1.59,11.938,11.938,0,0,1,.141-1.793,11.1,11.1,0,0,1,.43-1.8,9.769,9.769,0,0,1,.719-1.66,6.191,6.191,0,0,1,1.016-1.375,4.129,4.129,0,0,1,1.242-.91,3.6,3.6,0,0,1,1.555-.324,2.927,2.927,0,0,1,1.133.211,2.318,2.318,0,0,1,.871.629,2.879,2.879,0,0,1,.559,1.035A4.775,4.775,0,0,1,131.582,8.922Zm-1.3.109a3.111,3.111,0,0,0-.406-1.715A1.323,1.323,0,0,0,128.7,6.7a1.944,1.944,0,0,0-.867.2,2.953,2.953,0,0,0-.8.6,4.512,4.512,0,0,0-.574.762,7.791,7.791,0,0,0-.492.953,10.054,10.054,0,0,0-.395,1.074q-.172.563-.293,1.125t-.184,1.1a8.781,8.781,0,0,0-.062,1.008,4.622,4.622,0,0,0,.129,1.168,2.446,2.446,0,0,0,.355.8,1.412,1.412,0,0,0,.535.465,1.5,1.5,0,0,0,.66.148,1.958,1.958,0,0,0,.828-.187,2.451,2.451,0,0,0,.758-.562,5.036,5.036,0,0,0,.773-1.152,10.288,10.288,0,0,0,.629-1.559,13.046,13.046,0,0,0,.426-1.785A11.042,11.042,0,0,0,130.285,9.031Zm9.922-.109q0,.586-.055,1.223t-.172,1.285a12.947,12.947,0,0,1-.3,1.285,10.137,10.137,0,0,1-.441,1.23,8.317,8.317,0,0,1-.59,1.121,5.918,5.918,0,0,1-.746.957,3.614,3.614,0,0,1-2.7,1.172,2.709,2.709,0,0,1-1.16-.246,2.479,2.479,0,0,1-.9-.719,3.438,3.438,0,0,1-.582-1.164,5.551,5.551,0,0,1-.207-1.59,11.938,11.938,0,0,1,.141-1.793,11.1,11.1,0,0,1,.43-1.8,9.769,9.769,0,0,1,.719-1.66,6.19,6.19,0,0,1,1.016-1.375,4.13,4.13,0,0,1,1.242-.91,3.6,3.6,0,0,1,1.555-.324,2.927,2.927,0,0,1,1.133.211,2.318,2.318,0,0,1,.871.629,2.879,2.879,0,0,1,.559,1.035A4.775,4.775,0,0,1,140.207,8.922Zm-1.3.109a3.111,3.111,0,0,0-.406-1.715,1.323,1.323,0,0,0-1.18-.621,1.944,1.944,0,0,0-.867.2,2.953,2.953,0,0,0-.8.6,4.512,4.512,0,0,0-.574.762,7.791,7.791,0,0,0-.492.953,10.052,10.052,0,0,0-.395,1.074q-.172.563-.293,1.125t-.184,1.1a8.78,8.78,0,0,0-.062,1.008,4.622,4.622,0,0,0,.129,1.168,2.446,2.446,0,0,0,.355.8,1.412,1.412,0,0,0,.535.465,1.5,1.5,0,0,0,.66.148,1.958,1.958,0,0,0,.828-.187,2.451,2.451,0,0,0,.758-.562A5.036,5.036,0,0,0,137.7,14.2a10.288,10.288,0,0,0,.629-1.559,13.046,13.046,0,0,0,.426-1.785A11.042,11.042,0,0,0,138.91,9.031Zm3.25,7.281a.854.854,0,0,1-.25.609.9.9,0,0,1-.277.188.836.836,0,0,1-.34.07.809.809,0,0,1-.336-.07.912.912,0,0,1-.273-.187.854.854,0,0,1-.25-.609.879.879,0,0,1,.066-.34.845.845,0,0,1,.184-.277.854.854,0,0,1,.609-.25.878.878,0,0,1,.34.066.834.834,0,0,1,.461.461A.879.879,0,0,1,142.16,16.313Zm10.156-7.391q0,.586-.055,1.223t-.172,1.285a12.947,12.947,0,0,1-.3,1.285,10.137,10.137,0,0,1-.441,1.23,8.317,8.317,0,0,1-.59,1.121,5.918,5.918,0,0,1-.746.957,3.614,3.614,0,0,1-2.7,1.172,2.709,2.709,0,0,1-1.16-.246,2.479,2.479,0,0,1-.9-.719,3.438,3.438,0,0,1-.582-1.164,5.551,5.551,0,0,1-.207-1.59,11.938,11.938,0,0,1,.141-1.793,11.1,11.1,0,0,1,.43-1.8,9.769,9.769,0,0,1,.719-1.66,6.19,6.19,0,0,1,1.016-1.375A4.13,4.13,0,0,1,148,5.934a3.6,3.6,0,0,1,1.555-.324,2.927,2.927,0,0,1,1.133.211,2.318,2.318,0,0,1,.871.629,2.879,2.879,0,0,1,.559,1.035A4.775,4.775,0,0,1,152.316,8.922Zm-1.3.109a3.111,3.111,0,0,0-.406-1.715,1.323,1.323,0,0,0-1.18-.621,1.944,1.944,0,0,0-.867.2,2.953,2.953,0,0,0-.8.6,4.512,4.512,0,0,0-.574.762,7.791,7.791,0,0,0-.492.953,10.052,10.052,0,0,0-.395,1.074q-.172.563-.293,1.125t-.184,1.1a8.78,8.78,0,0,0-.062,1.008,4.622,4.622,0,0,0,.129,1.168,2.446,2.446,0,0,0,.355.8,1.412,1.412,0,0,0,.535.465,1.5,1.5,0,0,0,.66.148,1.958,1.958,0,0,0,.828-.187,2.451,2.451,0,0,0,.758-.562,5.036,5.036,0,0,0,.773-1.152,10.288,10.288,0,0,0,.629-1.559,13.046,13.046,0,0,0,.426-1.785A11.042,11.042,0,0,0,151.02,9.031Zm9.922-.109q0,.586-.055,1.223t-.172,1.285a12.947,12.947,0,0,1-.3,1.285,10.137,10.137,0,0,1-.441,1.23,8.317,8.317,0,0,1-.59,1.121,5.918,5.918,0,0,1-.746.957,3.614,3.614,0,0,1-2.7,1.172,2.709,2.709,0,0,1-1.16-.246,2.479,2.479,0,0,1-.9-.719,3.438,3.438,0,0,1-.582-1.164,5.551,5.551,0,0,1-.207-1.59,11.938,11.938,0,0,1,.141-1.793,11.1,11.1,0,0,1,.43-1.8,9.769,9.769,0,0,1,.719-1.66,6.19,6.19,0,0,1,1.016-1.375,4.13,4.13,0,0,1,1.242-.91,3.6,3.6,0,0,1,1.555-.324,2.927,2.927,0,0,1,1.133.211,2.318,2.318,0,0,1,.871.629,2.879,2.879,0,0,1,.559,1.035A4.775,4.775,0,0,1,160.941,8.922Zm-1.3.109a3.111,3.111,0,0,0-.406-1.715,1.323,1.323,0,0,0-1.18-.621,1.944,1.944,0,0,0-.867.2,2.953,2.953,0,0,0-.8.6,4.512,4.512,0,0,0-.574.762,7.791,7.791,0,0,0-.492.953,10.052,10.052,0,0,0-.395,1.074q-.172.563-.293,1.125t-.184,1.1a8.78,8.78,0,0,0-.062,1.008,4.622,4.622,0,0,0,.129,1.168,2.446,2.446,0,0,0,.355.8,1.412,1.412,0,0,0,.535.465,1.5,1.5,0,0,0,.66.148,1.958,1.958,0,0,0,.828-.187,2.451,2.451,0,0,0,.758-.562,5.036,5.036,0,0,0,.773-1.152,10.288,10.288,0,0,0,.629-1.559,13.046,13.046,0,0,0,.426-1.785A11.042,11.042,0,0,0,159.645,9.031Zm9.922-.109q0,.586-.055,1.223t-.172,1.285a12.947,12.947,0,0,1-.3,1.285,10.137,10.137,0,0,1-.441,1.23,8.317,8.317,0,0,1-.59,1.121,5.918,5.918,0,0,1-.746.957,3.614,3.614,0,0,1-2.7,1.172,2.709,2.709,0,0,1-1.16-.246,2.479,2.479,0,0,1-.9-.719,3.438,3.438,0,0,1-.582-1.164,5.551,5.551,0,0,1-.207-1.59,11.938,11.938,0,0,1,.141-1.793,11.1,11.1,0,0,1,.43-1.8A9.769,9.769,0,0,1,163,8.219a6.19,6.19,0,0,1,1.016-1.375,4.13,4.13,0,0,1,1.242-.91,3.6,3.6,0,0,1,1.555-.324,2.927,2.927,0,0,1,1.133.211,2.318,2.318,0,0,1,.871.629,2.879,2.879,0,0,1,.559,1.035A4.775,4.775,0,0,1,169.566,8.922Zm-1.3.109a3.111,3.111,0,0,0-.406-1.715,1.323,1.323,0,0,0-1.18-.621,1.944,1.944,0,0,0-.867.2,2.953,2.953,0,0,0-.8.6,4.512,4.512,0,0,0-.574.762,7.791,7.791,0,0,0-.492.953,10.052,10.052,0,0,0-.395,1.074q-.172.563-.293,1.125t-.184,1.1a8.78,8.78,0,0,0-.062,1.008,4.622,4.622,0,0,0,.129,1.168,2.446,2.446,0,0,0,.355.8,1.412,1.412,0,0,0,.535.465,1.5,1.5,0,0,0,.66.148,1.958,1.958,0,0,0,.828-.187,2.451,2.451,0,0,0,.758-.562,5.036,5.036,0,0,0,.773-1.152,10.288,10.288,0,0,0,.629-1.559,13.046,13.046,0,0,0,.426-1.785A11.042,11.042,0,0,0,168.27,9.031Z" transform="translate(51.051 129)" fill="#12263f"/>
    </g>
  </g>
</svg>
