<svg xmlns="http://www.w3.org/2000/svg" width="259.751" height="82" viewBox="0 0 259.751 82">
  <g id="Grupo_1113394" data-name="Grupo 1113394" transform="translate(-244.102 -301.46)">
    <g id="Grupo_1113326" data-name="Grupo 1113326" transform="translate(-145.898 -1935.54)">
      <rect id="Rectángulo_406002" data-name="Rectángulo 406002" width="248.751" height="74" transform="translate(401 2245)" fill="#bce0fc"/>
      <g id="Rectángulo_406003" data-name="Rectángulo 406003" transform="translate(390 2237)" fill="#fbfbf9" stroke="#000" stroke-width="0.5">
        <rect width="255.751" height="76" stroke="none"/>
        <rect x="0.25" y="0.25" width="255.251" height="75.5" fill="none"/>
      </g>
    </g>
    <g id="Grupo_1113327" data-name="Grupo 1113327" transform="translate(-173.898 -1935.54)">
      <path id="Trazado_908098" data-name="Trazado 908098" d="M46.141,7.656q-.227-.148-.52-.3a4.751,4.751,0,0,0-.645-.281,5.089,5.089,0,0,0-.77-.2,4.868,4.868,0,0,0-.895-.078A5.2,5.2,0,0,0,41.2,7.2a4.639,4.639,0,0,0-1.6,1.141,5.119,5.119,0,0,0-1.012,1.707,6.178,6.178,0,0,0-.355,2.121,4.834,4.834,0,0,0,.258,1.645,3.3,3.3,0,0,0,.734,1.2,3.1,3.1,0,0,0,1.141.738,4.139,4.139,0,0,0,1.469.25,6.851,6.851,0,0,0,.938-.059,5.428,5.428,0,0,0,.781-.164,5.041,5.041,0,0,0,.676-.25q.316-.145.613-.309l-.3,1.375a6.456,6.456,0,0,1-1.355.441,7.887,7.887,0,0,1-1.621.152,5.123,5.123,0,0,1-1.934-.352,4.177,4.177,0,0,1-1.484-1A4.474,4.474,0,0,1,37.2,14.3a5.762,5.762,0,0,1-.336-2.016,7.548,7.548,0,0,1,.465-2.7,6.092,6.092,0,0,1,1.32-2.109A5.988,5.988,0,0,1,40.7,6.1a6.944,6.944,0,0,1,2.66-.492,6.6,6.6,0,0,1,1.77.215,6.945,6.945,0,0,1,1.3.488Zm8.242-.641h-4.32l-.828,3.828H53.25l-.258,1.211H48.977L47.938,17H46.594L48.961,5.8h5.68Zm5.648,5.844v3.148H59.008V12.859H55.836V11.813h3.172V8.664h1.023v3.148H63.18v1.047ZM74.539,12.6a11.212,11.212,0,0,1-.59,1.949,4.645,4.645,0,0,1-.914,1.441,3.668,3.668,0,0,1-1.363.895,5.394,5.394,0,0,1-1.93.309,4.117,4.117,0,0,1-1.547-.273,3.15,3.15,0,0,1-1.844-1.875,3.988,3.988,0,0,1-.242-1.406,7.552,7.552,0,0,1,.043-.758q.043-.422.113-.8L67.625,5.8h1.352l-1.352,6.211q-.031.18-.066.391t-.062.422q-.027.211-.043.4t-.016.328a2.872,2.872,0,0,0,.188,1.086,2.089,2.089,0,0,0,.52.766,2.172,2.172,0,0,0,.781.457,3.01,3.01,0,0,0,.973.152,3.508,3.508,0,0,0,1.188-.187,2.465,2.465,0,0,0,.922-.586,3.486,3.486,0,0,0,.684-1.016,7.194,7.194,0,0,0,.473-1.477L74.656,5.8H76Zm12.227-2.273a8.2,8.2,0,0,1-.168,1.648,6.961,6.961,0,0,1-.516,1.563,5.965,5.965,0,0,1-.895,1.375,5.531,5.531,0,0,1-1.3,1.1,6.521,6.521,0,0,1-1.738.727,8.532,8.532,0,0,1-2.2.262H76.4L78.781,5.8H81.9a6.1,6.1,0,0,1,1.992.309A4.294,4.294,0,0,1,85.426,7a4.017,4.017,0,0,1,.988,1.426A4.886,4.886,0,0,1,86.766,10.328Zm-1.375.094a3.306,3.306,0,0,0-.961-2.539,4.036,4.036,0,0,0-2.852-.9H79.867l-1.891,8.828h2.086a5.9,5.9,0,0,0,2.316-.422,4.679,4.679,0,0,0,1.664-1.156,4.9,4.9,0,0,0,1.008-1.715A6.361,6.361,0,0,0,85.391,10.422ZM26.566,24.8a18.768,18.768,0,0,0-1.746,1.969,13.3,13.3,0,0,0-1.324,2.1,11.049,11.049,0,0,0-.844,2.254,9.991,9.991,0,0,0-.215,3.7,9.556,9.556,0,0,0,.246,1.25,10.148,10.148,0,0,0,.4,1.191,7.436,7.436,0,0,0,.539,1.078h-1.1a7.428,7.428,0,0,1-.574-1.1,9.192,9.192,0,0,1-.41-1.191,9.557,9.557,0,0,1-.246-1.227,9.129,9.129,0,0,1-.082-1.2,10.858,10.858,0,0,1,.289-2.551,11.1,11.1,0,0,1,.82-2.285,12.112,12.112,0,0,1,1.293-2.074,18.133,18.133,0,0,1,1.707-1.91Zm7.7,2.945a4.3,4.3,0,0,1-.281,1.559,3.463,3.463,0,0,1-.855,1.277,4.07,4.07,0,0,1-1.457.863,6.161,6.161,0,0,1-2.078.316h-1.7L27,36H25.66l2.367-11.2h2.9a4.264,4.264,0,0,1,1.535.246A2.889,2.889,0,0,1,33.5,25.7a2.493,2.493,0,0,1,.586.941A3.349,3.349,0,0,1,34.27,27.742Zm-1.383.117a1.986,1.986,0,0,0-.145-.77,1.589,1.589,0,0,0-.426-.594,1.937,1.937,0,0,0-.7-.379,3.189,3.189,0,0,0-.965-.133H29.129l-.977,4.594h1.57a4.37,4.37,0,0,0,1.426-.207,2.71,2.71,0,0,0,.984-.57,2.222,2.222,0,0,0,.57-.859A3.1,3.1,0,0,0,32.887,27.859ZM38.941,36H37.629l-1.68-11.2h1.359l1.234,8.773a4.182,4.182,0,0,1,.055.5,2.856,2.856,0,0,1-.008.48h.031q.039-.1.09-.227t.117-.254l.133-.258q.066-.129.121-.238L44.09,24.8H45.6Zm15.133-4.4a11.212,11.212,0,0,1-.59,1.949,4.645,4.645,0,0,1-.914,1.441,3.668,3.668,0,0,1-1.363.895,5.394,5.394,0,0,1-1.93.309,4.117,4.117,0,0,1-1.547-.273,3.248,3.248,0,0,1-1.141-.75,3.216,3.216,0,0,1-.7-1.125,3.988,3.988,0,0,1-.242-1.406,7.553,7.553,0,0,1,.043-.758q.043-.422.113-.8L47.16,24.8h1.352L47.16,31.008q-.031.18-.066.391t-.062.422q-.027.211-.043.4t-.016.328a2.872,2.872,0,0,0,.188,1.086,2.089,2.089,0,0,0,.52.766,2.172,2.172,0,0,0,.781.457,3.01,3.01,0,0,0,.973.152,3.508,3.508,0,0,0,1.188-.187,2.465,2.465,0,0,0,.922-.586,3.487,3.487,0,0,0,.684-1.016,7.194,7.194,0,0,0,.473-1.477L54.191,24.8h1.344Zm6.578.445H56.379l.227-1.008h4.273Zm11.453-5.391q-.227-.148-.52-.3a4.751,4.751,0,0,0-.645-.281,5.088,5.088,0,0,0-.77-.2,4.868,4.868,0,0,0-.895-.078,5.2,5.2,0,0,0-2.113.414,4.639,4.639,0,0,0-1.6,1.141,5.119,5.119,0,0,0-1.012,1.707,6.178,6.178,0,0,0-.355,2.121,4.834,4.834,0,0,0,.258,1.645,3.3,3.3,0,0,0,.734,1.2,3.1,3.1,0,0,0,1.141.738,4.139,4.139,0,0,0,1.469.25,6.851,6.851,0,0,0,.938-.059,5.428,5.428,0,0,0,.781-.164,5.041,5.041,0,0,0,.676-.25q.316-.145.613-.309L70.5,35.6a6.456,6.456,0,0,1-1.355.441,7.887,7.887,0,0,1-1.621.152,5.123,5.123,0,0,1-1.934-.352,4.177,4.177,0,0,1-1.484-1A4.474,4.474,0,0,1,63.16,33.3a5.762,5.762,0,0,1-.336-2.016,7.548,7.548,0,0,1,.465-2.7,6.092,6.092,0,0,1,1.32-2.109A5.988,5.988,0,0,1,66.664,25.1a6.944,6.944,0,0,1,2.66-.492,6.6,6.6,0,0,1,1.77.215,6.945,6.945,0,0,1,1.3.488ZM76.637,36H75.324l-1.68-11.2H75l1.234,8.773a4.182,4.182,0,0,1,.055.5,2.856,2.856,0,0,1-.008.48h.031q.039-.1.09-.227t.117-.254l.133-.258q.066-.129.121-.238L81.785,24.8h1.508ZM91.77,31.6a11.212,11.212,0,0,1-.59,1.949,4.645,4.645,0,0,1-.914,1.441,3.668,3.668,0,0,1-1.363.895,5.394,5.394,0,0,1-1.93.309,4.117,4.117,0,0,1-1.547-.273,3.248,3.248,0,0,1-1.141-.75,3.216,3.216,0,0,1-.7-1.125,3.988,3.988,0,0,1-.242-1.406,7.552,7.552,0,0,1,.043-.758q.043-.422.113-.8L84.855,24.8h1.352l-1.352,6.211q-.031.18-.066.391t-.062.422q-.027.211-.043.4t-.016.328a2.872,2.872,0,0,0,.188,1.086,2.089,2.089,0,0,0,.52.766,2.172,2.172,0,0,0,.781.457,3.01,3.01,0,0,0,.973.152,3.508,3.508,0,0,0,1.188-.187,2.465,2.465,0,0,0,.922-.586,3.487,3.487,0,0,0,.684-1.016,7.194,7.194,0,0,0,.473-1.477L91.887,24.8H93.23Zm5.219-2.078a10.731,10.731,0,0,1-1.113,4.832,12.372,12.372,0,0,1-1.3,2.07,18.133,18.133,0,0,1-1.707,1.91H91.613a19.358,19.358,0,0,0,1.75-1.965,12.993,12.993,0,0,0,1.328-2.1,11.048,11.048,0,0,0,.844-2.254,9.97,9.97,0,0,0,.215-3.691,10.184,10.184,0,0,0-.242-1.25,9.587,9.587,0,0,0-.395-1.2,7.809,7.809,0,0,0-.539-1.086H95.66a7.982,7.982,0,0,1,.578,1.109,9.014,9.014,0,0,1,.414,1.2,10.08,10.08,0,0,1,.25,1.223A8.638,8.638,0,0,1,96.988,29.523Zm4.867,0a10.731,10.731,0,0,1-1.113,4.832,12.372,12.372,0,0,1-1.3,2.07,18.133,18.133,0,0,1-1.707,1.91H96.48a19.358,19.358,0,0,0,1.75-1.965,12.993,12.993,0,0,0,1.328-2.1,11.048,11.048,0,0,0,.844-2.254,9.97,9.97,0,0,0,.215-3.691,10.184,10.184,0,0,0-.242-1.25,9.587,9.587,0,0,0-.395-1.2,7.809,7.809,0,0,0-.539-1.086h1.086a7.982,7.982,0,0,1,.578,1.109,9.014,9.014,0,0,1,.414,1.2,10.08,10.08,0,0,1,.25,1.223A8.638,8.638,0,0,1,101.855,29.523Z" transform="translate(520 2256)" fill="#12263f"/>
      <path id="Trazado_908097" data-name="Trazado 908097" d="M24.578,8.742A4.3,4.3,0,0,1,24.3,10.3a3.463,3.463,0,0,1-.855,1.277,4.07,4.07,0,0,1-1.457.863,6.161,6.161,0,0,1-2.078.316H18.2L17.313,17H15.969L18.336,5.8h2.9a4.264,4.264,0,0,1,1.535.246,2.889,2.889,0,0,1,1.039.656,2.493,2.493,0,0,1,.586.941A3.349,3.349,0,0,1,24.578,8.742ZM23.2,8.859a1.986,1.986,0,0,0-.145-.77,1.589,1.589,0,0,0-.426-.594,1.937,1.937,0,0,0-.7-.379,3.189,3.189,0,0,0-.965-.133H19.438l-.977,4.594h1.57a4.37,4.37,0,0,0,1.426-.207,2.71,2.71,0,0,0,.984-.57,2.222,2.222,0,0,0,.57-.859A3.1,3.1,0,0,0,23.2,8.859Zm9.766-1.875h-4.32l-.812,3.82h4l-.258,1.188h-4l-.82,3.82h4.594L31.109,17H25.172L27.539,5.8h5.68ZM44.2,10.375a7.742,7.742,0,0,1-.6,3.031A6.684,6.684,0,0,1,41.93,15.8a5.049,5.049,0,0,1-2.469,1.246l2.25,2.656H39.953L38.133,17.2a4.756,4.756,0,0,1-2.367-.637A4.086,4.086,0,0,1,34.2,14.883a5.233,5.233,0,0,1-.551-2.43,7.054,7.054,0,0,1,1.742-4.914,5.6,5.6,0,0,1,4.336-1.93,4.536,4.536,0,0,1,2.348.605,4.011,4.011,0,0,1,1.574,1.7A5.42,5.42,0,0,1,44.2,10.375Zm-1.391.047a3.912,3.912,0,0,0-.852-2.645,2.922,2.922,0,0,0-2.336-.988,3.987,3.987,0,0,0-2.293.723,4.954,4.954,0,0,0-1.68,2.047,6.731,6.731,0,0,0-.621,2.895,3.722,3.722,0,0,0,.871,2.586,3.019,3.019,0,0,0,2.363.969,3.971,3.971,0,0,0,2.285-.7,4.816,4.816,0,0,0,1.645-2.062A6.776,6.776,0,0,0,42.8,10.422Zm8.234.773V10.148h7.344V11.2Zm0,3.328V13.477h7.344v1.047Z" transform="translate(453 2266)" fill="#12263f"/>
      <line id="Línea_575" data-name="Línea 575" x2="122" transform="translate(520.5 2275.5)" fill="none" stroke="#12263f" stroke-width="1"/>
    </g>
  </g>
</svg>
