<svg xmlns="http://www.w3.org/2000/svg" xmlns:xlink="http://www.w3.org/1999/xlink" width="81.414" height="81.414" viewBox="0 0 81.414 81.414">
  <defs>
    <filter id="Trazado_873828" x="0" y="0" width="81.414" height="81.414" filterUnits="userSpaceOnUse">
      <feOffset dy="3" input="SourceAlpha"/>
      <feGaussianBlur stdDeviation="3" result="blur"/>
      <feFlood flood-opacity="0.161"/>
      <feComposite operator="in" in2="blur"/>
    </filter>
    <filter id="Trazado_873828-2" x="0" y="0" width="81.414" height="81.414" filterUnits="userSpaceOnUse">
      <feOffset dy="3" input="SourceAlpha"/>
      <feGaussianBlur stdDeviation="3" result="blur-2"/>
      <feFlood flood-opacity="0.161" result="color"/>
      <feComposite operator="out" in="SourceGraphic" in2="blur-2"/>
      <feComposite operator="in" in="color"/>
      <feComposite operator="in" in2="SourceGraphic"/>
    </filter>
  </defs>
  <g id="Grupo_1114597" data-name="Grupo 1114597" transform="translate(-502.051 -4179)">
    <g data-type="innerShadowGroup">
      <g transform="matrix(1, 0, 0, 1, 502.05, 4179)" filter="url(#Trazado_873828)">
        <g id="Trazado_873828-3" data-name="Trazado 873828" transform="translate(9 6)" fill="#bce0fc">
          <path d="M 31.70703125 61.4140625 C 27.69572067260742 61.4140625 23.80547142028809 60.62889099121094 20.14433097839355 59.08036041259766 C 16.60707092285156 57.58423233032227 13.42987155914307 55.44195938110352 10.7009916305542 52.71308135986328 C 7.972101211547852 49.98419189453125 5.829841136932373 46.80699157714844 4.333701133728027 43.26974105834961 C 2.785171270370483 39.60859298706055 2.000001192092896 35.71834182739258 2.000001192092896 31.70703125 C 2.000001192092896 27.69573211669922 2.785171270370483 23.80547142028809 4.333701133728027 20.14433097839355 C 5.829841136932373 16.60707092285156 7.972101211547852 13.42987155914307 10.7009916305542 10.7009916305542 C 13.42987155914307 7.972101211547852 16.60707092285156 5.829841136932373 20.14433097839355 4.333701133728027 C 23.80547142028809 2.785171270370483 27.69573211669922 2.000001192092896 31.70703125 2.000001192092896 C 35.71834182739258 2.000001192092896 39.60859298706055 2.785171270370483 43.26974105834961 4.333701133728027 C 46.80699157714844 5.829841136932373 49.98419189453125 7.972101211547852 52.71308135986328 10.7009916305542 C 55.44195938110352 13.42987155914307 57.58423233032227 16.60707092285156 59.08036041259766 20.14433097839355 C 60.62889099121094 23.80547142028809 61.4140625 27.69572067260742 61.4140625 31.70703125 C 61.4140625 35.71834182739258 60.62889099121094 39.60859298706055 59.08036041259766 43.26974105834961 C 57.58423233032227 46.80699157714844 55.44195938110352 49.98419189453125 52.71308135986328 52.71308135986328 C 49.98419189453125 55.44195938110352 46.80699157714844 57.58423233032227 43.26974105834961 59.08036041259766 C 39.60859298706055 60.62889099121094 35.71834182739258 61.4140625 31.70703125 61.4140625 Z" stroke="none"/>
          <path d="M 31.70703125 3.999996185302734 C 27.96484375 3.999996185302734 24.33671188354492 4.732006072998047 20.92343139648438 6.175712585449219 C 17.62457275390625 7.571006774902344 14.66105651855469 9.569347381591797 12.11519622802734 12.11519622802734 C 9.569347381591797 14.66105651855469 7.571006774902344 17.62457275390625 6.175712585449219 20.92343139648438 C 4.732006072998047 24.33671188354492 3.999996185302734 27.96484375 3.999996185302734 31.70703125 C 3.999996185302734 35.44921875 4.732006072998047 39.07734680175781 6.175712585449219 42.49063110351562 C 7.571006774902344 45.78948974609375 9.5693359375 48.75300598144531 12.11519622802734 51.29886627197266 C 14.66105651855469 53.8447265625 17.62457275390625 55.84305572509766 20.92343139648438 57.23834991455078 C 24.33671188354492 58.68205642700195 27.96484375 59.41406631469727 31.70703125 59.41406631469727 C 35.44921875 59.41406631469727 39.07734680175781 58.68205642700195 42.49063110351562 57.23834991455078 C 45.78948974609375 55.84305572509766 48.75300598144531 53.8447265625 51.29886627197266 51.29886627197266 C 53.8447265625 48.75300598144531 55.84305572509766 45.78948974609375 57.23834991455078 42.49063110351562 C 58.68205642700195 39.07734680175781 59.41406631469727 35.44921875 59.41406631469727 31.70703125 C 59.41406631469727 27.96484375 58.68205642700195 24.33671188354492 57.23834991455078 20.92343139648438 C 55.84305572509766 17.62457275390625 53.8447265625 14.66105651855469 51.29886627197266 12.11519622802734 C 48.75300598144531 9.5693359375 45.78948974609375 7.571006774902344 42.49063110351562 6.175712585449219 C 39.07734680175781 4.732006072998047 35.44921875 3.999996185302734 31.70703125 3.999996185302734 M 31.70703125 -3.814697265625e-06 C 49.21834945678711 -3.814697265625e-06 63.41406631469727 14.19572448730469 63.41406631469727 31.70703125 C 63.41406631469727 49.21834945678711 49.21834945678711 63.41406631469727 31.70703125 63.41406631469727 C 14.19572448730469 63.41406631469727 -3.814697265625e-06 49.21834945678711 -3.814697265625e-06 31.70703125 C -3.814697265625e-06 14.19572448730469 14.19572448730469 -3.814697265625e-06 31.70703125 -3.814697265625e-06 Z" stroke="none" fill="#fff"/>
        </g>
      </g>
      <g id="Trazado_873828-4" data-name="Trazado 873828" transform="translate(511.051 4185)" fill="#bce0fc">
        <path d="M 31.70703125 61.4140625 C 27.69572067260742 61.4140625 23.80547142028809 60.62889099121094 20.14433097839355 59.08036041259766 C 16.60707092285156 57.58423233032227 13.42987155914307 55.44195938110352 10.7009916305542 52.71308135986328 C 7.972101211547852 49.98419189453125 5.829841136932373 46.80699157714844 4.333701133728027 43.26974105834961 C 2.785171270370483 39.60859298706055 2.000001192092896 35.71834182739258 2.000001192092896 31.70703125 C 2.000001192092896 27.69573211669922 2.785171270370483 23.80547142028809 4.333701133728027 20.14433097839355 C 5.829841136932373 16.60707092285156 7.972101211547852 13.42987155914307 10.7009916305542 10.7009916305542 C 13.42987155914307 7.972101211547852 16.60707092285156 5.829841136932373 20.14433097839355 4.333701133728027 C 23.80547142028809 2.785171270370483 27.69573211669922 2.000001192092896 31.70703125 2.000001192092896 C 35.71834182739258 2.000001192092896 39.60859298706055 2.785171270370483 43.26974105834961 4.333701133728027 C 46.80699157714844 5.829841136932373 49.98419189453125 7.972101211547852 52.71308135986328 10.7009916305542 C 55.44195938110352 13.42987155914307 57.58423233032227 16.60707092285156 59.08036041259766 20.14433097839355 C 60.62889099121094 23.80547142028809 61.4140625 27.69572067260742 61.4140625 31.70703125 C 61.4140625 35.71834182739258 60.62889099121094 39.60859298706055 59.08036041259766 43.26974105834961 C 57.58423233032227 46.80699157714844 55.44195938110352 49.98419189453125 52.71308135986328 52.71308135986328 C 49.98419189453125 55.44195938110352 46.80699157714844 57.58423233032227 43.26974105834961 59.08036041259766 C 39.60859298706055 60.62889099121094 35.71834182739258 61.4140625 31.70703125 61.4140625 Z" stroke="none"/>
        <path d="M 31.70703125 3.999996185302734 C 27.96484375 3.999996185302734 24.33671188354492 4.732006072998047 20.92343139648438 6.175712585449219 C 17.62457275390625 7.571006774902344 14.66105651855469 9.569347381591797 12.11519622802734 12.11519622802734 C 9.569347381591797 14.66105651855469 7.571006774902344 17.62457275390625 6.175712585449219 20.92343139648438 C 4.732006072998047 24.33671188354492 3.999996185302734 27.96484375 3.999996185302734 31.70703125 C 3.999996185302734 35.44921875 4.732006072998047 39.07734680175781 6.175712585449219 42.49063110351562 C 7.571006774902344 45.78948974609375 9.5693359375 48.75300598144531 12.11519622802734 51.29886627197266 C 14.66105651855469 53.8447265625 17.62457275390625 55.84305572509766 20.92343139648438 57.23834991455078 C 24.33671188354492 58.68205642700195 27.96484375 59.41406631469727 31.70703125 59.41406631469727 C 35.44921875 59.41406631469727 39.07734680175781 58.68205642700195 42.49063110351562 57.23834991455078 C 45.78948974609375 55.84305572509766 48.75300598144531 53.8447265625 51.29886627197266 51.29886627197266 C 53.8447265625 48.75300598144531 55.84305572509766 45.78948974609375 57.23834991455078 42.49063110351562 C 58.68205642700195 39.07734680175781 59.41406631469727 35.44921875 59.41406631469727 31.70703125 C 59.41406631469727 27.96484375 58.68205642700195 24.33671188354492 57.23834991455078 20.92343139648438 C 55.84305572509766 17.62457275390625 53.8447265625 14.66105651855469 51.29886627197266 12.11519622802734 C 48.75300598144531 9.5693359375 45.78948974609375 7.571006774902344 42.49063110351562 6.175712585449219 C 39.07734680175781 4.732006072998047 35.44921875 3.999996185302734 31.70703125 3.999996185302734 M 31.70703125 -3.814697265625e-06 C 49.21834945678711 -3.814697265625e-06 63.41406631469727 14.19572448730469 63.41406631469727 31.70703125 C 63.41406631469727 49.21834945678711 49.21834945678711 63.41406631469727 31.70703125 63.41406631469727 C 14.19572448730469 63.41406631469727 -3.814697265625e-06 49.21834945678711 -3.814697265625e-06 31.70703125 C -3.814697265625e-06 14.19572448730469 14.19572448730469 -3.814697265625e-06 31.70703125 -3.814697265625e-06 Z" stroke="none"/>
      </g>
      <g transform="matrix(1, 0, 0, 1, 502.05, 4179)" filter="url(#Trazado_873828-2)">
        <g id="Trazado_873828-5" data-name="Trazado 873828" transform="translate(9 6)" fill="#fff">
          <path d="M 31.70703125 61.4140625 C 27.69572067260742 61.4140625 23.80547142028809 60.62889099121094 20.14433097839355 59.08036041259766 C 16.60707092285156 57.58423233032227 13.42987155914307 55.44195938110352 10.7009916305542 52.71308135986328 C 7.972101211547852 49.98419189453125 5.829841136932373 46.80699157714844 4.333701133728027 43.26974105834961 C 2.785171270370483 39.60859298706055 2.000001192092896 35.71834182739258 2.000001192092896 31.70703125 C 2.000001192092896 27.69573211669922 2.785171270370483 23.80547142028809 4.333701133728027 20.14433097839355 C 5.829841136932373 16.60707092285156 7.972101211547852 13.42987155914307 10.7009916305542 10.7009916305542 C 13.42987155914307 7.972101211547852 16.60707092285156 5.829841136932373 20.14433097839355 4.333701133728027 C 23.80547142028809 2.785171270370483 27.69573211669922 2.000001192092896 31.70703125 2.000001192092896 C 35.71834182739258 2.000001192092896 39.60859298706055 2.785171270370483 43.26974105834961 4.333701133728027 C 46.80699157714844 5.829841136932373 49.98419189453125 7.972101211547852 52.71308135986328 10.7009916305542 C 55.44195938110352 13.42987155914307 57.58423233032227 16.60707092285156 59.08036041259766 20.14433097839355 C 60.62889099121094 23.80547142028809 61.4140625 27.69572067260742 61.4140625 31.70703125 C 61.4140625 35.71834182739258 60.62889099121094 39.60859298706055 59.08036041259766 43.26974105834961 C 57.58423233032227 46.80699157714844 55.44195938110352 49.98419189453125 52.71308135986328 52.71308135986328 C 49.98419189453125 55.44195938110352 46.80699157714844 57.58423233032227 43.26974105834961 59.08036041259766 C 39.60859298706055 60.62889099121094 35.71834182739258 61.4140625 31.70703125 61.4140625 Z" stroke="none"/>
          <path d="M 31.70703125 3.999996185302734 C 27.96484375 3.999996185302734 24.33671188354492 4.732006072998047 20.92343139648438 6.175712585449219 C 17.62457275390625 7.571006774902344 14.66105651855469 9.569347381591797 12.11519622802734 12.11519622802734 C 9.569347381591797 14.66105651855469 7.571006774902344 17.62457275390625 6.175712585449219 20.92343139648438 C 4.732006072998047 24.33671188354492 3.999996185302734 27.96484375 3.999996185302734 31.70703125 C 3.999996185302734 35.44921875 4.732006072998047 39.07734680175781 6.175712585449219 42.49063110351562 C 7.571006774902344 45.78948974609375 9.5693359375 48.75300598144531 12.11519622802734 51.29886627197266 C 14.66105651855469 53.8447265625 17.62457275390625 55.84305572509766 20.92343139648438 57.23834991455078 C 24.33671188354492 58.68205642700195 27.96484375 59.41406631469727 31.70703125 59.41406631469727 C 35.44921875 59.41406631469727 39.07734680175781 58.68205642700195 42.49063110351562 57.23834991455078 C 45.78948974609375 55.84305572509766 48.75300598144531 53.8447265625 51.29886627197266 51.29886627197266 C 53.8447265625 48.75300598144531 55.84305572509766 45.78948974609375 57.23834991455078 42.49063110351562 C 58.68205642700195 39.07734680175781 59.41406631469727 35.44921875 59.41406631469727 31.70703125 C 59.41406631469727 27.96484375 58.68205642700195 24.33671188354492 57.23834991455078 20.92343139648438 C 55.84305572509766 17.62457275390625 53.8447265625 14.66105651855469 51.29886627197266 12.11519622802734 C 48.75300598144531 9.5693359375 45.78948974609375 7.571006774902344 42.49063110351562 6.175712585449219 C 39.07734680175781 4.732006072998047 35.44921875 3.999996185302734 31.70703125 3.999996185302734 M 31.70703125 -3.814697265625e-06 C 49.21834945678711 -3.814697265625e-06 63.41406631469727 14.19572448730469 63.41406631469727 31.70703125 C 63.41406631469727 49.21834945678711 49.21834945678711 63.41406631469727 31.70703125 63.41406631469727 C 14.19572448730469 63.41406631469727 -3.814697265625e-06 49.21834945678711 -3.814697265625e-06 31.70703125 C -3.814697265625e-06 14.19572448730469 14.19572448730469 -3.814697265625e-06 31.70703125 -3.814697265625e-06 Z" stroke="none"/>
        </g>
      </g>
      <g id="Trazado_873828-6" data-name="Trazado 873828" transform="translate(511.051 4185)" fill="none">
        <path d="M 31.70703125 61.4140625 C 27.69572067260742 61.4140625 23.80547142028809 60.62889099121094 20.14433097839355 59.08036041259766 C 16.60707092285156 57.58423233032227 13.42987155914307 55.44195938110352 10.7009916305542 52.71308135986328 C 7.972101211547852 49.98419189453125 5.829841136932373 46.80699157714844 4.333701133728027 43.26974105834961 C 2.785171270370483 39.60859298706055 2.000001192092896 35.71834182739258 2.000001192092896 31.70703125 C 2.000001192092896 27.69573211669922 2.785171270370483 23.80547142028809 4.333701133728027 20.14433097839355 C 5.829841136932373 16.60707092285156 7.972101211547852 13.42987155914307 10.7009916305542 10.7009916305542 C 13.42987155914307 7.972101211547852 16.60707092285156 5.829841136932373 20.14433097839355 4.333701133728027 C 23.80547142028809 2.785171270370483 27.69573211669922 2.000001192092896 31.70703125 2.000001192092896 C 35.71834182739258 2.000001192092896 39.60859298706055 2.785171270370483 43.26974105834961 4.333701133728027 C 46.80699157714844 5.829841136932373 49.98419189453125 7.972101211547852 52.71308135986328 10.7009916305542 C 55.44195938110352 13.42987155914307 57.58423233032227 16.60707092285156 59.08036041259766 20.14433097839355 C 60.62889099121094 23.80547142028809 61.4140625 27.69572067260742 61.4140625 31.70703125 C 61.4140625 35.71834182739258 60.62889099121094 39.60859298706055 59.08036041259766 43.26974105834961 C 57.58423233032227 46.80699157714844 55.44195938110352 49.98419189453125 52.71308135986328 52.71308135986328 C 49.98419189453125 55.44195938110352 46.80699157714844 57.58423233032227 43.26974105834961 59.08036041259766 C 39.60859298706055 60.62889099121094 35.71834182739258 61.4140625 31.70703125 61.4140625 Z" stroke="none"/>
        <path d="M 31.70703125 3.999996185302734 C 27.96484375 3.999996185302734 24.33671188354492 4.732006072998047 20.92343139648438 6.175712585449219 C 17.62457275390625 7.571006774902344 14.66105651855469 9.569347381591797 12.11519622802734 12.11519622802734 C 9.569347381591797 14.66105651855469 7.571006774902344 17.62457275390625 6.175712585449219 20.92343139648438 C 4.732006072998047 24.33671188354492 3.999996185302734 27.96484375 3.999996185302734 31.70703125 C 3.999996185302734 35.44921875 4.732006072998047 39.07734680175781 6.175712585449219 42.49063110351562 C 7.571006774902344 45.78948974609375 9.5693359375 48.75300598144531 12.11519622802734 51.29886627197266 C 14.66105651855469 53.8447265625 17.62457275390625 55.84305572509766 20.92343139648438 57.23834991455078 C 24.33671188354492 58.68205642700195 27.96484375 59.41406631469727 31.70703125 59.41406631469727 C 35.44921875 59.41406631469727 39.07734680175781 58.68205642700195 42.49063110351562 57.23834991455078 C 45.78948974609375 55.84305572509766 48.75300598144531 53.8447265625 51.29886627197266 51.29886627197266 C 53.8447265625 48.75300598144531 55.84305572509766 45.78948974609375 57.23834991455078 42.49063110351562 C 58.68205642700195 39.07734680175781 59.41406631469727 35.44921875 59.41406631469727 31.70703125 C 59.41406631469727 27.96484375 58.68205642700195 24.33671188354492 57.23834991455078 20.92343139648438 C 55.84305572509766 17.62457275390625 53.8447265625 14.66105651855469 51.29886627197266 12.11519622802734 C 48.75300598144531 9.5693359375 45.78948974609375 7.571006774902344 42.49063110351562 6.175712585449219 C 39.07734680175781 4.732006072998047 35.44921875 3.999996185302734 31.70703125 3.999996185302734 M 31.70703125 -3.814697265625e-06 C 49.21834945678711 -3.814697265625e-06 63.41406631469727 14.19572448730469 63.41406631469727 31.70703125 C 63.41406631469727 49.21834945678711 49.21834945678711 63.41406631469727 31.70703125 63.41406631469727 C 14.19572448730469 63.41406631469727 -3.814697265625e-06 49.21834945678711 -3.814697265625e-06 31.70703125 C -3.814697265625e-06 14.19572448730469 14.19572448730469 -3.814697265625e-06 31.70703125 -3.814697265625e-06 Z" stroke="none" fill="#fff"/>
      </g>
    </g>
    <g id="Grupo_1114596" data-name="Grupo 1114596" transform="translate(499.189 4194)">
      <path id="Trazado_907873" data-name="Trazado 907873" d="M67.2,30.024l-6.945,6.945a2,2,0,0,1-1.473.653H34.541a.551.551,0,0,1-.55-.55V11.653a.551.551,0,0,1,.55-.55H67.3a.551.551,0,0,1,.55.55v16.9a2,2,0,0,1-.653,1.473Z" transform="translate(-7.509 -7.485)" fill="#eceff1" fill-rule="evenodd"/>
      <path id="Trazado_907874" data-name="Trazado 907874" d="M35.175,37.622h-.635a.551.551,0,0,1-.55-.55V11.653a.551.551,0,0,1,.55-.55h.635Z" transform="translate(-7.509 -7.485)" fill="#dddee2" fill-rule="evenodd"/>
      <path id="Trazado_907875" data-name="Trazado 907875" d="M386.237,259.576l-6.839,6.839a2.317,2.317,0,0,0,.654-1.614V260.78a.551.551,0,0,1,.55-.55h4.021a2.318,2.318,0,0,0,1.614-.654Z" transform="translate(-326.576 -237.01)" fill="#c3c3c9" fill-rule="evenodd"/>
      <rect id="Rectángulo_406757" data-name="Rectángulo 406757" width="5.345" height="5.345" rx="2.673" transform="translate(43.22 14.205)" fill="#90ef90"/>
      <rect id="Rectángulo_406758" data-name="Rectángulo 406758" width="5.345" height="5.345" rx="2.673" transform="translate(43.22 6.545)" fill="#6cbfff"/>
      <rect id="Rectángulo_406759" data-name="Rectángulo 406759" width="5.345" height="5.345" rx="2.673" transform="translate(43.22 21.864)" fill="#ffe259"/>
      <rect id="Rectángulo_406760" data-name="Rectángulo 406760" width="4.773" height="5.345" rx="2.387" transform="translate(43.22 14.205)" fill="#adffad"/>
      <rect id="Rectángulo_406761" data-name="Rectángulo 406761" width="4.773" height="5.345" rx="2.387" transform="translate(43.22 6.545)" fill="#85caff"/>
      <rect id="Rectángulo_406762" data-name="Rectángulo 406762" width="4.773" height="5.345" rx="2.387" transform="translate(43.22 21.864)" fill="#ffeb87"/>
      <path id="Trazado_907876" data-name="Trazado 907876" d="M69.037,44.667l.729-.489a.294.294,0,0,1,.374.037l1.128,1.128a.294.294,0,0,1,.037.374l-.489.729.62,1.5.861.17a.294.294,0,0,1,.239.291V50a.294.294,0,0,1-.239.291l-.861.17-.62,1.5.489.729a.294.294,0,0,1-.037.374L70.14,54.186a.294.294,0,0,1-.374.037l-.729-.489-1.5.62-.17.861a.294.294,0,0,1-.291.239h-1.6a.294.294,0,0,1-.291-.239l-.17-.861-1.5-.62-.729.489a.294.294,0,0,1-.374-.037L61.3,53.058a.294.294,0,0,1-.037-.374l.489-.729-.62-1.5-.861-.17A.294.294,0,0,1,60.029,50V48.4a.294.294,0,0,1,.239-.291l.861-.17.62-1.5-.489-.729a.294.294,0,0,1,.037-.374l1.128-1.128a.294.294,0,0,1,.374-.037l.729.489,1.5-.62.17-.861a.294.294,0,0,1,.291-.239h1.6a.294.294,0,0,1,.291.239l.17.861,1.5.62Z" transform="translate(-31.561 -36.901)" fill="#fdc72e" fill-rule="evenodd"/>
      <path id="Trazado_907877" data-name="Trazado 907877" d="M69.04,44.667l.529-.355,1.2,1.2-.624.931.62,1.5,1.1.217v2.082l-1.1.217-.62,1.5.624.931-1.2,1.2-1.073-.72-1.557.645-.284,1.44H65.488a.294.294,0,0,1-.291-.239l-.17-.861L62.974,53.5,62.238,54l-.939-.939a.294.294,0,0,1-.037-.374l.489-.729-.62-1.5-.861-.17A.294.294,0,0,1,60.032,50V48.4a.294.294,0,0,1,.239-.291l.861-.17.62-1.5-.489-.729a.294.294,0,0,1,.037-.374l.939-.939.736.493.557-.231,1.5-.62.17-.861a.294.294,0,0,1,.291-.239h1.167l.284,1.44,1.557.645.544-.365Z" transform="translate(-31.564 -36.901)" fill="#ffeb87" fill-rule="evenodd"/>
      <circle id="Elipse_12814" data-name="Elipse 12814" cx="3.326" cy="3.326" r="3.326" transform="translate(31.05 8.974)" fill="#fdc72e"/>
      <circle id="Elipse_12815" data-name="Elipse 12815" cx="3.207" cy="3.207" r="3.207" transform="translate(31.514 9.093)" fill="#fff"/>
      <g id="Grupo_1114595" data-name="Grupo 1114595" transform="translate(25.862 3)">
        <path id="Trazado_907878" data-name="Trazado 907878" d="M98.627,317.345a3.884,3.884,0,1,1-7.287,0h7.287Z" transform="translate(-86.125 -293.374)" fill="#d9c5bf" fill-rule="evenodd"/>
        <path id="Trazado_907879" data-name="Trazado 907879" d="M94.512,322.549a3.887,3.887,0,0,1-3.172-5.2h6.344a3.887,3.887,0,0,1-3.172,5.2Z" transform="translate(-86.124 -293.374)" fill="#e6d6d1" fill-rule="evenodd"/>
        <path id="Trazado_907880" data-name="Trazado 907880" d="M43.653,386.067a8.156,8.156,0,0,1,8.122,7.414v1.35H35.531v-1.35A8.156,8.156,0,0,1,43.653,386.067Z" transform="translate(-34.794 -356.855)" fill="#4eb1fc" fill-rule="evenodd"/>
        <path id="Trazado_907881" data-name="Trazado 907881" d="M50.317,398.669H35.531v-1.35a8.163,8.163,0,0,1,5.461-6.971c5.729-.847,8.9,2.644,9.325,7.326v.994Z" transform="translate(-34.794 -360.692)" fill="#85caff" fill-rule="evenodd"/>
        <path id="Trazado_907882" data-name="Trazado 907882" d="M80.355,392.111a8.146,8.146,0,0,1,2.607,1.51v6.793H72.332v-6.793a8.145,8.145,0,0,1,2.607-1.51v4.107a.372.372,0,0,0,.371.371h4.674a.372.372,0,0,0,.371-.371Z" transform="translate(-68.788 -362.438)" fill="#ffe259" fill-rule="evenodd"/>
        <path id="Trazado_907883" data-name="Trazado 907883" d="M82.287,397.629v6.087H72.332v-6.793a8.165,8.165,0,0,1,1.932-1.237v3.834a.372.372,0,0,0,.371.371h5.35a.372.372,0,0,0,.371-.371v-3.406a6.691,6.691,0,0,1,1.932,1.515Z" transform="translate(-68.788 -365.74)" fill="#ffeb87" fill-rule="evenodd"/>
        <path id="Trazado_907884" data-name="Trazado 907884" d="M91.608,258.993v-.46a4.537,4.537,0,1,0-9.074,0v.46Z" transform="translate(-78.212 -234.854)" fill="#ffe259" fill-rule="evenodd"/>
        <path id="Trazado_907885" data-name="Trazado 907885" d="M86.7,254.2a4.552,4.552,0,0,0-4.165,4.522v.46h8.331v-.46A4.552,4.552,0,0,0,86.7,254.2Z" transform="translate(-78.212 -235.042)" fill="#ffeb87" fill-rule="evenodd"/>
        <path id="Trazado_907886" data-name="Trazado 907886" d="M44.159,24.581a.61.61,0,1,1,1.056-.61l.26.45,1.193-1.193a.61.61,0,1,1,.863.863l-1.756,1.755a.608.608,0,0,1-.431.179.577.577,0,0,1-.08-.005.61.61,0,0,1-.448-.3l-.658-1.139Zm-.328-1.93v3.773a.179.179,0,0,0,.176.176H47.78a.178.178,0,0,0,.176-.176V22.651a.178.178,0,0,0-.176-.176H44.007A.179.179,0,0,0,43.831,22.651Zm-1.22,3.773a1.4,1.4,0,0,0,1.4,1.4H47.78a1.4,1.4,0,0,0,1.4-1.4V22.651a1.4,1.4,0,0,0-1.4-1.4H44.007a1.4,1.4,0,0,0-1.4,1.4Zm1.548-9.5a.61.61,0,1,1,1.056-.61l.26.45,1.193-1.193a.61.61,0,1,1,.863.863l-1.756,1.756a.61.61,0,0,1-.431.179.657.657,0,0,1-.08-.005.61.61,0,0,1-.448-.3Zm0-7.66a.61.61,0,0,1,1.056-.61l.26.451,1.193-1.193a.61.61,0,1,1,.863.863l-1.756,1.756a.61.61,0,0,1-.431.179.643.643,0,0,1-.08-.005.609.609,0,0,1-.448-.3l-.658-1.139Zm-.328-1.93V11.1a.179.179,0,0,0,.176.176H47.78a.178.178,0,0,0,.176-.176V7.332a.178.178,0,0,0-.176-.176H44.007A.179.179,0,0,0,43.831,7.332Zm.176,5.169H47.78a1.4,1.4,0,0,0,1.4-1.4V7.332a1.4,1.4,0,0,0-1.4-1.4H44.007a1.4,1.4,0,0,0-1.4,1.4V11.1A1.4,1.4,0,0,0,44.007,12.5Zm-.176,2.49v3.773a.179.179,0,0,0,.176.176H47.78a.178.178,0,0,0,.176-.176V14.991a.178.178,0,0,0-.176-.176H44.007A.179.179,0,0,0,43.831,14.991Zm-1.22,3.773a1.4,1.4,0,0,0,1.4,1.4H47.78a1.4,1.4,0,0,0,1.4-1.4V14.991a1.4,1.4,0,0,0-1.4-1.4H44.007a1.4,1.4,0,0,0-1.4,1.4Zm7.621-.622a.61.61,0,0,1,.61-.61h6.3a.61.61,0,1,1,0,1.22h-6.3a.61.61,0,0,1-.61-.61Zm0-2.53a.61.61,0,0,1,.61-.61h3.685a.61.61,0,0,1,0,1.22H50.842A.61.61,0,0,1,50.232,15.613ZM42.22,40.367H40.638V35.688a7.513,7.513,0,0,1,1.582,3.969Zm-15-.71a7.511,7.511,0,0,1,1.582-3.969v4.679H27.224Zm4.23-11.334a3.264,3.264,0,0,1,.084-.736h6.368a3.268,3.268,0,1,1-6.452.736Zm1.71-5.055-.058,1.574a.61.61,0,0,0,1.22.045l.084-2.268a3.478,3.478,0,0,1,.625,0l.084,2.268a.61.61,0,0,0,.609.588h.023a.61.61,0,0,0,.587-.632l-.058-1.574a3.666,3.666,0,0,1,2.07,3.1H31.095a3.666,3.666,0,0,1,2.07-3.1Zm1.558,9.569a7.636,7.636,0,0,1,2.094.291v3.413H32.628V33.128A7.629,7.629,0,0,1,34.722,32.837Zm-4.7,1.627v5.9h9.393v-5.9a7.476,7.476,0,0,0-1.383-.87v3.187a.981.981,0,0,1-.98.981H32.388a.981.981,0,0,1-.98-.981V33.594A7.471,7.471,0,0,0,30.025,34.464Zm10.616-.542a8.727,8.727,0,0,1,2.8,5.652.543.543,0,0,1,0,.055v1.347a.61.61,0,0,1-.61.61H26.613a.61.61,0,0,1-.61-.61V39.629c0-.018,0-.037,0-.055A8.759,8.759,0,0,1,32.154,32,4.481,4.481,0,0,1,30.3,27.586h-.234a.61.61,0,0,1-.188-1.19,4.892,4.892,0,0,1,3.361-4.467.609.609,0,0,1,.448-.427,4.67,4.67,0,0,1,2.079,0,.608.608,0,0,1,.449.427A4.892,4.892,0,0,1,39.571,26.4a.61.61,0,0,1-.189,1.19h-.234A4.481,4.481,0,0,1,37.289,32,8.735,8.735,0,0,1,40.641,33.922ZM34.722,9.778A2.522,2.522,0,1,1,32.2,12.3,2.524,2.524,0,0,1,34.722,9.778Zm0,6.263A3.742,3.742,0,1,0,30.98,12.3,3.746,3.746,0,0,0,34.722,16.042Zm-5.655-3.2.61.121a.609.609,0,0,1,.446.365l.621,1.5a.609.609,0,0,1-.057.573l-.346.517.766.766.516-.346a.61.61,0,0,1,.573-.057l1.5.621a.611.611,0,0,1,.365.446l.12.61h1.083l.12-.61a.61.61,0,0,1,.365-.446l1.5-.621a.61.61,0,0,1,.574.057l.516.346.766-.766-.346-.517a.61.61,0,0,1-.057-.573l.621-1.5a.609.609,0,0,1,.446-.365l.61-.121V11.758l-.61-.12a.611.611,0,0,1-.446-.365l-.621-1.5a.611.611,0,0,1,.057-.573l.346-.517-.766-.766-.516.346a.611.611,0,0,1-.574.057l-1.5-.621a.609.609,0,0,1-.365-.446l-.12-.61H34.18l-.12.61a.61.61,0,0,1-.365.446l-1.5.621a.611.611,0,0,1-.573-.057l-.516-.346-.766.766.346.516a.61.61,0,0,1,.057.574l-.621,1.5a.611.611,0,0,1-.446.365l-.61.12v1.083ZM29.3,16.6l1.129,1.13a.909.909,0,0,0,1.147.112l.458-.307.9.371.107.542a.91.91,0,0,0,.89.732h1.6a.91.91,0,0,0,.89-.732l.107-.542.9-.371.459.307a.909.909,0,0,0,1.147-.112l1.129-1.13a.909.909,0,0,0,.112-1.147l-.307-.458.371-.9.541-.107a.91.91,0,0,0,.732-.89V11.5a.91.91,0,0,0-.732-.89l-.542-.107-.371-.9.307-.458A.909.909,0,0,0,40.148,8l-1.129-1.13a.909.909,0,0,0-1.147-.112l-.459.307-.9-.371-.107-.542a.909.909,0,0,0-.89-.732h-1.6a.91.91,0,0,0-.89.732l-.107.542-.9.371-.458-.308a.91.91,0,0,0-1.147.112L29.3,8a.91.91,0,0,0-.112,1.147l.308.458-.371.9-.541.107a.909.909,0,0,0-.732.89v1.6a.909.909,0,0,0,.732.89l.541.107.371.9-.308.458A.91.91,0,0,0,29.3,16.6Zm20.936-6.114a.61.61,0,0,1,.61-.61h6.3a.61.61,0,1,1,0,1.22h-6.3a.61.61,0,0,1-.61-.61Zm0-2.529a.61.61,0,0,1,.61-.61h3.685a.61.61,0,0,1,0,1.22H50.842A.61.61,0,0,1,50.232,7.954Zm3.84,15.911h3.444l-3.444,3.444ZM60.784,3.179A.61.61,0,0,0,60.352,3H26.472a.61.61,0,0,0-.61.61V30.146a.61.61,0,0,0,.61.61h2.562a.61.61,0,0,0,0-1.22H27.082V4.22h32.66V21.069a1.387,1.387,0,0,1-.467,1.035l-.007.008-.052.051a1.7,1.7,0,0,1-1.188.482H53.461a.61.61,0,0,0-.61.61v4.567a1.7,1.7,0,0,1-.482,1.189l-.051.051-.007.008a1.388,1.388,0,0,1-1.035.467H40.319a.61.61,0,1,0,0,1.22H51.276a2.616,2.616,0,0,0,1.909-.835l6.942-6.943a2.615,2.615,0,0,0,.835-1.909V3.61a.61.61,0,0,0-.178-.431Z" transform="translate(-25.862 -3)" fill-rule="evenodd"/>
      </g>
    </g>
  </g>
</svg>
