<svg xmlns="http://www.w3.org/2000/svg" xmlns:xlink="http://www.w3.org/1999/xlink" width="81.414" height="81.414" viewBox="0 0 81.414 81.414">
  <defs>
    <filter id="Trazado_873828" x="0" y="0" width="81.414" height="81.414" filterUnits="userSpaceOnUse">
      <feOffset dy="3" input="SourceAlpha"/>
      <feGaussianBlur stdDeviation="3" result="blur"/>
      <feFlood flood-opacity="0.161"/>
      <feComposite operator="in" in2="blur"/>
    </filter>
    <filter id="Trazado_873828-2" x="0" y="0" width="81.414" height="81.414" filterUnits="userSpaceOnUse">
      <feOffset dy="3" input="SourceAlpha"/>
      <feGaussianBlur stdDeviation="3" result="blur-2"/>
      <feFlood flood-opacity="0.161" result="color"/>
      <feComposite operator="out" in="SourceGraphic" in2="blur-2"/>
      <feComposite operator="in" in="color"/>
      <feComposite operator="in" in2="SourceGraphic"/>
    </filter>
  </defs>
  <g id="Grupo_1114603" data-name="Grupo 1114603" transform="translate(-817.051 -4179)">
    <g data-type="innerShadowGroup">
      <g transform="matrix(1, 0, 0, 1, 817.05, 4179)" filter="url(#Trazado_873828)">
        <g id="Trazado_873828-3" data-name="Trazado 873828" transform="translate(9 6)" fill="#bce0fc">
          <path d="M 31.70703125 61.4140625 C 27.69572067260742 61.4140625 23.80547142028809 60.62889099121094 20.14433097839355 59.08036041259766 C 16.60707092285156 57.58423233032227 13.42987155914307 55.44195938110352 10.7009916305542 52.71308135986328 C 7.972101211547852 49.98419189453125 5.829841136932373 46.80699157714844 4.333701133728027 43.26974105834961 C 2.785171270370483 39.60859298706055 2.000001192092896 35.71834182739258 2.000001192092896 31.70703125 C 2.000001192092896 27.69573211669922 2.785171270370483 23.80547142028809 4.333701133728027 20.14433097839355 C 5.829841136932373 16.60707092285156 7.972101211547852 13.42987155914307 10.7009916305542 10.7009916305542 C 13.42987155914307 7.972101211547852 16.60707092285156 5.829841136932373 20.14433097839355 4.333701133728027 C 23.80547142028809 2.785171270370483 27.69573211669922 2.000001192092896 31.70703125 2.000001192092896 C 35.71834182739258 2.000001192092896 39.60859298706055 2.785171270370483 43.26974105834961 4.333701133728027 C 46.80699157714844 5.829841136932373 49.98419189453125 7.972101211547852 52.71308135986328 10.7009916305542 C 55.44195938110352 13.42987155914307 57.58423233032227 16.60707092285156 59.08036041259766 20.14433097839355 C 60.62889099121094 23.80547142028809 61.4140625 27.69572067260742 61.4140625 31.70703125 C 61.4140625 35.71834182739258 60.62889099121094 39.60859298706055 59.08036041259766 43.26974105834961 C 57.58423233032227 46.80699157714844 55.44195938110352 49.98419189453125 52.71308135986328 52.71308135986328 C 49.98419189453125 55.44195938110352 46.80699157714844 57.58423233032227 43.26974105834961 59.08036041259766 C 39.60859298706055 60.62889099121094 35.71834182739258 61.4140625 31.70703125 61.4140625 Z" stroke="none"/>
          <path d="M 31.70703125 3.999996185302734 C 27.96484375 3.999996185302734 24.33671188354492 4.732006072998047 20.92343139648438 6.175712585449219 C 17.62457275390625 7.571006774902344 14.66105651855469 9.569347381591797 12.11519622802734 12.11519622802734 C 9.569347381591797 14.66105651855469 7.571006774902344 17.62457275390625 6.175712585449219 20.92343139648438 C 4.732006072998047 24.33671188354492 3.999996185302734 27.96484375 3.999996185302734 31.70703125 C 3.999996185302734 35.44921875 4.732006072998047 39.07734680175781 6.175712585449219 42.49063110351562 C 7.571006774902344 45.78948974609375 9.5693359375 48.75300598144531 12.11519622802734 51.29886627197266 C 14.66105651855469 53.8447265625 17.62457275390625 55.84305572509766 20.92343139648438 57.23834991455078 C 24.33671188354492 58.68205642700195 27.96484375 59.41406631469727 31.70703125 59.41406631469727 C 35.44921875 59.41406631469727 39.07734680175781 58.68205642700195 42.49063110351562 57.23834991455078 C 45.78948974609375 55.84305572509766 48.75300598144531 53.8447265625 51.29886627197266 51.29886627197266 C 53.8447265625 48.75300598144531 55.84305572509766 45.78948974609375 57.23834991455078 42.49063110351562 C 58.68205642700195 39.07734680175781 59.41406631469727 35.44921875 59.41406631469727 31.70703125 C 59.41406631469727 27.96484375 58.68205642700195 24.33671188354492 57.23834991455078 20.92343139648438 C 55.84305572509766 17.62457275390625 53.8447265625 14.66105651855469 51.29886627197266 12.11519622802734 C 48.75300598144531 9.5693359375 45.78948974609375 7.571006774902344 42.49063110351562 6.175712585449219 C 39.07734680175781 4.732006072998047 35.44921875 3.999996185302734 31.70703125 3.999996185302734 M 31.70703125 -3.814697265625e-06 C 49.21834945678711 -3.814697265625e-06 63.41406631469727 14.19572448730469 63.41406631469727 31.70703125 C 63.41406631469727 49.21834945678711 49.21834945678711 63.41406631469727 31.70703125 63.41406631469727 C 14.19572448730469 63.41406631469727 -3.814697265625e-06 49.21834945678711 -3.814697265625e-06 31.70703125 C -3.814697265625e-06 14.19572448730469 14.19572448730469 -3.814697265625e-06 31.70703125 -3.814697265625e-06 Z" stroke="none" fill="#fff"/>
        </g>
      </g>
      <g id="Trazado_873828-4" data-name="Trazado 873828" transform="translate(826.051 4185)" fill="#bce0fc">
        <path d="M 31.70703125 61.4140625 C 27.69572067260742 61.4140625 23.80547142028809 60.62889099121094 20.14433097839355 59.08036041259766 C 16.60707092285156 57.58423233032227 13.42987155914307 55.44195938110352 10.7009916305542 52.71308135986328 C 7.972101211547852 49.98419189453125 5.829841136932373 46.80699157714844 4.333701133728027 43.26974105834961 C 2.785171270370483 39.60859298706055 2.000001192092896 35.71834182739258 2.000001192092896 31.70703125 C 2.000001192092896 27.69573211669922 2.785171270370483 23.80547142028809 4.333701133728027 20.14433097839355 C 5.829841136932373 16.60707092285156 7.972101211547852 13.42987155914307 10.7009916305542 10.7009916305542 C 13.42987155914307 7.972101211547852 16.60707092285156 5.829841136932373 20.14433097839355 4.333701133728027 C 23.80547142028809 2.785171270370483 27.69573211669922 2.000001192092896 31.70703125 2.000001192092896 C 35.71834182739258 2.000001192092896 39.60859298706055 2.785171270370483 43.26974105834961 4.333701133728027 C 46.80699157714844 5.829841136932373 49.98419189453125 7.972101211547852 52.71308135986328 10.7009916305542 C 55.44195938110352 13.42987155914307 57.58423233032227 16.60707092285156 59.08036041259766 20.14433097839355 C 60.62889099121094 23.80547142028809 61.4140625 27.69572067260742 61.4140625 31.70703125 C 61.4140625 35.71834182739258 60.62889099121094 39.60859298706055 59.08036041259766 43.26974105834961 C 57.58423233032227 46.80699157714844 55.44195938110352 49.98419189453125 52.71308135986328 52.71308135986328 C 49.98419189453125 55.44195938110352 46.80699157714844 57.58423233032227 43.26974105834961 59.08036041259766 C 39.60859298706055 60.62889099121094 35.71834182739258 61.4140625 31.70703125 61.4140625 Z" stroke="none"/>
        <path d="M 31.70703125 3.999996185302734 C 27.96484375 3.999996185302734 24.33671188354492 4.732006072998047 20.92343139648438 6.175712585449219 C 17.62457275390625 7.571006774902344 14.66105651855469 9.569347381591797 12.11519622802734 12.11519622802734 C 9.569347381591797 14.66105651855469 7.571006774902344 17.62457275390625 6.175712585449219 20.92343139648438 C 4.732006072998047 24.33671188354492 3.999996185302734 27.96484375 3.999996185302734 31.70703125 C 3.999996185302734 35.44921875 4.732006072998047 39.07734680175781 6.175712585449219 42.49063110351562 C 7.571006774902344 45.78948974609375 9.5693359375 48.75300598144531 12.11519622802734 51.29886627197266 C 14.66105651855469 53.8447265625 17.62457275390625 55.84305572509766 20.92343139648438 57.23834991455078 C 24.33671188354492 58.68205642700195 27.96484375 59.41406631469727 31.70703125 59.41406631469727 C 35.44921875 59.41406631469727 39.07734680175781 58.68205642700195 42.49063110351562 57.23834991455078 C 45.78948974609375 55.84305572509766 48.75300598144531 53.8447265625 51.29886627197266 51.29886627197266 C 53.8447265625 48.75300598144531 55.84305572509766 45.78948974609375 57.23834991455078 42.49063110351562 C 58.68205642700195 39.07734680175781 59.41406631469727 35.44921875 59.41406631469727 31.70703125 C 59.41406631469727 27.96484375 58.68205642700195 24.33671188354492 57.23834991455078 20.92343139648438 C 55.84305572509766 17.62457275390625 53.8447265625 14.66105651855469 51.29886627197266 12.11519622802734 C 48.75300598144531 9.5693359375 45.78948974609375 7.571006774902344 42.49063110351562 6.175712585449219 C 39.07734680175781 4.732006072998047 35.44921875 3.999996185302734 31.70703125 3.999996185302734 M 31.70703125 -3.814697265625e-06 C 49.21834945678711 -3.814697265625e-06 63.41406631469727 14.19572448730469 63.41406631469727 31.70703125 C 63.41406631469727 49.21834945678711 49.21834945678711 63.41406631469727 31.70703125 63.41406631469727 C 14.19572448730469 63.41406631469727 -3.814697265625e-06 49.21834945678711 -3.814697265625e-06 31.70703125 C -3.814697265625e-06 14.19572448730469 14.19572448730469 -3.814697265625e-06 31.70703125 -3.814697265625e-06 Z" stroke="none"/>
      </g>
      <g transform="matrix(1, 0, 0, 1, 817.05, 4179)" filter="url(#Trazado_873828-2)">
        <g id="Trazado_873828-5" data-name="Trazado 873828" transform="translate(9 6)" fill="#fff">
          <path d="M 31.70703125 61.4140625 C 27.69572067260742 61.4140625 23.80547142028809 60.62889099121094 20.14433097839355 59.08036041259766 C 16.60707092285156 57.58423233032227 13.42987155914307 55.44195938110352 10.7009916305542 52.71308135986328 C 7.972101211547852 49.98419189453125 5.829841136932373 46.80699157714844 4.333701133728027 43.26974105834961 C 2.785171270370483 39.60859298706055 2.000001192092896 35.71834182739258 2.000001192092896 31.70703125 C 2.000001192092896 27.69573211669922 2.785171270370483 23.80547142028809 4.333701133728027 20.14433097839355 C 5.829841136932373 16.60707092285156 7.972101211547852 13.42987155914307 10.7009916305542 10.7009916305542 C 13.42987155914307 7.972101211547852 16.60707092285156 5.829841136932373 20.14433097839355 4.333701133728027 C 23.80547142028809 2.785171270370483 27.69573211669922 2.000001192092896 31.70703125 2.000001192092896 C 35.71834182739258 2.000001192092896 39.60859298706055 2.785171270370483 43.26974105834961 4.333701133728027 C 46.80699157714844 5.829841136932373 49.98419189453125 7.972101211547852 52.71308135986328 10.7009916305542 C 55.44195938110352 13.42987155914307 57.58423233032227 16.60707092285156 59.08036041259766 20.14433097839355 C 60.62889099121094 23.80547142028809 61.4140625 27.69572067260742 61.4140625 31.70703125 C 61.4140625 35.71834182739258 60.62889099121094 39.60859298706055 59.08036041259766 43.26974105834961 C 57.58423233032227 46.80699157714844 55.44195938110352 49.98419189453125 52.71308135986328 52.71308135986328 C 49.98419189453125 55.44195938110352 46.80699157714844 57.58423233032227 43.26974105834961 59.08036041259766 C 39.60859298706055 60.62889099121094 35.71834182739258 61.4140625 31.70703125 61.4140625 Z" stroke="none"/>
          <path d="M 31.70703125 3.999996185302734 C 27.96484375 3.999996185302734 24.33671188354492 4.732006072998047 20.92343139648438 6.175712585449219 C 17.62457275390625 7.571006774902344 14.66105651855469 9.569347381591797 12.11519622802734 12.11519622802734 C 9.569347381591797 14.66105651855469 7.571006774902344 17.62457275390625 6.175712585449219 20.92343139648438 C 4.732006072998047 24.33671188354492 3.999996185302734 27.96484375 3.999996185302734 31.70703125 C 3.999996185302734 35.44921875 4.732006072998047 39.07734680175781 6.175712585449219 42.49063110351562 C 7.571006774902344 45.78948974609375 9.5693359375 48.75300598144531 12.11519622802734 51.29886627197266 C 14.66105651855469 53.8447265625 17.62457275390625 55.84305572509766 20.92343139648438 57.23834991455078 C 24.33671188354492 58.68205642700195 27.96484375 59.41406631469727 31.70703125 59.41406631469727 C 35.44921875 59.41406631469727 39.07734680175781 58.68205642700195 42.49063110351562 57.23834991455078 C 45.78948974609375 55.84305572509766 48.75300598144531 53.8447265625 51.29886627197266 51.29886627197266 C 53.8447265625 48.75300598144531 55.84305572509766 45.78948974609375 57.23834991455078 42.49063110351562 C 58.68205642700195 39.07734680175781 59.41406631469727 35.44921875 59.41406631469727 31.70703125 C 59.41406631469727 27.96484375 58.68205642700195 24.33671188354492 57.23834991455078 20.92343139648438 C 55.84305572509766 17.62457275390625 53.8447265625 14.66105651855469 51.29886627197266 12.11519622802734 C 48.75300598144531 9.5693359375 45.78948974609375 7.571006774902344 42.49063110351562 6.175712585449219 C 39.07734680175781 4.732006072998047 35.44921875 3.999996185302734 31.70703125 3.999996185302734 M 31.70703125 -3.814697265625e-06 C 49.21834945678711 -3.814697265625e-06 63.41406631469727 14.19572448730469 63.41406631469727 31.70703125 C 63.41406631469727 49.21834945678711 49.21834945678711 63.41406631469727 31.70703125 63.41406631469727 C 14.19572448730469 63.41406631469727 -3.814697265625e-06 49.21834945678711 -3.814697265625e-06 31.70703125 C -3.814697265625e-06 14.19572448730469 14.19572448730469 -3.814697265625e-06 31.70703125 -3.814697265625e-06 Z" stroke="none"/>
        </g>
      </g>
      <g id="Trazado_873828-6" data-name="Trazado 873828" transform="translate(826.051 4185)" fill="none">
        <path d="M 31.70703125 61.4140625 C 27.69572067260742 61.4140625 23.80547142028809 60.62889099121094 20.14433097839355 59.08036041259766 C 16.60707092285156 57.58423233032227 13.42987155914307 55.44195938110352 10.7009916305542 52.71308135986328 C 7.972101211547852 49.98419189453125 5.829841136932373 46.80699157714844 4.333701133728027 43.26974105834961 C 2.785171270370483 39.60859298706055 2.000001192092896 35.71834182739258 2.000001192092896 31.70703125 C 2.000001192092896 27.69573211669922 2.785171270370483 23.80547142028809 4.333701133728027 20.14433097839355 C 5.829841136932373 16.60707092285156 7.972101211547852 13.42987155914307 10.7009916305542 10.7009916305542 C 13.42987155914307 7.972101211547852 16.60707092285156 5.829841136932373 20.14433097839355 4.333701133728027 C 23.80547142028809 2.785171270370483 27.69573211669922 2.000001192092896 31.70703125 2.000001192092896 C 35.71834182739258 2.000001192092896 39.60859298706055 2.785171270370483 43.26974105834961 4.333701133728027 C 46.80699157714844 5.829841136932373 49.98419189453125 7.972101211547852 52.71308135986328 10.7009916305542 C 55.44195938110352 13.42987155914307 57.58423233032227 16.60707092285156 59.08036041259766 20.14433097839355 C 60.62889099121094 23.80547142028809 61.4140625 27.69572067260742 61.4140625 31.70703125 C 61.4140625 35.71834182739258 60.62889099121094 39.60859298706055 59.08036041259766 43.26974105834961 C 57.58423233032227 46.80699157714844 55.44195938110352 49.98419189453125 52.71308135986328 52.71308135986328 C 49.98419189453125 55.44195938110352 46.80699157714844 57.58423233032227 43.26974105834961 59.08036041259766 C 39.60859298706055 60.62889099121094 35.71834182739258 61.4140625 31.70703125 61.4140625 Z" stroke="none"/>
        <path d="M 31.70703125 3.999996185302734 C 27.96484375 3.999996185302734 24.33671188354492 4.732006072998047 20.92343139648438 6.175712585449219 C 17.62457275390625 7.571006774902344 14.66105651855469 9.569347381591797 12.11519622802734 12.11519622802734 C 9.569347381591797 14.66105651855469 7.571006774902344 17.62457275390625 6.175712585449219 20.92343139648438 C 4.732006072998047 24.33671188354492 3.999996185302734 27.96484375 3.999996185302734 31.70703125 C 3.999996185302734 35.44921875 4.732006072998047 39.07734680175781 6.175712585449219 42.49063110351562 C 7.571006774902344 45.78948974609375 9.5693359375 48.75300598144531 12.11519622802734 51.29886627197266 C 14.66105651855469 53.8447265625 17.62457275390625 55.84305572509766 20.92343139648438 57.23834991455078 C 24.33671188354492 58.68205642700195 27.96484375 59.41406631469727 31.70703125 59.41406631469727 C 35.44921875 59.41406631469727 39.07734680175781 58.68205642700195 42.49063110351562 57.23834991455078 C 45.78948974609375 55.84305572509766 48.75300598144531 53.8447265625 51.29886627197266 51.29886627197266 C 53.8447265625 48.75300598144531 55.84305572509766 45.78948974609375 57.23834991455078 42.49063110351562 C 58.68205642700195 39.07734680175781 59.41406631469727 35.44921875 59.41406631469727 31.70703125 C 59.41406631469727 27.96484375 58.68205642700195 24.33671188354492 57.23834991455078 20.92343139648438 C 55.84305572509766 17.62457275390625 53.8447265625 14.66105651855469 51.29886627197266 12.11519622802734 C 48.75300598144531 9.5693359375 45.78948974609375 7.571006774902344 42.49063110351562 6.175712585449219 C 39.07734680175781 4.732006072998047 35.44921875 3.999996185302734 31.70703125 3.999996185302734 M 31.70703125 -3.814697265625e-06 C 49.21834945678711 -3.814697265625e-06 63.41406631469727 14.19572448730469 63.41406631469727 31.70703125 C 63.41406631469727 49.21834945678711 49.21834945678711 63.41406631469727 31.70703125 63.41406631469727 C 14.19572448730469 63.41406631469727 -3.814697265625e-06 49.21834945678711 -3.814697265625e-06 31.70703125 C -3.814697265625e-06 14.19572448730469 14.19572448730469 -3.814697265625e-06 31.70703125 -3.814697265625e-06 Z" stroke="none" fill="#fff"/>
      </g>
    </g>
    <g id="Grupo_1114602" data-name="Grupo 1114602" transform="translate(836.052 4195)">
      <path id="Trazado_907899" data-name="Trazado 907899" d="M130.21,118.309l1.191-.8a.48.48,0,0,1,.612.06l1.843,1.843a.48.48,0,0,1,.06.612l-.8,1.191,1.013,2.445,1.406.277a.48.48,0,0,1,.39.475v2.606a.48.48,0,0,1-.39.475l-1.406.277-1.013,2.445.8,1.191a.48.48,0,0,1-.06.612l-1.843,1.843a.48.48,0,0,1-.612.06l-1.191-.8-2.445,1.013-.277,1.407a.48.48,0,0,1-.475.39h-2.606a.48.48,0,0,1-.475-.39l-.277-1.407-2.445-1.013-1.191.8a.48.48,0,0,1-.612-.06l-1.843-1.843a.48.48,0,0,1-.06-.612l.8-1.191-1.013-2.445-1.406-.277a.48.48,0,0,1-.39-.475v-2.606a.48.48,0,0,1,.39-.475l1.406-.277,1.013-2.445-.8-1.191a.48.48,0,0,1,.06-.612l1.843-1.843a.48.48,0,0,1,.612-.06l1.191.8,2.445-1.013.277-1.406a.48.48,0,0,1,.475-.39h2.606a.48.48,0,0,1,.475.39l.277,1.406,2.445,1.013Z" transform="translate(-104.314 -104.319)" fill="#b7bfc9" fill-rule="evenodd"/>
      <path id="Trazado_907900" data-name="Trazado 907900" d="M131.19,117.646l2.04,2.078-.988,1.459,1.043,2.522,1.827.36v3.29l-1.827.36-1.043,2.522.988,1.459-2.04,2.078-1.6-1.073-2.45,1.015-.406,2.21h-2.329a.48.48,0,0,1-.475-.39l-.277-1.406-3.086-1.279-1.316.849-1.688-1.688a.48.48,0,0,1-.06-.612l.8-1.191-1.013-2.445-1.407-.277a.48.48,0,0,1-.39-.475v-2.606a.48.48,0,0,1,.39-.475l1.407-.277,1.013-2.445-.8-1.191a.48.48,0,0,1,.06-.612l1.688-1.688,1.316.849,3.086-1.279.277-1.406a.48.48,0,0,1,.475-.39h2.329l.406,2.21,2.45,1.015,1.6-1.073Z" transform="translate(-104.314 -104.314)" fill="#d1d6dc" fill-rule="evenodd"/>
      <circle id="Elipse_12820" data-name="Elipse 12820" cx="6.38" cy="6.38" r="6.38" transform="translate(14.244 27.513) rotate(-87.593)" fill="#b7bfc9"/>
      <circle id="Elipse_12821" data-name="Elipse 12821" cx="6.306" cy="6.306" r="6.306" transform="translate(15.089 15.091)" fill="#fff"/>
      <path id="Trazado_907901" data-name="Trazado 907901" d="M199.01,264.588a4.525,4.525,0,0,1,4.468,3.811,6.291,6.291,0,0,1-8.937,0,4.526,4.526,0,0,1,4.468-3.811Z" transform="translate(-177.615 -242.567)" fill="#4eb1fc" fill-rule="evenodd"/>
      <path id="Trazado_907902" data-name="Trazado 907902" d="M202.567,272.921a6.292,6.292,0,0,1-8.024-.762,4.53,4.53,0,0,1,2.656-3.433c.152-.025.3-.044.454-.058C201.027,268.358,202.351,271.02,202.567,272.921Z" transform="translate(-177.616 -246.327)" fill="#85caff" fill-rule="evenodd"/>
      <circle id="Elipse_12822" data-name="Elipse 12822" cx="2.155" cy="2.155" r="2.155" transform="translate(18.961 18.007) rotate(-7.992)" fill="#e6d6d1"/>
      <path id="Trazado_907903" data-name="Trazado 907903" d="M227.968,210.24a2.156,2.156,0,1,1,1.612-2.086A2.156,2.156,0,0,1,227.968,210.24Z" transform="translate(-207.116 -188.302)" fill="#f0e3df" fill-rule="evenodd"/>
      <circle id="Elipse_12823" data-name="Elipse 12823" cx="5.381" cy="5.381" r="5.381" transform="translate(3.565 3.566)" fill="#596575"/>
      <path id="Trazado_907904" data-name="Trazado 907904" d="M15.786,21.7a5.381,5.381,0,0,1,0-10.735,5.381,5.381,0,0,1,0,10.735Z" transform="translate(-7.216 -7.39)" fill="#667180" fill-rule="evenodd"/>
      <path id="Trazado_907905" data-name="Trazado 907905" d="M36.161,92.118a3.862,3.862,0,0,1,3.813,3.252,5.368,5.368,0,0,1-7.625,0,3.862,3.862,0,0,1,3.813-3.252Z" transform="translate(-27.215 -82.638)" fill="#6cbfff" fill-rule="evenodd"/>
      <path id="Trazado_907906" data-name="Trazado 907906" d="M39.194,99.228a5.369,5.369,0,0,1-6.847-.65,3.866,3.866,0,0,1,2.266-2.929c.13-.021.259-.038.387-.05A3.786,3.786,0,0,1,39.194,99.228Z" transform="translate(-27.214 -85.846)" fill="#85caff" fill-rule="evenodd"/>
      <circle id="Elipse_12824" data-name="Elipse 12824" cx="1.839" cy="1.839" r="1.839" transform="matrix(0.987, -0.16, 0.16, 0.987, 6.835, 6.109)" fill="#e6d6d1"/>
      <path id="Trazado_907907" data-name="Trazado 907907" d="M60.868,45.742a1.839,1.839,0,0,1,0-3.56,1.839,1.839,0,0,1,0,3.56Z" transform="translate(-52.386 -36.333)" fill="#f0e3df" fill-rule="evenodd"/>
      <circle id="Elipse_12825" data-name="Elipse 12825" cx="5.381" cy="5.381" r="5.381" transform="translate(28.334 39.078) rotate(-88.568)" fill="#fdc72e"/>
      <path id="Trazado_907908" data-name="Trazado 907908" d="M358.2,363.793a5.381,5.381,0,1,1,5.213-5.378A5.381,5.381,0,0,1,358.2,363.793Z" transform="translate(-324.543 -324.584)" fill="#ffe259" fill-rule="evenodd"/>
      <circle id="Elipse_12826" data-name="Elipse 12826" cx="4.317" cy="4.317" r="4.317" transform="matrix(0.997, -0.073, 0.073, 0.997, 29.187, 29.848)" fill="#f99500"/>
      <path id="Trazado_907909" data-name="Trazado 907909" d="M378.4,367.728a4.317,4.317,0,1,1-4.073,4.31A4.317,4.317,0,0,1,378.4,367.728Z" transform="translate(-344.325 -338.207)" fill="#f9ac00" fill-rule="evenodd"/>
      <circle id="Elipse_12827" data-name="Elipse 12827" cx="5.381" cy="5.381" r="5.381" transform="matrix(1, -0.022, 0.022, 1, 3.449, 28.579)" fill="#6cbfff"/>
      <path id="Trazado_907910" data-name="Trazado 907910" d="M16.2,363.793a5.381,5.381,0,0,1,0-10.756,5.381,5.381,0,0,1,0,10.756Z" transform="translate(-7.412 -324.584)" fill="#85caff" fill-rule="evenodd"/>
      <circle id="Elipse_12828" data-name="Elipse 12828" cx="4.086" cy="4.086" r="4.086" transform="translate(4.875 29.745)" fill="#eceff1"/>
      <g id="Grupo_1114601" data-name="Grupo 1114601" transform="translate(2.999 3)">
        <path id="Trazado_907911" data-name="Trazado 907911" d="M38.991,370.89a4.086,4.086,0,0,1,0,8.16,4.086,4.086,0,0,1,0-8.16Z" transform="translate(-32.798 -344.139)" fill="#fff" fill-rule="evenodd"/>
        <path id="Trazado_907912" data-name="Trazado 907912" d="M376.31,21.974a.847.847,0,0,1-.845.845h-3.11a.847.847,0,0,1-.845-.845v-.448c0-2.324-2.4-2.977-2.4-6.1a4.8,4.8,0,0,1,9.6,0c0,3.124-2.4,3.777-2.4,6.1v.448Z" transform="translate(-342.489 -10.259)" fill="#fcdb35" fill-rule="evenodd"/>
        <path id="Trazado_907913" data-name="Trazado 907913" d="M374.811,22.956h-2.456a.847.847,0,0,1-.845-.845v-.448c0-2.324-2.4-2.977-2.4-6.1a4.474,4.474,0,1,1,8.945,0c0,3.124-2.4,3.777-2.4,6.1v.448a.847.847,0,0,1-.845.845Z" transform="translate(-342.489 -10.396)" fill="#ffeb87" fill-rule="evenodd"/>
        <path id="Trazado_907914" data-name="Trazado 907914" d="M413.724,175.726h3.11v.95a.953.953,0,0,1-.95.95h-1.209a.953.953,0,0,1-.95-.95v-.95Z" transform="translate(-383.858 -163.166)" fill="#aab3bf" fill-rule="evenodd"/>
        <path id="Trazado_907915" data-name="Trazado 907915" d="M413.725,175.726h2.4v.95a.953.953,0,0,1-.95.95h-.5a.953.953,0,0,1-.95-.95Z" transform="translate(-383.859 -163.166)" fill="#b7bfc9" fill-rule="evenodd"/>
        <path id="Trazado_907916" data-name="Trazado 907916" d="M36.1,35.284a1.669,1.669,0,0,1-.924,1.287,2.63,2.63,0,0,1-.762.233v.457a.582.582,0,0,1-1.163,0v-.48a2.3,2.3,0,0,1-1.626-1.036.582.582,0,1,1,1.021-.559,1.852,1.852,0,0,0,2.012.343.506.506,0,0,0,.287-.386c.012-.1.033-.263-.3-.457a3.581,3.581,0,0,0-.98-.33c-.148-.035-.3-.072-.456-.115a2.25,2.25,0,0,1-1.39-.9,1.512,1.512,0,0,1,.218-1.869,2.235,2.235,0,0,1,1.211-.6V30.4a.582.582,0,0,1,1.163,0v.474a2.106,2.106,0,0,1,1.524.986.582.582,0,0,1-1.025.552A1.085,1.085,0,0,0,34.1,32a1.564,1.564,0,0,0-1.225.271.351.351,0,0,0-.07.447,1.153,1.153,0,0,0,.716.4c.135.038.271.07.414.1a4.518,4.518,0,0,1,1.3.459,1.581,1.581,0,0,1,.863,1.6Zm-24.384.137a.581.581,0,0,1-.794.213l-2.248-1.3a.583.583,0,0,1-.291-.5V31.059a.582.582,0,1,1,1.164,0V33.5l1.957,1.13a.582.582,0,0,1,.213.795Zm14.22-11A4.916,4.916,0,0,0,23.27,21.78a2.65,2.65,0,1,0-3.748,0,4.913,4.913,0,0,0-2.663,2.643,5.456,5.456,0,1,1,9.075,0ZM19.91,19.909A1.486,1.486,0,1,0,21.4,18.423a1.488,1.488,0,0,0-1.486,1.486ZM21.4,26.853a5.434,5.434,0,0,0,3.654-1.408,3.76,3.76,0,0,0-7.308,0A5.434,5.434,0,0,0,21.4,26.853Zm0-12.075A6.619,6.619,0,1,0,28.015,21.4,6.627,6.627,0,0,0,21.4,14.778Zm9.628,7.841V20.175L29.7,19.914a.582.582,0,0,1-.425-.348l-1.012-2.443a.581.581,0,0,1,.054-.547l.753-1.123L27.34,13.725l-1.123.753a.582.582,0,0,1-.547.054L23.228,13.52a.582.582,0,0,1-.348-.425l-.262-1.327H20.174L19.913,13.1a.582.582,0,0,1-.348.425l-2.443,1.012a.582.582,0,0,1-.547-.054l-1.123-.753-1.728,1.728.753,1.123a.583.583,0,0,1,.054.547l-1.012,2.443a.582.582,0,0,1-.425.348l-1.327.262v2.443l1.327.262a.581.581,0,0,1,.425.348l1.012,2.443a.583.583,0,0,1-.054.547l-.753,1.123,1.728,1.728,1.123-.753a.582.582,0,0,1,.547-.054l2.443,1.012a.582.582,0,0,1,.348.425l.262,1.327h2.443l.262-1.327a.581.581,0,0,1,.348-.425l2.443-1.012a.582.582,0,0,1,.546.054l1.123.753,1.728-1.728-.753-1.123a.581.581,0,0,1-.054-.547l1.012-2.443a.582.582,0,0,1,.425-.348Zm.3-3.569-1.1-.217-.773-1.868.624-.931a1.069,1.069,0,0,0-.131-1.348l-1.841-1.841a1.069,1.069,0,0,0-1.348-.131l-.931.624-1.867-.774-.217-1.1A1.069,1.069,0,0,0,22.7,10.6h-2.6a1.069,1.069,0,0,0-1.046.86l-.217,1.1-1.868.774-.93-.624a1.068,1.068,0,0,0-1.348.131l-1.841,1.841a1.069,1.069,0,0,0-.132,1.348l.624.931-.774,1.868-1.1.217A1.068,1.068,0,0,0,10.6,20.1v2.6a1.068,1.068,0,0,0,.86,1.046l1.1.217.774,1.868-.624.93a1.069,1.069,0,0,0,.131,1.348l1.841,1.841a1.068,1.068,0,0,0,1.348.131l.931-.624,1.868.774.217,1.1a1.069,1.069,0,0,0,1.046.86h2.6a1.069,1.069,0,0,0,1.047-.86l.217-1.1,1.867-.774.931.624a1.069,1.069,0,0,0,1.348-.131l1.841-1.841a1.069,1.069,0,0,0,.131-1.348l-.624-.93.773-1.868,1.1-.217a1.068,1.068,0,0,0,.86-1.046V20.1a1.068,1.068,0,0,0-.86-1.046Zm5.648,9.72a17.27,17.27,0,0,0,.4-13.83,1.426,1.426,0,0,1-.823,1.068V16.5a1.532,1.532,0,0,1-1.53,1.531H33.817A1.532,1.532,0,0,1,32.286,16.5v-.493a1.426,1.426,0,0,1-.843-1.3v-.447a3.668,3.668,0,0,0-.957-2.222A6.065,6.065,0,0,1,29.048,8.17a5.117,5.117,0,0,1,.4-2.014,17.26,17.26,0,0,0-15.441-.33,5.944,5.944,0,0,1-8.181,8.181,17.257,17.257,0,0,0-.009,14.762,5.959,5.959,0,0,1,8.208,8.208,17.255,17.255,0,0,0,14.744,0,5.959,5.959,0,0,1,8.208-8.208Zm1.653,5.062a4.8,4.8,0,1,0-4.8,4.8A4.8,4.8,0,0,0,38.629,33.831Zm-29.667,4.8a4.8,4.8,0,1,0-4.8-4.8A4.8,4.8,0,0,0,8.962,38.631ZM7.691,7.625A1.256,1.256,0,1,1,8.946,8.881,1.258,1.258,0,0,1,7.691,7.625Zm1.256,2.432a3.258,3.258,0,0,1,3.175,2.465,4.772,4.772,0,0,1-6.351,0,3.259,3.259,0,0,1,3.176-2.465ZM4.163,8.947A4.784,4.784,0,1,1,12.99,11.5a4.433,4.433,0,0,0-2.267-2.234,2.419,2.419,0,1,0-3.553,0A4.433,4.433,0,0,0,4.9,11.5a4.753,4.753,0,0,1-.74-2.552Zm31.228,7.185V16.5a.372.372,0,0,1-.367.367H33.817a.372.372,0,0,1-.367-.367v-.367Zm-.97-11.969A4.077,4.077,0,0,1,38.629,8.17a4.961,4.961,0,0,1-1.221,3.191,4.74,4.74,0,0,0-1.174,2.9v.447a.265.265,0,0,1-.262.262h-3.1a.265.265,0,0,1-.261-.262v-.447a4.741,4.741,0,0,0-1.174-2.9A4.957,4.957,0,0,1,30.212,8.17a4.076,4.076,0,0,1,4.208-4.007Zm3.327,8.795a9.139,9.139,0,0,1,.607-.92A6.062,6.062,0,0,0,39.793,8.17,5.228,5.228,0,0,0,34.421,3a5.541,5.541,0,0,0-4.394,2.147,18.424,18.424,0,0,0-16.745-.264,5.943,5.943,0,1,0-8.4,8.4A18.429,18.429,0,0,0,4.874,29.5,5.959,5.959,0,1,0,13.3,37.919a18.43,18.43,0,0,0,16.2,0A5.958,5.958,0,1,0,37.918,29.5a18.429,18.429,0,0,0-.17-16.538Z" transform="translate(-2.999 -3)" fill-rule="evenodd"/>
      </g>
    </g>
  </g>
</svg>
