<svg xmlns="http://www.w3.org/2000/svg" xmlns:xlink="http://www.w3.org/1999/xlink" width="81.414" height="81.414" viewBox="0 0 81.414 81.414">
  <defs>
    <filter id="Trazado_873828" x="0" y="0" width="81.414" height="81.414" filterUnits="userSpaceOnUse">
      <feOffset dy="3" input="SourceAlpha"/>
      <feGaussianBlur stdDeviation="3" result="blur"/>
      <feFlood flood-opacity="0.161"/>
      <feComposite operator="in" in2="blur"/>
    </filter>
    <filter id="Trazado_873828-2" x="0" y="0" width="81.414" height="81.414" filterUnits="userSpaceOnUse">
      <feOffset dy="3" input="SourceAlpha"/>
      <feGaussianBlur stdDeviation="3" result="blur-2"/>
      <feFlood flood-opacity="0.161" result="color"/>
      <feComposite operator="out" in="SourceGraphic" in2="blur-2"/>
      <feComposite operator="in" in="color"/>
      <feComposite operator="in" in2="SourceGraphic"/>
    </filter>
  </defs>
  <g id="Grupo_1114605" data-name="Grupo 1114605" transform="translate(-187.051 -4290)">
    <g data-type="innerShadowGroup">
      <g transform="matrix(1, 0, 0, 1, 187.05, 4290)" filter="url(#Trazado_873828)">
        <g id="Trazado_873828-3" data-name="Trazado 873828" transform="translate(9 6)" fill="#bce0fc">
          <path d="M 31.70703125 61.4140625 C 27.69572067260742 61.4140625 23.80547142028809 60.62889099121094 20.14433097839355 59.08036041259766 C 16.60707092285156 57.58423233032227 13.42987155914307 55.44195938110352 10.7009916305542 52.71308135986328 C 7.972101211547852 49.98419189453125 5.829841136932373 46.80699157714844 4.333701133728027 43.26974105834961 C 2.785171270370483 39.60859298706055 2.000001192092896 35.71834182739258 2.000001192092896 31.70703125 C 2.000001192092896 27.69573211669922 2.785171270370483 23.80547142028809 4.333701133728027 20.14433097839355 C 5.829841136932373 16.60707092285156 7.972101211547852 13.42987155914307 10.7009916305542 10.7009916305542 C 13.42987155914307 7.972101211547852 16.60707092285156 5.829841136932373 20.14433097839355 4.333701133728027 C 23.80547142028809 2.785171270370483 27.69573211669922 2.000001192092896 31.70703125 2.000001192092896 C 35.71834182739258 2.000001192092896 39.60859298706055 2.785171270370483 43.26974105834961 4.333701133728027 C 46.80699157714844 5.829841136932373 49.98419189453125 7.972101211547852 52.71308135986328 10.7009916305542 C 55.44195938110352 13.42987155914307 57.58423233032227 16.60707092285156 59.08036041259766 20.14433097839355 C 60.62889099121094 23.80547142028809 61.4140625 27.69572067260742 61.4140625 31.70703125 C 61.4140625 35.71834182739258 60.62889099121094 39.60859298706055 59.08036041259766 43.26974105834961 C 57.58423233032227 46.80699157714844 55.44195938110352 49.98419189453125 52.71308135986328 52.71308135986328 C 49.98419189453125 55.44195938110352 46.80699157714844 57.58423233032227 43.26974105834961 59.08036041259766 C 39.60859298706055 60.62889099121094 35.71834182739258 61.4140625 31.70703125 61.4140625 Z" stroke="none"/>
          <path d="M 31.70703125 3.999996185302734 C 27.96484375 3.999996185302734 24.33671188354492 4.732006072998047 20.92343139648438 6.175712585449219 C 17.62457275390625 7.571006774902344 14.66105651855469 9.569347381591797 12.11519622802734 12.11519622802734 C 9.569347381591797 14.66105651855469 7.571006774902344 17.62457275390625 6.175712585449219 20.92343139648438 C 4.732006072998047 24.33671188354492 3.999996185302734 27.96484375 3.999996185302734 31.70703125 C 3.999996185302734 35.44921875 4.732006072998047 39.07734680175781 6.175712585449219 42.49063110351562 C 7.571006774902344 45.78948974609375 9.5693359375 48.75300598144531 12.11519622802734 51.29886627197266 C 14.66105651855469 53.8447265625 17.62457275390625 55.84305572509766 20.92343139648438 57.23834991455078 C 24.33671188354492 58.68205642700195 27.96484375 59.41406631469727 31.70703125 59.41406631469727 C 35.44921875 59.41406631469727 39.07734680175781 58.68205642700195 42.49063110351562 57.23834991455078 C 45.78948974609375 55.84305572509766 48.75300598144531 53.8447265625 51.29886627197266 51.29886627197266 C 53.8447265625 48.75300598144531 55.84305572509766 45.78948974609375 57.23834991455078 42.49063110351562 C 58.68205642700195 39.07734680175781 59.41406631469727 35.44921875 59.41406631469727 31.70703125 C 59.41406631469727 27.96484375 58.68205642700195 24.33671188354492 57.23834991455078 20.92343139648438 C 55.84305572509766 17.62457275390625 53.8447265625 14.66105651855469 51.29886627197266 12.11519622802734 C 48.75300598144531 9.5693359375 45.78948974609375 7.571006774902344 42.49063110351562 6.175712585449219 C 39.07734680175781 4.732006072998047 35.44921875 3.999996185302734 31.70703125 3.999996185302734 M 31.70703125 -3.814697265625e-06 C 49.21834945678711 -3.814697265625e-06 63.41406631469727 14.19572448730469 63.41406631469727 31.70703125 C 63.41406631469727 49.21834945678711 49.21834945678711 63.41406631469727 31.70703125 63.41406631469727 C 14.19572448730469 63.41406631469727 -3.814697265625e-06 49.21834945678711 -3.814697265625e-06 31.70703125 C -3.814697265625e-06 14.19572448730469 14.19572448730469 -3.814697265625e-06 31.70703125 -3.814697265625e-06 Z" stroke="none" fill="#fff"/>
        </g>
      </g>
      <g id="Trazado_873828-4" data-name="Trazado 873828" transform="translate(196.051 4296)" fill="#bce0fc">
        <path d="M 31.70703125 61.4140625 C 27.69572067260742 61.4140625 23.80547142028809 60.62889099121094 20.14433097839355 59.08036041259766 C 16.60707092285156 57.58423233032227 13.42987155914307 55.44195938110352 10.7009916305542 52.71308135986328 C 7.972101211547852 49.98419189453125 5.829841136932373 46.80699157714844 4.333701133728027 43.26974105834961 C 2.785171270370483 39.60859298706055 2.000001192092896 35.71834182739258 2.000001192092896 31.70703125 C 2.000001192092896 27.69573211669922 2.785171270370483 23.80547142028809 4.333701133728027 20.14433097839355 C 5.829841136932373 16.60707092285156 7.972101211547852 13.42987155914307 10.7009916305542 10.7009916305542 C 13.42987155914307 7.972101211547852 16.60707092285156 5.829841136932373 20.14433097839355 4.333701133728027 C 23.80547142028809 2.785171270370483 27.69573211669922 2.000001192092896 31.70703125 2.000001192092896 C 35.71834182739258 2.000001192092896 39.60859298706055 2.785171270370483 43.26974105834961 4.333701133728027 C 46.80699157714844 5.829841136932373 49.98419189453125 7.972101211547852 52.71308135986328 10.7009916305542 C 55.44195938110352 13.42987155914307 57.58423233032227 16.60707092285156 59.08036041259766 20.14433097839355 C 60.62889099121094 23.80547142028809 61.4140625 27.69572067260742 61.4140625 31.70703125 C 61.4140625 35.71834182739258 60.62889099121094 39.60859298706055 59.08036041259766 43.26974105834961 C 57.58423233032227 46.80699157714844 55.44195938110352 49.98419189453125 52.71308135986328 52.71308135986328 C 49.98419189453125 55.44195938110352 46.80699157714844 57.58423233032227 43.26974105834961 59.08036041259766 C 39.60859298706055 60.62889099121094 35.71834182739258 61.4140625 31.70703125 61.4140625 Z" stroke="none"/>
        <path d="M 31.70703125 3.999996185302734 C 27.96484375 3.999996185302734 24.33671188354492 4.732006072998047 20.92343139648438 6.175712585449219 C 17.62457275390625 7.571006774902344 14.66105651855469 9.569347381591797 12.11519622802734 12.11519622802734 C 9.569347381591797 14.66105651855469 7.571006774902344 17.62457275390625 6.175712585449219 20.92343139648438 C 4.732006072998047 24.33671188354492 3.999996185302734 27.96484375 3.999996185302734 31.70703125 C 3.999996185302734 35.44921875 4.732006072998047 39.07734680175781 6.175712585449219 42.49063110351562 C 7.571006774902344 45.78948974609375 9.5693359375 48.75300598144531 12.11519622802734 51.29886627197266 C 14.66105651855469 53.8447265625 17.62457275390625 55.84305572509766 20.92343139648438 57.23834991455078 C 24.33671188354492 58.68205642700195 27.96484375 59.41406631469727 31.70703125 59.41406631469727 C 35.44921875 59.41406631469727 39.07734680175781 58.68205642700195 42.49063110351562 57.23834991455078 C 45.78948974609375 55.84305572509766 48.75300598144531 53.8447265625 51.29886627197266 51.29886627197266 C 53.8447265625 48.75300598144531 55.84305572509766 45.78948974609375 57.23834991455078 42.49063110351562 C 58.68205642700195 39.07734680175781 59.41406631469727 35.44921875 59.41406631469727 31.70703125 C 59.41406631469727 27.96484375 58.68205642700195 24.33671188354492 57.23834991455078 20.92343139648438 C 55.84305572509766 17.62457275390625 53.8447265625 14.66105651855469 51.29886627197266 12.11519622802734 C 48.75300598144531 9.5693359375 45.78948974609375 7.571006774902344 42.49063110351562 6.175712585449219 C 39.07734680175781 4.732006072998047 35.44921875 3.999996185302734 31.70703125 3.999996185302734 M 31.70703125 -3.814697265625e-06 C 49.21834945678711 -3.814697265625e-06 63.41406631469727 14.19572448730469 63.41406631469727 31.70703125 C 63.41406631469727 49.21834945678711 49.21834945678711 63.41406631469727 31.70703125 63.41406631469727 C 14.19572448730469 63.41406631469727 -3.814697265625e-06 49.21834945678711 -3.814697265625e-06 31.70703125 C -3.814697265625e-06 14.19572448730469 14.19572448730469 -3.814697265625e-06 31.70703125 -3.814697265625e-06 Z" stroke="none"/>
      </g>
      <g transform="matrix(1, 0, 0, 1, 187.05, 4290)" filter="url(#Trazado_873828-2)">
        <g id="Trazado_873828-5" data-name="Trazado 873828" transform="translate(9 6)" fill="#fff">
          <path d="M 31.70703125 61.4140625 C 27.69572067260742 61.4140625 23.80547142028809 60.62889099121094 20.14433097839355 59.08036041259766 C 16.60707092285156 57.58423233032227 13.42987155914307 55.44195938110352 10.7009916305542 52.71308135986328 C 7.972101211547852 49.98419189453125 5.829841136932373 46.80699157714844 4.333701133728027 43.26974105834961 C 2.785171270370483 39.60859298706055 2.000001192092896 35.71834182739258 2.000001192092896 31.70703125 C 2.000001192092896 27.69573211669922 2.785171270370483 23.80547142028809 4.333701133728027 20.14433097839355 C 5.829841136932373 16.60707092285156 7.972101211547852 13.42987155914307 10.7009916305542 10.7009916305542 C 13.42987155914307 7.972101211547852 16.60707092285156 5.829841136932373 20.14433097839355 4.333701133728027 C 23.80547142028809 2.785171270370483 27.69573211669922 2.000001192092896 31.70703125 2.000001192092896 C 35.71834182739258 2.000001192092896 39.60859298706055 2.785171270370483 43.26974105834961 4.333701133728027 C 46.80699157714844 5.829841136932373 49.98419189453125 7.972101211547852 52.71308135986328 10.7009916305542 C 55.44195938110352 13.42987155914307 57.58423233032227 16.60707092285156 59.08036041259766 20.14433097839355 C 60.62889099121094 23.80547142028809 61.4140625 27.69572067260742 61.4140625 31.70703125 C 61.4140625 35.71834182739258 60.62889099121094 39.60859298706055 59.08036041259766 43.26974105834961 C 57.58423233032227 46.80699157714844 55.44195938110352 49.98419189453125 52.71308135986328 52.71308135986328 C 49.98419189453125 55.44195938110352 46.80699157714844 57.58423233032227 43.26974105834961 59.08036041259766 C 39.60859298706055 60.62889099121094 35.71834182739258 61.4140625 31.70703125 61.4140625 Z" stroke="none"/>
          <path d="M 31.70703125 3.999996185302734 C 27.96484375 3.999996185302734 24.33671188354492 4.732006072998047 20.92343139648438 6.175712585449219 C 17.62457275390625 7.571006774902344 14.66105651855469 9.569347381591797 12.11519622802734 12.11519622802734 C 9.569347381591797 14.66105651855469 7.571006774902344 17.62457275390625 6.175712585449219 20.92343139648438 C 4.732006072998047 24.33671188354492 3.999996185302734 27.96484375 3.999996185302734 31.70703125 C 3.999996185302734 35.44921875 4.732006072998047 39.07734680175781 6.175712585449219 42.49063110351562 C 7.571006774902344 45.78948974609375 9.5693359375 48.75300598144531 12.11519622802734 51.29886627197266 C 14.66105651855469 53.8447265625 17.62457275390625 55.84305572509766 20.92343139648438 57.23834991455078 C 24.33671188354492 58.68205642700195 27.96484375 59.41406631469727 31.70703125 59.41406631469727 C 35.44921875 59.41406631469727 39.07734680175781 58.68205642700195 42.49063110351562 57.23834991455078 C 45.78948974609375 55.84305572509766 48.75300598144531 53.8447265625 51.29886627197266 51.29886627197266 C 53.8447265625 48.75300598144531 55.84305572509766 45.78948974609375 57.23834991455078 42.49063110351562 C 58.68205642700195 39.07734680175781 59.41406631469727 35.44921875 59.41406631469727 31.70703125 C 59.41406631469727 27.96484375 58.68205642700195 24.33671188354492 57.23834991455078 20.92343139648438 C 55.84305572509766 17.62457275390625 53.8447265625 14.66105651855469 51.29886627197266 12.11519622802734 C 48.75300598144531 9.5693359375 45.78948974609375 7.571006774902344 42.49063110351562 6.175712585449219 C 39.07734680175781 4.732006072998047 35.44921875 3.999996185302734 31.70703125 3.999996185302734 M 31.70703125 -3.814697265625e-06 C 49.21834945678711 -3.814697265625e-06 63.41406631469727 14.19572448730469 63.41406631469727 31.70703125 C 63.41406631469727 49.21834945678711 49.21834945678711 63.41406631469727 31.70703125 63.41406631469727 C 14.19572448730469 63.41406631469727 -3.814697265625e-06 49.21834945678711 -3.814697265625e-06 31.70703125 C -3.814697265625e-06 14.19572448730469 14.19572448730469 -3.814697265625e-06 31.70703125 -3.814697265625e-06 Z" stroke="none"/>
        </g>
      </g>
      <g id="Trazado_873828-6" data-name="Trazado 873828" transform="translate(196.051 4296)" fill="none">
        <path d="M 31.70703125 61.4140625 C 27.69572067260742 61.4140625 23.80547142028809 60.62889099121094 20.14433097839355 59.08036041259766 C 16.60707092285156 57.58423233032227 13.42987155914307 55.44195938110352 10.7009916305542 52.71308135986328 C 7.972101211547852 49.98419189453125 5.829841136932373 46.80699157714844 4.333701133728027 43.26974105834961 C 2.785171270370483 39.60859298706055 2.000001192092896 35.71834182739258 2.000001192092896 31.70703125 C 2.000001192092896 27.69573211669922 2.785171270370483 23.80547142028809 4.333701133728027 20.14433097839355 C 5.829841136932373 16.60707092285156 7.972101211547852 13.42987155914307 10.7009916305542 10.7009916305542 C 13.42987155914307 7.972101211547852 16.60707092285156 5.829841136932373 20.14433097839355 4.333701133728027 C 23.80547142028809 2.785171270370483 27.69573211669922 2.000001192092896 31.70703125 2.000001192092896 C 35.71834182739258 2.000001192092896 39.60859298706055 2.785171270370483 43.26974105834961 4.333701133728027 C 46.80699157714844 5.829841136932373 49.98419189453125 7.972101211547852 52.71308135986328 10.7009916305542 C 55.44195938110352 13.42987155914307 57.58423233032227 16.60707092285156 59.08036041259766 20.14433097839355 C 60.62889099121094 23.80547142028809 61.4140625 27.69572067260742 61.4140625 31.70703125 C 61.4140625 35.71834182739258 60.62889099121094 39.60859298706055 59.08036041259766 43.26974105834961 C 57.58423233032227 46.80699157714844 55.44195938110352 49.98419189453125 52.71308135986328 52.71308135986328 C 49.98419189453125 55.44195938110352 46.80699157714844 57.58423233032227 43.26974105834961 59.08036041259766 C 39.60859298706055 60.62889099121094 35.71834182739258 61.4140625 31.70703125 61.4140625 Z" stroke="none"/>
        <path d="M 31.70703125 3.999996185302734 C 27.96484375 3.999996185302734 24.33671188354492 4.732006072998047 20.92343139648438 6.175712585449219 C 17.62457275390625 7.571006774902344 14.66105651855469 9.569347381591797 12.11519622802734 12.11519622802734 C 9.569347381591797 14.66105651855469 7.571006774902344 17.62457275390625 6.175712585449219 20.92343139648438 C 4.732006072998047 24.33671188354492 3.999996185302734 27.96484375 3.999996185302734 31.70703125 C 3.999996185302734 35.44921875 4.732006072998047 39.07734680175781 6.175712585449219 42.49063110351562 C 7.571006774902344 45.78948974609375 9.5693359375 48.75300598144531 12.11519622802734 51.29886627197266 C 14.66105651855469 53.8447265625 17.62457275390625 55.84305572509766 20.92343139648438 57.23834991455078 C 24.33671188354492 58.68205642700195 27.96484375 59.41406631469727 31.70703125 59.41406631469727 C 35.44921875 59.41406631469727 39.07734680175781 58.68205642700195 42.49063110351562 57.23834991455078 C 45.78948974609375 55.84305572509766 48.75300598144531 53.8447265625 51.29886627197266 51.29886627197266 C 53.8447265625 48.75300598144531 55.84305572509766 45.78948974609375 57.23834991455078 42.49063110351562 C 58.68205642700195 39.07734680175781 59.41406631469727 35.44921875 59.41406631469727 31.70703125 C 59.41406631469727 27.96484375 58.68205642700195 24.33671188354492 57.23834991455078 20.92343139648438 C 55.84305572509766 17.62457275390625 53.8447265625 14.66105651855469 51.29886627197266 12.11519622802734 C 48.75300598144531 9.5693359375 45.78948974609375 7.571006774902344 42.49063110351562 6.175712585449219 C 39.07734680175781 4.732006072998047 35.44921875 3.999996185302734 31.70703125 3.999996185302734 M 31.70703125 -3.814697265625e-06 C 49.21834945678711 -3.814697265625e-06 63.41406631469727 14.19572448730469 63.41406631469727 31.70703125 C 63.41406631469727 49.21834945678711 49.21834945678711 63.41406631469727 31.70703125 63.41406631469727 C 14.19572448730469 63.41406631469727 -3.814697265625e-06 49.21834945678711 -3.814697265625e-06 31.70703125 C -3.814697265625e-06 14.19572448730469 14.19572448730469 -3.814697265625e-06 31.70703125 -3.814697265625e-06 Z" stroke="none" fill="#fff"/>
      </g>
    </g>
    <g id="layer1" transform="translate(209.522 4309.471)">
      <path id="path9996" d="M11.417,9.513V8.35A1.74,1.74,0,0,0,9.673,6.607H6.767V8.932L2.117,4.863,6.767.794V3.119h4.069a4.056,4.056,0,0,1,2.5.855h.987v5.54Z" transform="translate(1.9 0.317)" fill="#ffca28"/>
      <path id="path10002" d="M9.385,2.566a7.021,7.021,0,0,1-3.143,2.8,1.731,1.731,0,0,1,.236.864V7.392H9.385Z" transform="translate(6.839 2.438)" fill="#ecb200"/>
      <path id="path9978" d="M12.167,9.513V8.35a1.74,1.74,0,0,1,1.744-1.744h2.906V8.932l4.65-4.069L16.817.794V3.119H12.748a4.056,4.056,0,0,0-2.5.855H9.26v5.54Z" transform="translate(10.451 0.317)" fill="#ffca28"/>
      <path id="path9991" d="M11.049,2.026a4.054,4.054,0,0,0-.8.472H9.26V5.985h1.163V3.969h2.325Z" transform="translate(10.451 1.792)" fill="#ecb200"/>
      <path id="path9971" d="M12.427,7.461V5.444h2.325L10.684.794,6.615,5.444H8.94V7.461Z" transform="translate(7.284 0.317)" fill="#e4eff8"/>
      <path id="path9973" d="M10.479,1.346A6.11,6.11,0,0,1,7.673,5.725V6.8h3.488V4.783h2.325Z" transform="translate(8.551 0.978)" fill="#c4dcf0"/>
      <path id="ellipse9959" d="M19.307,10.05A2.906,2.906,0,1,1,16.4,7.144,2.906,2.906,0,0,1,19.307,10.05Z" transform="translate(15.519 7.918)" fill="#ffca28"/>
      <path id="ellipse9963" d="M16.4,7.144a2.906,2.906,0,0,0-1.384,5.462,2.9,2.9,0,0,1,3.931-3.949A2.906,2.906,0,0,0,16.4,7.144Z" transform="translate(15.519 7.918)" fill="#ecb200"/>
      <path id="path9823" d="M12.906,10.455a.874.874,0,0,0-.378.162,2.692,2.692,0,0,0,.378-.109Z" transform="translate(14.363 11.881)" fill="#c4dcf0"/>
      <path id="path9825" d="M20.006,11.573l-3.248-1.519-2.326,2.325H13.269l-2.324-2.325L7.7,11.573c-1.342.647-2.5,1.152-2.725,2.548l-.981,6.727c-.222,1.4,1.216,2.576,2.726,2.576H22.571l-.132-1.905c-.063-.057-.12-.107-.193-.181-1.3-1.318.171-.954-.522-2.668s-1.494-.433-1.478-2.282.795-.554,1.517-2.256a3.023,3.023,0,0,0,.14-.41l-.086-1.1a8.135,8.135,0,0,0-1.81-1.051Z" transform="translate(4.117 11.402)" fill="#e4eff8"/>
      <path id="path9829" d="M13.273,10.054l-2.326,2.325H9.784l-1.8-1.8-1.106.638L9.2,14.123l.581-.581L10.948,14.7l-.592,7.276h2.616l.047-1.463-.907-5.8.661-.434.565.565,2.729-3.484Z" transform="translate(7.601 11.402)" fill="#c4dcf0"/>
      <path id="path9831" d="M4.165,21.445a2.982,2.982,0,0,0,2.317,1.1H22.336L22.2,20.642c-.063-.057-.12-.107-.193-.181-1.3-1.318.171-.954-.522-2.668s-1.494-.433-1.478-2.282.795-.554,1.517-2.256a3.023,3.023,0,0,0,.14-.41L21.6,11.793c-.012-.03-.018-.061-.028-.091a8.656,8.656,0,0,0-1.613-.915C19.63,20.286,11.291,21.445,4.165,21.445Z" transform="translate(4.352 12.279)" fill="#c4dcf0"/>
      <path id="path9833" d="M6.35,11.217l2.325,2.906,1.744-1.744h1.163l1.744,1.744,2.325-2.906-1.744-1.162H8.363Z" transform="translate(6.968 11.402)" fill="#427096"/>
      <path id="path9835" d="M8.364,10.054,6.35,11.217l2.325,2.906.646-.646-1.809-2.26,2.014-1.163Z" transform="translate(6.968 11.402)" fill="#f5f9fb"/>
      <path id="path9837" d="M7.408,9.26h4.65v2.325L10.3,13.329H9.144L7.408,11.586Z" transform="translate(8.234 10.451)" fill="#ffbd8d"/>
      <path id="path9847" d="M10.718,9.26A4.6,4.6,0,0,1,8.013,12.92l.406.409h.009a4.714,4.714,0,0,0,1.345-.2l1.561-1.547V9.26Z" transform="translate(8.958 10.451)" fill="#ffa465"/>
      <path id="path9851" d="M11.184,12.275,9.417,14.01,7.673,12.266l1.163-1.154H10Z" transform="translate(8.551 12.668)" fill="#427096"/>
      <path id="path9853" d="M11.035,10.228a5.442,5.442,0,0,1-1.807,3.034l.653.653,1.979-2.474v-.663Z" transform="translate(10.412 11.61)" fill="#365b7a"/>
      <path id="path9855" d="M8.731,11.429l1.744,1.744.517-.646L9.313,10.848Z" transform="translate(9.818 12.352)" fill="#f5f9fb"/>
      <path id="path9857" d="M9.9,11.29a4.614,4.614,0,0,1-1.805,1.681l.518.518a4.7,4.7,0,0,0,.738-.115l1.337-1.312Z" transform="translate(9.052 12.881)" fill="#365b7a"/>
      <path id="path9859" d="M8.8,11.113,7.7,12.206l.484.605.041.041,1.739-1.739Z" transform="translate(8.585 12.668)" fill="#365b7a"/>
      <path id="path9865" d="M10,12.171H8.836L7.673,20.309h3.488A76.25,76.25,0,0,1,10,12.171Z" transform="translate(8.551 13.935)" fill="#427096"/>
      <path id="path9867" d="M9.631,12.171c.1,3.263-.35,6.873-1.705,7.419l-.12.719h2.943l.047-1.463L9.84,12.171Z" transform="translate(8.71 13.935)" fill="#365b7a"/>
      <path id="path9807" d="M13.9,12.435l.068.188a2.893,2.893,0,0,1,.15,1.243A2.886,2.886,0,0,1,12.956,16.5h4.669a1.16,1.16,0,0,0,1.163-1.163V13.6a1.16,1.16,0,0,0-1.163-1.163Z" transform="translate(14.875 14.252)" fill="#ffca28"/>
      <path id="path9809" d="M18.064,12.475c-.523,1.16-2.126,1.852-4,2.263a2.885,2.885,0,0,1-1.115,1.72h4.673a1.16,1.16,0,0,0,1.163-1.163V13.551a1.159,1.159,0,0,0-.725-1.076Z" transform="translate(14.873 14.299)" fill="#ecb200"/>
      <path id="path9801" d="M21.311,18.317a1.16,1.16,0,0,0,1.163-1.163V15.411a1.16,1.16,0,0,0-1.163-1.163h-9.3a1.16,1.16,0,0,0-1.163,1.163v1.744a1.16,1.16,0,0,0,1.163,1.163h9.3Z" transform="translate(12.352 16.422)" fill="#ffca28"/>
      <path id="path9803" d="M21.747,14.288c-1.208,2.68-8.173,2.869-10.9,2.842a1.159,1.159,0,0,0,1.16,1.141h9.3a1.16,1.16,0,0,0,1.163-1.163V15.364a1.159,1.159,0,0,0-.725-1.076Z" transform="translate(12.353 16.469)" fill="#ecb200"/>
      <path id="path9805" d="M12.011,14.248a1.16,1.16,0,0,0-1.163,1.163v1.744a1.16,1.16,0,0,0,1.163,1.163h1.163a1.16,1.16,0,0,1-1.163-1.163V15.411a1.16,1.16,0,0,1,1.163-1.163Z" transform="translate(12.352 16.422)" fill="#f5f9fb"/>
      <path id="path9795" d="M11.257,18.489a1.16,1.16,0,0,0,1.163-1.163V15.582a1.16,1.16,0,0,0-1.163-1.163h-9.3A1.16,1.16,0,0,0,.794,15.582v1.744a1.16,1.16,0,0,0,1.163,1.163Z" transform="translate(0.317 16.627)" fill="#ffca28"/>
      <path id="path9797" d="M11.693,14.459C10.485,17.139,3.52,17.328.795,17.3a1.159,1.159,0,0,0,1.16,1.141h9.3a1.16,1.16,0,0,0,1.163-1.163V15.535a1.159,1.159,0,0,0-.725-1.076Z" transform="translate(0.318 16.674)" fill="#ecb200"/>
      <path id="path9799" d="M1.956,14.42A1.16,1.16,0,0,0,.794,15.582v1.744a1.16,1.16,0,0,0,1.163,1.163H3.119a1.16,1.16,0,0,1-1.163-1.163V15.582A1.16,1.16,0,0,1,3.119,14.42Z" transform="translate(0.317 16.627)" fill="#f5f9fb"/>
      <path id="path9783" d="M11.257,16.5a1.16,1.16,0,0,0,1.163-1.163V13.6a1.16,1.16,0,0,0-1.163-1.163h-9.3A1.16,1.16,0,0,0,.794,13.6v1.744A1.16,1.16,0,0,0,1.956,16.5Z" transform="translate(0.317 14.252)" fill="#ffca28"/>
      <path id="path9785" d="M11.693,12.475c-1.208,2.68-8.173,2.869-10.9,2.842a1.159,1.159,0,0,0,1.16,1.141h9.3a1.16,1.16,0,0,0,1.163-1.163V13.551a1.159,1.159,0,0,0-.725-1.076Z" transform="translate(0.318 14.299)" fill="#ecb200"/>
      <path id="ellipse9771" d="M12.42,12.957A5.813,5.813,0,1,1,6.607,7.144,5.813,5.813,0,0,1,12.42,12.957Z" transform="translate(0.317 7.918)" fill="#ffca28"/>
      <path id="ellipse9780" d="M9.976,8.189a6.091,6.091,0,0,1-8.135,8.139A5.806,5.806,0,0,0,9.976,8.189Z" transform="translate(1.571 9.169)" fill="#f5f9fb"/>
      <path id="ellipse9775" d="M6.607,7.144A5.807,5.807,0,0,0,3.12,17.6a5.8,5.8,0,0,1,8.136-8.122A5.813,5.813,0,0,0,6.607,7.144Z" transform="translate(0.317 7.918)" fill="#ecb200"/>
      <path id="path9764" d="M7.617,10.367H7.036a1.744,1.744,0,1,1,0-3.488h.583Z" transform="translate(5.701 7.601)" fill="#ffd1b5"/>
      <path id="path9768" d="M7.036,6.879a1.744,1.744,0,1,0,0,3.488h.581V10.26a1.734,1.734,0,0,1,0-3.274V6.879Z" transform="translate(5.701 7.601)" fill="#f5f9fb"/>
      <path id="path9734" d="M8.83,6.676a5.569,5.569,0,0,1-2.48.455V8.322A4.622,4.622,0,0,0,11,12.935a4.689,4.689,0,0,0,1.821-.364l-.916-1.392a3.486,3.486,0,0,1-3.076-4.5Z" transform="translate(6.968 7.358)" fill="#ffd1b5"/>
      <path id="path9982" d="M11.8,3.175a1.74,1.74,0,0,0-1.744,1.744V6.081H11.8V4.919a1.74,1.74,0,0,1,1.744-1.744Z" transform="translate(11.402 3.167)" fill="#ecb200"/>
      <path id="path9633" d="M11.634,3.7A5.8,5.8,0,0,0,5.821,9.517V10.68H17.447V9.517A5.8,5.8,0,0,0,11.634,3.7Z" transform="translate(6.334 3.801)" fill="#427096"/>
      <path id="path9645" d="M11.634,3.7A5.8,5.8,0,0,0,5.821,9.517V10.68H6.983V9.517a5.8,5.8,0,0,1,5.232-5.785Q11.928,3.7,11.634,3.7Z" transform="translate(6.334 3.801)" fill="#f5f9fb"/>
      <path id="path9640" d="M9.1,3.7a5.877,5.877,0,0,0-1.163.116,5.8,5.8,0,0,1,4.65,5.7V10.68h2.325V9.517A5.8,5.8,0,0,0,9.1,3.7Z" transform="translate(8.868 3.801)" fill="#365b7a"/>
      <path id="path9741" d="M11.515,6.213A3.492,3.492,0,0,1,9,12.119a2.53,2.53,0,0,0,1.769,2.128,1.183,1.183,0,0,1,.56-.417l3.363-1.2a1.179,1.179,0,0,1,.121-.03V11.547c0-1.742.451-2.906,0-4.069A2.308,2.308,0,0,0,12.664,5.9,2.634,2.634,0,0,0,11.515,6.213Z" transform="translate(10.135 6.43)" fill="#ffd1b5"/>
      <path id="circle9727" d="M14.384,9.044A3.488,3.488,0,1,1,10.9,5.556a3.488,3.488,0,0,1,3.488,3.488Z" transform="translate(8.234 6.017)" fill="#e4eff8"/>
      <path id="path9751" d="M7.513,6.845a7.935,7.935,0,0,1-1.163.084V8.12A4.622,4.622,0,0,0,11,12.733a4.752,4.752,0,0,0,.581-.04A4.612,4.612,0,0,1,7.513,8.12Z" transform="translate(6.968 7.56)" fill="#f5f9fb"/>
      <path id="path9759" d="M9.377,13.112a3.8,3.8,0,0,0,.931.559,1.183,1.183,0,0,1,.56-.417l3.363-1.2a1.179,1.179,0,0,1,.121-.03V10.971c0-1.742.451-2.906,0-4.069a2.8,2.8,0,0,0-.272-.52c0,5.311-3.219,6.025-4.7,6.73Z" transform="translate(10.591 7.006)" fill="#ffb98d"/>
      <path id="circle9731" d="M10.9,5.556a3.484,3.484,0,0,0-1.814,6.461,3.482,3.482,0,0,1,4.791-4.784A3.488,3.488,0,0,0,10.9,5.556Z" transform="translate(8.234 6.017)" fill="#c4dcf0"/>
      <path id="circle9754" d="M12.161,8.615a3.488,3.488,0,0,1-2.9,3.437,3.483,3.483,0,0,0,2.773-6.138,2.769,2.769,0,0,0-.846.283,3.517,3.517,0,0,1,.968,2.418Z" transform="translate(10.458 6.446)" fill="#ffb98d"/>
      <path id="path9987" d="M12.7,5.632V7.158l4.65-4.069-.93-.814c-.941.941-2.463,2.257-3.72,3.357Z" transform="translate(14.569 2.09)" fill="#ecb200"/>
      <g id="Grupo_1114604" data-name="Grupo 1114604" transform="translate(1.11 1.11)">
        <path id="path10000" d="M6.767,2.32V.794L2.117,4.863l.93.814c.941-.941,2.463-2.257,3.72-3.357Z" transform="translate(0.79 -0.794)" fill="#f5f9fb"/>
        <path id="ellipse9968" d="M18.021,7.566a3.189,3.189,0,0,1-4.105,4.1,2.9,2.9,0,0,0,4.105-4.1Z" transform="translate(14.913 7.313)" fill="#f5f9fb"/>
        <path id="path9792" d="M1.956,12.435A1.16,1.16,0,0,0,.794,13.6v1.744A1.16,1.16,0,0,0,1.956,16.5H3.119a1.16,1.16,0,0,1-1.163-1.163V13.6a1.16,1.16,0,0,1,1.163-1.163Z" transform="translate(-0.794 13.141)" fill="#f5f9fb"/>
      </g>
      <path id="path9811" d="M17.819,16.742a2.906,2.906,0,0,1-5.476,1.95L9.808,11.719a1.16,1.16,0,0,1,.705-1.485L13.8,9.063a1.16,1.16,0,0,1,1.485.705Z" transform="translate(11.025 10.134)" fill="#e4eff8"/>
      <path id="path9820" d="M12.357,9a1.164,1.164,0,0,0-.458.067l-.572.2a1.154,1.154,0,0,1,.354.5l2.535,6.973a2.9,2.9,0,0,1-1.763,3.714c-.039.014-.079.023-.118.035a2.9,2.9,0,0,0,3.584-3.749L13.384,9.769A1.16,1.16,0,0,0,12.357,9Z" transform="translate(12.925 10.134)" fill="#c4dcf0"/>
      <path id="path9815" d="M14.257,9a1.164,1.164,0,0,0-.458.067l-3.286,1.169a1.162,1.162,0,0,0-.706,1.486l2.535,6.973a2.9,2.9,0,0,0,3.332,1.866,2.889,2.889,0,0,1-2.17-1.866L10.97,11.719a1.162,1.162,0,0,1,.706-1.486l3.068-1.092A1.156,1.156,0,0,0,14.257,9Z" transform="translate(11.025 10.134)" fill="#f5f9fb"/>
      <path id="ellipse9716" d="M1.081.85c0,.469-.242.85-.541.85S0,1.319,0,.85.242,0,.541,0s.541.38.541.85Z" transform="translate(15.859 9.427) rotate(45)" fill="#6a98be"/>
      <path id="ellipse9718" d="M.36.283C.36.44.28.566.18.566S0,.44,0,.283.081,0,.18,0,.36.127.36.283Z" transform="matrix(0.545, 0.838, -0.838, 0.545, 16.831, 9.222)" fill="#6a98be"/>
      <path id="path6688" d="M8.284.671,3.637,4.744a.581.581,0,0,0,0,.875L8.284,9.687a.581.581,0,0,0,.965-.438V7.507h2.326a1.153,1.153,0,0,1,1.163,1.158v.984a6.369,6.369,0,0,0-1.163,3.676v.886A2.314,2.314,0,0,0,10.5,15.577a6.394,6.394,0,0,0-7.254,10.53H2.271A1.735,1.735,0,0,0,.529,27.832v1.782a1.7,1.7,0,0,0,.445,1.143A1.7,1.7,0,0,0,.529,31.9v1.782a1.73,1.73,0,0,0,1.742,1.725h9.305a1.735,1.735,0,0,0,1.3-.581H23.061a1.74,1.74,0,0,0,1.3.581h9.305a1.73,1.73,0,0,0,1.742-1.725V31.9a1.728,1.728,0,0,0-1.286-1.662,1.685,1.685,0,0,0,.124-.624V27.831A1.74,1.74,0,0,0,32.5,26.106H29.182l-2.326-6.4a1.732,1.732,0,0,0-1.331-1.13v-.6c0-.821.108-1.518.167-2.2a4.482,4.482,0,0,0-.205-2.077,3.153,3.153,0,0,0-1.233-1.538A6.29,6.29,0,0,0,23.2,9.643V8.665a1.157,1.157,0,0,1,1.164-1.158h2.325V9.249a.582.582,0,0,0,.966.438L32.3,5.619a.581.581,0,0,0,0-.875L27.654.671a.591.591,0,0,0-.4-.142.582.582,0,0,0-.571.579V2.855H23.2a4.6,4.6,0,0,0-2.367.641L18.406.727a.584.584,0,0,0-.875,0L15.1,3.5a4.64,4.64,0,0,0-2.365-.648H9.249V1.108A.578.578,0,0,0,8.659.529a.591.591,0,0,0-.376.142ZM1.864,2.685l.579.584a.583.583,0,0,0,.824-.824l-.584-.579a.593.593,0,0,0-.447-.178A.583.583,0,0,0,1.864,2.685Zm31.389-.82-.584.579a.583.583,0,1,0,.824.824l.579-.584a.58.58,0,1,0-.82-.82ZM17.968,2l2.79,3.183H19.711a.581.581,0,0,0-.579.579V7.039a6.293,6.293,0,0,0-2.326,0V5.761a.581.581,0,0,0-.579-.579H15.18Zm-9.882.4V3.435a.581.581,0,0,0,.579.584h4.072a3.468,3.468,0,0,1,1.582.381l-.856.979a.581.581,0,0,0,.437.966h1.743V7.373a6.366,6.366,0,0,0-1.768,1.039,2.313,2.313,0,0,0-2.3-2.066H8.665a.581.581,0,0,0-.579.579V7.967L4.9,5.182Zm19.765,0,3.183,2.788L27.851,7.967V6.924a.582.582,0,0,0-.585-.579h-2.9A2.307,2.307,0,0,0,22.054,8.4a6.3,6.3,0,0,0-1.76-1.034V6.345h1.742a.581.581,0,0,0,.438-.966l-.859-.984A3.485,3.485,0,0,1,23.2,4.019h4.068a.582.582,0,0,0,.585-.584ZM1.117,4.6a.581.581,0,1,0,0,1.163h.605a.581.581,0,1,0,0-1.163Zm33.1,0a.581.581,0,1,0,0,1.163h.6a.581.581,0,1,0,0-1.163ZM32.669,7.915l.584.584a.581.581,0,1,0,.82-.824L33.494,7.1a.6.6,0,0,0-.447-.177A.583.583,0,0,0,32.669,7.915ZM2.443,7.1l-.579.579a.581.581,0,1,0,.82.824l.584-.584a.581.581,0,1,0-.824-.82Zm20.518,4.658a3,3,0,0,0-1.2.205,4.042,4.042,0,0,0-2.627-.966,4.091,4.091,0,0,0-3.8,2.62,5.186,5.186,0,0,1-1.781.286h-.808v-.573a5.233,5.233,0,0,1,10.224-1.572ZM6.914,10.4a.582.582,0,0,0-.57.588v.584a.581.581,0,0,0,1.163,0v-.584a.581.581,0,0,0-.593-.588Zm25,.009a.558.558,0,0,0-.581.581v.581a.581.581,0,1,0,1.163,0v-.581A.558.558,0,0,0,31.918,10.413ZM4.009,11.568a.582.582,0,0,0-.574.588v.584a.581.581,0,1,0,1.163,0v-.584A.581.581,0,0,0,4.009,11.568Zm5.811,0a.582.582,0,0,0-.571.588v.584a.582.582,0,0,0,1.164,0v-.584A.581.581,0,0,0,9.82,11.568Zm9.312.589a2.906,2.906,0,1,1-2.905,2.909A2.9,2.9,0,0,1,19.132,12.157Zm10.461,0a.558.558,0,0,0-.581.581v.581a.581.581,0,1,0,1.163,0v-.581A.558.558,0,0,0,29.593,12.157Zm4.65,0a.558.558,0,0,0-.581.581v.581a.581.581,0,1,0,1.163,0v-.581A.558.558,0,0,0,34.243,12.157Zm-10.752.908a1.963,1.963,0,0,1,.909,1.056,3.352,3.352,0,0,1,.133,1.558c-.054.625-.171,1.379-.171,2.3v.768l-3.021,1.073a1.72,1.72,0,0,0-.423.23,2.95,2.95,0,0,1-.664-.443,1.8,1.8,0,0,1-.417-.539A4.059,4.059,0,0,0,22.6,12.946a1.915,1.915,0,0,1,.247-.02,1.407,1.407,0,0,1,.645.139Zm-4.36.253a1.759,1.759,0,0,0-1.747,1.747.581.581,0,1,0,1.163,0,.578.578,0,0,1,.585-.585.581.581,0,1,0,0-1.163Zm12.786,1.163a3.489,3.489,0,1,0,3.489,3.489A3.488,3.488,0,0,0,31.918,14.481Zm-16.855.585a4.069,4.069,0,0,0,3.551,4.03,2.439,2.439,0,0,0,.2.53,4.166,4.166,0,0,1-.848.087,4.037,4.037,0,0,1-4.068-4.03v-.622a8.762,8.762,0,0,0,1.172-.162c0,.056-.008.111-.008.167Zm-2.325.617a5.165,5.165,0,0,0,.286,1.706h-.286a1.106,1.106,0,0,1-.536-.123,7,7,0,0,0-.585-.735,1,1,0,0,1-.042-.305,1.161,1.161,0,0,1,1.163-1.163Zm19.18-.04a2.326,2.326,0,1,1-2.326,2.326A2.329,2.329,0,0,1,31.918,15.643Zm-24.994,0a5.23,5.23,0,1,1-5.23,5.23,5.235,5.235,0,0,1,5.23-5.23Zm-.581,1.743H5.759a1.744,1.744,0,0,0-1.742,1.747v.579A1.742,1.742,0,0,0,5.76,21.459h.582V23.2H5.76a.573.573,0,0,1-.579-.579.581.581,0,1,0-1.163,0A1.74,1.74,0,0,0,5.76,24.364h.582a.581.581,0,1,0,1.163,0h.581A1.743,1.743,0,0,0,9.83,22.621v-.584A1.733,1.733,0,0,0,8.086,20.3H7.5V18.551h.581a.576.576,0,0,1,.579.582.581.581,0,1,0,1.163,0,1.74,1.74,0,0,0-1.742-1.745H7.5a.581.581,0,1,0-1.163,0Zm-.584,1.164h.584V20.3H5.76a.584.584,0,0,1-.58-.584v-.579a.575.575,0,0,1,.579-.582Zm7.115,0h.73A5.21,5.21,0,0,0,15.061,20v.871h-.007a.578.578,0,0,0-.241.056l-1.55.724a6.435,6.435,0,0,0,.052-.78,6.359,6.359,0,0,0-.443-2.324ZM25.761,20.1,28.3,27.075a2.325,2.325,0,1,1-4.381,1.556L21.38,21.656a.576.576,0,0,1,.352-.738l3.287-1.172a.586.586,0,0,1,.233-.034.579.579,0,0,1,.51.388Zm-9.537.477a5.248,5.248,0,0,0,3.417.025,4.249,4.249,0,0,0,.606.4,1.748,1.748,0,0,0-.054.312L18.307,23.2h-.682l-1.4-1.4ZM7.5,21.459h.581a.574.574,0,0,1,.581.579v.584a.577.577,0,0,1-.581.579H7.5Zm7.434.7,1.627,1.625-.876.873-1.658-2.074Zm5.564.494.421,1.156-.678.848-.876-.873Zm-7.556.437,2.24,2.8a.581.581,0,0,0,.867.048l.175-.175.54.542-1.052,7.359h-2.4V31.9a1.7,1.7,0,0,0-.445-1.142,1.7,1.7,0,0,0,.445-1.143V27.833a1.733,1.733,0,0,0-1.742-1.725H10.6a6.425,6.425,0,0,0,2.319-3Zm4.682,1.275h.678l.59.59-.925.907-.922-.918Zm3.76.724,1.432,3.94a3.453,3.453,0,0,0,.825,1.3A1.734,1.734,0,0,0,22.618,31.9v1.763h-2.4l-1.046-7.347.551-.542.162.162a.581.581,0,0,0,.866-.048Zm-3.268,2.154.92,6.423H16.894l.918-6.421a.581.581,0,0,0,.31,0Zm11.424.028h1.21v1.163a.581.581,0,1,0,1.163,0V27.269H32.5a.579.579,0,0,1,.579.562v1.782a.581.581,0,0,1-.579.562H28.709a3.476,3.476,0,0,0,.837-2.906ZM2.269,30.177a.575.575,0,0,1-.577-.561V27.833a.581.581,0,0,1,.579-.562h.584v1.161a.581.581,0,1,0,1.163,0V27.271H5.18v1.161a.581.581,0,1,0,1.163,0V27.271H7.5v1.161a.581.581,0,1,0,1.163,0V27.271H9.83v1.161a.581.581,0,1,0,1.163,0V27.271h.584a.579.579,0,0,1,.579.562v1.782a.576.576,0,0,1-.577.561ZM24.36,31.339h.584V32.5a.581.581,0,1,0,1.163,0V31.339h1.163V32.5a.581.581,0,1,0,1.163,0V31.339h1.163V32.5a.581.581,0,1,0,1.163,0V31.339h1.163V32.5a.581.581,0,1,0,1.163,0V31.339h.584a.578.578,0,0,1,.579.562v1.782a.566.566,0,0,1-.579.562H24.36a.578.578,0,0,1-.579-.562V31.9a.576.576,0,0,1,.579-.562Zm-12.2.562v1.782a.581.581,0,0,1-.579.562H2.271a.578.578,0,0,1-.579-.562V31.9a.573.573,0,0,1,.577-.561h.585V32.5a.581.581,0,1,0,1.163,0V31.34H5.18V32.5a.581.581,0,1,0,1.163,0V31.34H7.5V32.5a.581.581,0,1,0,1.163,0V31.34H9.83V32.5a.581.581,0,1,0,1.163,0V31.34h.585a.581.581,0,0,1,.577.561Z" transform="translate(0 0)" fill="#333"/>
    </g>
  </g>
</svg>
