<svg xmlns="http://www.w3.org/2000/svg" width="491.949" height="82.436" viewBox="0 0 491.949 82.436">
  <g id="Grupo_1113325" data-name="Grupo 1113325" transform="translate(-288.051 -2598.564)">
    <rect id="Rect치ngulo_406002" data-name="Rect치ngulo 406002" width="481.308" height="74" transform="translate(298.692 2607)" fill="#bce0fc"/>
    <g id="Rect치ngulo_406003" data-name="Rect치ngulo 406003" transform="translate(288.051 2598.564)" fill="#fbfbf9" stroke="#000" stroke-width="0.5">
      <rect width="488.08" height="76" stroke="none"/>
      <rect x="0.25" y="0.25" width="487.58" height="75.5" fill="none"/>
    </g>
    <path id="Trazado_908361" data-name="Trazado 908361" d="M42.387,11.359l.016.047a4.027,4.027,0,0,1-1.523,2.711,4.979,4.979,0,0,1-3.219,1.047,3.446,3.446,0,0,1-2.9-1.379,4.374,4.374,0,0,1-.73-3.457l.3-2.023a5.839,5.839,0,0,1,1.727-3.512,4.715,4.715,0,0,1,3.359-1.332A3.859,3.859,0,0,1,42.3,4.5a2.951,2.951,0,0,1,.738,2.715l-.023.047H41.535a2.277,2.277,0,0,0-.414-1.914,2.4,2.4,0,0,0-1.891-.672,2.872,2.872,0,0,0-2.184,1.051,4.789,4.789,0,0,0-1.176,2.566l-.3,2.039a3.844,3.844,0,0,0,.359,2.625,2.075,2.075,0,0,0,1.914,1.008,3.087,3.087,0,0,0,2.063-.7,3,3,0,0,0,1.016-1.9ZM45.566,15H44.02l1.7-11.375H47.27Zm11.422,0H55.449L51.27,6.3l-.047.008L49.926,15H48.387l1.7-11.375h1.539l4.18,8.688.047-.008,1.3-8.68h1.539Zm6.719-4.3A5.387,5.387,0,0,1,65.18,7.57a4,4,0,0,1,2.941-1.18A2.942,2.942,0,0,1,70.68,7.613a4.1,4.1,0,0,1,.6,3.082l-.031.172A5.4,5.4,0,0,1,69.77,14a4.018,4.018,0,0,1-2.945,1.168,2.945,2.945,0,0,1-2.559-1.219,4.063,4.063,0,0,1-.59-3.078Zm1.508.172a3.681,3.681,0,0,0,.227,2.242A1.6,1.6,0,0,0,67,13.961a2.211,2.211,0,0,0,1.777-.887,4.5,4.5,0,0,0,.926-2.207l.031-.172A3.683,3.683,0,0,0,69.5,8.461,1.6,1.6,0,0,0,67.941,7.6a2.212,2.212,0,0,0-1.785.895,4.425,4.425,0,0,0-.91,2.2Zm17.8,1.2H78.73L77.277,15h-1.57l5.8-11.375h1.32L85.145,15h-1.57Zm-3.648-1.289h3.4L81.848,5.9,81.8,5.891ZM95.418,15H93.879L89.7,6.3l-.047.008L88.355,15H86.816l1.7-11.375h1.539l4.18,8.688.047-.008,1.3-8.68h1.539Zm9.758-5.031h-4.8L99.621,15H98.082l1.7-11.375h7.133l-.18,1.211h-5.594l-.594,3.922h4.8Zm13.047-1.4h-6.516l.2-1.281h6.516Zm-.484,3.25h-6.516l.2-1.281h6.516Zm8.352-1.383L125.41,15h-1.539l1.7-11.375h4.352a3.5,3.5,0,0,1,2.652.945,2.794,2.794,0,0,1,.684,2.461,3.815,3.815,0,0,1-1.379,2.508,4.633,4.633,0,0,1-2.973.9Zm.18-1.2h2.82a2.518,2.518,0,0,0,2.625-2.187,2.042,2.042,0,0,0-.332-1.594,1.94,1.94,0,0,0-1.637-.617h-2.812ZM138.941,15q-.016-.438-.016-.707a4.988,4.988,0,0,1,.031-.551,4.564,4.564,0,0,1-1.277,1.012,3.193,3.193,0,0,1-1.543.41,2.41,2.41,0,0,1-1.887-.684,2.155,2.155,0,0,1-.434-1.855,2.584,2.584,0,0,1,1.25-1.914,5.194,5.194,0,0,1,2.773-.664h1.672l.125-.836a1.369,1.369,0,0,0-.27-1.191,1.593,1.593,0,0,0-1.223-.418,2.134,2.134,0,0,0-1.25.375,1.3,1.3,0,0,0-.609.9l-1.469.016-.008-.047a2.422,2.422,0,0,1,1.117-1.707,4.1,4.1,0,0,1,2.484-.746,3.053,3.053,0,0,1,2.172.738,2.258,2.258,0,0,1,.594,2.1l-.609,4.07a6.686,6.686,0,0,0-.09.887,4.51,4.51,0,0,0,.051.816Zm-2.383-1.125a3.032,3.032,0,0,0,1.547-.437,2.613,2.613,0,0,0,1.039-.984l.211-1.367h-1.727a2.54,2.54,0,0,0-1.547.477,1.651,1.651,0,0,0-.734,1.094,1.011,1.011,0,0,0,.207.9A1.341,1.341,0,0,0,136.559,13.875Zm9.7-9.367-.3,2.039h1.6l-.172,1.141h-1.6l-.766,5.133a1.052,1.052,0,0,0,.113.848.793.793,0,0,0,.621.23,1.571,1.571,0,0,0,.3-.035,2.1,2.1,0,0,0,.285-.074l.055,1.055a1.634,1.634,0,0,1-.543.23,2.7,2.7,0,0,1-.676.09,1.735,1.735,0,0,1-1.395-.57,2.153,2.153,0,0,1-.3-1.773l.766-5.133h-1.344l.172-1.141h1.344l.3-2.039ZM153,7.906l-.781-.047a1.9,1.9,0,0,0-1.062.3,2.49,2.49,0,0,0-.781.848l-.9,5.992h-1.539L149.2,6.547h1.375l-.031,1.2a3.552,3.552,0,0,1,1.031-1,2.384,2.384,0,0,1,1.273-.355,1.923,1.923,0,0,1,.324.027,1.787,1.787,0,0,1,.254.059ZM155.2,15H153.66l1.266-8.453h1.539Zm1.594-10.617h-1.539l.234-1.57h1.539Zm3.359,3.234a3.411,3.411,0,0,1,1.18-.91,3.605,3.605,0,0,1,1.539-.316,2.3,2.3,0,0,1,1.359.391,1.942,1.942,0,0,1,.75,1.164A3.722,3.722,0,0,1,166.2,6.8a3.187,3.187,0,0,1,1.613-.414,2.158,2.158,0,0,1,1.879.895,3.643,3.643,0,0,1,.379,2.66L169.316,15h-1.539l.758-5.07a2.626,2.626,0,0,0-.152-1.793,1.381,1.381,0,0,0-1.215-.5,1.886,1.886,0,0,0-1.34.555,2.884,2.884,0,0,0-.8,1.383.063.063,0,0,0-.008.027v.027l-.8,5.367h-1.547l.758-5.07a2.571,2.571,0,0,0-.168-1.762,1.339,1.339,0,0,0-1.2-.527,2.236,2.236,0,0,0-1.191.309,2.473,2.473,0,0,0-.832.855l-.93,6.2h-1.539l1.266-8.453h1.375ZM171.84,10.7a5.387,5.387,0,0,1,1.473-3.125,4,4,0,0,1,2.941-1.18,2.942,2.942,0,0,1,2.559,1.223,4.1,4.1,0,0,1,.6,3.082l-.031.172A5.4,5.4,0,0,1,177.9,14a4.018,4.018,0,0,1-2.945,1.168,2.945,2.945,0,0,1-2.559-1.219,4.063,4.063,0,0,1-.59-3.078Zm1.508.172a3.681,3.681,0,0,0,.227,2.242,1.6,1.6,0,0,0,1.563.852,2.211,2.211,0,0,0,1.777-.887,4.5,4.5,0,0,0,.926-2.207l.031-.172a3.683,3.683,0,0,0-.238-2.234,1.6,1.6,0,0,0-1.559-.859,2.212,2.212,0,0,0-1.785.895,4.425,4.425,0,0,0-.91,2.2Zm9.867-3.109a3.653,3.653,0,0,1,1.207-1.012,3.241,3.241,0,0,1,1.5-.355A2.384,2.384,0,0,1,187.9,7.2a3.111,3.111,0,0,1,.4,2.465L187.5,15h-1.539l.8-5.3a2.11,2.11,0,0,0-.2-1.605,1.585,1.585,0,0,0-1.289-.449,2.518,2.518,0,0,0-1.234.3,2.729,2.729,0,0,0-.922.832L182.184,15h-1.539l1.266-8.453h1.375ZM191.4,15h-1.539l1.266-8.453h1.539ZM193,4.383h-1.539l.234-1.57h1.539Zm1.063,6.313a5.387,5.387,0,0,1,1.473-3.125,4,4,0,0,1,2.941-1.18,2.942,2.942,0,0,1,2.559,1.223,4.1,4.1,0,0,1,.6,3.082l-.031.172A5.4,5.4,0,0,1,200.121,14a4.018,4.018,0,0,1-2.945,1.168,2.945,2.945,0,0,1-2.559-1.219,4.063,4.063,0,0,1-.59-3.078Zm1.508.172a3.681,3.681,0,0,0,.227,2.242,1.6,1.6,0,0,0,1.563.852,2.211,2.211,0,0,0,1.777-.887,4.5,4.5,0,0,0,.926-2.207l.031-.172a3.683,3.683,0,0,0-.238-2.234,1.6,1.6,0,0,0-1.559-.859,2.212,2.212,0,0,0-1.785.895,4.425,4.425,0,0,0-.91,2.2Zm14.984-6.359-.3,2.039h1.6l-.172,1.141h-1.6l-.766,5.133a1.052,1.052,0,0,0,.113.848.793.793,0,0,0,.621.23,1.571,1.571,0,0,0,.3-.035,2.1,2.1,0,0,0,.285-.074l.055,1.055a1.634,1.634,0,0,1-.543.23,2.7,2.7,0,0,1-.676.09,1.735,1.735,0,0,1-1.395-.57,2.153,2.153,0,0,1-.3-1.773l.766-5.133h-1.344l.172-1.141h1.344l.3-2.039ZM212.52,10.7a5.387,5.387,0,0,1,1.473-3.125,4,4,0,0,1,2.941-1.18,2.942,2.942,0,0,1,2.559,1.223,4.1,4.1,0,0,1,.6,3.082l-.031.172A5.4,5.4,0,0,1,218.582,14a4.018,4.018,0,0,1-2.945,1.168,2.945,2.945,0,0,1-2.559-1.219,4.063,4.063,0,0,1-.59-3.078Zm1.508.172a3.681,3.681,0,0,0,.227,2.242,1.6,1.6,0,0,0,1.563.852,2.211,2.211,0,0,0,1.777-.887,4.5,4.5,0,0,0,.926-2.207l.031-.172a3.683,3.683,0,0,0-.238-2.234,1.6,1.6,0,0,0-1.559-.859,2.212,2.212,0,0,0-1.785.895,4.425,4.425,0,0,0-.91,2.2Zm11.008-6.359-.3,2.039h1.6l-.172,1.141h-1.6l-.766,5.133a1.052,1.052,0,0,0,.113.848.793.793,0,0,0,.621.23,1.571,1.571,0,0,0,.3-.035,2.1,2.1,0,0,0,.285-.074l.055,1.055a1.634,1.634,0,0,1-.543.23,2.7,2.7,0,0,1-.676.09,1.735,1.735,0,0,1-1.395-.57,2.153,2.153,0,0,1-.3-1.773l.766-5.133h-1.344l.172-1.141h1.344l.3-2.039ZM231.91,15q-.016-.438-.016-.707a4.988,4.988,0,0,1,.031-.551,4.564,4.564,0,0,1-1.277,1.012,3.193,3.193,0,0,1-1.543.41,2.41,2.41,0,0,1-1.887-.684,2.155,2.155,0,0,1-.434-1.855,2.584,2.584,0,0,1,1.25-1.914,5.194,5.194,0,0,1,2.773-.664h1.672l.125-.836a1.369,1.369,0,0,0-.27-1.191,1.593,1.593,0,0,0-1.223-.418,2.134,2.134,0,0,0-1.25.375,1.3,1.3,0,0,0-.609.9l-1.469.016-.008-.047a2.422,2.422,0,0,1,1.117-1.707,4.1,4.1,0,0,1,2.484-.746,3.053,3.053,0,0,1,2.172.738,2.258,2.258,0,0,1,.594,2.1l-.609,4.07a6.686,6.686,0,0,0-.09.887A4.51,4.51,0,0,0,233.5,15Zm-2.383-1.125a3.032,3.032,0,0,0,1.547-.437,2.613,2.613,0,0,0,1.039-.984l.211-1.367H230.6a2.54,2.54,0,0,0-1.547.477,1.651,1.651,0,0,0-.734,1.094,1.011,1.011,0,0,0,.207.9A1.341,1.341,0,0,0,229.527,13.875ZM237.176,15h-1.539l1.828-12.187H239Zm11.43-6.117h3.117l-.2,1.391H248.4l-.539,3.586h-1.539l.539-3.586h-3.141l.2-1.391h3.141l.5-3.3h1.539Zm8.258,1.813a5.387,5.387,0,0,1,1.473-3.125,4,4,0,0,1,2.941-1.18,2.942,2.942,0,0,1,2.559,1.223,4.1,4.1,0,0,1,.6,3.082l-.031.172A5.4,5.4,0,0,1,262.926,14a4.018,4.018,0,0,1-2.945,1.168,2.945,2.945,0,0,1-2.559-1.219,4.063,4.063,0,0,1-.59-3.078Zm1.508.172a3.681,3.681,0,0,0,.227,2.242,1.6,1.6,0,0,0,1.563.852,2.211,2.211,0,0,0,1.777-.887,4.5,4.5,0,0,0,.926-2.207l.031-.172a3.683,3.683,0,0,0-.238-2.234A1.6,1.6,0,0,0,261.1,7.6a2.212,2.212,0,0,0-1.785.895,4.424,4.424,0,0,0-.91,2.2Zm15.1.227a5.388,5.388,0,0,1-1.32,2.984,3.417,3.417,0,0,1-2.586,1.086,2.647,2.647,0,0,1-1.391-.344,2.312,2.312,0,0,1-.891-1.008L266.848,15h-1.18L267.5,2.813h1.539l-.711,4.734a3.416,3.416,0,0,1,1.125-.859,3.289,3.289,0,0,1,1.414-.3,2.373,2.373,0,0,1,2.215,1.262,5.062,5.062,0,0,1,.418,3.277Zm-1.516-.164a4.356,4.356,0,0,0-.172-2.4,1.491,1.491,0,0,0-1.5-.891A2.234,2.234,0,0,0,269.047,8a3.1,3.1,0,0,0-.934.957l-.547,3.641a2.012,2.012,0,0,0,.633.973,1.8,1.8,0,0,0,1.164.348,2.149,2.149,0,0,0,1.715-.785,3.978,3.978,0,0,0,.855-2.035ZM276.426,15h-1.539l1.828-12.187h1.539Zm4.031,0h-1.539l1.266-8.453h1.539Zm1.594-10.617h-1.539l.234-1.57h1.539Zm1.109,6.547A6.411,6.411,0,0,1,284.52,7.6a3.326,3.326,0,0,1,2.625-1.211,2.589,2.589,0,0,1,1.352.336,2.364,2.364,0,0,1,.891.969l.359-1.148h1.227l-1.273,8.5a3.807,3.807,0,0,1-1.316,2.527,4.483,4.483,0,0,1-2.863.84,5.369,5.369,0,0,1-1.281-.172,4.632,4.632,0,0,1-1.187-.453l.414-1.2a3.921,3.921,0,0,0,1.02.379,5.216,5.216,0,0,0,1.215.145,2.536,2.536,0,0,0,1.691-.52,2.421,2.421,0,0,0,.77-1.551l.141-.961a3.255,3.255,0,0,1-2.484,1.078,2.466,2.466,0,0,1-2.219-1.133,4.13,4.13,0,0,1-.461-2.937Zm1.516.164a3.283,3.283,0,0,0,.207,2.07,1.568,1.568,0,0,0,1.512.75,2.223,2.223,0,0,0,1.2-.324,3.092,3.092,0,0,0,.922-.91l.586-3.867a2.008,2.008,0,0,0-.652-.855,1.793,1.793,0,0,0-1.1-.316,2.1,2.1,0,0,0-1.746.93,5.147,5.147,0,0,0-.9,2.359ZM297.113,15q-.016-.438-.016-.707a4.984,4.984,0,0,1,.031-.551,4.564,4.564,0,0,1-1.277,1.012,3.193,3.193,0,0,1-1.543.41,2.41,2.41,0,0,1-1.887-.684,2.155,2.155,0,0,1-.434-1.855,2.584,2.584,0,0,1,1.25-1.914,5.194,5.194,0,0,1,2.773-.664h1.672l.125-.836a1.369,1.369,0,0,0-.27-1.191,1.593,1.593,0,0,0-1.223-.418,2.134,2.134,0,0,0-1.25.375,1.3,1.3,0,0,0-.609.9l-1.469.016-.008-.047A2.422,2.422,0,0,1,294.1,7.137a4.1,4.1,0,0,1,2.484-.746,3.053,3.053,0,0,1,2.172.738,2.258,2.258,0,0,1,.594,2.1l-.609,4.07a6.684,6.684,0,0,0-.09.887A4.512,4.512,0,0,0,298.7,15Zm-2.383-1.125a3.032,3.032,0,0,0,1.547-.437,2.613,2.613,0,0,0,1.039-.984l.211-1.367H295.8a2.54,2.54,0,0,0-1.547.477,1.651,1.651,0,0,0-.734,1.094,1.011,1.011,0,0,0,.207.9A1.341,1.341,0,0,0,294.73,13.875Zm9.5.086a2.076,2.076,0,0,0,1.293-.477,1.8,1.8,0,0,0,.723-1.156h1.391l.016.047a2.885,2.885,0,0,1-1.223,1.965,3.838,3.838,0,0,1-2.379.824,2.837,2.837,0,0,1-2.527-1.223,4.112,4.112,0,0,1-.559-3l.047-.328a5.417,5.417,0,0,1,1.422-3.035,3.89,3.89,0,0,1,2.93-1.184,2.769,2.769,0,0,1,2.164.883,2.407,2.407,0,0,1,.57,2.148l-.016.039h-1.406a1.676,1.676,0,0,0-.3-1.332,1.429,1.429,0,0,0-1.2-.527,2.118,2.118,0,0,0-1.766.895,4.516,4.516,0,0,0-.859,2.113l-.047.328a3.852,3.852,0,0,0,.18,2.168A1.514,1.514,0,0,0,304.23,13.961ZM310.754,15h-1.539l1.266-8.453h1.539Zm1.594-10.617h-1.539l.234-1.57h1.539ZM313.41,10.7a5.387,5.387,0,0,1,1.473-3.125,4,4,0,0,1,2.941-1.18,2.942,2.942,0,0,1,2.559,1.223,4.1,4.1,0,0,1,.6,3.082l-.031.172A5.4,5.4,0,0,1,319.473,14a4.018,4.018,0,0,1-2.945,1.168,2.945,2.945,0,0,1-2.559-1.219,4.063,4.063,0,0,1-.59-3.078Zm1.508.172a3.681,3.681,0,0,0,.227,2.242,1.6,1.6,0,0,0,1.563.852,2.211,2.211,0,0,0,1.777-.887,4.5,4.5,0,0,0,.926-2.207l.031-.172a3.683,3.683,0,0,0-.238-2.234,1.6,1.6,0,0,0-1.559-.859,2.212,2.212,0,0,0-1.785.895,4.424,4.424,0,0,0-.91,2.2Zm9.867-3.109a3.653,3.653,0,0,1,1.207-1.012,3.241,3.241,0,0,1,1.5-.355,2.384,2.384,0,0,1,1.973.809,3.111,3.111,0,0,1,.4,2.465l-.8,5.336h-1.539l.8-5.3a2.11,2.11,0,0,0-.2-1.605,1.585,1.585,0,0,0-1.289-.449,2.518,2.518,0,0,0-1.234.3,2.729,2.729,0,0,0-.922.832L323.754,15h-1.539l1.266-8.453h1.375Zm10,7.406a3.069,3.069,0,0,1-2.629-1.18,3.934,3.934,0,0,1-.6-3.047l.055-.344A5.061,5.061,0,0,1,333.1,7.547a3.89,3.89,0,0,1,2.754-1.156,2.624,2.624,0,0,1,2.352,1.07,3.846,3.846,0,0,1,.461,2.789l-.117.813h-5.469a3.355,3.355,0,0,0,.266,2.121,1.7,1.7,0,0,0,1.617.777,4.177,4.177,0,0,0,1.395-.227,3.661,3.661,0,0,0,1.113-.609l.453,1a4.447,4.447,0,0,1-1.3.738A5.139,5.139,0,0,1,334.785,15.164Zm.891-7.562a1.948,1.948,0,0,0-1.4.625,3.56,3.56,0,0,0-.9,1.578l.016.047h3.8l.016-.125a2.256,2.256,0,0,0-.219-1.535A1.41,1.41,0,0,0,335.676,7.6Zm9.281,5.125a.908.908,0,0,0-.266-.836,3.27,3.27,0,0,0-1.391-.555,5.344,5.344,0,0,1-2.176-.9,1.562,1.562,0,0,1-.582-1.547A2.6,2.6,0,0,1,341.664,7.1a3.935,3.935,0,0,1,2.387-.711,3.006,3.006,0,0,1,2.188.789,1.943,1.943,0,0,1,.633,1.813l-.016.047h-1.477a1.162,1.162,0,0,0-.336-1,1.515,1.515,0,0,0-1.156-.437,1.974,1.974,0,0,0-1.254.371,1.334,1.334,0,0,0-.543.871.821.821,0,0,0,.234.781,3.447,3.447,0,0,0,1.375.492,5.217,5.217,0,0,1,2.227.93,1.632,1.632,0,0,1,.586,1.57,2.62,2.62,0,0,1-1.164,1.855,4.265,4.265,0,0,1-2.484.691,3.283,3.283,0,0,1-2.395-.828,2.033,2.033,0,0,1-.652-1.906l.016-.047h1.477a1.245,1.245,0,0,0,.445,1.2,2.1,2.1,0,0,0,1.281.379,2.3,2.3,0,0,0,1.313-.352A1.3,1.3,0,0,0,344.957,12.727Zm7.5,2.273,1.094-7.312h-1.328l.172-1.141h1.328l.141-.914A3.361,3.361,0,0,1,355.02,3.4a3.757,3.757,0,0,1,2.43-.754,4.252,4.252,0,0,1,1.012.125,11.613,11.613,0,0,1,1.145.352l-.453,1.25a6.225,6.225,0,0,0-.84-.281,3.715,3.715,0,0,0-.941-.117A2.042,2.042,0,0,0,356,4.391a1.918,1.918,0,0,0-.6,1.242l-.141.914h1.68l-.172,1.141h-1.68L354,15Zm6.117,0h-1.547l1.266-8.453h1.547Zm4.93-7.242a3.653,3.653,0,0,1,1.207-1.012,3.241,3.241,0,0,1,1.5-.355,2.384,2.384,0,0,1,1.973.809,3.111,3.111,0,0,1,.4,2.465l-.8,5.336h-1.539l.8-5.3a2.11,2.11,0,0,0-.2-1.605,1.585,1.585,0,0,0-1.289-.449,2.518,2.518,0,0,0-1.234.3,2.729,2.729,0,0,0-.922.832L362.473,15h-1.539L362.2,6.547h1.375ZM375.223,15q-.016-.438-.016-.707a4.984,4.984,0,0,1,.031-.551,4.564,4.564,0,0,1-1.277,1.012,3.193,3.193,0,0,1-1.543.41,2.41,2.41,0,0,1-1.887-.684,2.155,2.155,0,0,1-.434-1.855,2.584,2.584,0,0,1,1.25-1.914,5.194,5.194,0,0,1,2.773-.664h1.672l.125-.836a1.369,1.369,0,0,0-.27-1.191,1.593,1.593,0,0,0-1.223-.418,2.134,2.134,0,0,0-1.25.375,1.3,1.3,0,0,0-.609.9l-1.469.016-.008-.047a2.422,2.422,0,0,1,1.117-1.707,4.1,4.1,0,0,1,2.484-.746,3.053,3.053,0,0,1,2.172.738,2.258,2.258,0,0,1,.594,2.1l-.609,4.07a6.684,6.684,0,0,0-.09.887,4.512,4.512,0,0,0,.051.816Zm-2.383-1.125a3.032,3.032,0,0,0,1.547-.437,2.613,2.613,0,0,0,1.039-.984l.211-1.367H373.91a2.54,2.54,0,0,0-1.547.477,1.651,1.651,0,0,0-.734,1.094,1.011,1.011,0,0,0,.207.9A1.341,1.341,0,0,0,372.84,13.875Zm8.555-6.117A3.653,3.653,0,0,1,382.6,6.746a3.241,3.241,0,0,1,1.5-.355,2.384,2.384,0,0,1,1.973.809,3.111,3.111,0,0,1,.4,2.465l-.8,5.336h-1.539l.8-5.3a2.11,2.11,0,0,0-.2-1.605,1.585,1.585,0,0,0-1.289-.449,2.518,2.518,0,0,0-1.234.3,2.729,2.729,0,0,0-.922.832L380.363,15h-1.539l1.266-8.453h1.375Zm10.039,6.2a2.076,2.076,0,0,0,1.293-.477,1.8,1.8,0,0,0,.723-1.156h1.391l.016.047a2.885,2.885,0,0,1-1.223,1.965,3.838,3.838,0,0,1-2.379.824,2.837,2.837,0,0,1-2.527-1.223,4.112,4.112,0,0,1-.559-3l.047-.328a5.417,5.417,0,0,1,1.422-3.035,3.89,3.89,0,0,1,2.93-1.184,2.769,2.769,0,0,1,2.164.883,2.407,2.407,0,0,1,.57,2.148l-.016.039h-1.406a1.676,1.676,0,0,0-.3-1.332,1.429,1.429,0,0,0-1.2-.527,2.118,2.118,0,0,0-1.766.895,4.516,4.516,0,0,0-.859,2.113l-.047.328a3.852,3.852,0,0,0,.18,2.168A1.514,1.514,0,0,0,391.434,13.961ZM397.957,15h-1.539l1.266-8.453h1.539Zm1.594-10.617h-1.539l.234-1.57h1.539Zm4.25,10.781a3.069,3.069,0,0,1-2.629-1.18,3.934,3.934,0,0,1-.6-3.047l.055-.344a5.061,5.061,0,0,1,1.488-3.047,3.89,3.89,0,0,1,2.754-1.156,2.624,2.624,0,0,1,2.352,1.07,3.846,3.846,0,0,1,.461,2.789l-.117.813H402.1a3.355,3.355,0,0,0,.266,2.121,1.7,1.7,0,0,0,1.617.777,4.177,4.177,0,0,0,1.395-.227,3.661,3.661,0,0,0,1.113-.609l.453,1a4.447,4.447,0,0,1-1.3.738A5.139,5.139,0,0,1,403.8,15.164Zm.891-7.562a1.948,1.948,0,0,0-1.4.625,3.56,3.56,0,0,0-.9,1.578l.016.047h3.8l.016-.125A2.256,2.256,0,0,0,406,8.191,1.41,1.41,0,0,0,404.691,7.6Zm9.07.3-.781-.047a1.9,1.9,0,0,0-1.062.3,2.49,2.49,0,0,0-.781.848l-.9,5.992H408.7l1.266-8.453h1.375l-.031,1.2a3.553,3.553,0,0,1,1.031-1,2.384,2.384,0,0,1,1.273-.355,1.923,1.923,0,0,1,.324.027,1.787,1.787,0,0,1,.254.059ZM419.5,15q-.016-.438-.016-.707a4.984,4.984,0,0,1,.031-.551,4.564,4.564,0,0,1-1.277,1.012,3.193,3.193,0,0,1-1.543.41,2.41,2.41,0,0,1-1.887-.684,2.155,2.155,0,0,1-.434-1.855,2.584,2.584,0,0,1,1.25-1.914,5.194,5.194,0,0,1,2.773-.664h1.672l.125-.836a1.369,1.369,0,0,0-.27-1.191A1.593,1.593,0,0,0,418.7,7.6a2.134,2.134,0,0,0-1.25.375,1.3,1.3,0,0,0-.609.9l-1.469.016-.008-.047a2.422,2.422,0,0,1,1.117-1.707,4.1,4.1,0,0,1,2.484-.746,3.053,3.053,0,0,1,2.172.738,2.258,2.258,0,0,1,.594,2.1l-.609,4.07a6.684,6.684,0,0,0-.09.887,4.512,4.512,0,0,0,.051.816Zm-2.383-1.125a3.032,3.032,0,0,0,1.547-.437,2.613,2.613,0,0,0,1.039-.984l.211-1.367h-1.727a2.54,2.54,0,0,0-1.547.477,1.651,1.651,0,0,0-.734,1.094,1.011,1.011,0,0,0,.207.9A1.341,1.341,0,0,0,417.113,13.875Zm11.258-1.148a.908.908,0,0,0-.266-.836,3.27,3.27,0,0,0-1.391-.555,5.344,5.344,0,0,1-2.176-.9,1.562,1.562,0,0,1-.582-1.547A2.6,2.6,0,0,1,425.078,7.1a3.935,3.935,0,0,1,2.387-.711,3.006,3.006,0,0,1,2.188.789,1.943,1.943,0,0,1,.633,1.813l-.016.047h-1.477a1.162,1.162,0,0,0-.336-1A1.515,1.515,0,0,0,427.3,7.6a1.974,1.974,0,0,0-1.254.371,1.334,1.334,0,0,0-.543.871.821.821,0,0,0,.234.781,3.447,3.447,0,0,0,1.375.492,5.217,5.217,0,0,1,2.227.93,1.632,1.632,0,0,1,.586,1.57,2.62,2.62,0,0,1-1.164,1.855,4.265,4.265,0,0,1-2.484.691,3.283,3.283,0,0,1-2.395-.828,2.033,2.033,0,0,1-.652-1.906l.016-.047h1.477a1.245,1.245,0,0,0,.445,1.2,2.1,2.1,0,0,0,1.281.379,2.3,2.3,0,0,0,1.313-.352A1.3,1.3,0,0,0,428.371,12.727Z" transform="translate(300.051 2627.564)" fill="#12263f"/>
  </g>
</svg>
