<svg xmlns="http://www.w3.org/2000/svg" width="399" height="124.094" viewBox="0 0 399 124.094">
  <g id="Grupo_1114735" data-name="Grupo 1114735" transform="translate(-338.051 -5691.008)">
    <path id="Trazado_908142" data-name="Trazado 908142" d="M0,0H388V116.094H0Z" transform="translate(349.051 5699.008)" fill="#bce0fc"/>
    <g id="Trazado_908143" data-name="Trazado 908143" transform="translate(338.051 5691.008)" fill="#fbfbf9">
      <path d="M 394.75 117.8437728881836 L 0.25 117.8437728881836 L 0.25 0.2500250041484833 L 394.75 0.2500250041484833 L 394.75 117.8437728881836 Z" stroke="none"/>
      <path d="M 0.5 0.4999771118164062 L 0.5 117.5937271118164 L 394.5 117.5937271118164 L 394.5 0.4999771118164062 L 0.5 0.4999771118164062 M 0 -2.288818359375e-05 L 395 -2.288818359375e-05 L 395 118.0937271118164 L 0 118.0937271118164 L 0 -2.288818359375e-05 Z" stroke="none" fill="#000"/>
    </g>
    <path id="Trazado_908144" data-name="Trazado 908144" d="M2.688,5.813a2.7,2.7,0,0,1,.891-1.691,2.641,2.641,0,0,1,1.82-.66,1.925,1.925,0,0,1,1.586.684,2.045,2.045,0,0,1,.406,1.668l-.086.6A2.729,2.729,0,0,1,6.418,8.1a2.605,2.605,0,0,1-1.8.652A1.928,1.928,0,0,1,2.6,6.414Zm1.055.6a1.367,1.367,0,0,0,.164.992.944.944,0,0,0,.852.391,1.23,1.23,0,0,0,.93-.406,1.821,1.821,0,0,0,.477-.977l.086-.6a1.434,1.434,0,0,0-.168-1,.911.911,0,0,0-.832-.4,1.248,1.248,0,0,0-.949.414,1.8,1.8,0,0,0-.473.984Zm3.5,5.8a2.705,2.705,0,0,1,.887-1.684,2.626,2.626,0,0,1,1.816-.66,1.927,1.927,0,0,1,1.582.684,2.047,2.047,0,0,1,.418,1.66l-.094.609a2.738,2.738,0,0,1-.891,1.688,2.6,2.6,0,0,1-1.8.656A1.93,1.93,0,0,1,7.148,12.82Zm1.047.609a1.4,1.4,0,0,0,.16,1,.942.942,0,0,0,.855.391,1.23,1.23,0,0,0,.93-.406,1.826,1.826,0,0,0,.477-.984l.094-.609a1.406,1.406,0,0,0-.172-1A.924.924,0,0,0,9.8,10.82a1.248,1.248,0,0,0-.949.414,1.751,1.751,0,0,0-.465.977Zm-4.078,1.32-.773-.523L10.32,4.727l.773.523Zm20.875-3.047a5.4,5.4,0,0,1-1.316,2.984,3.4,3.4,0,0,1-2.582,1.086,2.9,2.9,0,0,1-1.312-.277,2.238,2.238,0,0,1-.9-.816l-.625,4.18H16.813l1.75-11.7h1.18l.078,1.094a3.5,3.5,0,0,1,1.172-.93,3.372,3.372,0,0,1,1.484-.32A2.371,2.371,0,0,1,24.7,7.652a5.081,5.081,0,0,1,.414,3.277ZM23.57,10.93a4.127,4.127,0,0,0-.2-2.391,1.558,1.558,0,0,0-1.539-.9,2.229,2.229,0,0,0-1.16.309,3,3,0,0,0-.9.84l-.609,4.063a1.819,1.819,0,0,0,.641.816,1.893,1.893,0,0,0,1.1.293,2.237,2.237,0,0,0,1.754-.809,3.935,3.935,0,0,0,.895-2.059ZM31.586,15q-.016-.438-.016-.707a4.986,4.986,0,0,1,.031-.551,4.564,4.564,0,0,1-1.277,1.012,3.193,3.193,0,0,1-1.543.41,2.41,2.41,0,0,1-1.887-.684,2.155,2.155,0,0,1-.434-1.855,2.584,2.584,0,0,1,1.25-1.914,5.194,5.194,0,0,1,2.773-.664h1.672l.125-.836a1.369,1.369,0,0,0-.27-1.191A1.593,1.593,0,0,0,30.789,7.6a2.134,2.134,0,0,0-1.25.375,1.3,1.3,0,0,0-.609.9l-1.469.016-.008-.047A2.422,2.422,0,0,1,28.57,7.137a4.1,4.1,0,0,1,2.484-.746,3.053,3.053,0,0,1,2.172.738,2.258,2.258,0,0,1,.594,2.1l-.609,4.07a6.686,6.686,0,0,0-.09.887,4.511,4.511,0,0,0,.051.816ZM29.2,13.875a3.032,3.032,0,0,0,1.547-.437,2.613,2.613,0,0,0,1.039-.984L32,11.086H30.273a2.54,2.54,0,0,0-1.547.477,1.651,1.651,0,0,0-.734,1.094,1.011,1.011,0,0,0,.207.9A1.341,1.341,0,0,0,29.2,13.875Zm9.7-9.367-.3,2.039h1.6l-.172,1.141h-1.6l-.766,5.133a1.052,1.052,0,0,0,.113.848.793.793,0,0,0,.621.23,1.571,1.571,0,0,0,.3-.035,2.1,2.1,0,0,0,.285-.074l.055,1.055a1.634,1.634,0,0,1-.543.23,2.7,2.7,0,0,1-.676.09,1.735,1.735,0,0,1-1.395-.57,2.153,2.153,0,0,1-.3-1.773l.766-5.133H35.539l.172-1.141h1.344l.3-2.039Zm6.742,3.4-.781-.047a1.9,1.9,0,0,0-1.062.3,2.49,2.49,0,0,0-.781.848L42.117,15H40.578l1.266-8.453h1.375l-.031,1.2a3.552,3.552,0,0,1,1.031-1,2.384,2.384,0,0,1,1.273-.355,1.923,1.923,0,0,1,.324.027,1.787,1.787,0,0,1,.254.059ZM47.844,15H46.3L47.57,6.547h1.539ZM49.438,4.383H47.9l.234-1.57h1.539ZM52.8,7.617a3.411,3.411,0,0,1,1.18-.91,3.605,3.605,0,0,1,1.539-.316,2.3,2.3,0,0,1,1.359.391,1.942,1.942,0,0,1,.75,1.164A3.722,3.722,0,0,1,58.848,6.8a3.187,3.187,0,0,1,1.613-.414,2.158,2.158,0,0,1,1.879.895,3.643,3.643,0,0,1,.379,2.66L61.961,15H60.422l.758-5.07a2.626,2.626,0,0,0-.152-1.793,1.381,1.381,0,0,0-1.215-.5,1.886,1.886,0,0,0-1.34.555,2.884,2.884,0,0,0-.8,1.383.063.063,0,0,0-.008.027v.027L56.859,15H55.313l.758-5.07A2.571,2.571,0,0,0,55.9,8.168a1.339,1.339,0,0,0-1.2-.527,2.236,2.236,0,0,0-1.191.309,2.473,2.473,0,0,0-.832.855L51.75,15H50.211l1.266-8.453h1.375ZM64.484,10.7A5.387,5.387,0,0,1,65.957,7.57,4,4,0,0,1,68.9,6.391a2.942,2.942,0,0,1,2.559,1.223,4.1,4.1,0,0,1,.6,3.082l-.031.172A5.4,5.4,0,0,1,70.547,14,4.018,4.018,0,0,1,67.6,15.164a2.945,2.945,0,0,1-2.559-1.219,4.063,4.063,0,0,1-.59-3.078Zm1.508.172a3.681,3.681,0,0,0,.227,2.242,1.6,1.6,0,0,0,1.563.852,2.211,2.211,0,0,0,1.777-.887,4.5,4.5,0,0,0,.926-2.207l.031-.172a3.683,3.683,0,0,0-.238-2.234A1.6,1.6,0,0,0,68.719,7.6a2.212,2.212,0,0,0-1.785.895,4.425,4.425,0,0,0-.91,2.2Zm9.867-3.109a3.653,3.653,0,0,1,1.207-1.012,3.241,3.241,0,0,1,1.5-.355,2.384,2.384,0,0,1,1.973.809,3.111,3.111,0,0,1,.4,2.465L80.148,15H78.609l.8-5.3a2.11,2.11,0,0,0-.2-1.605,1.585,1.585,0,0,0-1.289-.449,2.518,2.518,0,0,0-1.234.3,2.729,2.729,0,0,0-.922.832L74.828,15H73.289l1.266-8.453H75.93ZM84.047,15H82.508l1.266-8.453h1.539ZM85.641,4.383H84.1l.234-1.57h1.539ZM86.7,10.7A5.387,5.387,0,0,1,88.176,7.57a4,4,0,0,1,2.941-1.18,2.942,2.942,0,0,1,2.559,1.223,4.1,4.1,0,0,1,.6,3.082l-.031.172A5.4,5.4,0,0,1,92.766,14a4.018,4.018,0,0,1-2.945,1.168,2.945,2.945,0,0,1-2.559-1.219,4.063,4.063,0,0,1-.59-3.078Zm1.508.172a3.681,3.681,0,0,0,.227,2.242A1.6,1.6,0,0,0,90,13.961a2.211,2.211,0,0,0,1.777-.887,4.5,4.5,0,0,0,.926-2.207l.031-.172A3.683,3.683,0,0,0,92.5,8.461,1.6,1.6,0,0,0,90.938,7.6a2.212,2.212,0,0,0-1.785.895,4.425,4.425,0,0,0-.91,2.2Zm18.82-2.3h-6.516l.2-1.281h6.516Zm-.484,3.25h-6.516l.2-1.281h6.516Z" transform="translate(399.051 5720.008)" fill="#12263f"/>
    <path id="Trazado_908145" data-name="Trazado 908145" d="M2.531,9.563.688,9.039l.383-1.2,1.844.7L2.836,6.555H4.094L4.016,8.586l1.82-.7.375,1.219L4.32,9.641l1.2,1.563-1.031.75-1.094-1.7L2.336,11.891,1.3,11.172ZM12.453,15H10.906V5.047L8.43,5.07V3.883l4.023-.422Zm11.586-4.016a4.489,4.489,0,0,1-.98,3.055,3.321,3.321,0,0,1-2.637,1.125,3.335,3.335,0,0,1-2.637-1.125,4.466,4.466,0,0,1-.988-3.055V7.641a4.5,4.5,0,0,1,.98-3.047,3.3,3.3,0,0,1,2.629-1.133,3.333,3.333,0,0,1,2.645,1.133,4.472,4.472,0,0,1,.988,3.047ZM22.5,7.32a3.1,3.1,0,0,0-.547-1.937,1.838,1.838,0,0,0-1.547-.711,1.808,1.808,0,0,0-1.531.711,3.135,3.135,0,0,0-.539,1.938V11.3a3.122,3.122,0,0,0,.551,1.945,2.006,2.006,0,0,0,3.074,0A3.167,3.167,0,0,0,22.5,11.3Zm10.547,3.664a4.489,4.489,0,0,1-.98,3.055,3.652,3.652,0,0,1-5.273,0,4.466,4.466,0,0,1-.988-3.055V7.641a4.5,4.5,0,0,1,.98-3.047,3.635,3.635,0,0,1,5.273,0,4.472,4.472,0,0,1,.988,3.047ZM31.508,7.32a3.1,3.1,0,0,0-.547-1.937,1.838,1.838,0,0,0-1.547-.711,1.808,1.808,0,0,0-1.531.711,3.135,3.135,0,0,0-.539,1.938V11.3a3.122,3.122,0,0,0,.551,1.945,2.006,2.006,0,0,0,3.074,0,3.167,3.167,0,0,0,.539-1.949Z" transform="translate(636.051 5720.008)" fill="#12263f"/>
    <path id="Trazado_908146" data-name="Trazado 908146" d="M45.2,5.813a2.7,2.7,0,0,1,.891-1.691,2.641,2.641,0,0,1,1.82-.66,1.925,1.925,0,0,1,1.586.684A2.045,2.045,0,0,1,49.9,5.813l-.086.6A2.729,2.729,0,0,1,48.93,8.1a2.605,2.605,0,0,1-1.8.652,1.928,1.928,0,0,1-2.016-2.336Zm1.055.6a1.367,1.367,0,0,0,.164.992.944.944,0,0,0,.852.391,1.23,1.23,0,0,0,.93-.406,1.821,1.821,0,0,0,.477-.977l.086-.6a1.434,1.434,0,0,0-.168-1,.911.911,0,0,0-.832-.4,1.248,1.248,0,0,0-.949.414,1.8,1.8,0,0,0-.473.984Zm3.5,5.8a2.705,2.705,0,0,1,.887-1.684,2.626,2.626,0,0,1,1.816-.66,1.927,1.927,0,0,1,1.582.684,2.047,2.047,0,0,1,.418,1.66l-.094.609a2.738,2.738,0,0,1-.891,1.688,2.6,2.6,0,0,1-1.8.656A1.93,1.93,0,0,1,49.66,12.82Zm1.047.609a1.4,1.4,0,0,0,.16,1,.942.942,0,0,0,.855.391,1.23,1.23,0,0,0,.93-.406,1.826,1.826,0,0,0,.477-.984l.094-.609a1.406,1.406,0,0,0-.172-1,.924.924,0,0,0-.836-.395,1.248,1.248,0,0,0-.949.414,1.751,1.751,0,0,0-.465.977Zm-4.078,1.32-.773-.523,6.883-8.891.773.523Zm11.539-3.7L57.582,15H56.043l1.7-11.375H62.1a3.5,3.5,0,0,1,2.652.945,2.794,2.794,0,0,1,.684,2.461,3.815,3.815,0,0,1-1.379,2.508,4.633,4.633,0,0,1-2.973.9Zm.18-1.2h2.82a2.518,2.518,0,0,0,2.625-2.187,2.042,2.042,0,0,0-.332-1.594,1.94,1.94,0,0,0-1.637-.617H59.105ZM71.113,15q-.016-.438-.016-.707a4.986,4.986,0,0,1,.031-.551,4.564,4.564,0,0,1-1.277,1.012,3.193,3.193,0,0,1-1.543.41,2.41,2.41,0,0,1-1.887-.684,2.155,2.155,0,0,1-.434-1.855,2.584,2.584,0,0,1,1.25-1.914,5.194,5.194,0,0,1,2.773-.664h1.672l.125-.836a1.369,1.369,0,0,0-.27-1.191A1.593,1.593,0,0,0,70.316,7.6a2.134,2.134,0,0,0-1.25.375,1.3,1.3,0,0,0-.609.9l-1.469.016-.008-.047A2.422,2.422,0,0,1,68.1,7.137a4.1,4.1,0,0,1,2.484-.746,3.053,3.053,0,0,1,2.172.738,2.258,2.258,0,0,1,.594,2.1l-.609,4.07a6.685,6.685,0,0,0-.09.887A4.511,4.511,0,0,0,72.7,15ZM68.73,13.875a3.032,3.032,0,0,0,1.547-.437,2.613,2.613,0,0,0,1.039-.984l.211-1.367H69.8a2.54,2.54,0,0,0-1.547.477,1.651,1.651,0,0,0-.734,1.094,1.011,1.011,0,0,0,.207.9A1.341,1.341,0,0,0,68.73,13.875Zm9.7-9.367-.3,2.039h1.6l-.172,1.141h-1.6l-.766,5.133a1.052,1.052,0,0,0,.113.848.793.793,0,0,0,.621.23,1.571,1.571,0,0,0,.3-.035,2.1,2.1,0,0,0,.285-.074l.055,1.055a1.634,1.634,0,0,1-.543.23,2.7,2.7,0,0,1-.676.09,1.735,1.735,0,0,1-1.395-.57,2.153,2.153,0,0,1-.3-1.773l.766-5.133H75.066l.172-1.141h1.344l.3-2.039Zm6.742,3.4-.781-.047a1.9,1.9,0,0,0-1.062.3,2.49,2.49,0,0,0-.781.848L81.645,15H80.105l1.266-8.453h1.375l-.031,1.2a3.552,3.552,0,0,1,1.031-1,2.384,2.384,0,0,1,1.273-.355,1.923,1.923,0,0,1,.324.027,1.787,1.787,0,0,1,.254.059ZM87.371,15H85.832L87.1,6.547h1.539ZM88.965,4.383H87.426l.234-1.57H89.2Zm3.359,3.234a3.411,3.411,0,0,1,1.18-.91,3.605,3.605,0,0,1,1.539-.316,2.3,2.3,0,0,1,1.359.391,1.942,1.942,0,0,1,.75,1.164A3.722,3.722,0,0,1,98.375,6.8a3.187,3.187,0,0,1,1.613-.414,2.158,2.158,0,0,1,1.879.895,3.643,3.643,0,0,1,.379,2.66L101.488,15H99.949l.758-5.07a2.626,2.626,0,0,0-.152-1.793,1.381,1.381,0,0,0-1.215-.5A1.886,1.886,0,0,0,98,8.2a2.884,2.884,0,0,0-.8,1.383.063.063,0,0,0-.008.027v.027L96.387,15H94.84L95.6,9.93a2.571,2.571,0,0,0-.168-1.762,1.339,1.339,0,0,0-1.2-.527,2.236,2.236,0,0,0-1.191.309,2.473,2.473,0,0,0-.832.855l-.93,6.2H89.738L91,6.547h1.375ZM104.012,10.7a5.387,5.387,0,0,1,1.473-3.125,4,4,0,0,1,2.941-1.18,2.942,2.942,0,0,1,2.559,1.223,4.1,4.1,0,0,1,.6,3.082l-.031.172A5.4,5.4,0,0,1,110.074,14a4.018,4.018,0,0,1-2.945,1.168,2.945,2.945,0,0,1-2.559-1.219,4.063,4.063,0,0,1-.59-3.078Zm1.508.172a3.681,3.681,0,0,0,.227,2.242,1.6,1.6,0,0,0,1.563.852,2.211,2.211,0,0,0,1.777-.887,4.5,4.5,0,0,0,.926-2.207l.031-.172a3.683,3.683,0,0,0-.238-2.234,1.6,1.6,0,0,0-1.559-.859,2.212,2.212,0,0,0-1.785.895,4.425,4.425,0,0,0-.91,2.2Zm9.867-3.109a3.653,3.653,0,0,1,1.207-1.012,3.241,3.241,0,0,1,1.5-.355,2.384,2.384,0,0,1,1.973.809,3.111,3.111,0,0,1,.4,2.465l-.8,5.336h-1.539l.8-5.3a2.11,2.11,0,0,0-.2-1.605,1.585,1.585,0,0,0-1.289-.449,2.518,2.518,0,0,0-1.234.3,2.729,2.729,0,0,0-.922.832L114.355,15h-1.539l1.266-8.453h1.375ZM123.574,15h-1.539L123.3,6.547h1.539Zm1.594-10.617h-1.539l.234-1.57H125.4ZM126.23,10.7A5.387,5.387,0,0,1,127.7,7.57a4,4,0,0,1,2.941-1.18A2.942,2.942,0,0,1,133.2,7.613a4.1,4.1,0,0,1,.6,3.082l-.031.172A5.4,5.4,0,0,1,132.293,14a4.018,4.018,0,0,1-2.945,1.168,2.945,2.945,0,0,1-2.559-1.219,4.063,4.063,0,0,1-.59-3.078Zm1.508.172a3.681,3.681,0,0,0,.227,2.242,1.6,1.6,0,0,0,1.563.852,2.211,2.211,0,0,0,1.777-.887,4.5,4.5,0,0,0,.926-2.207l.031-.172a3.683,3.683,0,0,0-.238-2.234,1.6,1.6,0,0,0-1.559-.859,2.212,2.212,0,0,0-1.785.895,4.425,4.425,0,0,0-.91,2.2Zm18.82-2.3h-6.516l.2-1.281h6.516Zm-.484,3.25h-6.516l.2-1.281h6.516ZM159.152,15H152.09l.148-1.055L156.4,9.688a12.935,12.935,0,0,0,1.551-1.84,3.521,3.521,0,0,0,.535-1.379,1.684,1.684,0,0,0-.273-1.309A1.444,1.444,0,0,0,157,4.672,2.2,2.2,0,0,0,155.4,5.3a2.579,2.579,0,0,0-.762,1.531H153.16l-.016-.047A3.559,3.559,0,0,1,154.4,4.4a4.111,4.111,0,0,1,2.773-.937,2.893,2.893,0,0,1,2.25.855,2.542,2.542,0,0,1,.6,2.168,3.978,3.978,0,0,1-.734,1.766,24.567,24.567,0,0,1-1.828,2.148l-3.328,3.352.016.047h5.172Zm3.25-.375-1.531,2.391h-.914l.922-2.469.188-1.273h1.539Zm4.867-6.094h1.266a2.064,2.064,0,0,0,1.512-.52,2.467,2.467,0,0,0,.668-1.426,1.823,1.823,0,0,0-.25-1.4,1.536,1.536,0,0,0-1.312-.512,2.374,2.374,0,0,0-1.543.559,2.119,2.119,0,0,0-.8,1.371H165.34l-.016-.047a3.228,3.228,0,0,1,1.3-2.211,4.29,4.29,0,0,1,2.719-.883,3.143,3.143,0,0,1,2.328.809,2.612,2.612,0,0,1,.578,2.348,3.1,3.1,0,0,1-.641,1.488,3.359,3.359,0,0,1-1.328,1,2.282,2.282,0,0,1,1.148,1.055,2.747,2.747,0,0,1,.211,1.664,3.707,3.707,0,0,1-1.352,2.48,4.274,4.274,0,0,1-2.7.855,3.562,3.562,0,0,1-2.4-.863,2.251,2.251,0,0,1-.754-2.254l.016-.047h1.477a1.6,1.6,0,0,0,.379,1.41,1.9,1.9,0,0,0,1.465.551,2.206,2.206,0,0,0,1.543-.59,2.491,2.491,0,0,0,.785-1.512,2.07,2.07,0,0,0-.25-1.621,1.821,1.821,0,0,0-1.484-.512H167.09l.039-.25.1-.687ZM177.6,15h-1.547l1.492-9.953-2.477.023.172-1.187,4.094-.422Zm9.625-9.187a2.7,2.7,0,0,1,.891-1.691,2.641,2.641,0,0,1,1.82-.66,1.925,1.925,0,0,1,1.586.684,2.045,2.045,0,0,1,.406,1.668l-.086.6a2.729,2.729,0,0,1-.887,1.684,2.605,2.605,0,0,1-1.8.652,1.928,1.928,0,0,1-2.016-2.336Zm1.055.6a1.367,1.367,0,0,0,.164.992.944.944,0,0,0,.852.391,1.23,1.23,0,0,0,.93-.406,1.821,1.821,0,0,0,.477-.977l.086-.6a1.434,1.434,0,0,0-.168-1,.911.911,0,0,0-.832-.4,1.248,1.248,0,0,0-.949.414,1.8,1.8,0,0,0-.473.984Zm3.5,5.8a2.705,2.705,0,0,1,.887-1.684,2.626,2.626,0,0,1,1.816-.66,1.927,1.927,0,0,1,1.582.684,2.047,2.047,0,0,1,.418,1.66l-.094.609a2.738,2.738,0,0,1-.891,1.688,2.6,2.6,0,0,1-1.8.656,1.93,1.93,0,0,1-2.016-2.344Zm1.047.609a1.4,1.4,0,0,0,.16,1,.942.942,0,0,0,.855.391,1.23,1.23,0,0,0,.93-.406,1.826,1.826,0,0,0,.477-.984l.094-.609a1.406,1.406,0,0,0-.172-1,.924.924,0,0,0-.836-.395,1.248,1.248,0,0,0-.949.414,1.751,1.751,0,0,0-.465.977Zm-4.078,1.32-.773-.523,6.883-8.891.773.523Z" transform="translate(431.051 5771.008)" fill="#12263f"/>
    <path id="Trazado_908147" data-name="Trazado 908147" d="M26.262,12.063a1.478,1.478,0,0,0-.324-1.211,3.611,3.611,0,0,0-1.527-.875,4.768,4.768,0,0,1-2.2-1.273A2.542,2.542,0,0,1,21.7,6.578,3.442,3.442,0,0,1,22.73,4.445a3.73,3.73,0,0,1,2.18-.953l.242-1.719h1.234l-.242,1.734A2.576,2.576,0,0,1,28,4.6a3.375,3.375,0,0,1,.414,2.387H26.879a2.315,2.315,0,0,0-.258-1.625,1.424,1.424,0,0,0-1.281-.6,1.985,1.985,0,0,0-2.1,1.8,1.47,1.47,0,0,0,.3,1.238,3.977,3.977,0,0,0,1.594.879A4.9,4.9,0,0,1,27.32,9.957a2.544,2.544,0,0,1,.48,2.09,3.351,3.351,0,0,1-1.1,2.168,4.084,4.084,0,0,1-2.352.91l-.2,1.5H22.918l.2-1.492a3.12,3.12,0,0,1-2.051-1,2.949,2.949,0,0,1-.527-2.484h1.539a1.913,1.913,0,0,0,.352,1.738,2.03,2.03,0,0,0,1.43.488,2.646,2.646,0,0,0,1.625-.488A1.915,1.915,0,0,0,26.262,12.063ZM30.5,9.945l1.6-6.32h5.7l-.2,1.367h-4.4l-.859,3.273a4.172,4.172,0,0,1,.879-.449,3.1,3.1,0,0,1,1.043-.184,2.67,2.67,0,0,1,2.324.988,3.6,3.6,0,0,1,.488,2.754,4.693,4.693,0,0,1-1.332,2.781A3.937,3.937,0,0,1,32.9,15.164a3.212,3.212,0,0,1-2.262-.793,2.412,2.412,0,0,1-.605-2.324l.016-.039h1.4a1.679,1.679,0,0,0,.309,1.457,1.711,1.711,0,0,0,1.324.5,2.122,2.122,0,0,0,1.6-.7,3.384,3.384,0,0,0,.84-1.875,2.485,2.485,0,0,0-.273-1.777,1.578,1.578,0,0,0-1.414-.652,2.616,2.616,0,0,0-1.336.281,1.946,1.946,0,0,0-.742.836Zm9.008,0,1.6-6.32h5.7l-.2,1.367H42.2L41.34,8.266a4.172,4.172,0,0,1,.879-.449,3.1,3.1,0,0,1,1.043-.184,2.67,2.67,0,0,1,2.324.988,3.6,3.6,0,0,1,.488,2.754,4.693,4.693,0,0,1-1.332,2.781,3.937,3.937,0,0,1-2.832,1.008,3.212,3.212,0,0,1-2.262-.793,2.412,2.412,0,0,1-.605-2.324l.016-.039h1.4a1.679,1.679,0,0,0,.309,1.457,1.711,1.711,0,0,0,1.324.5,2.122,2.122,0,0,0,1.6-.7,3.384,3.384,0,0,0,.84-1.875,2.485,2.485,0,0,0-.273-1.777,1.578,1.578,0,0,0-1.414-.652,2.616,2.616,0,0,0-1.336.281,1.946,1.946,0,0,0-.742.836Zm15.609,1.039a5.235,5.235,0,0,1-1.437,3.09,3.888,3.888,0,0,1-2.8,1.09,2.863,2.863,0,0,1-2.437-1.137,3.926,3.926,0,0,1-.562-3.043l.5-3.344a5.2,5.2,0,0,1,1.438-3.082,3.89,3.89,0,0,1,2.8-1.1A2.846,2.846,0,0,1,55.051,4.6a3.967,3.967,0,0,1,.563,3.039ZM54.121,7.32a2.859,2.859,0,0,0-.25-1.961,1.581,1.581,0,0,0-1.445-.687,2.123,2.123,0,0,0-1.613.719,3.556,3.556,0,0,0-.855,1.93L49.363,11.3a2.845,2.845,0,0,0,.246,1.969,1.577,1.577,0,0,0,1.441.7,2.126,2.126,0,0,0,1.621-.723,3.585,3.585,0,0,0,.855-1.941ZM58.191,15H56.652l.234-1.578h1.539ZM68.4,10.984a5.235,5.235,0,0,1-1.437,3.09,3.888,3.888,0,0,1-2.8,1.09,2.863,2.863,0,0,1-2.437-1.137,3.926,3.926,0,0,1-.562-3.043l.5-3.344A5.2,5.2,0,0,1,63.1,4.559a3.89,3.89,0,0,1,2.8-1.1A2.846,2.846,0,0,1,68.34,4.6,3.967,3.967,0,0,1,68.9,7.641ZM67.41,7.32a2.859,2.859,0,0,0-.25-1.961,1.581,1.581,0,0,0-1.445-.687,2.123,2.123,0,0,0-1.613.719,3.556,3.556,0,0,0-.855,1.93L62.652,11.3a2.845,2.845,0,0,0,.246,1.969,1.577,1.577,0,0,0,1.441.7,2.126,2.126,0,0,0,1.621-.723,3.585,3.585,0,0,0,.855-1.941Zm10,3.664a5.235,5.235,0,0,1-1.437,3.09,3.888,3.888,0,0,1-2.8,1.09,2.863,2.863,0,0,1-2.437-1.137,3.926,3.926,0,0,1-.562-3.043l.5-3.344a5.2,5.2,0,0,1,1.438-3.082,3.89,3.89,0,0,1,2.8-1.1A2.846,2.846,0,0,1,77.348,4.6a3.967,3.967,0,0,1,.563,3.039ZM76.418,7.32a2.859,2.859,0,0,0-.25-1.961,1.581,1.581,0,0,0-1.445-.687,2.123,2.123,0,0,0-1.613.719,3.556,3.556,0,0,0-.855,1.93L71.66,11.3a2.845,2.845,0,0,0,.246,1.969,1.577,1.577,0,0,0,1.441.7,2.126,2.126,0,0,0,1.621-.723,3.585,3.585,0,0,0,.855-1.941Zm10,3.664a5.235,5.235,0,0,1-1.437,3.09,3.888,3.888,0,0,1-2.8,1.09,2.863,2.863,0,0,1-2.437-1.137,3.926,3.926,0,0,1-.562-3.043l.5-3.344a5.2,5.2,0,0,1,1.438-3.082,3.89,3.89,0,0,1,2.8-1.1A2.846,2.846,0,0,1,86.355,4.6a3.967,3.967,0,0,1,.563,3.039ZM85.426,7.32a2.859,2.859,0,0,0-.25-1.961,1.581,1.581,0,0,0-1.445-.687,2.123,2.123,0,0,0-1.613.719,3.556,3.556,0,0,0-.855,1.93L80.668,11.3a2.845,2.845,0,0,0,.246,1.969,1.577,1.577,0,0,0,1.441.7,2.126,2.126,0,0,0,1.621-.723,3.585,3.585,0,0,0,.855-1.941ZM15.113,36.063a1.478,1.478,0,0,0-.324-1.211,3.611,3.611,0,0,0-1.527-.875,4.768,4.768,0,0,1-2.2-1.273,2.542,2.542,0,0,1-.508-2.125,3.442,3.442,0,0,1,1.031-2.133,3.73,3.73,0,0,1,2.18-.953L14,25.773h1.234L15,27.508a2.576,2.576,0,0,1,1.852,1.09,3.375,3.375,0,0,1,.414,2.387H15.73a2.315,2.315,0,0,0-.258-1.625,1.424,1.424,0,0,0-1.281-.6,1.985,1.985,0,0,0-2.1,1.8,1.47,1.47,0,0,0,.3,1.238,3.977,3.977,0,0,0,1.594.879,4.9,4.9,0,0,1,2.191,1.285,2.544,2.544,0,0,1,.48,2.09,3.351,3.351,0,0,1-1.1,2.168,4.084,4.084,0,0,1-2.352.91l-.2,1.5H11.77l.2-1.492a3.12,3.12,0,0,1-2.051-1,2.949,2.949,0,0,1-.527-2.484h1.539a1.913,1.913,0,0,0,.352,1.738,2.03,2.03,0,0,0,1.43.488,2.646,2.646,0,0,0,1.625-.488A1.915,1.915,0,0,0,15.113,36.063ZM25.5,39H18.434l.148-1.055,4.164-4.258a12.936,12.936,0,0,0,1.551-1.84,3.521,3.521,0,0,0,.535-1.379,1.684,1.684,0,0,0-.273-1.309,1.444,1.444,0,0,0-1.211-.488,2.2,2.2,0,0,0-1.605.625,2.58,2.58,0,0,0-.762,1.531H19.5l-.016-.047A3.559,3.559,0,0,1,20.746,28.4a4.111,4.111,0,0,1,2.773-.937,2.893,2.893,0,0,1,2.25.855,2.542,2.542,0,0,1,.6,2.168,3.978,3.978,0,0,1-.734,1.766A24.569,24.569,0,0,1,23.809,34.4L20.48,37.75l.016.047h5.172Zm4.961-6.469h1.266a2.064,2.064,0,0,0,1.512-.52,2.467,2.467,0,0,0,.668-1.426,1.823,1.823,0,0,0-.25-1.4,1.536,1.536,0,0,0-1.312-.512,2.374,2.374,0,0,0-1.543.559A2.119,2.119,0,0,0,30,30.6H28.527l-.016-.047a3.228,3.228,0,0,1,1.3-2.211,4.29,4.29,0,0,1,2.719-.883,3.143,3.143,0,0,1,2.328.809,2.612,2.612,0,0,1,.578,2.348,3.1,3.1,0,0,1-.641,1.488,3.359,3.359,0,0,1-1.328,1,2.282,2.282,0,0,1,1.148,1.055,2.747,2.747,0,0,1,.211,1.664,3.707,3.707,0,0,1-1.352,2.48,4.274,4.274,0,0,1-2.7.855,3.562,3.562,0,0,1-2.4-.863,2.251,2.251,0,0,1-.754-2.254L27.629,36h1.477a1.6,1.6,0,0,0,.379,1.41,1.9,1.9,0,0,0,1.465.551,2.206,2.206,0,0,0,1.543-.59,2.491,2.491,0,0,0,.785-1.512,2.07,2.07,0,0,0-.25-1.621,1.821,1.821,0,0,0-1.484-.512H30.277l.039-.25.1-.687ZM38.035,39H36.5l.234-1.578H38.27ZM49.348,28.836a20.852,20.852,0,0,0-3.59,4.523,13.491,13.491,0,0,0-1.418,4.4L44.152,39H42.613l.188-1.242a12.183,12.183,0,0,1,1.625-4.672,26.046,26.046,0,0,1,3.406-4.25H41.8l.18-1.211h7.547Zm5.922-1.375a6.346,6.346,0,0,1,1.3.137,4.4,4.4,0,0,1,1.047.332l-.508,1.18a4.926,4.926,0,0,0-.891-.316,4.645,4.645,0,0,0-1.133-.121,2.459,2.459,0,0,0-1.859.922,4.292,4.292,0,0,0-1.031,2.3l-.125.852a4.149,4.149,0,0,1,1.234-.73,4.028,4.028,0,0,1,1.445-.262,2.5,2.5,0,0,1,2.141.992,3.379,3.379,0,0,1,.508,2.578,4.673,4.673,0,0,1-1.379,2.824,3.886,3.886,0,0,1-2.738,1.012,2.9,2.9,0,0,1-2.434-1.207,4.209,4.209,0,0,1-.6-3.27l.391-2.617a5.646,5.646,0,0,1,1.629-3.344A4.216,4.216,0,0,1,55.27,27.461Zm-1.187,5.445a2.571,2.571,0,0,0-1.281.32,2.747,2.747,0,0,0-.937.859l-.109.75a3.427,3.427,0,0,0,.273,2.313,1.586,1.586,0,0,0,1.43.813,2.017,2.017,0,0,0,1.57-.738,3.648,3.648,0,0,0,.828-1.895,2.412,2.412,0,0,0-.293-1.785A1.7,1.7,0,0,0,54.082,32.906Zm7.68-.375h1.266a2.064,2.064,0,0,0,1.512-.52,2.467,2.467,0,0,0,.668-1.426,1.823,1.823,0,0,0-.25-1.4,1.536,1.536,0,0,0-1.312-.512,2.374,2.374,0,0,0-1.543.559,2.119,2.119,0,0,0-.8,1.371H59.832l-.016-.047a3.228,3.228,0,0,1,1.3-2.211,4.29,4.29,0,0,1,2.719-.883,3.143,3.143,0,0,1,2.328.809,2.612,2.612,0,0,1,.578,2.348,3.1,3.1,0,0,1-.641,1.488,3.359,3.359,0,0,1-1.328,1,2.282,2.282,0,0,1,1.148,1.055,2.747,2.747,0,0,1,.211,1.664,3.707,3.707,0,0,1-1.352,2.48,4.274,4.274,0,0,1-2.7.855,3.562,3.562,0,0,1-2.4-.863,2.251,2.251,0,0,1-.754-2.254L58.934,36H60.41a1.6,1.6,0,0,0,.379,1.41,1.9,1.9,0,0,0,1.465.551,2.206,2.206,0,0,0,1.543-.59,2.491,2.491,0,0,0,.785-1.512,2.07,2.07,0,0,0-.25-1.621,1.821,1.821,0,0,0-1.484-.512H61.582l.039-.25.1-.687ZM69.34,39H67.8l.234-1.578h1.539Zm9.031-3.828h1.578l-.187,1.2h-1.57L77.8,39H76.27l.391-2.625H71.777l.133-.867,5.969-7.883H79.5Zm-4.758,0H76.84l.8-5.312-.039-.016-.2.375ZM89.66,28.836a20.852,20.852,0,0,0-3.59,4.523,13.491,13.491,0,0,0-1.418,4.4L84.465,39H82.926l.188-1.242a12.183,12.183,0,0,1,1.625-4.672,26.046,26.046,0,0,1,3.406-4.25H82.113l.18-1.211H89.84Zm6.727,6.336h1.578l-.187,1.2h-1.57L95.816,39H94.285l.391-2.625H89.793l.133-.867,5.969-7.883H97.52Zm-4.758,0h3.227l.8-5.312-.039-.016-.2.375Z" transform="translate(518.051 5708.008)" fill="#12263f"/>
    <path id="Trazado_908148" data-name="Trazado 908148" d="M0,0H110" transform="translate(514.551 5729.508)" fill="none" stroke="#12263f" stroke-width="1"/>
    <path id="Trazado_908149" data-name="Trazado 908149" d="M1.031-4.617A10.458,10.458,0,0,1,2.273-9.875a7.19,7.19,0,0,1,2.609-2.906l.047.008.3.906a6.665,6.665,0,0,0-1.863,2.68A11.54,11.54,0,0,0,2.57-4.633v.1A11.591,11.591,0,0,0,3.359.023a7.25,7.25,0,0,0,1.867,2.75l-.3.844H4.883A7.193,7.193,0,0,1,2.273.715,10.452,10.452,0,0,1,1.031-4.547Zm119.859.07A10.426,10.426,0,0,1,119.645.715a7.244,7.244,0,0,1-2.605,2.9h-.047l-.3-.844a6.653,6.653,0,0,0,1.855-2.7,11.749,11.749,0,0,0,.8-4.605v-.1a11.354,11.354,0,0,0-.824-4.559,7.532,7.532,0,0,0-1.832-2.746l.3-.844h.047a7.241,7.241,0,0,1,2.605,2.906,10.431,10.431,0,0,1,1.246,5.258Z" transform="translate(511.051 5735.008)" fill="#12263f"/>
  </g>
</svg>
