<svg xmlns="http://www.w3.org/2000/svg" width="399" height="124.094" viewBox="0 0 399 124.094">
  <g id="Grupo_1112999" data-name="Grupo 1112999" transform="translate(-288.051 -2599)">
    <rect id="Rectángulo_406002" data-name="Rectángulo 406002" width="388" height="116.094" transform="translate(299.051 2607)" fill="#bce0fc"/>
    <g id="Rectángulo_406003" data-name="Rectángulo 406003" transform="translate(288.051 2599)" fill="#fbfbf9" stroke="#000" stroke-width="0.5">
      <rect width="395" height="118.094" stroke="none"/>
      <rect x="0.25" y="0.25" width="394.5" height="117.594" fill="none"/>
    </g>
    <g id="Grupo_1112977" data-name="Grupo 1112977" transform="translate(381.051 2616)">
      <text id="_100" data-name="*100" transform="translate(205 12)" fill="#12263f" font-size="16" font-family="SegoeUI, Segoe UI"><tspan x="0" y="17">*100</tspan></text>
      <g id="Grupo_1114718" data-name="Grupo 1114718">
        <path id="Trazado_908118" data-name="Trazado 908118" d="M26.539,13.656a3.886,3.886,0,0,1-.219,1.285,3.741,3.741,0,0,1-.613,1.121,3.081,3.081,0,0,1-.953.793,2.57,2.57,0,0,1-1.238.3,2.412,2.412,0,0,1-1.121-.23A1.985,1.985,0,0,1,21.34,15.6a3.253,3.253,0,0,1-.1-.758,3.829,3.829,0,0,1,.84-2.371,3.15,3.15,0,0,1,.973-.8,2.676,2.676,0,0,1,1.281-.3,2.564,2.564,0,0,1,.906.152,1.9,1.9,0,0,1,.7.445,1.977,1.977,0,0,1,.445.719A2.812,2.812,0,0,1,26.539,13.656ZM16.75,17H15.594L25.2,5.8h1.156Zm3.984-9.07a3.886,3.886,0,0,1-.219,1.285,3.694,3.694,0,0,1-.617,1.121,3.142,3.142,0,0,1-.953.793,2.547,2.547,0,0,1-1.234.3,2.763,2.763,0,0,1-.8-.105,2.017,2.017,0,0,1-.6-.289,1.837,1.837,0,0,1-.422-.418,2.151,2.151,0,0,1-.266-.492,2.7,2.7,0,0,1-.141-.52,3.067,3.067,0,0,1-.043-.5,3.68,3.68,0,0,1,.1-.84,3.843,3.843,0,0,1,.285-.8,3.692,3.692,0,0,1,.457-.719,3.2,3.2,0,0,1,.609-.578,2.826,2.826,0,0,1,.754-.387,2.727,2.727,0,0,1,.883-.141,2.564,2.564,0,0,1,.906.152,1.9,1.9,0,0,1,.7.445,2.02,2.02,0,0,1,.449.719A2.75,2.75,0,0,1,20.734,7.93Zm4.75,5.758a2.33,2.33,0,0,0-.062-.543,1.365,1.365,0,0,0-.2-.465,1.028,1.028,0,0,0-.367-.324,1.146,1.146,0,0,0-.547-.121,1.482,1.482,0,0,0-.848.25,2.289,2.289,0,0,0-.629.637,3.03,3.03,0,0,0-.391.848,3.212,3.212,0,0,0-.133.891,2.054,2.054,0,0,0,.07.535,1.348,1.348,0,0,0,.219.461,1.1,1.1,0,0,0,.383.32,1.231,1.231,0,0,0,.57.121,1.463,1.463,0,0,0,.793-.223,2.1,2.1,0,0,0,.609-.586,2.89,2.89,0,0,0,.395-.832A3.353,3.353,0,0,0,25.484,13.688Zm-5.8-5.727a2.33,2.33,0,0,0-.062-.543,1.365,1.365,0,0,0-.2-.465,1.028,1.028,0,0,0-.367-.324,1.164,1.164,0,0,0-.555-.121,1.482,1.482,0,0,0-.848.25,2.309,2.309,0,0,0-.629.633,2.964,2.964,0,0,0-.391.848,3.228,3.228,0,0,0-.133.887,2.01,2.01,0,0,0,.07.531,1.4,1.4,0,0,0,.219.461,1.107,1.107,0,0,0,.387.328,1.222,1.222,0,0,0,.574.125,1.45,1.45,0,0,0,.785-.223,2.147,2.147,0,0,0,.613-.586,2.831,2.831,0,0,0,.4-.832A3.353,3.353,0,0,0,19.68,7.961ZM39.742,11.8a6.076,6.076,0,0,1-.125,1.2,6.206,6.206,0,0,1-.383,1.223,6.02,6.02,0,0,1-.645,1.141,4.625,4.625,0,0,1-.91.949,4.22,4.22,0,0,1-1.187.648,4.323,4.323,0,0,1-1.469.238,4.833,4.833,0,0,1-.91-.086,5.6,5.6,0,0,1-.785-.2l-.8,3.8h-1.3l1.953-9.25q.055-.25.1-.6t.082-.707q.035-.355.059-.668T33.453,9h1.313q0,.133-.02.359t-.051.473q-.031.246-.062.477t-.055.371h.031a4.221,4.221,0,0,1,1.25-1.41A2.672,2.672,0,0,1,37.375,8.8a2.476,2.476,0,0,1,.984.188,1.949,1.949,0,0,1,.746.563,2.6,2.6,0,0,1,.473.938A4.675,4.675,0,0,1,39.742,11.8Zm-1.312.055a3.864,3.864,0,0,0-.074-.781,1.733,1.733,0,0,0-.246-.617,1.246,1.246,0,0,0-.441-.406,1.352,1.352,0,0,0-.66-.148,1.761,1.761,0,0,0-.762.168,2.623,2.623,0,0,0-.66.449,3.682,3.682,0,0,0-.555.652,6.484,6.484,0,0,0-.445.77,6.762,6.762,0,0,0-.332.8,6.037,6.037,0,0,0-.207.754l-.492,2.32a2.192,2.192,0,0,0,.336.113q.2.051.406.09t.43.063a3.83,3.83,0,0,0,.406.023,2.7,2.7,0,0,0,1-.18,2.891,2.891,0,0,0,.82-.488,3.446,3.446,0,0,0,.641-.727,4.821,4.821,0,0,0,.465-.891,5.242,5.242,0,0,0,.281-.977A5.4,5.4,0,0,0,38.43,11.852Zm8.992,2.586q-.063.3-.121.668t-.1.734q-.043.363-.07.676T47.1,17H45.773q.008-.156.023-.375t.043-.453q.027-.234.055-.461t.059-.391h-.031q-.242.383-.492.723a3.478,3.478,0,0,1-.555.6,2.429,2.429,0,0,1-.68.406,2.612,2.612,0,0,1-1.84-.039,2.006,2.006,0,0,1-.746-.559,2.574,2.574,0,0,1-.48-.93,4.532,4.532,0,0,1-.168-1.3,6.518,6.518,0,0,1,.094-1.031,6.309,6.309,0,0,1,.316-1.18,6.007,6.007,0,0,1,.594-1.176A4.465,4.465,0,0,1,42.887,9.8a4.4,4.4,0,0,1,1.3-.727A5.051,5.051,0,0,1,45.922,8.8a9.22,9.22,0,0,1,1.289.094q.664.094,1.32.227Zm-.367-4.383q-.273-.062-.641-.109a5.447,5.447,0,0,0-.687-.047,3.119,3.119,0,0,0-1.2.215,3.077,3.077,0,0,0-.9.563,3.313,3.313,0,0,0-.645.8,4.965,4.965,0,0,0-.418.926,5.448,5.448,0,0,0-.223.934,5.91,5.91,0,0,0-.066.836,3.744,3.744,0,0,0,.078.8,1.748,1.748,0,0,0,.246.605,1.156,1.156,0,0,0,.43.387,1.325,1.325,0,0,0,.621.137,1.692,1.692,0,0,0,.73-.16,2.532,2.532,0,0,0,.637-.434,3.56,3.56,0,0,0,.539-.633,6.225,6.225,0,0,0,.438-.762,6.515,6.515,0,0,0,.332-.82q.137-.418.223-.809Zm7.359.031H52.4l-.9,4.242q-.047.242-.094.523a2.892,2.892,0,0,0-.047.453.789.789,0,0,0,.176.574.764.764,0,0,0,.559.176,1.228,1.228,0,0,0,.242-.031q.148-.031.3-.078t.309-.105l.27-.105-.242,1.125a3.788,3.788,0,0,1-.621.2,2.877,2.877,0,0,1-.66.082,2.234,2.234,0,0,1-.758-.113,1.3,1.3,0,0,1-.512-.324,1.256,1.256,0,0,1-.289-.512,2.359,2.359,0,0,1-.09-.676,3.788,3.788,0,0,1,.043-.527,5.466,5.466,0,0,1,.105-.551l.922-4.352H49.789L50.031,9h1.313l.414-1.953A2.408,2.408,0,0,1,52,6.973q.207-.059.453-.133L52.9,6.7l.23-.07L52.641,9h2.016Zm5.766.273h-.031a2.307,2.307,0,0,0-.41-.184,1.5,1.5,0,0,0-.5-.09,1.479,1.479,0,0,0-.867.293,3.188,3.188,0,0,0-.754.773,5.549,5.549,0,0,0-.594,1.1,7.5,7.5,0,0,0-.395,1.266L55.875,17H54.594l1.125-5.312q.07-.328.141-.687t.129-.719q.059-.359.105-.687T56.164,9H57.43q-.023.234-.055.5T57.313,10q-.031.246-.062.445t-.047.309h.031a8.623,8.623,0,0,1,.508-.8,3.718,3.718,0,0,1,.543-.613,2.3,2.3,0,0,1,.605-.395,1.71,1.71,0,0,1,.7-.141,2.206,2.206,0,0,1,.434.043q.215.043.387.09Zm2.945,6.609a2.994,2.994,0,0,1-.441.1,3.111,3.111,0,0,1-.488.039,1.594,1.594,0,0,1-1.18-.395,1.439,1.439,0,0,1-.391-1.059,3.227,3.227,0,0,1,.039-.461q.039-.266.125-.656L61.953,9h1.3l-1.172,5.57q-.07.328-.1.508a2.078,2.078,0,0,0-.027.3.644.644,0,0,0,.176.488.787.787,0,0,0,.559.168,2.366,2.366,0,0,0,.355-.023,1.575,1.575,0,0,0,.285-.07Zm.914-10.82a.841.841,0,0,1-.238.6.782.782,0,0,1-.59.25.831.831,0,0,1-.6-.246.81.81,0,0,1-.254-.605.749.749,0,0,1,.254-.586.869.869,0,0,1,.6-.227.819.819,0,0,1,.586.23A.769.769,0,0,1,64.039,6.148ZM76.93,11.016a2.6,2.6,0,0,1-.027.309q-.027.207-.07.441t-.086.465q-.043.23-.074.387L75.727,17H74.445l.977-4.687q.031-.133.063-.3t.059-.324q.027-.16.043-.3a2.01,2.01,0,0,0,.016-.215,1.487,1.487,0,0,0-.266-.949,1,1,0,0,0-.828-.332,1.542,1.542,0,0,0-.613.137,2.836,2.836,0,0,0-.617.371,4.353,4.353,0,0,0-.578.547,5.567,5.567,0,0,0-.508.668,5.2,5.2,0,0,0-.395.727,3.81,3.81,0,0,0-.242.73L70.719,17h-1.3l.992-4.687q.031-.133.063-.3t.059-.324q.027-.16.043-.3a2.01,2.01,0,0,0,.016-.215,1.457,1.457,0,0,0-.273-.949A1,1,0,0,0,69.5,9.9a1.586,1.586,0,0,0-.625.137,2.8,2.8,0,0,0-.625.375,4.293,4.293,0,0,0-.582.555,5.826,5.826,0,0,0-.508.672,4.916,4.916,0,0,0-.391.727,3.977,3.977,0,0,0-.238.73L65.7,17H64.4l1.234-5.711q.062-.3.125-.637t.117-.641q.055-.309.094-.574T66.031,9h1.25q-.039.3-.094.637t-.094.613q-.047.328-.1.641h.031a6.756,6.756,0,0,1,.609-.836,4.457,4.457,0,0,1,.7-.66,3.219,3.219,0,0,1,.766-.434,2.411,2.411,0,0,1,1.688-.008,1.6,1.6,0,0,1,.6.418,1.827,1.827,0,0,1,.363.652,3.263,3.263,0,0,1,.148.852,7.56,7.56,0,0,1,.621-.816,4.41,4.41,0,0,1,.711-.656,3.362,3.362,0,0,1,.8-.437,2.542,2.542,0,0,1,.9-.16,1.869,1.869,0,0,1,1.5.582A2.423,2.423,0,0,1,76.93,11.016Zm8.766.945a6.659,6.659,0,0,1-.3,2.016,5.154,5.154,0,0,1-.867,1.668,4.19,4.19,0,0,1-1.375,1.133,3.914,3.914,0,0,1-1.824.418,3.33,3.33,0,0,1-1.238-.219,2.576,2.576,0,0,1-.937-.629,2.786,2.786,0,0,1-.594-.992,3.912,3.912,0,0,1-.207-1.316,6.519,6.519,0,0,1,.316-2.059,5.2,5.2,0,0,1,.891-1.664,4.161,4.161,0,0,1,1.375-1.109,3.885,3.885,0,0,1,1.77-.4,3.308,3.308,0,0,1,1.23.219,2.614,2.614,0,0,1,.941.629,2.848,2.848,0,0,1,.605.992A3.783,3.783,0,0,1,85.7,11.961Zm-1.312.063a2.987,2.987,0,0,0-.125-.9,1.92,1.92,0,0,0-.352-.664,1.525,1.525,0,0,0-.547-.414,1.729,1.729,0,0,0-.719-.145,2.272,2.272,0,0,0-1.242.352,3.143,3.143,0,0,0-.937.926,4.591,4.591,0,0,0-.59,1.3,5.46,5.46,0,0,0-.207,1.5,2.988,2.988,0,0,0,.121.879,2,2,0,0,0,.344.672,1.484,1.484,0,0,0,.547.426,1.735,1.735,0,0,0,.73.148,2.3,2.3,0,0,0,1.25-.348,3.1,3.1,0,0,0,.938-.922,4.505,4.505,0,0,0,.586-1.309A5.6,5.6,0,0,0,84.383,12.023ZM94.477,11a2.547,2.547,0,0,1-.027.32q-.027.2-.07.438t-.086.465q-.043.23-.082.395L93.281,17h-1.3l.977-4.687q.031-.125.063-.289t.055-.328q.023-.164.039-.3a2.01,2.01,0,0,0,.016-.215,1.424,1.424,0,0,0-.285-.937A1.038,1.038,0,0,0,92,9.9a1.972,1.972,0,0,0-1.023.3,4.211,4.211,0,0,0-.937.773,5.274,5.274,0,0,0-.738,1.031,3.952,3.952,0,0,0-.418,1.086L88.047,17h-1.3l1.234-5.711q.062-.3.125-.637t.117-.641q.055-.309.094-.574T88.383,9h1.25q-.039.3-.094.637t-.094.613q-.047.328-.1.641h.031a6.607,6.607,0,0,1,.605-.809,4.531,4.531,0,0,1,.719-.664,3.413,3.413,0,0,1,.82-.449,2.55,2.55,0,0,1,.91-.164,2.362,2.362,0,0,1,.914.16,1.712,1.712,0,0,1,.637.449,1.829,1.829,0,0,1,.375.7A3.108,3.108,0,0,1,94.477,11Zm4.07,5.969a2.994,2.994,0,0,1-.441.1,3.111,3.111,0,0,1-.488.039,1.594,1.594,0,0,1-1.18-.395,1.439,1.439,0,0,1-.391-1.059,3.228,3.228,0,0,1,.039-.461q.039-.266.125-.656L97.375,9h1.3L97.5,14.57q-.07.328-.1.508a2.079,2.079,0,0,0-.027.3.644.644,0,0,0,.176.488.787.787,0,0,0,.559.168,2.366,2.366,0,0,0,.355-.023,1.575,1.575,0,0,0,.285-.07Zm.914-10.82a.841.841,0,0,1-.238.6.782.782,0,0,1-.59.25.831.831,0,0,1-.6-.246.81.81,0,0,1-.254-.605.749.749,0,0,1,.254-.586.869.869,0,0,1,.6-.227.819.819,0,0,1,.586.23A.769.769,0,0,1,99.461,6.148Zm7.93,5.813a6.659,6.659,0,0,1-.3,2.016,5.154,5.154,0,0,1-.867,1.668,4.19,4.19,0,0,1-1.375,1.133,3.914,3.914,0,0,1-1.824.418,3.33,3.33,0,0,1-1.238-.219,2.576,2.576,0,0,1-.937-.629,2.786,2.786,0,0,1-.594-.992,3.912,3.912,0,0,1-.207-1.316,6.519,6.519,0,0,1,.316-2.059,5.2,5.2,0,0,1,.891-1.664,4.161,4.161,0,0,1,1.375-1.109,3.885,3.885,0,0,1,1.77-.4,3.308,3.308,0,0,1,1.23.219,2.614,2.614,0,0,1,.941.629,2.848,2.848,0,0,1,.605.992A3.783,3.783,0,0,1,107.391,11.961Zm-1.312.063a2.987,2.987,0,0,0-.125-.9,1.92,1.92,0,0,0-.352-.664,1.525,1.525,0,0,0-.547-.414,1.729,1.729,0,0,0-.719-.145,2.272,2.272,0,0,0-1.242.352,3.143,3.143,0,0,0-.937.926,4.591,4.591,0,0,0-.59,1.3,5.46,5.46,0,0,0-.207,1.5,2.988,2.988,0,0,0,.121.879,2,2,0,0,0,.344.672,1.484,1.484,0,0,0,.547.426,1.735,1.735,0,0,0,.73.148,2.3,2.3,0,0,0,1.25-.348,3.1,3.1,0,0,0,.938-.922,4.505,4.505,0,0,0,.586-1.309A5.6,5.6,0,0,0,106.078,12.023ZM99.039,35.2V34.148h7.344V35.2Zm0,3.328V37.477h7.344v1.047Z" transform="translate(-32 12)" fill="#12263f"/>
        <path id="Trazado_908120" data-name="Trazado 908120" d="M54.574,13.656a3.886,3.886,0,0,1-.219,1.285,3.741,3.741,0,0,1-.613,1.121,3.081,3.081,0,0,1-.953.793,2.57,2.57,0,0,1-1.238.3,2.412,2.412,0,0,1-1.121-.23A1.985,1.985,0,0,1,49.375,15.6a3.253,3.253,0,0,1-.1-.758,3.829,3.829,0,0,1,.84-2.371,3.15,3.15,0,0,1,.973-.8,2.676,2.676,0,0,1,1.281-.3,2.564,2.564,0,0,1,.906.152,1.9,1.9,0,0,1,.7.445,1.977,1.977,0,0,1,.445.719A2.812,2.812,0,0,1,54.574,13.656ZM44.785,17H43.629l9.6-11.2h1.156ZM48.77,7.93a3.886,3.886,0,0,1-.219,1.285,3.694,3.694,0,0,1-.617,1.121,3.142,3.142,0,0,1-.953.793,2.547,2.547,0,0,1-1.234.3,2.763,2.763,0,0,1-.8-.105,2.017,2.017,0,0,1-.6-.289,1.838,1.838,0,0,1-.422-.418,2.151,2.151,0,0,1-.266-.492,2.7,2.7,0,0,1-.141-.52,3.067,3.067,0,0,1-.043-.5,3.68,3.68,0,0,1,.1-.84,3.843,3.843,0,0,1,.285-.8,3.692,3.692,0,0,1,.457-.719,3.2,3.2,0,0,1,.609-.578,2.826,2.826,0,0,1,.754-.387,2.727,2.727,0,0,1,.883-.141,2.564,2.564,0,0,1,.906.152,1.9,1.9,0,0,1,.7.445,2.02,2.02,0,0,1,.449.719A2.75,2.75,0,0,1,48.77,7.93Zm4.75,5.758a2.33,2.33,0,0,0-.062-.543,1.365,1.365,0,0,0-.2-.465,1.028,1.028,0,0,0-.367-.324,1.146,1.146,0,0,0-.547-.121,1.482,1.482,0,0,0-.848.25,2.289,2.289,0,0,0-.629.637,3.03,3.03,0,0,0-.391.848,3.212,3.212,0,0,0-.133.891,2.054,2.054,0,0,0,.07.535,1.348,1.348,0,0,0,.219.461,1.1,1.1,0,0,0,.383.32,1.231,1.231,0,0,0,.57.121,1.463,1.463,0,0,0,.793-.223,2.1,2.1,0,0,0,.609-.586,2.89,2.89,0,0,0,.395-.832A3.353,3.353,0,0,0,53.52,13.688Zm-5.8-5.727a2.33,2.33,0,0,0-.062-.543,1.365,1.365,0,0,0-.2-.465,1.028,1.028,0,0,0-.367-.324,1.164,1.164,0,0,0-.555-.121,1.482,1.482,0,0,0-.848.25,2.309,2.309,0,0,0-.629.633,2.964,2.964,0,0,0-.391.848,3.228,3.228,0,0,0-.133.887,2.01,2.01,0,0,0,.07.531,1.4,1.4,0,0,0,.219.461,1.107,1.107,0,0,0,.387.328,1.222,1.222,0,0,0,.574.125,1.45,1.45,0,0,0,.785-.223,2.147,2.147,0,0,0,.613-.586,2.831,2.831,0,0,0,.4-.832A3.353,3.353,0,0,0,47.715,7.961ZM64.5,8.742a4.3,4.3,0,0,1-.281,1.559,3.463,3.463,0,0,1-.855,1.277,4.07,4.07,0,0,1-1.457.863,6.161,6.161,0,0,1-2.078.316h-1.7L57.238,17H55.895L58.262,5.8h2.9a4.264,4.264,0,0,1,1.535.246,2.889,2.889,0,0,1,1.039.656,2.493,2.493,0,0,1,.586.941A3.349,3.349,0,0,1,64.5,8.742Zm-1.383.117a1.986,1.986,0,0,0-.145-.77,1.589,1.589,0,0,0-.426-.594,1.937,1.937,0,0,0-.7-.379,3.189,3.189,0,0,0-.965-.133H59.363l-.977,4.594h1.57a4.37,4.37,0,0,0,1.426-.207,2.71,2.71,0,0,0,.984-.57,2.222,2.222,0,0,0,.57-.859A3.1,3.1,0,0,0,63.121,8.859Zm8.469,5.578q-.062.3-.121.668t-.1.734q-.043.363-.07.676T71.27,17H69.941q.008-.156.023-.375t.043-.453q.027-.234.055-.461t.059-.391H70.09q-.242.383-.492.723a3.478,3.478,0,0,1-.555.6,2.429,2.429,0,0,1-.68.406,2.612,2.612,0,0,1-1.84-.039,2.006,2.006,0,0,1-.746-.559,2.574,2.574,0,0,1-.48-.93,4.532,4.532,0,0,1-.168-1.3,6.518,6.518,0,0,1,.094-1.031,6.309,6.309,0,0,1,.316-1.18,6.006,6.006,0,0,1,.594-1.176A4.465,4.465,0,0,1,67.055,9.8a4.4,4.4,0,0,1,1.3-.727A5.051,5.051,0,0,1,70.09,8.8a9.22,9.22,0,0,1,1.289.094q.664.094,1.32.227Zm-.367-4.383q-.273-.062-.641-.109a5.447,5.447,0,0,0-.687-.047,3.119,3.119,0,0,0-1.2.215,3.077,3.077,0,0,0-.9.563,3.312,3.312,0,0,0-.645.8,4.965,4.965,0,0,0-.418.926,5.449,5.449,0,0,0-.223.934,5.91,5.91,0,0,0-.066.836,3.744,3.744,0,0,0,.078.8,1.749,1.749,0,0,0,.246.605,1.156,1.156,0,0,0,.43.387,1.325,1.325,0,0,0,.621.137,1.692,1.692,0,0,0,.73-.16,2.532,2.532,0,0,0,.637-.434,3.56,3.56,0,0,0,.539-.633,6.225,6.225,0,0,0,.438-.762,6.515,6.515,0,0,0,.332-.82q.137-.418.223-.809Zm7.359.031H76.566l-.9,4.242q-.047.242-.094.523a2.892,2.892,0,0,0-.047.453.789.789,0,0,0,.176.574.764.764,0,0,0,.559.176,1.228,1.228,0,0,0,.242-.031q.148-.031.3-.078t.309-.105l.27-.105-.242,1.125a3.788,3.788,0,0,1-.621.2,2.877,2.877,0,0,1-.66.082,2.234,2.234,0,0,1-.758-.113,1.3,1.3,0,0,1-.512-.324,1.256,1.256,0,0,1-.289-.512,2.358,2.358,0,0,1-.09-.676,3.787,3.787,0,0,1,.043-.527,5.468,5.468,0,0,1,.105-.551l.922-4.352H73.957L74.2,9h1.313l.414-1.953a2.408,2.408,0,0,1,.238-.074q.207-.059.453-.133L77.07,6.7l.23-.07L76.809,9h2.016Zm5.766.273h-.031a2.306,2.306,0,0,0-.41-.184,1.5,1.5,0,0,0-.5-.09,1.479,1.479,0,0,0-.867.293,3.188,3.188,0,0,0-.754.773,5.549,5.549,0,0,0-.594,1.1,7.5,7.5,0,0,0-.395,1.266L80.043,17H78.762l1.125-5.312q.07-.328.141-.687t.129-.719q.059-.359.105-.687T80.332,9H81.6q-.023.234-.055.5T81.48,10q-.031.246-.062.445t-.047.309H81.4a8.623,8.623,0,0,1,.508-.8,3.718,3.718,0,0,1,.543-.613,2.3,2.3,0,0,1,.605-.395,1.71,1.71,0,0,1,.7-.141,2.206,2.206,0,0,1,.434.043q.215.043.387.09Zm2.945,6.609a2.994,2.994,0,0,1-.441.1,3.111,3.111,0,0,1-.488.039,1.594,1.594,0,0,1-1.18-.395,1.439,1.439,0,0,1-.391-1.059,3.228,3.228,0,0,1,.039-.461q.039-.266.125-.656L86.121,9h1.3l-1.172,5.57q-.07.328-.1.508a2.079,2.079,0,0,0-.027.3.644.644,0,0,0,.176.488.787.787,0,0,0,.559.168,2.366,2.366,0,0,0,.355-.023,1.575,1.575,0,0,0,.285-.07Zm.914-10.82a.841.841,0,0,1-.238.6.782.782,0,0,1-.59.25.831.831,0,0,1-.6-.246.81.81,0,0,1-.254-.605.749.749,0,0,1,.254-.586.869.869,0,0,1,.6-.227.819.819,0,0,1,.586.23A.769.769,0,0,1,88.207,6.148ZM101.1,11.016a2.6,2.6,0,0,1-.027.309q-.027.207-.07.441t-.086.465q-.043.23-.074.387L99.895,17H98.613l.977-4.687q.031-.133.063-.3t.059-.324q.027-.16.043-.3a2.01,2.01,0,0,0,.016-.215,1.487,1.487,0,0,0-.266-.949,1,1,0,0,0-.828-.332,1.542,1.542,0,0,0-.613.137,2.836,2.836,0,0,0-.617.371,4.353,4.353,0,0,0-.578.547,5.567,5.567,0,0,0-.508.668,5.2,5.2,0,0,0-.395.727,3.81,3.81,0,0,0-.242.73L94.887,17h-1.3l.992-4.687q.031-.133.063-.3t.059-.324q.027-.16.043-.3a2.01,2.01,0,0,0,.016-.215,1.457,1.457,0,0,0-.273-.949,1,1,0,0,0-.82-.332,1.586,1.586,0,0,0-.625.137,2.8,2.8,0,0,0-.625.375,4.293,4.293,0,0,0-.582.555,5.826,5.826,0,0,0-.508.672,4.916,4.916,0,0,0-.391.727,3.977,3.977,0,0,0-.238.73L89.863,17h-1.3L89.8,11.289q.062-.3.125-.637t.117-.641q.055-.309.094-.574T90.2,9h1.25q-.039.3-.094.637t-.094.613q-.047.328-.1.641h.031a6.756,6.756,0,0,1,.609-.836,4.457,4.457,0,0,1,.7-.66,3.219,3.219,0,0,1,.766-.434,2.411,2.411,0,0,1,1.688-.008,1.6,1.6,0,0,1,.6.418,1.827,1.827,0,0,1,.363.652,3.263,3.263,0,0,1,.148.852,7.56,7.56,0,0,1,.621-.816,4.41,4.41,0,0,1,.711-.656,3.362,3.362,0,0,1,.8-.437,2.542,2.542,0,0,1,.9-.16,1.869,1.869,0,0,1,1.5.582A2.423,2.423,0,0,1,101.1,11.016Zm8.766.945a6.659,6.659,0,0,1-.3,2.016,5.154,5.154,0,0,1-.867,1.668,4.19,4.19,0,0,1-1.375,1.133,3.914,3.914,0,0,1-1.824.418,3.33,3.33,0,0,1-1.238-.219,2.576,2.576,0,0,1-.937-.629,2.786,2.786,0,0,1-.594-.992,3.912,3.912,0,0,1-.207-1.316,6.519,6.519,0,0,1,.316-2.059,5.2,5.2,0,0,1,.891-1.664A4.161,4.161,0,0,1,105.1,9.207a3.885,3.885,0,0,1,1.77-.4,3.308,3.308,0,0,1,1.23.219,2.614,2.614,0,0,1,.941.629,2.848,2.848,0,0,1,.605.992A3.783,3.783,0,0,1,109.863,11.961Zm-1.312.063a2.987,2.987,0,0,0-.125-.9,1.92,1.92,0,0,0-.352-.664,1.525,1.525,0,0,0-.547-.414,1.729,1.729,0,0,0-.719-.145,2.272,2.272,0,0,0-1.242.352,3.143,3.143,0,0,0-.937.926,4.591,4.591,0,0,0-.59,1.3,5.46,5.46,0,0,0-.207,1.5,2.988,2.988,0,0,0,.121.879,2,2,0,0,0,.344.672,1.484,1.484,0,0,0,.547.426,1.735,1.735,0,0,0,.73.148,2.3,2.3,0,0,0,1.25-.348,3.1,3.1,0,0,0,.938-.922,4.505,4.505,0,0,0,.586-1.309A5.6,5.6,0,0,0,108.551,12.023ZM118.645,11a2.547,2.547,0,0,1-.027.32q-.027.2-.07.438t-.086.465q-.043.23-.082.395L117.449,17h-1.3l.977-4.687q.031-.125.063-.289t.055-.328q.023-.164.039-.3a2.01,2.01,0,0,0,.016-.215,1.424,1.424,0,0,0-.285-.937,1.038,1.038,0,0,0-.848-.344,1.972,1.972,0,0,0-1.023.3,4.211,4.211,0,0,0-.937.773,5.274,5.274,0,0,0-.738,1.031,3.952,3.952,0,0,0-.418,1.086L112.215,17h-1.3l1.234-5.711q.062-.3.125-.637t.117-.641q.055-.309.094-.574T112.551,9h1.25q-.039.3-.094.637t-.094.613q-.047.328-.1.641h.031a6.607,6.607,0,0,1,.605-.809,4.531,4.531,0,0,1,.719-.664,3.413,3.413,0,0,1,.82-.449,2.55,2.55,0,0,1,.91-.164,2.362,2.362,0,0,1,.914.16,1.712,1.712,0,0,1,.637.449,1.829,1.829,0,0,1,.375.7A3.108,3.108,0,0,1,118.645,11Zm4.07,5.969a2.994,2.994,0,0,1-.441.1,3.111,3.111,0,0,1-.488.039,1.594,1.594,0,0,1-1.18-.395,1.439,1.439,0,0,1-.391-1.059,3.228,3.228,0,0,1,.039-.461q.039-.266.125-.656L121.543,9h1.3l-1.172,5.57q-.07.328-.1.508a2.079,2.079,0,0,0-.027.3.644.644,0,0,0,.176.488.787.787,0,0,0,.559.168,2.366,2.366,0,0,0,.355-.023,1.575,1.575,0,0,0,.285-.07Zm.914-10.82a.841.841,0,0,1-.238.6.782.782,0,0,1-.59.25.831.831,0,0,1-.6-.246.81.81,0,0,1-.254-.605.749.749,0,0,1,.254-.586.869.869,0,0,1,.6-.227.819.819,0,0,1,.586.23A.769.769,0,0,1,123.629,6.148Zm7.93,5.813a6.659,6.659,0,0,1-.3,2.016,5.153,5.153,0,0,1-.867,1.668,4.19,4.19,0,0,1-1.375,1.133,3.914,3.914,0,0,1-1.824.418,3.33,3.33,0,0,1-1.238-.219,2.576,2.576,0,0,1-.937-.629,2.786,2.786,0,0,1-.594-.992,3.912,3.912,0,0,1-.207-1.316,6.519,6.519,0,0,1,.316-2.059,5.2,5.2,0,0,1,.891-1.664A4.161,4.161,0,0,1,126.8,9.207a3.885,3.885,0,0,1,1.77-.4,3.308,3.308,0,0,1,1.23.219,2.614,2.614,0,0,1,.941.629,2.848,2.848,0,0,1,.605.992A3.783,3.783,0,0,1,131.559,11.961Zm-1.312.063a2.987,2.987,0,0,0-.125-.9,1.919,1.919,0,0,0-.352-.664,1.525,1.525,0,0,0-.547-.414A1.729,1.729,0,0,0,128.5,9.9a2.272,2.272,0,0,0-1.242.352,3.143,3.143,0,0,0-.937.926,4.591,4.591,0,0,0-.59,1.3,5.46,5.46,0,0,0-.207,1.5,2.988,2.988,0,0,0,.121.879,2,2,0,0,0,.344.672,1.484,1.484,0,0,0,.547.426,1.735,1.735,0,0,0,.73.148,2.3,2.3,0,0,0,1.25-.348,3.1,3.1,0,0,0,.938-.922,4.506,4.506,0,0,0,.586-1.309A5.6,5.6,0,0,0,130.246,12.023Zm8.32-.828V10.148h7.344V11.2Zm0,3.328V13.477h7.344v1.047ZM159,8.281a1.517,1.517,0,0,0-.449-1.168A1.759,1.759,0,0,0,157.3,6.7a3.923,3.923,0,0,0-1.523.32,4.92,4.92,0,0,0-1.43.93l.32-1.437a4.15,4.15,0,0,1,1.355-.7,5.811,5.811,0,0,1,1.59-.2,2.888,2.888,0,0,1,1.992.66,2.26,2.26,0,0,1,.742,1.777,4.059,4.059,0,0,1-.324,1.676,4.455,4.455,0,0,1-1.035,1.395,13.8,13.8,0,0,1-2.078,1.531q-1.242.773-1.887,1.273a5.032,5.032,0,0,0-.957.922,2.657,2.657,0,0,0-.445,1.008h5.531L158.91,17H152l.117-.555a5.4,5.4,0,0,1,.605-1.625,5.57,5.57,0,0,1,1.129-1.32,19.256,19.256,0,0,1,2.242-1.609,13.31,13.31,0,0,0,1.723-1.25,4.048,4.048,0,0,0,.9-1.086A2.688,2.688,0,0,0,159,8.281Zm1.953,10.781h-1.008l1.57-3.836h1.281Zm11.3-10.945a3.281,3.281,0,0,1-.172,1.066,2.6,2.6,0,0,1-.539.91,3.244,3.244,0,0,1-.937.7,4.821,4.821,0,0,1-1.359.434v.031a2.607,2.607,0,0,1,.859.281,2.319,2.319,0,0,1,1.1,1.266,2.582,2.582,0,0,1,.152.9,3.527,3.527,0,0,1-.258,1.344,3.015,3.015,0,0,1-.785,1.109,3.872,3.872,0,0,1-1.32.758,5.576,5.576,0,0,1-1.863.281,6.015,6.015,0,0,1-.844-.059,7.784,7.784,0,0,1-.777-.148,6.172,6.172,0,0,1-.668-.2,4.266,4.266,0,0,1-.523-.23l.273-1.219a4.154,4.154,0,0,0,.5.281,4.637,4.637,0,0,0,.633.246,5.908,5.908,0,0,0,.711.172,4.184,4.184,0,0,0,.738.066,4.1,4.1,0,0,0,1.375-.2,2.459,2.459,0,0,0,.891-.523,1.836,1.836,0,0,0,.477-.742,2.666,2.666,0,0,0,.141-.855,1.777,1.777,0,0,0-.687-1.473,3.319,3.319,0,0,0-2.078-.543h-.852l.242-1.1h.93a5.638,5.638,0,0,0,1.434-.164,3.181,3.181,0,0,0,1.043-.465,1.979,1.979,0,0,0,.637-.73,2.119,2.119,0,0,0,.215-.961,1.848,1.848,0,0,0-.109-.637,1.369,1.369,0,0,0-.34-.523,1.685,1.685,0,0,0-.578-.355,2.333,2.333,0,0,0-.832-.133,4.781,4.781,0,0,0-.762.059,5.62,5.62,0,0,0-.684.152,5.346,5.346,0,0,0-1.078.445l.266-1.281q.2-.078.453-.16a5.634,5.634,0,0,1,.555-.148q.3-.066.672-.109a6.952,6.952,0,0,1,.8-.043,3.668,3.668,0,0,1,1.344.219,2.675,2.675,0,0,1,.914.574,2.171,2.171,0,0,1,.523.8A2.635,2.635,0,0,1,172.246,8.117ZM176.254,17l2.086-9.758-2.766.75.273-1.234,4.109-1.148L177.551,17Zm21.859-3.344a3.886,3.886,0,0,1-.219,1.285,3.741,3.741,0,0,1-.613,1.121,3.081,3.081,0,0,1-.953.793,2.57,2.57,0,0,1-1.238.3,2.411,2.411,0,0,1-1.121-.23,1.985,1.985,0,0,1-1.055-1.324,3.253,3.253,0,0,1-.1-.758,3.829,3.829,0,0,1,.84-2.371,3.15,3.15,0,0,1,.973-.8,2.676,2.676,0,0,1,1.281-.3,2.564,2.564,0,0,1,.906.152,1.9,1.9,0,0,1,.7.445,1.977,1.977,0,0,1,.445.719A2.812,2.812,0,0,1,198.113,13.656ZM188.324,17h-1.156l9.6-11.2h1.156Zm3.984-9.07a3.886,3.886,0,0,1-.219,1.285,3.694,3.694,0,0,1-.617,1.121,3.142,3.142,0,0,1-.953.793,2.547,2.547,0,0,1-1.234.3,2.763,2.763,0,0,1-.8-.105,2.017,2.017,0,0,1-.6-.289,1.838,1.838,0,0,1-.422-.418,2.151,2.151,0,0,1-.266-.492,2.7,2.7,0,0,1-.141-.52,3.068,3.068,0,0,1-.043-.5,3.68,3.68,0,0,1,.1-.84,3.843,3.843,0,0,1,.285-.8,3.692,3.692,0,0,1,.457-.719,3.2,3.2,0,0,1,.609-.578,2.826,2.826,0,0,1,.754-.387,2.727,2.727,0,0,1,.883-.141,2.564,2.564,0,0,1,.906.152,1.9,1.9,0,0,1,.7.445,2.02,2.02,0,0,1,.449.719A2.75,2.75,0,0,1,192.309,7.93Zm4.75,5.758a2.33,2.33,0,0,0-.062-.543,1.365,1.365,0,0,0-.2-.465,1.028,1.028,0,0,0-.367-.324,1.146,1.146,0,0,0-.547-.121,1.482,1.482,0,0,0-.848.25,2.289,2.289,0,0,0-.629.637,3.03,3.03,0,0,0-.391.848,3.212,3.212,0,0,0-.133.891,2.054,2.054,0,0,0,.07.535,1.348,1.348,0,0,0,.219.461,1.1,1.1,0,0,0,.383.32,1.231,1.231,0,0,0,.57.121,1.463,1.463,0,0,0,.793-.223,2.1,2.1,0,0,0,.609-.586,2.89,2.89,0,0,0,.395-.832A3.353,3.353,0,0,0,197.059,13.688Zm-5.8-5.727a2.33,2.33,0,0,0-.062-.543,1.365,1.365,0,0,0-.2-.465,1.028,1.028,0,0,0-.367-.324,1.164,1.164,0,0,0-.555-.121,1.482,1.482,0,0,0-.848.25,2.309,2.309,0,0,0-.629.633,2.964,2.964,0,0,0-.391.848,3.228,3.228,0,0,0-.133.887,2.01,2.01,0,0,0,.07.531,1.4,1.4,0,0,0,.219.461,1.107,1.107,0,0,0,.387.328,1.222,1.222,0,0,0,.574.125,1.45,1.45,0,0,0,.785-.223,2.147,2.147,0,0,0,.613-.586,2.831,2.831,0,0,0,.4-.832A3.353,3.353,0,0,0,191.254,7.961Z" transform="translate(0 63)" fill="#12263f"/>
        <path id="Trazado_908119" data-name="Trazado 908119" d="M27.324,7.367q-.164-.094-.383-.191t-.473-.184q-.254-.086-.523-.148a3.9,3.9,0,0,0-.527-.086l-.93,4.32q.414.3.8.625a5.323,5.323,0,0,1,.691.676,3.245,3.245,0,0,1,.484.762,2.118,2.118,0,0,1,.184.883,3.448,3.448,0,0,1-.172,1.059,2.637,2.637,0,0,1-.574.977,3.174,3.174,0,0,1-1.062.738,4.312,4.312,0,0,1-1.629.328l-.336,1.508h-.8l.32-1.523a5.562,5.562,0,0,1-.687-.078q-.359-.062-.687-.148T20.41,16.7a3.5,3.5,0,0,1-.461-.191l.219-1.266a4.014,4.014,0,0,0,.512.273,6.423,6.423,0,0,0,.621.242q.328.109.664.188a5.158,5.158,0,0,0,.641.109l.891-4.141q-.477-.344-.883-.676a4.568,4.568,0,0,1-.7-.7,2.961,2.961,0,0,1-.457-.816,2.9,2.9,0,0,1-.164-1.008,2.811,2.811,0,0,1,.254-1.191,2.859,2.859,0,0,1,.715-.957,3.456,3.456,0,0,1,1.113-.645,4.323,4.323,0,0,1,1.449-.246l.273-1.3h.82L25.629,5.7a5.513,5.513,0,0,1,1.055.18,7,7,0,0,1,.867.289ZM24.59,6.742a2.4,2.4,0,0,0-.863.2,1.956,1.956,0,0,0-.621.441,1.813,1.813,0,0,0-.375.605,1.957,1.957,0,0,0-.125.688,1.743,1.743,0,0,0,.086.555,1.917,1.917,0,0,0,.242.484,2.708,2.708,0,0,0,.371.43,6.035,6.035,0,0,0,.48.406Zm.75,7.406a1.492,1.492,0,0,0-.062-.434,1.654,1.654,0,0,0-.2-.414,2.471,2.471,0,0,0-.352-.422,6.057,6.057,0,0,0-.531-.457l-.75,3.633a2.347,2.347,0,0,0,.863-.215A1.877,1.877,0,0,0,24.9,15.4a1.652,1.652,0,0,0,.336-.586A2.146,2.146,0,0,0,25.34,14.148Zm15.281-7.18H36.41l-.687,3.266.828-.031a3.568,3.568,0,0,1,2.438.77,2.735,2.735,0,0,1,.875,2.168,4.074,4.074,0,0,1-.57,2.133,3.629,3.629,0,0,1-1.582,1.438,5.4,5.4,0,0,1-2.355.484,8.377,8.377,0,0,1-1.387-.117,4.335,4.335,0,0,1-1.1-.3l.289-1.258a3.418,3.418,0,0,0,1.031.422,5.058,5.058,0,0,0,1.258.164,3.605,3.605,0,0,0,1.672-.355,2.581,2.581,0,0,0,1.059-.977,2.681,2.681,0,0,0,.371-1.4,1.977,1.977,0,0,0-.562-1.527,2.581,2.581,0,0,0-1.789-.52q-1.086,0-1.945.078l1.18-5.6h5.422Zm8.625,0H45.035l-.687,3.266.828-.031a3.568,3.568,0,0,1,2.438.77,2.735,2.735,0,0,1,.875,2.168,4.074,4.074,0,0,1-.57,2.133,3.629,3.629,0,0,1-1.582,1.438,5.4,5.4,0,0,1-2.355.484,8.377,8.377,0,0,1-1.387-.117,4.335,4.335,0,0,1-1.1-.3l.289-1.258a3.418,3.418,0,0,0,1.031.422,5.058,5.058,0,0,0,1.258.164,3.605,3.605,0,0,0,1.672-.355A2.581,2.581,0,0,0,46.8,14.77a2.681,2.681,0,0,0,.371-1.4,1.977,1.977,0,0,0-.562-1.527,2.581,2.581,0,0,0-1.789-.52q-1.086,0-1.945.078l1.18-5.6H49.48Zm8.977,1.953q0,.586-.055,1.223T58,11.43a12.946,12.946,0,0,1-.3,1.285,10.137,10.137,0,0,1-.441,1.23,8.317,8.317,0,0,1-.59,1.121,5.918,5.918,0,0,1-.746.957,3.614,3.614,0,0,1-2.7,1.172,2.709,2.709,0,0,1-1.16-.246,2.479,2.479,0,0,1-.9-.719,3.438,3.438,0,0,1-.582-1.164,5.551,5.551,0,0,1-.207-1.59,11.938,11.938,0,0,1,.141-1.793,11.1,11.1,0,0,1,.43-1.8,9.769,9.769,0,0,1,.719-1.66,6.191,6.191,0,0,1,1.016-1.375,4.129,4.129,0,0,1,1.242-.91,3.6,3.6,0,0,1,1.555-.324A2.927,2.927,0,0,1,56.6,5.82a2.318,2.318,0,0,1,.871.629,2.879,2.879,0,0,1,.559,1.035A4.775,4.775,0,0,1,58.223,8.922Zm-1.3.109a3.111,3.111,0,0,0-.406-1.715A1.323,1.323,0,0,0,55.34,6.7a1.944,1.944,0,0,0-.867.2,2.953,2.953,0,0,0-.8.6,4.512,4.512,0,0,0-.574.762,7.791,7.791,0,0,0-.492.953,10.053,10.053,0,0,0-.395,1.074q-.172.563-.293,1.125t-.184,1.1a8.781,8.781,0,0,0-.062,1.008,4.622,4.622,0,0,0,.129,1.168,2.446,2.446,0,0,0,.355.8,1.412,1.412,0,0,0,.535.465,1.5,1.5,0,0,0,.66.148,1.958,1.958,0,0,0,.828-.187,2.451,2.451,0,0,0,.758-.562,5.036,5.036,0,0,0,.773-1.152,10.287,10.287,0,0,0,.629-1.559,13.046,13.046,0,0,0,.426-1.785A11.042,11.042,0,0,0,56.926,9.031Zm3.25,7.281a.854.854,0,0,1-.25.609.9.9,0,0,1-.277.188.836.836,0,0,1-.34.07.809.809,0,0,1-.336-.07.912.912,0,0,1-.273-.187.854.854,0,0,1-.25-.609.878.878,0,0,1,.066-.34A.845.845,0,0,1,58.7,15.7a.854.854,0,0,1,.609-.25.878.878,0,0,1,.34.066.834.834,0,0,1,.461.461A.878.878,0,0,1,60.176,16.313ZM70.332,8.922q0,.586-.055,1.223t-.172,1.285a12.945,12.945,0,0,1-.3,1.285,10.138,10.138,0,0,1-.441,1.23,8.318,8.318,0,0,1-.59,1.121,5.918,5.918,0,0,1-.746.957,3.614,3.614,0,0,1-2.7,1.172,2.709,2.709,0,0,1-1.16-.246,2.479,2.479,0,0,1-.9-.719,3.438,3.438,0,0,1-.582-1.164,5.551,5.551,0,0,1-.207-1.59,11.938,11.938,0,0,1,.141-1.793,11.1,11.1,0,0,1,.43-1.8,9.769,9.769,0,0,1,.719-1.66,6.191,6.191,0,0,1,1.016-1.375,4.129,4.129,0,0,1,1.242-.91,3.6,3.6,0,0,1,1.555-.324,2.927,2.927,0,0,1,1.133.211,2.318,2.318,0,0,1,.871.629,2.879,2.879,0,0,1,.559,1.035A4.774,4.774,0,0,1,70.332,8.922Zm-1.3.109a3.111,3.111,0,0,0-.406-1.715,1.323,1.323,0,0,0-1.18-.621,1.944,1.944,0,0,0-.867.2,2.953,2.953,0,0,0-.8.6,4.512,4.512,0,0,0-.574.762,7.791,7.791,0,0,0-.492.953,10.054,10.054,0,0,0-.395,1.074q-.172.563-.293,1.125t-.184,1.1a8.781,8.781,0,0,0-.062,1.008,4.622,4.622,0,0,0,.129,1.168,2.446,2.446,0,0,0,.355.8,1.412,1.412,0,0,0,.535.465,1.5,1.5,0,0,0,.66.148,1.958,1.958,0,0,0,.828-.187,2.451,2.451,0,0,0,.758-.562,5.037,5.037,0,0,0,.773-1.152,10.287,10.287,0,0,0,.629-1.559,13.045,13.045,0,0,0,.426-1.785A11.043,11.043,0,0,0,69.035,9.031Zm9.922-.109q0,.586-.055,1.223T78.73,11.43a12.945,12.945,0,0,1-.3,1.285,10.138,10.138,0,0,1-.441,1.23,8.318,8.318,0,0,1-.59,1.121,5.918,5.918,0,0,1-.746.957,3.614,3.614,0,0,1-2.7,1.172,2.709,2.709,0,0,1-1.16-.246,2.479,2.479,0,0,1-.9-.719,3.438,3.438,0,0,1-.582-1.164,5.551,5.551,0,0,1-.207-1.59,11.938,11.938,0,0,1,.141-1.793,11.1,11.1,0,0,1,.43-1.8,9.769,9.769,0,0,1,.719-1.66A6.191,6.191,0,0,1,73.4,6.844a4.129,4.129,0,0,1,1.242-.91A3.6,3.6,0,0,1,76.2,5.609a2.927,2.927,0,0,1,1.133.211,2.318,2.318,0,0,1,.871.629,2.879,2.879,0,0,1,.559,1.035A4.774,4.774,0,0,1,78.957,8.922Zm-1.3.109a3.111,3.111,0,0,0-.406-1.715,1.323,1.323,0,0,0-1.18-.621,1.944,1.944,0,0,0-.867.2,2.953,2.953,0,0,0-.8.6,4.512,4.512,0,0,0-.574.762,7.791,7.791,0,0,0-.492.953,10.054,10.054,0,0,0-.395,1.074q-.172.563-.293,1.125t-.184,1.1a8.781,8.781,0,0,0-.062,1.008,4.622,4.622,0,0,0,.129,1.168,2.446,2.446,0,0,0,.355.8,1.412,1.412,0,0,0,.535.465,1.5,1.5,0,0,0,.66.148,1.958,1.958,0,0,0,.828-.187,2.451,2.451,0,0,0,.758-.562,5.037,5.037,0,0,0,.773-1.152,10.287,10.287,0,0,0,.629-1.559,13.045,13.045,0,0,0,.426-1.785A11.043,11.043,0,0,0,77.66,9.031Zm9.922-.109q0,.586-.055,1.223t-.172,1.285a12.945,12.945,0,0,1-.3,1.285,10.138,10.138,0,0,1-.441,1.23,8.318,8.318,0,0,1-.59,1.121,5.918,5.918,0,0,1-.746.957,3.614,3.614,0,0,1-2.7,1.172,2.709,2.709,0,0,1-1.16-.246,2.479,2.479,0,0,1-.9-.719,3.438,3.438,0,0,1-.582-1.164,5.551,5.551,0,0,1-.207-1.59,11.938,11.938,0,0,1,.141-1.793,11.1,11.1,0,0,1,.43-1.8,9.769,9.769,0,0,1,.719-1.66,6.191,6.191,0,0,1,1.016-1.375,4.129,4.129,0,0,1,1.242-.91,3.6,3.6,0,0,1,1.555-.324,2.927,2.927,0,0,1,1.133.211,2.318,2.318,0,0,1,.871.629,2.879,2.879,0,0,1,.559,1.035A4.774,4.774,0,0,1,87.582,8.922Zm-1.3.109a3.111,3.111,0,0,0-.406-1.715A1.323,1.323,0,0,0,84.7,6.7a1.944,1.944,0,0,0-.867.2,2.953,2.953,0,0,0-.8.6,4.512,4.512,0,0,0-.574.762,7.791,7.791,0,0,0-.492.953,10.054,10.054,0,0,0-.395,1.074q-.172.563-.293,1.125t-.184,1.1a8.781,8.781,0,0,0-.062,1.008,4.622,4.622,0,0,0,.129,1.168,2.446,2.446,0,0,0,.355.8,1.412,1.412,0,0,0,.535.465,1.5,1.5,0,0,0,.66.148,1.958,1.958,0,0,0,.828-.187,2.451,2.451,0,0,0,.758-.562,5.037,5.037,0,0,0,.773-1.152,10.287,10.287,0,0,0,.629-1.559,13.045,13.045,0,0,0,.426-1.785A11.043,11.043,0,0,0,86.285,9.031ZM19.156,31.367q-.164-.094-.383-.191t-.473-.184q-.254-.086-.523-.148a3.9,3.9,0,0,0-.527-.086l-.93,4.32q.414.3.8.625a5.323,5.323,0,0,1,.691.676,3.245,3.245,0,0,1,.484.762,2.118,2.118,0,0,1,.184.883,3.448,3.448,0,0,1-.172,1.059,2.637,2.637,0,0,1-.574.977,3.174,3.174,0,0,1-1.062.738,4.312,4.312,0,0,1-1.629.328l-.336,1.508h-.8l.32-1.523a5.562,5.562,0,0,1-.687-.078q-.359-.063-.687-.148t-.609-.184a3.5,3.5,0,0,1-.461-.191L12,39.242a4.014,4.014,0,0,0,.512.273,6.423,6.423,0,0,0,.621.242q.328.109.664.188a5.158,5.158,0,0,0,.641.109l.891-4.141q-.477-.344-.883-.676a4.568,4.568,0,0,1-.7-.7,2.961,2.961,0,0,1-.457-.816,2.9,2.9,0,0,1-.164-1.008,2.811,2.811,0,0,1,.254-1.191,2.859,2.859,0,0,1,.715-.957,3.456,3.456,0,0,1,1.113-.645,4.323,4.323,0,0,1,1.449-.246l.273-1.3h.82L17.461,29.7a5.513,5.513,0,0,1,1.055.18,7,7,0,0,1,.867.289Zm-2.734-.625a2.4,2.4,0,0,0-.863.2,1.956,1.956,0,0,0-.621.441,1.813,1.813,0,0,0-.375.605,1.957,1.957,0,0,0-.125.688,1.743,1.743,0,0,0,.086.555,1.917,1.917,0,0,0,.242.484,2.708,2.708,0,0,0,.371.43,6.036,6.036,0,0,0,.48.406Zm.75,7.406a1.492,1.492,0,0,0-.062-.434,1.654,1.654,0,0,0-.2-.414,2.471,2.471,0,0,0-.352-.422,6.056,6.056,0,0,0-.531-.457l-.75,3.633a2.347,2.347,0,0,0,.863-.215,1.877,1.877,0,0,0,.586-.437,1.652,1.652,0,0,0,.336-.586A2.146,2.146,0,0,0,17.172,38.148ZM26.9,32.281a1.517,1.517,0,0,0-.449-1.168A1.759,1.759,0,0,0,25.2,30.7a3.922,3.922,0,0,0-1.523.32,4.92,4.92,0,0,0-1.43.93l.32-1.437a4.15,4.15,0,0,1,1.355-.7,5.811,5.811,0,0,1,1.59-.2,2.888,2.888,0,0,1,1.992.66,2.26,2.26,0,0,1,.742,1.777,4.059,4.059,0,0,1-.324,1.676,4.455,4.455,0,0,1-1.035,1.395,13.8,13.8,0,0,1-2.078,1.531q-1.242.773-1.887,1.273a5.032,5.032,0,0,0-.957.922,2.657,2.657,0,0,0-.445,1.008h5.531L26.813,41H19.9l.117-.555a5.4,5.4,0,0,1,.605-1.625A5.57,5.57,0,0,1,21.75,37.5a19.257,19.257,0,0,1,2.242-1.609,13.31,13.31,0,0,0,1.723-1.25,4.048,4.048,0,0,0,.9-1.086A2.688,2.688,0,0,0,26.9,32.281Zm9.766-.164a3.281,3.281,0,0,1-.172,1.066,2.6,2.6,0,0,1-.539.91,3.244,3.244,0,0,1-.937.7,4.822,4.822,0,0,1-1.359.434v.031a2.607,2.607,0,0,1,.859.281,2.319,2.319,0,0,1,1.1,1.266,2.582,2.582,0,0,1,.152.9,3.527,3.527,0,0,1-.258,1.344,3.015,3.015,0,0,1-.785,1.109,3.872,3.872,0,0,1-1.32.758,5.576,5.576,0,0,1-1.863.281,6.015,6.015,0,0,1-.844-.059,7.785,7.785,0,0,1-.777-.148,6.172,6.172,0,0,1-.668-.2,4.266,4.266,0,0,1-.523-.23L29,39.336a4.154,4.154,0,0,0,.5.281,4.637,4.637,0,0,0,.633.246,5.907,5.907,0,0,0,.711.172,4.184,4.184,0,0,0,.738.066,4.1,4.1,0,0,0,1.375-.2,2.459,2.459,0,0,0,.891-.523,1.836,1.836,0,0,0,.477-.742,2.665,2.665,0,0,0,.141-.855,1.777,1.777,0,0,0-.687-1.473,3.319,3.319,0,0,0-2.078-.543h-.852l.242-1.1h.93a5.638,5.638,0,0,0,1.434-.164,3.181,3.181,0,0,0,1.043-.465,1.979,1.979,0,0,0,.637-.73,2.119,2.119,0,0,0,.215-.961,1.849,1.849,0,0,0-.109-.637,1.369,1.369,0,0,0-.34-.523,1.685,1.685,0,0,0-.578-.355,2.333,2.333,0,0,0-.832-.133,4.781,4.781,0,0,0-.762.059,5.619,5.619,0,0,0-.684.152,5.346,5.346,0,0,0-1.078.445l.266-1.281q.2-.078.453-.16a5.633,5.633,0,0,1,.555-.148q.3-.066.672-.109a6.952,6.952,0,0,1,.8-.043,3.668,3.668,0,0,1,1.344.219,2.675,2.675,0,0,1,.914.574,2.171,2.171,0,0,1,.523.8A2.635,2.635,0,0,1,36.664,32.117Zm2.32,8.2a.854.854,0,0,1-.25.609.9.9,0,0,1-.277.188.836.836,0,0,1-.34.07.809.809,0,0,1-.336-.07.912.912,0,0,1-.273-.187.854.854,0,0,1-.25-.609.878.878,0,0,1,.066-.34.845.845,0,0,1,.184-.277.854.854,0,0,1,.609-.25.878.878,0,0,1,.34.066.834.834,0,0,1,.461.461A.878.878,0,0,1,38.984,40.313ZM43.617,41H42.164a26.184,26.184,0,0,1,2.363-4.766,51.919,51.919,0,0,1,3.691-5.281H42.68l.25-1.156h7.125l-.156.742a55.288,55.288,0,0,0-4,5.738A24.684,24.684,0,0,0,43.617,41Zm14.016-9.859a3.482,3.482,0,0,0-.789-.316,3.7,3.7,0,0,0-1-.129,3.229,3.229,0,0,0-1.2.227,3.742,3.742,0,0,0-1.055.641,4.336,4.336,0,0,0-.734.785,7.051,7.051,0,0,0-.605.988,8.463,8.463,0,0,0-.465,1.105,8.668,8.668,0,0,0-.3,1.137h.031A3.29,3.29,0,0,1,52,34.953a3.38,3.38,0,0,1,.645-.5,3.22,3.22,0,0,1,.773-.336,3.369,3.369,0,0,1,2.09.1,2.361,2.361,0,0,1,.875.617,2.659,2.659,0,0,1,.531.953,3.991,3.991,0,0,1,.18,1.234,4.882,4.882,0,0,1-.246,1.531,4.148,4.148,0,0,1-.727,1.34,3.646,3.646,0,0,1-1.184.949,3.487,3.487,0,0,1-1.609.359,3.444,3.444,0,0,1-1.312-.242A2.66,2.66,0,0,1,51,40.219a3.446,3.446,0,0,1-.66-1.234,5.8,5.8,0,0,1-.234-1.742,9.995,9.995,0,0,1,.191-1.965,9.442,9.442,0,0,1,.547-1.8,7.994,7.994,0,0,1,.859-1.555,5.857,5.857,0,0,1,1.137-1.207,4.953,4.953,0,0,1,1.527-.832A5.193,5.193,0,0,1,56,29.609a5.33,5.33,0,0,1,1.105.105,5.6,5.6,0,0,1,.785.215Zm-1.852,5.984a2.73,2.73,0,0,0-.113-.8,1.772,1.772,0,0,0-.348-.645,1.6,1.6,0,0,0-.6-.43,2.226,2.226,0,0,0-.875-.156,2.273,2.273,0,0,0-1.812.82,2.584,2.584,0,0,0-.461.828,2.879,2.879,0,0,0-.156.93,3.352,3.352,0,0,0,.141,1,2.271,2.271,0,0,0,.4.766,1.749,1.749,0,0,0,.629.488,1.957,1.957,0,0,0,.832.172,1.977,1.977,0,0,0,1-.254,2.366,2.366,0,0,0,.742-.668,3.117,3.117,0,0,0,.461-.953A3.848,3.848,0,0,0,55.781,37.125Zm10.242-5.008a3.281,3.281,0,0,1-.172,1.066,2.6,2.6,0,0,1-.539.91,3.243,3.243,0,0,1-.937.7,4.822,4.822,0,0,1-1.359.434v.031a2.607,2.607,0,0,1,.859.281,2.319,2.319,0,0,1,1.1,1.266,2.582,2.582,0,0,1,.152.9,3.527,3.527,0,0,1-.258,1.344,3.015,3.015,0,0,1-.785,1.109,3.872,3.872,0,0,1-1.32.758A5.576,5.576,0,0,1,60.9,41.2a6.015,6.015,0,0,1-.844-.059,7.785,7.785,0,0,1-.777-.148,6.172,6.172,0,0,1-.668-.2,4.266,4.266,0,0,1-.523-.23l.273-1.219a4.154,4.154,0,0,0,.5.281,4.637,4.637,0,0,0,.633.246,5.907,5.907,0,0,0,.711.172,4.184,4.184,0,0,0,.738.066,4.1,4.1,0,0,0,1.375-.2,2.459,2.459,0,0,0,.891-.523,1.836,1.836,0,0,0,.477-.742,2.665,2.665,0,0,0,.141-.855,1.777,1.777,0,0,0-.687-1.473,3.319,3.319,0,0,0-2.078-.543h-.852l.242-1.1h.93a5.638,5.638,0,0,0,1.434-.164,3.181,3.181,0,0,0,1.043-.465,1.979,1.979,0,0,0,.637-.73,2.119,2.119,0,0,0,.215-.961,1.849,1.849,0,0,0-.109-.637,1.369,1.369,0,0,0-.34-.523,1.685,1.685,0,0,0-.578-.355,2.333,2.333,0,0,0-.832-.133,4.781,4.781,0,0,0-.762.059,5.619,5.619,0,0,0-.684.152,5.346,5.346,0,0,0-1.078.445l.266-1.281q.2-.078.453-.16a5.634,5.634,0,0,1,.555-.148q.3-.066.672-.109a6.952,6.952,0,0,1,.8-.043,3.668,3.668,0,0,1,1.344.219,2.675,2.675,0,0,1,.914.574,2.171,2.171,0,0,1,.523.8A2.635,2.635,0,0,1,66.023,32.117Zm2.32,8.2a.854.854,0,0,1-.25.609.9.9,0,0,1-.277.188.836.836,0,0,1-.34.07.809.809,0,0,1-.336-.07.912.912,0,0,1-.273-.187.854.854,0,0,1-.25-.609.878.878,0,0,1,.066-.34.845.845,0,0,1,.184-.277.854.854,0,0,1,.609-.25.878.878,0,0,1,.34.066.834.834,0,0,1,.461.461A.878.878,0,0,1,68.344,40.313ZM78.156,29.8l-1.57,7.4h1.469l-.25,1.172H76.336L75.773,41H74.508l.563-2.633H69.813l.234-1.109a48.652,48.652,0,0,0,3.477-3.523Q75.3,31.75,76.742,29.8ZM75.32,37.2l1.141-5.367A56.664,56.664,0,0,1,71.57,37.2ZM81.6,41H80.148a26.184,26.184,0,0,1,2.363-4.766A51.919,51.919,0,0,1,86.2,30.953H80.664l.25-1.156h7.125l-.156.742a55.288,55.288,0,0,0-4,5.738A24.685,24.685,0,0,0,81.6,41Zm13.8-11.2-1.57,7.4H95.3l-.25,1.172H93.586L93.023,41H91.758l.563-2.633H87.063l.234-1.109a48.652,48.652,0,0,0,3.477-3.523q1.781-1.984,3.219-3.937ZM92.57,37.2l1.141-5.367A56.664,56.664,0,0,1,88.82,37.2Z" transform="translate(87)" fill="#12263f"/>
      </g>
      <line id="Línea_575" data-name="Línea 575" x2="110" transform="translate(83.5 21.5)" fill="none" stroke="#12263f" stroke-width="1"/>
      <text id="_" data-name="(                            )" transform="translate(80 27)" fill="#12263f" font-size="16" font-family="SegoeUI, Segoe UI"><tspan x="0" y="0" xml:space="preserve">(                            )</tspan></text>
    </g>
  </g>
</svg>
