<svg xmlns="http://www.w3.org/2000/svg" width="85" height="85" viewBox="0 0 85 85">
  <g id="Grupo_1113601" data-name="Grupo 1113601" transform="translate(-495.051 -1120)">
    <g id="Elipse_12756" data-name="Elipse 12756" transform="translate(495.051 1120)" fill="#fd9826" stroke="#fff" stroke-width="3">
      <circle cx="42.5" cy="42.5" r="42.5" stroke="none"/>
      <circle cx="42.5" cy="42.5" r="41" fill="none"/>
    </g>
    <g id="Grupo_1113600" data-name="Grupo 1113600" transform="translate(498.734 1123.684)">
      <path id="Trazado_906717" data-name="Trazado 906717" d="M80,25.521A1.521,1.521,0,0,1,81.521,24h35.746a1.521,1.521,0,0,1,1.521,1.521v25.1a1.521,1.521,0,0,1-1.521,1.521H80Z" transform="translate(-57.916 -7.239)" fill="#548aff"/>
      <path id="Trazado_906718" data-name="Trazado 906718" d="M315.408,361.887,319.971,352H308.563L304,361.887Z" transform="translate(-260.62 -304.057)" fill="#8be0e8"/>
      <path id="Trazado_906719" data-name="Trazado 906719" d="M240,456h17.493v1.521a1.521,1.521,0,0,1-1.521,1.521h-14.45A1.521,1.521,0,0,1,240,457.521Z" transform="translate(-202.705 -398.17)" fill="#548aff"/>
      <path id="Trazado_906720" data-name="Trazado 906720" d="M64,280h5.232v6.845H64Z" transform="translate(-43.437 -238.902)" fill="#ffceb6"/>
      <path id="Trazado_906721" data-name="Trazado 906721" d="M99.8,240v5.992a1.613,1.613,0,0,1-2.754,1.141L96,246.084V240Z" transform="translate(-72.395 -202.705)" fill="#ffceb6"/>
      <path id="Trazado_906722" data-name="Trazado 906722" d="M42.282,224.366l-1.772-2.954A3.573,3.573,0,0,1,40,219.573h0A3.573,3.573,0,0,1,43.573,216h5.553a1.521,1.521,0,1,1,0,3.042H46.845l-1.521,2.282v3.042Z" transform="translate(-21.718 -180.986)" fill="#c47220"/>
      <path id="Trazado_906723" data-name="Trazado 906723" d="M47.577,348.929H41.326a3.042,3.042,0,0,1-2.261-1.007l-2.9-3.218v6.507H24V340.563A4.563,4.563,0,0,1,28.563,336h5.083a5.324,5.324,0,0,1,4.12,1.953l5.247,6.413h4.563Z" transform="translate(-7.239 -289.578)" fill="#ffb401"/>
      <path id="Trazado_906724" data-name="Trazado 906724" d="M272,421.324v-4.563h1.521l3.042-.761,3.389,2.034a.852.852,0,0,1-.605,1.565l-2.784-.557-2.637,1.977a1.521,1.521,0,0,1-.913.3Z" transform="translate(-231.663 -361.973)" fill="#ffceb6"/>
      <path id="Trazado_906725" data-name="Trazado 906725" d="M342.845,459.042h-5.324A1.521,1.521,0,0,1,336,457.521V456h8.366v1.521A1.521,1.521,0,0,1,342.845,459.042Z" transform="translate(-289.578 -398.17)" fill="#4367e0"/>
      <path id="Trazado_906726" data-name="Trazado 906726" d="M192,248h4.563v3.8H192Z" transform="translate(-159.268 -209.944)" fill="#ffa100"/>
      <path id="Trazado_906727" data-name="Trazado 906727" d="M240,216h4.563v6.845H240Z" transform="translate(-202.705 -180.986)" fill="#ffb401"/>
      <path id="Trazado_906728" data-name="Trazado 906728" d="M288,176h4.563v10.648H288Z" transform="translate(-246.141 -144.789)" fill="#ffc431"/>
      <path id="Trazado_906729" data-name="Trazado 906729" d="M336,136h4.563v14.45H336Z" transform="translate(-289.578 -108.592)" fill="#ffcc4d"/>
      <path id="Trazado_906730" data-name="Trazado 906730" d="M384,104h4.563v17.493H384Z" transform="translate(-333.015 -79.634)" fill="#ffd873"/>
      <g id="Grupo_1113599" data-name="Grupo 1113599" transform="translate(32.359 19.444)">
        <circle id="Elipse_12760" data-name="Elipse 12760" cx="1.5" cy="1.5" r="1.5" transform="translate(-0.043 10.872)" fill="#c5dafa"/>
        <circle id="Elipse_12761" data-name="Elipse 12761" cx="1.5" cy="1.5" r="1.5" transform="translate(6.957 5.872)" fill="#c5dafa"/>
        <ellipse id="Elipse_12762" data-name="Elipse 12762" cx="1.5" cy="2" rx="1.5" ry="2" transform="translate(13.957 -0.128)" fill="#c5dafa"/>
      </g>
      <path id="Trazado_906731" data-name="Trazado 906731" d="M59.351,220.929H47.943a.761.761,0,0,0-.691.442l-2.625,5.688-2.862.716h-5.63l-5.019-6.134a6.059,6.059,0,0,0-4.56-2.227v-.13a2.378,2.378,0,0,0,1.613-2.248v-4.6A2.281,2.281,0,0,0,27.408,208H21.855a4.334,4.334,0,0,0-3.716,6.564l1.664,2.773v2.294a5.333,5.333,0,0,0-3.8,5.1V235.38h1.521V224.732a3.807,3.807,0,0,1,3.8-3.8h5.083a4.546,4.546,0,0,1,3.532,1.674l5.247,6.413a.761.761,0,0,0,.589.279h3.8v3.042h-5.49a2.285,2.285,0,0,1-1.7-.755l-5.939-6.6L25.322,226l2.847,3.163v6.215H29.69v-4.525L31.26,232.6a3.808,3.808,0,0,0,2.827,1.259h2.579a2.285,2.285,0,0,0,2.151,1.521h14.45a2.284,2.284,0,0,0,2.282-2.282v-1.354l4.493-9.735a.761.761,0,0,0-.691-1.079Zm-33.556-3.042a.847.847,0,0,1-.6-.25l-.826-.826v-2.5l1.168-1.751h1.114v4.471A.854.854,0,0,1,25.795,217.887Zm-6.753-5.553a2.816,2.816,0,0,1,2.813-2.813h5.553a.761.761,0,0,1,0,1.521H25.127a.76.76,0,0,0-.633.339l-1.521,2.282a.76.76,0,0,0-.128.422v2.282H20.994l-1.551-2.585a2.814,2.814,0,0,1-.4-1.447Zm2.282,5.553H23.29l.826.826a2.364,2.364,0,0,0,.918.571v.125h-3.71ZM41.1,229.3h.761a.758.758,0,0,0,.185-.023l2.736-.684L47.9,230.46a.091.091,0,0,1-.065.167l-2.784-.557a.761.761,0,0,0-.605.137l-2.637,1.977a.765.765,0,0,1-.456.152H41.1Zm1.622,4.107,1.42-1.065h1.521v.761a2.27,2.27,0,0,0,.131.761H41.352A2.3,2.3,0,0,0,42.721,233.4Zm11.307-.3a.761.761,0,0,1-.761.761H47.943a.761.761,0,0,1-.761-.761v-.761h6.845Zm.274-2.282H49.438a1.593,1.593,0,0,0-.756-1.661l-2.621-1.572,2.369-5.133h9.733Z" transform="translate(0 -173.747)"/>
      <path id="Trazado_906732" data-name="Trazado 906732" d="M110.027,16H74.282A2.284,2.284,0,0,0,72,18.282v14.45h1.521V18.282a.761.761,0,0,1,.761-.761h35.746a.761.761,0,0,1,.761.761v25.1a.761.761,0,0,1-.761.761H80.366v1.521h29.661a2.284,2.284,0,0,0,2.282-2.282v-25.1A2.284,2.284,0,0,0,110.027,16Z" transform="translate(-50.676)"/>
      <ellipse id="Elipse_12763" data-name="Elipse 12763" cx="1" cy="0.5" rx="1" ry="0.5" transform="translate(23.316 18.317)"/>
      <ellipse id="Elipse_12764" data-name="Elipse 12764" cx="1" cy="0.5" rx="1" ry="0.5" transform="translate(25.316 18.317)"/>
      <circle id="Elipse_12765" data-name="Elipse 12765" cx="0.5" cy="0.5" r="0.5" transform="translate(28.316 18.317)"/>
      <path id="Trazado_906733" data-name="Trazado 906733" d="M193.1,96h-4.563a.761.761,0,0,0-.761.761v2.282h-3.8a.761.761,0,0,0-.761.761v3.042h-3.8a.761.761,0,0,0-.761.761v3.042h-3.8a.761.761,0,0,0-.761.761v2.282h-3.8a.761.761,0,0,0-.761.761v3.042H168v1.521h27.38v-1.521h-1.521V96.761A.761.761,0,0,0,193.1,96Zm-22.056,15.211h3.042v2.282h-3.042Zm4.563-3.042h3.042v5.324h-3.042Zm4.563-3.8h3.042v9.127h-3.042Zm4.563-3.8h3.042v12.929h-3.042Zm7.605,12.929H189.3V97.521h3.042Z" transform="translate(-137.55 -72.395)"/>
      <path id="Trazado_906734" data-name="Trazado 906734" d="M144,61.684h3.173a2.281,2.281,0,0,0,4.334-1.424l3.955-2.915a2.281,2.281,0,0,0,3.57-2.631l3.462-2.551a2.28,2.28,0,0,0,3.431-1.127h4.694V49.515h-4.694a2.281,2.281,0,0,0-4.334,1.424L158,53.585a2.28,2.28,0,0,0-3.312,2.44l-4.084,3.01a2.28,2.28,0,0,0-3.431,1.127H144Zm19.774-12.169a.761.761,0,1,1-.761.761A.761.761,0,0,1,163.774,49.515Zm-6.845,5.324a.761.761,0,1,1-.761.761A.761.761,0,0,1,156.929,54.839Zm-7.605,5.324a.761.761,0,1,1-.761.761A.761.761,0,0,1,149.324,60.163Z" transform="translate(-115.831 -28.952)"/>
      <path id="Trazado_906735" data-name="Trazado 906735" d="M440,64h1.521v1.521H440Z" transform="translate(-383.691 -43.437)"/>
      <path id="Trazado_906736" data-name="Trazado 906736" d="M112,176h1.521v1.521H112Z" transform="translate(-86.873 -144.789)"/>
    </g>
  </g>
</svg>
