<svg xmlns="http://www.w3.org/2000/svg" width="85" height="85" viewBox="0 0 85 85">
  <g id="Grupo_1113603" data-name="Grupo 1113603" transform="translate(-810.051 -1120)">
    <g id="Elipse_12757" data-name="Elipse 12757" transform="translate(810.051 1120)" fill="#fd9826" stroke="#fff" stroke-width="3">
      <circle cx="42.5" cy="42.5" r="42.5" stroke="none"/>
      <circle cx="42.5" cy="42.5" r="41" fill="none"/>
    </g>
    <g id="Grupo_1113602" data-name="Grupo 1113602" transform="translate(813.051 1123)">
      <path id="Trazado_906737" data-name="Trazado 906737" d="M72,165.536h1.582l1.582-2.372h1.582L78.327,160H72Z" transform="translate(-50.464 -129.765)" fill="#ffb0a1"/>
      <path id="Trazado_906738" data-name="Trazado 906738" d="M51.954,152v2.372l-1.582,1.582h-.791A1.582,1.582,0,0,1,48,154.372V152Z" transform="translate(-28.837 -122.556)" fill="#ff9178"/>
      <path id="Trazado_906739" data-name="Trazado 906739" d="M39.026,272h3.8a5.536,5.536,0,0,1,4.183,1.91l9.416,10.865v5.414H54.051L43.771,278.327v6.327h2.372v5.536H43.771v3.954H24V277.592A5.592,5.592,0,0,1,29.592,272h4.689" transform="translate(-7.209 -230.694)" fill="#548aff"/>
      <path id="Trazado_906740" data-name="Trazado 906740" d="M132.745,232v4.745a2.333,2.333,0,0,1-.136.791,2.372,2.372,0,0,1-4.609-.791V232Z" transform="translate(-100.929 -194.648)" fill="#ffceb6"/>
      <path id="Trazado_906741" data-name="Trazado 906741" d="M128,202.372v1.582a3.163,3.163,0,0,0,6.327,0V200h-3.954Z" transform="translate(-100.929 -165.811)" fill="#ffceb6"/>
      <path id="Trazado_906742" data-name="Trazado 906742" d="M155.954,171.163l.771-.386a1.466,1.466,0,0,0-.656-2.778h-.906L152,171.163Z" transform="translate(-122.556 -136.974)" fill="#c47220"/>
      <path id="Trazado_906743" data-name="Trazado 906743" d="M248,400h3.666a5.536,5.536,0,0,1,4.323,2.078l1.245,1.556a1.171,1.171,0,0,1-.914,1.9h-.02a1.171,1.171,0,0,1-.7-.234l-2.851-2.138-3.163,2.372H248Z" transform="translate(-209.066 -346.041)" fill="#ffceb6"/>
      <path id="Trazado_906744" data-name="Trazado 906744" d="M200,456h14.235v3.163H201.582A1.582,1.582,0,0,1,200,457.582Z" transform="translate(-165.811 -396.505)" fill="#ffa100"/>
      <path id="Trazado_906745" data-name="Trazado 906745" d="M344,344h14.235v14.235H344Z" transform="translate(-295.576 -295.576)" fill="#ffc431"/>
      <circle id="Elipse_12766" data-name="Elipse 12766" cx="1.5" cy="1.5" r="1.5" transform="translate(54 54)" fill="#ffd873"/>
      <path id="Trazado_906746" data-name="Trazado 906746" d="M51.862,92.745v.791a1.582,1.582,0,0,1-1.582,1.582h-8.7A1.582,1.582,0,0,1,40,93.536v-.791A4.745,4.745,0,0,1,44.745,88h2.372A4.745,4.745,0,0,1,51.862,92.745Z" transform="translate(-21.628 -64.883)" fill="#ef5e3b"/>
      <rect id="Rectángulo_406530" data-name="Rectángulo 406530" width="22" height="24" rx="11" transform="translate(41 17)" fill="#ffc431"/>
      <path id="Trazado_906747" data-name="Trazado 906747" d="M328,96h11.071v3.163H328Z" transform="translate(-281.158 -72.092)" fill="#08d175"/>
      <path id="Trazado_906748" data-name="Trazado 906748" d="M328,128h8.7v3.163H328Z" transform="translate(-281.158 -100.929)" fill="#3cde8d"/>
      <path id="Trazado_906749" data-name="Trazado 906749" d="M328,64h6.327v3.163H328Z" transform="translate(-281.158 -43.255)" fill="#02c26a"/>
      <path id="Trazado_906750" data-name="Trazado 906750" d="M62.658,177.4H48.424a.791.791,0,0,0-.791.791v2.625l-7.237-8.35a6.323,6.323,0,0,0-4.781-2.183H33.4a3.933,3.933,0,0,0,.793-2.372v-3.465l.334-.167A2.257,2.257,0,0,0,33.513,160h-.906a.791.791,0,0,0-.559.232l-5.536,5.536a.791.791,0,0,0-.232.559v3.954h-3.9A6.39,6.39,0,0,0,16,176.663v16.551h1.582V180.867c.093.105.188.209.288.31l7.021,7.021a6.285,6.285,0,0,0,4.474,1.853H33.4v.791a2.375,2.375,0,0,0,2.372,2.372H62.658a.791.791,0,0,0,.791-.791V178.189a.791.791,0,0,0-.791-.791ZM47,188.394l-2.851-2.138a.791.791,0,0,0-.949,0l-2.952,2.214h-.527v-3.954H42.6A4.721,4.721,0,0,1,46.3,186.3l1.245,1.556a.38.38,0,0,1-.3.617h-.02a.382.382,0,0,1-.228-.076Zm-2.535.076H42.888l.791-.593Zm-7.117-5.536V179.5l3,3.431Zm-9.49-11.864a3.951,3.951,0,0,0,3.163.713v.08a1.582,1.582,0,0,1-3.163,0Zm5.072-9.488h.579a.675.675,0,0,1,.3,1.28l-.6.3H31.353Zm-5.072,5.073,1.909-1.909h2.836v3.163a2.372,2.372,0,1,1-4.745,0ZM26.009,187.08l-7.021-7.021a4.8,4.8,0,0,1,3.395-8.2h3.9a3.163,3.163,0,0,0,6.327,0h3.008A4.742,4.742,0,0,1,39.2,173.5l8.432,9.729v2.2l-.093-.116a6.3,6.3,0,0,0-4.94-2.374h-.144l-5.3-6.057a.791.791,0,0,0-1.386.521v5.536H30.562l-5.3-5.3-1.118,1.118,5.536,5.536a.791.791,0,0,0,.559.232h7.908v3.954H29.364a4.714,4.714,0,0,1-3.355-1.39Zm8.97,3.762v-.791H47.633v1.582H35.771A.792.792,0,0,1,34.98,190.842Zm26.888.791H49.214V178.98H61.868Z" transform="translate(0 -129.765)"/>
      <path id="Trazado_906751" data-name="Trazado 906751" d="M394.372,396.745A2.372,2.372,0,1,0,392,394.372,2.372,2.372,0,0,0,394.372,396.745Zm0-3.163a.791.791,0,1,1-.791.791.791.791,0,0,1,.791-.791Z" transform="translate(-338.831 -338.831)"/>
      <path id="Trazado_906752" data-name="Trazado 906752" d="M75.5,16H57.306a2.375,2.375,0,0,0-2.372,2.372v1.582H48.607a.791.791,0,0,0-.559.232l-4,4a5.523,5.523,0,0,0-4.137-1.862H37.536A5.542,5.542,0,0,0,32,27.862v.791a2.367,2.367,0,0,0,.791,1.766v1.4a2.375,2.375,0,0,0,2.372,2.372v1.582a.791.791,0,0,0,.791.791h1.582a.791.791,0,0,0,.658-.352l1.347-2.02H40.7a.791.791,0,0,0,.707-.437l1.363-2.726h.3a2.375,2.375,0,0,0,2.372-2.372v-.791a5.5,5.5,0,0,0-.513-2.323l4-4h6v17.4a2.375,2.375,0,0,0,2.372,2.372H75.5a2.375,2.375,0,0,0,2.372-2.372V18.372A2.375,2.375,0,0,0,75.5,16ZM34.372,31.816v-.791h2.372v.463l-1.118,1.118h-.463A.792.792,0,0,1,34.372,31.816Zm5.838.791H39.117a.791.791,0,0,0-.658.352l-1.347,2.02h-.368V33.726l1.35-1.35a.791.791,0,0,0,.232-.559v-.791H41Zm3.652-3.954a.792.792,0,0,1-.791.791H39.606l.791-1.582h1.884V26.281H40.236l-1.35-1.35-1.118,1.118,1.179,1.179-1.108,2.216H34.372a.792.792,0,0,1-.791-.791v-.791a3.957,3.957,0,0,1,.08-.791h1.175l1.35,1.35L37.3,27.3l-1.582-1.582a.791.791,0,0,0-.559-.232h-.789a3.95,3.95,0,0,1,3.161-1.582h2.372a3.959,3.959,0,0,1,3.954,3.954ZM76.286,38.934a.792.792,0,0,1-.791.791H57.306a.792.792,0,0,1-.791-.791V18.372a.792.792,0,0,1,.791-.791H75.5a.792.792,0,0,1,.791.791Z" transform="translate(-14.418)"/>
      <path id="Trazado_906753" data-name="Trazado 906753" d="M296,72h1.582v1.582H296Z" transform="translate(-252.321 -50.464)"/>
      <path id="Trazado_906754" data-name="Trazado 906754" d="M296,104h1.582v1.582H296Z" transform="translate(-252.321 -79.301)"/>
      <path id="Trazado_906755" data-name="Trazado 906755" d="M296,136h1.582v1.582H296Z" transform="translate(-252.321 -108.138)"/>
      <path id="Trazado_906756" data-name="Trazado 906756" d="M320.791,67.071h8.7a.791.791,0,0,0,.791-.791V63.908h1.582a.791.791,0,0,0,.791-.791V59.954a.791.791,0,0,0-.791-.791h-3.954V56.791a.791.791,0,0,0-.791-.791h-6.327a.791.791,0,0,0-.791.791v9.49A.791.791,0,0,0,320.791,67.071ZM328.7,65.49h-7.117V63.908H328.7Zm2.372-3.163h-9.49V60.745h9.49Zm-9.49-4.745h4.745v1.582h-4.745Z" transform="translate(-273.949 -36.046)"/>
      <path id="Trazado_906757" data-name="Trazado 906757" d="M328,184h2.372v1.582H328Z" transform="translate(-281.158 -151.393)"/>
      <path id="Trazado_906758" data-name="Trazado 906758" d="M368,184h8.7v1.582H368Z" transform="translate(-317.204 -151.393)"/>
      <path id="Trazado_906759" data-name="Trazado 906759" d="M304,216h8.7v1.582H304Z" transform="translate(-259.53 -180.229)"/>
      <path id="Trazado_906760" data-name="Trazado 906760" d="M408,216h4.745v1.582H408Z" transform="translate(-353.25 -180.229)"/>
    </g>
  </g>
</svg>
