<svg xmlns="http://www.w3.org/2000/svg" xmlns:xlink="http://www.w3.org/1999/xlink" width="113" height="113" viewBox="0 0 113 113">
  <defs>
    <filter id="Trazado_906464" x="0" y="0" width="113" height="113" filterUnits="userSpaceOnUse">
      <feOffset dy="3" input="SourceAlpha"/>
      <feGaussianBlur stdDeviation="3" result="blur"/>
      <feFlood flood-opacity="0.161"/>
      <feComposite operator="in" in2="blur"/>
      <feComposite in="SourceGraphic"/>
    </filter>
  </defs>
  <g id="Grupo_1114415" data-name="Grupo 1114415" transform="translate(-1216.051 -3847)">
    <g transform="matrix(1, 0, 0, 1, 1216.05, 3847)" filter="url(#Trazado_906464)">
      <g id="Trazado_906464-2" data-name="Trazado 906464" transform="translate(9 6)" fill="#f3f0ea">
        <path d="M 47.49993515014648 93.5 C 41.28932189941406 93.5 35.26528167724609 92.28397369384766 29.59514808654785 89.88571929931641 C 24.1176815032959 87.56894683837891 19.1981086730957 84.25197601318359 14.97306823730469 80.02693176269531 C 10.74802875518799 75.80189514160156 7.431055068969727 70.88231658935547 5.11428165435791 65.40485382080078 C 2.716028451919556 59.73471832275391 1.500001788139343 53.71067810058594 1.500001788139343 47.50006484985352 C 1.500001788139343 41.28932189941406 2.716028451919556 35.26528167724609 5.11428165435791 29.59514617919922 C 7.431055068969727 24.11767959594727 10.74802875518799 19.19810676574707 14.97306823730469 14.97306632995605 C 19.1981086730957 10.74802684783936 24.1176815032959 7.431053161621094 29.59514808654785 5.114280223846436 C 35.26528167724609 2.716026782989502 41.28932189941406 1.5 47.49993515014648 1.5 C 53.71054840087891 1.5 59.73458862304688 2.716026782989502 65.40472412109375 5.114280223846436 C 70.88218688964844 7.431053161621094 75.80176544189453 10.74802684783936 80.02680206298828 14.97306632995605 C 84.25183868408203 19.19810676574707 87.56881713867188 24.11767959594727 89.88558959960938 29.59514617919922 C 92.28384399414062 35.26528167724609 93.49987030029297 41.28932189941406 93.49987030029297 47.49993515014648 C 93.49987030029297 53.71067810058594 92.28384399414062 59.73471832275391 89.88558959960938 65.40485382080078 C 87.56881713867188 70.88231658935547 84.25183868408203 75.80189514160156 80.02680206298828 80.02693176269531 C 75.80176544189453 84.25197601318359 70.88218688964844 87.56894683837891 65.40472412109375 89.88571929931641 C 59.73458862304688 92.28397369384766 53.71054840087891 93.5 47.49993515014648 93.5 Z" stroke="none"/>
        <path d="M 47.49993515014648 3 C 41.49116516113281 3 35.66371917724609 4.176155090332031 30.17947387695312 6.495796203613281 C 24.88081359863281 8.7369384765625 20.12149047851562 11.94596862792969 16.03372192382812 16.03372192382812 C 11.94596862792969 20.12149047851562 8.7369384765625 24.88081359863281 6.495796203613281 30.17947387695312 C 4.1761474609375 35.66372299194336 3 41.49116897583008 3 47.50006103515625 C 3 53.50883102416992 4.1761474609375 59.33627700805664 6.495796203613281 64.82052612304688 C 8.7369384765625 70.11918640136719 11.94596862792969 74.87850952148438 16.03372192382812 78.96627807617188 C 20.12149047851562 83.05403137207031 24.88081359863281 86.2630615234375 30.17947387695312 88.50419616699219 C 35.66371917724609 90.82384490966797 41.49116516113281 92 47.49993515014648 92 C 53.50870513916016 92 59.33615112304688 90.82384490966797 64.82039642333984 88.50419616699219 C 70.11905670166016 86.2630615234375 74.87837982177734 83.05403137207031 78.96614837646484 78.96627807617188 C 83.05390167236328 74.87850952148438 86.26293182373047 70.11918640136719 88.50407409667969 64.82052612304688 C 90.82372283935547 59.33627700805664 91.99987030029297 53.50883102416992 91.99987030029297 47.49993896484375 C 91.99987030029297 41.49116897583008 90.82372283935547 35.66372299194336 88.50407409667969 30.17947387695312 C 86.26293182373047 24.88081359863281 83.05390167236328 20.12149047851562 78.96614837646484 16.03372192382812 C 74.87837982177734 11.94596862792969 70.11905670166016 8.7369384765625 64.82039642333984 6.495796203613281 C 59.33615112304688 4.176155090332031 53.50870513916016 3 47.49993515014648 3 M 47.49993515014648 0 C 73.73342895507812 0 94.99987030029297 21.26644897460938 94.99987030029297 47.49993896484375 L 94.99987030029297 47.50006103515625 C 94.99987030029297 73.73355102539062 73.73342895507812 95 47.49993515014648 95 C 21.26644134521484 95 0 73.73355102539062 0 47.50006103515625 L 0 47.49993896484375 C 0 21.26644897460938 21.26644134521484 0 47.49993515014648 0 Z" stroke="none" fill="#fff"/>
      </g>
    </g>
    <g id="Grupo_1114414" data-name="Grupo 1114414" transform="translate(1243.166 3872)">
      <g id="Grupo_1114411" data-name="Grupo 1114411" transform="translate(1.726 0.841)">
        <g id="Grupo_1114410" data-name="Grupo 1114410">
          <g id="Grupo_1114409" data-name="Grupo 1114409">
            <g id="Grupo_1114403" data-name="Grupo 1114403" transform="translate(0 20.317)">
              <g id="Grupo_1114400" data-name="Grupo 1114400" transform="translate(0 2.219)">
                <g id="Grupo_1114399" data-name="Grupo 1114399">
                  <g id="Grupo_1114387" data-name="Grupo 1114387" transform="translate(15.773)">
                    <g id="Grupo_1114386" data-name="Grupo 1114386">
                      <path id="Trazado_907362" data-name="Trazado 907362" d="M173.369,254.536v7.684a.6.6,0,0,1-.6.6h-16.05a7.644,7.644,0,0,0-7.644,7.644l6.663,12.1h7.073l7.762-6.571a1.915,1.915,0,0,1,1.915-1.919H176a3.83,3.83,0,0,0,3.83-3.83v-15.7Z" transform="translate(-149.077 -249.378)" fill="#64b9fc"/>
                      <path id="Trazado_907363" data-name="Trazado 907363" d="M277.481,342.809h4.286V328.067a.593.593,0,0,1-.207.039h-4.494a5.714,5.714,0,0,0-.449,2.227v2.825a6.177,6.177,0,0,0,1.506,4.049,7.152,7.152,0,0,0-6.52,7.123v3.516h3.575Z" transform="translate(-257.867 -314.665)" fill="#31a7fb"/>
                      <path id="Trazado_907364" data-name="Trazado 907364" d="M377.787,254.532v15.7a3.83,3.83,0,0,1-3.83,3.83h-1.931a3.832,3.832,0,0,0,2.529-3.6V254.532Z" transform="translate(-347.032 -249.374)" fill="#31a7fb"/>
                      <g id="Grupo_1114385" data-name="Grupo 1114385" transform="translate(5.358)">
                        <g id="Grupo_1114384" data-name="Grupo 1114384">
                          <g id="Grupo_1114383" data-name="Grupo 1114383">
                            <path id="Trazado_907365" data-name="Trazado 907365" d="M232.667,334.777a2.946,2.946,0,0,1-2.946-2.946v-3.418h5.892v3.418A2.946,2.946,0,0,1,232.667,334.777Z" transform="translate(-226.038 -314.972)" fill="#fd8087"/>
                            <g id="Grupo_1114382" data-name="Grupo 1114382">
                              <path id="Trazado_907366" data-name="Trazado 907366" d="M203.5,224.3a6.629,6.629,0,0,1-6.629-6.629V214.65A6.126,6.126,0,0,1,203,208.524H204a6.126,6.126,0,0,1,6.126,6.126v3.019A6.629,6.629,0,0,1,203.5,224.3Z" transform="translate(-196.871 -208.524)" fill="#fdb4ba"/>
                              <path id="Trazado_907367" data-name="Trazado 907367" d="M248.043,214.655v3.019a6.631,6.631,0,0,1-8.469,6.37,6.63,6.63,0,0,0,4.786-6.37v-3.019a6.126,6.126,0,0,0-4.787-5.978,6.086,6.086,0,0,1,1.338-.147h1.007A6.125,6.125,0,0,1,248.043,214.655Z" transform="translate(-234.786 -208.528)" fill="#fe99a0"/>
                            </g>
                          </g>
                        </g>
                      </g>
                    </g>
                  </g>
                  <g id="Grupo_1114398" data-name="Grupo 1114398" transform="translate(0 9.935)">
                    <g id="Grupo_1114392" data-name="Grupo 1114392">
                      <g id="Grupo_1114391" data-name="Grupo 1114391">
                        <g id="Grupo_1114390" data-name="Grupo 1114390">
                          <path id="Trazado_907368" data-name="Trazado 907368" d="M23.669,409.333h-8.13a7.152,7.152,0,0,0-7.153,7.153V420H27.263l3.558-3.516A7.152,7.152,0,0,0,23.669,409.333Z" transform="translate(-8.386 -396.756)" fill="#fd4755"/>
                          <path id="Trazado_907369" data-name="Trazado 907369" d="M123.682,416.486V420h-3.558v-3.516a7.152,7.152,0,0,0-7.153-7.153h3.558A7.152,7.152,0,0,1,123.682,416.486Z" transform="translate(-101.246 -396.756)" fill="#e41f2d"/>
                          <g id="Grupo_1114389" data-name="Grupo 1114389" transform="translate(5.015)">
                            <path id="Trazado_907370" data-name="Trazado 907370" d="M86.618,415.289a2.757,2.757,0,0,0,2.757-2.757v-3.2H83.861v3.2A2.757,2.757,0,0,0,86.618,415.289Z" transform="translate(-80.414 -396.756)" fill="#fd8087"/>
                            <g id="Grupo_1114388" data-name="Grupo 1114388">
                              <path id="Trazado_907371" data-name="Trazado 907371" d="M59.32,311.9a6.2,6.2,0,0,1-6.2-6.2v-2.825a5.732,5.732,0,0,1,5.732-5.732h.942a5.732,5.732,0,0,1,5.732,5.732V305.7A6.2,6.2,0,0,1,59.32,311.9Z" transform="translate(-53.117 -297.143)" fill="#fdb4ba"/>
                              <path id="Trazado_907372" data-name="Trazado 907372" d="M101.095,302.881v2.825a6.206,6.206,0,0,1-7.916,5.963,6.2,6.2,0,0,0,4.491-5.963v-2.825a5.731,5.731,0,0,0-4.491-5.6,5.705,5.705,0,0,1,1.241-.136h.942A5.733,5.733,0,0,1,101.095,302.881Z" transform="translate(-88.688 -297.148)" fill="#fe99a0"/>
                            </g>
                          </g>
                        </g>
                      </g>
                    </g>
                    <g id="Grupo_1114397" data-name="Grupo 1114397" transform="translate(33.083)">
                      <g id="Grupo_1114396" data-name="Grupo 1114396">
                        <g id="Grupo_1114395" data-name="Grupo 1114395">
                          <path id="Trazado_907373" data-name="Trazado 907373" d="M318.771,409.333h-8.13a7.152,7.152,0,0,0-7.153,7.153V420h18.877l3.558-3.516A7.152,7.152,0,0,0,318.771,409.333Z" transform="translate(-303.488 -396.756)" fill="#a3e440"/>
                          <path id="Trazado_907374" data-name="Trazado 907374" d="M418.784,416.486V420h-3.558v-3.516a7.152,7.152,0,0,0-7.153-7.153h3.558A7.152,7.152,0,0,1,418.784,416.486Z" transform="translate(-396.348 -396.756)" fill="#8dc637"/>
                          <g id="Grupo_1114394" data-name="Grupo 1114394" transform="translate(5.015)">
                            <path id="Trazado_907375" data-name="Trazado 907375" d="M381.72,415.289a2.757,2.757,0,0,0,2.757-2.757v-3.2h-5.514v3.2A2.757,2.757,0,0,0,381.72,415.289Z" transform="translate(-375.516 -396.756)" fill="#fd8087"/>
                            <g id="Grupo_1114393" data-name="Grupo 1114393">
                              <path id="Trazado_907376" data-name="Trazado 907376" d="M354.421,311.9a6.2,6.2,0,0,1-6.2-6.2v-2.825a5.732,5.732,0,0,1,5.732-5.732h.942a5.732,5.732,0,0,1,5.732,5.732V305.7A6.2,6.2,0,0,1,354.421,311.9Z" transform="translate(-348.218 -297.143)" fill="#fdb4ba"/>
                              <path id="Trazado_907377" data-name="Trazado 907377" d="M396.2,302.881v2.825a6.206,6.206,0,0,1-7.916,5.963,6.2,6.2,0,0,0,4.491-5.963v-2.825a5.731,5.731,0,0,0-4.491-5.6,5.706,5.706,0,0,1,1.241-.136h.942A5.733,5.733,0,0,1,396.2,302.881Z" transform="translate(-383.79 -297.148)" fill="#fe99a0"/>
                            </g>
                          </g>
                        </g>
                      </g>
                    </g>
                  </g>
                </g>
              </g>
              <g id="Grupo_1114402" data-name="Grupo 1114402" transform="translate(40.064 0)">
                <g id="Grupo_1114401" data-name="Grupo 1114401">
                  <path id="Trazado_907378" data-name="Trazado 907378" d="M365.758,190.345v6.038h6.464V194.5a3.232,3.232,0,0,0-3.232-3.232v-.925a1.616,1.616,0,0,0-3.232,0Z" transform="translate(-365.758 -188.729)" fill="#fdb4ba"/>
                  <path id="Trazado_907379" data-name="Trazado 907379" d="M397.817,216.507v-1.881a3.232,3.232,0,0,0-3.232-3.232v5.113Z" transform="translate(-391.353 -208.853)" fill="#fe99a0"/>
                </g>
              </g>
            </g>
            <g id="Grupo_1114408" data-name="Grupo 1114408" transform="translate(20.055)">
              <g id="Grupo_1114407" data-name="Grupo 1114407">
                <path id="Trazado_907380" data-name="Trazado 907380" d="M202.687,15.2A7.7,7.7,0,1,1,197.732,8a2.5,2.5,0,0,0-.089.665,2.538,2.538,0,0,0,3.735,2.237A7.665,7.665,0,0,1,202.687,15.2Z" transform="translate(-187.279 -7.499)" fill="#ffd15b"/>
                <path id="Trazado_907381" data-name="Trazado 907381" d="M244.5,15.2a7.71,7.71,0,0,1-10.128,7.315,7.707,7.707,0,0,0,0-14.631A7.71,7.71,0,0,1,244.5,15.2Z" transform="translate(-229.096 -7.499)" fill="#feb237"/>
                <g id="Grupo_1114406" data-name="Grupo 1114406" transform="translate(2.972 13.785)">
                  <g id="Grupo_1114404" data-name="Grupo 1114404" transform="translate(0 0.001)">
                    <path id="Trazado_907382" data-name="Trazado 907382" d="M222.041,135.38H215a1.212,1.212,0,0,1-1.212-1.212v-3.706h9.464v3.706A1.212,1.212,0,0,1,222.041,135.38Z" transform="translate(-213.789 -130.462)" fill="#eaf9fa"/>
                  </g>
                  <g id="Grupo_1114405" data-name="Grupo 1114405" transform="translate(3.405 0)">
                    <path id="Trazado_907383" data-name="Trazado 907383" d="M250.22,130.457v3.706a1.212,1.212,0,0,1-1.212,1.212H244.16a1.212,1.212,0,0,0,1.212-1.212v-3.706Z" transform="translate(-244.16 -130.457)" fill="#c4e2ff"/>
                  </g>
                </g>
              </g>
            </g>
          </g>
        </g>
      </g>
      <g id="Grupo_1114413" data-name="Grupo 1114413" transform="translate(0.885 0)">
        <g id="Grupo_1114412" data-name="Grupo 1114412" transform="translate(0 0)">
          <path id="Trazado_907384" data-name="Trazado 907384" d="M236.361,294.113a.841.841,0,0,0-.841.841,1.035,1.035,0,0,1-2.07,0,.841.841,0,1,0-1.682,0,2.716,2.716,0,0,0,5.433,0A.841.841,0,0,0,236.361,294.113Z" transform="translate(-205.885 -261.141)"/>
          <path id="Trazado_907385" data-name="Trazado 907385" d="M151.69,484.354a.841.841,0,0,0-.841.841v1.417a.841.841,0,0,0,1.682,0v-1.417A.841.841,0,0,0,151.69,484.354Z" transform="translate(-134.037 -430.054)"/>
          <path id="Trazado_907386" data-name="Trazado 907386" d="M51.889,484.354a.841.841,0,0,0-.841.841v1.417a.841.841,0,0,0,1.682,0v-1.417A.841.841,0,0,0,51.889,484.354Z" transform="translate(-45.424 -430.054)"/>
          <path id="Trazado_907387" data-name="Trazado 907387" d="M90.483,376.364a.841.841,0,1,0-1.682,0,.914.914,0,1,1-1.829,0,.841.841,0,1,0-1.682,0,2.6,2.6,0,0,0,5.192,0Z" transform="translate(-75.828 -333.424)"/>
          <path id="Trazado_907388" data-name="Trazado 907388" d="M52.165,139.435a7,7,0,0,0,.906-3.45v-2.825a6.582,6.582,0,0,0-3.977-6.037v-6.076a4.08,4.08,0,0,0-3.232-3.985v-.172a2.457,2.457,0,1,0-4.913,0v11.588a6.608,6.608,0,0,0-1.2,1.615H36.1a7.422,7.422,0,0,0,.85-3.455v-3.019a6.974,6.974,0,0,0-6.967-6.966H28.982a6.974,6.974,0,0,0-6.966,6.966v3.019a7.421,7.421,0,0,0,1,3.726,8.554,8.554,0,0,0-3.144,1.571,6.584,6.584,0,0,0-6.087-5.337V110.366a.763.763,0,0,1,.762-.762h3.818l-.443.443a.841.841,0,1,0,1.189,1.189l1.9-1.9a.841.841,0,0,0,0-1.189l-1.9-1.9a.841.841,0,0,0-1.189,1.189l.489.489H14.546a2.446,2.446,0,0,0-2.444,2.444V126.6a6.581,6.581,0,0,0-2.759.78.841.841,0,0,0,.8,1.478,4.9,4.9,0,0,1,2.327-.588h.942a4.9,4.9,0,0,1,4.891,4.891v2.825a5.362,5.362,0,0,1-10.725,0v-2.825a4.875,4.875,0,0,1,.3-1.689A.841.841,0,0,0,6.3,130.89a6.553,6.553,0,0,0-.4,2.27v2.825a7,7,0,0,0,.907,3.45,8.006,8.006,0,0,0-5.921,7.722v3.516a.841.841,0,1,0,1.682,0v-3.516a6.317,6.317,0,0,1,5.356-6.238,7.09,7.09,0,0,0,1.424,1.119V143.2a3.6,3.6,0,1,0,7.2,0v-1.165a7.089,7.089,0,0,0,1.423-1.118,6.317,6.317,0,0,1,5.356,6.238v3.516a.841.841,0,0,0,1.682,0v-3.516a8.006,8.006,0,0,0-5.921-7.722,7,7,0,0,0,.907-3.45v-1.846a6.843,6.843,0,0,1,4.153-2.291,7.513,7.513,0,0,0,1.558,1.224v1.278a3.787,3.787,0,1,0,7.574,0v-1.278a7.519,7.519,0,0,0,1.629-1.3h4.23a6.568,6.568,0,0,0-.148,1.386v2.825a7,7,0,0,0,.906,3.45,8,8,0,0,0-5.921,7.722v3.516a.841.841,0,0,0,1.682,0v-3.516a6.315,6.315,0,0,1,5.356-6.238,7.092,7.092,0,0,0,1.424,1.119V143.2a3.6,3.6,0,0,0,7.2,0v-1.165a7.088,7.088,0,0,0,1.423-1.118,6.316,6.316,0,0,1,5.356,6.238v3.516a.841.841,0,0,0,1.682,0v-3.516a8,8,0,0,0-5.921-7.722ZM14.86,143.2a1.916,1.916,0,0,1-3.832,0v-.441a7.008,7.008,0,0,0,3.832,0v.441Zm16.73-8.853a2.105,2.105,0,1,1-4.211,0V133.8a7.441,7.441,0,0,0,4.211,0Zm-2.105-1.925a5.8,5.8,0,0,1-5.788-5.788v-3.019a5.291,5.291,0,0,1,5.285-5.285h1.006a5.291,5.291,0,0,1,5.285,5.285v3.019A5.8,5.8,0,0,1,29.485,132.425Zm13.145-15.536a.775.775,0,1,1,1.55,0v.925a.841.841,0,0,0,.841.841,2.394,2.394,0,0,1,2.391,2.391v1.041H42.631Zm0,6.879h4.782v2.884a6.605,6.605,0,0,0-.915-.065h-.942a6.53,6.53,0,0,0-2.925.689ZM47.944,143.2a1.916,1.916,0,0,1-3.832,0v-.441a7.007,7.007,0,0,0,3.832,0Zm-1.917-1.856a5.368,5.368,0,0,1-5.362-5.362v-2.825a4.9,4.9,0,0,1,4.892-4.891H46.5a4.9,4.9,0,0,1,4.892,4.891v2.825a5.368,5.368,0,0,1-5.362,5.362Z" transform="translate(-0.885 -94.115)"/>
          <path id="Trazado_907389" data-name="Trazado 907389" d="M446.792,484.354a.841.841,0,0,0-.841.841v1.417a.841.841,0,0,0,1.682,0v-1.417A.841.841,0,0,0,446.792,484.354Z" transform="translate(-396.055 -430.054)"/>
          <path id="Trazado_907390" data-name="Trazado 907390" d="M346.991,484.354a.841.841,0,0,0-.841.841v1.417a.841.841,0,1,0,1.682,0v-1.417A.841.841,0,0,0,346.991,484.354Z" transform="translate(-307.443 -430.054)"/>
          <path id="Trazado_907391" data-name="Trazado 907391" d="M384.745,375.523a.841.841,0,0,0-.841.841.914.914,0,1,1-1.829,0,.841.841,0,0,0-1.682,0,2.6,2.6,0,0,0,5.192,0A.841.841,0,0,0,384.745,375.523Z" transform="translate(-337.848 -333.424)"/>
          <path id="Trazado_907392" data-name="Trazado 907392" d="M182.748,15.023v3.309a2.055,2.055,0,0,0,2.053,2.053h7.041a2.055,2.055,0,0,0,2.053-2.053V15.023a8.545,8.545,0,0,0,1.262-11.606.841.841,0,1,0-1.344,1.01,6.861,6.861,0,0,1-1.061,9.358h-8.861A6.864,6.864,0,0,1,191,2.226a.841.841,0,1,0,.658-1.547,8.546,8.546,0,0,0-8.914,14.344Zm1.682.444h7.783v2.865a.372.372,0,0,1-.371.371H184.8a.372.372,0,0,1-.371-.371Z" transform="translate(-159.721 0)"/>
          <path id="Trazado_907393" data-name="Trazado 907393" d="M142.111,69.474h.963a.841.841,0,1,0,0-1.682h-.963a.841.841,0,0,0,0,1.682Z" transform="translate(-125.532 -60.192)"/>
          <path id="Trazado_907394" data-name="Trazado 907394" d="M149.864,24.042l.834.482a.841.841,0,1,0,.841-1.456l-.834-.482a.841.841,0,1,0-.841,1.456Z" transform="translate(-132.789 -19.954)"/>
          <path id="Trazado_907395" data-name="Trazado 907395" d="M347.139,68.633a.841.841,0,0,0,.841.841h.963a.841.841,0,1,0,0-1.682h-.963A.841.841,0,0,0,347.139,68.633Z" transform="translate(-308.321 -60.192)"/>
          <path id="Trazado_907396" data-name="Trazado 907396" d="M340.956,24.637a.837.837,0,0,0,.42-.113l.834-.482a.841.841,0,1,0-.841-1.456l-.834.482a.841.841,0,0,0,.421,1.569Z" transform="translate(-302.084 -19.954)"/>
          <path id="Trazado_907397" data-name="Trazado 907397" d="M332.726,107.435a.841.841,0,0,0-1.189-1.189l-1.9,1.9a.841.841,0,0,0,0,1.189l1.9,1.9a.841.841,0,0,0,1.189-1.189l-.443-.443H336.1a.763.763,0,0,1,.762.762v2.909a.841.841,0,1,0,1.682,0v-2.909a2.446,2.446,0,0,0-2.444-2.444h-3.864Z" transform="translate(-292.561 -94.116)"/>
        </g>
      </g>
    </g>
  </g>
</svg>
