<svg xmlns="http://www.w3.org/2000/svg" xmlns:xlink="http://www.w3.org/1999/xlink" width="113" height="113" viewBox="0 0 113 113">
  <defs>
    <filter id="Trazado_906465" x="0" y="0" width="113" height="113" filterUnits="userSpaceOnUse">
      <feOffset dy="3" input="SourceAlpha"/>
      <feGaussianBlur stdDeviation="3" result="blur"/>
      <feFlood flood-opacity="0.161"/>
      <feComposite operator="in" in2="blur"/>
      <feComposite in="SourceGraphic"/>
    </filter>
  </defs>
  <g id="Grupo_1114381" data-name="Grupo 1114381" transform="translate(-901.051 -3847)">
    <g transform="matrix(1, 0, 0, 1, 901.05, 3847)" filter="url(#Trazado_906465)">
      <g id="Trazado_906465-2" data-name="Trazado 906465" transform="translate(9 6)" fill="#f3f0ea">
        <path d="M 47.49993515014648 93.5 C 41.28932189941406 93.5 35.26528167724609 92.28397369384766 29.59514808654785 89.88571929931641 C 24.1176815032959 87.56894683837891 19.1981086730957 84.25197601318359 14.97306823730469 80.02693176269531 C 10.74802875518799 75.80189514160156 7.431055068969727 70.88231658935547 5.11428165435791 65.40485382080078 C 2.716028451919556 59.73471832275391 1.500001788139343 53.71067810058594 1.500001788139343 47.50006484985352 C 1.500001788139343 41.28932189941406 2.716028451919556 35.26528167724609 5.11428165435791 29.59514617919922 C 7.431055068969727 24.11767959594727 10.74802875518799 19.19810676574707 14.97306823730469 14.97306632995605 C 19.1981086730957 10.74802684783936 24.1176815032959 7.431053161621094 29.59514808654785 5.114280223846436 C 35.26528167724609 2.716026782989502 41.28932189941406 1.5 47.49993515014648 1.5 C 53.71054840087891 1.5 59.73458862304688 2.716026782989502 65.40472412109375 5.114280223846436 C 70.88218688964844 7.431053161621094 75.80176544189453 10.74802684783936 80.02680206298828 14.97306632995605 C 84.25183868408203 19.19810676574707 87.56881713867188 24.11767959594727 89.88558959960938 29.59514617919922 C 92.28384399414062 35.26528167724609 93.49987030029297 41.28932189941406 93.49987030029297 47.49993515014648 C 93.49987030029297 53.71067810058594 92.28384399414062 59.73471832275391 89.88558959960938 65.40485382080078 C 87.56881713867188 70.88231658935547 84.25183868408203 75.80189514160156 80.02680206298828 80.02693176269531 C 75.80176544189453 84.25197601318359 70.88218688964844 87.56894683837891 65.40472412109375 89.88571929931641 C 59.73458862304688 92.28397369384766 53.71054840087891 93.5 47.49993515014648 93.5 Z" stroke="none"/>
        <path d="M 47.49993515014648 3 C 41.49116516113281 3 35.66371917724609 4.176155090332031 30.17947387695312 6.495796203613281 C 24.88081359863281 8.7369384765625 20.12149047851562 11.94596862792969 16.03372192382812 16.03372192382812 C 11.94596862792969 20.12149047851562 8.7369384765625 24.88081359863281 6.495796203613281 30.17947387695312 C 4.1761474609375 35.66372299194336 3 41.49116897583008 3 47.50006103515625 C 3 53.50883102416992 4.1761474609375 59.33627700805664 6.495796203613281 64.82052612304688 C 8.7369384765625 70.11918640136719 11.94596862792969 74.87850952148438 16.03372192382812 78.96627807617188 C 20.12149047851562 83.05403137207031 24.88081359863281 86.2630615234375 30.17947387695312 88.50419616699219 C 35.66371917724609 90.82384490966797 41.49116516113281 92 47.49993515014648 92 C 53.50870513916016 92 59.33615112304688 90.82384490966797 64.82039642333984 88.50419616699219 C 70.11905670166016 86.2630615234375 74.87837982177734 83.05403137207031 78.96614837646484 78.96627807617188 C 83.05390167236328 74.87850952148438 86.26293182373047 70.11918640136719 88.50407409667969 64.82052612304688 C 90.82372283935547 59.33627700805664 91.99987030029297 53.50883102416992 91.99987030029297 47.49993896484375 C 91.99987030029297 41.49116897583008 90.82372283935547 35.66372299194336 88.50407409667969 30.17947387695312 C 86.26293182373047 24.88081359863281 83.05390167236328 20.12149047851562 78.96614837646484 16.03372192382812 C 74.87837982177734 11.94596862792969 70.11905670166016 8.7369384765625 64.82039642333984 6.495796203613281 C 59.33615112304688 4.176155090332031 53.50870513916016 3 47.49993515014648 3 M 47.49993515014648 0 C 73.73342895507812 0 94.99987030029297 21.26644897460938 94.99987030029297 47.49993896484375 L 94.99987030029297 47.50006103515625 C 94.99987030029297 73.73355102539062 73.73342895507812 95 47.49993515014648 95 C 21.26644134521484 95 0 73.73355102539062 0 47.50006103515625 L 0 47.49993896484375 C 0 21.26644897460938 21.26644134521484 0 47.49993515014648 0 Z" stroke="none" fill="#fff"/>
      </g>
    </g>
    <g id="Grupo_1114380" data-name="Grupo 1114380" transform="translate(924.051 3867)">
      <g id="Grupo_1114378" data-name="Grupo 1114378" transform="translate(1.142 0.996)">
        <g id="Grupo_1114375" data-name="Grupo 1114375" transform="translate(19.493 17.002)">
          <path id="Trazado_907334" data-name="Trazado 907334" d="M181.883,146.115c0,6.4-6.388,8.339-12.284,9.942l-7.292-1.566-1.929-3.05a12.552,12.552,0,0,1,8.732-15.485,13.819,13.819,0,0,1,7.156,0,12.44,12.44,0,0,1,2.373.907C183.417,142.545,181.883,144.641,181.883,146.115Z" transform="translate(-159.312 -135.484)" fill="#73788c"/>
          <path id="Trazado_907335" data-name="Trazado 907335" d="M244.686,160.44l-1.857,3.05H228.75a13.9,13.9,0,0,0,9.575-17.628A12.608,12.608,0,0,1,244.686,160.44Z" transform="translate(-218.998 -144.483)" fill="#5e6577"/>
          <path id="Trazado_907336" data-name="Trazado 907336" d="M225.594,327.005v8.676a7.293,7.293,0,0,0,8.086-.061v-8.615h-8.086Z" transform="translate(-216.261 -301.563)" fill="#ffb09e"/>
          <path id="Trazado_907337" data-name="Trazado 907337" d="M177.605,254.9h2.661a1.826,1.826,0,0,1,1.826,1.826v1.128a3.6,3.6,0,0,1-3.6,3.6h-19.56a3.6,3.6,0,0,1-3.6-3.6v-1.128a1.826,1.826,0,0,1,1.826-1.826h20.441Z" transform="translate(-155.338 -239.034)" fill="#ffb09e"/>
          <path id="Trazado_907338" data-name="Trazado 907338" d="M206.221,229.159l-2.06,1.6a5.419,5.419,0,0,1-6.66,0l-2.06-1.6a7.958,7.958,0,0,1-3.067-6.278v-4.609a2.712,2.712,0,0,1,2.88-2.707l2.833.175a8.732,8.732,0,0,0,5.091-1.263l2.587-1.58a2.316,2.316,0,0,1,3.523,1.977v8.009A7.957,7.957,0,0,1,206.221,229.159Z" transform="translate(-187.454 -202.315)" fill="#ffcebf"/>
          <path id="Trazado_907339" data-name="Trazado 907339" d="M235.869,303.922a5.218,5.218,0,0,1-2.585-.682,1,1,0,0,1,.987-1.731,3.239,3.239,0,0,0,3.2,0,1,1,0,0,1,.987,1.731A5.216,5.216,0,0,1,235.869,303.922Z" transform="translate(-222.493 -279.34)" fill="#ffb09e"/>
        </g>
        <g id="Grupo_1114376" data-name="Grupo 1114376" transform="translate(11.162 50.274)">
          <path id="Trazado_907340" data-name="Trazado 907340" d="M148.188,387.665l-.122,11.35-37.1-.558V387.719a.5.5,0,0,1,.408-.474l1.912-.444a32.365,32.365,0,0,1,13.547-.218q.462.092.923.2l.359.082,1.095.25,1,.474,1-.478,1.444-.335a32.405,32.405,0,0,1,13.315-.26l.909.205C147.106,386.778,148.188,387.446,148.188,387.665Z" transform="translate(-108.532 -385.945)" fill="#eaf6ff"/>
          <path id="Trazado_907341" data-name="Trazado 907341" d="M377.884,391.414v11.3l-2.438-.558v-11.3a.5.5,0,0,0-.395-.472l-.652-.167q.98.185,1.95.433l1.14.292a.5.5,0,0,1,.395.472Z" transform="translate(-336.968 -389.65)" fill="#d8ecfe"/>
          <path id="Trazado_907342" data-name="Trazado 907342" d="M135.18,418.036l-.914,10.281c0,.221-.907.4-1.128.4H93.019a.4.4,0,0,1-.4-.4V418.036a.951.951,0,0,1,.979-.919h14.977l.931.829.07.062.021-.017.97-.814a1.654,1.654,0,0,1,.5.228l.316.214a5.132,5.132,0,0,0,1.747.756,5.354,5.354,0,0,0,4.109-.705l.43-.28a1.651,1.651,0,0,1,.586-.238l.869.674,1.124-.708h12.3C133.1,417.117,135.18,417.529,135.18,418.036Z" transform="translate(-92.62 -412.976)" fill="#bbf49b"/>
          <path id="Trazado_907343" data-name="Trazado 907343" d="M396.677,418.036v10.281a.4.4,0,0,1-.4.4h-2.438a.4.4,0,0,0,.4-.4V418.036a.951.951,0,0,0-.979-.919H395.7A.951.951,0,0,1,396.677,418.036Z" transform="translate(-353.322 -412.976)" fill="#9be69d"/>
        </g>
        <g id="Grupo_1114377" data-name="Grupo 1114377">
          <path id="Trazado_907344" data-name="Trazado 907344" d="M367.756,17.171c0,5.712-4.726,9.626-10.438,9.626a10.558,10.558,0,0,1-7.867-4.513,10.365,10.365,0,0,1,15.04-13.1C368.04,13.678,367.756,15.565,367.756,17.171Z" transform="translate(-303.312 -7.497)" fill="#eaf6ff"/>
          <path id="Trazado_907345" data-name="Trazado 907345" d="M375.658,28.862a10.367,10.367,0,0,1-19.738,4.426,10.345,10.345,0,0,0,15.04-13.1,10.348,10.348,0,0,1,4.7,8.675Z" transform="translate(-309.781 -18.501)" fill="#d8ecfe"/>
          <path id="Trazado_907346" data-name="Trazado 907346" d="M400.231,35.105c1.175,7.173-4.506,9.107-6.7,6.783a5.438,5.438,0,0,0-.727-1.322,4.631,4.631,0,1,1,7.422-5.461Z" transform="translate(-340.73 -29.462)" fill="#ffe177"/>
          <path id="Trazado_907347" data-name="Trazado 907347" d="M413.448,52.33a4.613,4.613,0,0,1-1.178,3.085,5.581,5.581,0,0,0-1.121,3.333v.689l-4.664.015V58.8a5.665,5.665,0,0,0-.375-2.036,8.6,8.6,0,0,0,6.7-6.783A4.6,4.6,0,0,1,413.448,52.33Z" transform="translate(-353.303 -44.334)" fill="#ffd15b"/>
          <path id="Trazado_907348" data-name="Trazado 907348" d="M420.973,75.1v.814c-.675,2.873-1.528,2.69-1.993,1.222V75.1a1,1,0,0,1,1.993,0Z" transform="translate(-364.464 -65.257)" fill="#ffd15b"/>
          <path id="Trazado_907349" data-name="Trazado 907349" d="M420.973,87.737v3.446a1,1,0,1,1-1.993,0V88.959A8.586,8.586,0,0,0,420.973,87.737Z" transform="translate(-364.464 -77.078)" fill="#ffc344"/>
          <path id="Trazado_907350" data-name="Trazado 907350" d="M409.864,112.435v.956c0,1.108-2.142,2.018-3.226,2.11a2.117,2.117,0,0,1-1.938-2.11v-.956a.4.4,0,0,1,.4-.4h3.078C408.4,112.036,409.864,112.214,409.864,112.435Z" transform="translate(-352.081 -98.149)" fill="#73788c"/>
          <path id="Trazado_907351" data-name="Trazado 907351" d="M423.138,112.435v.956a2.117,2.117,0,0,1-2.118,2.118h-1.552c-.06,0-.121,0-.179-.008a2.119,2.119,0,0,0,1.937-2.11v-.956a.4.4,0,0,0-.4-.4h1.912A.4.4,0,0,1,423.138,112.435Z" transform="translate(-364.733 -98.149)" fill="#5e6577"/>
          <path id="Trazado_907352" data-name="Trazado 907352" d="M240.126,67.261a2.465,2.465,0,0,1-2.589,2.528,2.778,2.778,0,0,1-1.972-1.248h0a2.7,2.7,0,0,1,3.9-3.05A2.755,2.755,0,0,1,240.126,67.261Z" transform="translate(-205.34 -57.506)" fill="#8ac9fe"/>
          <path id="Trazado_907353" data-name="Trazado 907353" d="M241.435,69.974a2.7,2.7,0,0,1-5.315.675,2.7,2.7,0,0,0,3.9-3.051,2.7,2.7,0,0,1,1.419,2.377Z" transform="translate(-205.895 -59.613)" fill="#60b7ff"/>
          <path id="Trazado_907354" data-name="Trazado 907354" d="M23.027,10.7A8.273,8.273,0,0,0,21.5,9.977a.4.4,0,0,1-.26-.373V7.895a.4.4,0,0,0-.4-.4H16.553a.4.4,0,0,0-.4.4V9.6a.394.394,0,0,1-.26.373,8.367,8.367,0,0,0-2.618,1.512.4.4,0,0,1-.453.04l-1.483-.856a.4.4,0,0,0-.545.146L8.65,14.533a.4.4,0,0,0,.146.545l1.483.856a.4.4,0,0,1,.193.413,8.325,8.325,0,0,0,0,3.021.392.392,0,0,1-.193.412L8.8,20.634a.4.4,0,0,0-.146.545L10.8,24.893a.4.4,0,0,0,.545.146l1.483-.856a.392.392,0,0,1,.453.039,8.325,8.325,0,0,0,.923.683c4.845,1.606,6.734-.05,3.658-2.452-3.208-.582-5.276-4.438-2.613-7.978a.423.423,0,0,1,.085-.084c2.747-2.047,5.676-1.266,7.124.681,3.048,1.935,3.353-.867.577-4.211-.034-.041,0-.106,0-.16Z" transform="translate(-8.596 -7.496)" fill="#73788c"/>
          <path id="Trazado_907355" data-name="Trazado 907355" d="M65.318,41.572l-2.145,3.714a.4.4,0,0,1-.545.146l-1.483-.856a.393.393,0,0,0-.453.039,8.352,8.352,0,0,1-2.618,1.512.4.4,0,0,0-.26.373v1.71a.4.4,0,0,1-.4.4H53.124a.4.4,0,0,1-.4-.4V46.5a.394.394,0,0,0-.26-.373,8.425,8.425,0,0,1-1.7-.829,15.58,15.58,0,0,0,3.658-2.452,4.615,4.615,0,0,0,.841.076,4.673,4.673,0,0,0,3.755-7.456,15.556,15.556,0,0,0,.577-4.211c0-.053,0-.106,0-.159a8.3,8.3,0,0,1,1.093.788.4.4,0,0,0,.453.04l1.483-.856a.4.4,0,0,1,.545.146l2.145,3.713a.4.4,0,0,1-.146.545l-1.483.855a.4.4,0,0,0-.193.413,8.326,8.326,0,0,1,0,3.021.392.392,0,0,0,.193.412l1.483.855A.4.4,0,0,1,65.318,41.572Z" transform="translate(-45.168 -27.889)" fill="#5e6577"/>
        </g>
      </g>
      <g id="Grupo_1114379" data-name="Grupo 1114379" transform="translate(0)">
        <path id="Trazado_907356" data-name="Trazado 907356" d="M56.655,0A11.372,11.372,0,0,0,45.34,10.359h-7.8a3.7,3.7,0,0,0-7.118,0H20.551c-.01-.09-.02-.18-.032-.269l1.471-.849a1,1,0,0,0,.365-1.361l-2.544-4.4a1,1,0,0,0-1.361-.365l-1.47.849a9.246,9.246,0,0,0-2.195-1.268V1a1,1,0,0,0-1-1H8.7a1,1,0,0,0-1,1v1.7A9.249,9.249,0,0,0,5.509,3.96l-1.47-.849a1,1,0,0,0-1.361.365L.134,7.88A1,1,0,0,0,.5,9.241l1.471.849a9.32,9.32,0,0,0,0,2.531L.5,13.47a1,1,0,0,0-.365,1.361l2.544,4.4a1,1,0,0,0,1.361.365l1.47-.849A9.246,9.246,0,0,0,7.7,20.02v1.7a1,1,0,0,0,1,1h5.088a1,1,0,0,0,1-1v-1.7a9.247,9.247,0,0,0,2.195-1.268l1.47.849a1,1,0,0,0,1.361-.365l2.544-4.4a1,1,0,0,0-.365-1.361l-1.471-.849c.012-.09.023-.18.032-.269h9.872a3.7,3.7,0,0,0,7.118,0h7.8a11.359,11.359,0,0,0,8.818,10.084,1,1,0,0,0,.436-1.944,9.368,9.368,0,1,1,4.2-.018,1,1,0,1,0,.454,1.94A11.357,11.357,0,0,0,56.655,0ZM18.583,17.377l-1.212-.7A1,1,0,0,0,16.2,16.8a7.307,7.307,0,0,1-2.717,1.569,1,1,0,0,0-.694.949v1.4H9.7v-1.4A1,1,0,0,0,9,18.372,7.308,7.308,0,0,1,6.286,16.8a1,1,0,0,0-1.169-.126l-1.212.7L2.358,14.7,3.569,14a1,1,0,0,0,.476-1.074,7.363,7.363,0,0,1,0-3.138,1,1,0,0,0-.476-1.074l-1.212-.7L3.9,5.334l1.212.7a1,1,0,0,0,1.169-.126A7.31,7.31,0,0,1,9,4.339,1,1,0,0,0,9.7,3.39v-1.4h3.1v1.4a1,1,0,0,0,.694.949A7.309,7.309,0,0,1,16.2,5.908a1,1,0,0,0,1.169.126l1.212-.7L20.13,8.013l-1.212.7a1,1,0,0,0-.476,1.074,7.363,7.363,0,0,1,0,3.138A1,1,0,0,0,18.919,14l1.212.7Zm15.4-4.318a1.7,1.7,0,1,1,1.7-1.7A1.705,1.705,0,0,1,33.981,13.059Z" transform="translate(0)"/>
        <path id="Trazado_907357" data-name="Trazado 907357" d="M393.629,38.2V36.846a.994.994,0,0,0-.365-.771,4.71,4.71,0,0,1,.7-1.408,5.628,5.628,0,1,0-8.434.027,4.5,4.5,0,0,1,.68,1.382.994.994,0,0,0-.365.771V38.2a3.117,3.117,0,0,0,3.114,3.113h1.552A3.117,3.117,0,0,0,393.629,38.2ZM389.74,27.32a3.639,3.639,0,0,1,3.636,3.634,3.677,3.677,0,0,1-.982,2.491,6.689,6.689,0,0,0-1.133,2.405h-.525V32.8a1,1,0,1,0-1.993,0v3.046h-.527a6.512,6.512,0,0,0-1.112-2.384,3.68,3.68,0,0,1-1-2.512A3.639,3.639,0,0,1,389.74,27.32Zm1.9,10.881a1.122,1.122,0,0,1-1.121,1.12h-1.552a1.122,1.122,0,0,1-1.121-1.12v-.359h3.794V38.2Z" transform="translate(-333.085 -21.963)"/>
        <path id="Trazado_907358" data-name="Trazado 907358" d="M233.321,304.709a5.28,5.28,0,0,0,5.209,0,1,1,0,0,0-.987-1.731,3.279,3.279,0,0,1-3.235,0,1,1,0,0,0-.987,1.731Z" transform="translate(-201.89 -262.616)"/>
        <path id="Trazado_907359" data-name="Trazado 907359" d="M128.493,166.573h-.463v-1.38a1.5,1.5,0,0,0-1.143-1.437l-1.14-.291a33.416,33.416,0,0,0-12.821-.715s0-3.94,0-3.969l.981-.764a8.972,8.972,0,0,0,3.017-4.258h.8a4.632,4.632,0,0,0,4.627-4.625v-1.138a2.829,2.829,0,0,0-.953-2.116,13.88,13.88,0,0,0-1.476-9.869,13.389,13.389,0,0,0-8.192-6.344,13.792,13.792,0,0,0-1.418-.312,1,1,0,1,0-.326,1.966,11.786,11.786,0,0,1,1.218.268A11.414,11.414,0,0,1,118.188,137a11.877,11.877,0,0,1,1.321,8.16h-2.126v-2.338a3.334,3.334,0,0,0-5.072-2.844l-2.611,1.594a7.787,7.787,0,0,1-4.558,1.131l-2.859-.177a3.729,3.729,0,0,0-3.8,2.634H96.192A11.877,11.877,0,0,1,97.513,137a11.418,11.418,0,0,1,6.992-5.41,11.776,11.776,0,0,1,1.159-.257,1,1,0,0,0-.335-1.964,13.717,13.717,0,0,0-1.35.3,13.393,13.393,0,0,0-8.2,6.346,13.88,13.88,0,0,0-1.476,9.869,2.829,2.829,0,0,0-.953,2.116v1.138a4.632,4.632,0,0,0,4.627,4.625h.8a8.973,8.973,0,0,0,3.017,4.258l.979.762c0,.03,0,4,0,4a33.494,33.494,0,0,0-12.123.534l-1.912.443A1.493,1.493,0,0,0,87.56,165.2v1.37H87.1a1.948,1.948,0,0,0-1.976,1.915v10.679a1,1,0,1,0,1.993,0v-10.6H103.39V172a1,1,0,0,0,1.993,0v-2.535a6.4,6.4,0,0,0,4.868.03v9.679a1,1,0,1,0,1.993,0V168.566h5.572a1,1,0,0,0,0-1.993H112.1a2.679,2.679,0,0,0-1.475.434l-.429.28a4.168,4.168,0,0,1-1.408.578v-2.252l1.669-.386a31.415,31.415,0,0,1,14.793.167l.784.2v.978h-3.572a1,1,0,1,0,0,1.993h6.011v10.6a1,1,0,1,0,1.993,0V168.489A1.949,1.949,0,0,0,128.493,166.573Zm-8.984-19.425a.847.847,0,0,1,.847.846v1.138a2.637,2.637,0,0,1-2.635,2.633h-.383c.027-.287.044-.577.044-.869v-3.748h2.126Zm-21.53,4.617a2.637,2.637,0,0,1-2.635-2.633v-1.138a.847.847,0,0,1,.847-.846h2.126V150.9c0,.292.017.582.044.869h-.383Zm2.332-.869v-4.65a1.741,1.741,0,0,1,1.849-1.737l2.859.177a9.769,9.769,0,0,0,5.72-1.419l2.611-1.594a1.341,1.341,0,0,1,2.041,1.144V150.9a6.985,6.985,0,0,1-2.712,5.547l-2.079,1.619a4.471,4.471,0,0,1-5.5,0l-2.079-1.619A6.985,6.985,0,0,1,100.311,150.9Zm4.82,16.138a2.678,2.678,0,0,0-1.515-.461H89.552v-.96l1.547-.358a31.472,31.472,0,0,1,14.025-.022l1.675.382v2.222a4.147,4.147,0,0,1-1.354-.592Zm4.88-3.748-2.217.513-2.226-.508c-.266-.061-.534-.117-.8-.171v-2.9a6.457,6.457,0,0,0,6.168,0v2.871Q110.47,163.181,110.01,163.286Z" transform="translate(-73.813 -112.159)"/>
        <path id="Trazado_907360" data-name="Trazado 907360" d="M223.637,478a1,1,0,0,0-1,1v2.525a1,1,0,1,0,1.993,0v-2.525A1,1,0,0,0,223.637,478Z" transform="translate(-193.065 -414.498)"/>
        <path id="Trazado_907361" data-name="Trazado 907361" d="M47.626,42.812A5.669,5.669,0,1,0,53.3,48.481,5.676,5.676,0,0,0,47.626,42.812Zm0,9.345A3.676,3.676,0,1,1,51.3,48.481,3.681,3.681,0,0,1,47.626,52.157Z" transform="translate(-36.382 -37.125)"/>
      </g>
    </g>
  </g>
</svg>
