<svg xmlns="http://www.w3.org/2000/svg" width="399" height="81.816" viewBox="0 0 399 81.816">
  <g id="Grupo_1113430" data-name="Grupo 1113430" transform="translate(-288.051 -2599.184)">
    <rect id="Rect치ngulo_406002" data-name="Rect치ngulo 406002" width="388" height="74" transform="translate(299.051 2607)" fill="#bce0fc"/>
    <g id="Rect치ngulo_406003" data-name="Rect치ngulo 406003" transform="translate(288.051 2599.184)" fill="#fbfbf9" stroke="#000" stroke-width="0.5">
      <rect width="395" height="76" stroke="none"/>
      <rect x="0.25" y="0.25" width="394.5" height="75.5" fill="none"/>
    </g>
    <path id="Trazado_908255" data-name="Trazado 908255" d="M14.609,9.727H9.938L9.328,13.8H14.8l-.18,1.2H7.609l1.7-11.375h6.922l-.18,1.211H10.664l-.547,3.68H14.8ZM16.656,15,17.75,7.688H16.422l.172-1.141h1.328l.141-.914A3.361,3.361,0,0,1,19.219,3.4a3.757,3.757,0,0,1,2.43-.754,4.252,4.252,0,0,1,1.012.125,11.614,11.614,0,0,1,1.145.352l-.453,1.25a6.225,6.225,0,0,0-.84-.281,3.715,3.715,0,0,0-.941-.117,2.042,2.042,0,0,0-1.367.414,1.918,1.918,0,0,0-.6,1.242l-.141.914h1.68l-.172,1.141h-1.68L18.2,15Zm6.117,0H21.227l1.266-8.453h1.547Zm5.875-1.039a2.076,2.076,0,0,0,1.293-.477,1.8,1.8,0,0,0,.723-1.156h1.391l.016.047a2.885,2.885,0,0,1-1.223,1.965,3.838,3.838,0,0,1-2.379.824,2.837,2.837,0,0,1-2.527-1.223,4.112,4.112,0,0,1-.559-3l.047-.328a5.417,5.417,0,0,1,1.422-3.035,3.89,3.89,0,0,1,2.93-1.184,2.769,2.769,0,0,1,2.164.883,2.407,2.407,0,0,1,.57,2.148l-.016.039H31.094a1.676,1.676,0,0,0-.3-1.332A1.429,1.429,0,0,0,29.6,7.6a2.118,2.118,0,0,0-1.766.895,4.517,4.517,0,0,0-.859,2.113l-.047.328a3.852,3.852,0,0,0,.18,2.168A1.514,1.514,0,0,0,28.648,13.961ZM38.7,15q-.016-.438-.016-.707a4.987,4.987,0,0,1,.031-.551,4.564,4.564,0,0,1-1.277,1.012,3.193,3.193,0,0,1-1.543.41,2.41,2.41,0,0,1-1.887-.684,2.155,2.155,0,0,1-.434-1.855,2.584,2.584,0,0,1,1.25-1.914,5.194,5.194,0,0,1,2.773-.664h1.672l.125-.836a1.369,1.369,0,0,0-.27-1.191A1.593,1.593,0,0,0,37.906,7.6a2.134,2.134,0,0,0-1.25.375,1.3,1.3,0,0,0-.609.9l-1.469.016-.008-.047a2.422,2.422,0,0,1,1.117-1.707,4.1,4.1,0,0,1,2.484-.746,3.053,3.053,0,0,1,2.172.738,2.258,2.258,0,0,1,.594,2.1l-.609,4.07a6.686,6.686,0,0,0-.09.887,4.511,4.511,0,0,0,.051.816ZM36.32,13.875a3.032,3.032,0,0,0,1.547-.437,2.613,2.613,0,0,0,1.039-.984l.211-1.367H37.391a2.54,2.54,0,0,0-1.547.477,1.651,1.651,0,0,0-.734,1.094,1.011,1.011,0,0,0,.207.9A1.341,1.341,0,0,0,36.32,13.875Zm9.5.086a2.076,2.076,0,0,0,1.293-.477,1.8,1.8,0,0,0,.723-1.156h1.391l.016.047A2.885,2.885,0,0,1,48.02,14.34a3.838,3.838,0,0,1-2.379.824,2.837,2.837,0,0,1-2.527-1.223,4.112,4.112,0,0,1-.559-3l.047-.328a5.417,5.417,0,0,1,1.422-3.035,3.89,3.89,0,0,1,2.93-1.184,2.769,2.769,0,0,1,2.164.883,2.407,2.407,0,0,1,.57,2.148l-.016.039H48.266a1.676,1.676,0,0,0-.3-1.332,1.429,1.429,0,0,0-1.2-.527,2.118,2.118,0,0,0-1.766.895,4.517,4.517,0,0,0-.859,2.113l-.047.328a3.852,3.852,0,0,0,.18,2.168A1.514,1.514,0,0,0,45.82,13.961ZM52.344,15H50.8L52.07,6.547h1.539ZM53.938,4.383H52.4l.234-1.57h1.539ZM59.906,15q-.016-.438-.016-.707a4.987,4.987,0,0,1,.031-.551,4.564,4.564,0,0,1-1.277,1.012,3.193,3.193,0,0,1-1.543.41,2.41,2.41,0,0,1-1.887-.684,2.155,2.155,0,0,1-.434-1.855,2.584,2.584,0,0,1,1.25-1.914,5.194,5.194,0,0,1,2.773-.664h1.672l.125-.836a1.369,1.369,0,0,0-.27-1.191A1.593,1.593,0,0,0,59.109,7.6a2.134,2.134,0,0,0-1.25.375,1.3,1.3,0,0,0-.609.9l-1.469.016-.008-.047a2.422,2.422,0,0,1,1.117-1.707,4.1,4.1,0,0,1,2.484-.746,3.053,3.053,0,0,1,2.172.738,2.258,2.258,0,0,1,.594,2.1l-.609,4.07a6.686,6.686,0,0,0-.09.887,4.511,4.511,0,0,0,.051.816Zm-2.383-1.125a3.032,3.032,0,0,0,1.547-.437,2.613,2.613,0,0,0,1.039-.984l.211-1.367H58.594a2.54,2.54,0,0,0-1.547.477,1.651,1.651,0,0,0-.734,1.094,1.011,1.011,0,0,0,.207.9A1.341,1.341,0,0,0,57.523,13.875Zm17.508-5.3H68.516l.2-1.281h6.516Zm-.484,3.25H68.031l.2-1.281h6.516Z" transform="translate(305.051 2627.184)" fill="#12263f"/>
    <path id="Trazado_908256" data-name="Trazado 908256" d="M2.531,9.563.688,9.039l.383-1.2,1.844.7L2.836,6.555H4.094L4.016,8.586l1.82-.7.375,1.219L4.32,9.641l1.2,1.563-1.031.75-1.094-1.7L2.336,11.891,1.3,11.172ZM12.453,15H10.906V5.047L8.43,5.07V3.883l4.023-.422Zm11.586-4.016a4.489,4.489,0,0,1-.98,3.055,3.321,3.321,0,0,1-2.637,1.125,3.335,3.335,0,0,1-2.637-1.125,4.466,4.466,0,0,1-.988-3.055V7.641a4.5,4.5,0,0,1,.98-3.047,3.3,3.3,0,0,1,2.629-1.133,3.333,3.333,0,0,1,2.645,1.133,4.472,4.472,0,0,1,.988,3.047ZM22.5,7.32a3.1,3.1,0,0,0-.547-1.937,1.838,1.838,0,0,0-1.547-.711,1.808,1.808,0,0,0-1.531.711,3.135,3.135,0,0,0-.539,1.938V11.3a3.122,3.122,0,0,0,.551,1.945,2.006,2.006,0,0,0,3.074,0A3.167,3.167,0,0,0,22.5,11.3Zm10.547,3.664a4.489,4.489,0,0,1-.98,3.055,3.652,3.652,0,0,1-5.273,0,4.466,4.466,0,0,1-.988-3.055V7.641a4.5,4.5,0,0,1,.98-3.047,3.635,3.635,0,0,1,5.273,0,4.472,4.472,0,0,1,.988,3.047ZM31.508,7.32a3.1,3.1,0,0,0-.547-1.937,1.838,1.838,0,0,0-1.547-.711,1.808,1.808,0,0,0-1.531.711,3.135,3.135,0,0,0-.539,1.938V11.3a3.122,3.122,0,0,0,.551,1.945,2.006,2.006,0,0,0,3.074,0,3.167,3.167,0,0,0,.539-1.949Z" transform="translate(631.051 2627.184)" fill="#12263f"/>
    <path id="Trazado_908257" data-name="Trazado 908257" d="M17.742,12.016l.117.938.047.008.4-.945,4.2-8.391h1.664L18.234,15h-1.32L14.391,3.625h1.672Zm9.141,3.148a3.069,3.069,0,0,1-2.629-1.18,3.934,3.934,0,0,1-.6-3.047l.055-.344A5.061,5.061,0,0,1,25.2,7.547a3.89,3.89,0,0,1,2.754-1.156A2.624,2.624,0,0,1,30.3,7.461a3.846,3.846,0,0,1,.461,2.789l-.117.813H25.18a3.355,3.355,0,0,0,.266,2.121,1.7,1.7,0,0,0,1.617.777,4.177,4.177,0,0,0,1.395-.227,3.661,3.661,0,0,0,1.113-.609l.453,1a4.447,4.447,0,0,1-1.3.738A5.139,5.139,0,0,1,26.883,15.164ZM27.773,7.6a1.948,1.948,0,0,0-1.4.625,3.561,3.561,0,0,0-.9,1.578l.016.047h3.8l.016-.125a2.257,2.257,0,0,0-.219-1.535A1.41,1.41,0,0,0,27.773,7.6Zm6.578.156a3.653,3.653,0,0,1,1.207-1.012,3.241,3.241,0,0,1,1.5-.355,2.384,2.384,0,0,1,1.973.809,3.111,3.111,0,0,1,.4,2.465L38.641,15H37.1l.8-5.3a2.11,2.11,0,0,0-.2-1.605,1.585,1.585,0,0,0-1.289-.449,2.518,2.518,0,0,0-1.234.3,2.729,2.729,0,0,0-.922.832L33.32,15H31.781l1.266-8.453h1.375Zm10.234-3.25-.3,2.039h1.6l-.172,1.141h-1.6l-.766,5.133a1.052,1.052,0,0,0,.113.848.793.793,0,0,0,.621.23,1.571,1.571,0,0,0,.3-.035,2.1,2.1,0,0,0,.285-.074l.055,1.055a1.634,1.634,0,0,1-.543.23,2.7,2.7,0,0,1-.676.09,1.735,1.735,0,0,1-1.395-.57,2.153,2.153,0,0,1-.3-1.773l.766-5.133H41.227L41.4,6.547h1.344l.3-2.039ZM51.461,15q-.016-.438-.016-.707a4.987,4.987,0,0,1,.031-.551A4.564,4.564,0,0,1,50.2,14.754a3.193,3.193,0,0,1-1.543.41,2.41,2.41,0,0,1-1.887-.684,2.155,2.155,0,0,1-.434-1.855,2.584,2.584,0,0,1,1.25-1.914,5.194,5.194,0,0,1,2.773-.664h1.672l.125-.836a1.369,1.369,0,0,0-.27-1.191A1.593,1.593,0,0,0,50.664,7.6a2.134,2.134,0,0,0-1.25.375,1.3,1.3,0,0,0-.609.9l-1.469.016-.008-.047a2.422,2.422,0,0,1,1.117-1.707,4.1,4.1,0,0,1,2.484-.746,3.053,3.053,0,0,1,2.172.738,2.258,2.258,0,0,1,.594,2.1l-.609,4.07a6.686,6.686,0,0,0-.09.887,4.511,4.511,0,0,0,.051.816Zm-2.383-1.125a3.032,3.032,0,0,0,1.547-.437,2.613,2.613,0,0,0,1.039-.984l.211-1.367H50.148a2.54,2.54,0,0,0-1.547.477,1.651,1.651,0,0,0-.734,1.094,1.011,1.011,0,0,0,.207.9A1.341,1.341,0,0,0,49.078,13.875Zm11.258-1.148a.908.908,0,0,0-.266-.836,3.27,3.27,0,0,0-1.391-.555,5.344,5.344,0,0,1-2.176-.9,1.562,1.562,0,0,1-.582-1.547A2.6,2.6,0,0,1,57.043,7.1a3.935,3.935,0,0,1,2.387-.711,3.006,3.006,0,0,1,2.188.789,1.943,1.943,0,0,1,.633,1.813l-.016.047H60.758a1.162,1.162,0,0,0-.336-1A1.515,1.515,0,0,0,59.266,7.6a1.974,1.974,0,0,0-1.254.371,1.334,1.334,0,0,0-.543.871.821.821,0,0,0,.234.781,3.446,3.446,0,0,0,1.375.492,5.217,5.217,0,0,1,2.227.93,1.632,1.632,0,0,1,.586,1.57,2.62,2.62,0,0,1-1.164,1.855,4.265,4.265,0,0,1-2.484.691,3.283,3.283,0,0,1-2.395-.828A2.033,2.033,0,0,1,55.2,12.43l.016-.047h1.477a1.245,1.245,0,0,0,.445,1.2,2.1,2.1,0,0,0,1.281.379,2.3,2.3,0,0,0,1.313-.352A1.3,1.3,0,0,0,60.336,12.727Zm12.133-4.82-.781-.047a1.9,1.9,0,0,0-1.062.3,2.49,2.49,0,0,0-.781.848L68.945,15H67.406l1.266-8.453h1.375l-.031,1.2a3.552,3.552,0,0,1,1.031-1,2.384,2.384,0,0,1,1.273-.355,1.923,1.923,0,0,1,.324.027,1.787,1.787,0,0,1,.254.059Zm3.867,7.258a3.069,3.069,0,0,1-2.629-1.18,3.934,3.934,0,0,1-.6-3.047l.055-.344a5.061,5.061,0,0,1,1.488-3.047,3.89,3.89,0,0,1,2.754-1.156,2.624,2.624,0,0,1,2.352,1.07,3.846,3.846,0,0,1,.461,2.789l-.117.813H74.633a3.355,3.355,0,0,0,.266,2.121,1.7,1.7,0,0,0,1.617.777,4.177,4.177,0,0,0,1.395-.227,3.661,3.661,0,0,0,1.113-.609l.453,1a4.447,4.447,0,0,1-1.3.738A5.139,5.139,0,0,1,76.336,15.164ZM77.227,7.6a1.948,1.948,0,0,0-1.4.625,3.561,3.561,0,0,0-.9,1.578l.016.047h3.8l.016-.125a2.256,2.256,0,0,0-.219-1.535A1.41,1.41,0,0,0,77.227,7.6Zm9.2,7.4q-.016-.438-.016-.707a4.986,4.986,0,0,1,.031-.551,4.564,4.564,0,0,1-1.277,1.012,3.193,3.193,0,0,1-1.543.41,2.41,2.41,0,0,1-1.887-.684,2.155,2.155,0,0,1-.434-1.855,2.584,2.584,0,0,1,1.25-1.914,5.194,5.194,0,0,1,2.773-.664H87l.125-.836a1.369,1.369,0,0,0-.27-1.191A1.593,1.593,0,0,0,85.633,7.6a2.134,2.134,0,0,0-1.25.375,1.3,1.3,0,0,0-.609.9L82.3,8.891,82.3,8.844a2.422,2.422,0,0,1,1.117-1.707A4.1,4.1,0,0,1,85.9,6.391a3.053,3.053,0,0,1,2.172.738,2.258,2.258,0,0,1,.594,2.1l-.609,4.07a6.685,6.685,0,0,0-.09.887,4.511,4.511,0,0,0,.051.816Zm-2.383-1.125a3.032,3.032,0,0,0,1.547-.437,2.613,2.613,0,0,0,1.039-.984l.211-1.367H85.117a2.54,2.54,0,0,0-1.547.477,1.651,1.651,0,0,0-.734,1.094,1.011,1.011,0,0,0,.207.9A1.341,1.341,0,0,0,84.047,13.875ZM91.7,15H90.156L91.984,2.813h1.539Zm4.031,0H94.188l1.266-8.453h1.539ZM97.32,4.383H95.781l.234-1.57h1.539Zm2.445,9.375.016.039h4.828l-.18,1.2H97.711l.164-1.078L103.328,7.8l-.016-.039H98.852l.18-1.219h6.4l-.156,1.047ZM111.336,15q-.016-.438-.016-.707a4.986,4.986,0,0,1,.031-.551,4.564,4.564,0,0,1-1.277,1.012,3.193,3.193,0,0,1-1.543.41,2.41,2.41,0,0,1-1.887-.684,2.155,2.155,0,0,1-.434-1.855,2.584,2.584,0,0,1,1.25-1.914,5.194,5.194,0,0,1,2.773-.664h1.672l.125-.836a1.369,1.369,0,0,0-.27-1.191,1.593,1.593,0,0,0-1.223-.418,2.134,2.134,0,0,0-1.25.375,1.3,1.3,0,0,0-.609.9l-1.469.016-.008-.047a2.422,2.422,0,0,1,1.117-1.707,4.1,4.1,0,0,1,2.484-.746,3.053,3.053,0,0,1,2.172.738,2.258,2.258,0,0,1,.594,2.1l-.609,4.07a6.685,6.685,0,0,0-.09.887,4.511,4.511,0,0,0,.051.816Zm-2.383-1.125a3.032,3.032,0,0,0,1.547-.437,2.613,2.613,0,0,0,1.039-.984l.211-1.367h-1.727a2.54,2.54,0,0,0-1.547.477,1.651,1.651,0,0,0-.734,1.094,1.011,1.011,0,0,0,.207.9A1.341,1.341,0,0,0,108.953,13.875ZM115.2,10.93A6.411,6.411,0,0,1,116.555,7.6a3.334,3.334,0,0,1,2.633-1.211,2.617,2.617,0,0,1,1.262.289,2.29,2.29,0,0,1,.871.836l.7-4.7h1.539L121.734,15h-1.18l-.07-1.07a3.432,3.432,0,0,1-1.164.922,3.355,3.355,0,0,1-1.461.313,2.473,2.473,0,0,1-2.227-1.133,4.13,4.13,0,0,1-.461-2.937Zm1.516.164a3.283,3.283,0,0,0,.207,2.07,1.575,1.575,0,0,0,1.52.75,2.229,2.229,0,0,0,1.188-.32,3.028,3.028,0,0,0,.914-.891l.586-3.914a1.906,1.906,0,0,0-.645-.84,1.811,1.811,0,0,0-1.09-.309,2.105,2.105,0,0,0-1.754.926,5.128,5.128,0,0,0-.9,2.363ZM129.227,15q-.016-.438-.016-.707a4.988,4.988,0,0,1,.031-.551,4.564,4.564,0,0,1-1.277,1.012,3.193,3.193,0,0,1-1.543.41,2.41,2.41,0,0,1-1.887-.684,2.155,2.155,0,0,1-.434-1.855,2.584,2.584,0,0,1,1.25-1.914,5.194,5.194,0,0,1,2.773-.664H129.8l.125-.836a1.369,1.369,0,0,0-.27-1.191A1.593,1.593,0,0,0,128.43,7.6a2.134,2.134,0,0,0-1.25.375,1.3,1.3,0,0,0-.609.9l-1.469.016-.008-.047a2.422,2.422,0,0,1,1.117-1.707,4.1,4.1,0,0,1,2.484-.746,3.053,3.053,0,0,1,2.172.738,2.258,2.258,0,0,1,.594,2.1l-.609,4.07a6.686,6.686,0,0,0-.09.887,4.51,4.51,0,0,0,.051.816Zm-2.383-1.125a3.032,3.032,0,0,0,1.547-.437,2.613,2.613,0,0,0,1.039-.984l.211-1.367h-1.727a2.54,2.54,0,0,0-1.547.477,1.651,1.651,0,0,0-.734,1.094,1.011,1.011,0,0,0,.207.9A1.341,1.341,0,0,0,126.844,13.875ZM138.1,12.727a.908.908,0,0,0-.266-.836,3.27,3.27,0,0,0-1.391-.555,5.344,5.344,0,0,1-2.176-.9,1.562,1.562,0,0,1-.582-1.547A2.6,2.6,0,0,1,134.809,7.1a3.935,3.935,0,0,1,2.387-.711,3.006,3.006,0,0,1,2.188.789,1.943,1.943,0,0,1,.633,1.813L140,9.039h-1.477a1.162,1.162,0,0,0-.336-1,1.515,1.515,0,0,0-1.156-.437,1.974,1.974,0,0,0-1.254.371,1.334,1.334,0,0,0-.543.871.821.821,0,0,0,.234.781,3.446,3.446,0,0,0,1.375.492,5.217,5.217,0,0,1,2.227.93,1.632,1.632,0,0,1,.586,1.57,2.62,2.62,0,0,1-1.164,1.855,4.265,4.265,0,0,1-2.484.691,3.283,3.283,0,0,1-2.395-.828,2.033,2.033,0,0,1-.652-1.906l.016-.047h1.477a1.245,1.245,0,0,0,.445,1.2,2.1,2.1,0,0,0,1.281.379,2.3,2.3,0,0,0,1.313-.352A1.3,1.3,0,0,0,138.1,12.727Zm14.859-1.633a5.4,5.4,0,0,1-1.316,2.984,3.4,3.4,0,0,1-2.582,1.086,2.9,2.9,0,0,1-1.312-.277,2.238,2.238,0,0,1-.9-.816l-.625,4.18h-1.539l1.75-11.7h1.18l.078,1.094a3.5,3.5,0,0,1,1.172-.93,3.372,3.372,0,0,1,1.484-.32,2.371,2.371,0,0,1,2.219,1.262,5.081,5.081,0,0,1,.414,3.277Zm-1.516-.164a4.127,4.127,0,0,0-.2-2.391,1.558,1.558,0,0,0-1.539-.9,2.229,2.229,0,0,0-1.16.309,3,3,0,0,0-.9.84l-.609,4.063a1.819,1.819,0,0,0,.641.816,1.893,1.893,0,0,0,1.1.293,2.237,2.237,0,0,0,1.754-.809,3.935,3.935,0,0,0,.895-2.059Zm3.109-.234a5.387,5.387,0,0,1,1.473-3.125,4,4,0,0,1,2.941-1.18,2.942,2.942,0,0,1,2.559,1.223,4.1,4.1,0,0,1,.6,3.082l-.031.172A5.4,5.4,0,0,1,160.617,14a4.018,4.018,0,0,1-2.945,1.168,2.945,2.945,0,0,1-2.559-1.219,4.063,4.063,0,0,1-.59-3.078Zm1.508.172a3.681,3.681,0,0,0,.227,2.242,1.6,1.6,0,0,0,1.563.852,2.211,2.211,0,0,0,1.777-.887,4.5,4.5,0,0,0,.926-2.207l.031-.172a3.683,3.683,0,0,0-.238-2.234,1.6,1.6,0,0,0-1.559-.859A2.212,2.212,0,0,0,157,8.5a4.425,4.425,0,0,0-.91,2.2Zm12.359-2.961-.781-.047a1.9,1.9,0,0,0-1.062.3,2.49,2.49,0,0,0-.781.848L164.9,15h-1.539l1.266-8.453H166l-.031,1.2a3.552,3.552,0,0,1,1.031-1,2.384,2.384,0,0,1,1.273-.355,1.923,1.923,0,0,1,.324.027,1.787,1.787,0,0,1,.254.059Zm9.789,4.82a.908.908,0,0,0-.266-.836,3.27,3.27,0,0,0-1.391-.555,5.344,5.344,0,0,1-2.176-.9,1.562,1.562,0,0,1-.582-1.547A2.6,2.6,0,0,1,174.918,7.1a3.935,3.935,0,0,1,2.387-.711,3.006,3.006,0,0,1,2.188.789,1.943,1.943,0,0,1,.633,1.813l-.016.047h-1.477a1.162,1.162,0,0,0-.336-1,1.515,1.515,0,0,0-1.156-.437,1.974,1.974,0,0,0-1.254.371,1.334,1.334,0,0,0-.543.871.821.821,0,0,0,.234.781,3.446,3.446,0,0,0,1.375.492,5.217,5.217,0,0,1,2.227.93,1.632,1.632,0,0,1,.586,1.57,2.62,2.62,0,0,1-1.164,1.855,4.265,4.265,0,0,1-2.484.691,3.283,3.283,0,0,1-2.395-.828,2.033,2.033,0,0,1-.652-1.906l.016-.047h1.477a1.245,1.245,0,0,0,.445,1.2,2.1,2.1,0,0,0,1.281.379,2.3,2.3,0,0,0,1.313-.352A1.3,1.3,0,0,0,178.211,12.727Zm6.57,2.438a3.069,3.069,0,0,1-2.629-1.18,3.934,3.934,0,0,1-.6-3.047l.055-.344A5.061,5.061,0,0,1,183.1,7.547a3.89,3.89,0,0,1,2.754-1.156,2.624,2.624,0,0,1,2.352,1.07,3.845,3.845,0,0,1,.461,2.789l-.117.813h-5.469a3.355,3.355,0,0,0,.266,2.121,1.7,1.7,0,0,0,1.617.777,4.177,4.177,0,0,0,1.395-.227,3.661,3.661,0,0,0,1.113-.609l.453,1a4.447,4.447,0,0,1-1.3.738A5.139,5.139,0,0,1,184.781,15.164Zm.891-7.562a1.948,1.948,0,0,0-1.4.625,3.561,3.561,0,0,0-.9,1.578l.016.047h3.8l.016-.125a2.257,2.257,0,0,0-.219-1.535A1.41,1.41,0,0,0,185.672,7.6Zm6.594.016a3.411,3.411,0,0,1,1.18-.91,3.605,3.605,0,0,1,1.539-.316,2.3,2.3,0,0,1,1.359.391,1.942,1.942,0,0,1,.75,1.164A3.722,3.722,0,0,1,198.316,6.8a3.187,3.187,0,0,1,1.613-.414,2.158,2.158,0,0,1,1.879.895,3.643,3.643,0,0,1,.379,2.66L201.43,15h-1.539l.758-5.07a2.626,2.626,0,0,0-.152-1.793,1.381,1.381,0,0,0-1.215-.5,1.886,1.886,0,0,0-1.34.555,2.884,2.884,0,0,0-.8,1.383.063.063,0,0,0-.008.027v.027l-.8,5.367h-1.547l.758-5.07a2.571,2.571,0,0,0-.168-1.762,1.339,1.339,0,0,0-1.2-.527,2.236,2.236,0,0,0-1.191.309,2.473,2.473,0,0,0-.832.855l-.93,6.2H189.68l1.266-8.453h1.375ZM208.859,15q-.016-.438-.016-.707a4.988,4.988,0,0,1,.031-.551,4.564,4.564,0,0,1-1.277,1.012,3.193,3.193,0,0,1-1.543.41,2.41,2.41,0,0,1-1.887-.684,2.155,2.155,0,0,1-.434-1.855,2.584,2.584,0,0,1,1.25-1.914,5.194,5.194,0,0,1,2.773-.664h1.672l.125-.836a1.369,1.369,0,0,0-.27-1.191,1.593,1.593,0,0,0-1.223-.418,2.134,2.134,0,0,0-1.25.375,1.3,1.3,0,0,0-.609.9l-1.469.016-.008-.047a2.422,2.422,0,0,1,1.117-1.707,4.1,4.1,0,0,1,2.484-.746,3.053,3.053,0,0,1,2.172.738,2.258,2.258,0,0,1,.594,2.1l-.609,4.07a6.686,6.686,0,0,0-.09.887,4.51,4.51,0,0,0,.051.816Zm-2.383-1.125a3.032,3.032,0,0,0,1.547-.437,2.613,2.613,0,0,0,1.039-.984l.211-1.367h-1.727a2.54,2.54,0,0,0-1.547.477,1.651,1.651,0,0,0-.734,1.094,1.011,1.011,0,0,0,.207.9A1.341,1.341,0,0,0,206.477,13.875Zm8.555-6.117a3.653,3.653,0,0,1,1.207-1.012,3.241,3.241,0,0,1,1.5-.355,2.384,2.384,0,0,1,1.973.809,3.111,3.111,0,0,1,.4,2.465L219.32,15h-1.539l.8-5.3a2.11,2.11,0,0,0-.2-1.605,1.585,1.585,0,0,0-1.289-.449,2.518,2.518,0,0,0-1.234.3,2.729,2.729,0,0,0-.922.832L214,15h-1.539l1.266-8.453H215.1ZM226.75,15q-.016-.438-.016-.707a4.988,4.988,0,0,1,.031-.551,4.564,4.564,0,0,1-1.277,1.012,3.193,3.193,0,0,1-1.543.41,2.41,2.41,0,0,1-1.887-.684,2.155,2.155,0,0,1-.434-1.855,2.584,2.584,0,0,1,1.25-1.914,5.194,5.194,0,0,1,2.773-.664h1.672l.125-.836a1.369,1.369,0,0,0-.27-1.191,1.593,1.593,0,0,0-1.223-.418,2.134,2.134,0,0,0-1.25.375,1.3,1.3,0,0,0-.609.9l-1.469.016-.008-.047a2.422,2.422,0,0,1,1.117-1.707,4.1,4.1,0,0,1,2.484-.746,3.053,3.053,0,0,1,2.172.738,2.258,2.258,0,0,1,.594,2.1l-.609,4.07a6.686,6.686,0,0,0-.09.887,4.51,4.51,0,0,0,.051.816Zm-2.383-1.125a3.032,3.032,0,0,0,1.547-.437,2.613,2.613,0,0,0,1.039-.984l.211-1.367h-1.727a2.54,2.54,0,0,0-1.547.477,1.651,1.651,0,0,0-.734,1.094,1.011,1.011,0,0,0,.207.9A1.341,1.341,0,0,0,224.367,13.875ZM56.973,36.016l.117.938.047.008.4-.945,4.2-8.391h1.664L57.465,39h-1.32L53.621,27.625h1.672ZM64.645,39H63.105l1.266-8.453H65.91Zm1.594-10.617H64.7l.234-1.57h1.539Zm6.047,8.344a.908.908,0,0,0-.266-.836,3.27,3.27,0,0,0-1.391-.555,5.344,5.344,0,0,1-2.176-.9,1.562,1.562,0,0,1-.582-1.547A2.6,2.6,0,0,1,68.992,31.1a3.935,3.935,0,0,1,2.387-.711,3.006,3.006,0,0,1,2.188.789,1.943,1.943,0,0,1,.633,1.813l-.016.047H72.707a1.162,1.162,0,0,0-.336-1,1.515,1.515,0,0,0-1.156-.437,1.974,1.974,0,0,0-1.254.371,1.334,1.334,0,0,0-.543.871.821.821,0,0,0,.234.781,3.447,3.447,0,0,0,1.375.492,5.217,5.217,0,0,1,2.227.93,1.632,1.632,0,0,1,.586,1.57,2.62,2.62,0,0,1-1.164,1.855,4.265,4.265,0,0,1-2.484.691,3.283,3.283,0,0,1-2.395-.828,2.033,2.033,0,0,1-.652-1.906l.016-.047h1.477a1.245,1.245,0,0,0,.445,1.2,2.1,2.1,0,0,0,1.281.379,2.3,2.3,0,0,0,1.313-.352A1.3,1.3,0,0,0,72.285,36.727ZM77.043,39H75.5l1.266-8.453h1.539Zm1.594-10.617H77.1l.234-1.57h1.539Zm4.484.125-.3,2.039h1.6l-.172,1.141h-1.6l-.766,5.133a1.052,1.052,0,0,0,.113.848.793.793,0,0,0,.621.23,1.571,1.571,0,0,0,.3-.035,2.1,2.1,0,0,0,.285-.074l.055,1.055a1.634,1.634,0,0,1-.543.23,2.7,2.7,0,0,1-.676.09,1.735,1.735,0,0,1-1.395-.57,2.153,2.153,0,0,1-.3-1.773l.766-5.133H79.762l.172-1.141h1.344l.3-2.039ZM90,39q-.016-.438-.016-.707a4.986,4.986,0,0,1,.031-.551,4.564,4.564,0,0,1-1.277,1.012,3.193,3.193,0,0,1-1.543.41A2.41,2.41,0,0,1,85.3,38.48a2.155,2.155,0,0,1-.434-1.855,2.584,2.584,0,0,1,1.25-1.914,5.194,5.194,0,0,1,2.773-.664h1.672l.125-.836a1.369,1.369,0,0,0-.27-1.191A1.593,1.593,0,0,0,89.2,31.6a2.134,2.134,0,0,0-1.25.375,1.3,1.3,0,0,0-.609.9l-1.469.016-.008-.047a2.422,2.422,0,0,1,1.117-1.707,4.1,4.1,0,0,1,2.484-.746,3.053,3.053,0,0,1,2.172.738,2.258,2.258,0,0,1,.594,2.1l-.609,4.07a6.685,6.685,0,0,0-.09.887,4.511,4.511,0,0,0,.051.816Zm-2.383-1.125a3.032,3.032,0,0,0,1.547-.437,2.613,2.613,0,0,0,1.039-.984l.211-1.367H88.684a2.54,2.54,0,0,0-1.547.477,1.651,1.651,0,0,0-.734,1.094,1.011,1.011,0,0,0,.207.9A1.341,1.341,0,0,0,87.613,37.875Zm11.258-1.148a.908.908,0,0,0-.266-.836,3.27,3.27,0,0,0-1.391-.555,5.344,5.344,0,0,1-2.176-.9,1.562,1.562,0,0,1-.582-1.547A2.6,2.6,0,0,1,95.578,31.1a3.935,3.935,0,0,1,2.387-.711,3.006,3.006,0,0,1,2.188.789,1.943,1.943,0,0,1,.633,1.813l-.016.047H99.293a1.162,1.162,0,0,0-.336-1A1.515,1.515,0,0,0,97.8,31.6a1.974,1.974,0,0,0-1.254.371,1.334,1.334,0,0,0-.543.871.821.821,0,0,0,.234.781,3.447,3.447,0,0,0,1.375.492,5.217,5.217,0,0,1,2.227.93,1.632,1.632,0,0,1,.586,1.57,2.62,2.62,0,0,1-1.164,1.855,4.265,4.265,0,0,1-2.484.691,3.283,3.283,0,0,1-2.395-.828,2.033,2.033,0,0,1-.652-1.906l.016-.047h1.477a1.245,1.245,0,0,0,.445,1.2,2.1,2.1,0,0,0,1.281.379,2.3,2.3,0,0,0,1.313-.352A1.3,1.3,0,0,0,98.871,36.727Zm14.859-1.633a5.4,5.4,0,0,1-1.316,2.984,3.4,3.4,0,0,1-2.582,1.086,2.9,2.9,0,0,1-1.312-.277,2.238,2.238,0,0,1-.9-.816L107,42.25h-1.539l1.75-11.7h1.18l.078,1.094a3.5,3.5,0,0,1,1.172-.93,3.372,3.372,0,0,1,1.484-.32,2.371,2.371,0,0,1,2.219,1.262,5.081,5.081,0,0,1,.414,3.277Zm-1.516-.164a4.127,4.127,0,0,0-.2-2.391,1.558,1.558,0,0,0-1.539-.9,2.229,2.229,0,0,0-1.16.309,3,3,0,0,0-.9.84l-.609,4.063a1.819,1.819,0,0,0,.641.816,1.893,1.893,0,0,0,1.1.293,2.237,2.237,0,0,0,1.754-.809,3.935,3.935,0,0,0,.895-2.059Zm3.109-.234A5.387,5.387,0,0,1,116.8,31.57a4,4,0,0,1,2.941-1.18,2.942,2.942,0,0,1,2.559,1.223,4.1,4.1,0,0,1,.6,3.082l-.031.172A5.4,5.4,0,0,1,121.387,38a4.018,4.018,0,0,1-2.945,1.168,2.945,2.945,0,0,1-2.559-1.219,4.063,4.063,0,0,1-.59-3.078Zm1.508.172a3.681,3.681,0,0,0,.227,2.242,1.6,1.6,0,0,0,1.563.852,2.211,2.211,0,0,0,1.777-.887,4.5,4.5,0,0,0,.926-2.207l.031-.172a3.683,3.683,0,0,0-.238-2.234,1.6,1.6,0,0,0-1.559-.859,2.212,2.212,0,0,0-1.785.895,4.425,4.425,0,0,0-.91,2.2Zm12.359-2.961-.781-.047a1.9,1.9,0,0,0-1.062.3,2.49,2.49,0,0,0-.781.848l-.9,5.992h-1.539l1.266-8.453h1.375l-.031,1.2a3.552,3.552,0,0,1,1.031-1,2.384,2.384,0,0,1,1.273-.355,1.923,1.923,0,0,1,.324.027,1.787,1.787,0,0,1,.254.059Zm9.789,4.82a.908.908,0,0,0-.266-.836,3.27,3.27,0,0,0-1.391-.555,5.344,5.344,0,0,1-2.176-.9,1.562,1.562,0,0,1-.582-1.547,2.6,2.6,0,0,1,1.121-1.789,3.935,3.935,0,0,1,2.387-.711,3.006,3.006,0,0,1,2.188.789,1.943,1.943,0,0,1,.633,1.813l-.016.047H139.4a1.162,1.162,0,0,0-.336-1,1.515,1.515,0,0,0-1.156-.437,1.974,1.974,0,0,0-1.254.371,1.334,1.334,0,0,0-.543.871.821.821,0,0,0,.234.781,3.447,3.447,0,0,0,1.375.492,5.217,5.217,0,0,1,2.227.93,1.632,1.632,0,0,1,.586,1.57,2.62,2.62,0,0,1-1.164,1.855,4.265,4.265,0,0,1-2.484.691,3.283,3.283,0,0,1-2.395-.828,2.033,2.033,0,0,1-.652-1.906l.016-.047h1.477a1.245,1.245,0,0,0,.445,1.2,2.1,2.1,0,0,0,1.281.379,2.3,2.3,0,0,0,1.313-.352A1.3,1.3,0,0,0,138.98,36.727Zm6.57,2.438a3.069,3.069,0,0,1-2.629-1.18,3.934,3.934,0,0,1-.6-3.047l.055-.344a5.061,5.061,0,0,1,1.488-3.047,3.89,3.89,0,0,1,2.754-1.156,2.624,2.624,0,0,1,2.352,1.07,3.845,3.845,0,0,1,.461,2.789l-.117.813h-5.469a3.355,3.355,0,0,0,.266,2.121,1.7,1.7,0,0,0,1.617.777,4.177,4.177,0,0,0,1.395-.227,3.661,3.661,0,0,0,1.113-.609l.453,1a4.447,4.447,0,0,1-1.3.738A5.139,5.139,0,0,1,145.551,39.164Zm.891-7.562a1.948,1.948,0,0,0-1.4.625,3.561,3.561,0,0,0-.9,1.578l.016.047h3.8l.016-.125a2.257,2.257,0,0,0-.219-1.535A1.41,1.41,0,0,0,146.441,31.6Zm6.594.016a3.411,3.411,0,0,1,1.18-.91,3.605,3.605,0,0,1,1.539-.316,2.3,2.3,0,0,1,1.359.391,1.942,1.942,0,0,1,.75,1.164,3.722,3.722,0,0,1,1.223-1.141,3.187,3.187,0,0,1,1.613-.414,2.158,2.158,0,0,1,1.879.895,3.643,3.643,0,0,1,.379,2.66L162.2,39H160.66l.758-5.07a2.626,2.626,0,0,0-.152-1.793,1.381,1.381,0,0,0-1.215-.5,1.886,1.886,0,0,0-1.34.555,2.884,2.884,0,0,0-.8,1.383.063.063,0,0,0-.008.027v.027L157.1,39h-1.547l.758-5.07a2.571,2.571,0,0,0-.168-1.762,1.339,1.339,0,0,0-1.2-.527,2.236,2.236,0,0,0-1.191.309,2.473,2.473,0,0,0-.832.855l-.93,6.2h-1.539l1.266-8.453h1.375ZM169.629,39q-.016-.438-.016-.707a4.988,4.988,0,0,1,.031-.551,4.564,4.564,0,0,1-1.277,1.012,3.193,3.193,0,0,1-1.543.41,2.41,2.41,0,0,1-1.887-.684,2.155,2.155,0,0,1-.434-1.855,2.584,2.584,0,0,1,1.25-1.914,5.194,5.194,0,0,1,2.773-.664H170.2l.125-.836a1.369,1.369,0,0,0-.27-1.191,1.593,1.593,0,0,0-1.223-.418,2.134,2.134,0,0,0-1.25.375,1.3,1.3,0,0,0-.609.9l-1.469.016-.008-.047a2.422,2.422,0,0,1,1.117-1.707,4.1,4.1,0,0,1,2.484-.746,3.053,3.053,0,0,1,2.172.738,2.258,2.258,0,0,1,.594,2.1l-.609,4.07a6.686,6.686,0,0,0-.09.887,4.51,4.51,0,0,0,.051.816Zm-2.383-1.125a3.032,3.032,0,0,0,1.547-.437,2.613,2.613,0,0,0,1.039-.984l.211-1.367h-1.727a2.54,2.54,0,0,0-1.547.477,1.651,1.651,0,0,0-.734,1.094,1.011,1.011,0,0,0,.207.9A1.341,1.341,0,0,0,167.246,37.875Zm8.555-6.117a3.653,3.653,0,0,1,1.207-1.012,3.241,3.241,0,0,1,1.5-.355,2.384,2.384,0,0,1,1.973.809,3.111,3.111,0,0,1,.4,2.465L180.09,39h-1.539l.8-5.3a2.11,2.11,0,0,0-.2-1.605,1.585,1.585,0,0,0-1.289-.449,2.518,2.518,0,0,0-1.234.3,2.729,2.729,0,0,0-.922.832L174.77,39H173.23l1.266-8.453h1.375ZM187.52,39q-.016-.438-.016-.707a4.988,4.988,0,0,1,.031-.551,4.564,4.564,0,0,1-1.277,1.012,3.193,3.193,0,0,1-1.543.41,2.41,2.41,0,0,1-1.887-.684,2.155,2.155,0,0,1-.434-1.855,2.584,2.584,0,0,1,1.25-1.914,5.194,5.194,0,0,1,2.773-.664h1.672l.125-.836a1.369,1.369,0,0,0-.27-1.191,1.593,1.593,0,0,0-1.223-.418,2.134,2.134,0,0,0-1.25.375,1.3,1.3,0,0,0-.609.9l-1.469.016-.008-.047a2.422,2.422,0,0,1,1.117-1.707,4.1,4.1,0,0,1,2.484-.746,3.053,3.053,0,0,1,2.172.738,2.258,2.258,0,0,1,.594,2.1l-.609,4.07a6.686,6.686,0,0,0-.09.887,4.51,4.51,0,0,0,.051.816Zm-2.383-1.125a3.032,3.032,0,0,0,1.547-.437,2.613,2.613,0,0,0,1.039-.984l.211-1.367h-1.727a2.54,2.54,0,0,0-1.547.477,1.651,1.651,0,0,0-.734,1.094,1.011,1.011,0,0,0,.207.9A1.341,1.341,0,0,0,185.137,37.875Z" transform="translate(380.051 2615.184)" fill="#12263f"/>
    <path id="Trazado_908258" data-name="Trazado 908258" d="M0,0H241" transform="translate(381.551 2636.684)" fill="none" stroke="#12263f" stroke-width="1"/>
  </g>
</svg>
