<svg xmlns="http://www.w3.org/2000/svg" xmlns:xlink="http://www.w3.org/1999/xlink" width="113" height="113" viewBox="0 0 113 113">
  <defs>
    <filter id="Trazado_906466" x="0" y="0" width="113" height="113" filterUnits="userSpaceOnUse">
      <feOffset dy="3" input="SourceAlpha"/>
      <feGaussianBlur stdDeviation="3" result="blur"/>
      <feFlood flood-opacity="0.161"/>
      <feComposite operator="in" in2="blur"/>
      <feComposite in="SourceGraphic"/>
    </filter>
  </defs>
  <g id="Grupo_1114374" data-name="Grupo 1114374" transform="translate(-586.051 -3847)">
    <g transform="matrix(1, 0, 0, 1, 586.05, 3847)" filter="url(#Trazado_906466)">
      <g id="Trazado_906466-2" data-name="Trazado 906466" transform="translate(9 6)" fill="#f3f0ea">
        <path d="M 47.49993515014648 93.5 C 41.28932189941406 93.5 35.26528167724609 92.28397369384766 29.59514808654785 89.88571929931641 C 24.1176815032959 87.56894683837891 19.1981086730957 84.25197601318359 14.97306823730469 80.02693176269531 C 10.74802875518799 75.80189514160156 7.431055068969727 70.88231658935547 5.11428165435791 65.40485382080078 C 2.716028451919556 59.73471832275391 1.500001788139343 53.71067810058594 1.500001788139343 47.50006484985352 C 1.500001788139343 41.28932189941406 2.716028451919556 35.26528167724609 5.11428165435791 29.59514617919922 C 7.431055068969727 24.11767959594727 10.74802875518799 19.19810676574707 14.97306823730469 14.97306632995605 C 19.1981086730957 10.74802684783936 24.1176815032959 7.431053161621094 29.59514808654785 5.114280223846436 C 35.26528167724609 2.716026782989502 41.28932189941406 1.5 47.49993515014648 1.5 C 53.71054840087891 1.5 59.73458862304688 2.716026782989502 65.40472412109375 5.114280223846436 C 70.88218688964844 7.431053161621094 75.80176544189453 10.74802684783936 80.02680206298828 14.97306632995605 C 84.25183868408203 19.19810676574707 87.56881713867188 24.11767959594727 89.88558959960938 29.59514617919922 C 92.28384399414062 35.26528167724609 93.49987030029297 41.28932189941406 93.49987030029297 47.49993515014648 C 93.49987030029297 53.71067810058594 92.28384399414062 59.73471832275391 89.88558959960938 65.40485382080078 C 87.56881713867188 70.88231658935547 84.25183868408203 75.80189514160156 80.02680206298828 80.02693176269531 C 75.80176544189453 84.25197601318359 70.88218688964844 87.56894683837891 65.40472412109375 89.88571929931641 C 59.73458862304688 92.28397369384766 53.71054840087891 93.5 47.49993515014648 93.5 Z" stroke="none"/>
        <path d="M 47.49993515014648 3 C 41.49116516113281 3 35.66371917724609 4.176155090332031 30.17947387695312 6.495796203613281 C 24.88081359863281 8.7369384765625 20.12149047851562 11.94596862792969 16.03372192382812 16.03372192382812 C 11.94596862792969 20.12149047851562 8.7369384765625 24.88081359863281 6.495796203613281 30.17947387695312 C 4.1761474609375 35.66372299194336 3 41.49116897583008 3 47.50006103515625 C 3 53.50883102416992 4.1761474609375 59.33627700805664 6.495796203613281 64.82052612304688 C 8.7369384765625 70.11918640136719 11.94596862792969 74.87850952148438 16.03372192382812 78.96627807617188 C 20.12149047851562 83.05403137207031 24.88081359863281 86.2630615234375 30.17947387695312 88.50419616699219 C 35.66371917724609 90.82384490966797 41.49116516113281 92 47.49993515014648 92 C 53.50870513916016 92 59.33615112304688 90.82384490966797 64.82039642333984 88.50419616699219 C 70.11905670166016 86.2630615234375 74.87837982177734 83.05403137207031 78.96614837646484 78.96627807617188 C 83.05390167236328 74.87850952148438 86.26293182373047 70.11918640136719 88.50407409667969 64.82052612304688 C 90.82372283935547 59.33627700805664 91.99987030029297 53.50883102416992 91.99987030029297 47.49993896484375 C 91.99987030029297 41.49116897583008 90.82372283935547 35.66372299194336 88.50407409667969 30.17947387695312 C 86.26293182373047 24.88081359863281 83.05390167236328 20.12149047851562 78.96614837646484 16.03372192382812 C 74.87837982177734 11.94596862792969 70.11905670166016 8.7369384765625 64.82039642333984 6.495796203613281 C 59.33615112304688 4.176155090332031 53.50870513916016 3 47.49993515014648 3 M 47.49993515014648 0 C 73.73342895507812 0 94.99987030029297 21.26644897460938 94.99987030029297 47.49993896484375 L 94.99987030029297 47.50006103515625 C 94.99987030029297 73.73355102539062 73.73342895507812 95 47.49993515014648 95 C 21.26644134521484 95 0 73.73355102539062 0 47.50006103515625 L 0 47.49993896484375 C 0 21.26644897460938 21.26644134521484 0 47.49993515014648 0 Z" stroke="none" fill="#fff"/>
      </g>
    </g>
    <g id="Grupo_1114373" data-name="Grupo 1114373" transform="translate(585.781 3868)">
      <path id="Trazado_907314" data-name="Trazado 907314" d="M342.757,132h-6.113A10.383,10.383,0,0,1,332,136.041v6.717a.769.769,0,0,0,.769.769h9.991a.769.769,0,0,0,.769-.769v-9.991A.769.769,0,0,0,342.757,132Z" transform="translate(-265.252 -115.278)" fill="#cb97e7"/>
      <g id="Grupo_1114360" data-name="Grupo 1114360" transform="translate(66.746 17.579)">
        <path id="Trazado_907315" data-name="Trazado 907315" d="M336.053,148.673v-9.9A10.374,10.374,0,0,1,332,141.956v6.717a.769.769,0,0,0,.769.769h4.054A.769.769,0,0,1,336.053,148.673Z" transform="translate(-331.999 -138.772)" fill="#bd80e1"/>
      </g>
      <g id="Grupo_1114371" data-name="Grupo 1114371" transform="translate(29.22 0.95)">
        <path id="Trazado_907316" data-name="Trazado 907316" d="M108.987,273.922l2.171-5.908a14.836,14.836,0,0,1-14.1,0l2.171,5.908Z" transform="translate(-89.293 -235.012)" fill="#fff0ad"/>
        <path id="Trazado_907317" data-name="Trazado 907317" d="M104.565,273.922l-1.531-4.165a14.723,14.723,0,0,1-5.977-1.743l2.171,5.908Z" transform="translate(-89.294 -235.012)" fill="#ffe177"/>
        <path id="Trazado_907318" data-name="Trazado 907318" d="M126,393.588v1.977a1.9,1.9,0,0,0,1.9,1.9h2.968a1.9,1.9,0,0,0,1.9-1.9v-1.977Z" transform="translate(-114.57 -344.679)" fill="#02c7dd"/>
        <path id="Trazado_907319" data-name="Trazado 907319" d="M129.167,395.565v-1.977H126v1.977a1.9,1.9,0,0,0,1.9,1.9h2.968c.034,0,.066,0,.1-.005A1.9,1.9,0,0,1,129.167,395.565Z" transform="translate(-114.57 -344.679)" fill="#07b2cd"/>
        <path id="Trazado_907320" data-name="Trazado 907320" d="M113.43,362.995v3.369a.633.633,0,0,0,.633.633h8.686a.633.633,0,0,0,.633-.633v-3.369Z" transform="translate(-103.592 -317.961)" fill="#a6e7f0"/>
        <path id="Trazado_907321" data-name="Trazado 907321" d="M116.6,366.364V363H113.43v3.369a.633.633,0,0,0,.633.633h3.167A.633.633,0,0,1,116.6,366.364Z" transform="translate(-103.592 -317.961)" fill="#6bd9e7"/>
        <path id="Trazado_907322" data-name="Trazado 907322" d="M58.8,53.381a10.362,10.362,0,0,1,.305-2.5,14.815,14.815,0,1,0,6.3,12.139,10.344,10.344,0,0,1-6.6-9.643Z" transform="translate(-35.77 -43.038)" fill="#ffe177"/>
        <g id="Grupo_1114361" data-name="Grupo 1114361" transform="translate(0 5.155)">
          <path id="Trazado_907323" data-name="Trazado 907323" d="M42.146,63.008A14.819,14.819,0,0,1,53.772,48.539a14.814,14.814,0,1,0,0,28.939A14.819,14.819,0,0,1,42.146,63.008Z" transform="translate(-35.769 -48.194)" fill="#ffd15b"/>
        </g>
        <g id="Grupo_1114362" data-name="Grupo 1114362" transform="translate(7.938 38.909)">
          <path id="Trazado_907324" data-name="Trazado 907324" d="M110.916,320.9H99.7a1.267,1.267,0,0,1-1.267-1.267v-3.717a1.267,1.267,0,0,1,1.267-1.267h11.22a1.267,1.267,0,0,1,1.267,1.267v3.717A1.267,1.267,0,0,1,110.916,320.9Z" transform="translate(-98.429 -314.651)" fill="#eaf9fa"/>
        </g>
        <path id="Trazado_907325" data-name="Trazado 907325" d="M102.683,319.635v-3.717a1.267,1.267,0,0,1,1.267-1.267H99.7a1.267,1.267,0,0,0-1.267,1.267v3.717A1.267,1.267,0,0,0,99.7,320.9h4.253A1.267,1.267,0,0,1,102.683,319.635Z" transform="translate(-90.492 -275.742)" fill="#d4f2f6"/>
        <g id="Grupo_1114363" data-name="Grupo 1114363" transform="translate(26.774 33.935)">
          <path id="Trazado_907326" data-name="Trazado 907326" d="M271.988,290.557a4.448,4.448,0,0,1-2.834-.772.381.381,0,0,0-.6.309v6.091a.633.633,0,0,1-.633.633h-6.091a.381.381,0,0,0-.309.6,4.465,4.465,0,1,1-7.358-.011.379.379,0,0,0-.316-.59h-6.091a.633.633,0,0,1-.633-.633V291.4a.63.63,0,0,1,.682-.631,4.56,4.56,0,0,0,.711.013,4.465,4.465,0,0,0-.277-8.922q-.211,0-.416.019a.635.635,0,0,1-.7-.629v-5.231a.633.633,0,0,1,.633-.633h4.988a.631.631,0,0,1,.632.648c0,.044,0,.089,0,.134a4.465,4.465,0,0,0,8.93,0q0-.067,0-.134a.631.631,0,0,1,.632-.648h4.988a.633.633,0,0,1,.633.633v6.091a.379.379,0,0,0,.59.316,4.465,4.465,0,1,1,2.845,8.13Z" transform="translate(-247.12 -275.386)" fill="#fe9738"/>
        </g>
        <g id="Grupo_1114364" data-name="Grupo 1114364" transform="translate(26.774 33.935)">
          <path id="Trazado_907327" data-name="Trazado 907327" d="M271.988,290.557a4.448,4.448,0,0,1-2.834-.772.381.381,0,0,0-.6.309v6.091a.633.633,0,0,1-.633.633h-6.091a.381.381,0,0,0-.309.6,4.465,4.465,0,1,1-7.358-.011.379.379,0,0,0-.316-.59h-6.091a.633.633,0,0,1-.633-.633V291.4a.63.63,0,0,1,.682-.631,4.56,4.56,0,0,0,.711.013,4.465,4.465,0,0,0-.277-8.922q-.211,0-.416.019a.635.635,0,0,1-.7-.629v-5.231a.633.633,0,0,1,.633-.633h4.988a.631.631,0,0,1,.632.648c0,.044,0,.089,0,.134a4.465,4.465,0,0,0,8.93,0q0-.067,0-.134a.631.631,0,0,1,.632-.648h4.988a.633.633,0,0,1,.633.633v6.091a.379.379,0,0,0,.59.316,4.465,4.465,0,1,1,2.845,8.13Z" transform="translate(-247.12 -275.386)" fill="#fe9738"/>
        </g>
        <g id="Grupo_1114367" data-name="Grupo 1114367" transform="translate(26.773 33.936)">
          <g id="Grupo_1114365" data-name="Grupo 1114365" transform="translate(0)">
            <path id="Trazado_907328" data-name="Trazado 907328" d="M247.818,281.882q.206-.019.416-.019a4.455,4.455,0,0,1,3.415,1.589v-7.43a.633.633,0,0,1,.633-.633h-4.531a.633.633,0,0,0-.633.633v5.231A.635.635,0,0,0,247.818,281.882Z" transform="translate(-247.118 -275.388)" fill="#fe860a"/>
          </g>
          <g id="Grupo_1114366" data-name="Grupo 1114366" transform="translate(0 13.809)">
            <path id="Trazado_907329" data-name="Trazado 907329" d="M251.649,391.388V384.4a4.462,4.462,0,0,1-3.138,1.587,4.546,4.546,0,0,1-.711-.013.63.63,0,0,0-.682.632v4.784a.633.633,0,0,0,.633.633h4.531A.633.633,0,0,1,251.649,391.388Z" transform="translate(-247.118 -384.398)" fill="#fe860a"/>
          </g>
        </g>
        <g id="Grupo_1114370" data-name="Grupo 1114370" transform="translate(23.026)">
          <g id="Grupo_1114368" data-name="Grupo 1114368">
            <circle id="Elipse_12785" data-name="Elipse 12785" cx="10.343" cy="10.343" r="10.343" fill="#05e39c"/>
          </g>
          <g id="Grupo_1114369" data-name="Grupo 1114369" transform="translate(0 0)">
            <path id="Trazado_907330" data-name="Trazado 907330" d="M222.878,17.843A10.346,10.346,0,0,1,230.55,7.85a10.343,10.343,0,1,0,0,19.985,10.346,10.346,0,0,1-7.672-9.993Z" transform="translate(-217.536 -7.5)" fill="#0ed290"/>
          </g>
        </g>
      </g>
      <g id="Grupo_1114372" data-name="Grupo 1114372" transform="translate(28.27 0)">
        <path id="Trazado_907331" data-name="Trazado 907331" d="M269.086,275.859a5.419,5.419,0,0,0-6.135-1.266v-5.123a1.585,1.585,0,0,0-1.583-1.583h-4.988a1.593,1.593,0,0,0-1.138.482,1.563,1.563,0,0,0-.444,1.145c0,.035,0,.07,0,.1a3.515,3.515,0,0,1-7.03,0c0-.035,0-.07,0-.1a1.563,1.563,0,0,0-.444-1.145,1.593,1.593,0,0,0-1.138-.481H241.2a1.585,1.585,0,0,0-1.583,1.583V274.7a1.582,1.582,0,0,0,.515,1.167,1.6,1.6,0,0,0,1.222.409c.108-.01.219-.015.329-.015a3.515,3.515,0,0,1,.22,7.023,3.622,3.622,0,0,1-.562-.01,1.568,1.568,0,0,0-1.2.4,1.592,1.592,0,0,0-.521,1.176v4.784a1.585,1.585,0,0,0,1.583,1.583h5.123a5.416,5.416,0,0,0,4.954,7.591c.128,0,.257,0,.387-.013a5.419,5.419,0,0,0,4.58-7.578h5.122a1.585,1.585,0,0,0,1.583-1.583v-5.122a5.416,5.416,0,0,0,6.134-8.656Zm-.453,3.946a3.518,3.518,0,0,1-3.26,3.256h0a3.485,3.485,0,0,1-2.232-.607,1.331,1.331,0,0,0-2.09,1.092v5.775h-5.775a1.331,1.331,0,0,0-1.092,2.09,3.515,3.515,0,1,1-5.794-.009,1.329,1.329,0,0,0-1.1-2.081h-5.775v-4.13c.166.005.334,0,.5-.007a5.415,5.415,0,0,0-.5-10.818v-4.577h4.354a5.415,5.415,0,0,0,10.825,0h4.354v5.775a1.329,1.329,0,0,0,2.081,1.1,3.515,3.515,0,0,1,5.5,3.145Z" transform="translate(-212.846 -233.952)"/>
        <path id="Trazado_907332" data-name="Trazado 907332" d="M50.244,38.994l1.61-4.38a15.808,15.808,0,0,0,4.488-3.843.95.95,0,1,0-1.483-1.188,13.812,13.812,0,0,1-7.624,4.83V26.558H49.1a3.763,3.763,0,1,0-3.763-3.763v1.863h-2.6V22.795a3.763,3.763,0,1,0-3.763,3.763h1.863V34.41A13.864,13.864,0,1,1,51.485,9.233a11.295,11.295,0,0,0,6.4,12.325,13.769,13.769,0,0,1-.939,4.425.95.95,0,1,0,1.769.694,15.64,15.64,0,0,0,1.031-4.454,11.307,11.307,0,0,0,6.051-.1v5.36A1.721,1.721,0,0,0,67.514,29.2H77.5a1.721,1.721,0,0,0,1.719-1.719V24.449a.95.95,0,0,0-1.9,0V27.3H67.7V21.362A11.374,11.374,0,0,0,71.9,17.671h5.421v2.344a.95.95,0,1,0,1.9,0V17.49A1.721,1.721,0,0,0,77.5,15.771h-4.55A11.292,11.292,0,1,0,52.014,7.33,15.76,15.76,0,1,0,36.21,34.6l1.614,4.392a2.219,2.219,0,0,0-1.617,2.132v3.717a2.218,2.218,0,0,0,1.9,2.192v2.317a1.585,1.585,0,0,0,1.583,1.583H39.7v.9a2.853,2.853,0,0,0,2.85,2.85h2.968a2.853,2.853,0,0,0,2.85-2.85v-.9h.009a1.585,1.585,0,0,0,1.583-1.583V47.035a2.218,2.218,0,0,0,1.9-2.192V41.126a2.219,2.219,0,0,0-1.617-2.132Zm-3.009-16.2A1.863,1.863,0,1,1,49.1,24.658H47.235ZM62.589,1.9A9.393,9.393,0,1,1,53.2,11.293,9.4,9.4,0,0,1,62.589,1.9ZM47.235,36.359a15.676,15.676,0,0,0,2.18-.615l-1.164,3.166H47.235Zm-4.5-9.8h2.6v8.165c-.43.04-.863.061-1.3.061s-.872-.021-1.3-.061V26.558Zm0,10.072c.429.035.862.054,1.3.054s.87-.018,1.3-.053v2.279h-2.6ZM38.971,24.657a1.863,1.863,0,1,1,1.863-1.863v1.863Zm1.863,11.7v2.552H39.818l-1.166-3.172A15.626,15.626,0,0,0,40.834,36.357Zm5.635,15.479a.951.951,0,0,1-.95.95H42.55a.951.951,0,0,1-.95-.95v-.9h4.868Zm3.493-6.993a.317.317,0,0,1-.317.317H46.731a.95.95,0,0,0,0,1.9h1.33v1.975H40.008V47.06H42.3a.95.95,0,1,0,0-1.9H38.425a.317.317,0,0,1-.317-.317V41.126a.317.317,0,0,1,.317-.317h11.22a.317.317,0,0,1,.317.317Z" transform="translate(-28.27 0)"/>
        <path id="Trazado_907333" data-name="Trazado 907333" d="M254.811,67.46a.95.95,0,0,0,.715.338h.012a.95.95,0,0,0,.711-.32l6.224-7.022a.95.95,0,0,0-1.422-1.26l-5.495,6.2-3.542-4.207a.95.95,0,0,0-1.454,1.224Z" transform="translate(-222.206 -51.418)"/>
      </g>
    </g>
  </g>
</svg>
