<svg xmlns="http://www.w3.org/2000/svg" xmlns:xlink="http://www.w3.org/1999/xlink" width="113" height="113" viewBox="0 0 113 113">
  <defs>
    <filter id="Trazado_896985" x="0" y="0" width="113" height="113" filterUnits="userSpaceOnUse">
      <feOffset dy="3" input="SourceAlpha"/>
      <feGaussianBlur stdDeviation="3" result="blur"/>
      <feFlood flood-opacity="0.161"/>
      <feComposite operator="in" in2="blur"/>
      <feComposite in="SourceGraphic"/>
    </filter>
  </defs>
  <g id="Grupo_1114348" data-name="Grupo 1114348" transform="translate(-247.051 -3454)">
    <g id="Grupo_1098742" data-name="Grupo 1098742" transform="translate(256.051 3460)" style="isolation: isolate">
      <g transform="matrix(1, 0, 0, 1, -9, -6)" filter="url(#Trazado_896985)">
        <g id="Trazado_896985-2" data-name="Trazado 896985" transform="translate(9 6)" fill="#e2dacc">
          <path d="M 47.49993515014648 93.5 C 41.28932189941406 93.5 35.26528167724609 92.28397369384766 29.59514808654785 89.88571929931641 C 24.1176815032959 87.56894683837891 19.1981086730957 84.25197601318359 14.97306823730469 80.02693176269531 C 10.74802875518799 75.80189514160156 7.431055068969727 70.88231658935547 5.11428165435791 65.40485382080078 C 2.716028451919556 59.73471832275391 1.500001788139343 53.71067810058594 1.500001788139343 47.50006484985352 C 1.500001788139343 41.28932189941406 2.716028451919556 35.26528167724609 5.11428165435791 29.59514617919922 C 7.431055068969727 24.11767959594727 10.74802875518799 19.19810676574707 14.97306823730469 14.97306632995605 C 19.1981086730957 10.74802684783936 24.1176815032959 7.431053161621094 29.59514808654785 5.114280223846436 C 35.26528167724609 2.716026782989502 41.28932189941406 1.5 47.49993515014648 1.5 C 53.71054840087891 1.5 59.73458862304688 2.716026782989502 65.40472412109375 5.114280223846436 C 70.88218688964844 7.431053161621094 75.80176544189453 10.74802684783936 80.02680206298828 14.97306632995605 C 84.25183868408203 19.19810676574707 87.56881713867188 24.11767959594727 89.88558959960938 29.59514617919922 C 92.28384399414062 35.26528167724609 93.49987030029297 41.28932189941406 93.49987030029297 47.49993515014648 C 93.49987030029297 53.71067810058594 92.28384399414062 59.73471832275391 89.88558959960938 65.40485382080078 C 87.56881713867188 70.88231658935547 84.25183868408203 75.80189514160156 80.02680206298828 80.02693176269531 C 75.80176544189453 84.25197601318359 70.88218688964844 87.56894683837891 65.40472412109375 89.88571929931641 C 59.73458862304688 92.28397369384766 53.71054840087891 93.5 47.49993515014648 93.5 Z" stroke="none"/>
          <path d="M 47.49993515014648 3 C 41.49116516113281 3 35.66371917724609 4.176155090332031 30.17947387695312 6.495796203613281 C 24.88081359863281 8.7369384765625 20.12149047851562 11.94596862792969 16.03372192382812 16.03372192382812 C 11.94596862792969 20.12149047851562 8.7369384765625 24.88081359863281 6.495796203613281 30.17947387695312 C 4.1761474609375 35.66372299194336 3 41.49116897583008 3 47.50006103515625 C 3 53.50883102416992 4.1761474609375 59.33627700805664 6.495796203613281 64.82052612304688 C 8.7369384765625 70.11918640136719 11.94596862792969 74.87850952148438 16.03372192382812 78.96627807617188 C 20.12149047851562 83.05403137207031 24.88081359863281 86.2630615234375 30.17947387695312 88.50419616699219 C 35.66371917724609 90.82384490966797 41.49116516113281 92 47.49993515014648 92 C 53.50870513916016 92 59.33615112304688 90.82384490966797 64.82039642333984 88.50419616699219 C 70.11905670166016 86.2630615234375 74.87837982177734 83.05403137207031 78.96614837646484 78.96627807617188 C 83.05390167236328 74.87850952148438 86.26293182373047 70.11918640136719 88.50407409667969 64.82052612304688 C 90.82372283935547 59.33627700805664 91.99987030029297 53.50883102416992 91.99987030029297 47.49993896484375 C 91.99987030029297 41.49116897583008 90.82372283935547 35.66372299194336 88.50407409667969 30.17947387695312 C 86.26293182373047 24.88081359863281 83.05390167236328 20.12149047851562 78.96614837646484 16.03372192382812 C 74.87837982177734 11.94596862792969 70.11905670166016 8.7369384765625 64.82039642333984 6.495796203613281 C 59.33615112304688 4.176155090332031 53.50870513916016 3 47.49993515014648 3 M 47.49993515014648 0 C 73.73342895507812 0 94.99987030029297 21.26644897460938 94.99987030029297 47.49993896484375 L 94.99987030029297 47.50006103515625 C 94.99987030029297 73.73355102539062 73.73342895507812 95 47.49993515014648 95 C 21.26644134521484 95 0 73.73355102539062 0 47.50006103515625 L 0 47.49993896484375 C 0 21.26644897460938 21.26644134521484 0 47.49993515014648 0 Z" stroke="none" fill="#fff"/>
        </g>
      </g>
      <g id="Rectángulo_400907" data-name="Rectángulo 400907" transform="translate(0 0)" fill="none" stroke="#fff" stroke-width="3">
        <rect width="95" height="95" rx="47.5" stroke="none"/>
        <rect x="1.5" y="1.5" width="92" height="92" rx="46" fill="none"/>
      </g>
    </g>
    <g id="Grupo_1114347" data-name="Grupo 1114347" transform="translate(272.052 3476.736)">
      <g id="Grupo_1114345" data-name="Grupo 1114345" transform="translate(0.907 1.169)">
        <g id="Grupo_1114341" data-name="Grupo 1114341" transform="translate(0 9.166)">
          <path id="Trazado_907279" data-name="Trazado 907279" d="M24.218,132.071V104.412h2.39a3.769,3.769,0,0,0,3.264-5.654l-7.66-13.266a3.769,3.769,0,0,0-6.528,0L8.023,98.758a3.769,3.769,0,0,0,3.264,5.654h2.391v27.658a2.372,2.372,0,0,0,2.372,2.372h5.8A2.372,2.372,0,0,0,24.218,132.071Z" transform="translate(-7.513 -83.608)" fill="#9dc6fb"/>
          <path id="Trazado_907280" data-name="Trazado 907280" d="M18.232,134.451H16.05a2.371,2.371,0,0,1-2.371-2.371V104.42H11.287a3.768,3.768,0,0,1-3.263-5.654L15.684,85.5a3.734,3.734,0,0,1,3.264-1.883A2.517,2.517,0,0,0,16.762,85.5L11.63,98.766c-.973,2.513.243,5.654,2.186,5.654H14.8a1.844,1.844,0,0,1,1.844,1.844v25.814C16.643,133.388,17.355,134.451,18.232,134.451Z" transform="translate(-7.513 -83.616)" fill="#698ed5"/>
        </g>
        <g id="Grupo_1114342" data-name="Grupo 1114342" transform="translate(34.894)">
          <path id="Trazado_907281" data-name="Trazado 907281" d="M307.968,43.924V22.342h1.675a2.641,2.641,0,0,0,2.288-3.962l-5.368-9.3a2.642,2.642,0,0,0-4.575,0l-5.369,9.3a2.641,2.641,0,0,0,2.288,3.962h1.676V43.924a1.662,1.662,0,0,0,1.662,1.662h4.062a1.662,1.662,0,0,0,1.662-1.662Z" transform="translate(-296.26 -7.762)" fill="#dd636e"/>
          <path id="Trazado_907282" data-name="Trazado 907282" d="M303.772,45.591h-1.529a1.662,1.662,0,0,1-1.662-1.662V22.346H298.9a2.641,2.641,0,0,1-2.287-3.962l5.368-9.3a2.617,2.617,0,0,1,2.288-1.32,1.764,1.764,0,0,0-1.532,1.32l-3.6,9.3c-.682,1.761.17,3.962,1.532,3.962h.689a1.292,1.292,0,0,1,1.292,1.292v20.29C302.659,44.847,303.157,45.591,303.772,45.591Z" transform="translate(-296.26 -7.766)" fill="#cb5769"/>
        </g>
        <g id="Grupo_1114343" data-name="Grupo 1114343" transform="translate(9.702 17.497)">
          <circle id="Elipse_12781" data-name="Elipse 12781" cx="20.328" cy="20.328" r="20.328" transform="translate(0)" fill="#f6e266"/>
          <path id="Trazado_907283" data-name="Trazado 907283" d="M109.429,193.162c-.431.026-.867.041-1.305.041a20.328,20.328,0,1,1,0-40.656c.438,0,.873.014,1.305.041a20.33,20.33,0,0,0,0,40.575Z" transform="translate(-87.796 -152.547)" fill="#ffd064"/>
          <circle id="Elipse_12782" data-name="Elipse 12782" cx="15.537" cy="15.537" r="15.537" transform="translate(4.792 4.792)" fill="#d3effb"/>
          <path id="Trazado_907284" data-name="Trazado 907284" d="M146.177,223.042a15.537,15.537,0,1,1,0-30.623,15.539,15.539,0,0,0,0,30.623Z" transform="translate(-123.134 -187.402)" fill="#9dc6fb"/>
          <path id="Trazado_907285" data-name="Trazado 907285" d="M189.1,308.342h-7.218a1.979,1.979,0,1,1,0-3.958H189.1a1.979,1.979,0,1,1,0,3.958Z" transform="translate(-168.771 -286.035)" fill="#365e7d"/>
          <path id="Trazado_907286" data-name="Trazado 907286" d="M241.612,271.576a1.979,1.979,0,0,1-1.979-1.979v-5.054a1.979,1.979,0,1,1,3.958,0V269.6A1.979,1.979,0,0,1,241.612,271.576Z" transform="translate(-221.284 -249.269)" fill="#2b4d66"/>
        </g>
        <g id="Grupo_1114344" data-name="Grupo 1114344" transform="translate(37.19 28.086)">
          <path id="Trazado_907287" data-name="Trazado 907287" d="M331.968,269.712v-8.739h2.39a3.769,3.769,0,0,0,3.264-5.654l-7.66-13.266a3.769,3.769,0,0,0-6.528,0l-7.661,13.266a3.769,3.769,0,0,0,3.264,5.654h2.391v8.739a2.372,2.372,0,0,0,2.372,2.372h5.8A2.372,2.372,0,0,0,331.968,269.712Z" transform="translate(-315.262 -240.169)" fill="#95d6a4"/>
          <path id="Trazado_907288" data-name="Trazado 907288" d="M325.981,272.091H323.8a2.371,2.371,0,0,1-2.371-2.371v-8.74h-2.392a3.768,3.768,0,0,1-3.263-5.654l7.66-13.266a3.734,3.734,0,0,1,3.264-1.883,2.517,2.517,0,0,0-2.186,1.883l-5.132,13.266c-.973,2.513.243,5.654,2.186,5.654h.983a1.844,1.844,0,0,1,1.844,1.844v6.895C324.392,271.029,325.1,272.091,325.981,272.091Z" transform="translate(-315.262 -240.176)" fill="#78c2a4"/>
        </g>
      </g>
      <g id="Grupo_1114346" data-name="Grupo 1114346" transform="translate(-0.001 0.263)">
        <path id="Trazado_907289" data-name="Trazado 907289" d="M182.5,255.063a2.889,2.889,0,0,0-2.886,2.886v2.168h-4.333a2.886,2.886,0,0,0,0,5.771H182.5A2.889,2.889,0,0,0,185.387,263v-5.054A2.889,2.889,0,0,0,182.5,255.063ZM174.21,263a1.074,1.074,0,0,1,1.073-1.073h4.333V263a2.87,2.87,0,0,0,.208,1.073h-4.541A1.074,1.074,0,0,1,174.21,263Zm9.365,0a1.073,1.073,0,0,1-2.146,0v-5.054a1.073,1.073,0,0,1,2.146,0Z" transform="translate(-151.563 -224.271)"/>
        <path id="Trazado_907290" data-name="Trazado 907290" d="M61.242,43.952l-7.66-13.266a4.628,4.628,0,0,0-4.049-2.338h0c-.073,0-.144,0-.216.007q-.425-.732-.9-1.422V16.656h.769a3.549,3.549,0,0,0,3.072-5.322l-2.251-3.9a.906.906,0,1,0-1.57.906l2.251,3.9a1.736,1.736,0,0,1-1.5,2.6H47.509a.906.906,0,0,0-.906.906v8.909a21.235,21.235,0,0,0-5.575-4.347V15.749a.906.906,0,0,0-.906-.906H38.447a1.735,1.735,0,0,1-1.5-2.6l5.369-9.3a1.734,1.734,0,0,1,3,0L46.623,5.2A.906.906,0,1,0,48.192,4.3l-1.3-2.258a3.547,3.547,0,0,0-6.144,0l-5.369,9.3a3.548,3.548,0,0,0,3.072,5.322h.769v2.783a21.225,21.225,0,0,0-18,.681l-4.823-8.354a4.629,4.629,0,0,0-4.049-2.337h0a4.627,4.627,0,0,0-4.048,2.337L.633,25.032a4.676,4.676,0,0,0,4.049,7.014H6.166V58.8a3.282,3.282,0,0,0,3.279,3.279h5.8A3.282,3.282,0,0,0,18.519,58.8V56.221a21.24,21.24,0,0,0,24.838,0V58.8a3.282,3.282,0,0,0,3.278,3.278h5.8A3.282,3.282,0,0,0,55.709,58.8V50.965h1.484a4.676,4.676,0,0,0,4.049-7.014Zm-30.3,14.464a19.372,19.372,0,0,1-14.971-7.049.906.906,0,0,0-1.4,1.156,21.436,21.436,0,0,0,2.136,2.232V58.8a1.468,1.468,0,0,1-1.466,1.466h-5.8A1.468,1.468,0,0,1,7.979,58.8V31.139a.906.906,0,0,0-.906-.906H4.683A2.863,2.863,0,0,1,2.2,25.938L9.864,12.672a2.833,2.833,0,0,1,2.478-1.431h0a2.835,2.835,0,0,1,2.48,1.431l4.82,8.349a21.231,21.231,0,0,0-7.215,28.385.906.906,0,0,0,1.579-.89,19.424,19.424,0,0,1,33.473-19.7,4.648,4.648,0,0,0-2,1.869l-.178.309a16.447,16.447,0,1,0-3.1,19.971h1.149v2.96a19.41,19.41,0,0,1-12.42,4.491Zm6.886-9.788a4.643,4.643,0,0,0,2.1,1.916q-.437.341-.895.647l-.518-.9a.906.906,0,1,0-1.57.906l.52.9a14.529,14.529,0,0,1-5.613,1.5V51.245a.906.906,0,0,0-1.813,0V53.6a14.521,14.521,0,0,1-5.609-1.5l.515-.892a.906.906,0,0,0-1.57-.906l-.514.89a14.751,14.751,0,0,1-4.1-4.1l.89-.514a.906.906,0,0,0-.906-1.57l-.892.515a14.522,14.522,0,0,1-1.5-5.609h2.351a.906.906,0,1,0,0-1.813H16.335a14.523,14.523,0,0,1,1.5-5.609l.892.515a.906.906,0,0,0,.906-1.57l-.89-.514a14.748,14.748,0,0,1,4.1-4.105l.514.89a.906.906,0,1,0,1.57-.906l-.515-.892a14.525,14.525,0,0,1,5.609-1.5v2.352a.906.906,0,0,0,1.813,0v-2.35a14.608,14.608,0,0,1,5.611,1.5l-.518.9a.906.906,0,1,0,1.57.906l.519-.9a14.606,14.606,0,0,1,4.107,4.109l-.9.518a.906.906,0,1,0,.906,1.57l.895-.517c.064.129.127.258.188.389l-6.4,11.085a4.628,4.628,0,0,0,0,4.676Zm21.849-.906a2.834,2.834,0,0,1-2.479,1.431H54.8a.906.906,0,0,0-.906.906V58.8a1.467,1.467,0,0,1-1.466,1.466h-5.8A1.467,1.467,0,0,1,45.17,58.8V50.059a.906.906,0,0,0-.906-.906H41.872a2.863,2.863,0,0,1-2.479-4.294l7.661-13.266a2.863,2.863,0,0,1,4.958,0l7.66,13.266a2.833,2.833,0,0,1,0,2.863Z" transform="translate(0.001 -0.263)"/>
      </g>
    </g>
  </g>
</svg>
