<svg xmlns="http://www.w3.org/2000/svg" xmlns:xlink="http://www.w3.org/1999/xlink" width="81.414" height="81.414" viewBox="0 0 81.414 81.414">
  <defs>
    <filter id="Trazado_873828" x="0" y="0" width="81.414" height="81.414" filterUnits="userSpaceOnUse">
      <feOffset dy="3" input="SourceAlpha"/>
      <feGaussianBlur stdDeviation="3" result="blur"/>
      <feFlood flood-opacity="0.161"/>
      <feComposite operator="in" in2="blur"/>
    </filter>
    <filter id="Trazado_873828-2" x="0" y="0" width="81.414" height="81.414" filterUnits="userSpaceOnUse">
      <feOffset dy="3" input="SourceAlpha"/>
      <feGaussianBlur stdDeviation="3" result="blur-2"/>
      <feFlood flood-opacity="0.161" result="color"/>
      <feComposite operator="out" in="SourceGraphic" in2="blur-2"/>
      <feComposite operator="in" in="color"/>
      <feComposite operator="in" in2="SourceGraphic"/>
    </filter>
  </defs>
  <g id="Grupo_1114500" data-name="Grupo 1114500" transform="translate(-502.051 -7293)">
    <g data-type="innerShadowGroup">
      <g transform="matrix(1, 0, 0, 1, 502.05, 7293)" filter="url(#Trazado_873828)">
        <g id="Trazado_873828-3" data-name="Trazado 873828" transform="translate(9 6)" fill="#bce0fc">
          <path d="M 31.70703125 61.4140625 C 27.69572067260742 61.4140625 23.80547142028809 60.62889099121094 20.14433097839355 59.08036041259766 C 16.60707092285156 57.58423233032227 13.42987155914307 55.44195938110352 10.7009916305542 52.71308135986328 C 7.972101211547852 49.98419189453125 5.829841136932373 46.80699157714844 4.333701133728027 43.26974105834961 C 2.785171270370483 39.60859298706055 2.000001192092896 35.71834182739258 2.000001192092896 31.70703125 C 2.000001192092896 27.69573211669922 2.785171270370483 23.80547142028809 4.333701133728027 20.14433097839355 C 5.829841136932373 16.60707092285156 7.972101211547852 13.42987155914307 10.7009916305542 10.7009916305542 C 13.42987155914307 7.972101211547852 16.60707092285156 5.829841136932373 20.14433097839355 4.333701133728027 C 23.80547142028809 2.785171270370483 27.69573211669922 2.000001192092896 31.70703125 2.000001192092896 C 35.71834182739258 2.000001192092896 39.60859298706055 2.785171270370483 43.26974105834961 4.333701133728027 C 46.80699157714844 5.829841136932373 49.98419189453125 7.972101211547852 52.71308135986328 10.7009916305542 C 55.44195938110352 13.42987155914307 57.58423233032227 16.60707092285156 59.08036041259766 20.14433097839355 C 60.62889099121094 23.80547142028809 61.4140625 27.69572067260742 61.4140625 31.70703125 C 61.4140625 35.71834182739258 60.62889099121094 39.60859298706055 59.08036041259766 43.26974105834961 C 57.58423233032227 46.80699157714844 55.44195938110352 49.98419189453125 52.71308135986328 52.71308135986328 C 49.98419189453125 55.44195938110352 46.80699157714844 57.58423233032227 43.26974105834961 59.08036041259766 C 39.60859298706055 60.62889099121094 35.71834182739258 61.4140625 31.70703125 61.4140625 Z" stroke="none"/>
          <path d="M 31.70703125 3.999996185302734 C 27.96484375 3.999996185302734 24.33671188354492 4.732006072998047 20.92343139648438 6.175712585449219 C 17.62457275390625 7.571006774902344 14.66105651855469 9.569347381591797 12.11519622802734 12.11519622802734 C 9.569347381591797 14.66105651855469 7.571006774902344 17.62457275390625 6.175712585449219 20.92343139648438 C 4.732006072998047 24.33671188354492 3.999996185302734 27.96484375 3.999996185302734 31.70703125 C 3.999996185302734 35.44921875 4.732006072998047 39.07734680175781 6.175712585449219 42.49063110351562 C 7.571006774902344 45.78948974609375 9.5693359375 48.75300598144531 12.11519622802734 51.29886627197266 C 14.66105651855469 53.8447265625 17.62457275390625 55.84305572509766 20.92343139648438 57.23834991455078 C 24.33671188354492 58.68205642700195 27.96484375 59.41406631469727 31.70703125 59.41406631469727 C 35.44921875 59.41406631469727 39.07734680175781 58.68205642700195 42.49063110351562 57.23834991455078 C 45.78948974609375 55.84305572509766 48.75300598144531 53.8447265625 51.29886627197266 51.29886627197266 C 53.8447265625 48.75300598144531 55.84305572509766 45.78948974609375 57.23834991455078 42.49063110351562 C 58.68205642700195 39.07734680175781 59.41406631469727 35.44921875 59.41406631469727 31.70703125 C 59.41406631469727 27.96484375 58.68205642700195 24.33671188354492 57.23834991455078 20.92343139648438 C 55.84305572509766 17.62457275390625 53.8447265625 14.66105651855469 51.29886627197266 12.11519622802734 C 48.75300598144531 9.5693359375 45.78948974609375 7.571006774902344 42.49063110351562 6.175712585449219 C 39.07734680175781 4.732006072998047 35.44921875 3.999996185302734 31.70703125 3.999996185302734 M 31.70703125 -3.814697265625e-06 C 49.21834945678711 -3.814697265625e-06 63.41406631469727 14.19572448730469 63.41406631469727 31.70703125 C 63.41406631469727 49.21834945678711 49.21834945678711 63.41406631469727 31.70703125 63.41406631469727 C 14.19572448730469 63.41406631469727 -3.814697265625e-06 49.21834945678711 -3.814697265625e-06 31.70703125 C -3.814697265625e-06 14.19572448730469 14.19572448730469 -3.814697265625e-06 31.70703125 -3.814697265625e-06 Z" stroke="none" fill="#fff"/>
        </g>
      </g>
      <g id="Trazado_873828-4" data-name="Trazado 873828" transform="translate(511.051 7299)" fill="#bce0fc">
        <path d="M 31.70703125 61.4140625 C 27.69572067260742 61.4140625 23.80547142028809 60.62889099121094 20.14433097839355 59.08036041259766 C 16.60707092285156 57.58423233032227 13.42987155914307 55.44195938110352 10.7009916305542 52.71308135986328 C 7.972101211547852 49.98419189453125 5.829841136932373 46.80699157714844 4.333701133728027 43.26974105834961 C 2.785171270370483 39.60859298706055 2.000001192092896 35.71834182739258 2.000001192092896 31.70703125 C 2.000001192092896 27.69573211669922 2.785171270370483 23.80547142028809 4.333701133728027 20.14433097839355 C 5.829841136932373 16.60707092285156 7.972101211547852 13.42987155914307 10.7009916305542 10.7009916305542 C 13.42987155914307 7.972101211547852 16.60707092285156 5.829841136932373 20.14433097839355 4.333701133728027 C 23.80547142028809 2.785171270370483 27.69573211669922 2.000001192092896 31.70703125 2.000001192092896 C 35.71834182739258 2.000001192092896 39.60859298706055 2.785171270370483 43.26974105834961 4.333701133728027 C 46.80699157714844 5.829841136932373 49.98419189453125 7.972101211547852 52.71308135986328 10.7009916305542 C 55.44195938110352 13.42987155914307 57.58423233032227 16.60707092285156 59.08036041259766 20.14433097839355 C 60.62889099121094 23.80547142028809 61.4140625 27.69572067260742 61.4140625 31.70703125 C 61.4140625 35.71834182739258 60.62889099121094 39.60859298706055 59.08036041259766 43.26974105834961 C 57.58423233032227 46.80699157714844 55.44195938110352 49.98419189453125 52.71308135986328 52.71308135986328 C 49.98419189453125 55.44195938110352 46.80699157714844 57.58423233032227 43.26974105834961 59.08036041259766 C 39.60859298706055 60.62889099121094 35.71834182739258 61.4140625 31.70703125 61.4140625 Z" stroke="none"/>
        <path d="M 31.70703125 3.999996185302734 C 27.96484375 3.999996185302734 24.33671188354492 4.732006072998047 20.92343139648438 6.175712585449219 C 17.62457275390625 7.571006774902344 14.66105651855469 9.569347381591797 12.11519622802734 12.11519622802734 C 9.569347381591797 14.66105651855469 7.571006774902344 17.62457275390625 6.175712585449219 20.92343139648438 C 4.732006072998047 24.33671188354492 3.999996185302734 27.96484375 3.999996185302734 31.70703125 C 3.999996185302734 35.44921875 4.732006072998047 39.07734680175781 6.175712585449219 42.49063110351562 C 7.571006774902344 45.78948974609375 9.5693359375 48.75300598144531 12.11519622802734 51.29886627197266 C 14.66105651855469 53.8447265625 17.62457275390625 55.84305572509766 20.92343139648438 57.23834991455078 C 24.33671188354492 58.68205642700195 27.96484375 59.41406631469727 31.70703125 59.41406631469727 C 35.44921875 59.41406631469727 39.07734680175781 58.68205642700195 42.49063110351562 57.23834991455078 C 45.78948974609375 55.84305572509766 48.75300598144531 53.8447265625 51.29886627197266 51.29886627197266 C 53.8447265625 48.75300598144531 55.84305572509766 45.78948974609375 57.23834991455078 42.49063110351562 C 58.68205642700195 39.07734680175781 59.41406631469727 35.44921875 59.41406631469727 31.70703125 C 59.41406631469727 27.96484375 58.68205642700195 24.33671188354492 57.23834991455078 20.92343139648438 C 55.84305572509766 17.62457275390625 53.8447265625 14.66105651855469 51.29886627197266 12.11519622802734 C 48.75300598144531 9.5693359375 45.78948974609375 7.571006774902344 42.49063110351562 6.175712585449219 C 39.07734680175781 4.732006072998047 35.44921875 3.999996185302734 31.70703125 3.999996185302734 M 31.70703125 -3.814697265625e-06 C 49.21834945678711 -3.814697265625e-06 63.41406631469727 14.19572448730469 63.41406631469727 31.70703125 C 63.41406631469727 49.21834945678711 49.21834945678711 63.41406631469727 31.70703125 63.41406631469727 C 14.19572448730469 63.41406631469727 -3.814697265625e-06 49.21834945678711 -3.814697265625e-06 31.70703125 C -3.814697265625e-06 14.19572448730469 14.19572448730469 -3.814697265625e-06 31.70703125 -3.814697265625e-06 Z" stroke="none"/>
      </g>
      <g transform="matrix(1, 0, 0, 1, 502.05, 7293)" filter="url(#Trazado_873828-2)">
        <g id="Trazado_873828-5" data-name="Trazado 873828" transform="translate(9 6)" fill="#fff">
          <path d="M 31.70703125 61.4140625 C 27.69572067260742 61.4140625 23.80547142028809 60.62889099121094 20.14433097839355 59.08036041259766 C 16.60707092285156 57.58423233032227 13.42987155914307 55.44195938110352 10.7009916305542 52.71308135986328 C 7.972101211547852 49.98419189453125 5.829841136932373 46.80699157714844 4.333701133728027 43.26974105834961 C 2.785171270370483 39.60859298706055 2.000001192092896 35.71834182739258 2.000001192092896 31.70703125 C 2.000001192092896 27.69573211669922 2.785171270370483 23.80547142028809 4.333701133728027 20.14433097839355 C 5.829841136932373 16.60707092285156 7.972101211547852 13.42987155914307 10.7009916305542 10.7009916305542 C 13.42987155914307 7.972101211547852 16.60707092285156 5.829841136932373 20.14433097839355 4.333701133728027 C 23.80547142028809 2.785171270370483 27.69573211669922 2.000001192092896 31.70703125 2.000001192092896 C 35.71834182739258 2.000001192092896 39.60859298706055 2.785171270370483 43.26974105834961 4.333701133728027 C 46.80699157714844 5.829841136932373 49.98419189453125 7.972101211547852 52.71308135986328 10.7009916305542 C 55.44195938110352 13.42987155914307 57.58423233032227 16.60707092285156 59.08036041259766 20.14433097839355 C 60.62889099121094 23.80547142028809 61.4140625 27.69572067260742 61.4140625 31.70703125 C 61.4140625 35.71834182739258 60.62889099121094 39.60859298706055 59.08036041259766 43.26974105834961 C 57.58423233032227 46.80699157714844 55.44195938110352 49.98419189453125 52.71308135986328 52.71308135986328 C 49.98419189453125 55.44195938110352 46.80699157714844 57.58423233032227 43.26974105834961 59.08036041259766 C 39.60859298706055 60.62889099121094 35.71834182739258 61.4140625 31.70703125 61.4140625 Z" stroke="none"/>
          <path d="M 31.70703125 3.999996185302734 C 27.96484375 3.999996185302734 24.33671188354492 4.732006072998047 20.92343139648438 6.175712585449219 C 17.62457275390625 7.571006774902344 14.66105651855469 9.569347381591797 12.11519622802734 12.11519622802734 C 9.569347381591797 14.66105651855469 7.571006774902344 17.62457275390625 6.175712585449219 20.92343139648438 C 4.732006072998047 24.33671188354492 3.999996185302734 27.96484375 3.999996185302734 31.70703125 C 3.999996185302734 35.44921875 4.732006072998047 39.07734680175781 6.175712585449219 42.49063110351562 C 7.571006774902344 45.78948974609375 9.5693359375 48.75300598144531 12.11519622802734 51.29886627197266 C 14.66105651855469 53.8447265625 17.62457275390625 55.84305572509766 20.92343139648438 57.23834991455078 C 24.33671188354492 58.68205642700195 27.96484375 59.41406631469727 31.70703125 59.41406631469727 C 35.44921875 59.41406631469727 39.07734680175781 58.68205642700195 42.49063110351562 57.23834991455078 C 45.78948974609375 55.84305572509766 48.75300598144531 53.8447265625 51.29886627197266 51.29886627197266 C 53.8447265625 48.75300598144531 55.84305572509766 45.78948974609375 57.23834991455078 42.49063110351562 C 58.68205642700195 39.07734680175781 59.41406631469727 35.44921875 59.41406631469727 31.70703125 C 59.41406631469727 27.96484375 58.68205642700195 24.33671188354492 57.23834991455078 20.92343139648438 C 55.84305572509766 17.62457275390625 53.8447265625 14.66105651855469 51.29886627197266 12.11519622802734 C 48.75300598144531 9.5693359375 45.78948974609375 7.571006774902344 42.49063110351562 6.175712585449219 C 39.07734680175781 4.732006072998047 35.44921875 3.999996185302734 31.70703125 3.999996185302734 M 31.70703125 -3.814697265625e-06 C 49.21834945678711 -3.814697265625e-06 63.41406631469727 14.19572448730469 63.41406631469727 31.70703125 C 63.41406631469727 49.21834945678711 49.21834945678711 63.41406631469727 31.70703125 63.41406631469727 C 14.19572448730469 63.41406631469727 -3.814697265625e-06 49.21834945678711 -3.814697265625e-06 31.70703125 C -3.814697265625e-06 14.19572448730469 14.19572448730469 -3.814697265625e-06 31.70703125 -3.814697265625e-06 Z" stroke="none"/>
        </g>
      </g>
      <g id="Trazado_873828-6" data-name="Trazado 873828" transform="translate(511.051 7299)" fill="none">
        <path d="M 31.70703125 61.4140625 C 27.69572067260742 61.4140625 23.80547142028809 60.62889099121094 20.14433097839355 59.08036041259766 C 16.60707092285156 57.58423233032227 13.42987155914307 55.44195938110352 10.7009916305542 52.71308135986328 C 7.972101211547852 49.98419189453125 5.829841136932373 46.80699157714844 4.333701133728027 43.26974105834961 C 2.785171270370483 39.60859298706055 2.000001192092896 35.71834182739258 2.000001192092896 31.70703125 C 2.000001192092896 27.69573211669922 2.785171270370483 23.80547142028809 4.333701133728027 20.14433097839355 C 5.829841136932373 16.60707092285156 7.972101211547852 13.42987155914307 10.7009916305542 10.7009916305542 C 13.42987155914307 7.972101211547852 16.60707092285156 5.829841136932373 20.14433097839355 4.333701133728027 C 23.80547142028809 2.785171270370483 27.69573211669922 2.000001192092896 31.70703125 2.000001192092896 C 35.71834182739258 2.000001192092896 39.60859298706055 2.785171270370483 43.26974105834961 4.333701133728027 C 46.80699157714844 5.829841136932373 49.98419189453125 7.972101211547852 52.71308135986328 10.7009916305542 C 55.44195938110352 13.42987155914307 57.58423233032227 16.60707092285156 59.08036041259766 20.14433097839355 C 60.62889099121094 23.80547142028809 61.4140625 27.69572067260742 61.4140625 31.70703125 C 61.4140625 35.71834182739258 60.62889099121094 39.60859298706055 59.08036041259766 43.26974105834961 C 57.58423233032227 46.80699157714844 55.44195938110352 49.98419189453125 52.71308135986328 52.71308135986328 C 49.98419189453125 55.44195938110352 46.80699157714844 57.58423233032227 43.26974105834961 59.08036041259766 C 39.60859298706055 60.62889099121094 35.71834182739258 61.4140625 31.70703125 61.4140625 Z" stroke="none"/>
        <path d="M 31.70703125 3.999996185302734 C 27.96484375 3.999996185302734 24.33671188354492 4.732006072998047 20.92343139648438 6.175712585449219 C 17.62457275390625 7.571006774902344 14.66105651855469 9.569347381591797 12.11519622802734 12.11519622802734 C 9.569347381591797 14.66105651855469 7.571006774902344 17.62457275390625 6.175712585449219 20.92343139648438 C 4.732006072998047 24.33671188354492 3.999996185302734 27.96484375 3.999996185302734 31.70703125 C 3.999996185302734 35.44921875 4.732006072998047 39.07734680175781 6.175712585449219 42.49063110351562 C 7.571006774902344 45.78948974609375 9.5693359375 48.75300598144531 12.11519622802734 51.29886627197266 C 14.66105651855469 53.8447265625 17.62457275390625 55.84305572509766 20.92343139648438 57.23834991455078 C 24.33671188354492 58.68205642700195 27.96484375 59.41406631469727 31.70703125 59.41406631469727 C 35.44921875 59.41406631469727 39.07734680175781 58.68205642700195 42.49063110351562 57.23834991455078 C 45.78948974609375 55.84305572509766 48.75300598144531 53.8447265625 51.29886627197266 51.29886627197266 C 53.8447265625 48.75300598144531 55.84305572509766 45.78948974609375 57.23834991455078 42.49063110351562 C 58.68205642700195 39.07734680175781 59.41406631469727 35.44921875 59.41406631469727 31.70703125 C 59.41406631469727 27.96484375 58.68205642700195 24.33671188354492 57.23834991455078 20.92343139648438 C 55.84305572509766 17.62457275390625 53.8447265625 14.66105651855469 51.29886627197266 12.11519622802734 C 48.75300598144531 9.5693359375 45.78948974609375 7.571006774902344 42.49063110351562 6.175712585449219 C 39.07734680175781 4.732006072998047 35.44921875 3.999996185302734 31.70703125 3.999996185302734 M 31.70703125 -3.814697265625e-06 C 49.21834945678711 -3.814697265625e-06 63.41406631469727 14.19572448730469 63.41406631469727 31.70703125 C 63.41406631469727 49.21834945678711 49.21834945678711 63.41406631469727 31.70703125 63.41406631469727 C 14.19572448730469 63.41406631469727 -3.814697265625e-06 49.21834945678711 -3.814697265625e-06 31.70703125 C -3.814697265625e-06 14.19572448730469 14.19572448730469 -3.814697265625e-06 31.70703125 -3.814697265625e-06 Z" stroke="none" fill="#fff"/>
      </g>
    </g>
    <g id="Grupo_1114499" data-name="Grupo 1114499" transform="translate(519.043 7307)">
      <path id="Trazado_907585" data-name="Trazado 907585" d="M100.025,11h19.063l4.136,4.136V41.213h-23.2Z" transform="translate(-87.836 -5.547)" fill="#cfe8ff" fill-rule="evenodd"/>
      <path id="Trazado_907586" data-name="Trazado 907586" d="M395.143,53.878l.9.9V80.85h-.9Z" transform="translate(-360.651 -45.184)" fill="#b6dbff" fill-rule="evenodd"/>
      <path id="Trazado_907587" data-name="Trazado 907587" d="M11.045,344.19H34.926v11.849H11.045Z" transform="translate(-5.581 -313.556)" fill="#2dd62d"/>
      <path id="Trazado_907588" data-name="Trazado 907588" d="M52.326,360.6a1.2,1.2,0,0,0,1.058,1.481v1.971H32.789v-1.971a1.2,1.2,0,0,0,1.058-1.481Z" transform="translate(-25.681 -328.73)" fill="#29b933" fill-rule="evenodd"/>
      <path id="Trazado_907589" data-name="Trazado 907589" d="M34.27,365.933H51.9a1.481,1.481,0,0,0,1.481,1.481v5.6A1.481,1.481,0,0,0,51.9,374.5H34.27a1.481,1.481,0,0,0-1.481-1.481v-5.6A1.481,1.481,0,0,0,34.27,365.933Z" transform="translate(-25.681 -333.656)" fill="#96ff96" fill-rule="evenodd"/>
      <circle id="Elipse_12786" data-name="Elipse 12786" cx="4.267" cy="4.267" r="4.267" transform="translate(12.834 40.519) rotate(-85.927)" fill="#29b933"/>
      <path id="Trazado_907590" data-name="Trazado 907590" d="M116.953,366.123a4.014,4.014,0,1,1-4.259,4.006A4.267,4.267,0,0,1,116.953,366.123Z" transform="translate(-99.548 -333.832)" fill="#2dd62d" fill-rule="evenodd"/>
      <path id="Trazado_907591" data-name="Trazado 907591" d="M319.724,344.19h.553v11.849h-.553Z" transform="translate(-290.932 -313.556)" fill="#29b933"/>
      <path id="Trazado_907592" data-name="Trazado 907592" d="M352.266,11l4.136,4.136h-4.136Z" transform="translate(-321.014 -5.547)" fill="#4eb1fc" fill-rule="evenodd"/>
      <path id="Trazado_907593" data-name="Trazado 907593" d="M145.557,174.511h2.75v10.336h-2.75Z" transform="translate(-129.927 -156.7)" fill="#4eb1fc"/>
      <path id="Trazado_907594" data-name="Trazado 907594" d="M81.832,238.53h2.75v5.5h-2.75Z" transform="translate(-71.018 -215.881)" fill="#fdc72e"/>
      <path id="Trazado_907595" data-name="Trazado 907595" d="M209.282,185.03h2.75v9.541h-2.75Z" transform="translate(-188.836 -166.424)" fill="#2dd62d"/>
      <path id="Trazado_907596" data-name="Trazado 907596" d="M273.007,135.8h2.75v13.261h-2.75Z" transform="translate(-247.745 -120.911)" fill="#f89b00"/>
      <path id="Trazado_907597" data-name="Trazado 907597" d="M18.106,270.182h2.75v3.105h-2.75Z" transform="translate(-12.108 -245.141)" fill="#fb545c"/>
      <path id="Trazado_907598" data-name="Trazado 907598" d="M298.6,135.8h.816v13.261H298.6Z" transform="translate(-271.405 -120.911)" fill="#e68207"/>
      <path id="Trazado_907599" data-name="Trazado 907599" d="M234.875,185.03h.816v9.541h-.816Z" transform="translate(-212.495 -166.424)" fill="#29b933"/>
      <path id="Trazado_907600" data-name="Trazado 907600" d="M171.15,174.511h.816v10.336h-.816Z" transform="translate(-153.586 -156.7)" fill="#2a92fa"/>
      <path id="Trazado_907601" data-name="Trazado 907601" d="M107.424,238.53h.816v5.5h-.816Z" transform="translate(-94.676 -215.881)" fill="#f9ac00"/>
      <path id="Trazado_907602" data-name="Trazado 907602" d="M43.7,270.182h.816v3.105H43.7Z" transform="translate(-35.766 -245.141)" fill="#e8333c"/>
      <g id="Grupo_1114497" data-name="Grupo 1114497" transform="translate(28.283 22.859)">
        <path id="Trazado_907603" data-name="Trazado 907603" d="M321.05,306.736c2.691,1.061,4.983,4.845,5.814,8.067,1.393,5.4-1.7,6.526-6.769,6.614-5.07-.089-8.163-1.21-6.769-6.614.831-3.222,3.123-7.006,5.814-8.067h1.91Z" transform="translate(-312.991 -301.792)" fill="#d19458" fill-rule="evenodd"/>
        <path id="Trazado_907604" data-name="Trazado 907604" d="M319.269,321.392c-4.574-.2-7.261-1.484-5.945-6.589.831-3.222,3.123-7.006,5.814-8.067h.261c2.691,1.061,4.983,4.845,5.814,8.067C326.53,319.908,323.844,321.191,319.269,321.392Z" transform="translate(-312.99 -301.792)" fill="#e6b17c" fill-rule="evenodd"/>
        <path id="Trazado_907605" data-name="Trazado 907605" d="M353.308,246.91l-1.38,0c-3.121-4.275-2.385-5.8-.936-5.346a2.575,2.575,0,0,1,.921.546c.4.333.726.488,1.071,0,.751-1.065,1.423-1.065,2.173,0,.345.49.667.335,1.071,0a2.576,2.576,0,0,1,.921-.546c1.45-.451,2.185,1.071-.936,5.346l-1.38,0-.764,0-.764,0Z" transform="translate(-346.968 -241.314)" fill="#d19458" fill-rule="evenodd"/>
        <path id="Trazado_907606" data-name="Trazado 907606" d="M353.307,246.911h-.254l-.632,0h-.5c-3.119-4.272-2.383-5.794-.934-5.343a2.575,2.575,0,0,1,.921.546c.4.333.726.488,1.071,0,.751-1.065,1.423-1.065,2.173,0,.345.49.667.334,1.071,0a4.215,4.215,0,0,1,.38-.29c.4.648.015,2.269-2.042,5.087h-.5l-.632,0h-.132Z" transform="translate(-346.967 -241.315)" fill="#e6b17c" fill-rule="evenodd"/>
      </g>
      <rect id="Rectángulo_406712" data-name="Rectángulo 406712" width="7.135" height="1.584" rx="0.792" transform="translate(31.82 27.666)" fill="#96602a"/>
      <g id="Grupo_1114498" data-name="Grupo 1114498" transform="translate(5.008 5)">
        <path id="Trazado_907607" data-name="Trazado 907607" d="M364.785,304.913h-4.211a.792.792,0,0,0,0,1.584h4.211a.792.792,0,0,0,0-1.584Z" transform="translate(-332.97 -282.247)" fill="#ab733a" fill-rule="evenodd"/>
        <path id="Trazado_907608" data-name="Trazado 907608" d="M6.45,27.693H8.293v-2.2H6.45Zm-.907.453V25.041A.454.454,0,0,1,6,24.587H8.748a.451.451,0,0,1,.452.453v3.106a.451.451,0,0,1-.452.453H6A.454.454,0,0,1,5.543,28.146ZM27.557,15.338H25.715V27.693h1.843Zm.455-.907a.451.451,0,0,1,.452.453V28.146a.451.451,0,0,1-.452.453H25.263a.454.454,0,0,1-.455-.453V14.885a.454.454,0,0,1,.455-.453Zm-5.269,4.627H20.9v8.634h1.843Zm.452-.907a.454.454,0,0,1,.455.453v9.541a.454.454,0,0,1-.455.453H20.445a.451.451,0,0,1-.452-.453V18.606a.451.451,0,0,1,.452-.453ZM13.111,23.1H11.268v4.591h1.843Zm.452-.907a.454.454,0,0,1,.455.453v5.5a.454.454,0,0,1-.455.453H10.813a.453.453,0,0,1-.452-.453v-5.5a.454.454,0,0,1,.452-.453Zm4.363-3.932H16.082v9.429h1.843Zm.455-.907a.451.451,0,0,1,.452.453V28.146a.451.451,0,0,1-.452.453H15.631a.454.454,0,0,1-.455-.453V17.811a.454.454,0,0,1,.455-.453H18.38ZM7.586,23.883a.454.454,0,0,1-.32-.774l9.155-9.157a.456.456,0,0,1,.5-.1l4.468,1.894,5.39-5.389-.255.037a.453.453,0,0,1-.131-.9L28,9.264a.454.454,0,0,1,.386.128.471.471,0,0,1,.127.386l-.237,1.607a.453.453,0,0,1-.448.388.434.434,0,0,1-.066,0,.453.453,0,0,1-.382-.515L27.419,11l-5.6,5.605a.455.455,0,0,1-.5.1l-4.468-1.894-8.94,8.941a.449.449,0,0,1-.321.133ZM37.051,37.259a2.021,2.021,0,0,0-1.209-.719v1.93c.637-.067,1.144-.328,1.242-.671a.664.664,0,0,0-.033-.54Zm-2.116-1.883V33.392a1.706,1.706,0,0,0-.95.426.788.788,0,0,0-.237.6.852.852,0,0,0,.368.607,2.444,2.444,0,0,0,.819.356Zm2.91,1.444a1.577,1.577,0,0,1,.113,1.232,2.249,2.249,0,0,1-2.116,1.327V40a.453.453,0,1,1-.907,0v-.645a2.406,2.406,0,0,1-2.181-1.666.454.454,0,0,1,.885-.206,1.5,1.5,0,0,0,1.3.95V36.314a3.706,3.706,0,0,1-1.373-.578,1.766,1.766,0,0,1-.721-1.258,1.683,1.683,0,0,1,.492-1.289,2.625,2.625,0,0,1,1.6-.709v-.634a.453.453,0,1,1,.907,0v.632a3.59,3.59,0,0,1,.557.106,2.088,2.088,0,0,1,1.61,1.466.454.454,0,0,1-.885.2c-.117-.505-.714-.723-.969-.793a2.581,2.581,0,0,0-.313-.067V35.6c.073.019.149.038.222.059a2.792,2.792,0,0,1,1.781,1.16Zm3.871-.836c.51,1.977.415,3.389-.291,4.319-.867,1.137-2.728,1.67-6.038,1.729-3.31-.059-5.171-.592-6.038-1.729-.706-.929-.8-2.342-.291-4.319A14.735,14.735,0,0,1,32.5,29.7c.04,0,.076.006.117.006h5.55c.04,0,.08,0,.117-.006A14.7,14.7,0,0,1,41.716,35.984Zm-21.551,4.4h5.659a1.944,1.944,0,0,1,1.428-1.428v-4.8a1.945,1.945,0,0,1-1.428-1.428H20.165a4.716,4.716,0,0,1,0,7.658Zm-5.517-7.658H8.985a1.94,1.94,0,0,1-1.428,1.428v4.8a1.939,1.939,0,0,1,1.428,1.428h5.663a4.717,4.717,0,0,1,0-7.658Zm6.573,3.829A3.815,3.815,0,1,1,17.4,32.744,3.82,3.82,0,0,1,21.221,36.558ZM28.9,42.031v-.867a3.622,3.622,0,0,1-.269-.312,3.7,3.7,0,0,1-.594-1.18.457.457,0,0,1-.328.14,1.03,1.03,0,0,0-1.031,1.028.451.451,0,0,1-.452.453H8.584a.453.453,0,0,1-.452-.453A1.03,1.03,0,0,0,7.1,39.813a.454.454,0,0,1-.452-.453v-5.6A.453.453,0,0,1,7.1,33.3a1.031,1.031,0,0,0,1.031-1.028.454.454,0,0,1,.452-.453h17.64a.451.451,0,0,1,.452.453A1.031,1.031,0,0,0,27.706,33.3a.451.451,0,0,1,.452.453v2.079l.022-.079a15.311,15.311,0,0,1,.717-2.116V31.085H5.915V42.031Zm4.031-14.819h4.916c1.486-2.268,1.54-3.346,1.329-3.627-.124-.164-.47-.071-.572-.039a2.081,2.081,0,0,0-.747.446l-.022.017a1.337,1.337,0,0,1-1.009.406,1.064,1.064,0,0,1-.721-.5c-.277-.391-.532-.607-.717-.607s-.441.215-.714.607a1.078,1.078,0,0,1-.725.5,1.341,1.341,0,0,1-1.009-.406l-.018-.017a2.114,2.114,0,0,0-.747-.446c-.106-.032-.452-.125-.575.039-.208.28-.157,1.358,1.329,3.627ZM31.7,9.136h2.589L31.7,6.548V9.136ZM38.162,28.8a.339.339,0,0,0,0-.677h-5.55a.339.339,0,1,0,0,.677Zm3.984,12.056c-1.336,1.758-4.162,2.041-6.752,2.086h-.015A11.994,11.994,0,0,1,29.8,41.866v.619a.454.454,0,0,1-.455.453H5.46a.451.451,0,0,1-.452-.453V30.632a.451.451,0,0,1,.452-.453H29.349a.454.454,0,0,1,.455.453v1.174a13.765,13.765,0,0,1,1.854-2.548,1.244,1.244,0,0,1,.31-1.865c-1.3-2.069-1.679-3.568-1.092-4.351a1.349,1.349,0,0,1,1.57-.362,2.956,2.956,0,0,1,1.052.613l.022.017a1,1,0,0,0,.306.2.408.408,0,0,0,.106-.117,2.387,2.387,0,0,1,1.005-.9V10.043H31.254a.455.455,0,0,1-.455-.454V5.907H12.641V16.194a.453.453,0,1,1-.907,0V5.454a.446.446,0,0,1,.135-.321A.452.452,0,0,1,12.189,5H31.254a.458.458,0,0,1,.321.133l4.133,4.136a.445.445,0,0,1,.135.32V22.5a2.406,2.406,0,0,1,1,.9.569.569,0,0,0,.106.117,1.041,1.041,0,0,0,.31-.2l.018-.017a2.945,2.945,0,0,1,1.056-.613,1.344,1.344,0,0,1,1.566.362c.586.783.208,2.282-1.092,4.35a1.245,1.245,0,0,1,.31,1.866,15.642,15.642,0,0,1,3.481,6.5c.583,2.263.433,3.93-.452,5.095ZM18.482,37.578a1.145,1.145,0,0,0-.623-.4v1.057c.353-.064.594-.218.637-.368a.35.35,0,0,0-.015-.288Zm-1.529-1.585V34.905a.964.964,0,0,0-.459.235.439.439,0,0,0-.135.327.5.5,0,0,0,.215.343,1.283,1.283,0,0,0,.379.182Zm2.323,1.146a2.1,2.1,0,0,0-1.351-.892l-.066-.017V34.9l.062.015c.16.044.535.178.6.472a.454.454,0,0,0,.885-.2,1.62,1.62,0,0,0-1.242-1.145,2.6,2.6,0,0,0-.306-.064v-.34a.453.453,0,0,0-.907,0v.343a1.976,1.976,0,0,0-1.114.529,1.327,1.327,0,0,0-.382,1.021,1.38,1.38,0,0,0,.561.993,2.6,2.6,0,0,0,.936.411v1.256a.854.854,0,0,1-.674-.549.454.454,0,0,0-.885.206,1.81,1.81,0,0,0,1.559,1.272v.354a.453.453,0,1,0,.907,0v-.328a1.672,1.672,0,0,0,1.508-1.029,1.248,1.248,0,0,0-.091-.981Zm-9.6-.127a.453.453,0,1,1,0-.907h.9a.453.453,0,0,1,0,.907Zm15.918-.453a.453.453,0,0,1-.452.453h-.9a.453.453,0,0,1,0-.907h.9A.453.453,0,0,1,25.591,36.558Z" transform="translate(-5.008 -5)" fill-rule="evenodd"/>
      </g>
    </g>
  </g>
</svg>
