<svg xmlns="http://www.w3.org/2000/svg" xmlns:xlink="http://www.w3.org/1999/xlink" width="81.414" height="81.414" viewBox="0 0 81.414 81.414">
  <defs>
    <filter id="Trazado_873828" x="0" y="0" width="81.414" height="81.414" filterUnits="userSpaceOnUse">
      <feOffset dy="3" input="SourceAlpha"/>
      <feGaussianBlur stdDeviation="3" result="blur"/>
      <feFlood flood-opacity="0.161"/>
      <feComposite operator="in" in2="blur"/>
    </filter>
    <filter id="Trazado_873828-2" x="0" y="0" width="81.414" height="81.414" filterUnits="userSpaceOnUse">
      <feOffset dy="3" input="SourceAlpha"/>
      <feGaussianBlur stdDeviation="3" result="blur-2"/>
      <feFlood flood-opacity="0.161" result="color"/>
      <feComposite operator="out" in="SourceGraphic" in2="blur-2"/>
      <feComposite operator="in" in="color"/>
      <feComposite operator="in" in2="SourceGraphic"/>
    </filter>
  </defs>
  <g id="Grupo_1114516" data-name="Grupo 1114516" transform="translate(-816.949 -7293)">
    <g data-type="innerShadowGroup">
      <g transform="matrix(1, 0, 0, 1, 816.95, 7293)" filter="url(#Trazado_873828)">
        <g id="Trazado_873828-3" data-name="Trazado 873828" transform="translate(9 6)" fill="#bce0fc">
          <path d="M 31.70703125 61.4140625 C 27.69572067260742 61.4140625 23.80547142028809 60.62889099121094 20.14433097839355 59.08036041259766 C 16.60707092285156 57.58423233032227 13.42987155914307 55.44195938110352 10.7009916305542 52.71308135986328 C 7.972101211547852 49.98419189453125 5.829841136932373 46.80699157714844 4.333701133728027 43.26974105834961 C 2.785171270370483 39.60859298706055 2.000001192092896 35.71834182739258 2.000001192092896 31.70703125 C 2.000001192092896 27.69573211669922 2.785171270370483 23.80547142028809 4.333701133728027 20.14433097839355 C 5.829841136932373 16.60707092285156 7.972101211547852 13.42987155914307 10.7009916305542 10.7009916305542 C 13.42987155914307 7.972101211547852 16.60707092285156 5.829841136932373 20.14433097839355 4.333701133728027 C 23.80547142028809 2.785171270370483 27.69573211669922 2.000001192092896 31.70703125 2.000001192092896 C 35.71834182739258 2.000001192092896 39.60859298706055 2.785171270370483 43.26974105834961 4.333701133728027 C 46.80699157714844 5.829841136932373 49.98419189453125 7.972101211547852 52.71308135986328 10.7009916305542 C 55.44195938110352 13.42987155914307 57.58423233032227 16.60707092285156 59.08036041259766 20.14433097839355 C 60.62889099121094 23.80547142028809 61.4140625 27.69572067260742 61.4140625 31.70703125 C 61.4140625 35.71834182739258 60.62889099121094 39.60859298706055 59.08036041259766 43.26974105834961 C 57.58423233032227 46.80699157714844 55.44195938110352 49.98419189453125 52.71308135986328 52.71308135986328 C 49.98419189453125 55.44195938110352 46.80699157714844 57.58423233032227 43.26974105834961 59.08036041259766 C 39.60859298706055 60.62889099121094 35.71834182739258 61.4140625 31.70703125 61.4140625 Z" stroke="none"/>
          <path d="M 31.70703125 3.999996185302734 C 27.96484375 3.999996185302734 24.33671188354492 4.732006072998047 20.92343139648438 6.175712585449219 C 17.62457275390625 7.571006774902344 14.66105651855469 9.569347381591797 12.11519622802734 12.11519622802734 C 9.569347381591797 14.66105651855469 7.571006774902344 17.62457275390625 6.175712585449219 20.92343139648438 C 4.732006072998047 24.33671188354492 3.999996185302734 27.96484375 3.999996185302734 31.70703125 C 3.999996185302734 35.44921875 4.732006072998047 39.07734680175781 6.175712585449219 42.49063110351562 C 7.571006774902344 45.78948974609375 9.5693359375 48.75300598144531 12.11519622802734 51.29886627197266 C 14.66105651855469 53.8447265625 17.62457275390625 55.84305572509766 20.92343139648438 57.23834991455078 C 24.33671188354492 58.68205642700195 27.96484375 59.41406631469727 31.70703125 59.41406631469727 C 35.44921875 59.41406631469727 39.07734680175781 58.68205642700195 42.49063110351562 57.23834991455078 C 45.78948974609375 55.84305572509766 48.75300598144531 53.8447265625 51.29886627197266 51.29886627197266 C 53.8447265625 48.75300598144531 55.84305572509766 45.78948974609375 57.23834991455078 42.49063110351562 C 58.68205642700195 39.07734680175781 59.41406631469727 35.44921875 59.41406631469727 31.70703125 C 59.41406631469727 27.96484375 58.68205642700195 24.33671188354492 57.23834991455078 20.92343139648438 C 55.84305572509766 17.62457275390625 53.8447265625 14.66105651855469 51.29886627197266 12.11519622802734 C 48.75300598144531 9.5693359375 45.78948974609375 7.571006774902344 42.49063110351562 6.175712585449219 C 39.07734680175781 4.732006072998047 35.44921875 3.999996185302734 31.70703125 3.999996185302734 M 31.70703125 -3.814697265625e-06 C 49.21834945678711 -3.814697265625e-06 63.41406631469727 14.19572448730469 63.41406631469727 31.70703125 C 63.41406631469727 49.21834945678711 49.21834945678711 63.41406631469727 31.70703125 63.41406631469727 C 14.19572448730469 63.41406631469727 -3.814697265625e-06 49.21834945678711 -3.814697265625e-06 31.70703125 C -3.814697265625e-06 14.19572448730469 14.19572448730469 -3.814697265625e-06 31.70703125 -3.814697265625e-06 Z" stroke="none" fill="#fff"/>
        </g>
      </g>
      <g id="Trazado_873828-4" data-name="Trazado 873828" transform="translate(825.949 7299)" fill="#bce0fc">
        <path d="M 31.70703125 61.4140625 C 27.69572067260742 61.4140625 23.80547142028809 60.62889099121094 20.14433097839355 59.08036041259766 C 16.60707092285156 57.58423233032227 13.42987155914307 55.44195938110352 10.7009916305542 52.71308135986328 C 7.972101211547852 49.98419189453125 5.829841136932373 46.80699157714844 4.333701133728027 43.26974105834961 C 2.785171270370483 39.60859298706055 2.000001192092896 35.71834182739258 2.000001192092896 31.70703125 C 2.000001192092896 27.69573211669922 2.785171270370483 23.80547142028809 4.333701133728027 20.14433097839355 C 5.829841136932373 16.60707092285156 7.972101211547852 13.42987155914307 10.7009916305542 10.7009916305542 C 13.42987155914307 7.972101211547852 16.60707092285156 5.829841136932373 20.14433097839355 4.333701133728027 C 23.80547142028809 2.785171270370483 27.69573211669922 2.000001192092896 31.70703125 2.000001192092896 C 35.71834182739258 2.000001192092896 39.60859298706055 2.785171270370483 43.26974105834961 4.333701133728027 C 46.80699157714844 5.829841136932373 49.98419189453125 7.972101211547852 52.71308135986328 10.7009916305542 C 55.44195938110352 13.42987155914307 57.58423233032227 16.60707092285156 59.08036041259766 20.14433097839355 C 60.62889099121094 23.80547142028809 61.4140625 27.69572067260742 61.4140625 31.70703125 C 61.4140625 35.71834182739258 60.62889099121094 39.60859298706055 59.08036041259766 43.26974105834961 C 57.58423233032227 46.80699157714844 55.44195938110352 49.98419189453125 52.71308135986328 52.71308135986328 C 49.98419189453125 55.44195938110352 46.80699157714844 57.58423233032227 43.26974105834961 59.08036041259766 C 39.60859298706055 60.62889099121094 35.71834182739258 61.4140625 31.70703125 61.4140625 Z" stroke="none"/>
        <path d="M 31.70703125 3.999996185302734 C 27.96484375 3.999996185302734 24.33671188354492 4.732006072998047 20.92343139648438 6.175712585449219 C 17.62457275390625 7.571006774902344 14.66105651855469 9.569347381591797 12.11519622802734 12.11519622802734 C 9.569347381591797 14.66105651855469 7.571006774902344 17.62457275390625 6.175712585449219 20.92343139648438 C 4.732006072998047 24.33671188354492 3.999996185302734 27.96484375 3.999996185302734 31.70703125 C 3.999996185302734 35.44921875 4.732006072998047 39.07734680175781 6.175712585449219 42.49063110351562 C 7.571006774902344 45.78948974609375 9.5693359375 48.75300598144531 12.11519622802734 51.29886627197266 C 14.66105651855469 53.8447265625 17.62457275390625 55.84305572509766 20.92343139648438 57.23834991455078 C 24.33671188354492 58.68205642700195 27.96484375 59.41406631469727 31.70703125 59.41406631469727 C 35.44921875 59.41406631469727 39.07734680175781 58.68205642700195 42.49063110351562 57.23834991455078 C 45.78948974609375 55.84305572509766 48.75300598144531 53.8447265625 51.29886627197266 51.29886627197266 C 53.8447265625 48.75300598144531 55.84305572509766 45.78948974609375 57.23834991455078 42.49063110351562 C 58.68205642700195 39.07734680175781 59.41406631469727 35.44921875 59.41406631469727 31.70703125 C 59.41406631469727 27.96484375 58.68205642700195 24.33671188354492 57.23834991455078 20.92343139648438 C 55.84305572509766 17.62457275390625 53.8447265625 14.66105651855469 51.29886627197266 12.11519622802734 C 48.75300598144531 9.5693359375 45.78948974609375 7.571006774902344 42.49063110351562 6.175712585449219 C 39.07734680175781 4.732006072998047 35.44921875 3.999996185302734 31.70703125 3.999996185302734 M 31.70703125 -3.814697265625e-06 C 49.21834945678711 -3.814697265625e-06 63.41406631469727 14.19572448730469 63.41406631469727 31.70703125 C 63.41406631469727 49.21834945678711 49.21834945678711 63.41406631469727 31.70703125 63.41406631469727 C 14.19572448730469 63.41406631469727 -3.814697265625e-06 49.21834945678711 -3.814697265625e-06 31.70703125 C -3.814697265625e-06 14.19572448730469 14.19572448730469 -3.814697265625e-06 31.70703125 -3.814697265625e-06 Z" stroke="none"/>
      </g>
      <g transform="matrix(1, 0, 0, 1, 816.95, 7293)" filter="url(#Trazado_873828-2)">
        <g id="Trazado_873828-5" data-name="Trazado 873828" transform="translate(9 6)" fill="#fff">
          <path d="M 31.70703125 61.4140625 C 27.69572067260742 61.4140625 23.80547142028809 60.62889099121094 20.14433097839355 59.08036041259766 C 16.60707092285156 57.58423233032227 13.42987155914307 55.44195938110352 10.7009916305542 52.71308135986328 C 7.972101211547852 49.98419189453125 5.829841136932373 46.80699157714844 4.333701133728027 43.26974105834961 C 2.785171270370483 39.60859298706055 2.000001192092896 35.71834182739258 2.000001192092896 31.70703125 C 2.000001192092896 27.69573211669922 2.785171270370483 23.80547142028809 4.333701133728027 20.14433097839355 C 5.829841136932373 16.60707092285156 7.972101211547852 13.42987155914307 10.7009916305542 10.7009916305542 C 13.42987155914307 7.972101211547852 16.60707092285156 5.829841136932373 20.14433097839355 4.333701133728027 C 23.80547142028809 2.785171270370483 27.69573211669922 2.000001192092896 31.70703125 2.000001192092896 C 35.71834182739258 2.000001192092896 39.60859298706055 2.785171270370483 43.26974105834961 4.333701133728027 C 46.80699157714844 5.829841136932373 49.98419189453125 7.972101211547852 52.71308135986328 10.7009916305542 C 55.44195938110352 13.42987155914307 57.58423233032227 16.60707092285156 59.08036041259766 20.14433097839355 C 60.62889099121094 23.80547142028809 61.4140625 27.69572067260742 61.4140625 31.70703125 C 61.4140625 35.71834182739258 60.62889099121094 39.60859298706055 59.08036041259766 43.26974105834961 C 57.58423233032227 46.80699157714844 55.44195938110352 49.98419189453125 52.71308135986328 52.71308135986328 C 49.98419189453125 55.44195938110352 46.80699157714844 57.58423233032227 43.26974105834961 59.08036041259766 C 39.60859298706055 60.62889099121094 35.71834182739258 61.4140625 31.70703125 61.4140625 Z" stroke="none"/>
          <path d="M 31.70703125 3.999996185302734 C 27.96484375 3.999996185302734 24.33671188354492 4.732006072998047 20.92343139648438 6.175712585449219 C 17.62457275390625 7.571006774902344 14.66105651855469 9.569347381591797 12.11519622802734 12.11519622802734 C 9.569347381591797 14.66105651855469 7.571006774902344 17.62457275390625 6.175712585449219 20.92343139648438 C 4.732006072998047 24.33671188354492 3.999996185302734 27.96484375 3.999996185302734 31.70703125 C 3.999996185302734 35.44921875 4.732006072998047 39.07734680175781 6.175712585449219 42.49063110351562 C 7.571006774902344 45.78948974609375 9.5693359375 48.75300598144531 12.11519622802734 51.29886627197266 C 14.66105651855469 53.8447265625 17.62457275390625 55.84305572509766 20.92343139648438 57.23834991455078 C 24.33671188354492 58.68205642700195 27.96484375 59.41406631469727 31.70703125 59.41406631469727 C 35.44921875 59.41406631469727 39.07734680175781 58.68205642700195 42.49063110351562 57.23834991455078 C 45.78948974609375 55.84305572509766 48.75300598144531 53.8447265625 51.29886627197266 51.29886627197266 C 53.8447265625 48.75300598144531 55.84305572509766 45.78948974609375 57.23834991455078 42.49063110351562 C 58.68205642700195 39.07734680175781 59.41406631469727 35.44921875 59.41406631469727 31.70703125 C 59.41406631469727 27.96484375 58.68205642700195 24.33671188354492 57.23834991455078 20.92343139648438 C 55.84305572509766 17.62457275390625 53.8447265625 14.66105651855469 51.29886627197266 12.11519622802734 C 48.75300598144531 9.5693359375 45.78948974609375 7.571006774902344 42.49063110351562 6.175712585449219 C 39.07734680175781 4.732006072998047 35.44921875 3.999996185302734 31.70703125 3.999996185302734 M 31.70703125 -3.814697265625e-06 C 49.21834945678711 -3.814697265625e-06 63.41406631469727 14.19572448730469 63.41406631469727 31.70703125 C 63.41406631469727 49.21834945678711 49.21834945678711 63.41406631469727 31.70703125 63.41406631469727 C 14.19572448730469 63.41406631469727 -3.814697265625e-06 49.21834945678711 -3.814697265625e-06 31.70703125 C -3.814697265625e-06 14.19572448730469 14.19572448730469 -3.814697265625e-06 31.70703125 -3.814697265625e-06 Z" stroke="none"/>
        </g>
      </g>
      <g id="Trazado_873828-6" data-name="Trazado 873828" transform="translate(825.949 7299)" fill="none">
        <path d="M 31.70703125 61.4140625 C 27.69572067260742 61.4140625 23.80547142028809 60.62889099121094 20.14433097839355 59.08036041259766 C 16.60707092285156 57.58423233032227 13.42987155914307 55.44195938110352 10.7009916305542 52.71308135986328 C 7.972101211547852 49.98419189453125 5.829841136932373 46.80699157714844 4.333701133728027 43.26974105834961 C 2.785171270370483 39.60859298706055 2.000001192092896 35.71834182739258 2.000001192092896 31.70703125 C 2.000001192092896 27.69573211669922 2.785171270370483 23.80547142028809 4.333701133728027 20.14433097839355 C 5.829841136932373 16.60707092285156 7.972101211547852 13.42987155914307 10.7009916305542 10.7009916305542 C 13.42987155914307 7.972101211547852 16.60707092285156 5.829841136932373 20.14433097839355 4.333701133728027 C 23.80547142028809 2.785171270370483 27.69573211669922 2.000001192092896 31.70703125 2.000001192092896 C 35.71834182739258 2.000001192092896 39.60859298706055 2.785171270370483 43.26974105834961 4.333701133728027 C 46.80699157714844 5.829841136932373 49.98419189453125 7.972101211547852 52.71308135986328 10.7009916305542 C 55.44195938110352 13.42987155914307 57.58423233032227 16.60707092285156 59.08036041259766 20.14433097839355 C 60.62889099121094 23.80547142028809 61.4140625 27.69572067260742 61.4140625 31.70703125 C 61.4140625 35.71834182739258 60.62889099121094 39.60859298706055 59.08036041259766 43.26974105834961 C 57.58423233032227 46.80699157714844 55.44195938110352 49.98419189453125 52.71308135986328 52.71308135986328 C 49.98419189453125 55.44195938110352 46.80699157714844 57.58423233032227 43.26974105834961 59.08036041259766 C 39.60859298706055 60.62889099121094 35.71834182739258 61.4140625 31.70703125 61.4140625 Z" stroke="none"/>
        <path d="M 31.70703125 3.999996185302734 C 27.96484375 3.999996185302734 24.33671188354492 4.732006072998047 20.92343139648438 6.175712585449219 C 17.62457275390625 7.571006774902344 14.66105651855469 9.569347381591797 12.11519622802734 12.11519622802734 C 9.569347381591797 14.66105651855469 7.571006774902344 17.62457275390625 6.175712585449219 20.92343139648438 C 4.732006072998047 24.33671188354492 3.999996185302734 27.96484375 3.999996185302734 31.70703125 C 3.999996185302734 35.44921875 4.732006072998047 39.07734680175781 6.175712585449219 42.49063110351562 C 7.571006774902344 45.78948974609375 9.5693359375 48.75300598144531 12.11519622802734 51.29886627197266 C 14.66105651855469 53.8447265625 17.62457275390625 55.84305572509766 20.92343139648438 57.23834991455078 C 24.33671188354492 58.68205642700195 27.96484375 59.41406631469727 31.70703125 59.41406631469727 C 35.44921875 59.41406631469727 39.07734680175781 58.68205642700195 42.49063110351562 57.23834991455078 C 45.78948974609375 55.84305572509766 48.75300598144531 53.8447265625 51.29886627197266 51.29886627197266 C 53.8447265625 48.75300598144531 55.84305572509766 45.78948974609375 57.23834991455078 42.49063110351562 C 58.68205642700195 39.07734680175781 59.41406631469727 35.44921875 59.41406631469727 31.70703125 C 59.41406631469727 27.96484375 58.68205642700195 24.33671188354492 57.23834991455078 20.92343139648438 C 55.84305572509766 17.62457275390625 53.8447265625 14.66105651855469 51.29886627197266 12.11519622802734 C 48.75300598144531 9.5693359375 45.78948974609375 7.571006774902344 42.49063110351562 6.175712585449219 C 39.07734680175781 4.732006072998047 35.44921875 3.999996185302734 31.70703125 3.999996185302734 M 31.70703125 -3.814697265625e-06 C 49.21834945678711 -3.814697265625e-06 63.41406631469727 14.19572448730469 63.41406631469727 31.70703125 C 63.41406631469727 49.21834945678711 49.21834945678711 63.41406631469727 31.70703125 63.41406631469727 C 14.19572448730469 63.41406631469727 -3.814697265625e-06 49.21834945678711 -3.814697265625e-06 31.70703125 C -3.814697265625e-06 14.19572448730469 14.19572448730469 -3.814697265625e-06 31.70703125 -3.814697265625e-06 Z" stroke="none" fill="#fff"/>
      </g>
    </g>
    <g id="Grupo_1114515" data-name="Grupo 1114515" transform="translate(838.087 7312.226)">
      <g id="Grupo_1114513" data-name="Grupo 1114513" transform="translate(0.596 1.789)">
        <g id="Grupo_1114501" data-name="Grupo 1114501" transform="translate(17.863 26.232)">
          <path id="Trazado_907609" data-name="Trazado 907609" d="M264.415,376.873v2.7a1.192,1.192,0,0,1-1.192,1.192H247.7A10.1,10.1,0,0,0,249.95,376h3.734v.6a.6.6,0,0,0,.6.6h8.943A2.376,2.376,0,0,0,264.415,376.873Z" transform="translate(-247.7 -376)" fill="#f0d0b4"/>
        </g>
        <g id="Grupo_1114502" data-name="Grupo 1114502" transform="translate(15.501)">
          <path id="Trazado_907610" data-name="Trazado 907610" d="M235.078,25.192V46.974a2.376,2.376,0,0,0-1.192-.319h-8.943a.6.6,0,0,0-.6.6v.6h-3.6a10.127,10.127,0,0,0-4.752-8V25.192A1.192,1.192,0,0,1,217.192,24h16.693A1.192,1.192,0,0,1,235.078,25.192Z" transform="translate(-216 -24)" fill="#f0d0b4"/>
        </g>
        <g id="Grupo_1114503" data-name="Grupo 1114503" transform="translate(17.886 5.962)">
          <path id="Trazado_907611" data-name="Trazado 907611" d="M248,104v5.962a.6.6,0,0,0,.6.6h4.173v2.385a.6.6,0,0,0,.6.6h8.347a.6.6,0,0,0,.6-.6V104Z" transform="translate(-248 -104)" fill="#e6e9ed"/>
        </g>
        <g id="Grupo_1114504" data-name="Grupo 1114504" transform="translate(22.655 2.385)">
          <path id="Trazado_907612" data-name="Trazado 907612" d="M321.539,56.6v2.981H312V56h8.943A.6.6,0,0,1,321.539,56.6Z" transform="translate(-312 -56)" fill="#f29ed0"/>
        </g>
        <g id="Grupo_1114505" data-name="Grupo 1114505" transform="translate(17.886 2.385)">
          <path id="Trazado_907613" data-name="Trazado 907613" d="M252.769,56v3.577H248V56.6a.6.6,0,0,1,.6-.6Z" transform="translate(-248 -56)" fill="#fcd770"/>
        </g>
        <g id="Grupo_1114506" data-name="Grupo 1114506" transform="translate(23.847 22.655)">
          <path id="Trazado_907614" data-name="Trazado 907614" d="M338.731,328.319a2.385,2.385,0,0,1-1.192,4.451H328.6a.6.6,0,0,1-.6-.6V328.6a.6.6,0,0,1,.6-.6h8.943A2.376,2.376,0,0,1,338.731,328.319Z" transform="translate(-328 -328)" fill="#969faa"/>
        </g>
        <g id="Grupo_1114507" data-name="Grupo 1114507" transform="translate(20.113 23.847)">
          <path id="Trazado_907615" data-name="Trazado 907615" d="M281.624,344v2.385H277.89a10.173,10.173,0,0,0,.157-1.789c0-.2-.006-.4-.018-.6h3.595Z" transform="translate(-277.89 -344)" fill="#ccd1d9"/>
        </g>
        <g id="Grupo_1114508" data-name="Grupo 1114508" transform="translate(0 15.844)">
          <path id="Trazado_907616" data-name="Trazado 907616" d="M24.667,249.373a7.753,7.753,0,0,0-1.166-9.766V236.6a10.127,10.127,0,0,1,4.752,8c.012.2.018.4.018.6a10.135,10.135,0,1,1-15.5-8.6v3.007a7.751,7.751,0,1,0,11.9,9.766Z" transform="translate(-8 -236.6)" fill="#ccd1d9"/>
        </g>
        <g id="Grupo_1114509" data-name="Grupo 1114509" transform="translate(2.385 18.851)">
          <path id="Trazado_907617" data-name="Trazado 907617" d="M53.116,276.95v9.766H42.385V276.95a7.75,7.75,0,1,0,10.731,0Z" transform="translate(-40 -276.95)" fill="#69d6f4"/>
        </g>
        <g id="Grupo_1114510" data-name="Grupo 1114510" transform="translate(11.924 14.308)">
          <path id="Trazado_907618" data-name="Trazado 907618" d="M171.577,220.542v9.766H168V216h3.577v4.542Z" transform="translate(-168 -216)" fill="#f29ed0"/>
        </g>
        <g id="Grupo_1114511" data-name="Grupo 1114511" transform="translate(8.347 8.347)">
          <path id="Trazado_907619" data-name="Trazado 907619" d="M123.577,141.962V156.27H120V136.6a.6.6,0,0,1,.6-.6h2.385a.6.6,0,0,1,.6.6Z" transform="translate(-120 -136)" fill="#f29ed0"/>
        </g>
        <g id="Grupo_1114512" data-name="Grupo 1114512" transform="translate(4.769 13.116)">
          <path id="Trazado_907620" data-name="Trazado 907620" d="M75.577,200v15.5H72V200.6a.6.6,0,0,1,.6-.6Z" transform="translate(-72 -200)" fill="#f29ed0"/>
        </g>
      </g>
      <g id="Grupo_1114514" data-name="Grupo 1114514">
        <path id="Trazado_907621" data-name="Trazado 907621" d="M113.789,5.962a.6.6,0,0,1-.6-.6H112a1.791,1.791,0,0,0,1.192,1.686V8.347h1.192V7.154h1.192V5.366a1.791,1.791,0,0,0-1.789-1.789.6.6,0,0,1-.6-.6v-.6h.6a.6.6,0,0,1,.6.6h1.192a1.791,1.791,0,0,0-1.192-1.686V0h-1.192V1.192H112V2.981a1.791,1.791,0,0,0,1.789,1.789.6.6,0,0,1,.6.6v.6Z" transform="translate(-103.653)"/>
        <path id="Trazado_907622" data-name="Trazado 907622" d="M36.963,41.636a2.978,2.978,0,0,0-1.192-2.383V17.789A1.791,1.791,0,0,0,33.982,16H17.289A1.791,1.791,0,0,0,15.5,17.789v12.52H13.116V25.539a1.194,1.194,0,0,0-1.192-1.192H9.539a1.194,1.194,0,0,0-1.192,1.192v3.577H5.962a1.194,1.194,0,0,0-1.192,1.192v1.807A10.73,10.73,0,1,0,18.723,48.194h15.26a1.791,1.791,0,0,0,1.789-1.789V44.019A2.978,2.978,0,0,0,36.963,41.636ZM16.693,17.789a.6.6,0,0,1,.6-.6H33.982a.6.6,0,0,1,.6.6V38.715a2.983,2.983,0,0,0-.6-.06H25.04a1.194,1.194,0,0,0-1.192,1.192H21.4a10.666,10.666,0,0,0-4.7-7.732V17.789Zm7.154,24.444H21.4a10.79,10.79,0,0,0,.067-1.192h2.385ZM4.769,44.617H4.537a7.157,7.157,0,0,1,.232-7.537Zm11.289,1.192a7.143,7.143,0,0,1-10.655,0Zm.866-1.192h-.232V37.08a7.157,7.157,0,0,1,.232,7.537ZM15.5,31.5V44.617H13.116V31.5ZM9.539,25.539h2.385V44.617H9.539V25.539ZM8.347,30.308V44.617H5.962V30.308Zm2.385,20.27A9.539,9.539,0,0,1,4.769,33.593V35.2A8.271,8.271,0,0,0,2.385,41.04a8.347,8.347,0,0,0,16.693,0A8.271,8.271,0,0,0,16.693,35.2V33.592a9.54,9.54,0,0,1-5.962,16.986Zm23.847-4.173a.6.6,0,0,1-.6.6H19.65A10.678,10.678,0,0,0,21.2,43.424h2.652a1.194,1.194,0,0,0,1.192,1.192h8.943a2.983,2.983,0,0,0,.6-.06Zm-.6-2.981H25.04V39.847h8.943a1.789,1.789,0,0,1,0,3.577Z" transform="translate(0 -14.808)"/>
        <path id="Trazado_907623" data-name="Trazado 907623" d="M304,256h1.192v1.192H304Z" transform="translate(-281.345 -236.922)"/>
        <path id="Trazado_907624" data-name="Trazado 907624" d="M336,256h7.154v1.192H336Z" transform="translate(-310.96 -236.922)"/>
        <path id="Trazado_907625" data-name="Trazado 907625" d="M304,288h9.539v1.192H304Z" transform="translate(-281.345 -266.537)"/>
        <path id="Trazado_907626" data-name="Trazado 907626" d="M241.192,59.327h3.577v1.789a1.194,1.194,0,0,0,1.192,1.192h8.347a1.194,1.194,0,0,0,1.192-1.192V49.192A1.194,1.194,0,0,0,254.308,48H241.192A1.194,1.194,0,0,0,240,49.192v8.943A1.194,1.194,0,0,0,241.192,59.327Zm0-1.192V55.75h3.577v2.385Zm13.116-5.366v1.789h-3.577V52.769Zm-4.769,1.789h-3.577V52.769h3.577Zm-3.577,1.192h3.577v2.385h-3.577Zm-1.192-1.192h-3.577V52.769h3.577Zm1.192,4.769h3.577v1.789h-3.577Zm8.347,1.789h-3.577V59.327h3.577Zm-3.577-2.981V55.75h3.577v2.385Zm3.577-8.943v2.385h-8.347V49.192Zm-9.539,0v2.385h-3.577V49.192Z" transform="translate(-222.115 -44.423)"/>
      </g>
    </g>
  </g>
</svg>
