<svg id="Grupo_1113442" data-name="Grupo 1113442" xmlns="http://www.w3.org/2000/svg" width="432.073" height="81.816" viewBox="0 0 432.073 81.816">
  <g id="Grupo_1113441" data-name="Grupo 1113441">
    <rect id="Rectángulo_406002" data-name="Rectángulo 406002" width="421.073" height="74" transform="translate(11 7.816)" fill="#bce0fc"/>
    <g id="Rectángulo_406003" data-name="Rectángulo 406003" fill="#fbfbf9" stroke="#000" stroke-width="0.5">
      <rect width="428" height="76" stroke="none"/>
      <rect x="0.25" y="0.25" width="427.5" height="75.5" fill="none"/>
    </g>
  </g>
  <g id="Grupo_1113432" data-name="Grupo 1113432" transform="translate(47 16)">
    <path id="Trazado_908148" data-name="Trazado 908148" d="M40.383,17l-.508-3.133h-4.75L33.313,17H31.766L38.438,5.8h1.375L41.766,17ZM38.945,7.914q-.008-.078-.012-.18t0-.2V7.156H38.9q-.023.07-.062.168t-.086.2q-.047.105-.1.207l-.09.18L35.8,12.68h3.867Zm11.008,6.813q-.07.3-.129.633l-.113.633q-.055.3-.094.57T49.555,17H48.3q.039-.3.09-.637t.1-.613q.055-.328.1-.641h-.031a6.607,6.607,0,0,1-.605.809,4.531,4.531,0,0,1-.719.664,3.413,3.413,0,0,1-.82.449,2.529,2.529,0,0,1-.9.164,2.346,2.346,0,0,1-.9-.16,1.741,1.741,0,0,1-.645-.449,1.886,1.886,0,0,1-.387-.7,2.988,2.988,0,0,1-.129-.906,2.2,2.2,0,0,1,.031-.3q.031-.2.07-.437t.09-.465q.051-.23.082-.395L44.656,9h1.3l-.992,4.688q-.031.125-.062.289t-.059.328q-.027.164-.043.3a2.009,2.009,0,0,0-.016.215,1.427,1.427,0,0,0,.285.934,1.042,1.042,0,0,0,.855.348,1.8,1.8,0,0,0,.688-.141,3.128,3.128,0,0,0,.668-.379,4.2,4.2,0,0,0,.613-.555,5.41,5.41,0,0,0,.523-.672,4.879,4.879,0,0,0,.4-.73,4.028,4.028,0,0,0,.242-.719L49.891,9H51.18Zm7.328-4.32a3.33,3.33,0,0,0-.789-.367,2.845,2.845,0,0,0-.875-.141,1.726,1.726,0,0,0-1.137.336,1.1,1.1,0,0,0-.4.891,1.116,1.116,0,0,0,.074.414,1.25,1.25,0,0,0,.219.355,1.986,1.986,0,0,0,.367.324q.223.156.512.336A4.028,4.028,0,0,1,56.512,13.6,2.01,2.01,0,0,1,56.9,14.8a2.435,2.435,0,0,1-.168.887,2,2,0,0,1-.535.766,2.745,2.745,0,0,1-.949.535,4.331,4.331,0,0,1-1.418.2,4.7,4.7,0,0,1-.516-.031,5.462,5.462,0,0,1-.566-.094,4.941,4.941,0,0,1-.547-.152,2.407,2.407,0,0,1-.457-.207L52,15.492a2.692,2.692,0,0,0,.387.219,4,4,0,0,0,.5.2,4.673,4.673,0,0,0,.563.141,3.166,3.166,0,0,0,.582.055,1.834,1.834,0,0,0,1.168-.312,1.053,1.053,0,0,0,.387-.867,1.155,1.155,0,0,0-.059-.375,1.052,1.052,0,0,0-.207-.344,2.3,2.3,0,0,0-.391-.348q-.242-.176-.609-.395a3.947,3.947,0,0,1-1.176-1.012,1.992,1.992,0,0,1-.379-1.191,2.432,2.432,0,0,1,.18-.926,2.24,2.24,0,0,1,.535-.781,2.6,2.6,0,0,1,.895-.543,3.559,3.559,0,0,1,1.258-.2,5.018,5.018,0,0,1,1.066.109,3.786,3.786,0,0,1,.855.281Zm8.141.469a2.381,2.381,0,0,1-.281,1.152,2.331,2.331,0,0,1-.93.891,5.584,5.584,0,0,1-1.711.574,14.678,14.678,0,0,1-2.625.211,1,1,0,0,0-.016.18v.156a2.657,2.657,0,0,0,.117.8,1.8,1.8,0,0,0,.363.656,1.714,1.714,0,0,0,.633.445,2.341,2.341,0,0,0,.918.164,3.9,3.9,0,0,0,1.184-.207,5.087,5.087,0,0,0,1.23-.59l-.242,1.266a5.078,5.078,0,0,1-1.023.438,4.4,4.4,0,0,1-1.328.188,3.609,3.609,0,0,1-1.488-.273,2.621,2.621,0,0,1-.977-.73,2.848,2.848,0,0,1-.535-1.055,4.716,4.716,0,0,1-.164-1.254,5.8,5.8,0,0,1,.156-1.355,5.519,5.519,0,0,1,.441-1.215,5.148,5.148,0,0,1,.684-1.027,4.444,4.444,0,0,1,.883-.793,4.092,4.092,0,0,1,1.039-.508A3.7,3.7,0,0,1,62.9,8.8a3.319,3.319,0,0,1,1.09.164,2.277,2.277,0,0,1,.789.449,1.915,1.915,0,0,1,.48.66A1.966,1.966,0,0,1,65.422,10.875Zm-1.3.063a.9.9,0,0,0-.363-.766,1.565,1.565,0,0,0-.965-.273,2.163,2.163,0,0,0-.922.207,2.984,2.984,0,0,0-.82.57,3.56,3.56,0,0,0-.648.867,4.038,4.038,0,0,0-.4,1.09,13.5,13.5,0,0,0,1.9-.113,4.925,4.925,0,0,0,1.273-.332,1.712,1.712,0,0,0,.719-.535A1.2,1.2,0,0,0,64.117,10.938ZM73.9,11a2.547,2.547,0,0,1-.027.32q-.027.2-.07.438t-.086.465q-.043.23-.082.395L72.7,17h-1.3l.977-4.687q.031-.125.063-.289T72.5,11.7q.023-.164.039-.3a2.01,2.01,0,0,0,.016-.215,1.424,1.424,0,0,0-.285-.937,1.038,1.038,0,0,0-.848-.344,1.972,1.972,0,0,0-1.023.3,4.211,4.211,0,0,0-.937.773,5.274,5.274,0,0,0-.738,1.031,3.952,3.952,0,0,0-.418,1.086L67.469,17h-1.3l1.234-5.711q.062-.3.125-.637t.117-.641q.055-.309.094-.574T67.8,9h1.25q-.039.3-.094.637t-.094.613q-.047.328-.1.641H68.8a6.607,6.607,0,0,1,.605-.809,4.531,4.531,0,0,1,.719-.664,3.413,3.413,0,0,1,.82-.449,2.55,2.55,0,0,1,.91-.164,2.362,2.362,0,0,1,.914.16,1.712,1.712,0,0,1,.637.449,1.829,1.829,0,0,1,.375.7A3.108,3.108,0,0,1,73.9,11Zm6.211-.914H78.094l-.9,4.242q-.047.242-.094.523a2.892,2.892,0,0,0-.047.453.789.789,0,0,0,.176.574.764.764,0,0,0,.559.176,1.228,1.228,0,0,0,.242-.031q.148-.031.3-.078t.309-.105l.27-.105-.242,1.125a3.788,3.788,0,0,1-.621.2,2.877,2.877,0,0,1-.66.082,2.234,2.234,0,0,1-.758-.113,1.3,1.3,0,0,1-.512-.324,1.256,1.256,0,0,1-.289-.512,2.358,2.358,0,0,1-.09-.676,3.787,3.787,0,0,1,.043-.527,5.468,5.468,0,0,1,.105-.551l.922-4.352H75.484L75.727,9h1.313l.414-1.953a2.408,2.408,0,0,1,.238-.074q.207-.059.453-.133L78.6,6.7l.23-.07L78.336,9h2.016Zm3.031,6.883a2.994,2.994,0,0,1-.441.1,3.111,3.111,0,0,1-.488.039,1.594,1.594,0,0,1-1.18-.395,1.439,1.439,0,0,1-.391-1.059,3.228,3.228,0,0,1,.039-.461q.039-.266.125-.656L81.969,9h1.3l-1.172,5.57q-.07.328-.1.508a2.079,2.079,0,0,0-.027.3.644.644,0,0,0,.176.488.787.787,0,0,0,.559.168,2.366,2.366,0,0,0,.355-.023,1.575,1.575,0,0,0,.285-.07Zm.914-10.82a.841.841,0,0,1-.238.6.782.782,0,0,1-.59.25.831.831,0,0,1-.6-.246.81.81,0,0,1-.254-.605.749.749,0,0,1,.254-.586.869.869,0,0,1,.6-.227.819.819,0,0,1,.586.23A.769.769,0,0,1,84.055,6.148ZM89.7,10.406a3.33,3.33,0,0,0-.789-.367,2.845,2.845,0,0,0-.875-.141,1.726,1.726,0,0,0-1.137.336,1.1,1.1,0,0,0-.4.891,1.116,1.116,0,0,0,.074.414,1.25,1.25,0,0,0,.219.355,1.985,1.985,0,0,0,.367.324q.223.156.512.336A4.028,4.028,0,0,1,88.926,13.6a2.01,2.01,0,0,1,.387,1.207,2.435,2.435,0,0,1-.168.887,2,2,0,0,1-.535.766,2.744,2.744,0,0,1-.949.535,4.331,4.331,0,0,1-1.418.2,4.7,4.7,0,0,1-.516-.031,5.462,5.462,0,0,1-.566-.094,4.941,4.941,0,0,1-.547-.152,2.407,2.407,0,0,1-.457-.207l.258-1.219a2.691,2.691,0,0,0,.387.219,4,4,0,0,0,.5.2,4.673,4.673,0,0,0,.563.141,3.166,3.166,0,0,0,.582.055,1.834,1.834,0,0,0,1.168-.312A1.053,1.053,0,0,0,88,14.922a1.155,1.155,0,0,0-.059-.375,1.052,1.052,0,0,0-.207-.344,2.3,2.3,0,0,0-.391-.348q-.242-.176-.609-.395a3.947,3.947,0,0,1-1.176-1.012,1.992,1.992,0,0,1-.379-1.191,2.432,2.432,0,0,1,.18-.926,2.24,2.24,0,0,1,.535-.781,2.6,2.6,0,0,1,.895-.543,3.559,3.559,0,0,1,1.258-.2,5.018,5.018,0,0,1,1.066.109,3.786,3.786,0,0,1,.855.281Zm13.57.609a2.6,2.6,0,0,1-.027.309q-.027.207-.07.441t-.086.465q-.043.23-.074.387L102.063,17h-1.281l.977-4.687q.031-.133.063-.3t.059-.324q.027-.16.043-.3a2.01,2.01,0,0,0,.016-.215,1.487,1.487,0,0,0-.266-.949,1,1,0,0,0-.828-.332,1.542,1.542,0,0,0-.613.137,2.836,2.836,0,0,0-.617.371,4.353,4.353,0,0,0-.578.547,5.567,5.567,0,0,0-.508.668,5.2,5.2,0,0,0-.395.727,3.81,3.81,0,0,0-.242.73L97.055,17h-1.3l.992-4.687q.031-.133.063-.3t.059-.324q.027-.16.043-.3a2.01,2.01,0,0,0,.016-.215,1.457,1.457,0,0,0-.273-.949,1,1,0,0,0-.82-.332,1.586,1.586,0,0,0-.625.137,2.8,2.8,0,0,0-.625.375,4.293,4.293,0,0,0-.582.555,5.826,5.826,0,0,0-.508.672,4.916,4.916,0,0,0-.391.727,3.977,3.977,0,0,0-.238.73L92.031,17h-1.3l1.234-5.711q.062-.3.125-.637t.117-.641q.055-.309.094-.574T92.367,9h1.25q-.039.3-.094.637t-.094.613q-.047.328-.1.641h.031a6.756,6.756,0,0,1,.609-.836,4.457,4.457,0,0,1,.7-.66,3.219,3.219,0,0,1,.766-.434,2.411,2.411,0,0,1,1.688-.008,1.6,1.6,0,0,1,.6.418,1.827,1.827,0,0,1,.363.652,3.263,3.263,0,0,1,.148.852,7.56,7.56,0,0,1,.621-.816,4.41,4.41,0,0,1,.711-.656,3.362,3.362,0,0,1,.8-.437,2.542,2.542,0,0,1,.9-.16,1.869,1.869,0,0,1,1.5.582A2.423,2.423,0,0,1,103.266,11.016Zm8.766.945a6.659,6.659,0,0,1-.3,2.016,5.154,5.154,0,0,1-.867,1.668,4.19,4.19,0,0,1-1.375,1.133,3.914,3.914,0,0,1-1.824.418,3.33,3.33,0,0,1-1.238-.219,2.576,2.576,0,0,1-.937-.629,2.786,2.786,0,0,1-.594-.992,3.912,3.912,0,0,1-.207-1.316A6.519,6.519,0,0,1,105,11.98a5.2,5.2,0,0,1,.891-1.664,4.161,4.161,0,0,1,1.375-1.109,3.885,3.885,0,0,1,1.77-.4,3.308,3.308,0,0,1,1.23.219,2.614,2.614,0,0,1,.941.629,2.848,2.848,0,0,1,.605.992A3.783,3.783,0,0,1,112.031,11.961Zm-1.312.063a2.987,2.987,0,0,0-.125-.9,1.92,1.92,0,0,0-.352-.664,1.525,1.525,0,0,0-.547-.414,1.729,1.729,0,0,0-.719-.145,2.272,2.272,0,0,0-1.242.352,3.143,3.143,0,0,0-.937.926,4.591,4.591,0,0,0-.59,1.3,5.46,5.46,0,0,0-.207,1.5,2.988,2.988,0,0,0,.121.879,2,2,0,0,0,.344.672,1.484,1.484,0,0,0,.547.426,1.735,1.735,0,0,0,.73.148,2.3,2.3,0,0,0,1.25-.348,3.1,3.1,0,0,0,.938-.922,4.505,4.505,0,0,0,.586-1.309A5.6,5.6,0,0,0,110.719,12.023Zm8.32-.828V10.148h7.344V11.2Zm0,3.328V13.477h7.344v1.047Z" transform="translate(0 12)" fill="#12263f"/>
    <path id="Trazado_908149" data-name="Trazado 908149" d="M32.648,17H31.3l1.07-5.055H26.648L25.594,17H24.234L26.6,5.8h1.359l-1.055,4.914h5.727L33.688,5.8h1.344Zm10.289-5.039a6.659,6.659,0,0,1-.3,2.016,5.153,5.153,0,0,1-.867,1.668,4.19,4.19,0,0,1-1.375,1.133,3.914,3.914,0,0,1-1.824.418,3.33,3.33,0,0,1-1.238-.219,2.576,2.576,0,0,1-.937-.629,2.786,2.786,0,0,1-.594-.992,3.912,3.912,0,0,1-.207-1.316,6.519,6.519,0,0,1,.316-2.059,5.2,5.2,0,0,1,.891-1.664,4.161,4.161,0,0,1,1.375-1.109,3.885,3.885,0,0,1,1.77-.4,3.308,3.308,0,0,1,1.23.219,2.614,2.614,0,0,1,.941.629,2.848,2.848,0,0,1,.605.992A3.783,3.783,0,0,1,42.938,11.961Zm-1.312.063a2.987,2.987,0,0,0-.125-.9,1.919,1.919,0,0,0-.352-.664,1.525,1.525,0,0,0-.547-.414,1.729,1.729,0,0,0-.719-.145,2.272,2.272,0,0,0-1.242.352,3.143,3.143,0,0,0-.937.926,4.591,4.591,0,0,0-.59,1.3,5.46,5.46,0,0,0-.207,1.5,2.988,2.988,0,0,0,.121.879,2,2,0,0,0,.344.672,1.484,1.484,0,0,0,.547.426,1.735,1.735,0,0,0,.73.148,2.3,2.3,0,0,0,1.25-.348,3.1,3.1,0,0,0,.938-.922,4.506,4.506,0,0,0,.586-1.309A5.6,5.6,0,0,0,41.625,12.023Zm7.906-1.664H49.5a2.307,2.307,0,0,0-.41-.184,1.5,1.5,0,0,0-.5-.09,1.479,1.479,0,0,0-.867.293,3.188,3.188,0,0,0-.754.773,5.549,5.549,0,0,0-.594,1.1,7.5,7.5,0,0,0-.395,1.266L45.227,17H43.945l1.125-5.312q.07-.328.141-.687t.129-.719q.059-.359.105-.687T45.516,9h1.266q-.023.234-.055.5T46.664,10q-.031.246-.062.445t-.047.309h.031a8.623,8.623,0,0,1,.508-.8,3.718,3.718,0,0,1,.543-.613,2.3,2.3,0,0,1,.605-.395,1.71,1.71,0,0,1,.7-.141,2.206,2.206,0,0,1,.434.043q.215.043.387.09ZM56.3,14.438q-.063.3-.121.668t-.1.734q-.043.363-.07.676T55.977,17H54.648q.008-.156.023-.375t.043-.453q.027-.234.055-.461t.059-.391H54.8q-.242.383-.492.723a3.478,3.478,0,0,1-.555.6,2.429,2.429,0,0,1-.68.406,2.612,2.612,0,0,1-1.84-.039,2.006,2.006,0,0,1-.746-.559,2.574,2.574,0,0,1-.48-.93,4.532,4.532,0,0,1-.168-1.3,6.518,6.518,0,0,1,.094-1.031,6.309,6.309,0,0,1,.316-1.18,6.007,6.007,0,0,1,.594-1.176A4.465,4.465,0,0,1,51.762,9.8a4.4,4.4,0,0,1,1.3-.727A5.051,5.051,0,0,1,54.8,8.8a9.22,9.22,0,0,1,1.289.094q.664.094,1.32.227Zm-.367-4.383q-.273-.062-.641-.109A5.447,5.447,0,0,0,54.6,9.9a3.119,3.119,0,0,0-1.2.215,3.077,3.077,0,0,0-.9.563,3.313,3.313,0,0,0-.645.8,4.965,4.965,0,0,0-.418.926,5.448,5.448,0,0,0-.223.934,5.91,5.91,0,0,0-.066.836,3.744,3.744,0,0,0,.078.8,1.748,1.748,0,0,0,.246.605,1.156,1.156,0,0,0,.43.387,1.325,1.325,0,0,0,.621.137,1.692,1.692,0,0,0,.73-.16,2.532,2.532,0,0,0,.637-.434,3.56,3.56,0,0,0,.539-.633,6.225,6.225,0,0,0,.438-.762,6.515,6.515,0,0,0,.332-.82q.137-.418.223-.809Zm7.633.352a3.33,3.33,0,0,0-.789-.367A2.845,2.845,0,0,0,61.9,9.9a1.726,1.726,0,0,0-1.137.336,1.1,1.1,0,0,0-.4.891,1.116,1.116,0,0,0,.074.414,1.25,1.25,0,0,0,.219.355,1.986,1.986,0,0,0,.367.324q.223.156.512.336A4.028,4.028,0,0,1,62.793,13.6,2.01,2.01,0,0,1,63.18,14.8a2.435,2.435,0,0,1-.168.887,2,2,0,0,1-.535.766,2.745,2.745,0,0,1-.949.535,4.331,4.331,0,0,1-1.418.2,4.7,4.7,0,0,1-.516-.031,5.462,5.462,0,0,1-.566-.094,4.941,4.941,0,0,1-.547-.152,2.407,2.407,0,0,1-.457-.207l.258-1.219a2.692,2.692,0,0,0,.387.219,4,4,0,0,0,.5.2,4.673,4.673,0,0,0,.563.141,3.166,3.166,0,0,0,.582.055,1.834,1.834,0,0,0,1.168-.312,1.053,1.053,0,0,0,.387-.867,1.155,1.155,0,0,0-.059-.375A1.052,1.052,0,0,0,61.6,14.2a2.3,2.3,0,0,0-.391-.348q-.242-.176-.609-.395a3.947,3.947,0,0,1-1.176-1.012,1.992,1.992,0,0,1-.379-1.191,2.432,2.432,0,0,1,.18-.926,2.24,2.24,0,0,1,.535-.781,2.6,2.6,0,0,1,.895-.543,3.559,3.559,0,0,1,1.258-.2,5.018,5.018,0,0,1,1.066.109,3.786,3.786,0,0,1,.855.281Zm12.125,4.031q-.062.3-.121.668t-.1.734q-.043.363-.07.676T75.367,17H74.039q.008-.156.023-.375t.043-.453q.027-.234.055-.461t.059-.391h-.031q-.242.383-.492.723a3.478,3.478,0,0,1-.555.6,2.429,2.429,0,0,1-.68.406,2.612,2.612,0,0,1-1.84-.039,2.006,2.006,0,0,1-.746-.559,2.574,2.574,0,0,1-.48-.93,4.532,4.532,0,0,1-.168-1.3,6.518,6.518,0,0,1,.094-1.031,6.309,6.309,0,0,1,.316-1.18,6.006,6.006,0,0,1,.594-1.176A4.465,4.465,0,0,1,71.152,9.8a4.4,4.4,0,0,1,1.3-.727A5.051,5.051,0,0,1,74.188,8.8a9.22,9.22,0,0,1,1.289.094q.664.094,1.32.227Zm-.367-4.383q-.273-.062-.641-.109a5.447,5.447,0,0,0-.687-.047,3.119,3.119,0,0,0-1.2.215,3.077,3.077,0,0,0-.9.563,3.312,3.312,0,0,0-.645.8,4.965,4.965,0,0,0-.418.926,5.449,5.449,0,0,0-.223.934,5.91,5.91,0,0,0-.066.836,3.744,3.744,0,0,0,.078.8,1.749,1.749,0,0,0,.246.605,1.156,1.156,0,0,0,.43.387,1.325,1.325,0,0,0,.621.137,1.692,1.692,0,0,0,.73-.16,2.532,2.532,0,0,0,.637-.434,3.56,3.56,0,0,0,.539-.633,6.225,6.225,0,0,0,.438-.762,6.515,6.515,0,0,0,.332-.82q.137-.418.223-.809Zm9.234,4.672q-.07.3-.129.633l-.113.633q-.055.3-.094.57T84.156,17h-1.25q.039-.3.09-.637t.1-.613q.055-.328.1-.641h-.031a6.607,6.607,0,0,1-.605.809,4.531,4.531,0,0,1-.719.664,3.413,3.413,0,0,1-.82.449,2.529,2.529,0,0,1-.9.164,2.346,2.346,0,0,1-.9-.16,1.741,1.741,0,0,1-.645-.449,1.886,1.886,0,0,1-.387-.7,2.988,2.988,0,0,1-.129-.906,2.2,2.2,0,0,1,.031-.3q.031-.2.07-.437t.09-.465q.051-.23.082-.395L79.258,9h1.3l-.992,4.688q-.031.125-.062.289t-.059.328q-.027.164-.043.3a2.01,2.01,0,0,0-.016.215,1.427,1.427,0,0,0,.285.934,1.042,1.042,0,0,0,.855.348,1.8,1.8,0,0,0,.688-.141,3.128,3.128,0,0,0,.668-.379,4.2,4.2,0,0,0,.613-.555,5.41,5.41,0,0,0,.523-.672,4.879,4.879,0,0,0,.4-.73,4.028,4.028,0,0,0,.242-.719L84.492,9h1.289Zm7.328-4.32a3.33,3.33,0,0,0-.789-.367,2.845,2.845,0,0,0-.875-.141,1.726,1.726,0,0,0-1.137.336,1.1,1.1,0,0,0-.4.891,1.116,1.116,0,0,0,.074.414,1.25,1.25,0,0,0,.219.355,1.985,1.985,0,0,0,.367.324q.223.156.512.336A4.028,4.028,0,0,1,91.113,13.6,2.01,2.01,0,0,1,91.5,14.8a2.435,2.435,0,0,1-.168.887,2,2,0,0,1-.535.766,2.744,2.744,0,0,1-.949.535,4.331,4.331,0,0,1-1.418.2,4.7,4.7,0,0,1-.516-.031,5.462,5.462,0,0,1-.566-.094,4.941,4.941,0,0,1-.547-.152,2.407,2.407,0,0,1-.457-.207l.258-1.219a2.691,2.691,0,0,0,.387.219,4,4,0,0,0,.5.2,4.673,4.673,0,0,0,.563.141,3.166,3.166,0,0,0,.582.055,1.834,1.834,0,0,0,1.168-.312,1.053,1.053,0,0,0,.387-.867,1.155,1.155,0,0,0-.059-.375,1.052,1.052,0,0,0-.207-.344,2.3,2.3,0,0,0-.391-.348q-.242-.176-.609-.395a3.947,3.947,0,0,1-1.176-1.012,1.992,1.992,0,0,1-.379-1.191,2.432,2.432,0,0,1,.18-.926,2.24,2.24,0,0,1,.535-.781,2.6,2.6,0,0,1,.895-.543,3.559,3.559,0,0,1,1.258-.2,5.018,5.018,0,0,1,1.066.109,3.786,3.786,0,0,1,.855.281Zm8.141.469a2.381,2.381,0,0,1-.281,1.152,2.331,2.331,0,0,1-.93.891,5.584,5.584,0,0,1-1.711.574,14.678,14.678,0,0,1-2.625.211,1,1,0,0,0-.016.18v.156a2.657,2.657,0,0,0,.117.8,1.8,1.8,0,0,0,.363.656,1.714,1.714,0,0,0,.633.445,2.341,2.341,0,0,0,.918.164,3.9,3.9,0,0,0,1.184-.207,5.087,5.087,0,0,0,1.23-.59l-.242,1.266a5.078,5.078,0,0,1-1.023.438,4.4,4.4,0,0,1-1.328.188,3.609,3.609,0,0,1-1.488-.273,2.621,2.621,0,0,1-.977-.73,2.848,2.848,0,0,1-.535-1.055,4.716,4.716,0,0,1-.164-1.254,5.8,5.8,0,0,1,.156-1.355,5.519,5.519,0,0,1,.441-1.215,5.148,5.148,0,0,1,.684-1.027,4.444,4.444,0,0,1,.883-.793,4.092,4.092,0,0,1,1.039-.508A3.7,3.7,0,0,1,97.5,8.8a3.319,3.319,0,0,1,1.09.164,2.277,2.277,0,0,1,.789.449,1.915,1.915,0,0,1,.48.66A1.966,1.966,0,0,1,100.023,10.875Zm-1.3.063a.9.9,0,0,0-.363-.766,1.565,1.565,0,0,0-.965-.273,2.163,2.163,0,0,0-.922.207,2.984,2.984,0,0,0-.82.57,3.56,3.56,0,0,0-.648.867,4.038,4.038,0,0,0-.4,1.09,13.5,13.5,0,0,0,1.9-.113,4.925,4.925,0,0,0,1.273-.332,1.712,1.712,0,0,0,.719-.535A1.2,1.2,0,0,0,98.719,10.938ZM108.5,11a2.547,2.547,0,0,1-.027.32q-.027.2-.07.438t-.086.465q-.043.23-.082.395L107.3,17h-1.3l.977-4.687q.031-.125.063-.289t.055-.328q.023-.164.039-.3a2.01,2.01,0,0,0,.016-.215,1.424,1.424,0,0,0-.285-.937,1.038,1.038,0,0,0-.848-.344,1.972,1.972,0,0,0-1.023.3,4.211,4.211,0,0,0-.937.773,5.274,5.274,0,0,0-.738,1.031,3.952,3.952,0,0,0-.418,1.086L102.07,17h-1.3l1.234-5.711q.062-.3.125-.637t.117-.641q.055-.309.094-.574T102.406,9h1.25q-.039.3-.094.637t-.094.613q-.047.328-.1.641h.031a6.607,6.607,0,0,1,.605-.809,4.531,4.531,0,0,1,.719-.664,3.413,3.413,0,0,1,.82-.449,2.55,2.55,0,0,1,.91-.164,2.362,2.362,0,0,1,.914.16,1.712,1.712,0,0,1,.637.449,1.829,1.829,0,0,1,.375.7A3.108,3.108,0,0,1,108.5,11Zm6.211-.914H112.7l-.9,4.242q-.047.242-.094.523a2.892,2.892,0,0,0-.047.453.789.789,0,0,0,.176.574.764.764,0,0,0,.559.176,1.228,1.228,0,0,0,.242-.031q.148-.031.3-.078t.309-.105l.27-.105-.242,1.125a3.788,3.788,0,0,1-.621.2,2.877,2.877,0,0,1-.66.082,2.234,2.234,0,0,1-.758-.113,1.3,1.3,0,0,1-.512-.324,1.256,1.256,0,0,1-.289-.512,2.358,2.358,0,0,1-.09-.676,3.787,3.787,0,0,1,.043-.527,5.468,5.468,0,0,1,.105-.551l.922-4.352h-1.328L110.328,9h1.313l.414-1.953a2.408,2.408,0,0,1,.238-.074q.207-.059.453-.133L113.2,6.7l.23-.07L112.938,9h2.016Zm7.266.789a2.381,2.381,0,0,1-.281,1.152,2.331,2.331,0,0,1-.93.891,5.584,5.584,0,0,1-1.711.574,14.678,14.678,0,0,1-2.625.211,1,1,0,0,0-.016.18v.156a2.657,2.657,0,0,0,.117.8,1.8,1.8,0,0,0,.363.656,1.714,1.714,0,0,0,.633.445,2.341,2.341,0,0,0,.918.164,3.9,3.9,0,0,0,1.184-.207,5.087,5.087,0,0,0,1.23-.59l-.242,1.266a5.078,5.078,0,0,1-1.023.438,4.4,4.4,0,0,1-1.328.188,3.609,3.609,0,0,1-1.488-.273,2.621,2.621,0,0,1-.977-.73,2.848,2.848,0,0,1-.535-1.055,4.716,4.716,0,0,1-.164-1.254,5.8,5.8,0,0,1,.156-1.355,5.519,5.519,0,0,1,.441-1.215,5.148,5.148,0,0,1,.684-1.027,4.444,4.444,0,0,1,.883-.793,4.092,4.092,0,0,1,1.039-.508,3.7,3.7,0,0,1,1.148-.18,3.319,3.319,0,0,1,1.09.164,2.277,2.277,0,0,1,.789.449,1.915,1.915,0,0,1,.48.66A1.966,1.966,0,0,1,121.977,10.875Zm-1.3.063a.9.9,0,0,0-.363-.766,1.565,1.565,0,0,0-.965-.273,2.163,2.163,0,0,0-.922.207,2.984,2.984,0,0,0-.82.57,3.56,3.56,0,0,0-.648.867,4.038,4.038,0,0,0-.4,1.09,13.5,13.5,0,0,0,1.9-.113,4.925,4.925,0,0,0,1.273-.332,1.712,1.712,0,0,0,.719-.535A1.2,1.2,0,0,0,120.672,10.938Zm7.273-.531a3.33,3.33,0,0,0-.789-.367,2.845,2.845,0,0,0-.875-.141,1.726,1.726,0,0,0-1.137.336,1.1,1.1,0,0,0-.4.891,1.116,1.116,0,0,0,.074.414,1.25,1.25,0,0,0,.219.355,1.985,1.985,0,0,0,.367.324q.223.156.512.336a4.028,4.028,0,0,1,1.262,1.043,2.01,2.01,0,0,1,.387,1.207,2.435,2.435,0,0,1-.168.887,2,2,0,0,1-.535.766,2.744,2.744,0,0,1-.949.535,4.331,4.331,0,0,1-1.418.2,4.7,4.7,0,0,1-.516-.031,5.462,5.462,0,0,1-.566-.094,4.941,4.941,0,0,1-.547-.152,2.407,2.407,0,0,1-.457-.207l.258-1.219a2.691,2.691,0,0,0,.387.219,4,4,0,0,0,.5.2,4.673,4.673,0,0,0,.563.141,3.166,3.166,0,0,0,.582.055,1.834,1.834,0,0,0,1.168-.312,1.053,1.053,0,0,0,.387-.867,1.155,1.155,0,0,0-.059-.375,1.052,1.052,0,0,0-.207-.344,2.3,2.3,0,0,0-.391-.348q-.242-.176-.609-.395a3.947,3.947,0,0,1-1.176-1.012,1.992,1.992,0,0,1-.379-1.191,2.432,2.432,0,0,1,.18-.926,2.24,2.24,0,0,1,.535-.781,2.6,2.6,0,0,1,.895-.543,3.559,3.559,0,0,1,1.258-.2,5.018,5.018,0,0,1,1.066.109,3.786,3.786,0,0,1,.855.281Zm13.148.609a2.6,2.6,0,0,1-.027.309q-.027.207-.062.441t-.078.465q-.043.23-.082.387L139.914,17h-1.3l.977-4.687q.031-.125.063-.289t.055-.328q.023-.164.039-.3a2.008,2.008,0,0,0,.016-.215,1.446,1.446,0,0,0-.277-.945,1.046,1.046,0,0,0-.855-.336,1.963,1.963,0,0,0-1,.293,4.069,4.069,0,0,0-.93.758,5.27,5.27,0,0,0-.746,1.039,4.285,4.285,0,0,0-.441,1.137L134.68,17h-1.3l2.531-11.844H137.2l-1.219,5.719h.031a6.45,6.45,0,0,1,.633-.824,4.636,4.636,0,0,1,.73-.656,3.4,3.4,0,0,1,.813-.434,2.532,2.532,0,0,1,.879-.156,1.905,1.905,0,0,1,1.516.59A2.38,2.38,0,0,1,141.094,11.016Zm8.773.945a6.659,6.659,0,0,1-.3,2.016,5.153,5.153,0,0,1-.867,1.668,4.19,4.19,0,0,1-1.375,1.133,3.914,3.914,0,0,1-1.824.418,3.33,3.33,0,0,1-1.238-.219,2.576,2.576,0,0,1-.937-.629,2.786,2.786,0,0,1-.594-.992,3.912,3.912,0,0,1-.207-1.316,6.519,6.519,0,0,1,.316-2.059,5.2,5.2,0,0,1,.891-1.664,4.161,4.161,0,0,1,1.375-1.109,3.885,3.885,0,0,1,1.77-.4,3.308,3.308,0,0,1,1.23.219,2.614,2.614,0,0,1,.941.629,2.848,2.848,0,0,1,.605.992A3.783,3.783,0,0,1,149.867,11.961Zm-1.312.063a2.987,2.987,0,0,0-.125-.9,1.919,1.919,0,0,0-.352-.664,1.525,1.525,0,0,0-.547-.414,1.729,1.729,0,0,0-.719-.145,2.272,2.272,0,0,0-1.242.352,3.143,3.143,0,0,0-.937.926,4.591,4.591,0,0,0-.59,1.3,5.46,5.46,0,0,0-.207,1.5,2.988,2.988,0,0,0,.121.879,2,2,0,0,0,.344.672,1.484,1.484,0,0,0,.547.426,1.735,1.735,0,0,0,.73.148,2.3,2.3,0,0,0,1.25-.348,3.1,3.1,0,0,0,.938-.922,4.506,4.506,0,0,0,.586-1.309A5.6,5.6,0,0,0,148.555,12.023Zm14.836-1.008a2.6,2.6,0,0,1-.027.309q-.027.207-.07.441t-.086.465q-.043.23-.074.387L162.188,17h-1.281l.977-4.687q.031-.133.063-.3t.059-.324q.027-.16.043-.3a2.008,2.008,0,0,0,.016-.215,1.487,1.487,0,0,0-.266-.949,1,1,0,0,0-.828-.332,1.542,1.542,0,0,0-.613.137,2.836,2.836,0,0,0-.617.371,4.353,4.353,0,0,0-.578.547,5.567,5.567,0,0,0-.508.668,5.2,5.2,0,0,0-.395.727,3.809,3.809,0,0,0-.242.73L157.18,17h-1.3l.992-4.687q.031-.133.063-.3t.059-.324q.027-.16.043-.3a2.008,2.008,0,0,0,.016-.215,1.457,1.457,0,0,0-.273-.949,1,1,0,0,0-.82-.332,1.586,1.586,0,0,0-.625.137,2.8,2.8,0,0,0-.625.375,4.293,4.293,0,0,0-.582.555,5.826,5.826,0,0,0-.508.672,4.916,4.916,0,0,0-.391.727,3.977,3.977,0,0,0-.238.73L152.156,17h-1.3l1.234-5.711q.063-.3.125-.637t.117-.641q.055-.309.094-.574T152.492,9h1.25q-.039.3-.094.637t-.094.613q-.047.328-.1.641h.031a6.756,6.756,0,0,1,.609-.836,4.456,4.456,0,0,1,.7-.66,3.219,3.219,0,0,1,.766-.434,2.411,2.411,0,0,1,1.688-.008,1.6,1.6,0,0,1,.6.418,1.827,1.827,0,0,1,.363.652,3.264,3.264,0,0,1,.148.852,7.558,7.558,0,0,1,.621-.816,4.41,4.41,0,0,1,.711-.656,3.362,3.362,0,0,1,.8-.437,2.542,2.542,0,0,1,.9-.16,1.869,1.869,0,0,1,1.5.582A2.423,2.423,0,0,1,163.391,11.016Zm8.875.781a6.411,6.411,0,0,1-.109,1.137,6.074,6.074,0,0,1-.352,1.2,6.236,6.236,0,0,1-.617,1.152,4.4,4.4,0,0,1-.9.977,4.314,4.314,0,0,1-1.219.676,4.523,4.523,0,0,1-1.566.254,5.644,5.644,0,0,1-.742-.051,6.466,6.466,0,0,1-.75-.145,5.839,5.839,0,0,1-.7-.227,3.7,3.7,0,0,1-.609-.3L167.1,5.156h1.3l-.8,3.828q-.086.383-.176.8t-.176.75h.016a5.587,5.587,0,0,1,.531-.719,3.4,3.4,0,0,1,.605-.547,2.635,2.635,0,0,1,.7-.348A2.593,2.593,0,0,1,169.9,8.8a2.1,2.1,0,0,1,1.754.781A3.507,3.507,0,0,1,172.266,11.8Zm-1.312.031a3.625,3.625,0,0,0-.082-.8,1.71,1.71,0,0,0-.258-.609,1.161,1.161,0,0,0-.449-.383A1.51,1.51,0,0,0,169.5,9.9a1.732,1.732,0,0,0-.945.289,3.356,3.356,0,0,0-.828.766,5.242,5.242,0,0,0-.648,1.078,5.621,5.621,0,0,0-.4,1.227l-.523,2.492a2.764,2.764,0,0,0,.668.25,3.386,3.386,0,0,0,.832.1,2.721,2.721,0,0,0,1.016-.184,2.859,2.859,0,0,0,.828-.5,3.517,3.517,0,0,0,.641-.742,4.73,4.73,0,0,0,.453-.895,5.417,5.417,0,0,0,.27-.977A5.541,5.541,0,0,0,170.953,11.828Zm7.906-1.469h-.031a2.307,2.307,0,0,0-.41-.184,1.5,1.5,0,0,0-.5-.09,1.479,1.479,0,0,0-.867.293,3.188,3.188,0,0,0-.754.773,5.549,5.549,0,0,0-.594,1.1,7.5,7.5,0,0,0-.395,1.266L174.555,17h-1.281l1.125-5.312q.07-.328.141-.687t.129-.719q.059-.359.105-.687t.07-.594h1.266q-.023.234-.055.5t-.062.508q-.031.246-.062.445t-.047.309h.031a8.624,8.624,0,0,1,.508-.8,3.717,3.717,0,0,1,.543-.613,2.3,2.3,0,0,1,.605-.395,1.71,1.71,0,0,1,.7-.141,2.206,2.206,0,0,1,.434.043q.215.043.387.09Zm7.18.516a2.381,2.381,0,0,1-.281,1.152,2.331,2.331,0,0,1-.93.891,5.584,5.584,0,0,1-1.711.574,14.678,14.678,0,0,1-2.625.211,1,1,0,0,0-.016.18v.156a2.657,2.657,0,0,0,.117.8,1.8,1.8,0,0,0,.363.656,1.714,1.714,0,0,0,.633.445,2.341,2.341,0,0,0,.918.164,3.9,3.9,0,0,0,1.184-.207,5.087,5.087,0,0,0,1.23-.59l-.242,1.266a5.078,5.078,0,0,1-1.023.438,4.4,4.4,0,0,1-1.328.188,3.609,3.609,0,0,1-1.488-.273,2.621,2.621,0,0,1-.977-.73,2.848,2.848,0,0,1-.535-1.055,4.716,4.716,0,0,1-.164-1.254,5.8,5.8,0,0,1,.156-1.355,5.519,5.519,0,0,1,.441-1.215,5.149,5.149,0,0,1,.684-1.027,4.443,4.443,0,0,1,.883-.793,4.092,4.092,0,0,1,1.039-.508,3.7,3.7,0,0,1,1.148-.18,3.319,3.319,0,0,1,1.09.164,2.277,2.277,0,0,1,.789.449,1.915,1.915,0,0,1,.48.66A1.966,1.966,0,0,1,186.039,10.875Zm-1.3.063a.9.9,0,0,0-.363-.766,1.565,1.565,0,0,0-.965-.273,2.163,2.163,0,0,0-.922.207,2.984,2.984,0,0,0-.82.57,3.56,3.56,0,0,0-.648.867,4.038,4.038,0,0,0-.4,1.09,13.5,13.5,0,0,0,1.9-.113,4.925,4.925,0,0,0,1.273-.332,1.712,1.712,0,0,0,.719-.535A1.2,1.2,0,0,0,184.734,10.938ZM26.117,41H24.773l1.07-5.055H20.117L19.063,41H17.7L20.07,29.8H21.43l-1.055,4.914H26.1L27.156,29.8H28.5Zm10.289-5.039a6.659,6.659,0,0,1-.3,2.016,5.153,5.153,0,0,1-.867,1.668,4.19,4.19,0,0,1-1.375,1.133,3.914,3.914,0,0,1-1.824.418,3.33,3.33,0,0,1-1.238-.219,2.576,2.576,0,0,1-.937-.629,2.786,2.786,0,0,1-.594-.992,3.912,3.912,0,0,1-.207-1.316,6.519,6.519,0,0,1,.316-2.059,5.2,5.2,0,0,1,.891-1.664,4.161,4.161,0,0,1,1.375-1.109,3.885,3.885,0,0,1,1.77-.4,3.308,3.308,0,0,1,1.23.219,2.614,2.614,0,0,1,.941.629,2.848,2.848,0,0,1,.605.992A3.783,3.783,0,0,1,36.406,35.961Zm-1.312.063a2.987,2.987,0,0,0-.125-.9,1.919,1.919,0,0,0-.352-.664,1.525,1.525,0,0,0-.547-.414,1.729,1.729,0,0,0-.719-.145,2.272,2.272,0,0,0-1.242.352,3.143,3.143,0,0,0-.937.926,4.591,4.591,0,0,0-.59,1.3,5.46,5.46,0,0,0-.207,1.5,2.988,2.988,0,0,0,.121.879,2,2,0,0,0,.344.672,1.484,1.484,0,0,0,.547.426,1.735,1.735,0,0,0,.73.148,2.3,2.3,0,0,0,1.25-.348,3.1,3.1,0,0,0,.938-.922,4.506,4.506,0,0,0,.586-1.309A5.6,5.6,0,0,0,35.094,36.023ZM43,34.359h-.031a2.307,2.307,0,0,0-.41-.184,1.5,1.5,0,0,0-.5-.09,1.479,1.479,0,0,0-.867.293,3.188,3.188,0,0,0-.754.773,5.549,5.549,0,0,0-.594,1.1,7.5,7.5,0,0,0-.395,1.266L38.7,41H37.414l1.125-5.312q.07-.328.141-.687t.129-.719q.059-.359.105-.687t.07-.594H40.25q-.023.234-.055.5T40.133,34q-.031.246-.062.445t-.047.309h.031a8.623,8.623,0,0,1,.508-.8,3.718,3.718,0,0,1,.543-.613,2.3,2.3,0,0,1,.605-.395,1.71,1.71,0,0,1,.7-.141,2.206,2.206,0,0,1,.434.043q.215.043.387.09Zm6.766,4.078q-.063.3-.121.668t-.1.734q-.043.363-.07.676T49.445,41H48.117q.008-.156.023-.375t.043-.453q.027-.234.055-.461t.059-.391h-.031q-.242.383-.492.723a3.478,3.478,0,0,1-.555.6,2.429,2.429,0,0,1-.68.406,2.612,2.612,0,0,1-1.84-.039,2.006,2.006,0,0,1-.746-.559,2.574,2.574,0,0,1-.48-.93,4.532,4.532,0,0,1-.168-1.3,6.518,6.518,0,0,1,.094-1.031,6.309,6.309,0,0,1,.316-1.18,6.006,6.006,0,0,1,.594-1.176A4.465,4.465,0,0,1,45.23,33.8a4.4,4.4,0,0,1,1.3-.727,5.051,5.051,0,0,1,1.734-.273,9.22,9.22,0,0,1,1.289.094q.664.094,1.32.227ZM49.4,34.055q-.273-.063-.641-.109a5.447,5.447,0,0,0-.687-.047,3.118,3.118,0,0,0-1.2.215,3.077,3.077,0,0,0-.9.563,3.313,3.313,0,0,0-.645.8,4.965,4.965,0,0,0-.418.926,5.448,5.448,0,0,0-.223.934,5.91,5.91,0,0,0-.066.836,3.744,3.744,0,0,0,.078.8,1.748,1.748,0,0,0,.246.605,1.156,1.156,0,0,0,.43.387,1.325,1.325,0,0,0,.621.137,1.692,1.692,0,0,0,.73-.16,2.532,2.532,0,0,0,.637-.434,3.56,3.56,0,0,0,.539-.633,6.225,6.225,0,0,0,.438-.762,6.515,6.515,0,0,0,.332-.82q.137-.418.223-.809Zm7.633.352a3.329,3.329,0,0,0-.789-.367,2.845,2.845,0,0,0-.875-.141,1.726,1.726,0,0,0-1.137.336,1.1,1.1,0,0,0-.4.891,1.116,1.116,0,0,0,.074.414,1.25,1.25,0,0,0,.219.355,1.986,1.986,0,0,0,.367.324q.223.156.512.336A4.028,4.028,0,0,1,56.262,37.6a2.01,2.01,0,0,1,.387,1.207,2.435,2.435,0,0,1-.168.887,2,2,0,0,1-.535.766,2.745,2.745,0,0,1-.949.535,4.331,4.331,0,0,1-1.418.2,4.7,4.7,0,0,1-.516-.031,5.461,5.461,0,0,1-.566-.094,4.942,4.942,0,0,1-.547-.152,2.407,2.407,0,0,1-.457-.207l.258-1.219a2.692,2.692,0,0,0,.387.219,4,4,0,0,0,.5.2,4.672,4.672,0,0,0,.563.141,3.166,3.166,0,0,0,.582.055,1.834,1.834,0,0,0,1.168-.312,1.053,1.053,0,0,0,.387-.867,1.155,1.155,0,0,0-.059-.375,1.052,1.052,0,0,0-.207-.344,2.3,2.3,0,0,0-.391-.348q-.242-.176-.609-.395a3.947,3.947,0,0,1-1.176-1.012,1.992,1.992,0,0,1-.379-1.191,2.432,2.432,0,0,1,.18-.926,2.24,2.24,0,0,1,.535-.781,2.6,2.6,0,0,1,.895-.543,3.559,3.559,0,0,1,1.258-.2,5.018,5.018,0,0,1,1.066.109,3.786,3.786,0,0,1,.855.281Zm10.445-.32H65.461l-.9,4.242q-.047.242-.094.523a2.892,2.892,0,0,0-.047.453.789.789,0,0,0,.176.574.764.764,0,0,0,.559.176,1.228,1.228,0,0,0,.242-.031q.148-.031.3-.078t.309-.105l.27-.105-.242,1.125a3.788,3.788,0,0,1-.621.2,2.877,2.877,0,0,1-.66.082A2.234,2.234,0,0,1,64,41.027a1.3,1.3,0,0,1-.512-.324,1.256,1.256,0,0,1-.289-.512,2.359,2.359,0,0,1-.09-.676,3.788,3.788,0,0,1,.043-.527,5.466,5.466,0,0,1,.105-.551l.922-4.352H62.852L63.094,33h1.313l.414-1.953a2.408,2.408,0,0,1,.238-.074q.207-.059.453-.133l.453-.137.23-.07L65.7,33h2.016Zm5.766.273h-.031a2.306,2.306,0,0,0-.41-.184,1.5,1.5,0,0,0-.5-.09,1.479,1.479,0,0,0-.867.293,3.188,3.188,0,0,0-.754.773,5.549,5.549,0,0,0-.594,1.1,7.5,7.5,0,0,0-.395,1.266L68.938,41H67.656l1.125-5.312q.07-.328.141-.687t.129-.719q.059-.359.105-.687t.07-.594h1.266q-.023.234-.055.5T70.375,34q-.031.246-.062.445t-.047.309H70.3a8.622,8.622,0,0,1,.508-.8,3.718,3.718,0,0,1,.543-.613,2.3,2.3,0,0,1,.605-.395,1.71,1.71,0,0,1,.7-.141,2.206,2.206,0,0,1,.434.043q.215.043.387.09Zm6.766,4.078q-.062.3-.121.668t-.1.734q-.043.363-.07.676T79.688,41H78.359q.008-.156.023-.375t.043-.453q.027-.234.055-.461t.059-.391h-.031q-.242.383-.492.723a3.478,3.478,0,0,1-.555.6,2.429,2.429,0,0,1-.68.406,2.612,2.612,0,0,1-1.84-.039,2.006,2.006,0,0,1-.746-.559,2.574,2.574,0,0,1-.48-.93,4.532,4.532,0,0,1-.168-1.3,6.518,6.518,0,0,1,.094-1.031,6.309,6.309,0,0,1,.316-1.18,6.006,6.006,0,0,1,.594-1.176,4.465,4.465,0,0,1,.922-1.027,4.4,4.4,0,0,1,1.3-.727,5.051,5.051,0,0,1,1.734-.273A9.22,9.22,0,0,1,79.8,32.9q.664.094,1.32.227Zm-.367-4.383q-.273-.063-.641-.109a5.447,5.447,0,0,0-.687-.047,3.118,3.118,0,0,0-1.2.215,3.077,3.077,0,0,0-.9.563,3.312,3.312,0,0,0-.645.8,4.965,4.965,0,0,0-.418.926,5.449,5.449,0,0,0-.223.934,5.91,5.91,0,0,0-.066.836,3.744,3.744,0,0,0,.078.8,1.749,1.749,0,0,0,.246.605,1.156,1.156,0,0,0,.43.387,1.325,1.325,0,0,0,.621.137,1.692,1.692,0,0,0,.73-.16,2.532,2.532,0,0,0,.637-.434,3.56,3.56,0,0,0,.539-.633,6.225,6.225,0,0,0,.438-.762,6.515,6.515,0,0,0,.332-.82q.137-.418.223-.809ZM89.672,35.8a6.412,6.412,0,0,1-.109,1.137,6.073,6.073,0,0,1-.352,1.2,6.237,6.237,0,0,1-.617,1.152,4.4,4.4,0,0,1-.9.977,4.314,4.314,0,0,1-1.219.676,4.523,4.523,0,0,1-1.566.254,5.644,5.644,0,0,1-.742-.051,6.466,6.466,0,0,1-.75-.145,5.84,5.84,0,0,1-.7-.227,3.7,3.7,0,0,1-.609-.3l2.406-11.312h1.3L85,32.984q-.086.383-.176.8t-.176.75h.016a5.586,5.586,0,0,1,.531-.719,3.394,3.394,0,0,1,.605-.547,2.635,2.635,0,0,1,.7-.348A2.593,2.593,0,0,1,87.3,32.8a2.1,2.1,0,0,1,1.754.781A3.507,3.507,0,0,1,89.672,35.8Zm-1.312.031a3.625,3.625,0,0,0-.082-.8,1.71,1.71,0,0,0-.258-.609,1.161,1.161,0,0,0-.449-.383,1.509,1.509,0,0,0-.664-.133,1.732,1.732,0,0,0-.945.289,3.355,3.355,0,0,0-.828.766,5.242,5.242,0,0,0-.648,1.078,5.622,5.622,0,0,0-.4,1.227l-.523,2.492a2.765,2.765,0,0,0,.668.25,3.386,3.386,0,0,0,.832.1,2.721,2.721,0,0,0,1.016-.184,2.859,2.859,0,0,0,.828-.5,3.517,3.517,0,0,0,.641-.742A4.73,4.73,0,0,0,88,37.777a5.419,5.419,0,0,0,.27-.977A5.54,5.54,0,0,0,88.359,35.828Zm8.992,2.609q-.062.3-.121.668t-.1.734q-.043.363-.07.676T97.031,41H95.7q.008-.156.023-.375t.043-.453q.027-.234.055-.461t.059-.391h-.031q-.242.383-.492.723a3.478,3.478,0,0,1-.555.6,2.429,2.429,0,0,1-.68.406,2.612,2.612,0,0,1-1.84-.039,2.006,2.006,0,0,1-.746-.559,2.574,2.574,0,0,1-.48-.93,4.532,4.532,0,0,1-.168-1.3,6.518,6.518,0,0,1,.094-1.031,6.309,6.309,0,0,1,.316-1.18,6.006,6.006,0,0,1,.594-1.176,4.465,4.465,0,0,1,.922-1.027,4.4,4.4,0,0,1,1.3-.727,5.051,5.051,0,0,1,1.734-.273,9.22,9.22,0,0,1,1.289.094q.664.094,1.32.227Zm-.367-4.383q-.273-.063-.641-.109a5.447,5.447,0,0,0-.687-.047,3.118,3.118,0,0,0-1.2.215,3.077,3.077,0,0,0-.9.563,3.312,3.312,0,0,0-.645.8,4.965,4.965,0,0,0-.418.926,5.449,5.449,0,0,0-.223.934,5.91,5.91,0,0,0-.066.836,3.744,3.744,0,0,0,.078.8,1.749,1.749,0,0,0,.246.605,1.156,1.156,0,0,0,.43.387,1.325,1.325,0,0,0,.621.137,1.692,1.692,0,0,0,.73-.16,2.532,2.532,0,0,0,.637-.434,3.56,3.56,0,0,0,.539-.633,6.225,6.225,0,0,0,.438-.762,6.515,6.515,0,0,0,.332-.82q.137-.418.223-.809Zm3.727,6.578a6.76,6.76,0,0,1-1.332,3.094,2.955,2.955,0,0,1-2.332,1.031,2.8,2.8,0,0,1-.285-.016,3.079,3.079,0,0,1-.3-.047q-.152-.031-.3-.074a1.9,1.9,0,0,1-.262-.1l.227-1.2a2.043,2.043,0,0,0,.219.125,2.467,2.467,0,0,0,.266.113,2.22,2.22,0,0,0,.285.082,1.28,1.28,0,0,0,.27.031,1.681,1.681,0,0,0,1.359-.7,5,5,0,0,0,.844-2.1L101.047,33h1.281Zm2.406-10.484a.841.841,0,0,1-.238.6.782.782,0,0,1-.59.25.831.831,0,0,1-.6-.246.81.81,0,0,1-.254-.605.749.749,0,0,1,.254-.586.869.869,0,0,1,.6-.227.819.819,0,0,1,.586.23A.769.769,0,0,1,103.117,30.148Zm6.75,8.289q-.062.3-.121.668t-.1.734q-.043.363-.07.676t-.027.484h-1.328q.008-.156.023-.375t.043-.453q.027-.234.055-.461t.059-.391h-.031q-.242.383-.492.723a3.478,3.478,0,0,1-.555.6,2.429,2.429,0,0,1-.68.406,2.612,2.612,0,0,1-1.84-.039,2.006,2.006,0,0,1-.746-.559,2.574,2.574,0,0,1-.48-.93,4.532,4.532,0,0,1-.168-1.3,6.518,6.518,0,0,1,.094-1.031,6.309,6.309,0,0,1,.316-1.18,6.006,6.006,0,0,1,.594-1.176,4.465,4.465,0,0,1,.922-1.027,4.4,4.4,0,0,1,1.3-.727,5.051,5.051,0,0,1,1.734-.273,9.22,9.22,0,0,1,1.289.094q.664.094,1.32.227Zm-.367-4.383q-.273-.063-.641-.109a5.447,5.447,0,0,0-.687-.047,3.118,3.118,0,0,0-1.2.215,3.077,3.077,0,0,0-.9.563,3.312,3.312,0,0,0-.645.8,4.965,4.965,0,0,0-.418.926,5.449,5.449,0,0,0-.223.934,5.91,5.91,0,0,0-.066.836,3.744,3.744,0,0,0,.078.8,1.749,1.749,0,0,0,.246.605,1.156,1.156,0,0,0,.43.387,1.325,1.325,0,0,0,.621.137,1.692,1.692,0,0,0,.73-.16,2.532,2.532,0,0,0,.637-.434,3.56,3.56,0,0,0,.539-.633,6.225,6.225,0,0,0,.438-.762,6.515,6.515,0,0,0,.332-.82q.137-.418.223-.809Zm9.008,4.484q-.055.25-.105.6t-.09.707q-.039.355-.066.668t-.027.484h-1.328q0-.133.02-.355t.047-.465q.027-.242.059-.465t.055-.363h-.031a7.891,7.891,0,0,1-.562.8,3.256,3.256,0,0,1-.594.578,2.386,2.386,0,0,1-.664.348,2.434,2.434,0,0,1-.773.117,2.39,2.39,0,0,1-.984-.2,2.005,2.005,0,0,1-.746-.574,2.646,2.646,0,0,1-.473-.937,4.57,4.57,0,0,1-.164-1.285A6.325,6.325,0,0,1,112.2,37a6.161,6.161,0,0,1,.375-1.227,5.749,5.749,0,0,1,.645-1.141,4.367,4.367,0,0,1,2.164-1.59,4.775,4.775,0,0,1,1.555-.238,5.273,5.273,0,0,1,.813.059q.375.059.648.121l.813-3.828h1.266Zm-.336-4.453a5.033,5.033,0,0,0-.621-.137,4.47,4.47,0,0,0-.691-.051,3.17,3.17,0,0,0-1.2.211,3.024,3.024,0,0,0-.906.563,3.367,3.367,0,0,0-.648.8,5.046,5.046,0,0,0-.422.922,5.248,5.248,0,0,0-.227.93,5.785,5.785,0,0,0-.066.824,3.949,3.949,0,0,0,.074.8,1.779,1.779,0,0,0,.242.617,1.157,1.157,0,0,0,.434.4,1.353,1.353,0,0,0,.641.141,1.658,1.658,0,0,0,.73-.164,2.516,2.516,0,0,0,.637-.445,3.677,3.677,0,0,0,.539-.648,6.291,6.291,0,0,0,.438-.781,6.943,6.943,0,0,0,.332-.84q.137-.426.223-.816Zm9.039,4.352q-.062.3-.121.668t-.1.734q-.043.363-.07.676t-.027.484h-1.328q.008-.156.023-.375t.043-.453q.027-.234.055-.461t.059-.391h-.031q-.242.383-.492.723a3.478,3.478,0,0,1-.555.6,2.429,2.429,0,0,1-.68.406,2.612,2.612,0,0,1-1.84-.039,2.006,2.006,0,0,1-.746-.559,2.574,2.574,0,0,1-.48-.93,4.532,4.532,0,0,1-.168-1.3,6.518,6.518,0,0,1,.094-1.031,6.309,6.309,0,0,1,.316-1.18,6.006,6.006,0,0,1,.594-1.176,4.465,4.465,0,0,1,.922-1.027,4.4,4.4,0,0,1,1.3-.727,5.051,5.051,0,0,1,1.734-.273A9.22,9.22,0,0,1,127,32.9q.664.094,1.32.227Zm-.367-4.383q-.273-.063-.641-.109a5.447,5.447,0,0,0-.687-.047,3.118,3.118,0,0,0-1.2.215,3.077,3.077,0,0,0-.9.563,3.312,3.312,0,0,0-.645.8,4.965,4.965,0,0,0-.418.926,5.449,5.449,0,0,0-.223.934,5.91,5.91,0,0,0-.066.836,3.744,3.744,0,0,0,.078.8,1.749,1.749,0,0,0,.246.605,1.156,1.156,0,0,0,.43.387,1.325,1.325,0,0,0,.621.137,1.692,1.692,0,0,0,.73-.16,2.532,2.532,0,0,0,.637-.434,3.56,3.56,0,0,0,.539-.633,6.225,6.225,0,0,0,.438-.762,6.515,6.515,0,0,0,.332-.82q.137-.418.223-.809Zm7.633.352a3.329,3.329,0,0,0-.789-.367,2.845,2.845,0,0,0-.875-.141,1.726,1.726,0,0,0-1.137.336,1.1,1.1,0,0,0-.4.891,1.116,1.116,0,0,0,.074.414,1.25,1.25,0,0,0,.219.355,1.986,1.986,0,0,0,.367.324q.223.156.512.336a4.028,4.028,0,0,1,1.262,1.043,2.01,2.01,0,0,1,.387,1.207,2.435,2.435,0,0,1-.168.887,2,2,0,0,1-.535.766,2.745,2.745,0,0,1-.949.535,4.331,4.331,0,0,1-1.418.2,4.7,4.7,0,0,1-.516-.031,5.461,5.461,0,0,1-.566-.094,4.942,4.942,0,0,1-.547-.152,2.407,2.407,0,0,1-.457-.207l.258-1.219a2.692,2.692,0,0,0,.387.219,4,4,0,0,0,.5.2,4.672,4.672,0,0,0,.563.141,3.166,3.166,0,0,0,.582.055,1.834,1.834,0,0,0,1.168-.312,1.053,1.053,0,0,0,.387-.867,1.155,1.155,0,0,0-.059-.375,1.052,1.052,0,0,0-.207-.344,2.3,2.3,0,0,0-.391-.348q-.242-.176-.609-.395a3.947,3.947,0,0,1-1.176-1.012,1.992,1.992,0,0,1-.379-1.191,2.432,2.432,0,0,1,.18-.926,2.24,2.24,0,0,1,.535-.781,2.6,2.6,0,0,1,.895-.543,3.559,3.559,0,0,1,1.258-.2,5.018,5.018,0,0,1,1.066.109,3.786,3.786,0,0,1,.855.281Zm13.148.609a2.6,2.6,0,0,1-.027.309q-.027.207-.062.441t-.078.465q-.043.23-.082.387L146.445,41h-1.3l.977-4.687q.031-.125.063-.289t.055-.328q.023-.164.039-.3a2.008,2.008,0,0,0,.016-.215,1.446,1.446,0,0,0-.277-.945,1.046,1.046,0,0,0-.855-.336,1.963,1.963,0,0,0-1,.293,4.069,4.069,0,0,0-.93.758,5.27,5.27,0,0,0-.746,1.039,4.285,4.285,0,0,0-.441,1.137L141.211,41h-1.3l2.531-11.844h1.281l-1.219,5.719h.031a6.45,6.45,0,0,1,.633-.824,4.636,4.636,0,0,1,.73-.656,3.4,3.4,0,0,1,.813-.434,2.532,2.532,0,0,1,.879-.156,1.905,1.905,0,0,1,1.516.59A2.38,2.38,0,0,1,147.625,35.016Zm8.773.945a6.659,6.659,0,0,1-.3,2.016,5.153,5.153,0,0,1-.867,1.668,4.19,4.19,0,0,1-1.375,1.133,3.914,3.914,0,0,1-1.824.418,3.33,3.33,0,0,1-1.238-.219,2.576,2.576,0,0,1-.937-.629,2.786,2.786,0,0,1-.594-.992,3.912,3.912,0,0,1-.207-1.316,6.519,6.519,0,0,1,.316-2.059,5.2,5.2,0,0,1,.891-1.664,4.161,4.161,0,0,1,1.375-1.109,3.885,3.885,0,0,1,1.77-.4,3.308,3.308,0,0,1,1.23.219,2.614,2.614,0,0,1,.941.629,2.848,2.848,0,0,1,.605.992A3.783,3.783,0,0,1,156.4,35.961Zm-1.312.063a2.987,2.987,0,0,0-.125-.9,1.919,1.919,0,0,0-.352-.664,1.525,1.525,0,0,0-.547-.414,1.729,1.729,0,0,0-.719-.145,2.272,2.272,0,0,0-1.242.352,3.143,3.143,0,0,0-.937.926,4.591,4.591,0,0,0-.59,1.3,5.46,5.46,0,0,0-.207,1.5,2.988,2.988,0,0,0,.121.879,2,2,0,0,0,.344.672,1.484,1.484,0,0,0,.547.426,1.735,1.735,0,0,0,.73.148,2.3,2.3,0,0,0,1.25-.348,3.1,3.1,0,0,0,.938-.922,4.506,4.506,0,0,0,.586-1.309A5.6,5.6,0,0,0,155.086,36.023Zm14.836-1.008a2.6,2.6,0,0,1-.027.309q-.027.207-.07.441t-.086.465q-.043.23-.074.387L168.719,41h-1.281l.977-4.687q.031-.133.063-.3t.059-.324q.027-.16.043-.3a2.008,2.008,0,0,0,.016-.215,1.487,1.487,0,0,0-.266-.949,1,1,0,0,0-.828-.332,1.542,1.542,0,0,0-.613.137,2.836,2.836,0,0,0-.617.371,4.353,4.353,0,0,0-.578.547,5.567,5.567,0,0,0-.508.668,5.2,5.2,0,0,0-.395.727,3.809,3.809,0,0,0-.242.73L163.711,41h-1.3l.992-4.687q.031-.133.063-.3t.059-.324q.027-.16.043-.3a2.008,2.008,0,0,0,.016-.215,1.457,1.457,0,0,0-.273-.949,1,1,0,0,0-.82-.332,1.586,1.586,0,0,0-.625.137,2.8,2.8,0,0,0-.625.375,4.293,4.293,0,0,0-.582.555,5.826,5.826,0,0,0-.508.672,4.916,4.916,0,0,0-.391.727,3.977,3.977,0,0,0-.238.73L158.688,41h-1.3l1.234-5.711q.063-.3.125-.637t.117-.641q.055-.309.094-.574t.063-.437h1.25q-.039.3-.094.637t-.094.613q-.047.328-.1.641h.031a6.756,6.756,0,0,1,.609-.836,4.456,4.456,0,0,1,.7-.66,3.219,3.219,0,0,1,.766-.434,2.411,2.411,0,0,1,1.688-.008,1.6,1.6,0,0,1,.6.418,1.827,1.827,0,0,1,.363.652,3.264,3.264,0,0,1,.148.852,7.558,7.558,0,0,1,.621-.816,4.41,4.41,0,0,1,.711-.656,3.362,3.362,0,0,1,.8-.437,2.542,2.542,0,0,1,.9-.16,1.869,1.869,0,0,1,1.5.582A2.423,2.423,0,0,1,169.922,35.016Zm8.875.781a6.411,6.411,0,0,1-.109,1.137,6.074,6.074,0,0,1-.352,1.2,6.236,6.236,0,0,1-.617,1.152,4.4,4.4,0,0,1-.9.977,4.314,4.314,0,0,1-1.219.676,4.523,4.523,0,0,1-1.566.254,5.644,5.644,0,0,1-.742-.051,6.467,6.467,0,0,1-.75-.145,5.839,5.839,0,0,1-.7-.227,3.7,3.7,0,0,1-.609-.3l2.406-11.312h1.3l-.8,3.828q-.086.383-.176.8t-.176.75h.016a5.587,5.587,0,0,1,.531-.719,3.4,3.4,0,0,1,.605-.547,2.635,2.635,0,0,1,.7-.348,2.593,2.593,0,0,1,.809-.121,2.1,2.1,0,0,1,1.754.781A3.507,3.507,0,0,1,178.8,35.8Zm-1.312.031a3.625,3.625,0,0,0-.082-.8,1.71,1.71,0,0,0-.258-.609,1.161,1.161,0,0,0-.449-.383,1.509,1.509,0,0,0-.664-.133,1.732,1.732,0,0,0-.945.289,3.356,3.356,0,0,0-.828.766,5.242,5.242,0,0,0-.648,1.078,5.621,5.621,0,0,0-.4,1.227l-.523,2.492a2.764,2.764,0,0,0,.668.25,3.387,3.387,0,0,0,.832.1,2.721,2.721,0,0,0,1.016-.184,2.859,2.859,0,0,0,.828-.5,3.517,3.517,0,0,0,.641-.742,4.73,4.73,0,0,0,.453-.895,5.417,5.417,0,0,0,.27-.977A5.541,5.541,0,0,0,177.484,35.828Zm7.906-1.469h-.031a2.307,2.307,0,0,0-.41-.184,1.5,1.5,0,0,0-.5-.09,1.479,1.479,0,0,0-.867.293,3.188,3.188,0,0,0-.754.773,5.549,5.549,0,0,0-.594,1.1,7.5,7.5,0,0,0-.395,1.266L181.086,41H179.8l1.125-5.312q.07-.328.141-.687t.129-.719q.059-.359.105-.687t.07-.594h1.266q-.023.234-.055.5t-.062.508q-.031.246-.062.445t-.047.309h.031a8.624,8.624,0,0,1,.508-.8,3.717,3.717,0,0,1,.543-.613,2.3,2.3,0,0,1,.605-.395,1.71,1.71,0,0,1,.7-.141,2.206,2.206,0,0,1,.434.043q.215.043.387.09Zm7.18.516a2.381,2.381,0,0,1-.281,1.152,2.331,2.331,0,0,1-.93.891,5.584,5.584,0,0,1-1.711.574,14.678,14.678,0,0,1-2.625.211,1,1,0,0,0-.016.18v.156a2.657,2.657,0,0,0,.117.8,1.8,1.8,0,0,0,.363.656,1.714,1.714,0,0,0,.633.445,2.341,2.341,0,0,0,.918.164,3.9,3.9,0,0,0,1.184-.207,5.087,5.087,0,0,0,1.23-.59l-.242,1.266a5.078,5.078,0,0,1-1.023.438,4.4,4.4,0,0,1-1.328.188,3.609,3.609,0,0,1-1.488-.273,2.621,2.621,0,0,1-.977-.73,2.848,2.848,0,0,1-.535-1.055,4.716,4.716,0,0,1-.164-1.254,5.8,5.8,0,0,1,.156-1.355,5.519,5.519,0,0,1,.441-1.215,5.149,5.149,0,0,1,.684-1.027,4.444,4.444,0,0,1,.883-.793,4.093,4.093,0,0,1,1.039-.508,3.7,3.7,0,0,1,1.148-.18,3.319,3.319,0,0,1,1.09.164,2.277,2.277,0,0,1,.789.449,1.915,1.915,0,0,1,.48.66A1.966,1.966,0,0,1,192.57,34.875Zm-1.3.063a.9.9,0,0,0-.363-.766,1.565,1.565,0,0,0-.965-.273,2.163,2.163,0,0,0-.922.207,2.983,2.983,0,0,0-.82.57,3.56,3.56,0,0,0-.648.867,4.038,4.038,0,0,0-.4,1.09,13.5,13.5,0,0,0,1.9-.113,4.925,4.925,0,0,0,1.273-.332,1.712,1.712,0,0,0,.719-.535A1.2,1.2,0,0,0,191.266,34.938Z" transform="translate(128)" fill="#12263f"/>
    <line id="Línea_575" data-name="Línea 575" x2="209.551" transform="translate(127.949 21.5)" fill="none" stroke="#12263f" stroke-width="1"/>
  </g>
</svg>
