<svg xmlns="http://www.w3.org/2000/svg" width="440.5" height="123.188" viewBox="0 0 440.5 123.188">
  <g id="Grupo_1113466" data-name="Grupo 1113466" transform="translate(-288.113 -2599.367)">
    <rect id="Rectángulo_406002" data-name="Rectángulo 406002" width="429.563" height="115.555" transform="translate(299.051 2607)" fill="#bce0fc"/>
    <g id="Rectángulo_406003" data-name="Rectángulo 406003" transform="translate(288.113 2599.367)" fill="#fbfbf9" stroke="#000" stroke-width="0.5">
      <rect width="436" height="118" stroke="none"/>
      <rect x="0.25" y="0.25" width="435.5" height="117.5" fill="none"/>
    </g>
    <g id="Grupo_1113432" data-name="Grupo 1113432" transform="translate(331.847 2615.367)">
      <path id="Trazado_908165" data-name="Trazado 908165" d="M29.352,8.742A4.3,4.3,0,0,1,29.07,10.3a3.463,3.463,0,0,1-.855,1.277,4.07,4.07,0,0,1-1.457.863,6.161,6.161,0,0,1-2.078.316h-1.7L22.086,17H20.742L23.109,5.8h2.9a4.264,4.264,0,0,1,1.535.246,2.889,2.889,0,0,1,1.039.656,2.493,2.493,0,0,1,.586.941A3.349,3.349,0,0,1,29.352,8.742Zm-1.383.117a1.986,1.986,0,0,0-.145-.77A1.589,1.589,0,0,0,27.4,7.5a1.937,1.937,0,0,0-.7-.379,3.189,3.189,0,0,0-.965-.133H24.211l-.977,4.594H24.8a4.37,4.37,0,0,0,1.426-.207,2.71,2.71,0,0,0,.984-.57,2.222,2.222,0,0,0,.57-.859A3.1,3.1,0,0,0,27.969,8.859Zm7.383,1.5H35.32a2.307,2.307,0,0,0-.41-.184,1.5,1.5,0,0,0-.5-.09,1.479,1.479,0,0,0-.867.293,3.188,3.188,0,0,0-.754.773,5.549,5.549,0,0,0-.594,1.1,7.5,7.5,0,0,0-.395,1.266L31.047,17H29.766l1.125-5.312q.07-.328.141-.687t.129-.719q.059-.359.105-.687T31.336,9H32.6q-.023.234-.055.5T32.484,10q-.031.246-.062.445t-.047.309h.031a8.623,8.623,0,0,1,.508-.8,3.718,3.718,0,0,1,.543-.613,2.3,2.3,0,0,1,.605-.395,1.71,1.71,0,0,1,.7-.141,2.206,2.206,0,0,1,.434.043q.215.043.387.09Zm6.961,4.367q-.07.3-.129.633l-.113.633q-.055.3-.094.57T41.914,17h-1.25q.039-.3.09-.637t.1-.613q.055-.328.1-.641h-.031a6.607,6.607,0,0,1-.605.809,4.531,4.531,0,0,1-.719.664,3.413,3.413,0,0,1-.82.449,2.529,2.529,0,0,1-.9.164,2.346,2.346,0,0,1-.9-.16,1.741,1.741,0,0,1-.645-.449,1.886,1.886,0,0,1-.387-.7,2.988,2.988,0,0,1-.129-.906,2.2,2.2,0,0,1,.031-.3q.031-.2.07-.437t.09-.465q.051-.23.082-.395L37.016,9h1.3l-.992,4.688q-.031.125-.062.289T37.2,14.3q-.027.164-.043.3a2.009,2.009,0,0,0-.016.215,1.427,1.427,0,0,0,.285.934,1.042,1.042,0,0,0,.855.348,1.8,1.8,0,0,0,.688-.141,3.128,3.128,0,0,0,.668-.379,4.2,4.2,0,0,0,.613-.555,5.41,5.41,0,0,0,.523-.672,4.879,4.879,0,0,0,.4-.73,4.028,4.028,0,0,0,.242-.719L42.25,9h1.289Zm9.148-3.852a2.381,2.381,0,0,1-.281,1.152,2.331,2.331,0,0,1-.93.891,5.584,5.584,0,0,1-1.711.574,14.678,14.678,0,0,1-2.625.211,1,1,0,0,0-.016.18v.156a2.657,2.657,0,0,0,.117.8,1.8,1.8,0,0,0,.363.656,1.714,1.714,0,0,0,.633.445,2.341,2.341,0,0,0,.918.164,3.9,3.9,0,0,0,1.184-.207,5.087,5.087,0,0,0,1.23-.59L50.1,16.57a5.078,5.078,0,0,1-1.023.438,4.4,4.4,0,0,1-1.328.188,3.609,3.609,0,0,1-1.488-.273,2.621,2.621,0,0,1-.977-.73,2.848,2.848,0,0,1-.535-1.055,4.716,4.716,0,0,1-.164-1.254,5.8,5.8,0,0,1,.156-1.355,5.519,5.519,0,0,1,.441-1.215,5.148,5.148,0,0,1,.684-1.027,4.444,4.444,0,0,1,.883-.793,4.092,4.092,0,0,1,1.039-.508,3.7,3.7,0,0,1,1.148-.18,3.319,3.319,0,0,1,1.09.164,2.277,2.277,0,0,1,.789.449,1.915,1.915,0,0,1,.48.66A1.966,1.966,0,0,1,51.461,10.875Zm-1.3.063a.9.9,0,0,0-.363-.766,1.565,1.565,0,0,0-.965-.273,2.163,2.163,0,0,0-.922.207,2.984,2.984,0,0,0-.82.57,3.56,3.56,0,0,0-.648.867,4.038,4.038,0,0,0-.4,1.09,13.5,13.5,0,0,0,1.9-.113,4.925,4.925,0,0,0,1.273-.332,1.712,1.712,0,0,0,.719-.535A1.2,1.2,0,0,0,50.156,10.938Zm9.672.859a6.411,6.411,0,0,1-.109,1.137,6.074,6.074,0,0,1-.352,1.2,6.237,6.237,0,0,1-.617,1.152,4.4,4.4,0,0,1-.9.977,4.314,4.314,0,0,1-1.219.676,4.523,4.523,0,0,1-1.566.254,5.644,5.644,0,0,1-.742-.051A6.466,6.466,0,0,1,53.57,17a5.84,5.84,0,0,1-.7-.227,3.7,3.7,0,0,1-.609-.3L54.664,5.156h1.3l-.8,3.828q-.086.383-.176.8t-.176.75h.016a5.587,5.587,0,0,1,.531-.719,3.4,3.4,0,0,1,.605-.547,2.635,2.635,0,0,1,.7-.348,2.593,2.593,0,0,1,.809-.121,2.1,2.1,0,0,1,1.754.781A3.507,3.507,0,0,1,59.828,11.8Zm-1.312.031a3.625,3.625,0,0,0-.082-.8,1.71,1.71,0,0,0-.258-.609,1.161,1.161,0,0,0-.449-.383,1.51,1.51,0,0,0-.664-.133,1.732,1.732,0,0,0-.945.289,3.356,3.356,0,0,0-.828.766,5.242,5.242,0,0,0-.648,1.078,5.621,5.621,0,0,0-.4,1.227l-.523,2.492a2.764,2.764,0,0,0,.668.25,3.386,3.386,0,0,0,.832.1,2.721,2.721,0,0,0,1.016-.184,2.859,2.859,0,0,0,.828-.5,3.517,3.517,0,0,0,.641-.742,4.73,4.73,0,0,0,.453-.895,5.418,5.418,0,0,0,.27-.977A5.541,5.541,0,0,0,58.516,11.828Zm8.992,2.609q-.062.3-.121.668t-.1.734q-.043.363-.07.676T67.188,17H65.859q.008-.156.023-.375t.043-.453q.027-.234.055-.461t.059-.391h-.031q-.242.383-.492.723a3.478,3.478,0,0,1-.555.6,2.429,2.429,0,0,1-.68.406,2.612,2.612,0,0,1-1.84-.039,2.006,2.006,0,0,1-.746-.559,2.574,2.574,0,0,1-.48-.93,4.532,4.532,0,0,1-.168-1.3,6.518,6.518,0,0,1,.094-1.031,6.309,6.309,0,0,1,.316-1.18,6.007,6.007,0,0,1,.594-1.176A4.465,4.465,0,0,1,62.973,9.8a4.4,4.4,0,0,1,1.3-.727A5.051,5.051,0,0,1,66.008,8.8,9.22,9.22,0,0,1,67.3,8.9q.664.094,1.32.227Zm-.367-4.383q-.273-.062-.641-.109a5.447,5.447,0,0,0-.687-.047,3.119,3.119,0,0,0-1.2.215,3.077,3.077,0,0,0-.9.563,3.313,3.313,0,0,0-.645.8,4.965,4.965,0,0,0-.418.926,5.448,5.448,0,0,0-.223.934,5.91,5.91,0,0,0-.066.836,3.744,3.744,0,0,0,.078.8,1.748,1.748,0,0,0,.246.605,1.156,1.156,0,0,0,.43.387,1.325,1.325,0,0,0,.621.137,1.692,1.692,0,0,0,.73-.16,2.532,2.532,0,0,0,.637-.434,3.56,3.56,0,0,0,.539-.633,6.225,6.225,0,0,0,.438-.762,6.515,6.515,0,0,0,.332-.82q.137-.418.223-.809Zm13.438,4.383q-.062.3-.121.668t-.1.734q-.043.363-.07.676T80.258,17H78.93q.008-.156.023-.375T79,16.172q.027-.234.055-.461t.059-.391h-.031q-.242.383-.492.723a3.478,3.478,0,0,1-.555.6,2.429,2.429,0,0,1-.68.406,2.612,2.612,0,0,1-1.84-.039,2.006,2.006,0,0,1-.746-.559,2.574,2.574,0,0,1-.48-.93,4.532,4.532,0,0,1-.168-1.3,6.518,6.518,0,0,1,.094-1.031,6.309,6.309,0,0,1,.316-1.18,6.006,6.006,0,0,1,.594-1.176A4.465,4.465,0,0,1,76.043,9.8a4.4,4.4,0,0,1,1.3-.727A5.051,5.051,0,0,1,79.078,8.8a9.22,9.22,0,0,1,1.289.094q.664.094,1.32.227Zm-.367-4.383q-.273-.062-.641-.109a5.447,5.447,0,0,0-.687-.047,3.119,3.119,0,0,0-1.2.215,3.077,3.077,0,0,0-.9.563,3.312,3.312,0,0,0-.645.8,4.965,4.965,0,0,0-.418.926,5.449,5.449,0,0,0-.223.934,5.91,5.91,0,0,0-.066.836,3.744,3.744,0,0,0,.078.8,1.749,1.749,0,0,0,.246.605,1.156,1.156,0,0,0,.43.387,1.325,1.325,0,0,0,.621.137,1.692,1.692,0,0,0,.73-.16,2.532,2.532,0,0,0,.637-.434,3.56,3.56,0,0,0,.539-.633,6.225,6.225,0,0,0,.438-.762,6.515,6.515,0,0,0,.332-.82q.137-.418.223-.809ZM78.969,7.477h-.961l2.258-2.555h1.258Zm9.961,3.109a2.941,2.941,0,0,0-.793-.488,2.582,2.582,0,0,0-1.027-.2,2.427,2.427,0,0,0-.973.188,2.684,2.684,0,0,0-.77.5,3.244,3.244,0,0,0-.578.719,4.792,4.792,0,0,0-.4.844,5.193,5.193,0,0,0-.23.871,4.81,4.81,0,0,0-.074.809,2.552,2.552,0,0,0,.492,1.7,1.672,1.672,0,0,0,1.344.578,2.957,2.957,0,0,0,1.07-.215,5.152,5.152,0,0,0,1.047-.551l-.273,1.281a5.483,5.483,0,0,1-1.012.426,3.666,3.666,0,0,1-1.066.152,3.029,3.029,0,0,1-1.277-.25,2.5,2.5,0,0,1-.9-.687,2.946,2.946,0,0,1-.539-1.035,4.472,4.472,0,0,1-.18-1.293,6.315,6.315,0,0,1,.133-1.293,5.569,5.569,0,0,1,.395-1.2,5.218,5.218,0,0,1,.645-1.051A4.107,4.107,0,0,1,85.945,9a4.451,4.451,0,0,1,1.961-.152,3.8,3.8,0,0,1,.555.125,3.737,3.737,0,0,1,.445.168,1.829,1.829,0,0,1,.313.176Zm3.477,6.383a2.994,2.994,0,0,1-.441.1,3.111,3.111,0,0,1-.488.039,1.594,1.594,0,0,1-1.18-.395,1.439,1.439,0,0,1-.391-1.059,3.228,3.228,0,0,1,.039-.461q.039-.266.125-.656L91.234,9h1.3l-1.172,5.57q-.07.328-.1.508a2.079,2.079,0,0,0-.027.3.644.644,0,0,0,.176.488.787.787,0,0,0,.559.168,2.366,2.366,0,0,0,.355-.023,1.575,1.575,0,0,0,.285-.07Zm.914-10.82a.841.841,0,0,1-.238.6.782.782,0,0,1-.59.25.831.831,0,0,1-.6-.246.81.81,0,0,1-.254-.605.749.749,0,0,1,.254-.586.869.869,0,0,1,.6-.227.819.819,0,0,1,.586.23A.769.769,0,0,1,93.32,6.148Zm7.016,8.391q-.055.25-.105.6t-.09.707q-.039.355-.066.668t-.027.484H98.719q0-.133.02-.355t.047-.465q.027-.242.059-.465t.055-.363h-.031a7.891,7.891,0,0,1-.562.8,3.256,3.256,0,0,1-.594.578,2.386,2.386,0,0,1-.664.348,2.434,2.434,0,0,1-.773.117,2.39,2.39,0,0,1-.984-.2,2.006,2.006,0,0,1-.746-.574,2.646,2.646,0,0,1-.473-.937,4.57,4.57,0,0,1-.164-1.285,6.325,6.325,0,0,1,.121-1.2,6.161,6.161,0,0,1,.375-1.227,5.749,5.749,0,0,1,.645-1.141,4.367,4.367,0,0,1,2.164-1.59A4.775,4.775,0,0,1,98.766,8.8a5.273,5.273,0,0,1,.813.059q.375.059.648.121l.813-3.828H102.3ZM100,10.086a5.033,5.033,0,0,0-.621-.137,4.471,4.471,0,0,0-.691-.051,3.17,3.17,0,0,0-1.2.211,3.024,3.024,0,0,0-.906.563,3.367,3.367,0,0,0-.648.8,5.046,5.046,0,0,0-.422.922,5.248,5.248,0,0,0-.227.93,5.785,5.785,0,0,0-.066.824,3.949,3.949,0,0,0,.074.8,1.779,1.779,0,0,0,.242.617,1.157,1.157,0,0,0,.434.4,1.353,1.353,0,0,0,.641.141,1.658,1.658,0,0,0,.73-.164,2.516,2.516,0,0,0,.637-.445,3.677,3.677,0,0,0,.539-.648,6.291,6.291,0,0,0,.438-.781,6.943,6.943,0,0,0,.332-.84q.137-.426.223-.816Zm9.039,4.352q-.062.3-.121.668t-.1.734q-.043.363-.07.676t-.027.484h-1.328q.008-.156.023-.375t.043-.453q.027-.234.055-.461t.059-.391h-.031q-.242.383-.492.723a3.478,3.478,0,0,1-.555.6,2.429,2.429,0,0,1-.68.406,2.612,2.612,0,0,1-1.84-.039,2.006,2.006,0,0,1-.746-.559,2.574,2.574,0,0,1-.48-.93,4.532,4.532,0,0,1-.168-1.3,6.518,6.518,0,0,1,.094-1.031,6.309,6.309,0,0,1,.316-1.18,6.006,6.006,0,0,1,.594-1.176A4.465,4.465,0,0,1,104.5,9.8a4.4,4.4,0,0,1,1.3-.727,5.051,5.051,0,0,1,1.734-.273,9.22,9.22,0,0,1,1.289.094q.664.094,1.32.227Zm-.367-4.383q-.273-.062-.641-.109a5.447,5.447,0,0,0-.687-.047,3.119,3.119,0,0,0-1.2.215,3.077,3.077,0,0,0-.9.563,3.312,3.312,0,0,0-.645.8,4.965,4.965,0,0,0-.418.926,5.449,5.449,0,0,0-.223.934,5.91,5.91,0,0,0-.066.836,3.744,3.744,0,0,0,.078.8,1.749,1.749,0,0,0,.246.605,1.156,1.156,0,0,0,.43.387,1.325,1.325,0,0,0,.621.137,1.692,1.692,0,0,0,.73-.16,2.532,2.532,0,0,0,.637-.434,3.56,3.56,0,0,0,.539-.633,6.225,6.225,0,0,0,.438-.762,6.515,6.515,0,0,0,.332-.82q.137-.418.223-.809Zm8.367,1.141V10.148h7.344V11.2Zm0,3.328V13.477h7.344v1.047Z" transform="translate(0.265 12)" fill="#12263f"/>
      <path id="Trazado_908167" data-name="Trazado 908167" d="M64.891,8.742a4.3,4.3,0,0,1-.281,1.559,3.463,3.463,0,0,1-.855,1.277,4.07,4.07,0,0,1-1.457.863,6.161,6.161,0,0,1-2.078.316h-1.7L57.625,17H56.281L58.648,5.8h2.9a4.264,4.264,0,0,1,1.535.246,2.889,2.889,0,0,1,1.039.656,2.493,2.493,0,0,1,.586.941A3.349,3.349,0,0,1,64.891,8.742Zm-1.383.117a1.986,1.986,0,0,0-.145-.77,1.589,1.589,0,0,0-.426-.594,1.937,1.937,0,0,0-.7-.379,3.189,3.189,0,0,0-.965-.133H59.75l-.977,4.594h1.57a4.37,4.37,0,0,0,1.426-.207,2.71,2.71,0,0,0,.984-.57,2.222,2.222,0,0,0,.57-.859A3.1,3.1,0,0,0,63.508,8.859Zm7.383,1.5h-.031a2.306,2.306,0,0,0-.41-.184,1.5,1.5,0,0,0-.5-.09,1.479,1.479,0,0,0-.867.293,3.188,3.188,0,0,0-.754.773,5.549,5.549,0,0,0-.594,1.1,7.5,7.5,0,0,0-.395,1.266L66.586,17H65.3l1.125-5.312q.07-.328.141-.687t.129-.719q.059-.359.105-.687T66.875,9h1.266q-.023.234-.055.5T68.023,10q-.031.246-.062.445t-.047.309h.031a8.623,8.623,0,0,1,.508-.8A3.718,3.718,0,0,1,69,9.34a2.3,2.3,0,0,1,.605-.395,1.71,1.71,0,0,1,.7-.141,2.206,2.206,0,0,1,.434.043q.215.043.387.09Zm6.961,4.367q-.07.3-.129.633l-.113.633q-.055.3-.094.57T77.453,17H76.2q.039-.3.09-.637t.1-.613q.055-.328.1-.641h-.031a6.607,6.607,0,0,1-.605.809,4.531,4.531,0,0,1-.719.664,3.413,3.413,0,0,1-.82.449,2.529,2.529,0,0,1-.9.164,2.346,2.346,0,0,1-.9-.16,1.741,1.741,0,0,1-.645-.449,1.886,1.886,0,0,1-.387-.7,2.988,2.988,0,0,1-.129-.906,2.2,2.2,0,0,1,.031-.3q.031-.2.07-.437t.09-.465q.051-.23.082-.395L72.555,9h1.3l-.992,4.688q-.031.125-.062.289t-.059.328q-.027.164-.043.3a2.01,2.01,0,0,0-.016.215,1.427,1.427,0,0,0,.285.934,1.042,1.042,0,0,0,.855.348,1.8,1.8,0,0,0,.688-.141,3.128,3.128,0,0,0,.668-.379,4.2,4.2,0,0,0,.613-.555,5.41,5.41,0,0,0,.523-.672,4.879,4.879,0,0,0,.4-.73,4.028,4.028,0,0,0,.242-.719L77.789,9h1.289ZM87,10.875a2.381,2.381,0,0,1-.281,1.152,2.331,2.331,0,0,1-.93.891,5.584,5.584,0,0,1-1.711.574,14.678,14.678,0,0,1-2.625.211,1,1,0,0,0-.016.18v.156a2.657,2.657,0,0,0,.117.8,1.8,1.8,0,0,0,.363.656,1.714,1.714,0,0,0,.633.445,2.341,2.341,0,0,0,.918.164,3.9,3.9,0,0,0,1.184-.207,5.087,5.087,0,0,0,1.23-.59l-.242,1.266a5.078,5.078,0,0,1-1.023.438,4.4,4.4,0,0,1-1.328.188,3.609,3.609,0,0,1-1.488-.273,2.621,2.621,0,0,1-.977-.73,2.848,2.848,0,0,1-.535-1.055,4.716,4.716,0,0,1-.164-1.254,5.8,5.8,0,0,1,.156-1.355,5.519,5.519,0,0,1,.441-1.215,5.148,5.148,0,0,1,.684-1.027,4.444,4.444,0,0,1,.883-.793,4.092,4.092,0,0,1,1.039-.508,3.7,3.7,0,0,1,1.148-.18,3.319,3.319,0,0,1,1.09.164,2.277,2.277,0,0,1,.789.449,1.915,1.915,0,0,1,.48.66A1.966,1.966,0,0,1,87,10.875Zm-1.3.063a.9.9,0,0,0-.363-.766,1.565,1.565,0,0,0-.965-.273,2.163,2.163,0,0,0-.922.207,2.984,2.984,0,0,0-.82.57,3.56,3.56,0,0,0-.648.867,4.038,4.038,0,0,0-.4,1.09,13.5,13.5,0,0,0,1.9-.113,4.925,4.925,0,0,0,1.273-.332,1.712,1.712,0,0,0,.719-.535A1.2,1.2,0,0,0,85.7,10.938Zm9.672.859a6.412,6.412,0,0,1-.109,1.137,6.073,6.073,0,0,1-.352,1.2,6.237,6.237,0,0,1-.617,1.152,4.4,4.4,0,0,1-.9.977,4.314,4.314,0,0,1-1.219.676A4.523,4.523,0,0,1,90.6,17.2a5.644,5.644,0,0,1-.742-.051,6.466,6.466,0,0,1-.75-.145,5.84,5.84,0,0,1-.7-.227,3.7,3.7,0,0,1-.609-.3L90.2,5.156h1.3l-.8,3.828q-.086.383-.176.8t-.176.75h.016a5.586,5.586,0,0,1,.531-.719,3.394,3.394,0,0,1,.605-.547,2.635,2.635,0,0,1,.7-.348A2.593,2.593,0,0,1,93,8.8a2.1,2.1,0,0,1,1.754.781A3.507,3.507,0,0,1,95.367,11.8Zm-1.312.031a3.625,3.625,0,0,0-.082-.8,1.71,1.71,0,0,0-.258-.609,1.161,1.161,0,0,0-.449-.383A1.51,1.51,0,0,0,92.6,9.9a1.732,1.732,0,0,0-.945.289,3.355,3.355,0,0,0-.828.766,5.242,5.242,0,0,0-.648,1.078,5.622,5.622,0,0,0-.4,1.227l-.523,2.492a2.765,2.765,0,0,0,.668.25,3.386,3.386,0,0,0,.832.1,2.721,2.721,0,0,0,1.016-.184,2.859,2.859,0,0,0,.828-.5,3.517,3.517,0,0,0,.641-.742,4.73,4.73,0,0,0,.453-.895,5.418,5.418,0,0,0,.27-.977A5.54,5.54,0,0,0,94.055,11.828Zm8.992,2.609q-.062.3-.121.668t-.1.734q-.043.363-.07.676t-.027.484H101.4q.008-.156.023-.375t.043-.453q.027-.234.055-.461t.059-.391h-.031q-.242.383-.492.723a3.478,3.478,0,0,1-.555.6,2.429,2.429,0,0,1-.68.406,2.612,2.612,0,0,1-1.84-.039,2.006,2.006,0,0,1-.746-.559,2.574,2.574,0,0,1-.48-.93,4.532,4.532,0,0,1-.168-1.3,6.518,6.518,0,0,1,.094-1.031A6.309,6.309,0,0,1,97,12.008a6.006,6.006,0,0,1,.594-1.176A4.465,4.465,0,0,1,98.512,9.8a4.4,4.4,0,0,1,1.3-.727,5.051,5.051,0,0,1,1.734-.273,9.22,9.22,0,0,1,1.289.094q.664.094,1.32.227Zm-.367-4.383q-.273-.062-.641-.109a5.447,5.447,0,0,0-.687-.047,3.119,3.119,0,0,0-1.2.215,3.077,3.077,0,0,0-.9.563,3.312,3.312,0,0,0-.645.8,4.965,4.965,0,0,0-.418.926,5.449,5.449,0,0,0-.223.934,5.91,5.91,0,0,0-.066.836,3.744,3.744,0,0,0,.078.8,1.749,1.749,0,0,0,.246.605,1.156,1.156,0,0,0,.43.387,1.325,1.325,0,0,0,.621.137,1.692,1.692,0,0,0,.73-.16,2.532,2.532,0,0,0,.637-.434,3.56,3.56,0,0,0,.539-.633,6.225,6.225,0,0,0,.438-.762,6.515,6.515,0,0,0,.332-.82q.137-.418.223-.809Zm13.438,4.383q-.062.3-.121.668t-.1.734q-.043.363-.07.676T115.8,17h-1.328q.008-.156.023-.375t.043-.453q.027-.234.055-.461t.059-.391h-.031q-.242.383-.492.723a3.478,3.478,0,0,1-.555.6,2.429,2.429,0,0,1-.68.406,2.612,2.612,0,0,1-1.84-.039,2.006,2.006,0,0,1-.746-.559,2.574,2.574,0,0,1-.48-.93,4.532,4.532,0,0,1-.168-1.3,6.518,6.518,0,0,1,.094-1.031,6.309,6.309,0,0,1,.316-1.18,6.006,6.006,0,0,1,.594-1.176,4.465,4.465,0,0,1,.922-1.027,4.4,4.4,0,0,1,1.3-.727,5.051,5.051,0,0,1,1.734-.273,9.22,9.22,0,0,1,1.289.094q.664.094,1.32.227Zm-.367-4.383q-.273-.062-.641-.109a5.447,5.447,0,0,0-.687-.047,3.119,3.119,0,0,0-1.2.215,3.077,3.077,0,0,0-.9.563,3.312,3.312,0,0,0-.645.8,4.965,4.965,0,0,0-.418.926,5.449,5.449,0,0,0-.223.934,5.91,5.91,0,0,0-.066.836,3.744,3.744,0,0,0,.078.8,1.749,1.749,0,0,0,.246.605,1.156,1.156,0,0,0,.43.387,1.325,1.325,0,0,0,.621.137,1.692,1.692,0,0,0,.73-.16,2.532,2.532,0,0,0,.637-.434,3.56,3.56,0,0,0,.539-.633,6.225,6.225,0,0,0,.438-.762,6.515,6.515,0,0,0,.332-.82q.137-.418.223-.809Zm-1.242-2.578h-.961L115.8,4.922h1.258Zm9.961,3.109a2.941,2.941,0,0,0-.793-.488,2.582,2.582,0,0,0-1.027-.2,2.427,2.427,0,0,0-.973.188,2.684,2.684,0,0,0-.77.5,3.244,3.244,0,0,0-.578.719,4.792,4.792,0,0,0-.4.844,5.193,5.193,0,0,0-.23.871,4.81,4.81,0,0,0-.074.809,2.552,2.552,0,0,0,.492,1.7,1.672,1.672,0,0,0,1.344.578,2.957,2.957,0,0,0,1.07-.215,5.152,5.152,0,0,0,1.047-.551l-.273,1.281a5.483,5.483,0,0,1-1.012.426,3.666,3.666,0,0,1-1.066.152,3.029,3.029,0,0,1-1.277-.25,2.5,2.5,0,0,1-.9-.687,2.946,2.946,0,0,1-.539-1.035,4.472,4.472,0,0,1-.18-1.293,6.315,6.315,0,0,1,.133-1.293,5.569,5.569,0,0,1,.395-1.2,5.218,5.218,0,0,1,.645-1.051A4.107,4.107,0,0,1,121.484,9a4.451,4.451,0,0,1,1.961-.152,3.8,3.8,0,0,1,.555.125,3.737,3.737,0,0,1,.445.168,1.829,1.829,0,0,1,.313.176Zm3.477,6.383a2.994,2.994,0,0,1-.441.1,3.111,3.111,0,0,1-.488.039,1.594,1.594,0,0,1-1.18-.395,1.439,1.439,0,0,1-.391-1.059,3.228,3.228,0,0,1,.039-.461q.039-.266.125-.656L126.773,9h1.3L126.9,14.57q-.07.328-.1.508a2.079,2.079,0,0,0-.027.3.644.644,0,0,0,.176.488.787.787,0,0,0,.559.168,2.366,2.366,0,0,0,.355-.023,1.575,1.575,0,0,0,.285-.07Zm.914-10.82a.841.841,0,0,1-.238.6.782.782,0,0,1-.59.25.831.831,0,0,1-.6-.246.81.81,0,0,1-.254-.605.749.749,0,0,1,.254-.586.869.869,0,0,1,.6-.227.819.819,0,0,1,.586.23A.769.769,0,0,1,128.859,6.148Zm7.016,8.391q-.055.25-.105.6t-.09.707q-.039.355-.066.668t-.027.484h-1.328q0-.133.02-.355t.047-.465q.027-.242.059-.465t.055-.363h-.031a7.891,7.891,0,0,1-.562.8,3.256,3.256,0,0,1-.594.578,2.385,2.385,0,0,1-.664.348,2.434,2.434,0,0,1-.773.117,2.39,2.39,0,0,1-.984-.2,2.006,2.006,0,0,1-.746-.574,2.646,2.646,0,0,1-.473-.937,4.57,4.57,0,0,1-.164-1.285,6.324,6.324,0,0,1,.121-1.2,6.162,6.162,0,0,1,.375-1.227,5.748,5.748,0,0,1,.645-1.141,4.367,4.367,0,0,1,2.164-1.59A4.775,4.775,0,0,1,134.3,8.8a5.273,5.273,0,0,1,.813.059q.375.059.648.121l.813-3.828h1.266Zm-.336-4.453a5.033,5.033,0,0,0-.621-.137,4.471,4.471,0,0,0-.691-.051,3.17,3.17,0,0,0-1.2.211,3.024,3.024,0,0,0-.906.563,3.367,3.367,0,0,0-.648.8,5.045,5.045,0,0,0-.422.922,5.248,5.248,0,0,0-.227.93,5.786,5.786,0,0,0-.066.824,3.949,3.949,0,0,0,.074.8,1.779,1.779,0,0,0,.242.617,1.157,1.157,0,0,0,.434.4,1.353,1.353,0,0,0,.641.141,1.658,1.658,0,0,0,.73-.164,2.516,2.516,0,0,0,.637-.445,3.676,3.676,0,0,0,.539-.648,6.291,6.291,0,0,0,.438-.781,6.943,6.943,0,0,0,.332-.84q.137-.426.223-.816Zm9.039,4.352q-.063.3-.121.668t-.1.734q-.043.363-.07.676t-.027.484H142.93q.008-.156.023-.375t.043-.453q.027-.234.055-.461t.059-.391h-.031q-.242.383-.492.723a3.478,3.478,0,0,1-.555.6,2.429,2.429,0,0,1-.68.406,2.612,2.612,0,0,1-1.84-.039,2.006,2.006,0,0,1-.746-.559,2.574,2.574,0,0,1-.48-.93,4.531,4.531,0,0,1-.168-1.3,6.518,6.518,0,0,1,.094-1.031,6.309,6.309,0,0,1,.316-1.18,6.007,6.007,0,0,1,.594-1.176,4.465,4.465,0,0,1,.922-1.027,4.4,4.4,0,0,1,1.3-.727,5.051,5.051,0,0,1,1.734-.273,9.22,9.22,0,0,1,1.289.094q.664.094,1.32.227Zm-.367-4.383q-.273-.062-.641-.109a5.447,5.447,0,0,0-.687-.047,3.119,3.119,0,0,0-1.2.215,3.077,3.077,0,0,0-.9.563,3.313,3.313,0,0,0-.645.8,4.965,4.965,0,0,0-.418.926,5.448,5.448,0,0,0-.223.934,5.911,5.911,0,0,0-.066.836,3.744,3.744,0,0,0,.078.8,1.748,1.748,0,0,0,.246.605,1.156,1.156,0,0,0,.43.387,1.325,1.325,0,0,0,.621.137,1.692,1.692,0,0,0,.73-.16,2.532,2.532,0,0,0,.637-.434,3.56,3.56,0,0,0,.539-.633,6.225,6.225,0,0,0,.438-.762,6.515,6.515,0,0,0,.332-.82q.137-.418.223-.809Zm8.367,1.141V10.148h7.344V11.2Zm0,3.328V13.477h7.344v1.047Zm21.938-5.6q0,.586-.055,1.223t-.172,1.285a12.947,12.947,0,0,1-.3,1.285,10.137,10.137,0,0,1-.441,1.23,8.317,8.317,0,0,1-.59,1.121,5.918,5.918,0,0,1-.746.957,3.614,3.614,0,0,1-2.7,1.172,2.709,2.709,0,0,1-1.16-.246,2.479,2.479,0,0,1-.9-.719,3.438,3.438,0,0,1-.582-1.164,5.551,5.551,0,0,1-.207-1.59,11.938,11.938,0,0,1,.141-1.793,11.1,11.1,0,0,1,.43-1.8,9.769,9.769,0,0,1,.719-1.66,6.19,6.19,0,0,1,1.016-1.375,4.13,4.13,0,0,1,1.242-.91,3.6,3.6,0,0,1,1.555-.324,2.927,2.927,0,0,1,1.133.211,2.318,2.318,0,0,1,.871.629,2.879,2.879,0,0,1,.559,1.035A4.775,4.775,0,0,1,174.516,8.922Zm-1.3.109a3.111,3.111,0,0,0-.406-1.715,1.323,1.323,0,0,0-1.18-.621,1.944,1.944,0,0,0-.867.2,2.953,2.953,0,0,0-.8.6,4.512,4.512,0,0,0-.574.762,7.791,7.791,0,0,0-.492.953,10.052,10.052,0,0,0-.395,1.074q-.172.563-.293,1.125t-.184,1.1a8.78,8.78,0,0,0-.062,1.008,4.622,4.622,0,0,0,.129,1.168,2.446,2.446,0,0,0,.355.8,1.412,1.412,0,0,0,.535.465,1.5,1.5,0,0,0,.66.148,1.958,1.958,0,0,0,.828-.187,2.451,2.451,0,0,0,.758-.562,5.036,5.036,0,0,0,.773-1.152,10.288,10.288,0,0,0,.629-1.559,13.046,13.046,0,0,0,.426-1.785A11.042,11.042,0,0,0,173.219,9.031Zm1.742,10.031h-1.008l1.57-3.836H176.8ZM186.281,5.8l-1.57,7.4h1.469l-.25,1.172h-1.469L183.9,17h-1.266l.563-2.633h-5.258l.234-1.109a48.653,48.653,0,0,0,3.477-3.523Q183.43,7.75,184.867,5.8Zm-2.836,7.4,1.141-5.367A56.664,56.664,0,0,1,179.7,13.2Zm11.594-3.7a10.617,10.617,0,0,1-.172,1.879,9.587,9.587,0,0,1-.523,1.844,8.285,8.285,0,0,1-.879,1.652,5.631,5.631,0,0,1-1.238,1.3,4.894,4.894,0,0,1-1.484.777,5.481,5.481,0,0,1-1.656.246,5.849,5.849,0,0,1-1.1-.094,2.74,2.74,0,0,1-.738-.227l.172-1.219a3.992,3.992,0,0,0,.707.3,3.231,3.231,0,0,0,1.02.145,3.779,3.779,0,0,0,1.266-.215,3.663,3.663,0,0,0,1.086-.6,4.248,4.248,0,0,0,.727-.711,6.1,6.1,0,0,0,.613-.922,7.608,7.608,0,0,0,.488-1.1,8.453,8.453,0,0,0,.336-1.25h-.031a3.819,3.819,0,0,1-.508.648,3.263,3.263,0,0,1-.633.508,3.066,3.066,0,0,1-.742.328,2.947,2.947,0,0,1-.836.117,2.911,2.911,0,0,1-1.379-.3,2.643,2.643,0,0,1-.9-.754,2.964,2.964,0,0,1-.488-1.012A4.109,4.109,0,0,1,188,9.781a4.873,4.873,0,0,1,.1-.957,4.512,4.512,0,0,1,.3-.953,4.38,4.38,0,0,1,.52-.875,3.455,3.455,0,0,1,1.715-1.207,3.927,3.927,0,0,1,1.223-.18,3.152,3.152,0,0,1,1.4.293,2.727,2.727,0,0,1,.992.816,3.624,3.624,0,0,1,.59,1.23A5.781,5.781,0,0,1,195.039,9.492Zm-1.312-.336a3.391,3.391,0,0,0-.141-1.008,2.311,2.311,0,0,0-.4-.773,1.843,1.843,0,0,0-.617-.5,1.757,1.757,0,0,0-.8-.18,2.138,2.138,0,0,0-1.043.25,2.453,2.453,0,0,0-.773.66,2.944,2.944,0,0,0-.48.945,3.75,3.75,0,0,0-.164,1.105,3.049,3.049,0,0,0,.1.777,2,2,0,0,0,.328.691,1.721,1.721,0,0,0,.59.5,1.883,1.883,0,0,0,.887.191,2.473,2.473,0,0,0,1.133-.242,2.309,2.309,0,0,0,.781-.629,2.61,2.61,0,0,0,.449-.859A3.156,3.156,0,0,0,193.727,9.156Z" transform="translate(49.265 66)" fill="#12263f"/>
      <path id="Trazado_908166" data-name="Trazado 908166" d="M22.949,7.367q-.164-.094-.383-.191t-.473-.184q-.254-.086-.523-.148a3.9,3.9,0,0,0-.527-.086l-.93,4.32q.414.3.8.625a5.323,5.323,0,0,1,.691.676,3.245,3.245,0,0,1,.484.762,2.118,2.118,0,0,1,.184.883,3.448,3.448,0,0,1-.172,1.059,2.637,2.637,0,0,1-.574.977,3.174,3.174,0,0,1-1.062.738,4.312,4.312,0,0,1-1.629.328L18.5,18.633h-.8l.32-1.523a5.562,5.562,0,0,1-.687-.078q-.359-.062-.687-.148t-.609-.184a3.5,3.5,0,0,1-.461-.191l.219-1.266a4.014,4.014,0,0,0,.512.273,6.423,6.423,0,0,0,.621.242q.328.109.664.188a5.158,5.158,0,0,0,.641.109l.891-4.141q-.477-.344-.883-.676a4.568,4.568,0,0,1-.7-.7,2.961,2.961,0,0,1-.457-.816,2.9,2.9,0,0,1-.164-1.008,2.811,2.811,0,0,1,.254-1.191,2.859,2.859,0,0,1,.715-.957A3.456,3.456,0,0,1,19,5.918a4.323,4.323,0,0,1,1.449-.246l.273-1.3h.82L21.254,5.7a5.513,5.513,0,0,1,1.055.18,7,7,0,0,1,.867.289Zm-2.734-.625a2.4,2.4,0,0,0-.863.2,1.956,1.956,0,0,0-.621.441,1.813,1.813,0,0,0-.375.605,1.957,1.957,0,0,0-.125.688,1.743,1.743,0,0,0,.086.555,1.917,1.917,0,0,0,.242.484,2.708,2.708,0,0,0,.371.43,6.035,6.035,0,0,0,.48.406Zm.75,7.406a1.492,1.492,0,0,0-.062-.434,1.654,1.654,0,0,0-.2-.414,2.471,2.471,0,0,0-.352-.422,6.057,6.057,0,0,0-.531-.457l-.75,3.633a2.347,2.347,0,0,0,.863-.215,1.877,1.877,0,0,0,.586-.437,1.652,1.652,0,0,0,.336-.586A2.146,2.146,0,0,0,20.965,14.148ZM31.613,17,33.7,7.242l-2.766.75.273-1.234,4.109-1.148L32.91,17ZM44.879,5.8l-1.57,7.4h1.469l-.25,1.172H43.059L42.5,17H41.23l.563-2.633H36.535l.234-1.109a48.653,48.653,0,0,0,3.477-3.523Q42.027,7.75,43.465,5.8Zm-2.836,7.4,1.141-5.367A56.664,56.664,0,0,1,38.293,13.2Zm10.3-4.914a1.517,1.517,0,0,0-.449-1.168A1.759,1.759,0,0,0,50.645,6.7a3.922,3.922,0,0,0-1.523.32,4.92,4.92,0,0,0-1.43.93l.32-1.437a4.15,4.15,0,0,1,1.355-.7,5.811,5.811,0,0,1,1.59-.2,2.888,2.888,0,0,1,1.992.66,2.26,2.26,0,0,1,.742,1.777,4.059,4.059,0,0,1-.324,1.676,4.455,4.455,0,0,1-1.035,1.395,13.8,13.8,0,0,1-2.078,1.531q-1.242.773-1.887,1.273a5.032,5.032,0,0,0-.957.922,2.657,2.657,0,0,0-.445,1.008H52.5L52.254,17H45.34l.117-.555a5.4,5.4,0,0,1,.605-1.625,5.57,5.57,0,0,1,1.129-1.32,19.257,19.257,0,0,1,2.242-1.609,13.31,13.31,0,0,0,1.723-1.25,4.048,4.048,0,0,0,.9-1.086A2.688,2.688,0,0,0,52.34,8.281ZM55.8,16.313a.854.854,0,0,1-.25.609.9.9,0,0,1-.277.188.836.836,0,0,1-.34.07.809.809,0,0,1-.336-.07.912.912,0,0,1-.273-.187.854.854,0,0,1-.25-.609.878.878,0,0,1,.066-.34.845.845,0,0,1,.184-.277.854.854,0,0,1,.609-.25.878.878,0,0,1,.34.066.834.834,0,0,1,.461.461A.878.878,0,0,1,55.8,16.313ZM57.887,14.3a3.246,3.246,0,0,1,.789-2.145,3.708,3.708,0,0,1,2.063-1.238,2.706,2.706,0,0,1-.859-.891,2.439,2.439,0,0,1-.336-1.289A2.93,2.93,0,0,1,60,7.141,3.077,3.077,0,0,1,61.3,6.012a4.317,4.317,0,0,1,1.9-.4,2.9,2.9,0,0,1,2,.672,2.255,2.255,0,0,1,.758,1.773A2.858,2.858,0,0,1,65.4,9.809a3.28,3.28,0,0,1-1.6,1.113,2.316,2.316,0,0,1,1.086.953,2.8,2.8,0,0,1,.406,1.492,3.6,3.6,0,0,1-.547,1.93,3.794,3.794,0,0,1-1.508,1.383,4.468,4.468,0,0,1-2.094.5,3.589,3.589,0,0,1-2.4-.73A2.664,2.664,0,0,1,57.887,14.3Zm1.422-.047a1.732,1.732,0,0,0,.5,1.3,2.007,2.007,0,0,0,1.453.484,2.682,2.682,0,0,0,2.309-1.336,2.67,2.67,0,0,0,.371-1.375,1.817,1.817,0,0,0-.5-1.332,1.776,1.776,0,0,0-1.324-.512,2.852,2.852,0,0,0-2.426,1.379A2.663,2.663,0,0,0,59.309,14.258ZM60.84,8.906a1.494,1.494,0,0,0,.434,1.109,1.535,1.535,0,0,0,1.129.43,2.162,2.162,0,0,0,1.059-.293,2.337,2.337,0,0,0,.852-.8,2.067,2.067,0,0,0,.324-1.129,1.488,1.488,0,0,0-.43-1.105,1.581,1.581,0,0,0-1.164-.426,2.188,2.188,0,0,0-2.2,2.219Zm13.742.016q0,.586-.055,1.223t-.172,1.285a12.945,12.945,0,0,1-.3,1.285,10.138,10.138,0,0,1-.441,1.23,8.318,8.318,0,0,1-.59,1.121,5.918,5.918,0,0,1-.746.957,3.614,3.614,0,0,1-2.7,1.172,2.709,2.709,0,0,1-1.16-.246,2.479,2.479,0,0,1-.9-.719,3.438,3.438,0,0,1-.582-1.164,5.551,5.551,0,0,1-.207-1.59,11.938,11.938,0,0,1,.141-1.793,11.1,11.1,0,0,1,.43-1.8,9.769,9.769,0,0,1,.719-1.66,6.191,6.191,0,0,1,1.016-1.375,4.129,4.129,0,0,1,1.242-.91,3.6,3.6,0,0,1,1.555-.324,2.927,2.927,0,0,1,1.133.211,2.318,2.318,0,0,1,.871.629,2.879,2.879,0,0,1,.559,1.035A4.774,4.774,0,0,1,74.582,8.922Zm-1.3.109a3.111,3.111,0,0,0-.406-1.715A1.323,1.323,0,0,0,71.7,6.7a1.944,1.944,0,0,0-.867.2,2.953,2.953,0,0,0-.8.6,4.512,4.512,0,0,0-.574.762,7.791,7.791,0,0,0-.492.953,10.054,10.054,0,0,0-.395,1.074q-.172.563-.293,1.125t-.184,1.1a8.781,8.781,0,0,0-.062,1.008,4.622,4.622,0,0,0,.129,1.168,2.446,2.446,0,0,0,.355.8,1.412,1.412,0,0,0,.535.465,1.5,1.5,0,0,0,.66.148,1.958,1.958,0,0,0,.828-.187,2.451,2.451,0,0,0,.758-.562,5.037,5.037,0,0,0,.773-1.152,10.287,10.287,0,0,0,.629-1.559,13.045,13.045,0,0,0,.426-1.785A11.043,11.043,0,0,0,73.285,9.031Zm9.922-.109q0,.586-.055,1.223T82.98,11.43a12.945,12.945,0,0,1-.3,1.285,10.138,10.138,0,0,1-.441,1.23,8.318,8.318,0,0,1-.59,1.121,5.918,5.918,0,0,1-.746.957A3.614,3.614,0,0,1,78.2,17.2a2.709,2.709,0,0,1-1.16-.246,2.479,2.479,0,0,1-.9-.719,3.438,3.438,0,0,1-.582-1.164,5.551,5.551,0,0,1-.207-1.59,11.938,11.938,0,0,1,.141-1.793,11.1,11.1,0,0,1,.43-1.8,9.769,9.769,0,0,1,.719-1.66,6.191,6.191,0,0,1,1.016-1.375,4.129,4.129,0,0,1,1.242-.91,3.6,3.6,0,0,1,1.555-.324,2.927,2.927,0,0,1,1.133.211,2.318,2.318,0,0,1,.871.629,2.879,2.879,0,0,1,.559,1.035A4.774,4.774,0,0,1,83.207,8.922Zm-1.3.109A3.111,3.111,0,0,0,81.5,7.316a1.323,1.323,0,0,0-1.18-.621,1.944,1.944,0,0,0-.867.2,2.953,2.953,0,0,0-.8.6,4.512,4.512,0,0,0-.574.762,7.791,7.791,0,0,0-.492.953,10.054,10.054,0,0,0-.395,1.074q-.172.563-.293,1.125t-.184,1.1a8.781,8.781,0,0,0-.062,1.008,4.622,4.622,0,0,0,.129,1.168,2.446,2.446,0,0,0,.355.8,1.412,1.412,0,0,0,.535.465,1.5,1.5,0,0,0,.66.148,1.958,1.958,0,0,0,.828-.187,2.451,2.451,0,0,0,.758-.562A5.037,5.037,0,0,0,80.7,14.2a10.287,10.287,0,0,0,.629-1.559,13.045,13.045,0,0,0,.426-1.785A11.043,11.043,0,0,0,81.91,9.031Zm3.25,7.281a.854.854,0,0,1-.25.609.9.9,0,0,1-.277.188.836.836,0,0,1-.34.07.809.809,0,0,1-.336-.07.912.912,0,0,1-.273-.187.854.854,0,0,1-.25-.609.878.878,0,0,1,.066-.34.845.845,0,0,1,.184-.277.854.854,0,0,1,.609-.25.878.878,0,0,1,.34.066.834.834,0,0,1,.461.461A.878.878,0,0,1,85.16,16.313ZM95.316,8.922q0,.586-.055,1.223T95.09,11.43a12.945,12.945,0,0,1-.3,1.285,10.138,10.138,0,0,1-.441,1.23,8.318,8.318,0,0,1-.59,1.121,5.918,5.918,0,0,1-.746.957,3.614,3.614,0,0,1-2.7,1.172,2.709,2.709,0,0,1-1.16-.246,2.479,2.479,0,0,1-.9-.719,3.438,3.438,0,0,1-.582-1.164,5.551,5.551,0,0,1-.207-1.59,11.938,11.938,0,0,1,.141-1.793,11.1,11.1,0,0,1,.43-1.8,9.769,9.769,0,0,1,.719-1.66,6.191,6.191,0,0,1,1.016-1.375A4.129,4.129,0,0,1,91,5.934a3.6,3.6,0,0,1,1.555-.324,2.927,2.927,0,0,1,1.133.211,2.318,2.318,0,0,1,.871.629,2.879,2.879,0,0,1,.559,1.035A4.774,4.774,0,0,1,95.316,8.922Zm-1.3.109a3.111,3.111,0,0,0-.406-1.715,1.323,1.323,0,0,0-1.18-.621,1.944,1.944,0,0,0-.867.2,2.953,2.953,0,0,0-.8.6,4.512,4.512,0,0,0-.574.762,7.791,7.791,0,0,0-.492.953,10.054,10.054,0,0,0-.395,1.074q-.172.563-.293,1.125t-.184,1.1a8.781,8.781,0,0,0-.062,1.008,4.622,4.622,0,0,0,.129,1.168,2.446,2.446,0,0,0,.355.8,1.412,1.412,0,0,0,.535.465,1.5,1.5,0,0,0,.66.148,1.958,1.958,0,0,0,.828-.187,2.451,2.451,0,0,0,.758-.562,5.037,5.037,0,0,0,.773-1.152,10.287,10.287,0,0,0,.629-1.559,13.045,13.045,0,0,0,.426-1.785A11.043,11.043,0,0,0,94.02,9.031Zm9.922-.109q0,.586-.055,1.223t-.172,1.285a12.945,12.945,0,0,1-.3,1.285,10.138,10.138,0,0,1-.441,1.23,8.318,8.318,0,0,1-.59,1.121,5.918,5.918,0,0,1-.746.957,3.614,3.614,0,0,1-2.7,1.172,2.709,2.709,0,0,1-1.16-.246,2.479,2.479,0,0,1-.9-.719,3.438,3.438,0,0,1-.582-1.164,5.551,5.551,0,0,1-.207-1.59,11.938,11.938,0,0,1,.141-1.793,11.1,11.1,0,0,1,.43-1.8,9.769,9.769,0,0,1,.719-1.66,6.191,6.191,0,0,1,1.016-1.375,4.129,4.129,0,0,1,1.242-.91,3.6,3.6,0,0,1,1.555-.324,2.927,2.927,0,0,1,1.133.211,2.318,2.318,0,0,1,.871.629,2.879,2.879,0,0,1,.559,1.035A4.774,4.774,0,0,1,103.941,8.922Zm-1.3.109a3.111,3.111,0,0,0-.406-1.715,1.323,1.323,0,0,0-1.18-.621,1.944,1.944,0,0,0-.867.2,2.953,2.953,0,0,0-.8.6,4.512,4.512,0,0,0-.574.762,7.791,7.791,0,0,0-.492.953,10.054,10.054,0,0,0-.395,1.074q-.172.563-.293,1.125t-.184,1.1a8.781,8.781,0,0,0-.062,1.008,4.622,4.622,0,0,0,.129,1.168,2.446,2.446,0,0,0,.355.8,1.412,1.412,0,0,0,.535.465,1.5,1.5,0,0,0,.66.148,1.958,1.958,0,0,0,.828-.187,2.451,2.451,0,0,0,.758-.562,5.037,5.037,0,0,0,.773-1.152,10.287,10.287,0,0,0,.629-1.559,13.045,13.045,0,0,0,.426-1.785A11.043,11.043,0,0,0,102.645,9.031Zm9.922-.109q0,.586-.055,1.223t-.172,1.285a12.945,12.945,0,0,1-.3,1.285,10.138,10.138,0,0,1-.441,1.23,8.318,8.318,0,0,1-.59,1.121,5.918,5.918,0,0,1-.746.957,3.614,3.614,0,0,1-2.7,1.172,2.709,2.709,0,0,1-1.16-.246,2.479,2.479,0,0,1-.9-.719,3.438,3.438,0,0,1-.582-1.164,5.551,5.551,0,0,1-.207-1.59,11.938,11.938,0,0,1,.141-1.793,11.1,11.1,0,0,1,.43-1.8A9.769,9.769,0,0,1,106,8.219a6.191,6.191,0,0,1,1.016-1.375,4.129,4.129,0,0,1,1.242-.91,3.6,3.6,0,0,1,1.555-.324,2.927,2.927,0,0,1,1.133.211,2.318,2.318,0,0,1,.871.629,2.879,2.879,0,0,1,.559,1.035A4.774,4.774,0,0,1,112.566,8.922Zm-1.3.109a3.111,3.111,0,0,0-.406-1.715,1.323,1.323,0,0,0-1.18-.621,1.944,1.944,0,0,0-.867.2,2.953,2.953,0,0,0-.8.6,4.512,4.512,0,0,0-.574.762,7.791,7.791,0,0,0-.492.953,10.054,10.054,0,0,0-.395,1.074q-.172.563-.293,1.125t-.184,1.1a8.781,8.781,0,0,0-.062,1.008,4.622,4.622,0,0,0,.129,1.168,2.446,2.446,0,0,0,.355.8,1.412,1.412,0,0,0,.535.465,1.5,1.5,0,0,0,.66.148,1.958,1.958,0,0,0,.828-.187,2.451,2.451,0,0,0,.758-.562,5.037,5.037,0,0,0,.773-1.152,10.287,10.287,0,0,0,.629-1.559,13.045,13.045,0,0,0,.426-1.785A11.043,11.043,0,0,0,111.27,9.031Zm6.641,4.016h-4.273l.227-1.008h4.273Zm9.055-5.68q-.164-.094-.383-.191t-.473-.184q-.254-.086-.523-.148a3.9,3.9,0,0,0-.527-.086l-.93,4.32q.414.3.8.625a5.324,5.324,0,0,1,.691.676,3.245,3.245,0,0,1,.484.762,2.118,2.118,0,0,1,.184.883,3.447,3.447,0,0,1-.172,1.059,2.637,2.637,0,0,1-.574.977,3.174,3.174,0,0,1-1.062.738,4.312,4.312,0,0,1-1.629.328l-.336,1.508h-.8l.32-1.523a5.563,5.563,0,0,1-.687-.078q-.359-.062-.687-.148t-.609-.184a3.5,3.5,0,0,1-.461-.191l.219-1.266a4.014,4.014,0,0,0,.512.273,6.423,6.423,0,0,0,.621.242q.328.109.664.188a5.158,5.158,0,0,0,.641.109l.891-4.141q-.477-.344-.883-.676a4.568,4.568,0,0,1-.7-.7,2.961,2.961,0,0,1-.457-.816,2.9,2.9,0,0,1-.164-1.008,2.811,2.811,0,0,1,.254-1.191,2.859,2.859,0,0,1,.715-.957,3.456,3.456,0,0,1,1.113-.645,4.323,4.323,0,0,1,1.449-.246l.273-1.3h.82L125.27,5.7a5.513,5.513,0,0,1,1.055.18,7,7,0,0,1,.867.289Zm-2.734-.625a2.4,2.4,0,0,0-.863.2,1.956,1.956,0,0,0-.621.441,1.813,1.813,0,0,0-.375.605,1.957,1.957,0,0,0-.125.688,1.743,1.743,0,0,0,.086.555,1.917,1.917,0,0,0,.242.484,2.708,2.708,0,0,0,.371.43,6.035,6.035,0,0,0,.48.406Zm.75,7.406a1.492,1.492,0,0,0-.062-.434,1.654,1.654,0,0,0-.2-.414,2.471,2.471,0,0,0-.352-.422,6.057,6.057,0,0,0-.531-.457l-.75,3.633a2.347,2.347,0,0,0,.863-.215,1.877,1.877,0,0,0,.586-.437,1.652,1.652,0,0,0,.336-.586A2.146,2.146,0,0,0,124.98,14.148Zm7.563.156a3.246,3.246,0,0,1,.789-2.145,3.708,3.708,0,0,1,2.063-1.238,2.706,2.706,0,0,1-.859-.891,2.439,2.439,0,0,1-.336-1.289,2.93,2.93,0,0,1,.461-1.6,3.077,3.077,0,0,1,1.293-1.129,4.317,4.317,0,0,1,1.9-.4,2.9,2.9,0,0,1,2,.672,2.255,2.255,0,0,1,.758,1.773,2.858,2.858,0,0,1-.555,1.754,3.28,3.28,0,0,1-1.6,1.113,2.316,2.316,0,0,1,1.086.953,2.8,2.8,0,0,1,.406,1.492,3.6,3.6,0,0,1-.547,1.93,3.794,3.794,0,0,1-1.508,1.383,4.468,4.468,0,0,1-2.094.5,3.589,3.589,0,0,1-2.4-.73A2.664,2.664,0,0,1,132.543,14.3Zm1.422-.047a1.732,1.732,0,0,0,.5,1.3,2.007,2.007,0,0,0,1.453.484,2.682,2.682,0,0,0,2.309-1.336,2.67,2.67,0,0,0,.371-1.375,1.817,1.817,0,0,0-.5-1.332,1.776,1.776,0,0,0-1.324-.512,2.852,2.852,0,0,0-2.426,1.379A2.663,2.663,0,0,0,133.965,14.258ZM135.5,8.906a1.494,1.494,0,0,0,.434,1.109,1.535,1.535,0,0,0,1.129.43,2.162,2.162,0,0,0,1.059-.293,2.337,2.337,0,0,0,.852-.8,2.067,2.067,0,0,0,.324-1.129,1.488,1.488,0,0,0-.43-1.105,1.581,1.581,0,0,0-1.164-.426,2.188,2.188,0,0,0-2.2,2.219Zm13.609-1.766a3.481,3.481,0,0,0-.789-.316,3.7,3.7,0,0,0-1-.129,3.229,3.229,0,0,0-1.2.227,3.742,3.742,0,0,0-1.055.641,4.336,4.336,0,0,0-.734.785,7.052,7.052,0,0,0-.605.988,8.462,8.462,0,0,0-.465,1.105,8.669,8.669,0,0,0-.3,1.137h.031a3.291,3.291,0,0,1,.492-.625,3.38,3.38,0,0,1,.645-.5,3.22,3.22,0,0,1,.773-.336,3.369,3.369,0,0,1,2.09.1,2.361,2.361,0,0,1,.875.617,2.659,2.659,0,0,1,.531.953,3.991,3.991,0,0,1,.18,1.234,4.882,4.882,0,0,1-.246,1.531,4.148,4.148,0,0,1-.727,1.34,3.647,3.647,0,0,1-1.184.949,3.487,3.487,0,0,1-1.609.359,3.444,3.444,0,0,1-1.312-.242,2.66,2.66,0,0,1-1.02-.734,3.446,3.446,0,0,1-.66-1.234,5.8,5.8,0,0,1-.234-1.742,9.994,9.994,0,0,1,.191-1.965,9.442,9.442,0,0,1,.547-1.8,7.994,7.994,0,0,1,.859-1.555,5.857,5.857,0,0,1,1.137-1.207,4.953,4.953,0,0,1,1.527-.832,5.193,5.193,0,0,1,1.637-.27,5.33,5.33,0,0,1,1.105.105,5.6,5.6,0,0,1,.785.215Zm-1.852,5.984a2.73,2.73,0,0,0-.113-.8,1.772,1.772,0,0,0-.348-.645,1.6,1.6,0,0,0-.6-.43,2.226,2.226,0,0,0-.875-.156,2.273,2.273,0,0,0-1.812.82,2.584,2.584,0,0,0-.461.828,2.879,2.879,0,0,0-.156.93,3.352,3.352,0,0,0,.141,1,2.271,2.271,0,0,0,.4.766,1.749,1.749,0,0,0,.629.488,1.957,1.957,0,0,0,.832.172,1.977,1.977,0,0,0,1-.254,2.366,2.366,0,0,0,.742-.668,3.117,3.117,0,0,0,.461-.953A3.848,3.848,0,0,0,147.254,13.125Zm3.938,3.188a.854.854,0,0,1-.25.609.9.9,0,0,1-.277.188.836.836,0,0,1-.34.07.809.809,0,0,1-.336-.07.912.912,0,0,1-.273-.187.854.854,0,0,1-.25-.609.879.879,0,0,1,.066-.34.845.845,0,0,1,.184-.277.854.854,0,0,1,.609-.25.878.878,0,0,1,.34.066.834.834,0,0,1,.461.461A.879.879,0,0,1,151.191,16.313ZM161,5.8l-1.57,7.4H160.9l-.25,1.172h-1.469L158.621,17h-1.266l.563-2.633H152.66l.234-1.109a48.653,48.653,0,0,0,3.477-3.523Q158.152,7.75,159.59,5.8Zm-2.836,7.4,1.141-5.367a56.664,56.664,0,0,1-4.891,5.367Zm11.8-4.273q0,.586-.055,1.223t-.172,1.285a12.947,12.947,0,0,1-.3,1.285,10.137,10.137,0,0,1-.441,1.23,8.317,8.317,0,0,1-.59,1.121,5.918,5.918,0,0,1-.746.957,3.614,3.614,0,0,1-2.7,1.172,2.709,2.709,0,0,1-1.16-.246,2.479,2.479,0,0,1-.9-.719,3.438,3.438,0,0,1-.582-1.164,5.551,5.551,0,0,1-.207-1.59,11.938,11.938,0,0,1,.141-1.793,11.1,11.1,0,0,1,.43-1.8,9.769,9.769,0,0,1,.719-1.66,6.19,6.19,0,0,1,1.016-1.375,4.13,4.13,0,0,1,1.242-.91,3.6,3.6,0,0,1,1.555-.324,2.927,2.927,0,0,1,1.133.211,2.318,2.318,0,0,1,.871.629,2.879,2.879,0,0,1,.559,1.035A4.775,4.775,0,0,1,169.973,8.922Zm-1.3.109a3.111,3.111,0,0,0-.406-1.715,1.323,1.323,0,0,0-1.18-.621,1.944,1.944,0,0,0-.867.2,2.953,2.953,0,0,0-.8.6,4.512,4.512,0,0,0-.574.762,7.791,7.791,0,0,0-.492.953,10.052,10.052,0,0,0-.395,1.074q-.172.563-.293,1.125t-.184,1.1a8.78,8.78,0,0,0-.062,1.008,4.622,4.622,0,0,0,.129,1.168,2.446,2.446,0,0,0,.355.8,1.412,1.412,0,0,0,.535.465,1.5,1.5,0,0,0,.66.148,1.958,1.958,0,0,0,.828-.187,2.451,2.451,0,0,0,.758-.562,5.036,5.036,0,0,0,.773-1.152,10.288,10.288,0,0,0,.629-1.559,13.046,13.046,0,0,0,.426-1.785A11.042,11.042,0,0,0,168.676,9.031Zm9.922-.109q0,.586-.055,1.223t-.172,1.285a12.947,12.947,0,0,1-.3,1.285,10.137,10.137,0,0,1-.441,1.23,8.317,8.317,0,0,1-.59,1.121,5.918,5.918,0,0,1-.746.957,3.614,3.614,0,0,1-2.7,1.172,2.709,2.709,0,0,1-1.16-.246,2.479,2.479,0,0,1-.9-.719,3.438,3.438,0,0,1-.582-1.164,5.551,5.551,0,0,1-.207-1.59,11.938,11.938,0,0,1,.141-1.793,11.1,11.1,0,0,1,.43-1.8,9.769,9.769,0,0,1,.719-1.66,6.19,6.19,0,0,1,1.016-1.375,4.13,4.13,0,0,1,1.242-.91,3.6,3.6,0,0,1,1.555-.324,2.927,2.927,0,0,1,1.133.211,2.318,2.318,0,0,1,.871.629,2.879,2.879,0,0,1,.559,1.035A4.775,4.775,0,0,1,178.6,8.922Zm-1.3.109a3.111,3.111,0,0,0-.406-1.715,1.323,1.323,0,0,0-1.18-.621,1.944,1.944,0,0,0-.867.2,2.953,2.953,0,0,0-.8.6,4.512,4.512,0,0,0-.574.762,7.791,7.791,0,0,0-.492.953,10.052,10.052,0,0,0-.395,1.074q-.172.563-.293,1.125t-.184,1.1a8.78,8.78,0,0,0-.062,1.008,4.622,4.622,0,0,0,.129,1.168,2.446,2.446,0,0,0,.355.8,1.412,1.412,0,0,0,.535.465,1.5,1.5,0,0,0,.66.148,1.958,1.958,0,0,0,.828-.187,2.451,2.451,0,0,0,.758-.562,5.036,5.036,0,0,0,.773-1.152,10.288,10.288,0,0,0,.629-1.559,13.046,13.046,0,0,0,.426-1.785A11.042,11.042,0,0,0,177.3,9.031Zm3.25,7.281a.854.854,0,0,1-.25.609.9.9,0,0,1-.277.188.836.836,0,0,1-.34.07.809.809,0,0,1-.336-.07.912.912,0,0,1-.273-.187.854.854,0,0,1-.25-.609.879.879,0,0,1,.066-.34.845.845,0,0,1,.184-.277.854.854,0,0,1,.609-.25.878.878,0,0,1,.34.066.834.834,0,0,1,.461.461A.879.879,0,0,1,180.551,16.313Zm10.156-7.391q0,.586-.055,1.223t-.172,1.285a12.947,12.947,0,0,1-.3,1.285,10.137,10.137,0,0,1-.441,1.23,8.317,8.317,0,0,1-.59,1.121,5.918,5.918,0,0,1-.746.957,3.614,3.614,0,0,1-2.7,1.172,2.709,2.709,0,0,1-1.16-.246,2.479,2.479,0,0,1-.9-.719,3.438,3.438,0,0,1-.582-1.164,5.551,5.551,0,0,1-.207-1.59,11.938,11.938,0,0,1,.141-1.793,11.1,11.1,0,0,1,.43-1.8,9.769,9.769,0,0,1,.719-1.66,6.19,6.19,0,0,1,1.016-1.375,4.13,4.13,0,0,1,1.242-.91,3.6,3.6,0,0,1,1.555-.324,2.927,2.927,0,0,1,1.133.211,2.318,2.318,0,0,1,.871.629,2.879,2.879,0,0,1,.559,1.035A4.775,4.775,0,0,1,190.707,8.922Zm-1.3.109A3.111,3.111,0,0,0,189,7.316a1.323,1.323,0,0,0-1.18-.621,1.944,1.944,0,0,0-.867.2,2.953,2.953,0,0,0-.8.6,4.512,4.512,0,0,0-.574.762,7.791,7.791,0,0,0-.492.953,10.052,10.052,0,0,0-.395,1.074q-.172.563-.293,1.125t-.184,1.1a8.78,8.78,0,0,0-.062,1.008,4.622,4.622,0,0,0,.129,1.168,2.446,2.446,0,0,0,.355.8,1.412,1.412,0,0,0,.535.465,1.5,1.5,0,0,0,.66.148,1.958,1.958,0,0,0,.828-.187,2.451,2.451,0,0,0,.758-.562A5.036,5.036,0,0,0,188.2,14.2a10.288,10.288,0,0,0,.629-1.559,13.046,13.046,0,0,0,.426-1.785A11.042,11.042,0,0,0,189.41,9.031Zm9.922-.109q0,.586-.055,1.223t-.172,1.285a12.947,12.947,0,0,1-.3,1.285,10.137,10.137,0,0,1-.441,1.23,8.317,8.317,0,0,1-.59,1.121,5.918,5.918,0,0,1-.746.957,3.614,3.614,0,0,1-2.7,1.172,2.709,2.709,0,0,1-1.16-.246,2.479,2.479,0,0,1-.9-.719,3.438,3.438,0,0,1-.582-1.164,5.551,5.551,0,0,1-.207-1.59,11.938,11.938,0,0,1,.141-1.793,11.1,11.1,0,0,1,.43-1.8,9.769,9.769,0,0,1,.719-1.66,6.19,6.19,0,0,1,1.016-1.375,4.13,4.13,0,0,1,1.242-.91,3.6,3.6,0,0,1,1.555-.324,2.927,2.927,0,0,1,1.133.211,2.318,2.318,0,0,1,.871.629,2.879,2.879,0,0,1,.559,1.035A4.775,4.775,0,0,1,199.332,8.922Zm-1.3.109a3.111,3.111,0,0,0-.406-1.715,1.323,1.323,0,0,0-1.18-.621,1.944,1.944,0,0,0-.867.2,2.953,2.953,0,0,0-.8.6,4.512,4.512,0,0,0-.574.762,7.791,7.791,0,0,0-.492.953,10.052,10.052,0,0,0-.395,1.074q-.172.563-.293,1.125t-.184,1.1a8.78,8.78,0,0,0-.062,1.008,4.622,4.622,0,0,0,.129,1.168,2.446,2.446,0,0,0,.355.8,1.412,1.412,0,0,0,.535.465,1.5,1.5,0,0,0,.66.148,1.958,1.958,0,0,0,.828-.187,2.451,2.451,0,0,0,.758-.562,5.036,5.036,0,0,0,.773-1.152,10.288,10.288,0,0,0,.629-1.559,13.046,13.046,0,0,0,.426-1.785A11.042,11.042,0,0,0,198.035,9.031Zm9.922-.109q0,.586-.055,1.223t-.172,1.285a12.947,12.947,0,0,1-.3,1.285,10.137,10.137,0,0,1-.441,1.23,8.317,8.317,0,0,1-.59,1.121,5.918,5.918,0,0,1-.746.957,3.614,3.614,0,0,1-2.7,1.172,2.709,2.709,0,0,1-1.16-.246,2.479,2.479,0,0,1-.9-.719,3.438,3.438,0,0,1-.582-1.164,5.551,5.551,0,0,1-.207-1.59,11.938,11.938,0,0,1,.141-1.793,11.1,11.1,0,0,1,.43-1.8,9.769,9.769,0,0,1,.719-1.66A6.19,6.19,0,0,1,202.4,6.844a4.13,4.13,0,0,1,1.242-.91,3.6,3.6,0,0,1,1.555-.324,2.927,2.927,0,0,1,1.133.211,2.318,2.318,0,0,1,.871.629,2.879,2.879,0,0,1,.559,1.035A4.775,4.775,0,0,1,207.957,8.922Zm-1.3.109a3.111,3.111,0,0,0-.406-1.715,1.323,1.323,0,0,0-1.18-.621,1.944,1.944,0,0,0-.867.2,2.953,2.953,0,0,0-.8.6,4.512,4.512,0,0,0-.574.762,7.791,7.791,0,0,0-.492.953,10.052,10.052,0,0,0-.395,1.074q-.172.563-.293,1.125t-.184,1.1a8.78,8.78,0,0,0-.062,1.008,4.622,4.622,0,0,0,.129,1.168,2.446,2.446,0,0,0,.355.8,1.412,1.412,0,0,0,.535.465,1.5,1.5,0,0,0,.66.148,1.958,1.958,0,0,0,.828-.187,2.451,2.451,0,0,0,.758-.562,5.036,5.036,0,0,0,.773-1.152,10.288,10.288,0,0,0,.629-1.559,13.046,13.046,0,0,0,.426-1.785A11.042,11.042,0,0,0,206.66,9.031ZM70.645,31.367q-.164-.094-.383-.191t-.473-.184q-.254-.086-.523-.148a3.9,3.9,0,0,0-.527-.086l-.93,4.32q.414.3.8.625a5.324,5.324,0,0,1,.691.676,3.245,3.245,0,0,1,.484.762,2.118,2.118,0,0,1,.184.883,3.447,3.447,0,0,1-.172,1.059,2.637,2.637,0,0,1-.574.977,3.174,3.174,0,0,1-1.062.738,4.312,4.312,0,0,1-1.629.328L66.2,42.633h-.8l.32-1.523a5.563,5.563,0,0,1-.687-.078q-.359-.063-.687-.148T63.73,40.7a3.5,3.5,0,0,1-.461-.191l.219-1.266a4.014,4.014,0,0,0,.512.273,6.423,6.423,0,0,0,.621.242q.328.109.664.188a5.158,5.158,0,0,0,.641.109l.891-4.141q-.477-.344-.883-.676a4.568,4.568,0,0,1-.7-.7,2.961,2.961,0,0,1-.457-.816,2.9,2.9,0,0,1-.164-1.008,2.811,2.811,0,0,1,.254-1.191,2.859,2.859,0,0,1,.715-.957,3.456,3.456,0,0,1,1.113-.645,4.323,4.323,0,0,1,1.449-.246l.273-1.3h.82L68.949,29.7a5.513,5.513,0,0,1,1.055.18,7,7,0,0,1,.867.289Zm-2.734-.625a2.4,2.4,0,0,0-.863.2,1.956,1.956,0,0,0-.621.441,1.813,1.813,0,0,0-.375.605,1.957,1.957,0,0,0-.125.688,1.743,1.743,0,0,0,.086.555,1.917,1.917,0,0,0,.242.484,2.708,2.708,0,0,0,.371.43,6.035,6.035,0,0,0,.48.406Zm.75,7.406a1.492,1.492,0,0,0-.062-.434,1.654,1.654,0,0,0-.2-.414,2.471,2.471,0,0,0-.352-.422,6.056,6.056,0,0,0-.531-.457l-.75,3.633a2.347,2.347,0,0,0,.863-.215,1.877,1.877,0,0,0,.586-.437,1.652,1.652,0,0,0,.336-.586A2.146,2.146,0,0,0,68.66,38.148ZM79.309,41l2.086-9.758-2.766.75.273-1.234,4.109-1.148L80.605,41Zm8.625,0,2.086-9.758-2.766.75.273-1.234,4.109-1.148L89.23,41Zm13.258-10.031H96.98l-.687,3.266.828-.031a3.568,3.568,0,0,1,2.438.77,2.734,2.734,0,0,1,.875,2.168,4.074,4.074,0,0,1-.57,2.133,3.629,3.629,0,0,1-1.582,1.438,5.4,5.4,0,0,1-2.355.484,8.377,8.377,0,0,1-1.387-.117,4.335,4.335,0,0,1-1.1-.3l.289-1.258a3.418,3.418,0,0,0,1.031.422,5.058,5.058,0,0,0,1.258.164,3.605,3.605,0,0,0,1.672-.355,2.581,2.581,0,0,0,1.059-.977,2.681,2.681,0,0,0,.371-1.4,1.977,1.977,0,0,0-.562-1.527,2.581,2.581,0,0,0-1.789-.52q-1.086,0-1.945.078L96,29.8h5.422Zm2.3,9.344a.854.854,0,0,1-.25.609.9.9,0,0,1-.277.188.836.836,0,0,1-.34.07.809.809,0,0,1-.336-.07.912.912,0,0,1-.273-.187.854.854,0,0,1-.25-.609.878.878,0,0,1,.066-.34.845.845,0,0,1,.184-.277.854.854,0,0,1,.609-.25.878.878,0,0,1,.34.066.834.834,0,0,1,.461.461A.878.878,0,0,1,103.5,40.313Zm4.633.688h-1.453a26.184,26.184,0,0,1,2.363-4.766,51.919,51.919,0,0,1,3.691-5.281h-5.539l.25-1.156h7.125l-.156.742a55.288,55.288,0,0,0-4,5.738A24.685,24.685,0,0,0,108.129,41Zm13.938-7.508a10.616,10.616,0,0,1-.172,1.879,9.587,9.587,0,0,1-.523,1.844,8.285,8.285,0,0,1-.879,1.652,5.631,5.631,0,0,1-1.238,1.3,4.894,4.894,0,0,1-1.484.777,5.481,5.481,0,0,1-1.656.246,5.849,5.849,0,0,1-1.1-.094,2.74,2.74,0,0,1-.738-.227l.172-1.219a3.992,3.992,0,0,0,.707.3,3.231,3.231,0,0,0,1.02.145,3.779,3.779,0,0,0,1.266-.215,3.663,3.663,0,0,0,1.086-.6,4.248,4.248,0,0,0,.727-.711,6.1,6.1,0,0,0,.613-.922,7.607,7.607,0,0,0,.488-1.1,8.454,8.454,0,0,0,.336-1.25h-.031a3.819,3.819,0,0,1-.508.648,3.264,3.264,0,0,1-.633.508,3.066,3.066,0,0,1-.742.328,2.947,2.947,0,0,1-.836.117,2.911,2.911,0,0,1-1.379-.3,2.643,2.643,0,0,1-.9-.754,2.964,2.964,0,0,1-.488-1.012,4.109,4.109,0,0,1-.148-1.062,4.873,4.873,0,0,1,.1-.957,4.511,4.511,0,0,1,.3-.953,4.38,4.38,0,0,1,.52-.875,3.455,3.455,0,0,1,1.715-1.207,3.927,3.927,0,0,1,1.223-.18,3.152,3.152,0,0,1,1.4.293,2.727,2.727,0,0,1,.992.816,3.624,3.624,0,0,1,.59,1.23A5.78,5.78,0,0,1,122.066,33.492Zm-1.312-.336a3.391,3.391,0,0,0-.141-1.008,2.311,2.311,0,0,0-.4-.773,1.843,1.843,0,0,0-.617-.5,1.757,1.757,0,0,0-.8-.18,2.138,2.138,0,0,0-1.043.25,2.453,2.453,0,0,0-.773.66,2.944,2.944,0,0,0-.48.945,3.75,3.75,0,0,0-.164,1.105,3.048,3.048,0,0,0,.1.777,2,2,0,0,0,.328.691,1.721,1.721,0,0,0,.59.5,1.883,1.883,0,0,0,.887.191,2.473,2.473,0,0,0,1.133-.242,2.309,2.309,0,0,0,.781-.629,2.61,2.61,0,0,0,.449-.859A3.156,3.156,0,0,0,120.754,33.156Zm10.016-2.016a3.481,3.481,0,0,0-.789-.316,3.7,3.7,0,0,0-1-.129,3.229,3.229,0,0,0-1.2.227,3.742,3.742,0,0,0-1.055.641,4.337,4.337,0,0,0-.734.785,7.051,7.051,0,0,0-.605.988,8.463,8.463,0,0,0-.465,1.105,8.666,8.666,0,0,0-.3,1.137h.031a3.29,3.29,0,0,1,.492-.625,3.381,3.381,0,0,1,.645-.5,3.22,3.22,0,0,1,.773-.336,3.369,3.369,0,0,1,2.09.1,2.361,2.361,0,0,1,.875.617,2.659,2.659,0,0,1,.531.953,3.991,3.991,0,0,1,.18,1.234,4.882,4.882,0,0,1-.246,1.531,4.148,4.148,0,0,1-.727,1.34,3.646,3.646,0,0,1-1.184.949,3.487,3.487,0,0,1-1.609.359,3.444,3.444,0,0,1-1.312-.242,2.66,2.66,0,0,1-1.02-.734,3.446,3.446,0,0,1-.66-1.234,5.8,5.8,0,0,1-.234-1.742,10,10,0,0,1,.191-1.965,9.442,9.442,0,0,1,.547-1.8,7.994,7.994,0,0,1,.859-1.555,5.857,5.857,0,0,1,1.137-1.207,4.953,4.953,0,0,1,1.527-.832,5.193,5.193,0,0,1,1.637-.27,5.33,5.33,0,0,1,1.105.105,5.6,5.6,0,0,1,.785.215Zm-1.852,5.984a2.73,2.73,0,0,0-.113-.8,1.772,1.772,0,0,0-.348-.645,1.6,1.6,0,0,0-.6-.43,2.226,2.226,0,0,0-.875-.156,2.273,2.273,0,0,0-1.812.82,2.584,2.584,0,0,0-.461.828,2.879,2.879,0,0,0-.156.93,3.352,3.352,0,0,0,.141,1,2.271,2.271,0,0,0,.4.766,1.749,1.749,0,0,0,.629.488,1.957,1.957,0,0,0,.832.172,1.977,1.977,0,0,0,1-.254,2.366,2.366,0,0,0,.742-.668,3.117,3.117,0,0,0,.461-.953A3.848,3.848,0,0,0,128.918,37.125Zm3.938,3.188a.854.854,0,0,1-.25.609.9.9,0,0,1-.277.188.836.836,0,0,1-.34.07.809.809,0,0,1-.336-.07.912.912,0,0,1-.273-.187.854.854,0,0,1-.25-.609.879.879,0,0,1,.066-.34.845.845,0,0,1,.184-.277.854.854,0,0,1,.609-.25.878.878,0,0,1,.34.066.834.834,0,0,1,.461.461A.879.879,0,0,1,132.855,40.313Zm2.086-2.008a3.246,3.246,0,0,1,.789-2.145,3.708,3.708,0,0,1,2.063-1.238,2.706,2.706,0,0,1-.859-.891,2.439,2.439,0,0,1-.336-1.289,2.93,2.93,0,0,1,.461-1.6,3.077,3.077,0,0,1,1.293-1.129,4.317,4.317,0,0,1,1.9-.4,2.9,2.9,0,0,1,2,.672,2.255,2.255,0,0,1,.758,1.773,2.858,2.858,0,0,1-.555,1.754,3.28,3.28,0,0,1-1.6,1.113,2.316,2.316,0,0,1,1.086.953,2.8,2.8,0,0,1,.406,1.492,3.6,3.6,0,0,1-.547,1.93,3.794,3.794,0,0,1-1.508,1.383,4.468,4.468,0,0,1-2.094.5,3.589,3.589,0,0,1-2.4-.73A2.664,2.664,0,0,1,134.941,38.3Zm1.422-.047a1.732,1.732,0,0,0,.5,1.3,2.007,2.007,0,0,0,1.453.484,2.682,2.682,0,0,0,2.309-1.336A2.67,2.67,0,0,0,141,37.336a1.817,1.817,0,0,0-.5-1.332,1.776,1.776,0,0,0-1.324-.512,2.852,2.852,0,0,0-2.426,1.379A2.663,2.663,0,0,0,136.363,38.258Zm1.531-5.352a1.494,1.494,0,0,0,.434,1.109,1.535,1.535,0,0,0,1.129.43,2.162,2.162,0,0,0,1.059-.293,2.337,2.337,0,0,0,.852-.8,2.067,2.067,0,0,0,.324-1.129,1.488,1.488,0,0,0-.43-1.105,1.581,1.581,0,0,0-1.164-.426,2.188,2.188,0,0,0-2.2,2.219Zm13.742.016q0,.586-.055,1.223t-.172,1.285a12.947,12.947,0,0,1-.3,1.285,10.137,10.137,0,0,1-.441,1.23,8.317,8.317,0,0,1-.59,1.121,5.918,5.918,0,0,1-.746.957,3.614,3.614,0,0,1-2.7,1.172,2.709,2.709,0,0,1-1.16-.246,2.479,2.479,0,0,1-.9-.719,3.438,3.438,0,0,1-.582-1.164,5.551,5.551,0,0,1-.207-1.59,11.938,11.938,0,0,1,.141-1.793,11.1,11.1,0,0,1,.43-1.8,9.769,9.769,0,0,1,.719-1.66,6.19,6.19,0,0,1,1.016-1.375,4.13,4.13,0,0,1,1.242-.91,3.6,3.6,0,0,1,1.555-.324,2.927,2.927,0,0,1,1.133.211,2.318,2.318,0,0,1,.871.629,2.879,2.879,0,0,1,.559,1.035A4.775,4.775,0,0,1,151.637,32.922Zm-1.3.109a3.111,3.111,0,0,0-.406-1.715,1.323,1.323,0,0,0-1.18-.621,1.944,1.944,0,0,0-.867.2,2.953,2.953,0,0,0-.8.6,4.512,4.512,0,0,0-.574.762,7.791,7.791,0,0,0-.492.953,10.052,10.052,0,0,0-.395,1.074q-.172.563-.293,1.125t-.184,1.1a8.78,8.78,0,0,0-.062,1.008,4.622,4.622,0,0,0,.129,1.168,2.446,2.446,0,0,0,.355.8,1.412,1.412,0,0,0,.535.465,1.5,1.5,0,0,0,.66.148,1.958,1.958,0,0,0,.828-.187,2.451,2.451,0,0,0,.758-.562,5.036,5.036,0,0,0,.773-1.152,10.288,10.288,0,0,0,.629-1.559,13.046,13.046,0,0,0,.426-1.785A11.042,11.042,0,0,0,150.34,33.031Zm9.922-.109q0,.586-.055,1.223t-.172,1.285a12.947,12.947,0,0,1-.3,1.285,10.137,10.137,0,0,1-.441,1.23,8.317,8.317,0,0,1-.59,1.121,5.918,5.918,0,0,1-.746.957,3.614,3.614,0,0,1-2.7,1.172,2.709,2.709,0,0,1-1.16-.246,2.479,2.479,0,0,1-.9-.719,3.438,3.438,0,0,1-.582-1.164,5.551,5.551,0,0,1-.207-1.59,11.938,11.938,0,0,1,.141-1.793,11.1,11.1,0,0,1,.43-1.8,9.769,9.769,0,0,1,.719-1.66,6.19,6.19,0,0,1,1.016-1.375,4.13,4.13,0,0,1,1.242-.91,3.6,3.6,0,0,1,1.555-.324,2.927,2.927,0,0,1,1.133.211,2.318,2.318,0,0,1,.871.629,2.879,2.879,0,0,1,.559,1.035A4.775,4.775,0,0,1,160.262,32.922Zm-1.3.109a3.111,3.111,0,0,0-.406-1.715,1.323,1.323,0,0,0-1.18-.621,1.944,1.944,0,0,0-.867.2,2.953,2.953,0,0,0-.8.6,4.512,4.512,0,0,0-.574.762,7.791,7.791,0,0,0-.492.953,10.052,10.052,0,0,0-.395,1.074q-.172.563-.293,1.125t-.184,1.1a8.78,8.78,0,0,0-.062,1.008,4.622,4.622,0,0,0,.129,1.168,2.446,2.446,0,0,0,.355.8,1.412,1.412,0,0,0,.535.465,1.5,1.5,0,0,0,.66.148,1.958,1.958,0,0,0,.828-.187,2.451,2.451,0,0,0,.758-.562,5.036,5.036,0,0,0,.773-1.152,10.288,10.288,0,0,0,.629-1.559,13.046,13.046,0,0,0,.426-1.785A11.042,11.042,0,0,0,158.965,33.031Z" transform="translate(126.265)" fill="#12263f"/>
      <line id="Línea_575" data-name="Línea 575" x2="210.796" transform="translate(133.765 21.5)" fill="none" stroke="#12263f" stroke-width="1"/>
    </g>
  </g>
</svg>
