<svg xmlns="http://www.w3.org/2000/svg" width="267.297" height="81.816" viewBox="0 0 267.297 81.816">
  <g id="Grupo_1113453" data-name="Grupo 1113453" transform="translate(-288.051 -2599.184)">
    <rect id="Rect치ngulo_406002" data-name="Rect치ngulo 406002" width="256.297" height="74" transform="translate(299.051 2607)" fill="#bce0fc"/>
    <g id="Rect치ngulo_406003" data-name="Rect치ngulo 406003" transform="translate(288.051 2599.184)" fill="#fbfbf9" stroke="#000" stroke-width="0.5">
      <rect width="263" height="76" stroke="none"/>
      <rect x="0.25" y="0.25" width="262.5" height="75.5" fill="none"/>
    </g>
    <path id="Trazado_908276" data-name="Trazado 908276" d="M14.609,9.727H9.938L9.328,13.8H14.8l-.18,1.2H7.609l1.7-11.375h6.922l-.18,1.211H10.664l-.547,3.68H14.8ZM16.656,15,17.75,7.688H16.422l.172-1.141h1.328l.141-.914A3.361,3.361,0,0,1,19.219,3.4a3.757,3.757,0,0,1,2.43-.754,4.252,4.252,0,0,1,1.012.125,11.614,11.614,0,0,1,1.145.352l-.453,1.25a6.225,6.225,0,0,0-.84-.281,3.715,3.715,0,0,0-.941-.117,2.042,2.042,0,0,0-1.367.414,1.918,1.918,0,0,0-.6,1.242l-.141.914h1.68l-.172,1.141h-1.68L18.2,15Zm6.117,0H21.227l1.266-8.453h1.547Zm5.875-1.039a2.076,2.076,0,0,0,1.293-.477,1.8,1.8,0,0,0,.723-1.156h1.391l.016.047a2.885,2.885,0,0,1-1.223,1.965,3.838,3.838,0,0,1-2.379.824,2.837,2.837,0,0,1-2.527-1.223,4.112,4.112,0,0,1-.559-3l.047-.328a5.417,5.417,0,0,1,1.422-3.035,3.89,3.89,0,0,1,2.93-1.184,2.769,2.769,0,0,1,2.164.883,2.407,2.407,0,0,1,.57,2.148l-.016.039H31.094a1.676,1.676,0,0,0-.3-1.332A1.429,1.429,0,0,0,29.6,7.6a2.118,2.118,0,0,0-1.766.895,4.517,4.517,0,0,0-.859,2.113l-.047.328a3.852,3.852,0,0,0,.18,2.168A1.514,1.514,0,0,0,28.648,13.961ZM38.7,15q-.016-.438-.016-.707a4.987,4.987,0,0,1,.031-.551,4.564,4.564,0,0,1-1.277,1.012,3.193,3.193,0,0,1-1.543.41,2.41,2.41,0,0,1-1.887-.684,2.155,2.155,0,0,1-.434-1.855,2.584,2.584,0,0,1,1.25-1.914,5.194,5.194,0,0,1,2.773-.664h1.672l.125-.836a1.369,1.369,0,0,0-.27-1.191A1.593,1.593,0,0,0,37.906,7.6a2.134,2.134,0,0,0-1.25.375,1.3,1.3,0,0,0-.609.9l-1.469.016-.008-.047a2.422,2.422,0,0,1,1.117-1.707,4.1,4.1,0,0,1,2.484-.746,3.053,3.053,0,0,1,2.172.738,2.258,2.258,0,0,1,.594,2.1l-.609,4.07a6.686,6.686,0,0,0-.09.887,4.511,4.511,0,0,0,.051.816ZM36.32,13.875a3.032,3.032,0,0,0,1.547-.437,2.613,2.613,0,0,0,1.039-.984l.211-1.367H37.391a2.54,2.54,0,0,0-1.547.477,1.651,1.651,0,0,0-.734,1.094,1.011,1.011,0,0,0,.207.9A1.341,1.341,0,0,0,36.32,13.875Zm9.5.086a2.076,2.076,0,0,0,1.293-.477,1.8,1.8,0,0,0,.723-1.156h1.391l.016.047A2.885,2.885,0,0,1,48.02,14.34a3.838,3.838,0,0,1-2.379.824,2.837,2.837,0,0,1-2.527-1.223,4.112,4.112,0,0,1-.559-3l.047-.328a5.417,5.417,0,0,1,1.422-3.035,3.89,3.89,0,0,1,2.93-1.184,2.769,2.769,0,0,1,2.164.883,2.407,2.407,0,0,1,.57,2.148l-.016.039H48.266a1.676,1.676,0,0,0-.3-1.332,1.429,1.429,0,0,0-1.2-.527,2.118,2.118,0,0,0-1.766.895,4.517,4.517,0,0,0-.859,2.113l-.047.328a3.852,3.852,0,0,0,.18,2.168A1.514,1.514,0,0,0,45.82,13.961ZM52.344,15H50.8L52.07,6.547h1.539ZM53.938,4.383H52.4l.234-1.57h1.539ZM59.906,15q-.016-.438-.016-.707a4.987,4.987,0,0,1,.031-.551,4.564,4.564,0,0,1-1.277,1.012,3.193,3.193,0,0,1-1.543.41,2.41,2.41,0,0,1-1.887-.684,2.155,2.155,0,0,1-.434-1.855,2.584,2.584,0,0,1,1.25-1.914,5.194,5.194,0,0,1,2.773-.664h1.672l.125-.836a1.369,1.369,0,0,0-.27-1.191A1.593,1.593,0,0,0,59.109,7.6a2.134,2.134,0,0,0-1.25.375,1.3,1.3,0,0,0-.609.9l-1.469.016-.008-.047a2.422,2.422,0,0,1,1.117-1.707,4.1,4.1,0,0,1,2.484-.746,3.053,3.053,0,0,1,2.172.738,2.258,2.258,0,0,1,.594,2.1l-.609,4.07a6.686,6.686,0,0,0-.09.887,4.511,4.511,0,0,0,.051.816Zm-2.383-1.125a3.032,3.032,0,0,0,1.547-.437,2.613,2.613,0,0,0,1.039-.984l.211-1.367H58.594a2.54,2.54,0,0,0-1.547.477,1.651,1.651,0,0,0-.734,1.094,1.011,1.011,0,0,0,.207.9A1.341,1.341,0,0,0,57.523,13.875Zm17.508-5.3H68.516l.2-1.281h6.516Zm-.484,3.25H68.031l.2-1.281h6.516Z" transform="translate(304.051 2627.184)" fill="#12263f"/>
    <path id="Trazado_908277" data-name="Trazado 908277" d="M16.1,12.07H11.809L10.355,15H8.785l5.8-11.375h1.32L18.223,15h-1.57Zm-3.648-1.289h3.4L14.926,5.9l-.047-.008Zm10.75,3.18a2.076,2.076,0,0,0,1.293-.477,1.8,1.8,0,0,0,.723-1.156h1.391l.016.047A2.885,2.885,0,0,1,25.4,14.34a3.838,3.838,0,0,1-2.379.824,2.837,2.837,0,0,1-2.527-1.223,4.112,4.112,0,0,1-.559-3l.047-.328A5.417,5.417,0,0,1,21.4,7.574a3.89,3.89,0,0,1,2.93-1.184,2.769,2.769,0,0,1,2.164.883,2.407,2.407,0,0,1,.57,2.148l-.016.039H25.645a1.676,1.676,0,0,0-.3-1.332,1.429,1.429,0,0,0-1.2-.527,2.118,2.118,0,0,0-1.766.895,4.517,4.517,0,0,0-.859,2.113l-.047.328a3.852,3.852,0,0,0,.18,2.168A1.514,1.514,0,0,0,23.2,13.961Zm8.57-9.453-.3,2.039h1.6l-.172,1.141h-1.6l-.766,5.133a1.052,1.052,0,0,0,.113.848.793.793,0,0,0,.621.23,1.571,1.571,0,0,0,.3-.035,2.1,2.1,0,0,0,.285-.074l.055,1.055a1.634,1.634,0,0,1-.543.23,2.7,2.7,0,0,1-.676.09,1.735,1.735,0,0,1-1.395-.57,2.153,2.153,0,0,1-.3-1.773l.766-5.133H28.41l.172-1.141h1.344l.3-2.039ZM35.113,15H33.574L34.84,6.547h1.539ZM36.707,4.383H35.168l.234-1.57h1.539Zm3.969,8.125.047.594.047.008.234-.6L43.84,6.547h1.57L41.035,15H39.871L37.988,6.547h1.578ZM45.7,10.7A5.387,5.387,0,0,1,47.172,7.57a4,4,0,0,1,2.941-1.18,2.942,2.942,0,0,1,2.559,1.223,4.1,4.1,0,0,1,.6,3.082l-.031.172A5.4,5.4,0,0,1,51.762,14a4.018,4.018,0,0,1-2.945,1.168,2.945,2.945,0,0,1-2.559-1.219,4.063,4.063,0,0,1-.59-3.078Zm1.508.172a3.681,3.681,0,0,0,.227,2.242A1.6,1.6,0,0,0,49,13.961a2.211,2.211,0,0,0,1.777-.887,4.5,4.5,0,0,0,.926-2.207l.031-.172a3.683,3.683,0,0,0-.238-2.234A1.6,1.6,0,0,0,49.934,7.6a2.212,2.212,0,0,0-1.785.895,4.425,4.425,0,0,0-.91,2.2ZM62,13.961a2.076,2.076,0,0,0,1.293-.477,1.8,1.8,0,0,0,.723-1.156H65.4l.016.047A2.885,2.885,0,0,1,64.2,14.34a3.838,3.838,0,0,1-2.379.824,2.837,2.837,0,0,1-2.527-1.223,4.112,4.112,0,0,1-.559-3l.047-.328A5.417,5.417,0,0,1,60.2,7.574a3.89,3.89,0,0,1,2.93-1.184,2.769,2.769,0,0,1,2.164.883,2.407,2.407,0,0,1,.57,2.148l-.016.039H64.441a1.676,1.676,0,0,0-.3-1.332,1.429,1.429,0,0,0-1.2-.527,2.118,2.118,0,0,0-1.766.895,4.517,4.517,0,0,0-.859,2.113l-.047.328a3.852,3.852,0,0,0,.18,2.168A1.514,1.514,0,0,0,62,13.961ZM67.145,10.7A5.387,5.387,0,0,1,68.617,7.57a4,4,0,0,1,2.941-1.18,2.942,2.942,0,0,1,2.559,1.223,4.1,4.1,0,0,1,.6,3.082l-.031.172A5.4,5.4,0,0,1,73.207,14a4.018,4.018,0,0,1-2.945,1.168A2.945,2.945,0,0,1,67.7,13.945a4.063,4.063,0,0,1-.59-3.078Zm1.508.172a3.681,3.681,0,0,0,.227,2.242,1.6,1.6,0,0,0,1.563.852,2.211,2.211,0,0,0,1.777-.887,4.5,4.5,0,0,0,.926-2.207l.031-.172a3.683,3.683,0,0,0-.238-2.234A1.6,1.6,0,0,0,71.379,7.6a2.212,2.212,0,0,0-1.785.895,4.425,4.425,0,0,0-.91,2.2ZM81.012,7.906l-.781-.047a1.9,1.9,0,0,0-1.062.3,2.49,2.49,0,0,0-.781.848L77.488,15H75.949l1.266-8.453H78.59l-.031,1.2a3.552,3.552,0,0,1,1.031-1,2.384,2.384,0,0,1,1.273-.355,1.923,1.923,0,0,1,.324.027,1.787,1.787,0,0,1,.254.059Zm5.6,0-.781-.047a1.9,1.9,0,0,0-1.062.3,2.49,2.49,0,0,0-.781.848L83.09,15H81.551l1.266-8.453h1.375l-.031,1.2a3.552,3.552,0,0,1,1.031-1,2.384,2.384,0,0,1,1.273-.355,1.923,1.923,0,0,1,.324.027,1.787,1.787,0,0,1,.254.059ZM88.816,15H87.277l1.266-8.453h1.539ZM90.41,4.383H88.871l.234-1.57h1.539Zm4.25,10.781a3.069,3.069,0,0,1-2.629-1.18,3.934,3.934,0,0,1-.6-3.047l.055-.344a5.061,5.061,0,0,1,1.488-3.047A3.89,3.89,0,0,1,95.73,6.391a2.624,2.624,0,0,1,2.352,1.07,3.846,3.846,0,0,1,.461,2.789l-.117.813H92.957a3.355,3.355,0,0,0,.266,2.121,1.7,1.7,0,0,0,1.617.777,4.177,4.177,0,0,0,1.395-.227,3.661,3.661,0,0,0,1.113-.609l.453,1a4.447,4.447,0,0,1-1.3.738A5.139,5.139,0,0,1,94.66,15.164ZM95.551,7.6a1.948,1.948,0,0,0-1.4.625,3.561,3.561,0,0,0-.9,1.578l.016.047h3.8l.016-.125a2.256,2.256,0,0,0-.219-1.535A1.41,1.41,0,0,0,95.551,7.6Zm6.578.156a3.653,3.653,0,0,1,1.207-1.012,3.241,3.241,0,0,1,1.5-.355,2.384,2.384,0,0,1,1.973.809,3.111,3.111,0,0,1,.4,2.465l-.8,5.336h-1.539l.8-5.3a2.11,2.11,0,0,0-.2-1.605,1.585,1.585,0,0,0-1.289-.449,2.518,2.518,0,0,0-1.234.3,2.729,2.729,0,0,0-.922.832L101.1,15H99.559l1.266-8.453H102.2Zm10.234-3.25-.3,2.039h1.6l-.172,1.141h-1.6l-.766,5.133a1.052,1.052,0,0,0,.113.848.793.793,0,0,0,.621.23,1.571,1.571,0,0,0,.3-.035,2.1,2.1,0,0,0,.285-.074l.055,1.055a1.634,1.634,0,0,1-.543.23,2.7,2.7,0,0,1-.676.09,1.735,1.735,0,0,1-1.395-.57,2.153,2.153,0,0,1-.3-1.773l.766-5.133H109l.172-1.141h1.344l.3-2.039Zm5.156,10.656a3.069,3.069,0,0,1-2.629-1.18,3.934,3.934,0,0,1-.6-3.047l.055-.344a5.061,5.061,0,0,1,1.488-3.047,3.89,3.89,0,0,1,2.754-1.156,2.624,2.624,0,0,1,2.352,1.07,3.846,3.846,0,0,1,.461,2.789l-.117.813h-5.469a3.355,3.355,0,0,0,.266,2.121,1.7,1.7,0,0,0,1.617.777,4.177,4.177,0,0,0,1.395-.227,3.661,3.661,0,0,0,1.113-.609l.453,1a4.447,4.447,0,0,1-1.3.738A5.139,5.139,0,0,1,117.52,15.164ZM118.41,7.6a1.948,1.948,0,0,0-1.4.625,3.561,3.561,0,0,0-.9,1.578l.016.047h3.8l.016-.125a2.256,2.256,0,0,0-.219-1.535A1.41,1.41,0,0,0,118.41,7.6ZM10.313,34.438,9.633,39H8.094L9.8,27.625h4.352a3.5,3.5,0,0,1,2.652.945,2.794,2.794,0,0,1,.684,2.461,3.815,3.815,0,0,1-1.379,2.508,4.633,4.633,0,0,1-2.973.9Zm.18-1.2h2.82a2.518,2.518,0,0,0,2.625-2.187,2.042,2.042,0,0,0-.332-1.594,1.94,1.94,0,0,0-1.637-.617H11.156ZM23.164,39q-.016-.438-.016-.707a4.986,4.986,0,0,1,.031-.551A4.564,4.564,0,0,1,21.9,38.754a3.193,3.193,0,0,1-1.543.41,2.41,2.41,0,0,1-1.887-.684,2.155,2.155,0,0,1-.434-1.855,2.584,2.584,0,0,1,1.25-1.914,5.194,5.194,0,0,1,2.773-.664h1.672l.125-.836a1.369,1.369,0,0,0-.27-1.191,1.593,1.593,0,0,0-1.223-.418,2.134,2.134,0,0,0-1.25.375,1.3,1.3,0,0,0-.609.9l-1.469.016-.008-.047a2.422,2.422,0,0,1,1.117-1.707,4.1,4.1,0,0,1,2.484-.746,3.053,3.053,0,0,1,2.172.738,2.258,2.258,0,0,1,.594,2.1l-.609,4.07a6.685,6.685,0,0,0-.09.887A4.511,4.511,0,0,0,24.75,39Zm-2.383-1.125a3.032,3.032,0,0,0,1.547-.437,2.613,2.613,0,0,0,1.039-.984l.211-1.367H21.852a2.54,2.54,0,0,0-1.547.477,1.651,1.651,0,0,0-.734,1.094,1.011,1.011,0,0,0,.207.9A1.341,1.341,0,0,0,20.781,37.875Zm11.258-1.148a.908.908,0,0,0-.266-.836,3.27,3.27,0,0,0-1.391-.555,5.344,5.344,0,0,1-2.176-.9,1.562,1.562,0,0,1-.582-1.547A2.6,2.6,0,0,1,28.746,31.1a3.935,3.935,0,0,1,2.387-.711,3.006,3.006,0,0,1,2.188.789,1.943,1.943,0,0,1,.633,1.813l-.016.047H32.461a1.162,1.162,0,0,0-.336-1,1.515,1.515,0,0,0-1.156-.437,1.974,1.974,0,0,0-1.254.371,1.334,1.334,0,0,0-.543.871.821.821,0,0,0,.234.781,3.447,3.447,0,0,0,1.375.492,5.217,5.217,0,0,1,2.227.93,1.632,1.632,0,0,1,.586,1.57,2.62,2.62,0,0,1-1.164,1.855,4.265,4.265,0,0,1-2.484.691,3.283,3.283,0,0,1-2.395-.828A2.033,2.033,0,0,1,26.9,36.43l.016-.047h1.477a1.245,1.245,0,0,0,.445,1.2,2.1,2.1,0,0,0,1.281.379,2.3,2.3,0,0,0,1.313-.352A1.3,1.3,0,0,0,32.039,36.727ZM36.8,39H35.258l1.266-8.453h1.539Zm1.594-10.617H36.852l.234-1.57h1.539Zm3.969,8.125.047.594.047.008.234-.6,2.836-5.961h1.57L42.719,39H41.555l-1.883-8.453H41.25ZM47.383,34.7a5.387,5.387,0,0,1,1.473-3.125,4,4,0,0,1,2.941-1.18,2.942,2.942,0,0,1,2.559,1.223,4.1,4.1,0,0,1,.6,3.082l-.031.172A5.4,5.4,0,0,1,53.445,38,4.018,4.018,0,0,1,50.5,39.164a2.945,2.945,0,0,1-2.559-1.219,4.063,4.063,0,0,1-.59-3.078Zm1.508.172a3.681,3.681,0,0,0,.227,2.242,1.6,1.6,0,0,0,1.563.852,2.211,2.211,0,0,0,1.777-.887,4.5,4.5,0,0,0,.926-2.207l.031-.172a3.683,3.683,0,0,0-.238-2.234,1.6,1.6,0,0,0-1.559-.859,2.212,2.212,0,0,0-1.785.895,4.425,4.425,0,0,0-.91,2.2ZM63.68,37.961a2.076,2.076,0,0,0,1.293-.477,1.8,1.8,0,0,0,.723-1.156h1.391l.016.047a2.885,2.885,0,0,1-1.223,1.965,3.838,3.838,0,0,1-2.379.824,2.837,2.837,0,0,1-2.527-1.223,4.112,4.112,0,0,1-.559-3l.047-.328a5.417,5.417,0,0,1,1.422-3.035,3.89,3.89,0,0,1,2.93-1.184,2.769,2.769,0,0,1,2.164.883,2.407,2.407,0,0,1,.57,2.148l-.016.039H66.125a1.676,1.676,0,0,0-.3-1.332,1.429,1.429,0,0,0-1.2-.527,2.118,2.118,0,0,0-1.766.895,4.517,4.517,0,0,0-.859,2.113l-.047.328a3.852,3.852,0,0,0,.18,2.168A1.514,1.514,0,0,0,63.68,37.961ZM68.828,34.7A5.387,5.387,0,0,1,70.3,31.57a4,4,0,0,1,2.941-1.18A2.942,2.942,0,0,1,75.8,31.613a4.1,4.1,0,0,1,.6,3.082l-.031.172A5.4,5.4,0,0,1,74.891,38a4.018,4.018,0,0,1-2.945,1.168,2.945,2.945,0,0,1-2.559-1.219,4.063,4.063,0,0,1-.59-3.078Zm1.508.172a3.681,3.681,0,0,0,.227,2.242,1.6,1.6,0,0,0,1.563.852,2.211,2.211,0,0,0,1.777-.887,4.5,4.5,0,0,0,.926-2.207l.031-.172a3.683,3.683,0,0,0-.238-2.234,1.6,1.6,0,0,0-1.559-.859,2.212,2.212,0,0,0-1.785.895,4.425,4.425,0,0,0-.91,2.2ZM82.7,31.906l-.781-.047a1.9,1.9,0,0,0-1.062.3,2.49,2.49,0,0,0-.781.848L79.172,39H77.633L78.9,30.547h1.375l-.031,1.2a3.552,3.552,0,0,1,1.031-1,2.384,2.384,0,0,1,1.273-.355,1.923,1.923,0,0,1,.324.027,1.787,1.787,0,0,1,.254.059Zm5.6,0-.781-.047a1.9,1.9,0,0,0-1.062.3,2.49,2.49,0,0,0-.781.848L84.773,39H83.234L84.5,30.547h1.375l-.031,1.2a3.552,3.552,0,0,1,1.031-1,2.384,2.384,0,0,1,1.273-.355,1.923,1.923,0,0,1,.324.027,1.787,1.787,0,0,1,.254.059ZM90.5,39H88.961l1.266-8.453h1.539Zm1.594-10.617H90.555l.234-1.57h1.539Zm4.25,10.781a3.069,3.069,0,0,1-2.629-1.18,3.934,3.934,0,0,1-.6-3.047l.055-.344a5.061,5.061,0,0,1,1.488-3.047,3.89,3.89,0,0,1,2.754-1.156,2.624,2.624,0,0,1,2.352,1.07,3.846,3.846,0,0,1,.461,2.789l-.117.813H94.641a3.355,3.355,0,0,0,.266,2.121,1.7,1.7,0,0,0,1.617.777,4.177,4.177,0,0,0,1.395-.227,3.661,3.661,0,0,0,1.113-.609l.453,1a4.447,4.447,0,0,1-1.3.738A5.139,5.139,0,0,1,96.344,39.164Zm.891-7.562a1.948,1.948,0,0,0-1.4.625,3.561,3.561,0,0,0-.9,1.578l.016.047h3.8l.016-.125a2.256,2.256,0,0,0-.219-1.535A1.41,1.41,0,0,0,97.234,31.6Zm6.578.156a3.653,3.653,0,0,1,1.207-1.012,3.241,3.241,0,0,1,1.5-.355,2.384,2.384,0,0,1,1.973.809,3.111,3.111,0,0,1,.4,2.465L108.1,39h-1.539l.8-5.3a2.11,2.11,0,0,0-.2-1.605,1.585,1.585,0,0,0-1.289-.449,2.518,2.518,0,0,0-1.234.3,2.729,2.729,0,0,0-.922.832L102.781,39h-1.539l1.266-8.453h1.375Zm10.234-3.25-.3,2.039h1.6l-.172,1.141h-1.6L112.8,36.82a1.052,1.052,0,0,0,.113.848.793.793,0,0,0,.621.23,1.571,1.571,0,0,0,.3-.035,2.1,2.1,0,0,0,.285-.074l.055,1.055a1.634,1.634,0,0,1-.543.23,2.7,2.7,0,0,1-.676.09,1.735,1.735,0,0,1-1.395-.57,2.153,2.153,0,0,1-.3-1.773l.766-5.133h-1.344l.172-1.141H112.2l.3-2.039ZM119.2,39.164a3.069,3.069,0,0,1-2.629-1.18,3.934,3.934,0,0,1-.6-3.047l.055-.344a5.061,5.061,0,0,1,1.488-3.047,3.89,3.89,0,0,1,2.754-1.156,2.624,2.624,0,0,1,2.352,1.07,3.846,3.846,0,0,1,.461,2.789l-.117.813H117.5a3.355,3.355,0,0,0,.266,2.121,1.7,1.7,0,0,0,1.617.777,4.177,4.177,0,0,0,1.395-.227,3.661,3.661,0,0,0,1.113-.609l.453,1a4.447,4.447,0,0,1-1.3.738A5.139,5.139,0,0,1,119.2,39.164Zm.891-7.562a1.948,1.948,0,0,0-1.4.625,3.561,3.561,0,0,0-.9,1.578l.016.047h3.8l.016-.125a2.256,2.256,0,0,0-.219-1.535A1.41,1.41,0,0,0,120.094,31.6Z" transform="translate(391.051 2615.184)" fill="#12263f"/>
    <path id="Trazado_908278" data-name="Trazado 908278" d="M0,0H141" transform="translate(385.287 2636.684)" fill="none" stroke="#12263f" stroke-width="1"/>
  </g>
</svg>
