<svg xmlns="http://www.w3.org/2000/svg" xmlns:xlink="http://www.w3.org/1999/xlink" width="81.414" height="81.414" viewBox="0 0 81.414 81.414">
  <defs>
    <filter id="Trazado_873828" x="0" y="0" width="81.414" height="81.414" filterUnits="userSpaceOnUse">
      <feOffset dy="3" input="SourceAlpha"/>
      <feGaussianBlur stdDeviation="3" result="blur"/>
      <feFlood flood-opacity="0.161"/>
      <feComposite operator="in" in2="blur"/>
    </filter>
    <filter id="Trazado_873828-2" x="0" y="0" width="81.414" height="81.414" filterUnits="userSpaceOnUse">
      <feOffset dy="3" input="SourceAlpha"/>
      <feGaussianBlur stdDeviation="3" result="blur-2"/>
      <feFlood flood-opacity="0.161" result="color"/>
      <feComposite operator="out" in="SourceGraphic" in2="blur-2"/>
      <feComposite operator="in" in="color"/>
      <feComposite operator="in" in2="SourceGraphic"/>
    </filter>
  </defs>
  <g id="Grupo_1114519" data-name="Grupo 1114519" transform="translate(-1132 -7293)">
    <g data-type="innerShadowGroup">
      <g transform="matrix(1, 0, 0, 1, 1132, 7293)" filter="url(#Trazado_873828)">
        <g id="Trazado_873828-3" data-name="Trazado 873828" transform="translate(9 6)" fill="#bce0fc">
          <path d="M 31.70703125 61.4140625 C 27.69572067260742 61.4140625 23.80547142028809 60.62889099121094 20.14433097839355 59.08036041259766 C 16.60707092285156 57.58423233032227 13.42987155914307 55.44195938110352 10.7009916305542 52.71308135986328 C 7.972101211547852 49.98419189453125 5.829841136932373 46.80699157714844 4.333701133728027 43.26974105834961 C 2.785171270370483 39.60859298706055 2.000001192092896 35.71834182739258 2.000001192092896 31.70703125 C 2.000001192092896 27.69573211669922 2.785171270370483 23.80547142028809 4.333701133728027 20.14433097839355 C 5.829841136932373 16.60707092285156 7.972101211547852 13.42987155914307 10.7009916305542 10.7009916305542 C 13.42987155914307 7.972101211547852 16.60707092285156 5.829841136932373 20.14433097839355 4.333701133728027 C 23.80547142028809 2.785171270370483 27.69573211669922 2.000001192092896 31.70703125 2.000001192092896 C 35.71834182739258 2.000001192092896 39.60859298706055 2.785171270370483 43.26974105834961 4.333701133728027 C 46.80699157714844 5.829841136932373 49.98419189453125 7.972101211547852 52.71308135986328 10.7009916305542 C 55.44195938110352 13.42987155914307 57.58423233032227 16.60707092285156 59.08036041259766 20.14433097839355 C 60.62889099121094 23.80547142028809 61.4140625 27.69572067260742 61.4140625 31.70703125 C 61.4140625 35.71834182739258 60.62889099121094 39.60859298706055 59.08036041259766 43.26974105834961 C 57.58423233032227 46.80699157714844 55.44195938110352 49.98419189453125 52.71308135986328 52.71308135986328 C 49.98419189453125 55.44195938110352 46.80699157714844 57.58423233032227 43.26974105834961 59.08036041259766 C 39.60859298706055 60.62889099121094 35.71834182739258 61.4140625 31.70703125 61.4140625 Z" stroke="none"/>
          <path d="M 31.70703125 3.999996185302734 C 27.96484375 3.999996185302734 24.33671188354492 4.732006072998047 20.92343139648438 6.175712585449219 C 17.62457275390625 7.571006774902344 14.66105651855469 9.569347381591797 12.11519622802734 12.11519622802734 C 9.569347381591797 14.66105651855469 7.571006774902344 17.62457275390625 6.175712585449219 20.92343139648438 C 4.732006072998047 24.33671188354492 3.999996185302734 27.96484375 3.999996185302734 31.70703125 C 3.999996185302734 35.44921875 4.732006072998047 39.07734680175781 6.175712585449219 42.49063110351562 C 7.571006774902344 45.78948974609375 9.5693359375 48.75300598144531 12.11519622802734 51.29886627197266 C 14.66105651855469 53.8447265625 17.62457275390625 55.84305572509766 20.92343139648438 57.23834991455078 C 24.33671188354492 58.68205642700195 27.96484375 59.41406631469727 31.70703125 59.41406631469727 C 35.44921875 59.41406631469727 39.07734680175781 58.68205642700195 42.49063110351562 57.23834991455078 C 45.78948974609375 55.84305572509766 48.75300598144531 53.8447265625 51.29886627197266 51.29886627197266 C 53.8447265625 48.75300598144531 55.84305572509766 45.78948974609375 57.23834991455078 42.49063110351562 C 58.68205642700195 39.07734680175781 59.41406631469727 35.44921875 59.41406631469727 31.70703125 C 59.41406631469727 27.96484375 58.68205642700195 24.33671188354492 57.23834991455078 20.92343139648438 C 55.84305572509766 17.62457275390625 53.8447265625 14.66105651855469 51.29886627197266 12.11519622802734 C 48.75300598144531 9.5693359375 45.78948974609375 7.571006774902344 42.49063110351562 6.175712585449219 C 39.07734680175781 4.732006072998047 35.44921875 3.999996185302734 31.70703125 3.999996185302734 M 31.70703125 -3.814697265625e-06 C 49.21834945678711 -3.814697265625e-06 63.41406631469727 14.19572448730469 63.41406631469727 31.70703125 C 63.41406631469727 49.21834945678711 49.21834945678711 63.41406631469727 31.70703125 63.41406631469727 C 14.19572448730469 63.41406631469727 -3.814697265625e-06 49.21834945678711 -3.814697265625e-06 31.70703125 C -3.814697265625e-06 14.19572448730469 14.19572448730469 -3.814697265625e-06 31.70703125 -3.814697265625e-06 Z" stroke="none" fill="#fff"/>
        </g>
      </g>
      <g id="Trazado_873828-4" data-name="Trazado 873828" transform="translate(1141 7299)" fill="#bce0fc">
        <path d="M 31.70703125 61.4140625 C 27.69572067260742 61.4140625 23.80547142028809 60.62889099121094 20.14433097839355 59.08036041259766 C 16.60707092285156 57.58423233032227 13.42987155914307 55.44195938110352 10.7009916305542 52.71308135986328 C 7.972101211547852 49.98419189453125 5.829841136932373 46.80699157714844 4.333701133728027 43.26974105834961 C 2.785171270370483 39.60859298706055 2.000001192092896 35.71834182739258 2.000001192092896 31.70703125 C 2.000001192092896 27.69573211669922 2.785171270370483 23.80547142028809 4.333701133728027 20.14433097839355 C 5.829841136932373 16.60707092285156 7.972101211547852 13.42987155914307 10.7009916305542 10.7009916305542 C 13.42987155914307 7.972101211547852 16.60707092285156 5.829841136932373 20.14433097839355 4.333701133728027 C 23.80547142028809 2.785171270370483 27.69573211669922 2.000001192092896 31.70703125 2.000001192092896 C 35.71834182739258 2.000001192092896 39.60859298706055 2.785171270370483 43.26974105834961 4.333701133728027 C 46.80699157714844 5.829841136932373 49.98419189453125 7.972101211547852 52.71308135986328 10.7009916305542 C 55.44195938110352 13.42987155914307 57.58423233032227 16.60707092285156 59.08036041259766 20.14433097839355 C 60.62889099121094 23.80547142028809 61.4140625 27.69572067260742 61.4140625 31.70703125 C 61.4140625 35.71834182739258 60.62889099121094 39.60859298706055 59.08036041259766 43.26974105834961 C 57.58423233032227 46.80699157714844 55.44195938110352 49.98419189453125 52.71308135986328 52.71308135986328 C 49.98419189453125 55.44195938110352 46.80699157714844 57.58423233032227 43.26974105834961 59.08036041259766 C 39.60859298706055 60.62889099121094 35.71834182739258 61.4140625 31.70703125 61.4140625 Z" stroke="none"/>
        <path d="M 31.70703125 3.999996185302734 C 27.96484375 3.999996185302734 24.33671188354492 4.732006072998047 20.92343139648438 6.175712585449219 C 17.62457275390625 7.571006774902344 14.66105651855469 9.569347381591797 12.11519622802734 12.11519622802734 C 9.569347381591797 14.66105651855469 7.571006774902344 17.62457275390625 6.175712585449219 20.92343139648438 C 4.732006072998047 24.33671188354492 3.999996185302734 27.96484375 3.999996185302734 31.70703125 C 3.999996185302734 35.44921875 4.732006072998047 39.07734680175781 6.175712585449219 42.49063110351562 C 7.571006774902344 45.78948974609375 9.5693359375 48.75300598144531 12.11519622802734 51.29886627197266 C 14.66105651855469 53.8447265625 17.62457275390625 55.84305572509766 20.92343139648438 57.23834991455078 C 24.33671188354492 58.68205642700195 27.96484375 59.41406631469727 31.70703125 59.41406631469727 C 35.44921875 59.41406631469727 39.07734680175781 58.68205642700195 42.49063110351562 57.23834991455078 C 45.78948974609375 55.84305572509766 48.75300598144531 53.8447265625 51.29886627197266 51.29886627197266 C 53.8447265625 48.75300598144531 55.84305572509766 45.78948974609375 57.23834991455078 42.49063110351562 C 58.68205642700195 39.07734680175781 59.41406631469727 35.44921875 59.41406631469727 31.70703125 C 59.41406631469727 27.96484375 58.68205642700195 24.33671188354492 57.23834991455078 20.92343139648438 C 55.84305572509766 17.62457275390625 53.8447265625 14.66105651855469 51.29886627197266 12.11519622802734 C 48.75300598144531 9.5693359375 45.78948974609375 7.571006774902344 42.49063110351562 6.175712585449219 C 39.07734680175781 4.732006072998047 35.44921875 3.999996185302734 31.70703125 3.999996185302734 M 31.70703125 -3.814697265625e-06 C 49.21834945678711 -3.814697265625e-06 63.41406631469727 14.19572448730469 63.41406631469727 31.70703125 C 63.41406631469727 49.21834945678711 49.21834945678711 63.41406631469727 31.70703125 63.41406631469727 C 14.19572448730469 63.41406631469727 -3.814697265625e-06 49.21834945678711 -3.814697265625e-06 31.70703125 C -3.814697265625e-06 14.19572448730469 14.19572448730469 -3.814697265625e-06 31.70703125 -3.814697265625e-06 Z" stroke="none"/>
      </g>
      <g transform="matrix(1, 0, 0, 1, 1132, 7293)" filter="url(#Trazado_873828-2)">
        <g id="Trazado_873828-5" data-name="Trazado 873828" transform="translate(9 6)" fill="#fff">
          <path d="M 31.70703125 61.4140625 C 27.69572067260742 61.4140625 23.80547142028809 60.62889099121094 20.14433097839355 59.08036041259766 C 16.60707092285156 57.58423233032227 13.42987155914307 55.44195938110352 10.7009916305542 52.71308135986328 C 7.972101211547852 49.98419189453125 5.829841136932373 46.80699157714844 4.333701133728027 43.26974105834961 C 2.785171270370483 39.60859298706055 2.000001192092896 35.71834182739258 2.000001192092896 31.70703125 C 2.000001192092896 27.69573211669922 2.785171270370483 23.80547142028809 4.333701133728027 20.14433097839355 C 5.829841136932373 16.60707092285156 7.972101211547852 13.42987155914307 10.7009916305542 10.7009916305542 C 13.42987155914307 7.972101211547852 16.60707092285156 5.829841136932373 20.14433097839355 4.333701133728027 C 23.80547142028809 2.785171270370483 27.69573211669922 2.000001192092896 31.70703125 2.000001192092896 C 35.71834182739258 2.000001192092896 39.60859298706055 2.785171270370483 43.26974105834961 4.333701133728027 C 46.80699157714844 5.829841136932373 49.98419189453125 7.972101211547852 52.71308135986328 10.7009916305542 C 55.44195938110352 13.42987155914307 57.58423233032227 16.60707092285156 59.08036041259766 20.14433097839355 C 60.62889099121094 23.80547142028809 61.4140625 27.69572067260742 61.4140625 31.70703125 C 61.4140625 35.71834182739258 60.62889099121094 39.60859298706055 59.08036041259766 43.26974105834961 C 57.58423233032227 46.80699157714844 55.44195938110352 49.98419189453125 52.71308135986328 52.71308135986328 C 49.98419189453125 55.44195938110352 46.80699157714844 57.58423233032227 43.26974105834961 59.08036041259766 C 39.60859298706055 60.62889099121094 35.71834182739258 61.4140625 31.70703125 61.4140625 Z" stroke="none"/>
          <path d="M 31.70703125 3.999996185302734 C 27.96484375 3.999996185302734 24.33671188354492 4.732006072998047 20.92343139648438 6.175712585449219 C 17.62457275390625 7.571006774902344 14.66105651855469 9.569347381591797 12.11519622802734 12.11519622802734 C 9.569347381591797 14.66105651855469 7.571006774902344 17.62457275390625 6.175712585449219 20.92343139648438 C 4.732006072998047 24.33671188354492 3.999996185302734 27.96484375 3.999996185302734 31.70703125 C 3.999996185302734 35.44921875 4.732006072998047 39.07734680175781 6.175712585449219 42.49063110351562 C 7.571006774902344 45.78948974609375 9.5693359375 48.75300598144531 12.11519622802734 51.29886627197266 C 14.66105651855469 53.8447265625 17.62457275390625 55.84305572509766 20.92343139648438 57.23834991455078 C 24.33671188354492 58.68205642700195 27.96484375 59.41406631469727 31.70703125 59.41406631469727 C 35.44921875 59.41406631469727 39.07734680175781 58.68205642700195 42.49063110351562 57.23834991455078 C 45.78948974609375 55.84305572509766 48.75300598144531 53.8447265625 51.29886627197266 51.29886627197266 C 53.8447265625 48.75300598144531 55.84305572509766 45.78948974609375 57.23834991455078 42.49063110351562 C 58.68205642700195 39.07734680175781 59.41406631469727 35.44921875 59.41406631469727 31.70703125 C 59.41406631469727 27.96484375 58.68205642700195 24.33671188354492 57.23834991455078 20.92343139648438 C 55.84305572509766 17.62457275390625 53.8447265625 14.66105651855469 51.29886627197266 12.11519622802734 C 48.75300598144531 9.5693359375 45.78948974609375 7.571006774902344 42.49063110351562 6.175712585449219 C 39.07734680175781 4.732006072998047 35.44921875 3.999996185302734 31.70703125 3.999996185302734 M 31.70703125 -3.814697265625e-06 C 49.21834945678711 -3.814697265625e-06 63.41406631469727 14.19572448730469 63.41406631469727 31.70703125 C 63.41406631469727 49.21834945678711 49.21834945678711 63.41406631469727 31.70703125 63.41406631469727 C 14.19572448730469 63.41406631469727 -3.814697265625e-06 49.21834945678711 -3.814697265625e-06 31.70703125 C -3.814697265625e-06 14.19572448730469 14.19572448730469 -3.814697265625e-06 31.70703125 -3.814697265625e-06 Z" stroke="none"/>
        </g>
      </g>
      <g id="Trazado_873828-6" data-name="Trazado 873828" transform="translate(1141 7299)" fill="none">
        <path d="M 31.70703125 61.4140625 C 27.69572067260742 61.4140625 23.80547142028809 60.62889099121094 20.14433097839355 59.08036041259766 C 16.60707092285156 57.58423233032227 13.42987155914307 55.44195938110352 10.7009916305542 52.71308135986328 C 7.972101211547852 49.98419189453125 5.829841136932373 46.80699157714844 4.333701133728027 43.26974105834961 C 2.785171270370483 39.60859298706055 2.000001192092896 35.71834182739258 2.000001192092896 31.70703125 C 2.000001192092896 27.69573211669922 2.785171270370483 23.80547142028809 4.333701133728027 20.14433097839355 C 5.829841136932373 16.60707092285156 7.972101211547852 13.42987155914307 10.7009916305542 10.7009916305542 C 13.42987155914307 7.972101211547852 16.60707092285156 5.829841136932373 20.14433097839355 4.333701133728027 C 23.80547142028809 2.785171270370483 27.69573211669922 2.000001192092896 31.70703125 2.000001192092896 C 35.71834182739258 2.000001192092896 39.60859298706055 2.785171270370483 43.26974105834961 4.333701133728027 C 46.80699157714844 5.829841136932373 49.98419189453125 7.972101211547852 52.71308135986328 10.7009916305542 C 55.44195938110352 13.42987155914307 57.58423233032227 16.60707092285156 59.08036041259766 20.14433097839355 C 60.62889099121094 23.80547142028809 61.4140625 27.69572067260742 61.4140625 31.70703125 C 61.4140625 35.71834182739258 60.62889099121094 39.60859298706055 59.08036041259766 43.26974105834961 C 57.58423233032227 46.80699157714844 55.44195938110352 49.98419189453125 52.71308135986328 52.71308135986328 C 49.98419189453125 55.44195938110352 46.80699157714844 57.58423233032227 43.26974105834961 59.08036041259766 C 39.60859298706055 60.62889099121094 35.71834182739258 61.4140625 31.70703125 61.4140625 Z" stroke="none"/>
        <path d="M 31.70703125 3.999996185302734 C 27.96484375 3.999996185302734 24.33671188354492 4.732006072998047 20.92343139648438 6.175712585449219 C 17.62457275390625 7.571006774902344 14.66105651855469 9.569347381591797 12.11519622802734 12.11519622802734 C 9.569347381591797 14.66105651855469 7.571006774902344 17.62457275390625 6.175712585449219 20.92343139648438 C 4.732006072998047 24.33671188354492 3.999996185302734 27.96484375 3.999996185302734 31.70703125 C 3.999996185302734 35.44921875 4.732006072998047 39.07734680175781 6.175712585449219 42.49063110351562 C 7.571006774902344 45.78948974609375 9.5693359375 48.75300598144531 12.11519622802734 51.29886627197266 C 14.66105651855469 53.8447265625 17.62457275390625 55.84305572509766 20.92343139648438 57.23834991455078 C 24.33671188354492 58.68205642700195 27.96484375 59.41406631469727 31.70703125 59.41406631469727 C 35.44921875 59.41406631469727 39.07734680175781 58.68205642700195 42.49063110351562 57.23834991455078 C 45.78948974609375 55.84305572509766 48.75300598144531 53.8447265625 51.29886627197266 51.29886627197266 C 53.8447265625 48.75300598144531 55.84305572509766 45.78948974609375 57.23834991455078 42.49063110351562 C 58.68205642700195 39.07734680175781 59.41406631469727 35.44921875 59.41406631469727 31.70703125 C 59.41406631469727 27.96484375 58.68205642700195 24.33671188354492 57.23834991455078 20.92343139648438 C 55.84305572509766 17.62457275390625 53.8447265625 14.66105651855469 51.29886627197266 12.11519622802734 C 48.75300598144531 9.5693359375 45.78948974609375 7.571006774902344 42.49063110351562 6.175712585449219 C 39.07734680175781 4.732006072998047 35.44921875 3.999996185302734 31.70703125 3.999996185302734 M 31.70703125 -3.814697265625e-06 C 49.21834945678711 -3.814697265625e-06 63.41406631469727 14.19572448730469 63.41406631469727 31.70703125 C 63.41406631469727 49.21834945678711 49.21834945678711 63.41406631469727 31.70703125 63.41406631469727 C 14.19572448730469 63.41406631469727 -3.814697265625e-06 49.21834945678711 -3.814697265625e-06 31.70703125 C -3.814697265625e-06 14.19572448730469 14.19572448730469 -3.814697265625e-06 31.70703125 -3.814697265625e-06 Z" stroke="none" fill="#fff"/>
      </g>
    </g>
    <g id="Grupo_1114518" data-name="Grupo 1114518" transform="translate(1153.641 7312.07)">
      <path id="Trazado_907627" data-name="Trazado 907627" d="M55.138,18A1.138,1.138,0,0,0,54,19.138v20.48l1.138,3.413,1.138-3.413V19.138A1.138,1.138,0,0,0,55.138,18Z" transform="translate(-22.418 -7.329)" fill="#4c4c4c"/>
      <path id="Trazado_907628" data-name="Trazado 907628" d="M56.707,39.648V19.168a1.138,1.138,0,0,0-.853-1.1,1.138,1.138,0,0,0-.853,1.1v20.48l.853,2.56Z" transform="translate(-22.849 -7.36)" fill="#5b5b5b"/>
      <path id="Trazado_907629" data-name="Trazado 907629" d="M56.276,56H54l1.137,3.413Z" transform="translate(-22.418 -23.712)" fill="#d6dfef"/>
      <path id="Trazado_907630" data-name="Trazado 907630" d="M56.276,20.276H54V19.138a1.138,1.138,0,0,1,2.276,0Z" transform="translate(-22.418 -7.329)" fill="#c0cee8"/>
      <path id="Trazado_907631" data-name="Trazado 907631" d="M54,36h2.276v1.138H54Z" transform="translate(-22.418 -15.089)" fill="#c0cee8"/>
      <path id="Trazado_907632" data-name="Trazado 907632" d="M60.276,30.964H59.138V24.138H58V23h1.707a.569.569,0,0,1,.569.569Z" transform="translate(-24.143 -9.485)" fill="#383838"/>
      <path id="Trazado_907633" data-name="Trazado 907633" d="M5.844,24.755H3V4.844A2.844,2.844,0,0,1,5.844,2H9.258V7.689H5.844Z" transform="translate(-0.431 -0.431)" fill="#93add1"/>
      <path id="Trazado_907634" data-name="Trazado 907634" d="M31.893,2a2.844,2.844,0,1,1,0,5.689H8A2.844,2.844,0,0,0,8,2Z" transform="translate(-2.587 -0.431)" fill="#a3b8db"/>
      <path id="Trazado_907635" data-name="Trazado 907635" d="M8,12H31.892V40.444H8Z" transform="translate(-2.587 -4.742)" fill="#c0cee8"/>
      <path id="Trazado_907636" data-name="Trazado 907636" d="M10,12H32.755V39.306H10Z" transform="translate(-3.449 -4.742)" fill="#d6dfef"/>
      <path id="Trazado_907637" data-name="Trazado 907637" d="M17,25.1v-5.12h2.276V17.707h2.276V21.12h2.276V16H26.1v1.707h2.276v1.707h2.276V25.1" transform="translate(-6.467 -6.467)" fill="#8bc000"/>
      <g id="Grupo_1114517" data-name="Grupo 1114517" transform="translate(7.12 20.342)">
        <path id="Trazado_907638" data-name="Trazado 907638" d="M12,36h4.551v4.551H12Z" transform="translate(-11.431 -35.431)" fill="#fff"/>
        <path id="Trazado_907639" data-name="Trazado 907639" d="M29,35H39.24v1.138H29Z" transform="translate(-18.76 -35)" fill="#fff"/>
        <path id="Trazado_907640" data-name="Trazado 907640" d="M23,39H36.653v1.138H23Z" transform="translate(-16.173 -36.724)" fill="#fff"/>
        <path id="Trazado_907641" data-name="Trazado 907641" d="M23,43H36.653v1.138H23Z" transform="translate(-16.173 -38.449)" fill="#fff"/>
        <path id="Trazado_907642" data-name="Trazado 907642" d="M26,52H37.378v3.413H26Z" transform="translate(-17.467 -42.329)" fill="#fff"/>
        <path id="Trazado_907643" data-name="Trazado 907643" d="M23,47H36.653v1.138H23Z" transform="translate(-16.173 -40.173)" fill="#fff"/>
        <path id="Trazado_907644" data-name="Trazado 907644" d="M11,57h6.827v1.138H11Z" transform="translate(-11 -44.485)" fill="#fff"/>
        <path id="Trazado_907645" data-name="Trazado 907645" d="M11,53h4.551v1.138H11Z" transform="translate(-11 -42.76)" fill="#fff"/>
      </g>
      <path id="Trazado_907646" data-name="Trazado 907646" d="M21,19h2.276v7.4H21Z" transform="translate(-8.191 -7.76)" fill="#f9cb52"/>
      <path id="Trazado_907647" data-name="Trazado 907647" d="M25,25h2.276v3.982H25Z" transform="translate(-9.916 -10.347)" fill="#e9353f"/>
      <path id="Trazado_907648" data-name="Trazado 907648" d="M33,19h2.276v7.4H33Z" transform="translate(-13.365 -7.76)" fill="#0056c0"/>
      <path id="Trazado_907649" data-name="Trazado 907649" d="M37,22h2.276v5.689H37Z" transform="translate(-15.089 -9.054)" fill="#f89b1c"/>
      <path id="Trazado_907650" data-name="Trazado 907650" d="M11,31H31.48v1.138H11Z" transform="translate(-3.88 -12.934)" fill="#fff"/>
      <path id="Trazado_907651" data-name="Trazado 907651" d="M19,23h1.138v3.982A1.138,1.138,0,0,1,19,25.844Z" transform="translate(-7.329 -9.485)" fill="#abdc00"/>
      <path id="Trazado_907652" data-name="Trazado 907652" d="M23,19h1.138v6.258A1.138,1.138,0,0,1,23,24.12Z" transform="translate(-9.054 -7.76)" fill="#ffd986"/>
      <path id="Trazado_907653" data-name="Trazado 907653" d="M27,25h1.138v2.844A1.138,1.138,0,0,1,27,26.707Z" transform="translate(-10.778 -10.347)" fill="#ff4b50"/>
      <path id="Trazado_907654" data-name="Trazado 907654" d="M31,16h1.138v7.964A1.138,1.138,0,0,1,31,22.827Z" transform="translate(-12.502 -6.467)" fill="#abdc00"/>
      <path id="Trazado_907655" data-name="Trazado 907655" d="M35,19h1.138v6.258A1.138,1.138,0,0,1,35,24.12Z" transform="translate(-14.227 -7.76)" fill="#0068dd"/>
      <path id="Trazado_907656" data-name="Trazado 907656" d="M39,22h1.138v4.551A1.138,1.138,0,0,1,39,25.413Z" transform="translate(-15.951 -9.054)" fill="#fdb716"/>
      <path id="Trazado_907657" data-name="Trazado 907657" d="M55.853,18.071a1.138,1.138,0,0,0-.853,1.1v1.138h1.707V19.168A1.138,1.138,0,0,0,55.853,18.071Z" transform="translate(-22.849 -7.36)" fill="#d6dfef"/>
      <path id="Trazado_907658" data-name="Trazado 907658" d="M55,36h1.707v1.138H55Z" transform="translate(-22.849 -15.089)" fill="#d6dfef"/>
      <path id="Trazado_907659" data-name="Trazado 907659" d="M58.12,28.378v-7.4a.569.569,0,0,0-.569-.569H56.413V18.707a1.707,1.707,0,1,0-3.413,0v20.48a.569.569,0,0,0,.03.18l1.138,3.413a.569.569,0,0,0,1.081,0l1.138-3.413a.569.569,0,0,0,.027-.18V21.551h.569v6.827ZM54.707,40.8l-.349-1.046h.7Zm.569-2.183H54.138V28.946h1.138Zm0-10.809H54.138v-7.4h1.138Zm0-8.533H54.138v-.569a.569.569,0,0,1,1.138,0Z" transform="translate(-21.987 -6.898)"/>
      <path id="Trazado_907660" data-name="Trazado 907660" d="M5.413,36.271H29.306a.569.569,0,0,0,.569-.569V7.775A3.413,3.413,0,0,0,29.306,1H5.413A3.417,3.417,0,0,0,2,4.413V24.324a.569.569,0,0,0,.569.569H4.844V35.7A.569.569,0,0,0,5.413,36.271Zm23.324-1.138H5.982V7.827H28.737Zm-20.782-33H29.306a2.276,2.276,0,0,1,0,4.551H7.956a3.408,3.408,0,0,0,0-4.551ZM3.138,23.755V4.413A2.276,2.276,0,1,1,5.413,6.689a.569.569,0,0,0-.569.569v16.5Z"/>
      <path id="Trazado_907661" data-name="Trazado 907661" d="M31.48,24.1H28.635v-5.12a.569.569,0,0,0-.569-.569H26.36V17.276a.569.569,0,0,0-.569-.569H24.084V15.569A.569.569,0,0,0,23.515,15H21.24a.569.569,0,0,0-.569.569V20.12H19.533V17.276a.569.569,0,0,0-.569-.569H16.689a.569.569,0,0,0-.569.569v1.707H14.413a.569.569,0,0,0-.569.569V24.1H11V25.24H31.48Zm-15.36,0H14.982V20.12H16.12ZM18.4,20.689V24.1H17.258V17.844H18.4ZM20.671,24.1H19.533V21.258h1.138Zm2.276-6.827V24.1H21.809V16.138h1.138Zm2.276,1.707V24.1H24.084V17.844h1.138ZM27.5,24.1H26.36V19.551H27.5Z" transform="translate(-3.88 -6.036)"/>
      <path id="Trazado_907662" data-name="Trazado 907662" d="M11.569,40.689H16.12a.569.569,0,0,0,.569-.569V35.569A.569.569,0,0,0,16.12,35H11.569a.569.569,0,0,0-.569.569V40.12A.569.569,0,0,0,11.569,40.689Zm.569-4.551h3.413v3.413H12.138Z" transform="translate(-3.88 -14.658)"/>
      <path id="Trazado_907663" data-name="Trazado 907663" d="M29,35H39.24v1.138H29Z" transform="translate(-11.64 -14.658)"/>
      <path id="Trazado_907664" data-name="Trazado 907664" d="M23,39H36.653v1.138H23Z" transform="translate(-9.054 -16.383)"/>
      <path id="Trazado_907665" data-name="Trazado 907665" d="M23,43H36.653v1.138H23Z" transform="translate(-9.054 -18.107)"/>
      <path id="Trazado_907666" data-name="Trazado 907666" d="M36.946,51H25.569a.569.569,0,0,0-.569.569v3.413a.569.569,0,0,0,.569.569H36.946a.569.569,0,0,0,.569-.569V51.569A.569.569,0,0,0,36.946,51Zm-.569,3.413H26.138V52.138h10.24Z" transform="translate(-9.916 -21.556)"/>
      <path id="Trazado_907667" data-name="Trazado 907667" d="M23,47H36.653v1.138H23Z" transform="translate(-9.054 -19.832)"/>
      <path id="Trazado_907668" data-name="Trazado 907668" d="M11,57h6.827v1.138H11Z" transform="translate(-3.88 -24.143)"/>
      <path id="Trazado_907669" data-name="Trazado 907669" d="M11,53h4.551v1.138H11Z" transform="translate(-3.88 -22.418)"/>
    </g>
  </g>
</svg>
