<svg xmlns="http://www.w3.org/2000/svg" xmlns:xlink="http://www.w3.org/1999/xlink" width="81.414" height="81.414" viewBox="0 0 81.414 81.414">
  <defs>
    <filter id="Trazado_873828" x="0" y="0" width="81.414" height="81.414" filterUnits="userSpaceOnUse">
      <feOffset dy="3" input="SourceAlpha"/>
      <feGaussianBlur stdDeviation="3" result="blur"/>
      <feFlood flood-opacity="0.161"/>
      <feComposite operator="in" in2="blur"/>
    </filter>
    <filter id="Trazado_873828-2" x="0" y="0" width="81.414" height="81.414" filterUnits="userSpaceOnUse">
      <feOffset dy="3" input="SourceAlpha"/>
      <feGaussianBlur stdDeviation="3" result="blur-2"/>
      <feFlood flood-opacity="0.161" result="color"/>
      <feComposite operator="out" in="SourceGraphic" in2="blur-2"/>
      <feComposite operator="in" in="color"/>
      <feComposite operator="in" in2="SourceGraphic"/>
    </filter>
  </defs>
  <g id="Grupo_1114524" data-name="Grupo 1114524" transform="translate(-817.051 -7401)">
    <g data-type="innerShadowGroup">
      <g transform="matrix(1, 0, 0, 1, 817.05, 7401)" filter="url(#Trazado_873828)">
        <g id="Trazado_873828-3" data-name="Trazado 873828" transform="translate(9 6)" fill="#bce0fc">
          <path d="M 31.70703125 61.4140625 C 27.69572067260742 61.4140625 23.80547142028809 60.62889099121094 20.14433097839355 59.08036041259766 C 16.60707092285156 57.58423233032227 13.42987155914307 55.44195938110352 10.7009916305542 52.71308135986328 C 7.972101211547852 49.98419189453125 5.829841136932373 46.80699157714844 4.333701133728027 43.26974105834961 C 2.785171270370483 39.60859298706055 2.000001192092896 35.71834182739258 2.000001192092896 31.70703125 C 2.000001192092896 27.69573211669922 2.785171270370483 23.80547142028809 4.333701133728027 20.14433097839355 C 5.829841136932373 16.60707092285156 7.972101211547852 13.42987155914307 10.7009916305542 10.7009916305542 C 13.42987155914307 7.972101211547852 16.60707092285156 5.829841136932373 20.14433097839355 4.333701133728027 C 23.80547142028809 2.785171270370483 27.69573211669922 2.000001192092896 31.70703125 2.000001192092896 C 35.71834182739258 2.000001192092896 39.60859298706055 2.785171270370483 43.26974105834961 4.333701133728027 C 46.80699157714844 5.829841136932373 49.98419189453125 7.972101211547852 52.71308135986328 10.7009916305542 C 55.44195938110352 13.42987155914307 57.58423233032227 16.60707092285156 59.08036041259766 20.14433097839355 C 60.62889099121094 23.80547142028809 61.4140625 27.69572067260742 61.4140625 31.70703125 C 61.4140625 35.71834182739258 60.62889099121094 39.60859298706055 59.08036041259766 43.26974105834961 C 57.58423233032227 46.80699157714844 55.44195938110352 49.98419189453125 52.71308135986328 52.71308135986328 C 49.98419189453125 55.44195938110352 46.80699157714844 57.58423233032227 43.26974105834961 59.08036041259766 C 39.60859298706055 60.62889099121094 35.71834182739258 61.4140625 31.70703125 61.4140625 Z" stroke="none"/>
          <path d="M 31.70703125 3.999996185302734 C 27.96484375 3.999996185302734 24.33671188354492 4.732006072998047 20.92343139648438 6.175712585449219 C 17.62457275390625 7.571006774902344 14.66105651855469 9.569347381591797 12.11519622802734 12.11519622802734 C 9.569347381591797 14.66105651855469 7.571006774902344 17.62457275390625 6.175712585449219 20.92343139648438 C 4.732006072998047 24.33671188354492 3.999996185302734 27.96484375 3.999996185302734 31.70703125 C 3.999996185302734 35.44921875 4.732006072998047 39.07734680175781 6.175712585449219 42.49063110351562 C 7.571006774902344 45.78948974609375 9.5693359375 48.75300598144531 12.11519622802734 51.29886627197266 C 14.66105651855469 53.8447265625 17.62457275390625 55.84305572509766 20.92343139648438 57.23834991455078 C 24.33671188354492 58.68205642700195 27.96484375 59.41406631469727 31.70703125 59.41406631469727 C 35.44921875 59.41406631469727 39.07734680175781 58.68205642700195 42.49063110351562 57.23834991455078 C 45.78948974609375 55.84305572509766 48.75300598144531 53.8447265625 51.29886627197266 51.29886627197266 C 53.8447265625 48.75300598144531 55.84305572509766 45.78948974609375 57.23834991455078 42.49063110351562 C 58.68205642700195 39.07734680175781 59.41406631469727 35.44921875 59.41406631469727 31.70703125 C 59.41406631469727 27.96484375 58.68205642700195 24.33671188354492 57.23834991455078 20.92343139648438 C 55.84305572509766 17.62457275390625 53.8447265625 14.66105651855469 51.29886627197266 12.11519622802734 C 48.75300598144531 9.5693359375 45.78948974609375 7.571006774902344 42.49063110351562 6.175712585449219 C 39.07734680175781 4.732006072998047 35.44921875 3.999996185302734 31.70703125 3.999996185302734 M 31.70703125 -3.814697265625e-06 C 49.21834945678711 -3.814697265625e-06 63.41406631469727 14.19572448730469 63.41406631469727 31.70703125 C 63.41406631469727 49.21834945678711 49.21834945678711 63.41406631469727 31.70703125 63.41406631469727 C 14.19572448730469 63.41406631469727 -3.814697265625e-06 49.21834945678711 -3.814697265625e-06 31.70703125 C -3.814697265625e-06 14.19572448730469 14.19572448730469 -3.814697265625e-06 31.70703125 -3.814697265625e-06 Z" stroke="none" fill="#fff"/>
        </g>
      </g>
      <g id="Trazado_873828-4" data-name="Trazado 873828" transform="translate(826.051 7407)" fill="#bce0fc">
        <path d="M 31.70703125 61.4140625 C 27.69572067260742 61.4140625 23.80547142028809 60.62889099121094 20.14433097839355 59.08036041259766 C 16.60707092285156 57.58423233032227 13.42987155914307 55.44195938110352 10.7009916305542 52.71308135986328 C 7.972101211547852 49.98419189453125 5.829841136932373 46.80699157714844 4.333701133728027 43.26974105834961 C 2.785171270370483 39.60859298706055 2.000001192092896 35.71834182739258 2.000001192092896 31.70703125 C 2.000001192092896 27.69573211669922 2.785171270370483 23.80547142028809 4.333701133728027 20.14433097839355 C 5.829841136932373 16.60707092285156 7.972101211547852 13.42987155914307 10.7009916305542 10.7009916305542 C 13.42987155914307 7.972101211547852 16.60707092285156 5.829841136932373 20.14433097839355 4.333701133728027 C 23.80547142028809 2.785171270370483 27.69573211669922 2.000001192092896 31.70703125 2.000001192092896 C 35.71834182739258 2.000001192092896 39.60859298706055 2.785171270370483 43.26974105834961 4.333701133728027 C 46.80699157714844 5.829841136932373 49.98419189453125 7.972101211547852 52.71308135986328 10.7009916305542 C 55.44195938110352 13.42987155914307 57.58423233032227 16.60707092285156 59.08036041259766 20.14433097839355 C 60.62889099121094 23.80547142028809 61.4140625 27.69572067260742 61.4140625 31.70703125 C 61.4140625 35.71834182739258 60.62889099121094 39.60859298706055 59.08036041259766 43.26974105834961 C 57.58423233032227 46.80699157714844 55.44195938110352 49.98419189453125 52.71308135986328 52.71308135986328 C 49.98419189453125 55.44195938110352 46.80699157714844 57.58423233032227 43.26974105834961 59.08036041259766 C 39.60859298706055 60.62889099121094 35.71834182739258 61.4140625 31.70703125 61.4140625 Z" stroke="none"/>
        <path d="M 31.70703125 3.999996185302734 C 27.96484375 3.999996185302734 24.33671188354492 4.732006072998047 20.92343139648438 6.175712585449219 C 17.62457275390625 7.571006774902344 14.66105651855469 9.569347381591797 12.11519622802734 12.11519622802734 C 9.569347381591797 14.66105651855469 7.571006774902344 17.62457275390625 6.175712585449219 20.92343139648438 C 4.732006072998047 24.33671188354492 3.999996185302734 27.96484375 3.999996185302734 31.70703125 C 3.999996185302734 35.44921875 4.732006072998047 39.07734680175781 6.175712585449219 42.49063110351562 C 7.571006774902344 45.78948974609375 9.5693359375 48.75300598144531 12.11519622802734 51.29886627197266 C 14.66105651855469 53.8447265625 17.62457275390625 55.84305572509766 20.92343139648438 57.23834991455078 C 24.33671188354492 58.68205642700195 27.96484375 59.41406631469727 31.70703125 59.41406631469727 C 35.44921875 59.41406631469727 39.07734680175781 58.68205642700195 42.49063110351562 57.23834991455078 C 45.78948974609375 55.84305572509766 48.75300598144531 53.8447265625 51.29886627197266 51.29886627197266 C 53.8447265625 48.75300598144531 55.84305572509766 45.78948974609375 57.23834991455078 42.49063110351562 C 58.68205642700195 39.07734680175781 59.41406631469727 35.44921875 59.41406631469727 31.70703125 C 59.41406631469727 27.96484375 58.68205642700195 24.33671188354492 57.23834991455078 20.92343139648438 C 55.84305572509766 17.62457275390625 53.8447265625 14.66105651855469 51.29886627197266 12.11519622802734 C 48.75300598144531 9.5693359375 45.78948974609375 7.571006774902344 42.49063110351562 6.175712585449219 C 39.07734680175781 4.732006072998047 35.44921875 3.999996185302734 31.70703125 3.999996185302734 M 31.70703125 -3.814697265625e-06 C 49.21834945678711 -3.814697265625e-06 63.41406631469727 14.19572448730469 63.41406631469727 31.70703125 C 63.41406631469727 49.21834945678711 49.21834945678711 63.41406631469727 31.70703125 63.41406631469727 C 14.19572448730469 63.41406631469727 -3.814697265625e-06 49.21834945678711 -3.814697265625e-06 31.70703125 C -3.814697265625e-06 14.19572448730469 14.19572448730469 -3.814697265625e-06 31.70703125 -3.814697265625e-06 Z" stroke="none"/>
      </g>
      <g transform="matrix(1, 0, 0, 1, 817.05, 7401)" filter="url(#Trazado_873828-2)">
        <g id="Trazado_873828-5" data-name="Trazado 873828" transform="translate(9 6)" fill="#fff">
          <path d="M 31.70703125 61.4140625 C 27.69572067260742 61.4140625 23.80547142028809 60.62889099121094 20.14433097839355 59.08036041259766 C 16.60707092285156 57.58423233032227 13.42987155914307 55.44195938110352 10.7009916305542 52.71308135986328 C 7.972101211547852 49.98419189453125 5.829841136932373 46.80699157714844 4.333701133728027 43.26974105834961 C 2.785171270370483 39.60859298706055 2.000001192092896 35.71834182739258 2.000001192092896 31.70703125 C 2.000001192092896 27.69573211669922 2.785171270370483 23.80547142028809 4.333701133728027 20.14433097839355 C 5.829841136932373 16.60707092285156 7.972101211547852 13.42987155914307 10.7009916305542 10.7009916305542 C 13.42987155914307 7.972101211547852 16.60707092285156 5.829841136932373 20.14433097839355 4.333701133728027 C 23.80547142028809 2.785171270370483 27.69573211669922 2.000001192092896 31.70703125 2.000001192092896 C 35.71834182739258 2.000001192092896 39.60859298706055 2.785171270370483 43.26974105834961 4.333701133728027 C 46.80699157714844 5.829841136932373 49.98419189453125 7.972101211547852 52.71308135986328 10.7009916305542 C 55.44195938110352 13.42987155914307 57.58423233032227 16.60707092285156 59.08036041259766 20.14433097839355 C 60.62889099121094 23.80547142028809 61.4140625 27.69572067260742 61.4140625 31.70703125 C 61.4140625 35.71834182739258 60.62889099121094 39.60859298706055 59.08036041259766 43.26974105834961 C 57.58423233032227 46.80699157714844 55.44195938110352 49.98419189453125 52.71308135986328 52.71308135986328 C 49.98419189453125 55.44195938110352 46.80699157714844 57.58423233032227 43.26974105834961 59.08036041259766 C 39.60859298706055 60.62889099121094 35.71834182739258 61.4140625 31.70703125 61.4140625 Z" stroke="none"/>
          <path d="M 31.70703125 3.999996185302734 C 27.96484375 3.999996185302734 24.33671188354492 4.732006072998047 20.92343139648438 6.175712585449219 C 17.62457275390625 7.571006774902344 14.66105651855469 9.569347381591797 12.11519622802734 12.11519622802734 C 9.569347381591797 14.66105651855469 7.571006774902344 17.62457275390625 6.175712585449219 20.92343139648438 C 4.732006072998047 24.33671188354492 3.999996185302734 27.96484375 3.999996185302734 31.70703125 C 3.999996185302734 35.44921875 4.732006072998047 39.07734680175781 6.175712585449219 42.49063110351562 C 7.571006774902344 45.78948974609375 9.5693359375 48.75300598144531 12.11519622802734 51.29886627197266 C 14.66105651855469 53.8447265625 17.62457275390625 55.84305572509766 20.92343139648438 57.23834991455078 C 24.33671188354492 58.68205642700195 27.96484375 59.41406631469727 31.70703125 59.41406631469727 C 35.44921875 59.41406631469727 39.07734680175781 58.68205642700195 42.49063110351562 57.23834991455078 C 45.78948974609375 55.84305572509766 48.75300598144531 53.8447265625 51.29886627197266 51.29886627197266 C 53.8447265625 48.75300598144531 55.84305572509766 45.78948974609375 57.23834991455078 42.49063110351562 C 58.68205642700195 39.07734680175781 59.41406631469727 35.44921875 59.41406631469727 31.70703125 C 59.41406631469727 27.96484375 58.68205642700195 24.33671188354492 57.23834991455078 20.92343139648438 C 55.84305572509766 17.62457275390625 53.8447265625 14.66105651855469 51.29886627197266 12.11519622802734 C 48.75300598144531 9.5693359375 45.78948974609375 7.571006774902344 42.49063110351562 6.175712585449219 C 39.07734680175781 4.732006072998047 35.44921875 3.999996185302734 31.70703125 3.999996185302734 M 31.70703125 -3.814697265625e-06 C 49.21834945678711 -3.814697265625e-06 63.41406631469727 14.19572448730469 63.41406631469727 31.70703125 C 63.41406631469727 49.21834945678711 49.21834945678711 63.41406631469727 31.70703125 63.41406631469727 C 14.19572448730469 63.41406631469727 -3.814697265625e-06 49.21834945678711 -3.814697265625e-06 31.70703125 C -3.814697265625e-06 14.19572448730469 14.19572448730469 -3.814697265625e-06 31.70703125 -3.814697265625e-06 Z" stroke="none"/>
        </g>
      </g>
      <g id="Trazado_873828-6" data-name="Trazado 873828" transform="translate(826.051 7407)" fill="none">
        <path d="M 31.70703125 61.4140625 C 27.69572067260742 61.4140625 23.80547142028809 60.62889099121094 20.14433097839355 59.08036041259766 C 16.60707092285156 57.58423233032227 13.42987155914307 55.44195938110352 10.7009916305542 52.71308135986328 C 7.972101211547852 49.98419189453125 5.829841136932373 46.80699157714844 4.333701133728027 43.26974105834961 C 2.785171270370483 39.60859298706055 2.000001192092896 35.71834182739258 2.000001192092896 31.70703125 C 2.000001192092896 27.69573211669922 2.785171270370483 23.80547142028809 4.333701133728027 20.14433097839355 C 5.829841136932373 16.60707092285156 7.972101211547852 13.42987155914307 10.7009916305542 10.7009916305542 C 13.42987155914307 7.972101211547852 16.60707092285156 5.829841136932373 20.14433097839355 4.333701133728027 C 23.80547142028809 2.785171270370483 27.69573211669922 2.000001192092896 31.70703125 2.000001192092896 C 35.71834182739258 2.000001192092896 39.60859298706055 2.785171270370483 43.26974105834961 4.333701133728027 C 46.80699157714844 5.829841136932373 49.98419189453125 7.972101211547852 52.71308135986328 10.7009916305542 C 55.44195938110352 13.42987155914307 57.58423233032227 16.60707092285156 59.08036041259766 20.14433097839355 C 60.62889099121094 23.80547142028809 61.4140625 27.69572067260742 61.4140625 31.70703125 C 61.4140625 35.71834182739258 60.62889099121094 39.60859298706055 59.08036041259766 43.26974105834961 C 57.58423233032227 46.80699157714844 55.44195938110352 49.98419189453125 52.71308135986328 52.71308135986328 C 49.98419189453125 55.44195938110352 46.80699157714844 57.58423233032227 43.26974105834961 59.08036041259766 C 39.60859298706055 60.62889099121094 35.71834182739258 61.4140625 31.70703125 61.4140625 Z" stroke="none"/>
        <path d="M 31.70703125 3.999996185302734 C 27.96484375 3.999996185302734 24.33671188354492 4.732006072998047 20.92343139648438 6.175712585449219 C 17.62457275390625 7.571006774902344 14.66105651855469 9.569347381591797 12.11519622802734 12.11519622802734 C 9.569347381591797 14.66105651855469 7.571006774902344 17.62457275390625 6.175712585449219 20.92343139648438 C 4.732006072998047 24.33671188354492 3.999996185302734 27.96484375 3.999996185302734 31.70703125 C 3.999996185302734 35.44921875 4.732006072998047 39.07734680175781 6.175712585449219 42.49063110351562 C 7.571006774902344 45.78948974609375 9.5693359375 48.75300598144531 12.11519622802734 51.29886627197266 C 14.66105651855469 53.8447265625 17.62457275390625 55.84305572509766 20.92343139648438 57.23834991455078 C 24.33671188354492 58.68205642700195 27.96484375 59.41406631469727 31.70703125 59.41406631469727 C 35.44921875 59.41406631469727 39.07734680175781 58.68205642700195 42.49063110351562 57.23834991455078 C 45.78948974609375 55.84305572509766 48.75300598144531 53.8447265625 51.29886627197266 51.29886627197266 C 53.8447265625 48.75300598144531 55.84305572509766 45.78948974609375 57.23834991455078 42.49063110351562 C 58.68205642700195 39.07734680175781 59.41406631469727 35.44921875 59.41406631469727 31.70703125 C 59.41406631469727 27.96484375 58.68205642700195 24.33671188354492 57.23834991455078 20.92343139648438 C 55.84305572509766 17.62457275390625 53.8447265625 14.66105651855469 51.29886627197266 12.11519622802734 C 48.75300598144531 9.5693359375 45.78948974609375 7.571006774902344 42.49063110351562 6.175712585449219 C 39.07734680175781 4.732006072998047 35.44921875 3.999996185302734 31.70703125 3.999996185302734 M 31.70703125 -3.814697265625e-06 C 49.21834945678711 -3.814697265625e-06 63.41406631469727 14.19572448730469 63.41406631469727 31.70703125 C 63.41406631469727 49.21834945678711 49.21834945678711 63.41406631469727 31.70703125 63.41406631469727 C 14.19572448730469 63.41406631469727 -3.814697265625e-06 49.21834945678711 -3.814697265625e-06 31.70703125 C -3.814697265625e-06 14.19572448730469 14.19572448730469 -3.814697265625e-06 31.70703125 -3.814697265625e-06 Z" stroke="none" fill="#fff"/>
      </g>
    </g>
    <g id="Grupo_1114523" data-name="Grupo 1114523" transform="translate(838.051 7419.015)">
      <path id="Trazado_907689" data-name="Trazado 907689" d="M8,16H40.649V43.812H8Z" transform="translate(-2.768 -5.937)" fill="#e2e7f6"/>
      <path id="Trazado_907690" data-name="Trazado 907690" d="M8,16H38.23V41.394H8Z" transform="translate(-2.768 -5.937)" fill="#f2f2f2"/>
      <path id="Trazado_907691" data-name="Trazado 907691" d="M8,16H40.649v4.837H8Z" transform="translate(-2.768 -5.937)" fill="#4c6cb5"/>
      <path id="Trazado_907692" data-name="Trazado 907692" d="M8,16H38.23v4.837H8Z" transform="translate(-2.768 -5.937)" fill="#5e87ca"/>
      <g id="Grupo_1114522" data-name="Grupo 1114522" transform="translate(17.324 11.877)">
        <path id="Trazado_907693" data-name="Trazado 907693" d="M49,19h1.209v1.209H49Z" transform="translate(-36.303 -19)" fill="#474747"/>
        <path id="Trazado_907694" data-name="Trazado 907694" d="M53,19h1.209v1.209H53Z" transform="translate(-37.885 -19)" fill="#474747"/>
        <path id="Trazado_907695" data-name="Trazado 907695" d="M57,19h1.209v1.209H57Z" transform="translate(-39.466 -19)" fill="#474747"/>
        <path id="Trazado_907696" data-name="Trazado 907696" d="M28,19H39.488v1.209H28Z" transform="translate(-28 -19)" fill="#474747"/>
      </g>
      <circle id="Elipse_12789" data-name="Elipse 12789" cx="8.465" cy="8.465" r="8.465" transform="translate(1.604 1.599)" fill="#78a0d4"/>
      <path id="Trazado_907697" data-name="Trazado 907697" d="M17.115,9.858a8.459,8.459,0,0,0-4.931-7.685A8.461,8.461,0,0,0,6.931,18.147,8.469,8.469,0,0,0,17.115,9.858Z" transform="translate(-0.396 -0.399)" fill="#93bee5"/>
      <circle id="Elipse_12790" data-name="Elipse 12790" cx="2.418" cy="2.418" r="2.418" transform="translate(7.651 4.017)" fill="#fcd0ae"/>
      <path id="Trazado_907698" data-name="Trazado 907698" d="M13.628,14a3.628,3.628,0,0,1,3.628,3.628v2.418H10V17.628A3.628,3.628,0,0,1,13.628,14Z" transform="translate(-3.559 -5.146)" fill="#474747"/>
      <path id="Trazado_907699" data-name="Trazado 907699" d="M50.628,51.628V48H47v3.628" transform="translate(-18.188 -18.589)" fill="#78a0d4"/>
      <path id="Trazado_907700" data-name="Trazado 907700" d="M49.418,49.814V48H47v2.418h1.814A.6.6,0,0,0,49.418,49.814Z" transform="translate(-18.188 -18.589)" fill="#93bee5"/>
      <path id="Trazado_907701" data-name="Trazado 907701" d="M40.628,50.441V45H37v5.441" transform="translate(-14.234 -17.403)" fill="#78a0d4"/>
      <path id="Trazado_907702" data-name="Trazado 907702" d="M39.418,48.628V45H37v4.232h1.814A.6.6,0,0,0,39.418,48.628Z" transform="translate(-14.234 -17.403)" fill="#93bee5"/>
      <path id="Trazado_907703" data-name="Trazado 907703" d="M30.628,47.674V38H27v9.674" transform="translate(-10.28 -14.635)" fill="#78a0d4"/>
      <path id="Trazado_907704" data-name="Trazado 907704" d="M29.418,45.255V38H27v8.465h1.209A1.209,1.209,0,0,0,29.418,45.255Z" transform="translate(-10.28 -14.635)" fill="#93bee5"/>
      <path id="Trazado_907705" data-name="Trazado 907705" d="M20.628,46.092V34H17V46.092" transform="translate(-6.326 -13.054)" fill="#78a0d4"/>
      <path id="Trazado_907706" data-name="Trazado 907706" d="M19.418,43.674V34H17V44.883h1.209A1.209,1.209,0,0,0,19.418,43.674Z" transform="translate(-6.326 -13.054)" fill="#93bee5"/>
      <path id="Trazado_907707" data-name="Trazado 907707" d="M12,54H39.812v2.418H12Z" transform="translate(-4.349 -20.961)" fill="#474747"/>
      <path id="Trazado_907708" data-name="Trazado 907708" d="M38.6,54.6V54H12v1.209H38A.6.6,0,0,0,38.6,54.6Z" transform="translate(-4.349 -20.961)" fill="#686868"/>
      <path id="Trazado_907709" data-name="Trazado 907709" d="M13.628,14A3.628,3.628,0,0,0,10,17.628v2.418h3.628Z" transform="translate(-3.559 -5.146)" fill="#686868"/>
      <path id="Trazado_907710" data-name="Trazado 907710" d="M12,8.418a2.418,2.418,0,0,0,2.418,2.418V6A2.418,2.418,0,0,0,12,8.418Z" transform="translate(-4.349 -1.983)" fill="#fbe1ca"/>
      <path id="Trazado_907711" data-name="Trazado 907711" d="M43.357,36.216l-1.209-3.023-1.123.45.823,2.056-1.3-.406a24.407,24.407,0,0,1-12.378-8.88l-.978.711a25.628,25.628,0,0,0,12.995,9.325l.544.169-1.18.472L40,38.212,43.023,37a.6.6,0,0,0,.334-.787Z" transform="translate(-10.356 -10.053)" fill="#686868"/>
      <path id="Trazado_907712" data-name="Trazado 907712" d="M37.881,9.459H19.107A9.063,9.063,0,1,0,4.628,17.3V37.875a.6.6,0,0,0,.6.6H37.881a.6.6,0,0,0,.6-.6V10.063A.6.6,0,0,0,37.881,9.459Zm-.6,4.837H18.084a9.009,9.009,0,0,0,.525-1.209h10.2V11.877H18.957a9.14,9.14,0,0,0,.152-1.209H37.276ZM2.209,10.063a7.86,7.86,0,1,1,7.86,7.86,7.86,7.86,0,0,1-7.86-7.86ZM5.837,37.271V18.078A9.03,9.03,0,0,0,17.307,15.5h19.97V37.271Z" transform="translate(0)"/>
      <path id="Trazado_907713" data-name="Trazado 907713" d="M49,19h1.209v1.209H49Z" transform="translate(-18.979 -7.123)"/>
      <path id="Trazado_907714" data-name="Trazado 907714" d="M53,19h1.209v1.209H53Z" transform="translate(-20.56 -7.123)"/>
      <path id="Trazado_907715" data-name="Trazado 907715" d="M57,19h1.209v1.209H57Z" transform="translate(-22.142 -7.123)"/>
      <path id="Trazado_907716" data-name="Trazado 907716" d="M17.465,16.475V14.056A4.232,4.232,0,0,0,15.18,10.3a3.023,3.023,0,1,0-3.895,0A4.232,4.232,0,0,0,9,14.056v2.418a.6.6,0,0,0,.6.6H16.86A.6.6,0,0,0,17.465,16.475ZM11.418,8.01a1.814,1.814,0,1,1,1.814,1.814A1.814,1.814,0,0,1,11.418,8.01Zm4.837,7.86H10.209V14.056a3.023,3.023,0,0,1,6.046,0Z" transform="translate(-3.163 -1.575)"/>
      <path id="Trazado_907717" data-name="Trazado 907717" d="M39.417,45.092H37V42.069a.6.6,0,0,0-.6-.6H32.766a.6.6,0,0,0-.6.6v3.023H30.952V40.255a.6.6,0,0,0-.6-.6H26.72a.6.6,0,0,0-.6.6v4.837H24.906V36.023a.6.6,0,0,0-.6-.6H20.674a.6.6,0,0,0-.6.6v9.069H18.86V33.6a.6.6,0,0,0-.6-.6H14.628a.6.6,0,0,0-.6.6V45.092H11.6a.6.6,0,0,0-.6.6v2.418a.6.6,0,0,0,.6.6H39.417a.6.6,0,0,0,.6-.6V45.7A.6.6,0,0,0,39.417,45.092ZM33.37,42.674h2.418v2.418H33.37ZM27.324,40.86h2.418v4.232H27.324Zm-6.046-4.232H23.7v8.465H21.278Zm-6.046-2.418h2.418V45.092H15.232Zm23.58,13.3h-26.6V46.3h26.6Z" transform="translate(-3.954 -12.658)"/>
      <path id="Trazado_907718" data-name="Trazado 907718" d="M40.186,36.448l.544.169-1.18.472L40,38.212,43.023,37a.6.6,0,0,0,.337-.786l-1.209-3.023-1.123.45.823,2.056-1.3-.407a24.407,24.407,0,0,1-12.378-8.88l-.978.711a25.628,25.628,0,0,0,12.995,9.325Z" transform="translate(-10.356 -10.053)"/>
    </g>
  </g>
</svg>
