<svg xmlns="http://www.w3.org/2000/svg" width="607.027" height="141.911" viewBox="0 0 607.027 141.911">
  <g id="Grupo_1113527" data-name="Grupo 1113527" transform="translate(-358.555 -11712)">
    <g id="Grupo_1113470" data-name="Grupo 1113470" transform="translate(351.051 11712)">
      <rect id="Rectángulo_406002" data-name="Rectángulo 406002" width="596.129" height="133.784" transform="translate(18.403 8.127)" fill="#bce0fc"/>
      <g id="Rectángulo_406003" data-name="Rectángulo 406003" transform="translate(7.504)" fill="#fbfbf9" stroke="#000" stroke-width="0.5">
        <rect width="602.566" height="135.784" stroke="none"/>
        <rect x="0.25" y="0.25" width="602.066" height="135.284" fill="none"/>
      </g>
      <g id="Grupo_1113471" data-name="Grupo 1113471" transform="translate(-8.496 18.993)">
        <path id="Trazado_908186" data-name="Trazado 908186" d="M23.094,8.57a3.269,3.269,0,0,1-.254,1.313,3.031,3.031,0,0,1-.7,1.008,3.416,3.416,0,0,1-1.062.676,4.532,4.532,0,0,1-1.344.316v.031a1.3,1.3,0,0,1,.645.492,3.027,3.027,0,0,1,.449,1.008L21.766,17H20.328L19.5,13.656a2.026,2.026,0,0,0-.574-1.078,1.531,1.531,0,0,0-1.043-.344h-.977L15.883,17H14.539L16.906,5.8h3.086a4.028,4.028,0,0,1,1.406.219,2.615,2.615,0,0,1,.961.6,2.373,2.373,0,0,1,.555.883A3.175,3.175,0,0,1,23.094,8.57Zm-1.375.141A1.976,1.976,0,0,0,21.6,8.02a1.431,1.431,0,0,0-.359-.547,1.666,1.666,0,0,0-.617-.359,2.747,2.747,0,0,0-.891-.129H18.008l-.859,4.063H18.7a4.36,4.36,0,0,0,1.395-.2,2.728,2.728,0,0,0,.938-.516,1.894,1.894,0,0,0,.527-.746A2.424,2.424,0,0,0,21.719,8.711Zm9.508,3.25a6.659,6.659,0,0,1-.3,2.016,5.154,5.154,0,0,1-.867,1.668,4.19,4.19,0,0,1-1.375,1.133,3.914,3.914,0,0,1-1.824.418,3.33,3.33,0,0,1-1.238-.219,2.576,2.576,0,0,1-.937-.629,2.786,2.786,0,0,1-.594-.992,3.912,3.912,0,0,1-.207-1.316A6.519,6.519,0,0,1,24.2,11.98a5.2,5.2,0,0,1,.891-1.664,4.161,4.161,0,0,1,1.375-1.109,3.885,3.885,0,0,1,1.77-.4,3.308,3.308,0,0,1,1.23.219,2.614,2.614,0,0,1,.941.629,2.848,2.848,0,0,1,.605.992A3.783,3.783,0,0,1,31.227,11.961Zm-1.312.063a2.987,2.987,0,0,0-.125-.9,1.919,1.919,0,0,0-.352-.664,1.525,1.525,0,0,0-.547-.414,1.729,1.729,0,0,0-.719-.145,2.272,2.272,0,0,0-1.242.352,3.143,3.143,0,0,0-.937.926,4.591,4.591,0,0,0-.59,1.3,5.46,5.46,0,0,0-.207,1.5,2.988,2.988,0,0,0,.121.879,2,2,0,0,0,.344.672,1.484,1.484,0,0,0,.547.426,1.735,1.735,0,0,0,.73.148,2.3,2.3,0,0,0,1.25-.348,3.1,3.1,0,0,0,.938-.922,4.506,4.506,0,0,0,.586-1.309A5.6,5.6,0,0,0,29.914,12.023Zm7.313-1.937H35.211l-.9,4.242q-.047.242-.094.523a2.892,2.892,0,0,0-.047.453.789.789,0,0,0,.176.574.764.764,0,0,0,.559.176,1.228,1.228,0,0,0,.242-.031q.148-.031.3-.078t.309-.105l.27-.105-.242,1.125a3.788,3.788,0,0,1-.621.2,2.877,2.877,0,0,1-.66.082,2.234,2.234,0,0,1-.758-.113,1.3,1.3,0,0,1-.512-.324,1.256,1.256,0,0,1-.289-.512,2.359,2.359,0,0,1-.09-.676,3.788,3.788,0,0,1,.043-.527,5.466,5.466,0,0,1,.105-.551l.922-4.352H32.6L32.844,9h1.313l.414-1.953a2.408,2.408,0,0,1,.238-.074q.207-.059.453-.133l.453-.137.23-.07L35.453,9h2.016Zm6.852,4.352q-.063.3-.121.668t-.1.734q-.043.363-.07.676T43.758,17H42.43q.008-.156.023-.375t.043-.453q.027-.234.055-.461t.059-.391h-.031q-.242.383-.492.723a3.478,3.478,0,0,1-.555.6,2.429,2.429,0,0,1-.68.406,2.612,2.612,0,0,1-1.84-.039,2.006,2.006,0,0,1-.746-.559,2.574,2.574,0,0,1-.48-.93,4.532,4.532,0,0,1-.168-1.3,6.518,6.518,0,0,1,.094-1.031,6.309,6.309,0,0,1,.316-1.18,6.007,6.007,0,0,1,.594-1.176A4.465,4.465,0,0,1,39.543,9.8a4.4,4.4,0,0,1,1.3-.727A5.051,5.051,0,0,1,42.578,8.8a9.22,9.22,0,0,1,1.289.094q.664.094,1.32.227Zm-.367-4.383q-.273-.062-.641-.109a5.447,5.447,0,0,0-.687-.047,3.119,3.119,0,0,0-1.2.215,3.077,3.077,0,0,0-.9.563,3.313,3.313,0,0,0-.645.8,4.965,4.965,0,0,0-.418.926,5.448,5.448,0,0,0-.223.934,5.91,5.91,0,0,0-.066.836,3.744,3.744,0,0,0,.078.8,1.748,1.748,0,0,0,.246.605,1.156,1.156,0,0,0,.43.387,1.325,1.325,0,0,0,.621.137,1.692,1.692,0,0,0,.73-.16,2.532,2.532,0,0,0,.637-.434,3.56,3.56,0,0,0,.539-.633,6.225,6.225,0,0,0,.438-.762,6.515,6.515,0,0,0,.332-.82q.137-.418.223-.809Zm8.719.531a2.941,2.941,0,0,0-.793-.488,2.582,2.582,0,0,0-1.027-.2,2.427,2.427,0,0,0-.973.188,2.684,2.684,0,0,0-.77.5,3.244,3.244,0,0,0-.578.719,4.793,4.793,0,0,0-.4.844,5.193,5.193,0,0,0-.23.871,4.81,4.81,0,0,0-.074.809,2.552,2.552,0,0,0,.492,1.7,1.672,1.672,0,0,0,1.344.578,2.957,2.957,0,0,0,1.07-.215,5.151,5.151,0,0,0,1.047-.551l-.273,1.281a5.483,5.483,0,0,1-1.012.426,3.666,3.666,0,0,1-1.066.152,3.029,3.029,0,0,1-1.277-.25,2.5,2.5,0,0,1-.9-.687,2.946,2.946,0,0,1-.539-1.035,4.472,4.472,0,0,1-.18-1.293,6.315,6.315,0,0,1,.133-1.293,5.569,5.569,0,0,1,.395-1.2,5.218,5.218,0,0,1,.645-1.051A4.107,4.107,0,0,1,49.445,9a4.451,4.451,0,0,1,1.961-.152,3.8,3.8,0,0,1,.555.125,3.737,3.737,0,0,1,.445.168,1.829,1.829,0,0,1,.313.176Zm3.477,6.383a2.994,2.994,0,0,1-.441.1,3.111,3.111,0,0,1-.488.039,1.594,1.594,0,0,1-1.18-.395,1.439,1.439,0,0,1-.391-1.059,3.227,3.227,0,0,1,.039-.461q.039-.266.125-.656L54.734,9h1.3l-1.172,5.57q-.07.328-.1.508a2.078,2.078,0,0,0-.027.3.644.644,0,0,0,.176.488.787.787,0,0,0,.559.168,2.366,2.366,0,0,0,.355-.023,1.575,1.575,0,0,0,.285-.07Zm.914-10.82a.841.841,0,0,1-.238.6.782.782,0,0,1-.59.25.831.831,0,0,1-.6-.246.81.81,0,0,1-.254-.605.749.749,0,0,1,.254-.586.869.869,0,0,1,.6-.227.819.819,0,0,1,.586.23A.769.769,0,0,1,56.82,6.148Zm7.93,5.813a6.659,6.659,0,0,1-.3,2.016,5.154,5.154,0,0,1-.867,1.668,4.19,4.19,0,0,1-1.375,1.133,3.914,3.914,0,0,1-1.824.418,3.33,3.33,0,0,1-1.238-.219,2.576,2.576,0,0,1-.937-.629,2.786,2.786,0,0,1-.594-.992,3.912,3.912,0,0,1-.207-1.316,6.519,6.519,0,0,1,.316-2.059,5.2,5.2,0,0,1,.891-1.664,4.161,4.161,0,0,1,1.375-1.109,3.885,3.885,0,0,1,1.77-.4,3.308,3.308,0,0,1,1.23.219,2.614,2.614,0,0,1,.941.629,2.848,2.848,0,0,1,.605.992A3.783,3.783,0,0,1,64.75,11.961Zm-1.312.063a2.987,2.987,0,0,0-.125-.9,1.919,1.919,0,0,0-.352-.664,1.525,1.525,0,0,0-.547-.414A1.729,1.729,0,0,0,61.7,9.9a2.272,2.272,0,0,0-1.242.352,3.143,3.143,0,0,0-.937.926,4.591,4.591,0,0,0-.59,1.3,5.46,5.46,0,0,0-.207,1.5,2.988,2.988,0,0,0,.121.879,2,2,0,0,0,.344.672,1.484,1.484,0,0,0,.547.426,1.735,1.735,0,0,0,.73.148,2.3,2.3,0,0,0,1.25-.348,3.1,3.1,0,0,0,.938-.922,4.506,4.506,0,0,0,.586-1.309A5.6,5.6,0,0,0,63.438,12.023ZM61.789,7.477h-.961l2.258-2.555h1.258ZM73.531,11a2.547,2.547,0,0,1-.027.32q-.027.2-.07.438t-.086.465q-.043.23-.082.395L72.336,17h-1.3l.977-4.687q.031-.125.063-.289t.055-.328q.023-.164.039-.3a2.01,2.01,0,0,0,.016-.215,1.424,1.424,0,0,0-.285-.937,1.038,1.038,0,0,0-.848-.344,1.972,1.972,0,0,0-1.023.3,4.211,4.211,0,0,0-.937.773,5.274,5.274,0,0,0-.738,1.031,3.952,3.952,0,0,0-.418,1.086L67.1,17H65.8l1.234-5.711q.062-.3.125-.637t.117-.641q.055-.309.094-.574T67.438,9h1.25q-.039.3-.094.637t-.094.613q-.047.328-.1.641h.031a6.607,6.607,0,0,1,.605-.809,4.531,4.531,0,0,1,.719-.664,3.413,3.413,0,0,1,.82-.449,2.55,2.55,0,0,1,.91-.164,2.362,2.362,0,0,1,.914.16,1.712,1.712,0,0,1,.637.449,1.829,1.829,0,0,1,.375.7A3.108,3.108,0,0,1,73.531,11Zm12.258,3.539q-.055.25-.105.6t-.09.707q-.039.355-.066.668T85.5,17H84.172q0-.133.02-.355t.047-.465q.027-.242.059-.465t.055-.363H84.32a7.891,7.891,0,0,1-.562.8,3.256,3.256,0,0,1-.594.578,2.386,2.386,0,0,1-.664.348,2.434,2.434,0,0,1-.773.117,2.39,2.39,0,0,1-.984-.2A2.006,2.006,0,0,1,80,16.426a2.646,2.646,0,0,1-.473-.937,4.57,4.57,0,0,1-.164-1.285A6.325,6.325,0,0,1,79.48,13a6.161,6.161,0,0,1,.375-1.227,5.749,5.749,0,0,1,.645-1.141,4.367,4.367,0,0,1,2.164-1.59A4.775,4.775,0,0,1,84.219,8.8a5.273,5.273,0,0,1,.813.059q.375.059.648.121l.813-3.828h1.266Zm-.336-4.453a5.033,5.033,0,0,0-.621-.137,4.471,4.471,0,0,0-.691-.051,3.17,3.17,0,0,0-1.2.211,3.024,3.024,0,0,0-.906.563,3.367,3.367,0,0,0-.648.8,5.046,5.046,0,0,0-.422.922,5.248,5.248,0,0,0-.227.93,5.785,5.785,0,0,0-.066.824,3.949,3.949,0,0,0,.074.8,1.779,1.779,0,0,0,.242.617,1.157,1.157,0,0,0,.434.4,1.353,1.353,0,0,0,.641.141,1.658,1.658,0,0,0,.73-.164,2.516,2.516,0,0,0,.637-.445,3.677,3.677,0,0,0,.539-.648,6.291,6.291,0,0,0,.438-.781,6.943,6.943,0,0,0,.332-.84q.137-.426.223-.816Zm9.453.789a2.381,2.381,0,0,1-.281,1.152,2.331,2.331,0,0,1-.93.891,5.584,5.584,0,0,1-1.711.574,14.678,14.678,0,0,1-2.625.211,1,1,0,0,0-.016.18v.156a2.657,2.657,0,0,0,.117.8,1.8,1.8,0,0,0,.363.656,1.714,1.714,0,0,0,.633.445,2.341,2.341,0,0,0,.918.164,3.9,3.9,0,0,0,1.184-.207,5.087,5.087,0,0,0,1.23-.59l-.242,1.266a5.078,5.078,0,0,1-1.023.438A4.4,4.4,0,0,1,91.2,17.2a3.609,3.609,0,0,1-1.488-.273,2.621,2.621,0,0,1-.977-.73,2.848,2.848,0,0,1-.535-1.055,4.716,4.716,0,0,1-.164-1.254,5.8,5.8,0,0,1,.156-1.355,5.519,5.519,0,0,1,.441-1.215,5.148,5.148,0,0,1,.684-1.027,4.444,4.444,0,0,1,.883-.793,4.092,4.092,0,0,1,1.039-.508,3.7,3.7,0,0,1,1.148-.18,3.319,3.319,0,0,1,1.09.164,2.277,2.277,0,0,1,.789.449,1.915,1.915,0,0,1,.48.66A1.966,1.966,0,0,1,94.906,10.875Zm-1.3.063a.9.9,0,0,0-.363-.766,1.565,1.565,0,0,0-.965-.273,2.163,2.163,0,0,0-.922.207,2.984,2.984,0,0,0-.82.57,3.56,3.56,0,0,0-.648.867,4.038,4.038,0,0,0-.4,1.09,13.5,13.5,0,0,0,1.9-.113,4.925,4.925,0,0,0,1.273-.332,1.712,1.712,0,0,0,.719-.535A1.2,1.2,0,0,0,93.6,10.938Zm9.258,6.031a2.994,2.994,0,0,1-.441.1,3.111,3.111,0,0,1-.488.039,1.594,1.594,0,0,1-1.18-.395,1.439,1.439,0,0,1-.391-1.059,3.228,3.228,0,0,1,.039-.461q.039-.266.125-.656L101.688,9h1.3l-1.172,5.57q-.07.328-.1.508a2.079,2.079,0,0,0-.027.3.644.644,0,0,0,.176.488.787.787,0,0,0,.559.168,2.366,2.366,0,0,0,.355-.023,1.575,1.575,0,0,0,.285-.07Zm.914-10.82a.841.841,0,0,1-.238.6.782.782,0,0,1-.59.25.831.831,0,0,1-.6-.246.81.81,0,0,1-.254-.605.749.749,0,0,1,.254-.586.869.869,0,0,1,.6-.227.819.819,0,0,1,.586.23A.769.769,0,0,1,103.773,6.148ZM111.922,11a2.547,2.547,0,0,1-.027.32q-.027.2-.07.438t-.086.465q-.043.23-.082.395L110.727,17h-1.3l.977-4.687q.031-.125.063-.289t.055-.328q.023-.164.039-.3a2.01,2.01,0,0,0,.016-.215,1.424,1.424,0,0,0-.285-.937,1.038,1.038,0,0,0-.848-.344,1.972,1.972,0,0,0-1.023.3,4.211,4.211,0,0,0-.937.773,5.274,5.274,0,0,0-.738,1.031,3.952,3.952,0,0,0-.418,1.086L105.492,17h-1.3l1.234-5.711q.062-.3.125-.637t.117-.641q.055-.309.094-.574T105.828,9h1.25q-.039.3-.094.637t-.094.613q-.047.328-.1.641h.031a6.607,6.607,0,0,1,.605-.809,4.531,4.531,0,0,1,.719-.664,3.413,3.413,0,0,1,.82-.449,2.55,2.55,0,0,1,.91-.164,2.362,2.362,0,0,1,.914.16,1.712,1.712,0,0,1,.637.449,1.829,1.829,0,0,1,.375.7A3.108,3.108,0,0,1,111.922,11Zm4.242,6h-1.086l-1.266-8h1.3l.7,5.039q.023.148.043.336t.039.383q.02.2.027.383t.008.336h.031q.062-.141.145-.32t.184-.371q.1-.191.207-.387t.2-.359L119.555,9h1.461ZM127.8,10.875a2.381,2.381,0,0,1-.281,1.152,2.331,2.331,0,0,1-.93.891,5.584,5.584,0,0,1-1.711.574,14.678,14.678,0,0,1-2.625.211,1,1,0,0,0-.016.18v.156a2.657,2.657,0,0,0,.117.8,1.8,1.8,0,0,0,.363.656,1.714,1.714,0,0,0,.633.445,2.341,2.341,0,0,0,.918.164,3.9,3.9,0,0,0,1.184-.207,5.087,5.087,0,0,0,1.23-.59l-.242,1.266a5.078,5.078,0,0,1-1.023.438,4.4,4.4,0,0,1-1.328.188,3.609,3.609,0,0,1-1.488-.273,2.621,2.621,0,0,1-.977-.73,2.848,2.848,0,0,1-.535-1.055,4.716,4.716,0,0,1-.164-1.254,5.8,5.8,0,0,1,.156-1.355,5.519,5.519,0,0,1,.441-1.215,5.148,5.148,0,0,1,.684-1.027,4.444,4.444,0,0,1,.883-.793,4.092,4.092,0,0,1,1.039-.508,3.7,3.7,0,0,1,1.148-.18,3.319,3.319,0,0,1,1.09.164,2.277,2.277,0,0,1,.789.449,1.915,1.915,0,0,1,.48.66A1.966,1.966,0,0,1,127.8,10.875Zm-1.3.063a.9.9,0,0,0-.363-.766,1.565,1.565,0,0,0-.965-.273,2.163,2.163,0,0,0-.922.207,2.984,2.984,0,0,0-.82.57,3.56,3.56,0,0,0-.648.867,4.038,4.038,0,0,0-.4,1.09,13.5,13.5,0,0,0,1.9-.113,4.925,4.925,0,0,0,1.273-.332,1.712,1.712,0,0,0,.719-.535A1.2,1.2,0,0,0,126.492,10.938Zm9.781.063a2.545,2.545,0,0,1-.027.32q-.027.2-.07.438t-.086.465q-.043.23-.082.395L135.078,17h-1.3l.977-4.687q.031-.125.063-.289t.055-.328q.023-.164.039-.3a2.008,2.008,0,0,0,.016-.215,1.424,1.424,0,0,0-.285-.937A1.038,1.038,0,0,0,133.8,9.9a1.972,1.972,0,0,0-1.023.3,4.21,4.21,0,0,0-.937.773,5.275,5.275,0,0,0-.738,1.031,3.952,3.952,0,0,0-.418,1.086L129.844,17h-1.3l1.234-5.711q.063-.3.125-.637t.117-.641q.055-.309.094-.574T130.18,9h1.25q-.039.3-.094.637t-.094.613q-.047.328-.1.641h.031a6.607,6.607,0,0,1,.605-.809,4.531,4.531,0,0,1,.719-.664,3.413,3.413,0,0,1,.82-.449,2.55,2.55,0,0,1,.91-.164,2.362,2.362,0,0,1,.914.16,1.712,1.712,0,0,1,.637.449,1.829,1.829,0,0,1,.375.7A3.108,3.108,0,0,1,136.273,11Zm6.211-.914h-2.016l-.9,4.242q-.047.242-.094.523a2.892,2.892,0,0,0-.047.453.789.789,0,0,0,.176.574.764.764,0,0,0,.559.176,1.228,1.228,0,0,0,.242-.031q.148-.031.3-.078t.309-.105l.27-.105-.242,1.125a3.788,3.788,0,0,1-.621.2,2.877,2.877,0,0,1-.66.082,2.234,2.234,0,0,1-.758-.113,1.3,1.3,0,0,1-.512-.324,1.256,1.256,0,0,1-.289-.512,2.359,2.359,0,0,1-.09-.676,3.789,3.789,0,0,1,.043-.527,5.464,5.464,0,0,1,.105-.551l.922-4.352h-1.328L138.1,9h1.313l.414-1.953a2.408,2.408,0,0,1,.238-.074q.207-.059.453-.133l.453-.137.23-.07L140.711,9h2.016Zm6.852,4.352q-.063.3-.121.668t-.1.734q-.043.363-.07.676t-.027.484h-1.328q.008-.156.023-.375t.043-.453q.027-.234.055-.461t.059-.391h-.031q-.242.383-.492.723a3.478,3.478,0,0,1-.555.6,2.429,2.429,0,0,1-.68.406,2.612,2.612,0,0,1-1.84-.039,2.006,2.006,0,0,1-.746-.559,2.574,2.574,0,0,1-.48-.93,4.531,4.531,0,0,1-.168-1.3,6.518,6.518,0,0,1,.094-1.031,6.309,6.309,0,0,1,.316-1.18,6.007,6.007,0,0,1,.594-1.176A4.465,4.465,0,0,1,144.8,9.8a4.4,4.4,0,0,1,1.3-.727,5.051,5.051,0,0,1,1.734-.273,9.22,9.22,0,0,1,1.289.094q.664.094,1.32.227Zm-.367-4.383q-.273-.062-.641-.109a5.447,5.447,0,0,0-.687-.047,3.119,3.119,0,0,0-1.2.215,3.077,3.077,0,0,0-.9.563,3.313,3.313,0,0,0-.645.8,4.965,4.965,0,0,0-.418.926,5.448,5.448,0,0,0-.223.934,5.911,5.911,0,0,0-.066.836,3.744,3.744,0,0,0,.078.8,1.748,1.748,0,0,0,.246.605,1.156,1.156,0,0,0,.43.387,1.325,1.325,0,0,0,.621.137,1.692,1.692,0,0,0,.73-.16,2.532,2.532,0,0,0,.637-.434,3.56,3.56,0,0,0,.539-.633,6.225,6.225,0,0,0,.438-.762,6.515,6.515,0,0,0,.332-.82q.137-.418.223-.809Zm7.953.3h-.031a2.307,2.307,0,0,0-.41-.184,1.5,1.5,0,0,0-.5-.09,1.479,1.479,0,0,0-.867.293,3.188,3.188,0,0,0-.754.773,5.549,5.549,0,0,0-.594,1.1,7.5,7.5,0,0,0-.395,1.266L152.617,17h-1.281l1.125-5.312q.07-.328.141-.687t.129-.719q.059-.359.105-.687t.07-.594h1.266q-.023.234-.055.5t-.062.508q-.031.246-.062.445t-.047.309h.031a8.624,8.624,0,0,1,.508-.8,3.717,3.717,0,0,1,.543-.613,2.3,2.3,0,0,1,.605-.395,1.71,1.71,0,0,1,.7-.141,2.206,2.206,0,0,1,.434.043q.215.043.387.09Zm2.945,6.609a2.994,2.994,0,0,1-.441.1,3.111,3.111,0,0,1-.488.039,1.594,1.594,0,0,1-1.18-.395,1.439,1.439,0,0,1-.391-1.059,3.227,3.227,0,0,1,.039-.461q.039-.266.125-.656L158.7,9h1.3l-1.172,5.57q-.07.328-.1.508a2.078,2.078,0,0,0-.027.3.644.644,0,0,0,.176.488.787.787,0,0,0,.559.168,2.366,2.366,0,0,0,.355-.023,1.575,1.575,0,0,0,.285-.07Zm.914-10.82a.841.841,0,0,1-.238.6.782.782,0,0,1-.59.25.831.831,0,0,1-.6-.246.81.81,0,0,1-.254-.605.749.749,0,0,1,.254-.586.869.869,0,0,1,.6-.227.819.819,0,0,1,.586.23A.769.769,0,0,1,160.781,6.148Zm7.93,5.813a6.659,6.659,0,0,1-.3,2.016,5.153,5.153,0,0,1-.867,1.668,4.19,4.19,0,0,1-1.375,1.133,3.914,3.914,0,0,1-1.824.418,3.33,3.33,0,0,1-1.238-.219,2.576,2.576,0,0,1-.937-.629,2.786,2.786,0,0,1-.594-.992,3.912,3.912,0,0,1-.207-1.316,6.519,6.519,0,0,1,.316-2.059,5.2,5.2,0,0,1,.891-1.664,4.161,4.161,0,0,1,1.375-1.109,3.885,3.885,0,0,1,1.77-.4,3.308,3.308,0,0,1,1.23.219,2.614,2.614,0,0,1,.941.629,2.848,2.848,0,0,1,.605.992A3.783,3.783,0,0,1,168.711,11.961Zm-1.312.063a2.987,2.987,0,0,0-.125-.9,1.919,1.919,0,0,0-.352-.664,1.525,1.525,0,0,0-.547-.414,1.729,1.729,0,0,0-.719-.145,2.272,2.272,0,0,0-1.242.352,3.143,3.143,0,0,0-.937.926,4.591,4.591,0,0,0-.59,1.3,5.46,5.46,0,0,0-.207,1.5,2.988,2.988,0,0,0,.121.879,2,2,0,0,0,.344.672,1.484,1.484,0,0,0,.547.426,1.735,1.735,0,0,0,.73.148,2.3,2.3,0,0,0,1.25-.348,3.1,3.1,0,0,0,.938-.922,4.506,4.506,0,0,0,.586-1.309A5.6,5.6,0,0,0,167.4,12.023Zm7.586-1.617a3.329,3.329,0,0,0-.789-.367,2.845,2.845,0,0,0-.875-.141,1.726,1.726,0,0,0-1.137.336,1.1,1.1,0,0,0-.4.891,1.116,1.116,0,0,0,.074.414,1.25,1.25,0,0,0,.219.355,1.986,1.986,0,0,0,.367.324q.223.156.512.336a4.028,4.028,0,0,1,1.262,1.043A2.01,2.01,0,0,1,174.6,14.8a2.435,2.435,0,0,1-.168.887,2,2,0,0,1-.535.766,2.745,2.745,0,0,1-.949.535,4.331,4.331,0,0,1-1.418.2,4.7,4.7,0,0,1-.516-.031,5.462,5.462,0,0,1-.566-.094,4.941,4.941,0,0,1-.547-.152,2.407,2.407,0,0,1-.457-.207l.258-1.219a2.692,2.692,0,0,0,.387.219,4,4,0,0,0,.5.2,4.673,4.673,0,0,0,.563.141,3.166,3.166,0,0,0,.582.055,1.834,1.834,0,0,0,1.168-.312,1.053,1.053,0,0,0,.387-.867,1.155,1.155,0,0,0-.059-.375,1.052,1.052,0,0,0-.207-.344,2.3,2.3,0,0,0-.391-.348q-.242-.176-.609-.395a3.947,3.947,0,0,1-1.176-1.012,1.992,1.992,0,0,1-.379-1.191,2.432,2.432,0,0,1,.18-.926,2.24,2.24,0,0,1,.535-.781,2.6,2.6,0,0,1,.895-.543,3.559,3.559,0,0,1,1.258-.2,5.018,5.018,0,0,1,1.066.109,3.786,3.786,0,0,1,.855.281Zm7.055.789V10.148h7.344V11.2Zm0,3.328V13.477h7.344v1.047Z" transform="translate(77 12)" fill="#12263f"/>
        <path id="Trazado_908187" data-name="Trazado 908187" d="M102.844,7.367q-.164-.094-.383-.191t-.473-.184q-.254-.086-.523-.148a3.9,3.9,0,0,0-.527-.086l-.93,4.32q.414.3.8.625a5.324,5.324,0,0,1,.691.676,3.245,3.245,0,0,1,.484.762,2.118,2.118,0,0,1,.184.883A3.447,3.447,0,0,1,102,15.082a2.637,2.637,0,0,1-.574.977,3.174,3.174,0,0,1-1.062.738,4.312,4.312,0,0,1-1.629.328L98.4,18.633h-.8l.32-1.523a5.563,5.563,0,0,1-.687-.078q-.359-.062-.687-.148T95.93,16.7a3.5,3.5,0,0,1-.461-.191l.219-1.266a4.014,4.014,0,0,0,.512.273,6.423,6.423,0,0,0,.621.242q.328.109.664.188a5.158,5.158,0,0,0,.641.109l.891-4.141q-.477-.344-.883-.676a4.568,4.568,0,0,1-.7-.7,2.961,2.961,0,0,1-.457-.816,2.9,2.9,0,0,1-.164-1.008,2.811,2.811,0,0,1,.254-1.191,2.859,2.859,0,0,1,.715-.957,3.456,3.456,0,0,1,1.113-.645,4.323,4.323,0,0,1,1.449-.246l.273-1.3h.82L101.148,5.7a5.513,5.513,0,0,1,1.055.18,7,7,0,0,1,.867.289Zm-2.734-.625a2.4,2.4,0,0,0-.863.2,1.956,1.956,0,0,0-.621.441,1.813,1.813,0,0,0-.375.605,1.957,1.957,0,0,0-.125.688,1.743,1.743,0,0,0,.086.555,1.917,1.917,0,0,0,.242.484,2.708,2.708,0,0,0,.371.43,6.035,6.035,0,0,0,.48.406Zm.75,7.406a1.492,1.492,0,0,0-.062-.434,1.654,1.654,0,0,0-.2-.414,2.471,2.471,0,0,0-.352-.422,6.057,6.057,0,0,0-.531-.457l-.75,3.633a2.347,2.347,0,0,0,.863-.215,1.877,1.877,0,0,0,.586-.437,1.652,1.652,0,0,0,.336-.586A2.146,2.146,0,0,0,100.859,14.148ZM107.109,17,109.2,7.242l-2.766.75.273-1.234,4.109-1.148L108.406,17Zm5.539-2.7a3.246,3.246,0,0,1,.789-2.145,3.708,3.708,0,0,1,2.063-1.238,2.706,2.706,0,0,1-.859-.891,2.439,2.439,0,0,1-.336-1.289,2.93,2.93,0,0,1,.461-1.6,3.077,3.077,0,0,1,1.293-1.129,4.317,4.317,0,0,1,1.9-.4,2.9,2.9,0,0,1,2,.672,2.255,2.255,0,0,1,.758,1.773,2.858,2.858,0,0,1-.555,1.754,3.28,3.28,0,0,1-1.6,1.113,2.316,2.316,0,0,1,1.086.953,2.8,2.8,0,0,1,.406,1.492,3.6,3.6,0,0,1-.547,1.93A3.794,3.794,0,0,1,118,16.68a4.468,4.468,0,0,1-2.094.5,3.589,3.589,0,0,1-2.4-.73A2.664,2.664,0,0,1,112.648,14.3Zm1.422-.047a1.732,1.732,0,0,0,.5,1.3,2.007,2.007,0,0,0,1.453.484,2.682,2.682,0,0,0,2.309-1.336,2.67,2.67,0,0,0,.371-1.375A1.817,1.817,0,0,0,118.2,12a1.776,1.776,0,0,0-1.324-.512,2.852,2.852,0,0,0-2.426,1.379A2.663,2.663,0,0,0,114.07,14.258ZM115.6,8.906a1.494,1.494,0,0,0,.434,1.109,1.535,1.535,0,0,0,1.129.43,2.162,2.162,0,0,0,1.059-.293,2.337,2.337,0,0,0,.852-.8,2.067,2.067,0,0,0,.324-1.129,1.488,1.488,0,0,0-.43-1.105,1.581,1.581,0,0,0-1.164-.426,2.188,2.188,0,0,0-2.2,2.219Zm13.531.586a10.617,10.617,0,0,1-.172,1.879,9.587,9.587,0,0,1-.523,1.844,8.285,8.285,0,0,1-.879,1.652,5.631,5.631,0,0,1-1.238,1.3,4.894,4.894,0,0,1-1.484.777,5.481,5.481,0,0,1-1.656.246,5.849,5.849,0,0,1-1.1-.094,2.74,2.74,0,0,1-.738-.227l.172-1.219a3.992,3.992,0,0,0,.707.3,3.231,3.231,0,0,0,1.02.145,3.779,3.779,0,0,0,1.266-.215,3.663,3.663,0,0,0,1.086-.6,4.248,4.248,0,0,0,.727-.711,6.1,6.1,0,0,0,.613-.922,7.607,7.607,0,0,0,.488-1.1,8.454,8.454,0,0,0,.336-1.25h-.031a3.819,3.819,0,0,1-.508.648,3.264,3.264,0,0,1-.633.508,3.066,3.066,0,0,1-.742.328,2.947,2.947,0,0,1-.836.117,2.911,2.911,0,0,1-1.379-.3,2.643,2.643,0,0,1-.9-.754,2.964,2.964,0,0,1-.488-1.012,4.109,4.109,0,0,1-.148-1.062,4.873,4.873,0,0,1,.1-.957,4.511,4.511,0,0,1,.3-.953,4.38,4.38,0,0,1,.52-.875,3.455,3.455,0,0,1,1.715-1.207,3.927,3.927,0,0,1,1.223-.18,3.152,3.152,0,0,1,1.4.293,2.727,2.727,0,0,1,.992.816,3.624,3.624,0,0,1,.59,1.23A5.781,5.781,0,0,1,129.133,9.492Zm-1.312-.336a3.391,3.391,0,0,0-.141-1.008,2.311,2.311,0,0,0-.4-.773,1.843,1.843,0,0,0-.617-.5,1.757,1.757,0,0,0-.8-.18,2.138,2.138,0,0,0-1.043.25,2.453,2.453,0,0,0-.773.66,2.944,2.944,0,0,0-.48.945,3.75,3.75,0,0,0-.164,1.105,3.049,3.049,0,0,0,.1.777,2,2,0,0,0,.328.691,1.721,1.721,0,0,0,.59.5,1.883,1.883,0,0,0,.887.191,2.473,2.473,0,0,0,1.133-.242,2.309,2.309,0,0,0,.781-.629,2.61,2.61,0,0,0,.449-.859A3.156,3.156,0,0,0,127.82,9.156Zm3.477,7.156a.854.854,0,0,1-.25.609.9.9,0,0,1-.277.188.836.836,0,0,1-.34.07.809.809,0,0,1-.336-.07.912.912,0,0,1-.273-.187.854.854,0,0,1-.25-.609.879.879,0,0,1,.066-.34.845.845,0,0,1,.184-.277.854.854,0,0,1,.609-.25.878.878,0,0,1,.34.066.834.834,0,0,1,.461.461A.879.879,0,0,1,131.3,16.313ZM141.32,7.141a3.481,3.481,0,0,0-.789-.316,3.7,3.7,0,0,0-1-.129,3.229,3.229,0,0,0-1.2.227,3.742,3.742,0,0,0-1.055.641,4.336,4.336,0,0,0-.734.785,7.052,7.052,0,0,0-.605.988,8.462,8.462,0,0,0-.465,1.105,8.669,8.669,0,0,0-.3,1.137h.031a3.291,3.291,0,0,1,.492-.625,3.38,3.38,0,0,1,.645-.5,3.22,3.22,0,0,1,.773-.336,3.369,3.369,0,0,1,2.09.1,2.361,2.361,0,0,1,.875.617,2.659,2.659,0,0,1,.531.953,3.991,3.991,0,0,1,.18,1.234,4.882,4.882,0,0,1-.246,1.531,4.148,4.148,0,0,1-.727,1.34,3.647,3.647,0,0,1-1.184.949,3.487,3.487,0,0,1-1.609.359,3.444,3.444,0,0,1-1.312-.242,2.66,2.66,0,0,1-1.02-.734,3.446,3.446,0,0,1-.66-1.234,5.8,5.8,0,0,1-.234-1.742,9.994,9.994,0,0,1,.191-1.965,9.442,9.442,0,0,1,.547-1.8,7.994,7.994,0,0,1,.859-1.555,5.857,5.857,0,0,1,1.137-1.207,4.953,4.953,0,0,1,1.527-.832,5.193,5.193,0,0,1,1.637-.27,5.33,5.33,0,0,1,1.105.105,5.6,5.6,0,0,1,.785.215Zm-1.852,5.984a2.73,2.73,0,0,0-.113-.8,1.772,1.772,0,0,0-.348-.645,1.6,1.6,0,0,0-.6-.43,2.226,2.226,0,0,0-.875-.156,2.273,2.273,0,0,0-1.812.82,2.584,2.584,0,0,0-.461.828,2.879,2.879,0,0,0-.156.93,3.352,3.352,0,0,0,.141,1,2.271,2.271,0,0,0,.4.766,1.749,1.749,0,0,0,.629.488,1.957,1.957,0,0,0,.832.172,1.977,1.977,0,0,0,1-.254,2.366,2.366,0,0,0,.742-.668,3.117,3.117,0,0,0,.461-.953A3.848,3.848,0,0,0,139.469,13.125Zm10.609-4.2q0,.586-.055,1.223t-.172,1.285a12.947,12.947,0,0,1-.3,1.285,10.137,10.137,0,0,1-.441,1.23,8.317,8.317,0,0,1-.59,1.121,5.918,5.918,0,0,1-.746.957,3.614,3.614,0,0,1-2.7,1.172,2.709,2.709,0,0,1-1.16-.246,2.479,2.479,0,0,1-.9-.719,3.438,3.438,0,0,1-.582-1.164,5.551,5.551,0,0,1-.207-1.59,11.938,11.938,0,0,1,.141-1.793,11.1,11.1,0,0,1,.43-1.8,9.769,9.769,0,0,1,.719-1.66,6.19,6.19,0,0,1,1.016-1.375,4.13,4.13,0,0,1,1.242-.91,3.6,3.6,0,0,1,1.555-.324,2.927,2.927,0,0,1,1.133.211,2.318,2.318,0,0,1,.871.629,2.879,2.879,0,0,1,.559,1.035A4.775,4.775,0,0,1,150.078,8.922Zm-1.3.109a3.111,3.111,0,0,0-.406-1.715A1.323,1.323,0,0,0,147.2,6.7a1.944,1.944,0,0,0-.867.2,2.953,2.953,0,0,0-.8.6,4.512,4.512,0,0,0-.574.762,7.791,7.791,0,0,0-.492.953,10.052,10.052,0,0,0-.395,1.074q-.172.563-.293,1.125t-.184,1.1a8.78,8.78,0,0,0-.062,1.008,4.622,4.622,0,0,0,.129,1.168,2.446,2.446,0,0,0,.355.8,1.412,1.412,0,0,0,.535.465,1.5,1.5,0,0,0,.66.148,1.958,1.958,0,0,0,.828-.187,2.451,2.451,0,0,0,.758-.562,5.036,5.036,0,0,0,.773-1.152,10.288,10.288,0,0,0,.629-1.559,13.046,13.046,0,0,0,.426-1.785A11.042,11.042,0,0,0,148.781,9.031Zm9.922-.109q0,.586-.055,1.223t-.172,1.285a12.947,12.947,0,0,1-.3,1.285,10.137,10.137,0,0,1-.441,1.23,8.317,8.317,0,0,1-.59,1.121,5.918,5.918,0,0,1-.746.957,3.614,3.614,0,0,1-2.7,1.172,2.709,2.709,0,0,1-1.16-.246,2.479,2.479,0,0,1-.9-.719,3.438,3.438,0,0,1-.582-1.164,5.551,5.551,0,0,1-.207-1.59,11.938,11.938,0,0,1,.141-1.793,11.1,11.1,0,0,1,.43-1.8,9.769,9.769,0,0,1,.719-1.66,6.19,6.19,0,0,1,1.016-1.375,4.13,4.13,0,0,1,1.242-.91,3.6,3.6,0,0,1,1.555-.324,2.927,2.927,0,0,1,1.133.211,2.318,2.318,0,0,1,.871.629,2.879,2.879,0,0,1,.559,1.035A4.775,4.775,0,0,1,158.7,8.922Zm-1.3.109A3.111,3.111,0,0,0,157,7.316a1.323,1.323,0,0,0-1.18-.621,1.944,1.944,0,0,0-.867.2,2.953,2.953,0,0,0-.8.6,4.512,4.512,0,0,0-.574.762,7.791,7.791,0,0,0-.492.953,10.052,10.052,0,0,0-.395,1.074q-.172.563-.293,1.125t-.184,1.1a8.78,8.78,0,0,0-.062,1.008,4.622,4.622,0,0,0,.129,1.168,2.446,2.446,0,0,0,.355.8,1.412,1.412,0,0,0,.535.465,1.5,1.5,0,0,0,.66.148,1.958,1.958,0,0,0,.828-.187,2.451,2.451,0,0,0,.758-.562A5.036,5.036,0,0,0,156.2,14.2a10.288,10.288,0,0,0,.629-1.559,13.046,13.046,0,0,0,.426-1.785A11.042,11.042,0,0,0,157.406,9.031Zm3.25,7.281a.854.854,0,0,1-.25.609.9.9,0,0,1-.277.188.836.836,0,0,1-.34.07.809.809,0,0,1-.336-.07.912.912,0,0,1-.273-.187.854.854,0,0,1-.25-.609.879.879,0,0,1,.066-.34.845.845,0,0,1,.184-.277.854.854,0,0,1,.609-.25.878.878,0,0,1,.34.066.834.834,0,0,1,.461.461A.879.879,0,0,1,160.656,16.313Zm10.156-7.391q0,.586-.055,1.223t-.172,1.285a12.947,12.947,0,0,1-.3,1.285,10.137,10.137,0,0,1-.441,1.23,8.317,8.317,0,0,1-.59,1.121,5.918,5.918,0,0,1-.746.957,3.614,3.614,0,0,1-2.7,1.172,2.709,2.709,0,0,1-1.16-.246,2.479,2.479,0,0,1-.9-.719,3.438,3.438,0,0,1-.582-1.164,5.551,5.551,0,0,1-.207-1.59,11.938,11.938,0,0,1,.141-1.793,11.1,11.1,0,0,1,.43-1.8,9.769,9.769,0,0,1,.719-1.66,6.19,6.19,0,0,1,1.016-1.375,4.13,4.13,0,0,1,1.242-.91,3.6,3.6,0,0,1,1.555-.324,2.927,2.927,0,0,1,1.133.211,2.318,2.318,0,0,1,.871.629,2.879,2.879,0,0,1,.559,1.035A4.775,4.775,0,0,1,170.813,8.922Zm-1.3.109a3.111,3.111,0,0,0-.406-1.715,1.323,1.323,0,0,0-1.18-.621,1.944,1.944,0,0,0-.867.2,2.953,2.953,0,0,0-.8.6,4.512,4.512,0,0,0-.574.762,7.791,7.791,0,0,0-.492.953,10.052,10.052,0,0,0-.395,1.074q-.172.563-.293,1.125t-.184,1.1a8.78,8.78,0,0,0-.062,1.008,4.622,4.622,0,0,0,.129,1.168,2.446,2.446,0,0,0,.355.8,1.412,1.412,0,0,0,.535.465,1.5,1.5,0,0,0,.66.148,1.958,1.958,0,0,0,.828-.187,2.451,2.451,0,0,0,.758-.562A5.036,5.036,0,0,0,168.3,14.2a10.288,10.288,0,0,0,.629-1.559,13.046,13.046,0,0,0,.426-1.785A11.042,11.042,0,0,0,169.516,9.031Zm9.922-.109q0,.586-.055,1.223t-.172,1.285a12.947,12.947,0,0,1-.3,1.285,10.137,10.137,0,0,1-.441,1.23,8.317,8.317,0,0,1-.59,1.121,5.918,5.918,0,0,1-.746.957,3.614,3.614,0,0,1-2.7,1.172,2.709,2.709,0,0,1-1.16-.246,2.479,2.479,0,0,1-.9-.719,3.438,3.438,0,0,1-.582-1.164,5.551,5.551,0,0,1-.207-1.59,11.938,11.938,0,0,1,.141-1.793,11.1,11.1,0,0,1,.43-1.8,9.769,9.769,0,0,1,.719-1.66,6.19,6.19,0,0,1,1.016-1.375,4.13,4.13,0,0,1,1.242-.91,3.6,3.6,0,0,1,1.555-.324,2.927,2.927,0,0,1,1.133.211,2.318,2.318,0,0,1,.871.629,2.879,2.879,0,0,1,.559,1.035A4.775,4.775,0,0,1,179.438,8.922Zm-1.3.109a3.111,3.111,0,0,0-.406-1.715,1.323,1.323,0,0,0-1.18-.621,1.944,1.944,0,0,0-.867.2,2.953,2.953,0,0,0-.8.6,4.512,4.512,0,0,0-.574.762,7.791,7.791,0,0,0-.492.953,10.052,10.052,0,0,0-.395,1.074q-.172.563-.293,1.125t-.184,1.1a8.78,8.78,0,0,0-.062,1.008,4.622,4.622,0,0,0,.129,1.168,2.446,2.446,0,0,0,.355.8,1.412,1.412,0,0,0,.535.465,1.5,1.5,0,0,0,.66.148,1.958,1.958,0,0,0,.828-.187,2.451,2.451,0,0,0,.758-.562,5.036,5.036,0,0,0,.773-1.152,10.288,10.288,0,0,0,.629-1.559,13.046,13.046,0,0,0,.426-1.785A11.042,11.042,0,0,0,178.141,9.031Zm9.922-.109q0,.586-.055,1.223t-.172,1.285a12.947,12.947,0,0,1-.3,1.285,10.137,10.137,0,0,1-.441,1.23,8.317,8.317,0,0,1-.59,1.121,5.918,5.918,0,0,1-.746.957,3.614,3.614,0,0,1-2.7,1.172,2.709,2.709,0,0,1-1.16-.246,2.479,2.479,0,0,1-.9-.719,3.438,3.438,0,0,1-.582-1.164,5.551,5.551,0,0,1-.207-1.59,11.938,11.938,0,0,1,.141-1.793,11.1,11.1,0,0,1,.43-1.8,9.769,9.769,0,0,1,.719-1.66,6.19,6.19,0,0,1,1.016-1.375,4.13,4.13,0,0,1,1.242-.91,3.6,3.6,0,0,1,1.555-.324,2.927,2.927,0,0,1,1.133.211,2.318,2.318,0,0,1,.871.629,2.879,2.879,0,0,1,.559,1.035A4.775,4.775,0,0,1,188.063,8.922Zm-1.3.109a3.111,3.111,0,0,0-.406-1.715,1.323,1.323,0,0,0-1.18-.621,1.944,1.944,0,0,0-.867.2,2.953,2.953,0,0,0-.8.6,4.512,4.512,0,0,0-.574.762,7.791,7.791,0,0,0-.492.953,10.052,10.052,0,0,0-.395,1.074q-.172.563-.293,1.125t-.184,1.1a8.78,8.78,0,0,0-.062,1.008,4.622,4.622,0,0,0,.129,1.168,2.446,2.446,0,0,0,.355.8,1.412,1.412,0,0,0,.535.465,1.5,1.5,0,0,0,.66.148,1.958,1.958,0,0,0,.828-.187,2.451,2.451,0,0,0,.758-.562,5.036,5.036,0,0,0,.773-1.152,10.288,10.288,0,0,0,.629-1.559,13.046,13.046,0,0,0,.426-1.785A11.042,11.042,0,0,0,186.766,9.031ZM41.031,29.8a18.768,18.768,0,0,0-1.746,1.969,13.3,13.3,0,0,0-1.324,2.1,11.049,11.049,0,0,0-.844,2.254,9.991,9.991,0,0,0-.215,3.7,9.556,9.556,0,0,0,.246,1.25,10.148,10.148,0,0,0,.4,1.191,7.436,7.436,0,0,0,.539,1.078h-1.1a7.428,7.428,0,0,1-.574-1.1A9.192,9.192,0,0,1,36,41.047a9.557,9.557,0,0,1-.246-1.227,9.129,9.129,0,0,1-.082-1.2,10.858,10.858,0,0,1,.289-2.551,11.1,11.1,0,0,1,.82-2.285,12.112,12.112,0,0,1,1.293-2.074,18.134,18.134,0,0,1,1.707-1.91Zm6.469,1.57q-.164-.094-.383-.191t-.473-.184q-.254-.086-.523-.148a3.9,3.9,0,0,0-.527-.086l-.93,4.32q.414.3.8.625a5.323,5.323,0,0,1,.691.676,3.245,3.245,0,0,1,.484.762,2.118,2.118,0,0,1,.184.883,3.448,3.448,0,0,1-.172,1.059,2.637,2.637,0,0,1-.574.977,3.174,3.174,0,0,1-1.062.738,4.312,4.312,0,0,1-1.629.328l-.336,1.508h-.8l.32-1.523a5.562,5.562,0,0,1-.687-.078q-.359-.063-.687-.148t-.609-.184a3.5,3.5,0,0,1-.461-.191l.219-1.266a4.014,4.014,0,0,0,.512.273,6.423,6.423,0,0,0,.621.242q.328.109.664.188a5.158,5.158,0,0,0,.641.109l.891-4.141q-.477-.344-.883-.676a4.568,4.568,0,0,1-.7-.7,2.961,2.961,0,0,1-.457-.816,2.9,2.9,0,0,1-.164-1.008,2.811,2.811,0,0,1,.254-1.191,2.859,2.859,0,0,1,.715-.957,3.456,3.456,0,0,1,1.113-.645A4.323,4.323,0,0,1,45,29.672l.273-1.3h.82L45.8,29.7a5.513,5.513,0,0,1,1.055.18,7,7,0,0,1,.867.289Zm-2.734-.625a2.4,2.4,0,0,0-.863.2,1.956,1.956,0,0,0-.621.441,1.813,1.813,0,0,0-.375.605,1.957,1.957,0,0,0-.125.688,1.743,1.743,0,0,0,.086.555,1.917,1.917,0,0,0,.242.484,2.708,2.708,0,0,0,.371.43,6.036,6.036,0,0,0,.48.406Zm.75,7.406a1.492,1.492,0,0,0-.062-.434,1.654,1.654,0,0,0-.2-.414,2.471,2.471,0,0,0-.352-.422,6.056,6.056,0,0,0-.531-.457l-.75,3.633a2.347,2.347,0,0,0,.863-.215,1.877,1.877,0,0,0,.586-.437,1.652,1.652,0,0,0,.336-.586A2.146,2.146,0,0,0,45.516,38.148Zm7.563.156a3.246,3.246,0,0,1,.789-2.145,3.708,3.708,0,0,1,2.063-1.238,2.706,2.706,0,0,1-.859-.891,2.439,2.439,0,0,1-.336-1.289,2.93,2.93,0,0,1,.461-1.6,3.077,3.077,0,0,1,1.293-1.129,4.317,4.317,0,0,1,1.9-.4,2.9,2.9,0,0,1,2,.672,2.255,2.255,0,0,1,.758,1.773,2.858,2.858,0,0,1-.555,1.754,3.28,3.28,0,0,1-1.6,1.113,2.316,2.316,0,0,1,1.086.953,2.8,2.8,0,0,1,.406,1.492,3.6,3.6,0,0,1-.547,1.93A3.794,3.794,0,0,1,58.43,40.68a4.468,4.468,0,0,1-2.094.5,3.589,3.589,0,0,1-2.4-.73A2.664,2.664,0,0,1,53.078,38.3Zm1.422-.047a1.732,1.732,0,0,0,.5,1.3,2.007,2.007,0,0,0,1.453.484,2.682,2.682,0,0,0,2.309-1.336,2.67,2.67,0,0,0,.371-1.375,1.817,1.817,0,0,0-.5-1.332,1.776,1.776,0,0,0-1.324-.512,2.852,2.852,0,0,0-2.426,1.379A2.663,2.663,0,0,0,54.5,38.258Zm1.531-5.352a1.494,1.494,0,0,0,.434,1.109,1.535,1.535,0,0,0,1.129.43,2.162,2.162,0,0,0,1.059-.293,2.337,2.337,0,0,0,.852-.8,2.067,2.067,0,0,0,.324-1.129,1.488,1.488,0,0,0-.43-1.105,1.581,1.581,0,0,0-1.164-.426,2.188,2.188,0,0,0-2.2,2.219Zm13.609-1.766a3.482,3.482,0,0,0-.789-.316,3.7,3.7,0,0,0-1-.129,3.229,3.229,0,0,0-1.2.227,3.742,3.742,0,0,0-1.055.641,4.337,4.337,0,0,0-.734.785,7.051,7.051,0,0,0-.605.988,8.463,8.463,0,0,0-.465,1.105,8.668,8.668,0,0,0-.3,1.137h.031a3.29,3.29,0,0,1,.492-.625,3.381,3.381,0,0,1,.645-.5,3.22,3.22,0,0,1,.773-.336,3.369,3.369,0,0,1,2.09.1,2.361,2.361,0,0,1,.875.617,2.659,2.659,0,0,1,.531.953,3.991,3.991,0,0,1,.18,1.234,4.882,4.882,0,0,1-.246,1.531,4.148,4.148,0,0,1-.727,1.34,3.646,3.646,0,0,1-1.184.949,3.487,3.487,0,0,1-1.609.359,3.444,3.444,0,0,1-1.312-.242A2.66,2.66,0,0,1,63,40.219a3.446,3.446,0,0,1-.66-1.234,5.8,5.8,0,0,1-.234-1.742,9.995,9.995,0,0,1,.191-1.965,9.442,9.442,0,0,1,.547-1.8,7.994,7.994,0,0,1,.859-1.555,5.857,5.857,0,0,1,1.137-1.207,4.953,4.953,0,0,1,1.527-.832,5.193,5.193,0,0,1,1.637-.27,5.33,5.33,0,0,1,1.105.105,5.6,5.6,0,0,1,.785.215Zm-1.852,5.984a2.73,2.73,0,0,0-.113-.8,1.772,1.772,0,0,0-.348-.645,1.6,1.6,0,0,0-.6-.43,2.226,2.226,0,0,0-.875-.156,2.273,2.273,0,0,0-1.812.82,2.584,2.584,0,0,0-.461.828,2.879,2.879,0,0,0-.156.93,3.352,3.352,0,0,0,.141,1,2.271,2.271,0,0,0,.4.766,1.749,1.749,0,0,0,.629.488,1.957,1.957,0,0,0,.832.172,1.977,1.977,0,0,0,1-.254,2.366,2.366,0,0,0,.742-.668,3.117,3.117,0,0,0,.461-.953A3.848,3.848,0,0,0,67.789,37.125Zm3.938,3.188a.854.854,0,0,1-.25.609.9.9,0,0,1-.277.188.836.836,0,0,1-.34.07.809.809,0,0,1-.336-.07.912.912,0,0,1-.273-.187.854.854,0,0,1-.25-.609.878.878,0,0,1,.066-.34.845.845,0,0,1,.184-.277.854.854,0,0,1,.609-.25.878.878,0,0,1,.34.066.834.834,0,0,1,.461.461A.878.878,0,0,1,71.727,40.313ZM81.539,29.8l-1.57,7.4h1.469l-.25,1.172H79.719L79.156,41H77.891l.563-2.633H73.2l.234-1.109a48.652,48.652,0,0,0,3.477-3.523q1.781-1.984,3.219-3.937ZM78.7,37.2l1.141-5.367A56.664,56.664,0,0,1,74.953,37.2Zm11.8-4.273q0,.586-.055,1.223t-.172,1.285a12.945,12.945,0,0,1-.3,1.285,10.138,10.138,0,0,1-.441,1.23,8.318,8.318,0,0,1-.59,1.121,5.918,5.918,0,0,1-.746.957A3.614,3.614,0,0,1,85.5,41.2a2.709,2.709,0,0,1-1.16-.246,2.479,2.479,0,0,1-.9-.719,3.438,3.438,0,0,1-.582-1.164,5.551,5.551,0,0,1-.207-1.59,11.938,11.938,0,0,1,.141-1.793,11.1,11.1,0,0,1,.43-1.8,9.769,9.769,0,0,1,.719-1.66,6.191,6.191,0,0,1,1.016-1.375,4.129,4.129,0,0,1,1.242-.91,3.6,3.6,0,0,1,1.555-.324,2.927,2.927,0,0,1,1.133.211,2.318,2.318,0,0,1,.871.629,2.879,2.879,0,0,1,.559,1.035A4.774,4.774,0,0,1,90.508,32.922Zm-1.3.109a3.111,3.111,0,0,0-.406-1.715,1.323,1.323,0,0,0-1.18-.621,1.944,1.944,0,0,0-.867.2,2.953,2.953,0,0,0-.8.6,4.512,4.512,0,0,0-.574.762,7.791,7.791,0,0,0-.492.953,10.054,10.054,0,0,0-.395,1.074q-.172.563-.293,1.125t-.184,1.1a8.781,8.781,0,0,0-.062,1.008,4.622,4.622,0,0,0,.129,1.168,2.446,2.446,0,0,0,.355.8,1.412,1.412,0,0,0,.535.465,1.5,1.5,0,0,0,.66.148,1.958,1.958,0,0,0,.828-.187,2.451,2.451,0,0,0,.758-.562A5.037,5.037,0,0,0,88,38.2a10.287,10.287,0,0,0,.629-1.559,13.045,13.045,0,0,0,.426-1.785A11.043,11.043,0,0,0,89.211,33.031Zm9.922-.109q0,.586-.055,1.223t-.172,1.285a12.945,12.945,0,0,1-.3,1.285,10.138,10.138,0,0,1-.441,1.23,8.318,8.318,0,0,1-.59,1.121,5.918,5.918,0,0,1-.746.957,3.614,3.614,0,0,1-2.7,1.172,2.709,2.709,0,0,1-1.16-.246,2.479,2.479,0,0,1-.9-.719,3.438,3.438,0,0,1-.582-1.164,5.551,5.551,0,0,1-.207-1.59,11.938,11.938,0,0,1,.141-1.793,11.1,11.1,0,0,1,.43-1.8,9.769,9.769,0,0,1,.719-1.66,6.191,6.191,0,0,1,1.016-1.375,4.129,4.129,0,0,1,1.242-.91,3.6,3.6,0,0,1,1.555-.324,2.927,2.927,0,0,1,1.133.211,2.318,2.318,0,0,1,.871.629,2.879,2.879,0,0,1,.559,1.035A4.774,4.774,0,0,1,99.133,32.922Zm-1.3.109a3.111,3.111,0,0,0-.406-1.715,1.323,1.323,0,0,0-1.18-.621,1.944,1.944,0,0,0-.867.2,2.953,2.953,0,0,0-.8.6,4.512,4.512,0,0,0-.574.762,7.791,7.791,0,0,0-.492.953,10.054,10.054,0,0,0-.395,1.074q-.172.563-.293,1.125t-.184,1.1a8.781,8.781,0,0,0-.062,1.008,4.622,4.622,0,0,0,.129,1.168,2.446,2.446,0,0,0,.355.8,1.412,1.412,0,0,0,.535.465,1.5,1.5,0,0,0,.66.148,1.958,1.958,0,0,0,.828-.187,2.451,2.451,0,0,0,.758-.562,5.037,5.037,0,0,0,.773-1.152,10.287,10.287,0,0,0,.629-1.559,13.045,13.045,0,0,0,.426-1.785A11.043,11.043,0,0,0,97.836,33.031Zm3.25,7.281a.854.854,0,0,1-.25.609.9.9,0,0,1-.277.188.836.836,0,0,1-.34.07.809.809,0,0,1-.336-.07.912.912,0,0,1-.273-.187.854.854,0,0,1-.25-.609.878.878,0,0,1,.066-.34.845.845,0,0,1,.184-.277.854.854,0,0,1,.609-.25.878.878,0,0,1,.34.066.834.834,0,0,1,.461.461A.878.878,0,0,1,101.086,40.313Zm10.156-7.391q0,.586-.055,1.223t-.172,1.285a12.945,12.945,0,0,1-.3,1.285,10.138,10.138,0,0,1-.441,1.23,8.318,8.318,0,0,1-.59,1.121,5.918,5.918,0,0,1-.746.957,3.614,3.614,0,0,1-2.7,1.172,2.709,2.709,0,0,1-1.16-.246,2.479,2.479,0,0,1-.9-.719,3.438,3.438,0,0,1-.582-1.164,5.551,5.551,0,0,1-.207-1.59,11.938,11.938,0,0,1,.141-1.793,11.1,11.1,0,0,1,.43-1.8,9.769,9.769,0,0,1,.719-1.66,6.191,6.191,0,0,1,1.016-1.375,4.129,4.129,0,0,1,1.242-.91,3.6,3.6,0,0,1,1.555-.324,2.927,2.927,0,0,1,1.133.211,2.318,2.318,0,0,1,.871.629,2.879,2.879,0,0,1,.559,1.035A4.774,4.774,0,0,1,111.242,32.922Zm-1.3.109a3.111,3.111,0,0,0-.406-1.715,1.323,1.323,0,0,0-1.18-.621,1.944,1.944,0,0,0-.867.2,2.953,2.953,0,0,0-.8.6,4.512,4.512,0,0,0-.574.762,7.791,7.791,0,0,0-.492.953,10.054,10.054,0,0,0-.395,1.074q-.172.563-.293,1.125t-.184,1.1a8.781,8.781,0,0,0-.062,1.008,4.622,4.622,0,0,0,.129,1.168,2.446,2.446,0,0,0,.355.8,1.412,1.412,0,0,0,.535.465,1.5,1.5,0,0,0,.66.148,1.958,1.958,0,0,0,.828-.187,2.451,2.451,0,0,0,.758-.562,5.037,5.037,0,0,0,.773-1.152,10.287,10.287,0,0,0,.629-1.559,13.045,13.045,0,0,0,.426-1.785A11.043,11.043,0,0,0,109.945,33.031Zm9.922-.109q0,.586-.055,1.223t-.172,1.285a12.945,12.945,0,0,1-.3,1.285,10.138,10.138,0,0,1-.441,1.23,8.318,8.318,0,0,1-.59,1.121,5.918,5.918,0,0,1-.746.957,3.614,3.614,0,0,1-2.7,1.172,2.709,2.709,0,0,1-1.16-.246,2.479,2.479,0,0,1-.9-.719,3.438,3.438,0,0,1-.582-1.164,5.551,5.551,0,0,1-.207-1.59,11.938,11.938,0,0,1,.141-1.793,11.1,11.1,0,0,1,.43-1.8,9.769,9.769,0,0,1,.719-1.66,6.191,6.191,0,0,1,1.016-1.375,4.129,4.129,0,0,1,1.242-.91,3.6,3.6,0,0,1,1.555-.324,2.927,2.927,0,0,1,1.133.211,2.318,2.318,0,0,1,.871.629,2.879,2.879,0,0,1,.559,1.035A4.774,4.774,0,0,1,119.867,32.922Zm-1.3.109a3.111,3.111,0,0,0-.406-1.715,1.323,1.323,0,0,0-1.18-.621,1.944,1.944,0,0,0-.867.2,2.953,2.953,0,0,0-.8.6,4.512,4.512,0,0,0-.574.762,7.791,7.791,0,0,0-.492.953,10.054,10.054,0,0,0-.395,1.074q-.172.563-.293,1.125t-.184,1.1a8.781,8.781,0,0,0-.062,1.008,4.622,4.622,0,0,0,.129,1.168,2.446,2.446,0,0,0,.355.8,1.412,1.412,0,0,0,.535.465,1.5,1.5,0,0,0,.66.148,1.958,1.958,0,0,0,.828-.187,2.451,2.451,0,0,0,.758-.562,5.037,5.037,0,0,0,.773-1.152,10.287,10.287,0,0,0,.629-1.559,13.045,13.045,0,0,0,.426-1.785A11.043,11.043,0,0,0,118.57,33.031Zm9.922-.109q0,.586-.055,1.223t-.172,1.285a12.947,12.947,0,0,1-.3,1.285,10.138,10.138,0,0,1-.441,1.23,8.318,8.318,0,0,1-.59,1.121,5.918,5.918,0,0,1-.746.957,3.614,3.614,0,0,1-2.7,1.172,2.709,2.709,0,0,1-1.16-.246,2.479,2.479,0,0,1-.9-.719,3.438,3.438,0,0,1-.582-1.164,5.551,5.551,0,0,1-.207-1.59,11.938,11.938,0,0,1,.141-1.793,11.1,11.1,0,0,1,.43-1.8,9.769,9.769,0,0,1,.719-1.66,6.191,6.191,0,0,1,1.016-1.375,4.129,4.129,0,0,1,1.242-.91,3.6,3.6,0,0,1,1.555-.324,2.927,2.927,0,0,1,1.133.211,2.318,2.318,0,0,1,.871.629,2.879,2.879,0,0,1,.559,1.035A4.775,4.775,0,0,1,128.492,32.922Zm-1.3.109a3.111,3.111,0,0,0-.406-1.715,1.323,1.323,0,0,0-1.18-.621,1.944,1.944,0,0,0-.867.2,2.953,2.953,0,0,0-.8.6,4.512,4.512,0,0,0-.574.762,7.791,7.791,0,0,0-.492.953,10.054,10.054,0,0,0-.395,1.074q-.172.563-.293,1.125t-.184,1.1a8.781,8.781,0,0,0-.062,1.008,4.622,4.622,0,0,0,.129,1.168,2.446,2.446,0,0,0,.355.8,1.412,1.412,0,0,0,.535.465,1.5,1.5,0,0,0,.66.148,1.958,1.958,0,0,0,.828-.187,2.451,2.451,0,0,0,.758-.562,5.037,5.037,0,0,0,.773-1.152,10.287,10.287,0,0,0,.629-1.559,13.045,13.045,0,0,0,.426-1.785A11.043,11.043,0,0,0,127.2,33.031Zm7.539,3.828v3.148h-1.023V36.859h-3.172V35.813h3.172V32.664h1.023v3.148h3.148v1.047Zm12.719-5.492q-.164-.094-.383-.191t-.473-.184q-.254-.086-.523-.148a3.9,3.9,0,0,0-.527-.086l-.93,4.32q.414.3.8.625a5.323,5.323,0,0,1,.691.676,3.245,3.245,0,0,1,.484.762,2.119,2.119,0,0,1,.184.883,3.448,3.448,0,0,1-.172,1.059,2.637,2.637,0,0,1-.574.977,3.174,3.174,0,0,1-1.062.738,4.312,4.312,0,0,1-1.629.328l-.336,1.508h-.8l.32-1.523a5.562,5.562,0,0,1-.687-.078q-.359-.063-.687-.148t-.609-.184a3.5,3.5,0,0,1-.461-.191l.219-1.266a4.014,4.014,0,0,0,.512.273,6.423,6.423,0,0,0,.621.242q.328.109.664.188a5.158,5.158,0,0,0,.641.109l.891-4.141q-.477-.344-.883-.676a4.568,4.568,0,0,1-.7-.7,2.961,2.961,0,0,1-.457-.816,2.9,2.9,0,0,1-.164-1.008,2.811,2.811,0,0,1,.254-1.191,2.859,2.859,0,0,1,.715-.957,3.456,3.456,0,0,1,1.113-.645,4.323,4.323,0,0,1,1.449-.246l.273-1.3h.82l-.289,1.328a5.513,5.513,0,0,1,1.055.18,7,7,0,0,1,.867.289Zm-2.734-.625a2.4,2.4,0,0,0-.863.2,1.956,1.956,0,0,0-.621.441,1.813,1.813,0,0,0-.375.605,1.957,1.957,0,0,0-.125.688,1.743,1.743,0,0,0,.086.555,1.917,1.917,0,0,0,.242.484,2.708,2.708,0,0,0,.371.43,6.037,6.037,0,0,0,.48.406Zm.75,7.406a1.492,1.492,0,0,0-.062-.434,1.654,1.654,0,0,0-.2-.414,2.472,2.472,0,0,0-.352-.422,6.056,6.056,0,0,0-.531-.457l-.75,3.633a2.347,2.347,0,0,0,.863-.215,1.877,1.877,0,0,0,.586-.437,1.652,1.652,0,0,0,.336-.586A2.146,2.146,0,0,0,145.469,38.148ZM155.578,41h-1.453a26.184,26.184,0,0,1,2.363-4.766,51.919,51.919,0,0,1,3.691-5.281h-5.539l.25-1.156h7.125l-.156.742a55.288,55.288,0,0,0-4,5.738A24.684,24.684,0,0,0,155.578,41Zm12.641-8.719a1.517,1.517,0,0,0-.449-1.168,1.759,1.759,0,0,0-1.246-.418,3.923,3.923,0,0,0-1.523.32,4.92,4.92,0,0,0-1.43.93l.32-1.437a4.15,4.15,0,0,1,1.355-.7,5.811,5.811,0,0,1,1.59-.2,2.888,2.888,0,0,1,1.992.66,2.26,2.26,0,0,1,.742,1.777,4.059,4.059,0,0,1-.324,1.676,4.455,4.455,0,0,1-1.035,1.395,13.8,13.8,0,0,1-2.078,1.531q-1.242.773-1.887,1.273a5.032,5.032,0,0,0-.957.922,2.657,2.657,0,0,0-.445,1.008h5.531L168.133,41h-6.914l.117-.555a5.4,5.4,0,0,1,.605-1.625,5.57,5.57,0,0,1,1.129-1.32,19.256,19.256,0,0,1,2.242-1.609,13.31,13.31,0,0,0,1.723-1.25,4.048,4.048,0,0,0,.9-1.086A2.688,2.688,0,0,0,168.219,32.281Zm3.461,8.031a.854.854,0,0,1-.25.609.9.9,0,0,1-.277.188.836.836,0,0,1-.34.07.809.809,0,0,1-.336-.07.912.912,0,0,1-.273-.187.854.854,0,0,1-.25-.609.879.879,0,0,1,.066-.34.845.845,0,0,1,.184-.277.854.854,0,0,1,.609-.25.878.878,0,0,1,.34.066.834.834,0,0,1,.461.461A.879.879,0,0,1,171.68,40.313Zm10.156-7.391q0,.586-.055,1.223t-.172,1.285a12.947,12.947,0,0,1-.3,1.285,10.137,10.137,0,0,1-.441,1.23,8.317,8.317,0,0,1-.59,1.121,5.918,5.918,0,0,1-.746.957,3.614,3.614,0,0,1-2.7,1.172,2.709,2.709,0,0,1-1.16-.246,2.479,2.479,0,0,1-.9-.719,3.438,3.438,0,0,1-.582-1.164,5.551,5.551,0,0,1-.207-1.59,11.938,11.938,0,0,1,.141-1.793,11.1,11.1,0,0,1,.43-1.8,9.769,9.769,0,0,1,.719-1.66,6.19,6.19,0,0,1,1.016-1.375,4.13,4.13,0,0,1,1.242-.91,3.6,3.6,0,0,1,1.555-.324,2.927,2.927,0,0,1,1.133.211,2.318,2.318,0,0,1,.871.629,2.879,2.879,0,0,1,.559,1.035A4.775,4.775,0,0,1,181.836,32.922Zm-1.3.109a3.111,3.111,0,0,0-.406-1.715,1.323,1.323,0,0,0-1.18-.621,1.944,1.944,0,0,0-.867.2,2.953,2.953,0,0,0-.8.6,4.512,4.512,0,0,0-.574.762,7.791,7.791,0,0,0-.492.953,10.052,10.052,0,0,0-.395,1.074q-.172.563-.293,1.125t-.184,1.1a8.78,8.78,0,0,0-.062,1.008,4.622,4.622,0,0,0,.129,1.168,2.446,2.446,0,0,0,.355.8,1.412,1.412,0,0,0,.535.465,1.5,1.5,0,0,0,.66.148,1.958,1.958,0,0,0,.828-.187,2.451,2.451,0,0,0,.758-.562,5.036,5.036,0,0,0,.773-1.152,10.288,10.288,0,0,0,.629-1.559,13.046,13.046,0,0,0,.426-1.785A11.042,11.042,0,0,0,180.539,33.031Zm9.922-.109q0,.586-.055,1.223t-.172,1.285a12.947,12.947,0,0,1-.3,1.285,10.137,10.137,0,0,1-.441,1.23,8.317,8.317,0,0,1-.59,1.121,5.918,5.918,0,0,1-.746.957,3.614,3.614,0,0,1-2.7,1.172,2.709,2.709,0,0,1-1.16-.246,2.479,2.479,0,0,1-.9-.719,3.438,3.438,0,0,1-.582-1.164,5.551,5.551,0,0,1-.207-1.59,11.938,11.938,0,0,1,.141-1.793,11.1,11.1,0,0,1,.43-1.8,9.769,9.769,0,0,1,.719-1.66,6.19,6.19,0,0,1,1.016-1.375,4.13,4.13,0,0,1,1.242-.91,3.6,3.6,0,0,1,1.555-.324,2.927,2.927,0,0,1,1.133.211,2.318,2.318,0,0,1,.871.629,2.879,2.879,0,0,1,.559,1.035A4.775,4.775,0,0,1,190.461,32.922Zm-1.3.109a3.111,3.111,0,0,0-.406-1.715,1.323,1.323,0,0,0-1.18-.621,1.944,1.944,0,0,0-.867.2,2.953,2.953,0,0,0-.8.6,4.512,4.512,0,0,0-.574.762,7.791,7.791,0,0,0-.492.953,10.052,10.052,0,0,0-.395,1.074q-.172.563-.293,1.125t-.184,1.1a8.78,8.78,0,0,0-.062,1.008,4.622,4.622,0,0,0,.129,1.168,2.446,2.446,0,0,0,.355.8,1.412,1.412,0,0,0,.535.465,1.5,1.5,0,0,0,.66.148,1.958,1.958,0,0,0,.828-.187,2.451,2.451,0,0,0,.758-.562,5.036,5.036,0,0,0,.773-1.152,10.288,10.288,0,0,0,.629-1.559,13.046,13.046,0,0,0,.426-1.785A11.042,11.042,0,0,0,189.164,33.031Zm9.922-.109q0,.586-.055,1.223t-.172,1.285a12.947,12.947,0,0,1-.3,1.285,10.137,10.137,0,0,1-.441,1.23,8.317,8.317,0,0,1-.59,1.121,5.918,5.918,0,0,1-.746.957,3.614,3.614,0,0,1-2.7,1.172,2.709,2.709,0,0,1-1.16-.246,2.479,2.479,0,0,1-.9-.719,3.438,3.438,0,0,1-.582-1.164,5.551,5.551,0,0,1-.207-1.59,11.938,11.938,0,0,1,.141-1.793,11.1,11.1,0,0,1,.43-1.8,9.769,9.769,0,0,1,.719-1.66,6.19,6.19,0,0,1,1.016-1.375,4.13,4.13,0,0,1,1.242-.91,3.6,3.6,0,0,1,1.555-.324,2.927,2.927,0,0,1,1.133.211,2.318,2.318,0,0,1,.871.629,2.879,2.879,0,0,1,.559,1.035A4.775,4.775,0,0,1,199.086,32.922Zm-1.3.109a3.111,3.111,0,0,0-.406-1.715,1.323,1.323,0,0,0-1.18-.621,1.944,1.944,0,0,0-.867.2,2.953,2.953,0,0,0-.8.6,4.512,4.512,0,0,0-.574.762,7.791,7.791,0,0,0-.492.953,10.052,10.052,0,0,0-.395,1.074q-.172.563-.293,1.125t-.184,1.1a8.78,8.78,0,0,0-.062,1.008,4.622,4.622,0,0,0,.129,1.168,2.446,2.446,0,0,0,.355.8,1.412,1.412,0,0,0,.535.465,1.5,1.5,0,0,0,.66.148,1.958,1.958,0,0,0,.828-.187,2.451,2.451,0,0,0,.758-.562,5.036,5.036,0,0,0,.773-1.152,10.288,10.288,0,0,0,.629-1.559,13.046,13.046,0,0,0,.426-1.785A11.042,11.042,0,0,0,197.789,33.031Zm3.25,7.281a.854.854,0,0,1-.25.609.9.9,0,0,1-.277.188.836.836,0,0,1-.34.07.809.809,0,0,1-.336-.07.912.912,0,0,1-.273-.187.854.854,0,0,1-.25-.609.879.879,0,0,1,.066-.34.845.845,0,0,1,.184-.277.854.854,0,0,1,.609-.25.878.878,0,0,1,.34.066.834.834,0,0,1,.461.461A.879.879,0,0,1,201.039,40.313ZM211.2,32.922q0,.586-.055,1.223t-.172,1.285a12.947,12.947,0,0,1-.3,1.285,10.137,10.137,0,0,1-.441,1.23,8.317,8.317,0,0,1-.59,1.121,5.918,5.918,0,0,1-.746.957,3.614,3.614,0,0,1-2.7,1.172,2.709,2.709,0,0,1-1.16-.246,2.479,2.479,0,0,1-.9-.719,3.438,3.438,0,0,1-.582-1.164,5.551,5.551,0,0,1-.207-1.59,11.938,11.938,0,0,1,.141-1.793,11.1,11.1,0,0,1,.43-1.8,9.769,9.769,0,0,1,.719-1.66,6.19,6.19,0,0,1,1.016-1.375,4.13,4.13,0,0,1,1.242-.91,3.6,3.6,0,0,1,1.555-.324,2.927,2.927,0,0,1,1.133.211,2.318,2.318,0,0,1,.871.629A2.879,2.879,0,0,1,211,31.484,4.775,4.775,0,0,1,211.2,32.922Zm-1.3.109a3.111,3.111,0,0,0-.406-1.715,1.323,1.323,0,0,0-1.18-.621,1.944,1.944,0,0,0-.867.2,2.953,2.953,0,0,0-.8.6,4.512,4.512,0,0,0-.574.762,7.791,7.791,0,0,0-.492.953,10.052,10.052,0,0,0-.395,1.074q-.172.563-.293,1.125t-.184,1.1a8.78,8.78,0,0,0-.062,1.008,4.622,4.622,0,0,0,.129,1.168,2.446,2.446,0,0,0,.355.8,1.412,1.412,0,0,0,.535.465,1.5,1.5,0,0,0,.66.148,1.958,1.958,0,0,0,.828-.187,2.451,2.451,0,0,0,.758-.562,5.036,5.036,0,0,0,.773-1.152,10.288,10.288,0,0,0,.629-1.559,13.046,13.046,0,0,0,.426-1.785A11.042,11.042,0,0,0,209.9,33.031Zm9.922-.109q0,.586-.055,1.223t-.172,1.285a12.947,12.947,0,0,1-.3,1.285,10.137,10.137,0,0,1-.441,1.23,8.317,8.317,0,0,1-.59,1.121,5.918,5.918,0,0,1-.746.957,3.614,3.614,0,0,1-2.7,1.172,2.709,2.709,0,0,1-1.16-.246,2.479,2.479,0,0,1-.9-.719,3.438,3.438,0,0,1-.582-1.164,5.551,5.551,0,0,1-.207-1.59,11.938,11.938,0,0,1,.141-1.793,11.1,11.1,0,0,1,.43-1.8,9.769,9.769,0,0,1,.719-1.66,6.19,6.19,0,0,1,1.016-1.375,4.13,4.13,0,0,1,1.242-.91,3.6,3.6,0,0,1,1.555-.324,2.927,2.927,0,0,1,1.133.211,2.318,2.318,0,0,1,.871.629,2.879,2.879,0,0,1,.559,1.035A4.775,4.775,0,0,1,219.82,32.922Zm-1.3.109a3.111,3.111,0,0,0-.406-1.715,1.323,1.323,0,0,0-1.18-.621,1.944,1.944,0,0,0-.867.2,2.953,2.953,0,0,0-.8.6,4.512,4.512,0,0,0-.574.762,7.791,7.791,0,0,0-.492.953,10.052,10.052,0,0,0-.395,1.074q-.172.563-.293,1.125t-.184,1.1a8.78,8.78,0,0,0-.062,1.008,4.622,4.622,0,0,0,.129,1.168,2.446,2.446,0,0,0,.355.8,1.412,1.412,0,0,0,.535.465,1.5,1.5,0,0,0,.66.148,1.958,1.958,0,0,0,.828-.187,2.451,2.451,0,0,0,.758-.562,5.036,5.036,0,0,0,.773-1.152,10.288,10.288,0,0,0,.629-1.559,13.046,13.046,0,0,0,.426-1.785A11.042,11.042,0,0,0,218.523,33.031Zm9.922-.109q0,.586-.055,1.223t-.172,1.285a12.947,12.947,0,0,1-.3,1.285,10.137,10.137,0,0,1-.441,1.23,8.317,8.317,0,0,1-.59,1.121,5.918,5.918,0,0,1-.746.957,3.614,3.614,0,0,1-2.7,1.172,2.709,2.709,0,0,1-1.16-.246,2.479,2.479,0,0,1-.9-.719,3.438,3.438,0,0,1-.582-1.164,5.551,5.551,0,0,1-.207-1.59,11.938,11.938,0,0,1,.141-1.793,11.1,11.1,0,0,1,.43-1.8,9.769,9.769,0,0,1,.719-1.66,6.19,6.19,0,0,1,1.016-1.375,4.13,4.13,0,0,1,1.242-.91,3.6,3.6,0,0,1,1.555-.324,2.927,2.927,0,0,1,1.133.211,2.318,2.318,0,0,1,.871.629,2.879,2.879,0,0,1,.559,1.035A4.775,4.775,0,0,1,228.445,32.922Zm-1.3.109a3.111,3.111,0,0,0-.406-1.715,1.323,1.323,0,0,0-1.18-.621,1.944,1.944,0,0,0-.867.2,2.953,2.953,0,0,0-.8.6,4.512,4.512,0,0,0-.574.762,7.791,7.791,0,0,0-.492.953,10.052,10.052,0,0,0-.395,1.074q-.172.563-.293,1.125t-.184,1.1a8.78,8.78,0,0,0-.062,1.008,4.622,4.622,0,0,0,.129,1.168,2.446,2.446,0,0,0,.355.8,1.412,1.412,0,0,0,.535.465,1.5,1.5,0,0,0,.66.148,1.958,1.958,0,0,0,.828-.187,2.451,2.451,0,0,0,.758-.562,5.036,5.036,0,0,0,.773-1.152,10.288,10.288,0,0,0,.629-1.559,13.046,13.046,0,0,0,.426-1.785A11.042,11.042,0,0,0,227.148,33.031Zm5.281,1.492a10.731,10.731,0,0,1-1.113,4.832,12.371,12.371,0,0,1-1.3,2.07,18.134,18.134,0,0,1-1.707,1.91h-1.258a19.358,19.358,0,0,0,1.75-1.965,12.993,12.993,0,0,0,1.328-2.1,11.049,11.049,0,0,0,.844-2.254,9.97,9.97,0,0,0,.215-3.691,10.185,10.185,0,0,0-.242-1.25,9.586,9.586,0,0,0-.395-1.2,7.809,7.809,0,0,0-.539-1.086H231.1a7.983,7.983,0,0,1,.578,1.109,9.013,9.013,0,0,1,.414,1.2,10.081,10.081,0,0,1,.25,1.223A8.637,8.637,0,0,1,232.43,34.523Zm.961,8.336h-1.312L240.211,29.8h1.3Zm13.375-10.578a1.517,1.517,0,0,0-.449-1.168,1.759,1.759,0,0,0-1.246-.418,3.923,3.923,0,0,0-1.523.32,4.92,4.92,0,0,0-1.43.93l.32-1.437a4.15,4.15,0,0,1,1.355-.7,5.811,5.811,0,0,1,1.59-.2,2.888,2.888,0,0,1,1.992.66,2.26,2.26,0,0,1,.742,1.777,4.059,4.059,0,0,1-.324,1.676,4.455,4.455,0,0,1-1.035,1.395,13.8,13.8,0,0,1-2.078,1.531q-1.242.773-1.887,1.273a5.032,5.032,0,0,0-.957.922,2.657,2.657,0,0,0-.445,1.008h5.531L246.68,41h-6.914l.117-.555a5.4,5.4,0,0,1,.605-1.625,5.57,5.57,0,0,1,1.129-1.32,19.256,19.256,0,0,1,2.242-1.609,13.31,13.31,0,0,0,1.723-1.25,4.048,4.048,0,0,0,.9-1.086A2.688,2.688,0,0,0,246.766,32.281Z" transform="translate(274.286)" fill="#12263f"/>
        <line id="Línea_575" data-name="Línea 575" x2="273.951" transform="translate(276.785 21.5)" fill="none" stroke="#12263f" stroke-width="1"/>
      </g>
      <path id="Trazado_908188" data-name="Trazado 908188" d="M24.813,8.57a3.269,3.269,0,0,1-.254,1.313,3.031,3.031,0,0,1-.7,1.008,3.416,3.416,0,0,1-1.062.676,4.532,4.532,0,0,1-1.344.316v.031a1.3,1.3,0,0,1,.645.492,3.027,3.027,0,0,1,.449,1.008L23.484,17H22.047l-.828-3.344a2.026,2.026,0,0,0-.574-1.078,1.531,1.531,0,0,0-1.043-.344h-.977L17.6,17H16.258L18.625,5.8h3.086a4.028,4.028,0,0,1,1.406.219,2.615,2.615,0,0,1,.961.6,2.373,2.373,0,0,1,.555.883A3.175,3.175,0,0,1,24.813,8.57Zm-1.375.141a1.976,1.976,0,0,0-.117-.691,1.431,1.431,0,0,0-.359-.547,1.666,1.666,0,0,0-.617-.359,2.747,2.747,0,0,0-.891-.129H19.727l-.859,4.063h1.547a4.36,4.36,0,0,0,1.395-.2,2.728,2.728,0,0,0,.938-.516,1.894,1.894,0,0,0,.527-.746A2.424,2.424,0,0,0,23.438,8.711Zm9.508,3.25a6.659,6.659,0,0,1-.3,2.016,5.153,5.153,0,0,1-.867,1.668A4.19,4.19,0,0,1,30.4,16.777a3.914,3.914,0,0,1-1.824.418,3.33,3.33,0,0,1-1.238-.219,2.576,2.576,0,0,1-.937-.629,2.786,2.786,0,0,1-.594-.992,3.912,3.912,0,0,1-.207-1.316,6.519,6.519,0,0,1,.316-2.059,5.2,5.2,0,0,1,.891-1.664,4.161,4.161,0,0,1,1.375-1.109,3.885,3.885,0,0,1,1.77-.4,3.308,3.308,0,0,1,1.23.219,2.614,2.614,0,0,1,.941.629,2.848,2.848,0,0,1,.605.992A3.783,3.783,0,0,1,32.945,11.961Zm-1.312.063a2.987,2.987,0,0,0-.125-.9,1.919,1.919,0,0,0-.352-.664,1.525,1.525,0,0,0-.547-.414,1.729,1.729,0,0,0-.719-.145,2.272,2.272,0,0,0-1.242.352,3.143,3.143,0,0,0-.937.926,4.591,4.591,0,0,0-.59,1.3,5.46,5.46,0,0,0-.207,1.5,2.988,2.988,0,0,0,.121.879,2,2,0,0,0,.344.672,1.484,1.484,0,0,0,.547.426,1.735,1.735,0,0,0,.73.148,2.3,2.3,0,0,0,1.25-.348,3.1,3.1,0,0,0,.938-.922,4.506,4.506,0,0,0,.586-1.309A5.6,5.6,0,0,0,31.633,12.023Zm7.313-1.937H36.93l-.9,4.242q-.047.242-.094.523a2.892,2.892,0,0,0-.047.453.789.789,0,0,0,.176.574.764.764,0,0,0,.559.176,1.228,1.228,0,0,0,.242-.031q.148-.031.3-.078t.309-.105l.27-.105-.242,1.125a3.788,3.788,0,0,1-.621.2,2.877,2.877,0,0,1-.66.082,2.234,2.234,0,0,1-.758-.113,1.3,1.3,0,0,1-.512-.324,1.256,1.256,0,0,1-.289-.512,2.359,2.359,0,0,1-.09-.676,3.788,3.788,0,0,1,.043-.527,5.466,5.466,0,0,1,.105-.551l.922-4.352H34.32L34.563,9h1.313l.414-1.953a2.408,2.408,0,0,1,.238-.074q.207-.059.453-.133l.453-.137.23-.07L37.172,9h2.016ZM45.8,14.438q-.063.3-.121.668t-.1.734q-.043.363-.07.676T45.477,17H44.148q.008-.156.023-.375t.043-.453q.027-.234.055-.461t.059-.391H44.3q-.242.383-.492.723a3.478,3.478,0,0,1-.555.6,2.429,2.429,0,0,1-.68.406,2.612,2.612,0,0,1-1.84-.039,2.006,2.006,0,0,1-.746-.559,2.574,2.574,0,0,1-.48-.93,4.532,4.532,0,0,1-.168-1.3,6.518,6.518,0,0,1,.094-1.031,6.309,6.309,0,0,1,.316-1.18,6.007,6.007,0,0,1,.594-1.176A4.465,4.465,0,0,1,41.262,9.8a4.4,4.4,0,0,1,1.3-.727A5.051,5.051,0,0,1,44.3,8.8a9.22,9.22,0,0,1,1.289.094q.664.094,1.32.227Zm-.367-4.383q-.273-.062-.641-.109A5.447,5.447,0,0,0,44.1,9.9a3.119,3.119,0,0,0-1.2.215,3.077,3.077,0,0,0-.9.563,3.313,3.313,0,0,0-.645.8,4.965,4.965,0,0,0-.418.926,5.448,5.448,0,0,0-.223.934,5.91,5.91,0,0,0-.066.836,3.744,3.744,0,0,0,.078.8,1.748,1.748,0,0,0,.246.605,1.156,1.156,0,0,0,.43.387,1.325,1.325,0,0,0,.621.137,1.692,1.692,0,0,0,.73-.16,2.532,2.532,0,0,0,.637-.434,3.56,3.56,0,0,0,.539-.633,6.225,6.225,0,0,0,.438-.762,6.515,6.515,0,0,0,.332-.82q.137-.418.223-.809Zm8.719.531a2.941,2.941,0,0,0-.793-.488,2.582,2.582,0,0,0-1.027-.2,2.427,2.427,0,0,0-.973.188,2.684,2.684,0,0,0-.77.5,3.244,3.244,0,0,0-.578.719,4.793,4.793,0,0,0-.4.844,5.193,5.193,0,0,0-.23.871,4.81,4.81,0,0,0-.074.809,2.552,2.552,0,0,0,.492,1.7,1.672,1.672,0,0,0,1.344.578,2.957,2.957,0,0,0,1.07-.215,5.151,5.151,0,0,0,1.047-.551l-.273,1.281a5.483,5.483,0,0,1-1.012.426,3.666,3.666,0,0,1-1.066.152,3.029,3.029,0,0,1-1.277-.25,2.5,2.5,0,0,1-.9-.687,2.946,2.946,0,0,1-.539-1.035,4.472,4.472,0,0,1-.18-1.293,6.315,6.315,0,0,1,.133-1.293,5.569,5.569,0,0,1,.395-1.2,5.218,5.218,0,0,1,.645-1.051A4.107,4.107,0,0,1,51.164,9a4.451,4.451,0,0,1,1.961-.152,3.8,3.8,0,0,1,.555.125,3.737,3.737,0,0,1,.445.168,1.829,1.829,0,0,1,.313.176Zm3.477,6.383a2.994,2.994,0,0,1-.441.1,3.111,3.111,0,0,1-.488.039,1.594,1.594,0,0,1-1.18-.395,1.439,1.439,0,0,1-.391-1.059,3.227,3.227,0,0,1,.039-.461q.039-.266.125-.656L56.453,9h1.3l-1.172,5.57q-.07.328-.1.508a2.078,2.078,0,0,0-.027.3.644.644,0,0,0,.176.488.787.787,0,0,0,.559.168,2.366,2.366,0,0,0,.355-.023,1.575,1.575,0,0,0,.285-.07Zm.914-10.82a.841.841,0,0,1-.238.6.782.782,0,0,1-.59.25.831.831,0,0,1-.6-.246.81.81,0,0,1-.254-.605.749.749,0,0,1,.254-.586.869.869,0,0,1,.6-.227.819.819,0,0,1,.586.23A.769.769,0,0,1,58.539,6.148Zm7.93,5.813a6.659,6.659,0,0,1-.3,2.016,5.154,5.154,0,0,1-.867,1.668,4.19,4.19,0,0,1-1.375,1.133A3.914,3.914,0,0,1,62.1,17.2a3.33,3.33,0,0,1-1.238-.219,2.576,2.576,0,0,1-.937-.629,2.786,2.786,0,0,1-.594-.992,3.912,3.912,0,0,1-.207-1.316,6.519,6.519,0,0,1,.316-2.059,5.2,5.2,0,0,1,.891-1.664,4.161,4.161,0,0,1,1.375-1.109,3.885,3.885,0,0,1,1.77-.4,3.308,3.308,0,0,1,1.23.219,2.614,2.614,0,0,1,.941.629,2.848,2.848,0,0,1,.605.992A3.783,3.783,0,0,1,66.469,11.961Zm-1.312.063a2.987,2.987,0,0,0-.125-.9,1.92,1.92,0,0,0-.352-.664,1.525,1.525,0,0,0-.547-.414,1.729,1.729,0,0,0-.719-.145,2.272,2.272,0,0,0-1.242.352,3.143,3.143,0,0,0-.937.926,4.591,4.591,0,0,0-.59,1.3,5.46,5.46,0,0,0-.207,1.5,2.988,2.988,0,0,0,.121.879,2,2,0,0,0,.344.672,1.484,1.484,0,0,0,.547.426,1.735,1.735,0,0,0,.73.148,2.3,2.3,0,0,0,1.25-.348,3.1,3.1,0,0,0,.938-.922,4.505,4.505,0,0,0,.586-1.309A5.6,5.6,0,0,0,65.156,12.023ZM63.508,7.477h-.961L64.8,4.922h1.258ZM75.25,11a2.547,2.547,0,0,1-.027.32q-.027.2-.07.438t-.086.465q-.043.23-.082.395L74.055,17h-1.3l.977-4.687q.031-.125.063-.289t.055-.328q.023-.164.039-.3a2.01,2.01,0,0,0,.016-.215,1.424,1.424,0,0,0-.285-.937,1.038,1.038,0,0,0-.848-.344,1.972,1.972,0,0,0-1.023.3,4.211,4.211,0,0,0-.937.773,5.274,5.274,0,0,0-.738,1.031,3.952,3.952,0,0,0-.418,1.086L68.82,17h-1.3l1.234-5.711q.062-.3.125-.637T69,10.012q.055-.309.094-.574T69.156,9h1.25q-.039.3-.094.637t-.094.613q-.047.328-.1.641h.031a6.607,6.607,0,0,1,.605-.809,4.531,4.531,0,0,1,.719-.664,3.413,3.413,0,0,1,.82-.449A2.55,2.55,0,0,1,73.2,8.8a2.362,2.362,0,0,1,.914.16,1.712,1.712,0,0,1,.637.449,1.829,1.829,0,0,1,.375.7A3.108,3.108,0,0,1,75.25,11Zm12.258,3.539q-.055.25-.105.6t-.09.707q-.039.355-.066.668T87.219,17H85.891q0-.133.02-.355t.047-.465q.027-.242.059-.465t.055-.363h-.031a7.891,7.891,0,0,1-.562.8,3.256,3.256,0,0,1-.594.578,2.386,2.386,0,0,1-.664.348,2.434,2.434,0,0,1-.773.117,2.39,2.39,0,0,1-.984-.2,2.006,2.006,0,0,1-.746-.574,2.646,2.646,0,0,1-.473-.937,4.57,4.57,0,0,1-.164-1.285A6.325,6.325,0,0,1,81.2,13a6.161,6.161,0,0,1,.375-1.227,5.749,5.749,0,0,1,.645-1.141,4.367,4.367,0,0,1,2.164-1.59A4.775,4.775,0,0,1,85.938,8.8a5.273,5.273,0,0,1,.813.059q.375.059.648.121l.813-3.828h1.266Zm-.336-4.453a5.033,5.033,0,0,0-.621-.137,4.471,4.471,0,0,0-.691-.051,3.17,3.17,0,0,0-1.2.211,3.024,3.024,0,0,0-.906.563,3.367,3.367,0,0,0-.648.8,5.046,5.046,0,0,0-.422.922,5.248,5.248,0,0,0-.227.93,5.785,5.785,0,0,0-.066.824,3.949,3.949,0,0,0,.074.8,1.779,1.779,0,0,0,.242.617,1.157,1.157,0,0,0,.434.4,1.353,1.353,0,0,0,.641.141,1.658,1.658,0,0,0,.73-.164,2.516,2.516,0,0,0,.637-.445,3.677,3.677,0,0,0,.539-.648,6.291,6.291,0,0,0,.438-.781,6.943,6.943,0,0,0,.332-.84q.137-.426.223-.816Zm9.453.789a2.381,2.381,0,0,1-.281,1.152,2.331,2.331,0,0,1-.93.891,5.584,5.584,0,0,1-1.711.574,14.678,14.678,0,0,1-2.625.211,1,1,0,0,0-.016.18v.156a2.657,2.657,0,0,0,.117.8,1.8,1.8,0,0,0,.363.656,1.714,1.714,0,0,0,.633.445,2.341,2.341,0,0,0,.918.164,3.9,3.9,0,0,0,1.184-.207,5.087,5.087,0,0,0,1.23-.59l-.242,1.266a5.078,5.078,0,0,1-1.023.438,4.4,4.4,0,0,1-1.328.188,3.609,3.609,0,0,1-1.488-.273,2.621,2.621,0,0,1-.977-.73,2.848,2.848,0,0,1-.535-1.055,4.716,4.716,0,0,1-.164-1.254,5.8,5.8,0,0,1,.156-1.355,5.519,5.519,0,0,1,.441-1.215,5.148,5.148,0,0,1,.684-1.027,4.444,4.444,0,0,1,.883-.793,4.092,4.092,0,0,1,1.039-.508A3.7,3.7,0,0,1,94.1,8.8a3.319,3.319,0,0,1,1.09.164,2.277,2.277,0,0,1,.789.449,1.915,1.915,0,0,1,.48.66A1.966,1.966,0,0,1,96.625,10.875Zm-1.3.063a.9.9,0,0,0-.363-.766,1.565,1.565,0,0,0-.965-.273,2.163,2.163,0,0,0-.922.207,2.984,2.984,0,0,0-.82.57,3.56,3.56,0,0,0-.648.867,4.038,4.038,0,0,0-.4,1.09,13.5,13.5,0,0,0,1.9-.113,4.925,4.925,0,0,0,1.273-.332,1.712,1.712,0,0,0,.719-.535A1.2,1.2,0,0,0,95.32,10.938Zm9.258,6.031a2.994,2.994,0,0,1-.441.1,3.111,3.111,0,0,1-.488.039,1.594,1.594,0,0,1-1.18-.395,1.439,1.439,0,0,1-.391-1.059,3.228,3.228,0,0,1,.039-.461q.039-.266.125-.656L103.406,9h1.3l-1.172,5.57q-.07.328-.1.508a2.079,2.079,0,0,0-.027.3.644.644,0,0,0,.176.488.787.787,0,0,0,.559.168,2.366,2.366,0,0,0,.355-.023,1.575,1.575,0,0,0,.285-.07Zm.914-10.82a.841.841,0,0,1-.238.6.782.782,0,0,1-.59.25.831.831,0,0,1-.6-.246.81.81,0,0,1-.254-.605.749.749,0,0,1,.254-.586.869.869,0,0,1,.6-.227.819.819,0,0,1,.586.23A.769.769,0,0,1,105.492,6.148ZM113.641,11a2.547,2.547,0,0,1-.027.32q-.027.2-.07.438t-.086.465q-.043.23-.082.395L112.445,17h-1.3l.977-4.687q.031-.125.063-.289t.055-.328q.023-.164.039-.3a2.01,2.01,0,0,0,.016-.215,1.424,1.424,0,0,0-.285-.937,1.038,1.038,0,0,0-.848-.344,1.972,1.972,0,0,0-1.023.3,4.211,4.211,0,0,0-.937.773,5.274,5.274,0,0,0-.738,1.031,3.952,3.952,0,0,0-.418,1.086L107.211,17h-1.3l1.234-5.711q.062-.3.125-.637t.117-.641q.055-.309.094-.574T107.547,9h1.25q-.039.3-.094.637t-.094.613q-.047.328-.1.641h.031a6.607,6.607,0,0,1,.605-.809,4.531,4.531,0,0,1,.719-.664,3.413,3.413,0,0,1,.82-.449,2.55,2.55,0,0,1,.91-.164,2.362,2.362,0,0,1,.914.16,1.712,1.712,0,0,1,.637.449,1.829,1.829,0,0,1,.375.7A3.108,3.108,0,0,1,113.641,11Zm4.242,6H116.8l-1.266-8h1.3l.7,5.039q.023.148.043.336t.039.383q.02.2.027.383t.008.336h.031q.062-.141.145-.32t.184-.371q.1-.191.207-.387t.2-.359L121.273,9h1.461Zm11.633-6.125a2.381,2.381,0,0,1-.281,1.152,2.331,2.331,0,0,1-.93.891,5.584,5.584,0,0,1-1.711.574,14.678,14.678,0,0,1-2.625.211,1,1,0,0,0-.016.18v.156a2.657,2.657,0,0,0,.117.8,1.8,1.8,0,0,0,.363.656,1.714,1.714,0,0,0,.633.445,2.341,2.341,0,0,0,.918.164,3.9,3.9,0,0,0,1.184-.207,5.087,5.087,0,0,0,1.23-.59l-.242,1.266a5.078,5.078,0,0,1-1.023.438,4.4,4.4,0,0,1-1.328.188,3.609,3.609,0,0,1-1.488-.273,2.621,2.621,0,0,1-.977-.73,2.848,2.848,0,0,1-.535-1.055,4.716,4.716,0,0,1-.164-1.254,5.8,5.8,0,0,1,.156-1.355,5.519,5.519,0,0,1,.441-1.215,5.148,5.148,0,0,1,.684-1.027,4.444,4.444,0,0,1,.883-.793,4.092,4.092,0,0,1,1.039-.508,3.7,3.7,0,0,1,1.148-.18,3.319,3.319,0,0,1,1.09.164,2.277,2.277,0,0,1,.789.449,1.915,1.915,0,0,1,.48.66A1.966,1.966,0,0,1,129.516,10.875Zm-1.3.063a.9.9,0,0,0-.363-.766,1.565,1.565,0,0,0-.965-.273,2.163,2.163,0,0,0-.922.207,2.984,2.984,0,0,0-.82.57,3.56,3.56,0,0,0-.648.867,4.038,4.038,0,0,0-.4,1.09,13.5,13.5,0,0,0,1.9-.113,4.925,4.925,0,0,0,1.273-.332,1.712,1.712,0,0,0,.719-.535A1.2,1.2,0,0,0,128.211,10.938Zm9.781.063a2.545,2.545,0,0,1-.027.32q-.027.2-.07.438t-.086.465q-.043.23-.082.395L136.8,17h-1.3l.977-4.687q.031-.125.063-.289t.055-.328q.023-.164.039-.3a2.008,2.008,0,0,0,.016-.215,1.424,1.424,0,0,0-.285-.937,1.038,1.038,0,0,0-.848-.344,1.972,1.972,0,0,0-1.023.3,4.21,4.21,0,0,0-.937.773,5.275,5.275,0,0,0-.738,1.031,3.952,3.952,0,0,0-.418,1.086L131.563,17h-1.3l1.234-5.711q.063-.3.125-.637t.117-.641q.055-.309.094-.574T131.9,9h1.25q-.039.3-.094.637t-.094.613q-.047.328-.1.641h.031a6.607,6.607,0,0,1,.605-.809,4.531,4.531,0,0,1,.719-.664,3.413,3.413,0,0,1,.82-.449,2.55,2.55,0,0,1,.91-.164,2.362,2.362,0,0,1,.914.16,1.712,1.712,0,0,1,.637.449,1.829,1.829,0,0,1,.375.7A3.108,3.108,0,0,1,137.992,11Zm6.211-.914h-2.016l-.9,4.242q-.047.242-.094.523a2.892,2.892,0,0,0-.047.453.789.789,0,0,0,.176.574.764.764,0,0,0,.559.176,1.228,1.228,0,0,0,.242-.031q.148-.031.3-.078t.309-.105l.27-.105-.242,1.125a3.788,3.788,0,0,1-.621.2,2.877,2.877,0,0,1-.66.082,2.234,2.234,0,0,1-.758-.113,1.3,1.3,0,0,1-.512-.324,1.256,1.256,0,0,1-.289-.512,2.359,2.359,0,0,1-.09-.676,3.789,3.789,0,0,1,.043-.527,5.464,5.464,0,0,1,.105-.551l.922-4.352h-1.328L139.82,9h1.313l.414-1.953a2.408,2.408,0,0,1,.238-.074q.207-.059.453-.133l.453-.137.23-.07L142.43,9h2.016Zm6.852,4.352q-.063.3-.121.668t-.1.734q-.043.363-.07.676t-.027.484h-1.328q.008-.156.023-.375t.043-.453q.027-.234.055-.461t.059-.391h-.031q-.242.383-.492.723a3.478,3.478,0,0,1-.555.6,2.429,2.429,0,0,1-.68.406,2.612,2.612,0,0,1-1.84-.039,2.006,2.006,0,0,1-.746-.559,2.574,2.574,0,0,1-.48-.93,4.531,4.531,0,0,1-.168-1.3,6.518,6.518,0,0,1,.094-1.031,6.309,6.309,0,0,1,.316-1.18,6.007,6.007,0,0,1,.594-1.176A4.465,4.465,0,0,1,146.52,9.8a4.4,4.4,0,0,1,1.3-.727,5.051,5.051,0,0,1,1.734-.273,9.22,9.22,0,0,1,1.289.094q.664.094,1.32.227Zm-.367-4.383q-.273-.062-.641-.109a5.447,5.447,0,0,0-.687-.047,3.119,3.119,0,0,0-1.2.215,3.077,3.077,0,0,0-.9.563,3.313,3.313,0,0,0-.645.8,4.965,4.965,0,0,0-.418.926,5.448,5.448,0,0,0-.223.934,5.911,5.911,0,0,0-.066.836,3.744,3.744,0,0,0,.078.8,1.748,1.748,0,0,0,.246.605,1.156,1.156,0,0,0,.43.387,1.325,1.325,0,0,0,.621.137,1.692,1.692,0,0,0,.73-.16,2.532,2.532,0,0,0,.637-.434,3.56,3.56,0,0,0,.539-.633,6.225,6.225,0,0,0,.438-.762,6.515,6.515,0,0,0,.332-.82q.137-.418.223-.809Zm7.953.3h-.031a2.307,2.307,0,0,0-.41-.184,1.5,1.5,0,0,0-.5-.09,1.479,1.479,0,0,0-.867.293,3.188,3.188,0,0,0-.754.773,5.549,5.549,0,0,0-.594,1.1,7.5,7.5,0,0,0-.395,1.266L154.336,17h-1.281l1.125-5.312q.07-.328.141-.687t.129-.719q.059-.359.105-.687t.07-.594h1.266q-.023.234-.055.5t-.062.508q-.031.246-.062.445t-.047.309h.031a8.624,8.624,0,0,1,.508-.8,3.717,3.717,0,0,1,.543-.613,2.3,2.3,0,0,1,.605-.395,1.71,1.71,0,0,1,.7-.141,2.206,2.206,0,0,1,.434.043q.215.043.387.09Zm2.945,6.609a2.994,2.994,0,0,1-.441.1,3.111,3.111,0,0,1-.488.039,1.594,1.594,0,0,1-1.18-.395,1.439,1.439,0,0,1-.391-1.059,3.227,3.227,0,0,1,.039-.461q.039-.266.125-.656L160.414,9h1.3l-1.172,5.57q-.07.328-.1.508a2.078,2.078,0,0,0-.027.3.644.644,0,0,0,.176.488.787.787,0,0,0,.559.168,2.366,2.366,0,0,0,.355-.023,1.575,1.575,0,0,0,.285-.07Zm.914-10.82a.841.841,0,0,1-.238.6.782.782,0,0,1-.59.25.831.831,0,0,1-.6-.246.81.81,0,0,1-.254-.605.749.749,0,0,1,.254-.586.869.869,0,0,1,.6-.227.819.819,0,0,1,.586.23A.769.769,0,0,1,162.5,6.148Zm7.93,5.813a6.659,6.659,0,0,1-.3,2.016,5.153,5.153,0,0,1-.867,1.668,4.19,4.19,0,0,1-1.375,1.133,3.914,3.914,0,0,1-1.824.418,3.33,3.33,0,0,1-1.238-.219,2.576,2.576,0,0,1-.937-.629,2.786,2.786,0,0,1-.594-.992,3.912,3.912,0,0,1-.207-1.316,6.519,6.519,0,0,1,.316-2.059,5.2,5.2,0,0,1,.891-1.664,4.161,4.161,0,0,1,1.375-1.109,3.885,3.885,0,0,1,1.77-.4,3.308,3.308,0,0,1,1.23.219,2.614,2.614,0,0,1,.941.629,2.848,2.848,0,0,1,.605.992A3.783,3.783,0,0,1,170.43,11.961Zm-1.312.063a2.987,2.987,0,0,0-.125-.9,1.919,1.919,0,0,0-.352-.664,1.525,1.525,0,0,0-.547-.414,1.729,1.729,0,0,0-.719-.145,2.272,2.272,0,0,0-1.242.352,3.143,3.143,0,0,0-.937.926,4.591,4.591,0,0,0-.59,1.3,5.46,5.46,0,0,0-.207,1.5,2.988,2.988,0,0,0,.121.879,2,2,0,0,0,.344.672,1.484,1.484,0,0,0,.547.426,1.735,1.735,0,0,0,.73.148,2.3,2.3,0,0,0,1.25-.348,3.1,3.1,0,0,0,.938-.922,4.506,4.506,0,0,0,.586-1.309A5.6,5.6,0,0,0,169.117,12.023Zm7.586-1.617a3.329,3.329,0,0,0-.789-.367,2.845,2.845,0,0,0-.875-.141,1.726,1.726,0,0,0-1.137.336,1.1,1.1,0,0,0-.4.891,1.116,1.116,0,0,0,.074.414,1.25,1.25,0,0,0,.219.355,1.986,1.986,0,0,0,.367.324q.223.156.512.336a4.028,4.028,0,0,1,1.262,1.043,2.01,2.01,0,0,1,.387,1.207,2.435,2.435,0,0,1-.168.887,2,2,0,0,1-.535.766,2.745,2.745,0,0,1-.949.535,4.331,4.331,0,0,1-1.418.2,4.7,4.7,0,0,1-.516-.031,5.462,5.462,0,0,1-.566-.094,4.941,4.941,0,0,1-.547-.152,2.407,2.407,0,0,1-.457-.207l.258-1.219a2.692,2.692,0,0,0,.387.219,4,4,0,0,0,.5.2,4.673,4.673,0,0,0,.563.141,3.166,3.166,0,0,0,.582.055,1.834,1.834,0,0,0,1.168-.312,1.053,1.053,0,0,0,.387-.867,1.155,1.155,0,0,0-.059-.375,1.052,1.052,0,0,0-.207-.344,2.3,2.3,0,0,0-.391-.348q-.242-.176-.609-.395a3.947,3.947,0,0,1-1.176-1.012,1.992,1.992,0,0,1-.379-1.191,2.432,2.432,0,0,1,.18-.926,2.24,2.24,0,0,1,.535-.781,2.6,2.6,0,0,1,.895-.543,3.559,3.559,0,0,1,1.258-.2,5.018,5.018,0,0,1,1.066.109,3.786,3.786,0,0,1,.855.281Zm7.055.789V10.148H191.1V11.2Zm0,3.328V13.477H191.1v1.047Zm20.43-6.242a1.517,1.517,0,0,0-.449-1.168,1.759,1.759,0,0,0-1.246-.418,3.923,3.923,0,0,0-1.523.32,4.92,4.92,0,0,0-1.43.93l.32-1.437a4.15,4.15,0,0,1,1.355-.7,5.811,5.811,0,0,1,1.59-.2,2.888,2.888,0,0,1,1.992.66,2.26,2.26,0,0,1,.742,1.777,4.059,4.059,0,0,1-.324,1.676,4.455,4.455,0,0,1-1.035,1.395,13.8,13.8,0,0,1-2.078,1.531q-1.242.773-1.887,1.273a5.032,5.032,0,0,0-.957.922,2.657,2.657,0,0,0-.445,1.008h5.531L204.1,17h-6.914l.117-.555a5.4,5.4,0,0,1,.605-1.625,5.57,5.57,0,0,1,1.129-1.32,19.256,19.256,0,0,1,2.242-1.609A13.31,13.31,0,0,0,203,10.641a4.048,4.048,0,0,0,.9-1.086A2.688,2.688,0,0,0,204.188,8.281Zm1.953,10.781h-1.008l1.57-3.836h1.281Zm11.3-10.945a3.281,3.281,0,0,1-.172,1.066,2.6,2.6,0,0,1-.539.91,3.244,3.244,0,0,1-.937.7,4.821,4.821,0,0,1-1.359.434v.031a2.607,2.607,0,0,1,.859.281,2.319,2.319,0,0,1,1.1,1.266,2.582,2.582,0,0,1,.152.9,3.527,3.527,0,0,1-.258,1.344,3.015,3.015,0,0,1-.785,1.109,3.872,3.872,0,0,1-1.32.758,5.576,5.576,0,0,1-1.863.281,6.015,6.015,0,0,1-.844-.059,7.784,7.784,0,0,1-.777-.148,6.172,6.172,0,0,1-.668-.2,4.266,4.266,0,0,1-.523-.23l.273-1.219a4.154,4.154,0,0,0,.5.281,4.637,4.637,0,0,0,.633.246,5.908,5.908,0,0,0,.711.172,4.184,4.184,0,0,0,.738.066,4.1,4.1,0,0,0,1.375-.2,2.459,2.459,0,0,0,.891-.523,1.836,1.836,0,0,0,.477-.742,2.666,2.666,0,0,0,.141-.855,1.777,1.777,0,0,0-.687-1.473,3.319,3.319,0,0,0-2.078-.543h-.852l.242-1.1h.93a5.638,5.638,0,0,0,1.434-.164,3.181,3.181,0,0,0,1.043-.465,1.979,1.979,0,0,0,.637-.73,2.119,2.119,0,0,0,.215-.961,1.848,1.848,0,0,0-.109-.637,1.369,1.369,0,0,0-.34-.523,1.685,1.685,0,0,0-.578-.355,2.333,2.333,0,0,0-.832-.133,4.781,4.781,0,0,0-.762.059,5.62,5.62,0,0,0-.684.152,5.346,5.346,0,0,0-1.078.445l.266-1.281q.2-.078.453-.16a5.634,5.634,0,0,1,.555-.148q.3-.066.672-.109a6.952,6.952,0,0,1,.8-.043,3.668,3.668,0,0,1,1.344.219,2.675,2.675,0,0,1,.914.574,2.171,2.171,0,0,1,.523.8A2.635,2.635,0,0,1,217.438,8.117Zm8.781,1.375a10.617,10.617,0,0,1-.172,1.879,9.587,9.587,0,0,1-.523,1.844,8.285,8.285,0,0,1-.879,1.652,5.631,5.631,0,0,1-1.238,1.3,4.894,4.894,0,0,1-1.484.777,5.481,5.481,0,0,1-1.656.246,5.849,5.849,0,0,1-1.1-.094,2.74,2.74,0,0,1-.738-.227l.172-1.219a3.992,3.992,0,0,0,.707.3,3.231,3.231,0,0,0,1.02.145,3.779,3.779,0,0,0,1.266-.215,3.663,3.663,0,0,0,1.086-.6,4.248,4.248,0,0,0,.727-.711,6.1,6.1,0,0,0,.613-.922,7.608,7.608,0,0,0,.488-1.1,8.453,8.453,0,0,0,.336-1.25h-.031a3.819,3.819,0,0,1-.508.648,3.263,3.263,0,0,1-.633.508,3.066,3.066,0,0,1-.742.328,2.947,2.947,0,0,1-.836.117,2.911,2.911,0,0,1-1.379-.3,2.643,2.643,0,0,1-.9-.754,2.964,2.964,0,0,1-.488-1.012,4.109,4.109,0,0,1-.148-1.062,4.873,4.873,0,0,1,.1-.957,4.512,4.512,0,0,1,.3-.953A4.38,4.38,0,0,1,220.1,7a3.455,3.455,0,0,1,1.715-1.207,3.927,3.927,0,0,1,1.223-.18,3.152,3.152,0,0,1,1.4.293,2.727,2.727,0,0,1,.992.816,3.624,3.624,0,0,1,.59,1.23A5.781,5.781,0,0,1,226.219,9.492Zm-1.312-.336a3.391,3.391,0,0,0-.141-1.008,2.311,2.311,0,0,0-.4-.773,1.843,1.843,0,0,0-.617-.5,1.757,1.757,0,0,0-.8-.18,2.138,2.138,0,0,0-1.043.25,2.453,2.453,0,0,0-.773.66,2.944,2.944,0,0,0-.48.945,3.75,3.75,0,0,0-.164,1.105,3.049,3.049,0,0,0,.1.777,2,2,0,0,0,.328.691,1.721,1.721,0,0,0,.59.5,1.883,1.883,0,0,0,.887.191,2.473,2.473,0,0,0,1.133-.242,2.309,2.309,0,0,0,.781-.629,2.61,2.61,0,0,0,.449-.859A3.156,3.156,0,0,0,224.906,9.156ZM234.3,17h-1.086l-1.266-8h1.3l.7,5.039q.023.148.043.336t.039.383q.02.2.027.383t.008.336h.031q.063-.141.145-.32t.184-.371q.1-.191.207-.387t.2-.359L237.688,9h1.461Zm11.633-6.125a2.381,2.381,0,0,1-.281,1.152,2.331,2.331,0,0,1-.93.891,5.584,5.584,0,0,1-1.711.574,14.678,14.678,0,0,1-2.625.211,1,1,0,0,0-.016.18v.156a2.657,2.657,0,0,0,.117.8,1.8,1.8,0,0,0,.363.656,1.714,1.714,0,0,0,.633.445,2.341,2.341,0,0,0,.918.164,3.9,3.9,0,0,0,1.184-.207,5.087,5.087,0,0,0,1.23-.59l-.242,1.266a5.078,5.078,0,0,1-1.023.438,4.4,4.4,0,0,1-1.328.188,3.609,3.609,0,0,1-1.488-.273,2.621,2.621,0,0,1-.977-.73,2.848,2.848,0,0,1-.535-1.055,4.716,4.716,0,0,1-.164-1.254,5.8,5.8,0,0,1,.156-1.355,5.519,5.519,0,0,1,.441-1.215,5.149,5.149,0,0,1,.684-1.027,4.443,4.443,0,0,1,.883-.793,4.092,4.092,0,0,1,1.039-.508,3.7,3.7,0,0,1,1.148-.18,3.319,3.319,0,0,1,1.09.164,2.277,2.277,0,0,1,.789.449,1.915,1.915,0,0,1,.48.66A1.966,1.966,0,0,1,245.93,10.875Zm-1.3.063a.9.9,0,0,0-.363-.766A1.565,1.565,0,0,0,243.3,9.9a2.163,2.163,0,0,0-.922.207,2.984,2.984,0,0,0-.82.57,3.56,3.56,0,0,0-.648.867,4.038,4.038,0,0,0-.4,1.09,13.5,13.5,0,0,0,1.9-.113,4.925,4.925,0,0,0,1.273-.332,1.712,1.712,0,0,0,.719-.535A1.2,1.2,0,0,0,244.625,10.938Zm8.359-.352a2.941,2.941,0,0,0-.793-.488,2.582,2.582,0,0,0-1.027-.2,2.427,2.427,0,0,0-.973.188,2.684,2.684,0,0,0-.77.5,3.244,3.244,0,0,0-.578.719,4.793,4.793,0,0,0-.4.844,5.193,5.193,0,0,0-.23.871,4.809,4.809,0,0,0-.074.809,2.552,2.552,0,0,0,.492,1.7,1.672,1.672,0,0,0,1.344.578,2.957,2.957,0,0,0,1.07-.215,5.151,5.151,0,0,0,1.047-.551l-.273,1.281a5.483,5.483,0,0,1-1.012.426,3.666,3.666,0,0,1-1.066.152,3.029,3.029,0,0,1-1.277-.25,2.5,2.5,0,0,1-.9-.687,2.946,2.946,0,0,1-.539-1.035,4.472,4.472,0,0,1-.18-1.293,6.315,6.315,0,0,1,.133-1.293,5.569,5.569,0,0,1,.395-1.2,5.219,5.219,0,0,1,.645-1.051A4.107,4.107,0,0,1,250,9a4.451,4.451,0,0,1,1.961-.152,3.8,3.8,0,0,1,.555.125,3.736,3.736,0,0,1,.445.168,1.829,1.829,0,0,1,.313.176Zm7.711.289a2.381,2.381,0,0,1-.281,1.152,2.331,2.331,0,0,1-.93.891,5.584,5.584,0,0,1-1.711.574,14.678,14.678,0,0,1-2.625.211,1,1,0,0,0-.016.18v.156a2.657,2.657,0,0,0,.117.8,1.8,1.8,0,0,0,.363.656,1.714,1.714,0,0,0,.633.445,2.341,2.341,0,0,0,.918.164,3.9,3.9,0,0,0,1.184-.207,5.087,5.087,0,0,0,1.23-.59l-.242,1.266a5.078,5.078,0,0,1-1.023.438,4.4,4.4,0,0,1-1.328.188,3.609,3.609,0,0,1-1.488-.273,2.621,2.621,0,0,1-.977-.73,2.848,2.848,0,0,1-.535-1.055,4.716,4.716,0,0,1-.164-1.254,5.8,5.8,0,0,1,.156-1.355,5.519,5.519,0,0,1,.441-1.215,5.149,5.149,0,0,1,.684-1.027,4.443,4.443,0,0,1,.883-.793,4.092,4.092,0,0,1,1.039-.508,3.7,3.7,0,0,1,1.148-.18,3.319,3.319,0,0,1,1.09.164,2.277,2.277,0,0,1,.789.449,1.915,1.915,0,0,1,.48.66A1.966,1.966,0,0,1,260.7,10.875Zm-1.3.063a.9.9,0,0,0-.363-.766,1.565,1.565,0,0,0-.965-.273,2.163,2.163,0,0,0-.922.207,2.984,2.984,0,0,0-.82.57,3.56,3.56,0,0,0-.648.867,4.038,4.038,0,0,0-.4,1.09,13.5,13.5,0,0,0,1.9-.113,4.925,4.925,0,0,0,1.273-.332,1.712,1.712,0,0,0,.719-.535A1.2,1.2,0,0,0,259.391,10.938Zm7.273-.531a3.33,3.33,0,0,0-.789-.367A2.845,2.845,0,0,0,265,9.9a1.726,1.726,0,0,0-1.137.336,1.1,1.1,0,0,0-.4.891,1.116,1.116,0,0,0,.074.414,1.25,1.25,0,0,0,.219.355,1.985,1.985,0,0,0,.367.324q.223.156.512.336a4.028,4.028,0,0,1,1.262,1.043,2.01,2.01,0,0,1,.387,1.207,2.436,2.436,0,0,1-.168.887,2,2,0,0,1-.535.766,2.744,2.744,0,0,1-.949.535,4.331,4.331,0,0,1-1.418.2,4.7,4.7,0,0,1-.516-.031,5.462,5.462,0,0,1-.566-.094,4.941,4.941,0,0,1-.547-.152,2.408,2.408,0,0,1-.457-.207l.258-1.219a2.69,2.69,0,0,0,.387.219,4,4,0,0,0,.5.2,4.673,4.673,0,0,0,.563.141,3.166,3.166,0,0,0,.582.055,1.834,1.834,0,0,0,1.168-.312,1.053,1.053,0,0,0,.387-.867,1.155,1.155,0,0,0-.059-.375,1.052,1.052,0,0,0-.207-.344,2.3,2.3,0,0,0-.391-.348q-.242-.176-.609-.395a3.946,3.946,0,0,1-1.176-1.012,1.992,1.992,0,0,1-.379-1.191,2.432,2.432,0,0,1,.18-.926,2.24,2.24,0,0,1,.535-.781,2.6,2.6,0,0,1,.895-.543,3.559,3.559,0,0,1,1.258-.2,5.018,5.018,0,0,1,1.066.109,3.786,3.786,0,0,1,.855.281Z" transform="translate(167.504 86.993)" fill="#12263f"/>
    </g>
  </g>
</svg>
