<svg xmlns="http://www.w3.org/2000/svg" width="612.073" height="85.045" viewBox="0 0 612.073 85.045">
  <g id="Grupo_1113524" data-name="Grupo 1113524" transform="translate(-313.051 -11712)">
    <g id="Grupo_1113470" data-name="Grupo 1113470" transform="translate(351.051 11712)">
      <rect id="Rect치ngulo_406002" data-name="Rect치ngulo 406002" width="601.432" height="76.918" transform="translate(-27.359 8.127)" fill="#bce0fc"/>
      <g id="Rect치ngulo_406003" data-name="Rect치ngulo 406003" transform="translate(-38)" fill="#fbfbf9" stroke="#000" stroke-width="0.5">
        <rect width="607.87" height="78.918" stroke="none"/>
        <rect x="0.25" y="0.25" width="607.37" height="78.418" fill="none"/>
      </g>
      <g id="Grupo_1113471" data-name="Grupo 1113471" transform="translate(13 17)">
        <path id="Trazado_908182" data-name="Trazado 908182" d="M18.211,8.57a3.269,3.269,0,0,1-.254,1.313,3.031,3.031,0,0,1-.7,1.008,3.416,3.416,0,0,1-1.062.676,4.532,4.532,0,0,1-1.344.316v.031a1.3,1.3,0,0,1,.645.492,3.027,3.027,0,0,1,.449,1.008L16.883,17H15.445l-.828-3.344a2.026,2.026,0,0,0-.574-1.078A1.531,1.531,0,0,0,13,12.234h-.977L11,17H9.656L12.023,5.8h3.086a4.028,4.028,0,0,1,1.406.219,2.615,2.615,0,0,1,.961.6,2.373,2.373,0,0,1,.555.883A3.175,3.175,0,0,1,18.211,8.57Zm-1.375.141a1.976,1.976,0,0,0-.117-.691,1.431,1.431,0,0,0-.359-.547,1.666,1.666,0,0,0-.617-.359,2.747,2.747,0,0,0-.891-.129H13.125l-.859,4.063h1.547a4.36,4.36,0,0,0,1.395-.2,2.728,2.728,0,0,0,.938-.516,1.894,1.894,0,0,0,.527-.746A2.424,2.424,0,0,0,16.836,8.711Zm9.508,3.25a6.659,6.659,0,0,1-.3,2.016,5.154,5.154,0,0,1-.867,1.668A4.19,4.19,0,0,1,23.8,16.777a3.914,3.914,0,0,1-1.824.418,3.33,3.33,0,0,1-1.238-.219,2.576,2.576,0,0,1-.937-.629,2.786,2.786,0,0,1-.594-.992A3.912,3.912,0,0,1,19,14.039a6.519,6.519,0,0,1,.316-2.059,5.2,5.2,0,0,1,.891-1.664,4.161,4.161,0,0,1,1.375-1.109,3.885,3.885,0,0,1,1.77-.4,3.308,3.308,0,0,1,1.23.219,2.614,2.614,0,0,1,.941.629,2.848,2.848,0,0,1,.605.992A3.783,3.783,0,0,1,26.344,11.961Zm-1.312.063a2.987,2.987,0,0,0-.125-.9,1.919,1.919,0,0,0-.352-.664,1.525,1.525,0,0,0-.547-.414,1.729,1.729,0,0,0-.719-.145,2.272,2.272,0,0,0-1.242.352,3.143,3.143,0,0,0-.937.926,4.591,4.591,0,0,0-.59,1.3,5.46,5.46,0,0,0-.207,1.5,2.988,2.988,0,0,0,.121.879,2,2,0,0,0,.344.672,1.484,1.484,0,0,0,.547.426,1.735,1.735,0,0,0,.73.148,2.3,2.3,0,0,0,1.25-.348,3.1,3.1,0,0,0,.938-.922,4.506,4.506,0,0,0,.586-1.309A5.6,5.6,0,0,0,25.031,12.023Zm7.313-1.937H30.328l-.9,4.242q-.047.242-.094.523a2.892,2.892,0,0,0-.047.453.789.789,0,0,0,.176.574.764.764,0,0,0,.559.176,1.228,1.228,0,0,0,.242-.031q.148-.031.3-.078t.309-.105l.27-.105-.242,1.125a3.788,3.788,0,0,1-.621.2,2.877,2.877,0,0,1-.66.082,2.234,2.234,0,0,1-.758-.113,1.3,1.3,0,0,1-.512-.324,1.256,1.256,0,0,1-.289-.512,2.359,2.359,0,0,1-.09-.676,3.788,3.788,0,0,1,.043-.527,5.467,5.467,0,0,1,.105-.551l.922-4.352H27.719L27.961,9h1.313l.414-1.953a2.408,2.408,0,0,1,.238-.074q.207-.059.453-.133l.453-.137.23-.07L30.57,9h2.016ZM39.2,14.438q-.063.3-.121.668t-.1.734q-.043.363-.07.676T38.875,17H37.547q.008-.156.023-.375t.043-.453q.027-.234.055-.461t.059-.391H37.7q-.242.383-.492.723a3.478,3.478,0,0,1-.555.6,2.429,2.429,0,0,1-.68.406,2.612,2.612,0,0,1-1.84-.039,2.006,2.006,0,0,1-.746-.559,2.574,2.574,0,0,1-.48-.93,4.532,4.532,0,0,1-.168-1.3,6.518,6.518,0,0,1,.094-1.031,6.309,6.309,0,0,1,.316-1.18,6.007,6.007,0,0,1,.594-1.176A4.465,4.465,0,0,1,34.66,9.8a4.4,4.4,0,0,1,1.3-.727A5.051,5.051,0,0,1,37.7,8.8a9.22,9.22,0,0,1,1.289.094q.664.094,1.32.227Zm-.367-4.383q-.273-.062-.641-.109A5.447,5.447,0,0,0,37.5,9.9a3.119,3.119,0,0,0-1.2.215,3.077,3.077,0,0,0-.9.563,3.313,3.313,0,0,0-.645.8,4.965,4.965,0,0,0-.418.926,5.448,5.448,0,0,0-.223.934,5.91,5.91,0,0,0-.066.836,3.744,3.744,0,0,0,.078.8,1.748,1.748,0,0,0,.246.605,1.156,1.156,0,0,0,.43.387,1.325,1.325,0,0,0,.621.137,1.692,1.692,0,0,0,.73-.16,2.532,2.532,0,0,0,.637-.434,3.56,3.56,0,0,0,.539-.633,6.225,6.225,0,0,0,.438-.762,6.515,6.515,0,0,0,.332-.82q.137-.418.223-.809Zm8.719.531a2.941,2.941,0,0,0-.793-.488,2.582,2.582,0,0,0-1.027-.2,2.427,2.427,0,0,0-.973.188,2.684,2.684,0,0,0-.77.5,3.244,3.244,0,0,0-.578.719,4.793,4.793,0,0,0-.4.844,5.193,5.193,0,0,0-.23.871,4.81,4.81,0,0,0-.074.809,2.552,2.552,0,0,0,.492,1.7,1.672,1.672,0,0,0,1.344.578,2.957,2.957,0,0,0,1.07-.215,5.151,5.151,0,0,0,1.047-.551l-.273,1.281a5.483,5.483,0,0,1-1.012.426A3.666,3.666,0,0,1,44.3,17.2a3.029,3.029,0,0,1-1.277-.25,2.5,2.5,0,0,1-.9-.687,2.946,2.946,0,0,1-.539-1.035,4.472,4.472,0,0,1-.18-1.293,6.315,6.315,0,0,1,.133-1.293,5.569,5.569,0,0,1,.395-1.2,5.218,5.218,0,0,1,.645-1.051A4.107,4.107,0,0,1,44.563,9a4.451,4.451,0,0,1,1.961-.152,3.8,3.8,0,0,1,.555.125,3.737,3.737,0,0,1,.445.168,1.829,1.829,0,0,1,.313.176Zm3.477,6.383a2.994,2.994,0,0,1-.441.1,3.111,3.111,0,0,1-.488.039,1.594,1.594,0,0,1-1.18-.395,1.439,1.439,0,0,1-.391-1.059,3.227,3.227,0,0,1,.039-.461q.039-.266.125-.656L49.852,9h1.3l-1.172,5.57q-.07.328-.1.508a2.078,2.078,0,0,0-.027.3.644.644,0,0,0,.176.488.787.787,0,0,0,.559.168,2.366,2.366,0,0,0,.355-.023,1.575,1.575,0,0,0,.285-.07Zm.914-10.82a.841.841,0,0,1-.238.6.782.782,0,0,1-.59.25.831.831,0,0,1-.6-.246.81.81,0,0,1-.254-.605.749.749,0,0,1,.254-.586.869.869,0,0,1,.6-.227.819.819,0,0,1,.586.23A.769.769,0,0,1,51.938,6.148Zm7.93,5.813a6.659,6.659,0,0,1-.3,2.016,5.153,5.153,0,0,1-.867,1.668,4.19,4.19,0,0,1-1.375,1.133A3.914,3.914,0,0,1,55.5,17.2a3.33,3.33,0,0,1-1.238-.219,2.576,2.576,0,0,1-.937-.629,2.786,2.786,0,0,1-.594-.992,3.912,3.912,0,0,1-.207-1.316,6.519,6.519,0,0,1,.316-2.059,5.2,5.2,0,0,1,.891-1.664,4.161,4.161,0,0,1,1.375-1.109,3.885,3.885,0,0,1,1.77-.4,3.308,3.308,0,0,1,1.23.219,2.614,2.614,0,0,1,.941.629,2.848,2.848,0,0,1,.605.992A3.783,3.783,0,0,1,59.867,11.961Zm-1.312.063a2.987,2.987,0,0,0-.125-.9,1.919,1.919,0,0,0-.352-.664,1.525,1.525,0,0,0-.547-.414,1.729,1.729,0,0,0-.719-.145,2.272,2.272,0,0,0-1.242.352,3.143,3.143,0,0,0-.937.926,4.591,4.591,0,0,0-.59,1.3,5.46,5.46,0,0,0-.207,1.5,2.988,2.988,0,0,0,.121.879,2,2,0,0,0,.344.672,1.484,1.484,0,0,0,.547.426,1.735,1.735,0,0,0,.73.148,2.3,2.3,0,0,0,1.25-.348,3.1,3.1,0,0,0,.938-.922,4.506,4.506,0,0,0,.586-1.309A5.6,5.6,0,0,0,58.555,12.023ZM56.906,7.477h-.961L58.2,4.922h1.258ZM68.648,11a2.547,2.547,0,0,1-.027.32q-.027.2-.07.438t-.086.465q-.043.23-.082.395L67.453,17h-1.3l.977-4.687q.031-.125.063-.289t.055-.328q.023-.164.039-.3a2.01,2.01,0,0,0,.016-.215,1.424,1.424,0,0,0-.285-.937,1.038,1.038,0,0,0-.848-.344,1.972,1.972,0,0,0-1.023.3,4.211,4.211,0,0,0-.937.773,5.275,5.275,0,0,0-.738,1.031,3.952,3.952,0,0,0-.418,1.086L62.219,17h-1.3l1.234-5.711q.063-.3.125-.637t.117-.641q.055-.309.094-.574T62.555,9H63.8q-.039.3-.094.637t-.094.613q-.047.328-.1.641h.031a6.607,6.607,0,0,1,.605-.809,4.531,4.531,0,0,1,.719-.664,3.413,3.413,0,0,1,.82-.449A2.55,2.55,0,0,1,66.6,8.8a2.362,2.362,0,0,1,.914.16,1.712,1.712,0,0,1,.637.449,1.829,1.829,0,0,1,.375.7A3.108,3.108,0,0,1,68.648,11Zm12.258,3.539q-.055.25-.105.6t-.09.707q-.039.355-.066.668T80.617,17H79.289q0-.133.02-.355t.047-.465q.027-.242.059-.465t.055-.363h-.031a7.891,7.891,0,0,1-.562.8,3.256,3.256,0,0,1-.594.578,2.386,2.386,0,0,1-.664.348,2.434,2.434,0,0,1-.773.117,2.39,2.39,0,0,1-.984-.2,2.006,2.006,0,0,1-.746-.574,2.646,2.646,0,0,1-.473-.937,4.57,4.57,0,0,1-.164-1.285A6.325,6.325,0,0,1,74.6,13a6.161,6.161,0,0,1,.375-1.227,5.749,5.749,0,0,1,.645-1.141,4.367,4.367,0,0,1,2.164-1.59A4.775,4.775,0,0,1,79.336,8.8a5.273,5.273,0,0,1,.813.059q.375.059.648.121l.813-3.828h1.266Zm-.336-4.453a5.033,5.033,0,0,0-.621-.137,4.471,4.471,0,0,0-.691-.051,3.17,3.17,0,0,0-1.2.211,3.024,3.024,0,0,0-.906.563,3.367,3.367,0,0,0-.648.8,5.046,5.046,0,0,0-.422.922,5.248,5.248,0,0,0-.227.93,5.785,5.785,0,0,0-.066.824,3.949,3.949,0,0,0,.074.8,1.779,1.779,0,0,0,.242.617,1.157,1.157,0,0,0,.434.4,1.353,1.353,0,0,0,.641.141,1.658,1.658,0,0,0,.73-.164,2.516,2.516,0,0,0,.637-.445,3.677,3.677,0,0,0,.539-.648,6.291,6.291,0,0,0,.438-.781,6.943,6.943,0,0,0,.332-.84q.137-.426.223-.816Zm9.453.789a2.381,2.381,0,0,1-.281,1.152,2.331,2.331,0,0,1-.93.891,5.584,5.584,0,0,1-1.711.574,14.678,14.678,0,0,1-2.625.211,1,1,0,0,0-.016.18v.156a2.657,2.657,0,0,0,.117.8,1.8,1.8,0,0,0,.363.656,1.714,1.714,0,0,0,.633.445,2.341,2.341,0,0,0,.918.164,3.9,3.9,0,0,0,1.184-.207,5.087,5.087,0,0,0,1.23-.59l-.242,1.266a5.078,5.078,0,0,1-1.023.438,4.4,4.4,0,0,1-1.328.188,3.609,3.609,0,0,1-1.488-.273,2.621,2.621,0,0,1-.977-.73,2.848,2.848,0,0,1-.535-1.055,4.716,4.716,0,0,1-.164-1.254,5.8,5.8,0,0,1,.156-1.355,5.519,5.519,0,0,1,.441-1.215,5.148,5.148,0,0,1,.684-1.027,4.444,4.444,0,0,1,.883-.793,4.092,4.092,0,0,1,1.039-.508A3.7,3.7,0,0,1,87.5,8.8a3.319,3.319,0,0,1,1.09.164,2.277,2.277,0,0,1,.789.449,1.915,1.915,0,0,1,.48.66A1.966,1.966,0,0,1,90.023,10.875Zm-1.3.063a.9.9,0,0,0-.363-.766,1.565,1.565,0,0,0-.965-.273,2.163,2.163,0,0,0-.922.207,2.984,2.984,0,0,0-.82.57,3.56,3.56,0,0,0-.648.867,4.038,4.038,0,0,0-.4,1.09,13.5,13.5,0,0,0,1.9-.113,4.925,4.925,0,0,0,1.273-.332,1.712,1.712,0,0,0,.719-.535A1.2,1.2,0,0,0,88.719,10.938Zm9.258,6.031a2.994,2.994,0,0,1-.441.1,3.111,3.111,0,0,1-.488.039,1.594,1.594,0,0,1-1.18-.395,1.439,1.439,0,0,1-.391-1.059,3.228,3.228,0,0,1,.039-.461q.039-.266.125-.656L96.8,9h1.3L96.93,14.57q-.07.328-.1.508a2.079,2.079,0,0,0-.027.3.644.644,0,0,0,.176.488.787.787,0,0,0,.559.168,2.366,2.366,0,0,0,.355-.023,1.575,1.575,0,0,0,.285-.07Zm.914-10.82a.841.841,0,0,1-.238.6.782.782,0,0,1-.59.25.831.831,0,0,1-.6-.246.81.81,0,0,1-.254-.605.749.749,0,0,1,.254-.586.869.869,0,0,1,.6-.227.819.819,0,0,1,.586.23A.769.769,0,0,1,98.891,6.148ZM107.039,11a2.547,2.547,0,0,1-.027.32q-.027.2-.07.438t-.086.465q-.043.23-.082.395L105.844,17h-1.3l.977-4.687q.031-.125.063-.289t.055-.328q.023-.164.039-.3a2.01,2.01,0,0,0,.016-.215,1.424,1.424,0,0,0-.285-.937,1.038,1.038,0,0,0-.848-.344,1.972,1.972,0,0,0-1.023.3,4.211,4.211,0,0,0-.937.773,5.274,5.274,0,0,0-.738,1.031,3.952,3.952,0,0,0-.418,1.086L100.609,17h-1.3l1.234-5.711q.062-.3.125-.637t.117-.641q.055-.309.094-.574T100.945,9h1.25q-.039.3-.094.637t-.094.613q-.047.328-.1.641h.031a6.607,6.607,0,0,1,.605-.809,4.531,4.531,0,0,1,.719-.664,3.413,3.413,0,0,1,.82-.449,2.55,2.55,0,0,1,.91-.164,2.362,2.362,0,0,1,.914.16,1.712,1.712,0,0,1,.637.449,1.829,1.829,0,0,1,.375.7A3.108,3.108,0,0,1,107.039,11Zm4.242,6H110.2L108.93,9h1.3l.7,5.039q.023.148.043.336t.039.383q.02.2.027.383t.008.336h.031q.062-.141.145-.32t.184-.371q.1-.191.207-.387t.2-.359L114.672,9h1.461Zm11.633-6.125a2.381,2.381,0,0,1-.281,1.152,2.331,2.331,0,0,1-.93.891,5.584,5.584,0,0,1-1.711.574,14.678,14.678,0,0,1-2.625.211,1,1,0,0,0-.016.18v.156a2.657,2.657,0,0,0,.117.8,1.8,1.8,0,0,0,.363.656,1.714,1.714,0,0,0,.633.445,2.341,2.341,0,0,0,.918.164,3.9,3.9,0,0,0,1.184-.207,5.087,5.087,0,0,0,1.23-.59l-.242,1.266a5.078,5.078,0,0,1-1.023.438,4.4,4.4,0,0,1-1.328.188,3.609,3.609,0,0,1-1.488-.273,2.621,2.621,0,0,1-.977-.73,2.848,2.848,0,0,1-.535-1.055,4.716,4.716,0,0,1-.164-1.254,5.8,5.8,0,0,1,.156-1.355,5.519,5.519,0,0,1,.441-1.215,5.148,5.148,0,0,1,.684-1.027,4.444,4.444,0,0,1,.883-.793,4.092,4.092,0,0,1,1.039-.508,3.7,3.7,0,0,1,1.148-.18,3.319,3.319,0,0,1,1.09.164,2.277,2.277,0,0,1,.789.449,1.915,1.915,0,0,1,.48.66A1.966,1.966,0,0,1,122.914,10.875Zm-1.3.063a.9.9,0,0,0-.363-.766,1.565,1.565,0,0,0-.965-.273,2.163,2.163,0,0,0-.922.207,2.984,2.984,0,0,0-.82.57,3.56,3.56,0,0,0-.648.867,4.038,4.038,0,0,0-.4,1.09,13.5,13.5,0,0,0,1.9-.113,4.925,4.925,0,0,0,1.273-.332,1.712,1.712,0,0,0,.719-.535A1.2,1.2,0,0,0,121.609,10.938Zm9.781.063a2.545,2.545,0,0,1-.027.32q-.027.2-.07.438t-.086.465q-.043.23-.082.395L130.2,17h-1.3l.977-4.687q.031-.125.063-.289t.055-.328q.023-.164.039-.3a2.008,2.008,0,0,0,.016-.215,1.424,1.424,0,0,0-.285-.937,1.038,1.038,0,0,0-.848-.344,1.972,1.972,0,0,0-1.023.3,4.211,4.211,0,0,0-.937.773,5.274,5.274,0,0,0-.738,1.031,3.952,3.952,0,0,0-.418,1.086L124.961,17h-1.3l1.234-5.711q.062-.3.125-.637t.117-.641q.055-.309.094-.574T125.3,9h1.25q-.039.3-.094.637t-.094.613q-.047.328-.1.641h.031a6.607,6.607,0,0,1,.605-.809,4.531,4.531,0,0,1,.719-.664,3.413,3.413,0,0,1,.82-.449,2.55,2.55,0,0,1,.91-.164,2.362,2.362,0,0,1,.914.16,1.712,1.712,0,0,1,.637.449,1.829,1.829,0,0,1,.375.7A3.108,3.108,0,0,1,131.391,11Zm6.211-.914h-2.016l-.9,4.242q-.047.242-.094.523a2.892,2.892,0,0,0-.047.453.789.789,0,0,0,.176.574.764.764,0,0,0,.559.176,1.228,1.228,0,0,0,.242-.031q.148-.031.3-.078t.309-.105l.27-.105-.242,1.125a3.788,3.788,0,0,1-.621.2,2.877,2.877,0,0,1-.66.082,2.234,2.234,0,0,1-.758-.113,1.3,1.3,0,0,1-.512-.324,1.256,1.256,0,0,1-.289-.512,2.359,2.359,0,0,1-.09-.676,3.789,3.789,0,0,1,.043-.527,5.464,5.464,0,0,1,.105-.551l.922-4.352h-1.328L133.219,9h1.313l.414-1.953a2.408,2.408,0,0,1,.238-.074q.207-.059.453-.133l.453-.137.23-.07L135.828,9h2.016Zm6.852,4.352q-.063.3-.121.668t-.1.734q-.043.363-.07.676t-.027.484H142.8q.008-.156.023-.375t.043-.453q.027-.234.055-.461t.059-.391h-.031q-.242.383-.492.723a3.478,3.478,0,0,1-.555.6,2.429,2.429,0,0,1-.68.406,2.612,2.612,0,0,1-1.84-.039,2.006,2.006,0,0,1-.746-.559,2.574,2.574,0,0,1-.48-.93,4.531,4.531,0,0,1-.168-1.3,6.518,6.518,0,0,1,.094-1.031,6.309,6.309,0,0,1,.316-1.18A6.007,6.007,0,0,1,139,10.832a4.465,4.465,0,0,1,.922-1.027,4.4,4.4,0,0,1,1.3-.727,5.051,5.051,0,0,1,1.734-.273,9.22,9.22,0,0,1,1.289.094q.664.094,1.32.227Zm-.367-4.383q-.273-.062-.641-.109a5.447,5.447,0,0,0-.687-.047,3.119,3.119,0,0,0-1.2.215,3.077,3.077,0,0,0-.9.563,3.313,3.313,0,0,0-.645.8,4.965,4.965,0,0,0-.418.926,5.448,5.448,0,0,0-.223.934,5.911,5.911,0,0,0-.066.836,3.744,3.744,0,0,0,.078.8,1.748,1.748,0,0,0,.246.605,1.156,1.156,0,0,0,.43.387,1.325,1.325,0,0,0,.621.137,1.692,1.692,0,0,0,.73-.16,2.532,2.532,0,0,0,.637-.434,3.56,3.56,0,0,0,.539-.633,6.225,6.225,0,0,0,.438-.762,6.515,6.515,0,0,0,.332-.82q.137-.418.223-.809Zm7.953.3h-.031a2.307,2.307,0,0,0-.41-.184,1.5,1.5,0,0,0-.5-.09,1.479,1.479,0,0,0-.867.293,3.188,3.188,0,0,0-.754.773,5.549,5.549,0,0,0-.594,1.1,7.5,7.5,0,0,0-.395,1.266L147.734,17h-1.281l1.125-5.312q.07-.328.141-.687t.129-.719q.059-.359.105-.687t.07-.594h1.266q-.023.234-.055.5t-.062.508q-.031.246-.062.445t-.047.309h.031a8.624,8.624,0,0,1,.508-.8,3.717,3.717,0,0,1,.543-.613,2.3,2.3,0,0,1,.605-.395,1.71,1.71,0,0,1,.7-.141,2.206,2.206,0,0,1,.434.043q.215.043.387.09Zm2.945,6.609a2.994,2.994,0,0,1-.441.1,3.111,3.111,0,0,1-.488.039,1.594,1.594,0,0,1-1.18-.395,1.439,1.439,0,0,1-.391-1.059,3.227,3.227,0,0,1,.039-.461q.039-.266.125-.656L153.813,9h1.3l-1.172,5.57q-.07.328-.1.508a2.078,2.078,0,0,0-.027.3.644.644,0,0,0,.176.488.787.787,0,0,0,.559.168,2.366,2.366,0,0,0,.355-.023,1.575,1.575,0,0,0,.285-.07Zm.914-10.82a.841.841,0,0,1-.238.6.782.782,0,0,1-.59.25.831.831,0,0,1-.6-.246.81.81,0,0,1-.254-.605.749.749,0,0,1,.254-.586.869.869,0,0,1,.6-.227.819.819,0,0,1,.586.23A.769.769,0,0,1,155.9,6.148Zm7.93,5.813a6.659,6.659,0,0,1-.3,2.016,5.153,5.153,0,0,1-.867,1.668,4.19,4.19,0,0,1-1.375,1.133,3.914,3.914,0,0,1-1.824.418,3.33,3.33,0,0,1-1.238-.219,2.576,2.576,0,0,1-.937-.629,2.786,2.786,0,0,1-.594-.992,3.912,3.912,0,0,1-.207-1.316,6.519,6.519,0,0,1,.316-2.059,5.2,5.2,0,0,1,.891-1.664,4.161,4.161,0,0,1,1.375-1.109,3.885,3.885,0,0,1,1.77-.4,3.308,3.308,0,0,1,1.23.219,2.614,2.614,0,0,1,.941.629,2.848,2.848,0,0,1,.605.992A3.783,3.783,0,0,1,163.828,11.961Zm-1.312.063a2.987,2.987,0,0,0-.125-.9,1.919,1.919,0,0,0-.352-.664,1.525,1.525,0,0,0-.547-.414,1.729,1.729,0,0,0-.719-.145,2.272,2.272,0,0,0-1.242.352,3.143,3.143,0,0,0-.937.926,4.591,4.591,0,0,0-.59,1.3,5.46,5.46,0,0,0-.207,1.5,2.988,2.988,0,0,0,.121.879,2,2,0,0,0,.344.672,1.484,1.484,0,0,0,.547.426,1.735,1.735,0,0,0,.73.148,2.3,2.3,0,0,0,1.25-.348,3.1,3.1,0,0,0,.938-.922,4.506,4.506,0,0,0,.586-1.309A5.6,5.6,0,0,0,162.516,12.023Zm13.359,2.516q-.055.25-.105.6t-.09.707q-.039.355-.066.668t-.027.484h-1.328q0-.133.02-.355t.047-.465q.027-.242.059-.465t.055-.363h-.031a7.891,7.891,0,0,1-.562.8,3.256,3.256,0,0,1-.594.578,2.385,2.385,0,0,1-.664.348,2.434,2.434,0,0,1-.773.117,2.39,2.39,0,0,1-.984-.2,2.006,2.006,0,0,1-.746-.574,2.646,2.646,0,0,1-.473-.937,4.57,4.57,0,0,1-.164-1.285,6.324,6.324,0,0,1,.121-1.2,6.162,6.162,0,0,1,.375-1.227,5.748,5.748,0,0,1,.645-1.141,4.367,4.367,0,0,1,2.164-1.59A4.775,4.775,0,0,1,174.3,8.8a5.273,5.273,0,0,1,.813.059q.375.059.648.121l.813-3.828h1.266Zm-.336-4.453a5.033,5.033,0,0,0-.621-.137,4.471,4.471,0,0,0-.691-.051,3.17,3.17,0,0,0-1.2.211,3.024,3.024,0,0,0-.906.563,3.367,3.367,0,0,0-.648.8,5.045,5.045,0,0,0-.422.922,5.248,5.248,0,0,0-.227.93,5.786,5.786,0,0,0-.066.824,3.949,3.949,0,0,0,.074.8,1.779,1.779,0,0,0,.242.617,1.157,1.157,0,0,0,.434.4,1.353,1.353,0,0,0,.641.141,1.658,1.658,0,0,0,.73-.164,2.516,2.516,0,0,0,.637-.445,3.676,3.676,0,0,0,.539-.648,6.291,6.291,0,0,0,.438-.781,6.943,6.943,0,0,0,.332-.84q.137-.426.223-.816Zm9.453.789a2.381,2.381,0,0,1-.281,1.152,2.331,2.331,0,0,1-.93.891,5.584,5.584,0,0,1-1.711.574,14.678,14.678,0,0,1-2.625.211,1,1,0,0,0-.016.18v.156a2.657,2.657,0,0,0,.117.8,1.8,1.8,0,0,0,.363.656,1.714,1.714,0,0,0,.633.445,2.341,2.341,0,0,0,.918.164,3.9,3.9,0,0,0,1.184-.207,5.087,5.087,0,0,0,1.23-.59l-.242,1.266a5.078,5.078,0,0,1-1.023.438,4.4,4.4,0,0,1-1.328.188,3.609,3.609,0,0,1-1.488-.273,2.621,2.621,0,0,1-.977-.73,2.848,2.848,0,0,1-.535-1.055,4.716,4.716,0,0,1-.164-1.254,5.8,5.8,0,0,1,.156-1.355,5.519,5.519,0,0,1,.441-1.215,5.149,5.149,0,0,1,.684-1.027,4.443,4.443,0,0,1,.883-.793,4.092,4.092,0,0,1,1.039-.508,3.7,3.7,0,0,1,1.148-.18,3.319,3.319,0,0,1,1.09.164,2.277,2.277,0,0,1,.789.449,1.915,1.915,0,0,1,.48.66A1.966,1.966,0,0,1,184.992,10.875Zm-1.3.063a.9.9,0,0,0-.363-.766,1.565,1.565,0,0,0-.965-.273,2.163,2.163,0,0,0-.922.207,2.984,2.984,0,0,0-.82.57,3.56,3.56,0,0,0-.648.867,4.038,4.038,0,0,0-.4,1.09,13.5,13.5,0,0,0,1.9-.113,4.925,4.925,0,0,0,1.273-.332,1.712,1.712,0,0,0,.719-.535A1.2,1.2,0,0,0,183.688,10.938Zm18.922.078a2.6,2.6,0,0,1-.027.309q-.027.207-.07.441t-.086.465q-.043.23-.074.387L201.406,17h-1.281l.977-4.687q.031-.133.063-.3t.059-.324q.027-.16.043-.3a2.008,2.008,0,0,0,.016-.215,1.487,1.487,0,0,0-.266-.949,1,1,0,0,0-.828-.332,1.542,1.542,0,0,0-.613.137,2.836,2.836,0,0,0-.617.371,4.353,4.353,0,0,0-.578.547,5.567,5.567,0,0,0-.508.668,5.2,5.2,0,0,0-.395.727,3.809,3.809,0,0,0-.242.73L196.4,17h-1.3l.992-4.687q.031-.133.063-.3t.059-.324q.027-.16.043-.3a2.008,2.008,0,0,0,.016-.215A1.457,1.457,0,0,0,196,10.23a1,1,0,0,0-.82-.332,1.586,1.586,0,0,0-.625.137,2.8,2.8,0,0,0-.625.375,4.293,4.293,0,0,0-.582.555,5.826,5.826,0,0,0-.508.672,4.916,4.916,0,0,0-.391.727,3.977,3.977,0,0,0-.238.73L191.375,17h-1.3l1.234-5.711q.063-.3.125-.637t.117-.641q.055-.309.094-.574T191.711,9h1.25q-.039.3-.094.637t-.094.613q-.047.328-.1.641h.031a6.756,6.756,0,0,1,.609-.836,4.456,4.456,0,0,1,.7-.66,3.219,3.219,0,0,1,.766-.434,2.411,2.411,0,0,1,1.688-.008,1.6,1.6,0,0,1,.6.418,1.827,1.827,0,0,1,.363.652,3.264,3.264,0,0,1,.148.852,7.558,7.558,0,0,1,.621-.816A4.41,4.41,0,0,1,198.9,9.4a3.362,3.362,0,0,1,.8-.437,2.542,2.542,0,0,1,.9-.16,1.869,1.869,0,0,1,1.5.582A2.423,2.423,0,0,1,202.609,11.016Zm8.3-.141a2.381,2.381,0,0,1-.281,1.152,2.331,2.331,0,0,1-.93.891,5.584,5.584,0,0,1-1.711.574,14.678,14.678,0,0,1-2.625.211,1,1,0,0,0-.016.18v.156a2.657,2.657,0,0,0,.117.8,1.8,1.8,0,0,0,.363.656,1.714,1.714,0,0,0,.633.445,2.341,2.341,0,0,0,.918.164,3.9,3.9,0,0,0,1.184-.207,5.087,5.087,0,0,0,1.23-.59l-.242,1.266a5.078,5.078,0,0,1-1.023.438,4.4,4.4,0,0,1-1.328.188,3.609,3.609,0,0,1-1.488-.273,2.621,2.621,0,0,1-.977-.73,2.848,2.848,0,0,1-.535-1.055,4.716,4.716,0,0,1-.164-1.254,5.8,5.8,0,0,1,.156-1.355,5.519,5.519,0,0,1,.441-1.215,5.149,5.149,0,0,1,.684-1.027,4.443,4.443,0,0,1,.883-.793,4.092,4.092,0,0,1,1.039-.508,3.7,3.7,0,0,1,1.148-.18,3.319,3.319,0,0,1,1.09.164,2.277,2.277,0,0,1,.789.449,1.915,1.915,0,0,1,.48.66A1.966,1.966,0,0,1,210.906,10.875Zm-1.3.063a.9.9,0,0,0-.363-.766,1.565,1.565,0,0,0-.965-.273,2.163,2.163,0,0,0-.922.207,2.984,2.984,0,0,0-.82.57,3.56,3.56,0,0,0-.648.867,4.038,4.038,0,0,0-.4,1.09,13.5,13.5,0,0,0,1.9-.113,4.925,4.925,0,0,0,1.273-.332,1.712,1.712,0,0,0,.719-.535A1.2,1.2,0,0,0,209.6,10.938Zm7.594-.578h-.031a2.307,2.307,0,0,0-.41-.184,1.5,1.5,0,0,0-.5-.09,1.479,1.479,0,0,0-.867.293,3.188,3.188,0,0,0-.754.773,5.549,5.549,0,0,0-.594,1.1,7.5,7.5,0,0,0-.395,1.266L212.891,17h-1.281l1.125-5.312q.07-.328.141-.687t.129-.719q.059-.359.105-.687T213.18,9h1.266q-.023.234-.055.5t-.062.508q-.031.246-.062.445t-.047.309h.031a8.624,8.624,0,0,1,.508-.8,3.717,3.717,0,0,1,.543-.613,2.3,2.3,0,0,1,.605-.395,1.71,1.71,0,0,1,.7-.141,2.206,2.206,0,0,1,.434.043q.215.043.387.09Zm6.445.227a2.941,2.941,0,0,0-.793-.488,2.582,2.582,0,0,0-1.027-.2,2.427,2.427,0,0,0-.973.188,2.684,2.684,0,0,0-.77.5,3.244,3.244,0,0,0-.578.719,4.793,4.793,0,0,0-.4.844,5.193,5.193,0,0,0-.23.871,4.809,4.809,0,0,0-.074.809,2.552,2.552,0,0,0,.492,1.7,1.672,1.672,0,0,0,1.344.578,2.957,2.957,0,0,0,1.07-.215,5.151,5.151,0,0,0,1.047-.551l-.273,1.281a5.483,5.483,0,0,1-1.012.426,3.666,3.666,0,0,1-1.066.152,3.029,3.029,0,0,1-1.277-.25,2.5,2.5,0,0,1-.9-.687,2.946,2.946,0,0,1-.539-1.035,4.472,4.472,0,0,1-.18-1.293,6.315,6.315,0,0,1,.133-1.293,5.569,5.569,0,0,1,.395-1.2,5.219,5.219,0,0,1,.645-1.051A4.107,4.107,0,0,1,220.656,9a4.451,4.451,0,0,1,1.961-.152,3.8,3.8,0,0,1,.555.125,3.736,3.736,0,0,1,.445.168,1.829,1.829,0,0,1,.313.176Zm7.3,3.852q-.063.3-.121.668t-.1.734q-.043.363-.07.676t-.027.484h-1.328q.008-.156.023-.375t.043-.453q.027-.234.055-.461t.059-.391h-.031q-.242.383-.492.723a3.478,3.478,0,0,1-.555.6,2.429,2.429,0,0,1-.68.406,2.612,2.612,0,0,1-1.84-.039,2.006,2.006,0,0,1-.746-.559,2.574,2.574,0,0,1-.48-.93,4.531,4.531,0,0,1-.168-1.3,6.518,6.518,0,0,1,.094-1.031,6.309,6.309,0,0,1,.316-1.18,6.007,6.007,0,0,1,.594-1.176A4.465,4.465,0,0,1,226.4,9.8a4.4,4.4,0,0,1,1.3-.727,5.051,5.051,0,0,1,1.734-.273,9.22,9.22,0,0,1,1.289.094q.664.094,1.32.227Zm-.367-4.383q-.273-.062-.641-.109a5.447,5.447,0,0,0-.687-.047,3.119,3.119,0,0,0-1.2.215,3.077,3.077,0,0,0-.9.563,3.313,3.313,0,0,0-.645.8,4.965,4.965,0,0,0-.418.926,5.448,5.448,0,0,0-.223.934,5.911,5.911,0,0,0-.066.836,3.744,3.744,0,0,0,.078.8,1.748,1.748,0,0,0,.246.605,1.156,1.156,0,0,0,.43.387,1.325,1.325,0,0,0,.621.137,1.692,1.692,0,0,0,.73-.16,2.532,2.532,0,0,0,.637-.434,3.56,3.56,0,0,0,.539-.633,6.225,6.225,0,0,0,.438-.762,6.515,6.515,0,0,0,.332-.82q.137-.418.223-.809ZM240.711,11a2.545,2.545,0,0,1-.027.32q-.027.2-.07.438t-.086.465q-.043.23-.082.395L239.516,17h-1.3l.977-4.687q.031-.125.063-.289t.055-.328q.023-.164.039-.3a2.008,2.008,0,0,0,.016-.215,1.424,1.424,0,0,0-.285-.937,1.038,1.038,0,0,0-.848-.344,1.972,1.972,0,0,0-1.023.3,4.21,4.21,0,0,0-.937.773,5.275,5.275,0,0,0-.738,1.031,3.952,3.952,0,0,0-.418,1.086L234.281,17h-1.3l1.234-5.711q.063-.3.125-.637t.117-.641q.055-.309.094-.574T234.617,9h1.25q-.039.3-.094.637t-.094.613q-.047.328-.1.641h.031a6.607,6.607,0,0,1,.605-.809,4.531,4.531,0,0,1,.719-.664,3.413,3.413,0,0,1,.82-.449,2.55,2.55,0,0,1,.91-.164,2.362,2.362,0,0,1,.914.16,1.712,1.712,0,0,1,.637.449,1.829,1.829,0,0,1,.375.7A3.108,3.108,0,0,1,240.711,11Zm7.57-.414a2.941,2.941,0,0,0-.793-.488,2.582,2.582,0,0,0-1.027-.2,2.427,2.427,0,0,0-.973.188,2.684,2.684,0,0,0-.77.5,3.244,3.244,0,0,0-.578.719,4.793,4.793,0,0,0-.4.844,5.193,5.193,0,0,0-.23.871,4.809,4.809,0,0,0-.074.809,2.552,2.552,0,0,0,.492,1.7,1.672,1.672,0,0,0,1.344.578,2.957,2.957,0,0,0,1.07-.215,5.151,5.151,0,0,0,1.047-.551l-.273,1.281a5.483,5.483,0,0,1-1.012.426,3.666,3.666,0,0,1-1.066.152,3.029,3.029,0,0,1-1.277-.25,2.5,2.5,0,0,1-.9-.687,2.946,2.946,0,0,1-.539-1.035,4.472,4.472,0,0,1-.18-1.293,6.315,6.315,0,0,1,.133-1.293,5.569,5.569,0,0,1,.395-1.2,5.219,5.219,0,0,1,.645-1.051A4.107,4.107,0,0,1,245.3,9a4.451,4.451,0,0,1,1.961-.152,3.8,3.8,0,0,1,.555.125,3.736,3.736,0,0,1,.445.168,1.829,1.829,0,0,1,.313.176Zm3.477,6.383a2.994,2.994,0,0,1-.441.1,3.111,3.111,0,0,1-.488.039,1.594,1.594,0,0,1-1.18-.395,1.439,1.439,0,0,1-.391-1.059,3.227,3.227,0,0,1,.039-.461q.039-.266.125-.656L250.586,9h1.3l-1.172,5.57q-.07.328-.1.508a2.078,2.078,0,0,0-.027.3.644.644,0,0,0,.176.488.787.787,0,0,0,.559.168,2.366,2.366,0,0,0,.355-.023,1.575,1.575,0,0,0,.285-.07Zm-.633-9.492h-.961l2.258-2.555h1.258Zm8.594,6.961q-.062.3-.121.668t-.1.734q-.043.363-.07.676T259.4,17H258.07q.008-.156.023-.375t.043-.453q.027-.234.055-.461t.059-.391h-.031q-.242.383-.492.723a3.478,3.478,0,0,1-.555.6,2.429,2.429,0,0,1-.68.406,2.612,2.612,0,0,1-1.84-.039,2.006,2.006,0,0,1-.746-.559,2.574,2.574,0,0,1-.48-.93,4.531,4.531,0,0,1-.168-1.3,6.518,6.518,0,0,1,.094-1.031,6.309,6.309,0,0,1,.316-1.18,6.007,6.007,0,0,1,.594-1.176,4.465,4.465,0,0,1,.922-1.027,4.4,4.4,0,0,1,1.3-.727,5.051,5.051,0,0,1,1.734-.273,9.221,9.221,0,0,1,1.289.094q.664.094,1.32.227Zm-.367-4.383q-.273-.062-.641-.109a5.447,5.447,0,0,0-.687-.047,3.118,3.118,0,0,0-1.2.215,3.077,3.077,0,0,0-.9.563,3.313,3.313,0,0,0-.645.8,4.965,4.965,0,0,0-.418.926,5.448,5.448,0,0,0-.223.934,5.911,5.911,0,0,0-.066.836,3.744,3.744,0,0,0,.078.8,1.748,1.748,0,0,0,.246.605,1.156,1.156,0,0,0,.43.387,1.325,1.325,0,0,0,.621.137,1.692,1.692,0,0,0,.73-.16,2.532,2.532,0,0,0,.637-.434,3.561,3.561,0,0,0,.539-.633,6.225,6.225,0,0,0,.438-.762,6.515,6.515,0,0,0,.332-.82q.137-.418.223-.809Zm7.633.352a3.33,3.33,0,0,0-.789-.367,2.845,2.845,0,0,0-.875-.141,1.726,1.726,0,0,0-1.137.336,1.1,1.1,0,0,0-.4.891,1.116,1.116,0,0,0,.074.414,1.25,1.25,0,0,0,.219.355,1.985,1.985,0,0,0,.367.324q.223.156.512.336a4.028,4.028,0,0,1,1.262,1.043A2.01,2.01,0,0,1,266.6,14.8a2.436,2.436,0,0,1-.168.887,2,2,0,0,1-.535.766,2.744,2.744,0,0,1-.949.535,4.331,4.331,0,0,1-1.418.2,4.7,4.7,0,0,1-.516-.031,5.462,5.462,0,0,1-.566-.094,4.941,4.941,0,0,1-.547-.152,2.408,2.408,0,0,1-.457-.207l.258-1.219a2.69,2.69,0,0,0,.387.219,4,4,0,0,0,.5.2,4.673,4.673,0,0,0,.563.141,3.166,3.166,0,0,0,.582.055,1.834,1.834,0,0,0,1.168-.312,1.053,1.053,0,0,0,.387-.867,1.155,1.155,0,0,0-.059-.375,1.052,1.052,0,0,0-.207-.344,2.3,2.3,0,0,0-.391-.348q-.242-.176-.609-.395a3.946,3.946,0,0,1-1.176-1.012,1.992,1.992,0,0,1-.379-1.191,2.432,2.432,0,0,1,.18-.926,2.24,2.24,0,0,1,.535-.781,2.6,2.6,0,0,1,.895-.543,3.559,3.559,0,0,1,1.258-.2,5.018,5.018,0,0,1,1.066.109,3.786,3.786,0,0,1,.855.281Zm7.055.789V10.148h7.344V11.2Zm0,3.328V13.477h7.344v1.047Z" transform="translate(-33 12)" fill="#12263f"/>
        <path id="Trazado_908183" data-name="Trazado 908183" d="M22.07,7.656q-.227-.148-.52-.3a4.751,4.751,0,0,0-.645-.281,5.088,5.088,0,0,0-.77-.2,4.868,4.868,0,0,0-.895-.078,5.2,5.2,0,0,0-2.113.414,4.639,4.639,0,0,0-1.6,1.141,5.119,5.119,0,0,0-1.012,1.707,6.178,6.178,0,0,0-.355,2.121,4.834,4.834,0,0,0,.258,1.645,3.3,3.3,0,0,0,.734,1.2,3.1,3.1,0,0,0,1.141.738,4.139,4.139,0,0,0,1.469.25,6.851,6.851,0,0,0,.938-.059,5.428,5.428,0,0,0,.781-.164,5.041,5.041,0,0,0,.676-.25q.316-.145.613-.309l-.3,1.375a6.456,6.456,0,0,1-1.355.441,7.887,7.887,0,0,1-1.621.152,5.123,5.123,0,0,1-1.934-.352,4.177,4.177,0,0,1-1.484-1,4.474,4.474,0,0,1-.949-1.551,5.762,5.762,0,0,1-.336-2.016,7.548,7.548,0,0,1,.465-2.7,6.092,6.092,0,0,1,1.32-2.109A5.988,5.988,0,0,1,16.629,6.1a6.944,6.944,0,0,1,2.66-.492,6.6,6.6,0,0,1,1.77.215,6.945,6.945,0,0,1,1.3.488Zm7.828,4.3a6.659,6.659,0,0,1-.3,2.016,5.154,5.154,0,0,1-.867,1.668,4.19,4.19,0,0,1-1.375,1.133,3.914,3.914,0,0,1-1.824.418,3.33,3.33,0,0,1-1.238-.219,2.576,2.576,0,0,1-.937-.629,2.786,2.786,0,0,1-.594-.992,3.912,3.912,0,0,1-.207-1.316,6.519,6.519,0,0,1,.316-2.059,5.2,5.2,0,0,1,.891-1.664,4.161,4.161,0,0,1,1.375-1.109,3.885,3.885,0,0,1,1.77-.4,3.308,3.308,0,0,1,1.23.219,2.614,2.614,0,0,1,.941.629,2.848,2.848,0,0,1,.605.992A3.783,3.783,0,0,1,29.9,11.961Zm-1.312.063a2.987,2.987,0,0,0-.125-.9,1.919,1.919,0,0,0-.352-.664,1.525,1.525,0,0,0-.547-.414,1.729,1.729,0,0,0-.719-.145,2.272,2.272,0,0,0-1.242.352,3.143,3.143,0,0,0-.937.926,4.591,4.591,0,0,0-.59,1.3,5.46,5.46,0,0,0-.207,1.5,2.988,2.988,0,0,0,.121.879,2,2,0,0,0,.344.672,1.484,1.484,0,0,0,.547.426,1.735,1.735,0,0,0,.73.148,2.3,2.3,0,0,0,1.25-.348,3.1,3.1,0,0,0,.938-.922,4.506,4.506,0,0,0,.586-1.309A5.6,5.6,0,0,0,28.586,12.023Zm7.586-1.617a3.33,3.33,0,0,0-.789-.367,2.845,2.845,0,0,0-.875-.141,1.726,1.726,0,0,0-1.137.336,1.1,1.1,0,0,0-.4.891,1.116,1.116,0,0,0,.074.414,1.25,1.25,0,0,0,.219.355,1.986,1.986,0,0,0,.367.324q.223.156.512.336A4.028,4.028,0,0,1,35.4,13.6a2.01,2.01,0,0,1,.387,1.207,2.435,2.435,0,0,1-.168.887,2,2,0,0,1-.535.766,2.745,2.745,0,0,1-.949.535,4.331,4.331,0,0,1-1.418.2,4.7,4.7,0,0,1-.516-.031,5.462,5.462,0,0,1-.566-.094,4.941,4.941,0,0,1-.547-.152,2.407,2.407,0,0,1-.457-.207l.258-1.219a2.691,2.691,0,0,0,.387.219,4,4,0,0,0,.5.2,4.673,4.673,0,0,0,.563.141,3.166,3.166,0,0,0,.582.055,1.834,1.834,0,0,0,1.168-.312,1.053,1.053,0,0,0,.387-.867,1.155,1.155,0,0,0-.059-.375,1.052,1.052,0,0,0-.207-.344,2.3,2.3,0,0,0-.391-.348q-.242-.176-.609-.395a3.947,3.947,0,0,1-1.176-1.012,1.992,1.992,0,0,1-.379-1.191,2.432,2.432,0,0,1,.18-.926,2.24,2.24,0,0,1,.535-.781,2.6,2.6,0,0,1,.895-.543,3.559,3.559,0,0,1,1.258-.2,5.018,5.018,0,0,1,1.066.109,3.786,3.786,0,0,1,.855.281Zm6.047-.32H40.2l-.9,4.242q-.047.242-.094.523a2.892,2.892,0,0,0-.047.453.789.789,0,0,0,.176.574.764.764,0,0,0,.559.176,1.228,1.228,0,0,0,.242-.031q.148-.031.3-.078t.309-.105l.27-.105-.242,1.125a3.788,3.788,0,0,1-.621.2,2.877,2.877,0,0,1-.66.082,2.234,2.234,0,0,1-.758-.113,1.3,1.3,0,0,1-.512-.324,1.256,1.256,0,0,1-.289-.512,2.359,2.359,0,0,1-.09-.676,3.788,3.788,0,0,1,.043-.527A5.466,5.466,0,0,1,38,14.438l.922-4.352H37.594L37.836,9h1.313l.414-1.953a2.408,2.408,0,0,1,.238-.074q.207-.059.453-.133l.453-.137.23-.07L40.445,9h2.016Zm7.734,1.875a6.659,6.659,0,0,1-.3,2.016,5.153,5.153,0,0,1-.867,1.668,4.19,4.19,0,0,1-1.375,1.133,3.914,3.914,0,0,1-1.824.418,3.33,3.33,0,0,1-1.238-.219,2.576,2.576,0,0,1-.937-.629,2.786,2.786,0,0,1-.594-.992,3.912,3.912,0,0,1-.207-1.316,6.519,6.519,0,0,1,.316-2.059,5.2,5.2,0,0,1,.891-1.664,4.161,4.161,0,0,1,1.375-1.109,3.885,3.885,0,0,1,1.77-.4,3.308,3.308,0,0,1,1.23.219,2.614,2.614,0,0,1,.941.629,2.848,2.848,0,0,1,.605.992A3.783,3.783,0,0,1,49.953,11.961Zm-1.312.063a2.987,2.987,0,0,0-.125-.9,1.919,1.919,0,0,0-.352-.664,1.525,1.525,0,0,0-.547-.414A1.729,1.729,0,0,0,46.9,9.9a2.272,2.272,0,0,0-1.242.352,3.143,3.143,0,0,0-.937.926,4.591,4.591,0,0,0-.59,1.3,5.46,5.46,0,0,0-.207,1.5,2.988,2.988,0,0,0,.121.879,2,2,0,0,0,.344.672,1.484,1.484,0,0,0,.547.426,1.735,1.735,0,0,0,.73.148,2.3,2.3,0,0,0,1.25-.348,3.1,3.1,0,0,0,.938-.922,4.506,4.506,0,0,0,.586-1.309A5.6,5.6,0,0,0,48.641,12.023ZM62,14.539q-.055.25-.105.6t-.09.707q-.039.355-.066.668T61.711,17H60.383q0-.133.02-.355t.047-.465q.027-.242.059-.465t.055-.363h-.031a7.891,7.891,0,0,1-.562.8,3.256,3.256,0,0,1-.594.578,2.386,2.386,0,0,1-.664.348,2.434,2.434,0,0,1-.773.117,2.39,2.39,0,0,1-.984-.2,2.006,2.006,0,0,1-.746-.574,2.646,2.646,0,0,1-.473-.937A4.57,4.57,0,0,1,55.57,14.2a6.325,6.325,0,0,1,.121-1.2,6.161,6.161,0,0,1,.375-1.227,5.748,5.748,0,0,1,.645-1.141,4.367,4.367,0,0,1,2.164-1.59A4.775,4.775,0,0,1,60.43,8.8a5.273,5.273,0,0,1,.813.059q.375.059.648.121L62.7,5.156h1.266Zm-.336-4.453a5.033,5.033,0,0,0-.621-.137,4.471,4.471,0,0,0-.691-.051,3.17,3.17,0,0,0-1.2.211,3.024,3.024,0,0,0-.906.563,3.367,3.367,0,0,0-.648.8,5.045,5.045,0,0,0-.422.922,5.248,5.248,0,0,0-.227.93,5.785,5.785,0,0,0-.066.824,3.949,3.949,0,0,0,.074.8,1.779,1.779,0,0,0,.242.617,1.157,1.157,0,0,0,.434.4,1.353,1.353,0,0,0,.641.141,1.658,1.658,0,0,0,.73-.164,2.516,2.516,0,0,0,.637-.445,3.676,3.676,0,0,0,.539-.648,6.291,6.291,0,0,0,.438-.781,6.943,6.943,0,0,0,.332-.84q.137-.426.223-.816Zm9.453.789a2.381,2.381,0,0,1-.281,1.152,2.331,2.331,0,0,1-.93.891,5.584,5.584,0,0,1-1.711.574,14.678,14.678,0,0,1-2.625.211,1,1,0,0,0-.016.18v.156a2.657,2.657,0,0,0,.117.8,1.8,1.8,0,0,0,.363.656,1.714,1.714,0,0,0,.633.445,2.341,2.341,0,0,0,.918.164,3.9,3.9,0,0,0,1.184-.207A5.087,5.087,0,0,0,70,15.3l-.242,1.266a5.078,5.078,0,0,1-1.023.438,4.4,4.4,0,0,1-1.328.188,3.609,3.609,0,0,1-1.488-.273,2.621,2.621,0,0,1-.977-.73,2.848,2.848,0,0,1-.535-1.055,4.716,4.716,0,0,1-.164-1.254,5.8,5.8,0,0,1,.156-1.355,5.519,5.519,0,0,1,.441-1.215,5.148,5.148,0,0,1,.684-1.027,4.444,4.444,0,0,1,.883-.793,4.092,4.092,0,0,1,1.039-.508,3.7,3.7,0,0,1,1.148-.18,3.319,3.319,0,0,1,1.09.164,2.277,2.277,0,0,1,.789.449,1.915,1.915,0,0,1,.48.66A1.966,1.966,0,0,1,71.117,10.875Zm-1.3.063a.9.9,0,0,0-.363-.766,1.565,1.565,0,0,0-.965-.273,2.163,2.163,0,0,0-.922.207,2.984,2.984,0,0,0-.82.57,3.56,3.56,0,0,0-.648.867,4.038,4.038,0,0,0-.4,1.09,13.5,13.5,0,0,0,1.9-.113,4.925,4.925,0,0,0,1.273-.332,1.712,1.712,0,0,0,.719-.535A1.2,1.2,0,0,0,69.813,10.938Zm9.258,6.031a2.994,2.994,0,0,1-.441.1,3.111,3.111,0,0,1-.488.039,1.594,1.594,0,0,1-1.18-.395,1.439,1.439,0,0,1-.391-1.059,3.228,3.228,0,0,1,.039-.461q.039-.266.125-.656l2-9.391h1.3L78.023,14.57q-.07.328-.1.508a2.079,2.079,0,0,0-.027.3.644.644,0,0,0,.176.488.787.787,0,0,0,.559.168,2.366,2.366,0,0,0,.355-.023,1.575,1.575,0,0,0,.285-.07Zm7.961-2.531q-.062.3-.121.668t-.1.734q-.043.363-.07.676T86.711,17H85.383q.008-.156.023-.375t.043-.453q.027-.234.055-.461t.059-.391h-.031q-.242.383-.492.723a3.478,3.478,0,0,1-.555.6,2.429,2.429,0,0,1-.68.406,2.612,2.612,0,0,1-1.84-.039,2.006,2.006,0,0,1-.746-.559,2.574,2.574,0,0,1-.48-.93,4.532,4.532,0,0,1-.168-1.3,6.518,6.518,0,0,1,.094-1.031,6.309,6.309,0,0,1,.316-1.18,6.006,6.006,0,0,1,.594-1.176A4.465,4.465,0,0,1,82.5,9.8a4.4,4.4,0,0,1,1.3-.727A5.051,5.051,0,0,1,85.531,8.8,9.22,9.22,0,0,1,86.82,8.9q.664.094,1.32.227Zm-.367-4.383q-.273-.062-.641-.109a5.447,5.447,0,0,0-.687-.047,3.119,3.119,0,0,0-1.2.215,3.077,3.077,0,0,0-.9.563,3.312,3.312,0,0,0-.645.8,4.965,4.965,0,0,0-.418.926,5.449,5.449,0,0,0-.223.934,5.91,5.91,0,0,0-.066.836,3.744,3.744,0,0,0,.078.8,1.749,1.749,0,0,0,.246.605,1.156,1.156,0,0,0,.43.387,1.325,1.325,0,0,0,.621.137,1.692,1.692,0,0,0,.73-.16,2.532,2.532,0,0,0,.637-.434,3.56,3.56,0,0,0,.539-.633,6.225,6.225,0,0,0,.438-.762,6.515,6.515,0,0,0,.332-.82q.137-.418.223-.809Zm7.633.352a3.33,3.33,0,0,0-.789-.367,2.845,2.845,0,0,0-.875-.141,1.726,1.726,0,0,0-1.137.336,1.1,1.1,0,0,0-.4.891,1.116,1.116,0,0,0,.074.414,1.25,1.25,0,0,0,.219.355,1.985,1.985,0,0,0,.367.324q.223.156.512.336A4.028,4.028,0,0,1,93.527,13.6a2.01,2.01,0,0,1,.387,1.207,2.435,2.435,0,0,1-.168.887,2,2,0,0,1-.535.766,2.744,2.744,0,0,1-.949.535,4.331,4.331,0,0,1-1.418.2,4.7,4.7,0,0,1-.516-.031,5.462,5.462,0,0,1-.566-.094,4.941,4.941,0,0,1-.547-.152,2.407,2.407,0,0,1-.457-.207l.258-1.219a2.691,2.691,0,0,0,.387.219,4,4,0,0,0,.5.2,4.673,4.673,0,0,0,.563.141,3.166,3.166,0,0,0,.582.055,1.834,1.834,0,0,0,1.168-.312,1.053,1.053,0,0,0,.387-.867,1.155,1.155,0,0,0-.059-.375,1.052,1.052,0,0,0-.207-.344,2.3,2.3,0,0,0-.391-.348q-.242-.176-.609-.395a3.947,3.947,0,0,1-1.176-1.012,1.992,1.992,0,0,1-.379-1.191,2.432,2.432,0,0,1,.18-.926,2.24,2.24,0,0,1,.535-.781,2.6,2.6,0,0,1,.895-.543,3.559,3.559,0,0,1,1.258-.2,5.018,5.018,0,0,1,1.066.109,3.786,3.786,0,0,1,.855.281Zm17.969.609a2.6,2.6,0,0,1-.027.309q-.027.207-.07.441t-.086.465q-.043.23-.074.387L111.063,17h-1.281l.977-4.687q.031-.133.063-.3t.059-.324q.027-.16.043-.3a2.01,2.01,0,0,0,.016-.215,1.487,1.487,0,0,0-.266-.949,1,1,0,0,0-.828-.332,1.542,1.542,0,0,0-.613.137,2.836,2.836,0,0,0-.617.371,4.353,4.353,0,0,0-.578.547,5.567,5.567,0,0,0-.508.668,5.2,5.2,0,0,0-.395.727,3.81,3.81,0,0,0-.242.73L106.055,17h-1.3l.992-4.687q.031-.133.063-.3t.059-.324q.027-.16.043-.3a2.01,2.01,0,0,0,.016-.215,1.457,1.457,0,0,0-.273-.949,1,1,0,0,0-.82-.332,1.586,1.586,0,0,0-.625.137,2.8,2.8,0,0,0-.625.375,4.293,4.293,0,0,0-.582.555,5.826,5.826,0,0,0-.508.672,4.916,4.916,0,0,0-.391.727,3.977,3.977,0,0,0-.238.73L101.031,17h-1.3l1.234-5.711q.062-.3.125-.637t.117-.641q.055-.309.094-.574T101.367,9h1.25q-.039.3-.094.637t-.094.613q-.047.328-.1.641h.031a6.756,6.756,0,0,1,.609-.836,4.457,4.457,0,0,1,.7-.66,3.219,3.219,0,0,1,.766-.434,2.411,2.411,0,0,1,1.688-.008,1.6,1.6,0,0,1,.6.418,1.827,1.827,0,0,1,.363.652,3.263,3.263,0,0,1,.148.852,7.56,7.56,0,0,1,.621-.816,4.41,4.41,0,0,1,.711-.656,3.362,3.362,0,0,1,.8-.437,2.542,2.542,0,0,1,.9-.16,1.869,1.869,0,0,1,1.5.582A2.423,2.423,0,0,1,112.266,11.016Zm8.3-.141a2.381,2.381,0,0,1-.281,1.152,2.331,2.331,0,0,1-.93.891,5.584,5.584,0,0,1-1.711.574,14.678,14.678,0,0,1-2.625.211,1,1,0,0,0-.016.18v.156a2.657,2.657,0,0,0,.117.8,1.8,1.8,0,0,0,.363.656,1.714,1.714,0,0,0,.633.445,2.341,2.341,0,0,0,.918.164,3.9,3.9,0,0,0,1.184-.207,5.087,5.087,0,0,0,1.23-.59L119.2,16.57a5.078,5.078,0,0,1-1.023.438,4.4,4.4,0,0,1-1.328.188,3.609,3.609,0,0,1-1.488-.273,2.621,2.621,0,0,1-.977-.73,2.848,2.848,0,0,1-.535-1.055,4.716,4.716,0,0,1-.164-1.254,5.8,5.8,0,0,1,.156-1.355,5.519,5.519,0,0,1,.441-1.215,5.148,5.148,0,0,1,.684-1.027,4.444,4.444,0,0,1,.883-.793,4.092,4.092,0,0,1,1.039-.508,3.7,3.7,0,0,1,1.148-.18,3.319,3.319,0,0,1,1.09.164,2.277,2.277,0,0,1,.789.449,1.915,1.915,0,0,1,.48.66A1.966,1.966,0,0,1,120.563,10.875Zm-1.3.063a.9.9,0,0,0-.363-.766,1.565,1.565,0,0,0-.965-.273,2.163,2.163,0,0,0-.922.207,2.984,2.984,0,0,0-.82.57,3.56,3.56,0,0,0-.648.867,4.038,4.038,0,0,0-.4,1.09,13.5,13.5,0,0,0,1.9-.113,4.925,4.925,0,0,0,1.273-.332,1.712,1.712,0,0,0,.719-.535A1.2,1.2,0,0,0,119.258,10.938Zm7.594-.578h-.031a2.306,2.306,0,0,0-.41-.184,1.5,1.5,0,0,0-.5-.09,1.479,1.479,0,0,0-.867.293,3.188,3.188,0,0,0-.754.773,5.549,5.549,0,0,0-.594,1.1,7.5,7.5,0,0,0-.395,1.266L122.547,17h-1.281l1.125-5.312q.07-.328.141-.687t.129-.719q.059-.359.105-.687t.07-.594H124.1q-.023.234-.055.5t-.062.508q-.031.246-.062.445t-.047.309h.031a8.623,8.623,0,0,1,.508-.8,3.718,3.718,0,0,1,.543-.613,2.3,2.3,0,0,1,.605-.395,1.71,1.71,0,0,1,.7-.141,2.206,2.206,0,0,1,.434.043q.215.043.387.09Zm6.445.227a2.941,2.941,0,0,0-.793-.488,2.582,2.582,0,0,0-1.027-.2,2.427,2.427,0,0,0-.973.188,2.684,2.684,0,0,0-.77.5,3.244,3.244,0,0,0-.578.719,4.793,4.793,0,0,0-.4.844,5.193,5.193,0,0,0-.23.871,4.809,4.809,0,0,0-.074.809,2.552,2.552,0,0,0,.492,1.7,1.672,1.672,0,0,0,1.344.578,2.957,2.957,0,0,0,1.07-.215,5.151,5.151,0,0,0,1.047-.551l-.273,1.281a5.483,5.483,0,0,1-1.012.426,3.666,3.666,0,0,1-1.066.152,3.029,3.029,0,0,1-1.277-.25,2.5,2.5,0,0,1-.9-.687,2.946,2.946,0,0,1-.539-1.035,4.472,4.472,0,0,1-.18-1.293,6.315,6.315,0,0,1,.133-1.293,5.569,5.569,0,0,1,.395-1.2,5.218,5.218,0,0,1,.645-1.051A4.107,4.107,0,0,1,130.313,9a4.451,4.451,0,0,1,1.961-.152,3.8,3.8,0,0,1,.555.125,3.736,3.736,0,0,1,.445.168,1.829,1.829,0,0,1,.313.176Zm7.3,3.852q-.063.3-.121.668t-.1.734q-.043.363-.07.676t-.027.484h-1.328q.008-.156.023-.375t.043-.453q.027-.234.055-.461t.059-.391h-.031q-.242.383-.492.723a3.478,3.478,0,0,1-.555.6,2.429,2.429,0,0,1-.68.406,2.612,2.612,0,0,1-1.84-.039,2.006,2.006,0,0,1-.746-.559,2.574,2.574,0,0,1-.48-.93,4.531,4.531,0,0,1-.168-1.3,6.518,6.518,0,0,1,.094-1.031,6.309,6.309,0,0,1,.316-1.18,6.007,6.007,0,0,1,.594-1.176,4.465,4.465,0,0,1,.922-1.027,4.4,4.4,0,0,1,1.3-.727,5.051,5.051,0,0,1,1.734-.273,9.22,9.22,0,0,1,1.289.094q.664.094,1.32.227Zm-.367-4.383q-.273-.062-.641-.109A5.447,5.447,0,0,0,138.9,9.9a3.119,3.119,0,0,0-1.2.215,3.077,3.077,0,0,0-.9.563,3.313,3.313,0,0,0-.645.8,4.965,4.965,0,0,0-.418.926,5.448,5.448,0,0,0-.223.934,5.911,5.911,0,0,0-.066.836,3.744,3.744,0,0,0,.078.8,1.748,1.748,0,0,0,.246.605,1.156,1.156,0,0,0,.43.387,1.325,1.325,0,0,0,.621.137,1.692,1.692,0,0,0,.73-.16,2.532,2.532,0,0,0,.637-.434,3.56,3.56,0,0,0,.539-.633,6.225,6.225,0,0,0,.438-.762,6.515,6.515,0,0,0,.332-.82q.137-.418.223-.809ZM150.367,11a2.545,2.545,0,0,1-.027.32q-.027.2-.07.438t-.086.465q-.043.23-.082.395L149.172,17h-1.3l.977-4.687q.031-.125.063-.289t.055-.328q.023-.164.039-.3a2.008,2.008,0,0,0,.016-.215,1.424,1.424,0,0,0-.285-.937,1.038,1.038,0,0,0-.848-.344,1.972,1.972,0,0,0-1.023.3,4.21,4.21,0,0,0-.937.773,5.275,5.275,0,0,0-.738,1.031,3.952,3.952,0,0,0-.418,1.086L143.938,17h-1.3l1.234-5.711q.063-.3.125-.637t.117-.641q.055-.309.094-.574T144.273,9h1.25q-.039.3-.094.637t-.094.613q-.047.328-.1.641h.031a6.607,6.607,0,0,1,.605-.809,4.531,4.531,0,0,1,.719-.664,3.413,3.413,0,0,1,.82-.449,2.55,2.55,0,0,1,.91-.164,2.362,2.362,0,0,1,.914.16,1.712,1.712,0,0,1,.637.449,1.829,1.829,0,0,1,.375.7A3.108,3.108,0,0,1,150.367,11Zm7.57-.414a2.941,2.941,0,0,0-.793-.488,2.582,2.582,0,0,0-1.027-.2,2.427,2.427,0,0,0-.973.188,2.684,2.684,0,0,0-.77.5,3.244,3.244,0,0,0-.578.719,4.793,4.793,0,0,0-.4.844,5.193,5.193,0,0,0-.23.871,4.809,4.809,0,0,0-.074.809,2.552,2.552,0,0,0,.492,1.7,1.672,1.672,0,0,0,1.344.578,2.957,2.957,0,0,0,1.07-.215,5.151,5.151,0,0,0,1.047-.551l-.273,1.281a5.483,5.483,0,0,1-1.012.426,3.666,3.666,0,0,1-1.066.152,3.029,3.029,0,0,1-1.277-.25,2.5,2.5,0,0,1-.9-.687,2.946,2.946,0,0,1-.539-1.035,4.472,4.472,0,0,1-.18-1.293,6.315,6.315,0,0,1,.133-1.293,5.569,5.569,0,0,1,.395-1.2,5.219,5.219,0,0,1,.645-1.051A4.107,4.107,0,0,1,154.953,9a4.451,4.451,0,0,1,1.961-.152,3.8,3.8,0,0,1,.555.125,3.736,3.736,0,0,1,.445.168,1.829,1.829,0,0,1,.313.176Zm3.477,6.383a2.994,2.994,0,0,1-.441.1,3.111,3.111,0,0,1-.488.039,1.594,1.594,0,0,1-1.18-.395,1.439,1.439,0,0,1-.391-1.059,3.227,3.227,0,0,1,.039-.461q.039-.266.125-.656L160.242,9h1.3l-1.172,5.57q-.07.328-.1.508a2.078,2.078,0,0,0-.027.3.644.644,0,0,0,.176.488.787.787,0,0,0,.559.168,2.366,2.366,0,0,0,.355-.023,1.575,1.575,0,0,0,.285-.07Zm-.633-9.492h-.961l2.258-2.555h1.258Zm8.594,6.961q-.063.3-.121.668t-.1.734q-.043.363-.07.676t-.027.484h-1.328q.008-.156.023-.375t.043-.453q.027-.234.055-.461t.059-.391h-.031q-.242.383-.492.723a3.478,3.478,0,0,1-.555.6,2.429,2.429,0,0,1-.68.406,2.612,2.612,0,0,1-1.84-.039,2.006,2.006,0,0,1-.746-.559,2.574,2.574,0,0,1-.48-.93,4.531,4.531,0,0,1-.168-1.3,6.518,6.518,0,0,1,.094-1.031,6.309,6.309,0,0,1,.316-1.18,6.007,6.007,0,0,1,.594-1.176A4.465,4.465,0,0,1,164.84,9.8a4.4,4.4,0,0,1,1.3-.727,5.051,5.051,0,0,1,1.734-.273,9.22,9.22,0,0,1,1.289.094q.664.094,1.32.227Zm-.367-4.383q-.273-.062-.641-.109a5.447,5.447,0,0,0-.687-.047,3.119,3.119,0,0,0-1.2.215,3.077,3.077,0,0,0-.9.563,3.313,3.313,0,0,0-.645.8,4.965,4.965,0,0,0-.418.926,5.448,5.448,0,0,0-.223.934,5.911,5.911,0,0,0-.066.836,3.744,3.744,0,0,0,.078.8,1.748,1.748,0,0,0,.246.605,1.156,1.156,0,0,0,.43.387,1.325,1.325,0,0,0,.621.137,1.692,1.692,0,0,0,.73-.16,2.532,2.532,0,0,0,.637-.434,3.56,3.56,0,0,0,.539-.633,6.225,6.225,0,0,0,.438-.762,6.515,6.515,0,0,0,.332-.82q.137-.418.223-.809Zm7.633.352a3.329,3.329,0,0,0-.789-.367,2.845,2.845,0,0,0-.875-.141,1.726,1.726,0,0,0-1.137.336,1.1,1.1,0,0,0-.4.891,1.116,1.116,0,0,0,.074.414,1.25,1.25,0,0,0,.219.355,1.986,1.986,0,0,0,.367.324q.223.156.512.336a4.028,4.028,0,0,1,1.262,1.043,2.01,2.01,0,0,1,.387,1.207,2.435,2.435,0,0,1-.168.887,2,2,0,0,1-.535.766,2.745,2.745,0,0,1-.949.535,4.331,4.331,0,0,1-1.418.2,4.7,4.7,0,0,1-.516-.031,5.462,5.462,0,0,1-.566-.094,4.941,4.941,0,0,1-.547-.152,2.407,2.407,0,0,1-.457-.207l.258-1.219a2.692,2.692,0,0,0,.387.219,4,4,0,0,0,.5.2,4.673,4.673,0,0,0,.563.141,3.166,3.166,0,0,0,.582.055,1.834,1.834,0,0,0,1.168-.312,1.053,1.053,0,0,0,.387-.867,1.155,1.155,0,0,0-.059-.375,1.052,1.052,0,0,0-.207-.344,2.3,2.3,0,0,0-.391-.348q-.242-.176-.609-.395a3.947,3.947,0,0,1-1.176-1.012,1.992,1.992,0,0,1-.379-1.191,2.432,2.432,0,0,1,.18-.926,2.24,2.24,0,0,1,.535-.781,2.6,2.6,0,0,1,.895-.543,3.559,3.559,0,0,1,1.258-.2,5.018,5.018,0,0,1,1.066.109,3.786,3.786,0,0,1,.855.281Zm12.539.469a2.381,2.381,0,0,1-.281,1.152,2.331,2.331,0,0,1-.93.891,5.584,5.584,0,0,1-1.711.574,14.678,14.678,0,0,1-2.625.211,1,1,0,0,0-.016.18v.156a2.657,2.657,0,0,0,.117.8,1.8,1.8,0,0,0,.363.656,1.714,1.714,0,0,0,.633.445,2.341,2.341,0,0,0,.918.164,3.9,3.9,0,0,0,1.184-.207,5.087,5.087,0,0,0,1.23-.59l-.242,1.266a5.078,5.078,0,0,1-1.023.438,4.4,4.4,0,0,1-1.328.188,3.609,3.609,0,0,1-1.488-.273,2.621,2.621,0,0,1-.977-.73,2.848,2.848,0,0,1-.535-1.055,4.716,4.716,0,0,1-.164-1.254,5.8,5.8,0,0,1,.156-1.355,5.519,5.519,0,0,1,.441-1.215,5.149,5.149,0,0,1,.684-1.027,4.443,4.443,0,0,1,.883-.793,4.092,4.092,0,0,1,1.039-.508,3.7,3.7,0,0,1,1.148-.18,3.319,3.319,0,0,1,1.09.164,2.277,2.277,0,0,1,.789.449,1.915,1.915,0,0,1,.48.66A1.966,1.966,0,0,1,189.18,10.875Zm-1.3.063a.9.9,0,0,0-.363-.766,1.565,1.565,0,0,0-.965-.273,2.163,2.163,0,0,0-.922.207,2.984,2.984,0,0,0-.82.57,3.56,3.56,0,0,0-.648.867,4.038,4.038,0,0,0-.4,1.09,13.5,13.5,0,0,0,1.9-.113,4.925,4.925,0,0,0,1.273-.332,1.712,1.712,0,0,0,.719-.535A1.2,1.2,0,0,0,187.875,10.938Zm9.781.063a2.545,2.545,0,0,1-.027.32q-.027.2-.07.438t-.086.465q-.043.23-.082.395L196.461,17h-1.3l.977-4.687q.031-.125.063-.289t.055-.328q.023-.164.039-.3a2.008,2.008,0,0,0,.016-.215,1.424,1.424,0,0,0-.285-.937,1.038,1.038,0,0,0-.848-.344,1.972,1.972,0,0,0-1.023.3,4.21,4.21,0,0,0-.937.773,5.275,5.275,0,0,0-.738,1.031,3.952,3.952,0,0,0-.418,1.086L191.227,17h-1.3l1.234-5.711q.063-.3.125-.637t.117-.641q.055-.309.094-.574T191.563,9h1.25q-.039.3-.094.637t-.094.613q-.047.328-.1.641h.031a6.607,6.607,0,0,1,.605-.809,4.531,4.531,0,0,1,.719-.664,3.413,3.413,0,0,1,.82-.449,2.55,2.55,0,0,1,.91-.164,2.362,2.362,0,0,1,.914.16,1.712,1.712,0,0,1,.637.449,1.829,1.829,0,0,1,.375.7A3.108,3.108,0,0,1,197.656,11Zm12.7-.125a2.381,2.381,0,0,1-.281,1.152,2.331,2.331,0,0,1-.93.891,5.584,5.584,0,0,1-1.711.574,14.678,14.678,0,0,1-2.625.211,1,1,0,0,0-.016.18v.156a2.657,2.657,0,0,0,.117.8,1.8,1.8,0,0,0,.363.656,1.714,1.714,0,0,0,.633.445,2.341,2.341,0,0,0,.918.164,3.9,3.9,0,0,0,1.184-.207,5.087,5.087,0,0,0,1.23-.59L209,16.57a5.078,5.078,0,0,1-1.023.438,4.4,4.4,0,0,1-1.328.188,3.609,3.609,0,0,1-1.488-.273,2.621,2.621,0,0,1-.977-.73,2.848,2.848,0,0,1-.535-1.055,4.716,4.716,0,0,1-.164-1.254,5.8,5.8,0,0,1,.156-1.355,5.519,5.519,0,0,1,.441-1.215,5.149,5.149,0,0,1,.684-1.027,4.443,4.443,0,0,1,.883-.793,4.092,4.092,0,0,1,1.039-.508,3.7,3.7,0,0,1,1.148-.18,3.319,3.319,0,0,1,1.09.164,2.277,2.277,0,0,1,.789.449,1.915,1.915,0,0,1,.48.66A1.966,1.966,0,0,1,210.359,10.875Zm-1.3.063a.9.9,0,0,0-.363-.766,1.565,1.565,0,0,0-.965-.273,2.163,2.163,0,0,0-.922.207,2.984,2.984,0,0,0-.82.57,3.56,3.56,0,0,0-.648.867,4.038,4.038,0,0,0-.4,1.09,13.5,13.5,0,0,0,1.9-.113,4.925,4.925,0,0,0,1.273-.332,1.712,1.712,0,0,0,.719-.535A1.2,1.2,0,0,0,209.055,10.938Zm4.859,6.031a2.994,2.994,0,0,1-.441.1,3.111,3.111,0,0,1-.488.039,1.594,1.594,0,0,1-1.18-.395,1.439,1.439,0,0,1-.391-1.059,3.227,3.227,0,0,1,.039-.461q.039-.266.125-.656l2-9.391h1.3l-2.008,9.422q-.07.328-.1.508a2.078,2.078,0,0,0-.027.3.644.644,0,0,0,.176.488.787.787,0,0,0,.559.168,2.366,2.366,0,0,0,.355-.023,1.575,1.575,0,0,0,.285-.07ZM227.266,11.8a6.076,6.076,0,0,1-.125,1.2,6.206,6.206,0,0,1-.383,1.223,6.02,6.02,0,0,1-.645,1.141,4.626,4.626,0,0,1-.91.949,4.22,4.22,0,0,1-1.187.648,4.323,4.323,0,0,1-1.469.238,4.833,4.833,0,0,1-.91-.086,5.594,5.594,0,0,1-.785-.2l-.8,3.8h-1.3l1.953-9.25q.055-.25.1-.6t.082-.707q.035-.355.059-.668T220.977,9h1.313q0,.133-.02.359t-.051.473q-.031.246-.062.477t-.055.371h.031a4.221,4.221,0,0,1,1.25-1.41A2.672,2.672,0,0,1,224.9,8.8a2.476,2.476,0,0,1,.984.188,1.949,1.949,0,0,1,.746.563,2.6,2.6,0,0,1,.473.938A4.675,4.675,0,0,1,227.266,11.8Zm-1.312.055a3.864,3.864,0,0,0-.074-.781,1.733,1.733,0,0,0-.246-.617,1.246,1.246,0,0,0-.441-.406,1.352,1.352,0,0,0-.66-.148,1.761,1.761,0,0,0-.762.168,2.623,2.623,0,0,0-.66.449,3.683,3.683,0,0,0-.555.652,6.482,6.482,0,0,0-.445.77,6.762,6.762,0,0,0-.332.8,6.038,6.038,0,0,0-.207.754l-.492,2.32a2.193,2.193,0,0,0,.336.113q.2.051.406.09t.43.063a3.83,3.83,0,0,0,.406.023,2.7,2.7,0,0,0,1-.18,2.891,2.891,0,0,0,.82-.488,3.446,3.446,0,0,0,.641-.727,4.822,4.822,0,0,0,.465-.891,5.242,5.242,0,0,0,.281-.977A5.4,5.4,0,0,0,225.953,11.852Zm9.406-.977a2.381,2.381,0,0,1-.281,1.152,2.331,2.331,0,0,1-.93.891,5.584,5.584,0,0,1-1.711.574,14.678,14.678,0,0,1-2.625.211,1,1,0,0,0-.016.18v.156a2.657,2.657,0,0,0,.117.8,1.8,1.8,0,0,0,.363.656,1.714,1.714,0,0,0,.633.445,2.341,2.341,0,0,0,.918.164,3.9,3.9,0,0,0,1.184-.207,5.087,5.087,0,0,0,1.23-.59L234,16.57a5.078,5.078,0,0,1-1.023.438,4.4,4.4,0,0,1-1.328.188,3.609,3.609,0,0,1-1.488-.273,2.621,2.621,0,0,1-.977-.73,2.848,2.848,0,0,1-.535-1.055,4.716,4.716,0,0,1-.164-1.254,5.8,5.8,0,0,1,.156-1.355,5.519,5.519,0,0,1,.441-1.215,5.149,5.149,0,0,1,.684-1.027,4.443,4.443,0,0,1,.883-.793,4.092,4.092,0,0,1,1.039-.508,3.7,3.7,0,0,1,1.148-.18,3.319,3.319,0,0,1,1.09.164,2.277,2.277,0,0,1,.789.449,1.915,1.915,0,0,1,.48.66A1.966,1.966,0,0,1,235.359,10.875Zm-1.3.063a.9.9,0,0,0-.363-.766,1.565,1.565,0,0,0-.965-.273,2.163,2.163,0,0,0-.922.207,2.984,2.984,0,0,0-.82.57,3.56,3.56,0,0,0-.648.867,4.038,4.038,0,0,0-.4,1.09,13.5,13.5,0,0,0,1.9-.113,4.925,4.925,0,0,0,1.273-.332,1.712,1.712,0,0,0,.719-.535A1.2,1.2,0,0,0,234.055,10.938Zm7.594-.578h-.031a2.307,2.307,0,0,0-.41-.184,1.5,1.5,0,0,0-.5-.09,1.479,1.479,0,0,0-.867.293,3.188,3.188,0,0,0-.754.773,5.549,5.549,0,0,0-.594,1.1,7.5,7.5,0,0,0-.395,1.266L237.344,17h-1.281l1.125-5.312q.07-.328.141-.687t.129-.719q.059-.359.105-.687t.07-.594H238.9q-.023.234-.055.5t-.062.508q-.031.246-.062.445t-.047.309h.031a8.624,8.624,0,0,1,.508-.8,3.717,3.717,0,0,1,.543-.613,2.3,2.3,0,0,1,.605-.395,1.71,1.71,0,0,1,.7-.141,2.206,2.206,0,0,1,.434.043q.215.043.387.09Zm2.945,6.609a2.994,2.994,0,0,1-.441.1,3.111,3.111,0,0,1-.488.039,1.594,1.594,0,0,1-1.18-.395,1.439,1.439,0,0,1-.391-1.059,3.227,3.227,0,0,1,.039-.461q.039-.266.125-.656L243.422,9h1.3l-1.172,5.57q-.07.328-.1.508a2.078,2.078,0,0,0-.027.3.644.644,0,0,0,.176.488.787.787,0,0,0,.559.168,2.366,2.366,0,0,0,.355-.023,1.575,1.575,0,0,0,.285-.07Zm-.633-9.492H243l2.258-2.555h1.258Zm9.477,4.484a6.659,6.659,0,0,1-.3,2.016,5.153,5.153,0,0,1-.867,1.668,4.19,4.19,0,0,1-1.375,1.133,3.914,3.914,0,0,1-1.824.418,3.33,3.33,0,0,1-1.238-.219,2.576,2.576,0,0,1-.937-.629,2.786,2.786,0,0,1-.594-.992,3.912,3.912,0,0,1-.207-1.316,6.519,6.519,0,0,1,.316-2.059,5.2,5.2,0,0,1,.891-1.664,4.161,4.161,0,0,1,1.375-1.109,3.885,3.885,0,0,1,1.77-.4,3.308,3.308,0,0,1,1.23.219,2.614,2.614,0,0,1,.941.629,2.848,2.848,0,0,1,.605.992A3.783,3.783,0,0,1,253.438,11.961Zm-1.312.063a2.987,2.987,0,0,0-.125-.9,1.919,1.919,0,0,0-.352-.664,1.525,1.525,0,0,0-.547-.414,1.729,1.729,0,0,0-.719-.145,2.272,2.272,0,0,0-1.242.352,3.143,3.143,0,0,0-.937.926,4.591,4.591,0,0,0-.59,1.3,5.46,5.46,0,0,0-.207,1.5,2.988,2.988,0,0,0,.121.879,2,2,0,0,0,.344.672,1.484,1.484,0,0,0,.547.426,1.735,1.735,0,0,0,.73.148,2.3,2.3,0,0,0,1.25-.348,3.1,3.1,0,0,0,.938-.922,4.506,4.506,0,0,0,.586-1.309A5.6,5.6,0,0,0,252.125,12.023Zm8.961,2.516q-.055.25-.105.6t-.09.707q-.039.355-.066.668T260.8,17h-1.328q0-.133.02-.355t.047-.465q.027-.242.059-.465t.055-.363h-.031a7.891,7.891,0,0,1-.562.8,3.256,3.256,0,0,1-.594.578,2.386,2.386,0,0,1-.664.348,2.434,2.434,0,0,1-.773.117,2.389,2.389,0,0,1-.984-.2,2.006,2.006,0,0,1-.746-.574,2.646,2.646,0,0,1-.473-.937,4.57,4.57,0,0,1-.164-1.285,6.324,6.324,0,0,1,.121-1.2,6.162,6.162,0,0,1,.375-1.227,5.748,5.748,0,0,1,.645-1.141,4.367,4.367,0,0,1,2.164-1.59,4.775,4.775,0,0,1,1.555-.238,5.273,5.273,0,0,1,.813.059q.375.059.648.121l.813-3.828h1.266Zm-.336-4.453a5.032,5.032,0,0,0-.621-.137,4.471,4.471,0,0,0-.691-.051,3.17,3.17,0,0,0-1.2.211,3.024,3.024,0,0,0-.906.563,3.367,3.367,0,0,0-.648.8,5.047,5.047,0,0,0-.422.922,5.248,5.248,0,0,0-.227.93,5.786,5.786,0,0,0-.066.824,3.949,3.949,0,0,0,.074.8,1.779,1.779,0,0,0,.242.617,1.157,1.157,0,0,0,.434.4,1.353,1.353,0,0,0,.641.141,1.658,1.658,0,0,0,.73-.164,2.516,2.516,0,0,0,.637-.445,3.677,3.677,0,0,0,.539-.648,6.291,6.291,0,0,0,.438-.781,6.943,6.943,0,0,0,.332-.84q.137-.426.223-.816Zm9.922,1.875a6.658,6.658,0,0,1-.3,2.016,5.154,5.154,0,0,1-.867,1.668,4.19,4.19,0,0,1-1.375,1.133,3.914,3.914,0,0,1-1.824.418,3.33,3.33,0,0,1-1.238-.219,2.576,2.576,0,0,1-.937-.629,2.786,2.786,0,0,1-.594-.992,3.912,3.912,0,0,1-.207-1.316,6.519,6.519,0,0,1,.316-2.059,5.2,5.2,0,0,1,.891-1.664,4.161,4.161,0,0,1,1.375-1.109,3.885,3.885,0,0,1,1.77-.4,3.308,3.308,0,0,1,1.23.219,2.614,2.614,0,0,1,.941.629,2.848,2.848,0,0,1,.605.992A3.783,3.783,0,0,1,270.672,11.961Zm-1.312.063a2.986,2.986,0,0,0-.125-.9,1.92,1.92,0,0,0-.352-.664,1.525,1.525,0,0,0-.547-.414,1.729,1.729,0,0,0-.719-.145,2.272,2.272,0,0,0-1.242.352,3.144,3.144,0,0,0-.937.926,4.591,4.591,0,0,0-.59,1.3,5.46,5.46,0,0,0-.207,1.5,2.989,2.989,0,0,0,.121.879,2,2,0,0,0,.344.672,1.484,1.484,0,0,0,.547.426,1.735,1.735,0,0,0,.73.148,2.3,2.3,0,0,0,1.25-.348,3.1,3.1,0,0,0,.938-.922,4.505,4.505,0,0,0,.586-1.309A5.6,5.6,0,0,0,269.359,12.023ZM21.8,41H20.461l2.367-11.2h1.359Zm10.508-6a2.546,2.546,0,0,1-.027.32q-.027.2-.07.438t-.086.465q-.043.23-.082.395L31.117,41h-1.3l.977-4.687q.031-.125.063-.289t.055-.328q.023-.164.039-.3a2.01,2.01,0,0,0,.016-.215,1.424,1.424,0,0,0-.285-.937,1.038,1.038,0,0,0-.848-.344,1.972,1.972,0,0,0-1.023.3,4.211,4.211,0,0,0-.937.773,5.274,5.274,0,0,0-.738,1.031,3.952,3.952,0,0,0-.418,1.086L25.883,41h-1.3l1.234-5.711q.062-.3.125-.637t.117-.641q.055-.309.094-.574T26.219,33h1.25q-.039.3-.094.637t-.094.613q-.047.328-.1.641h.031a6.607,6.607,0,0,1,.605-.809,4.531,4.531,0,0,1,.719-.664,3.413,3.413,0,0,1,.82-.449,2.55,2.55,0,0,1,.91-.164,2.362,2.362,0,0,1,.914.16,1.712,1.712,0,0,1,.637.449,1.829,1.829,0,0,1,.375.7A3.108,3.108,0,0,1,32.313,35Zm4.242,6H35.469L34.2,33h1.3l.7,5.039q.023.148.043.336t.039.383q.02.2.027.383t.008.336h.031q.063-.141.145-.32t.184-.371q.1-.191.207-.387t.2-.359L39.945,33h1.461Zm11.633-6.125a2.381,2.381,0,0,1-.281,1.152,2.331,2.331,0,0,1-.93.891,5.584,5.584,0,0,1-1.711.574,14.678,14.678,0,0,1-2.625.211,1,1,0,0,0-.016.18v.156a2.657,2.657,0,0,0,.117.8,1.8,1.8,0,0,0,.363.656,1.714,1.714,0,0,0,.633.445,2.341,2.341,0,0,0,.918.164,3.9,3.9,0,0,0,1.184-.207,5.087,5.087,0,0,0,1.23-.59l-.242,1.266a5.078,5.078,0,0,1-1.023.438,4.4,4.4,0,0,1-1.328.188,3.609,3.609,0,0,1-1.488-.273,2.621,2.621,0,0,1-.977-.73,2.848,2.848,0,0,1-.535-1.055,4.716,4.716,0,0,1-.164-1.254,5.8,5.8,0,0,1,.156-1.355,5.519,5.519,0,0,1,.441-1.215,5.148,5.148,0,0,1,.684-1.027,4.444,4.444,0,0,1,.883-.793,4.093,4.093,0,0,1,1.039-.508,3.7,3.7,0,0,1,1.148-.18,3.319,3.319,0,0,1,1.09.164,2.277,2.277,0,0,1,.789.449,1.915,1.915,0,0,1,.48.66A1.966,1.966,0,0,1,48.188,34.875Zm-1.3.063a.9.9,0,0,0-.363-.766,1.565,1.565,0,0,0-.965-.273,2.163,2.163,0,0,0-.922.207,2.983,2.983,0,0,0-.82.57,3.56,3.56,0,0,0-.648.867,4.038,4.038,0,0,0-.4,1.09,13.5,13.5,0,0,0,1.9-.113,4.925,4.925,0,0,0,1.273-.332,1.712,1.712,0,0,0,.719-.535A1.2,1.2,0,0,0,46.883,34.938ZM56.664,35a2.546,2.546,0,0,1-.027.32q-.027.2-.07.438t-.086.465q-.043.23-.082.395L55.469,41h-1.3l.977-4.687q.031-.125.063-.289t.055-.328q.023-.164.039-.3a2.009,2.009,0,0,0,.016-.215,1.424,1.424,0,0,0-.285-.937,1.038,1.038,0,0,0-.848-.344,1.972,1.972,0,0,0-1.023.3,4.211,4.211,0,0,0-.937.773,5.275,5.275,0,0,0-.738,1.031,3.952,3.952,0,0,0-.418,1.086L50.234,41h-1.3l1.234-5.711q.063-.3.125-.637t.117-.641q.055-.309.094-.574T50.57,33h1.25q-.039.3-.094.637t-.094.613q-.047.328-.1.641h.031a6.607,6.607,0,0,1,.605-.809,4.531,4.531,0,0,1,.719-.664,3.413,3.413,0,0,1,.82-.449,2.55,2.55,0,0,1,.91-.164,2.362,2.362,0,0,1,.914.16,1.712,1.712,0,0,1,.637.449,1.829,1.829,0,0,1,.375.7A3.108,3.108,0,0,1,56.664,35Zm6.211-.914H60.859l-.9,4.242q-.047.242-.094.523a2.892,2.892,0,0,0-.047.453.789.789,0,0,0,.176.574.764.764,0,0,0,.559.176,1.228,1.228,0,0,0,.242-.031q.148-.031.3-.078t.309-.105l.27-.105-.242,1.125a3.788,3.788,0,0,1-.621.2,2.877,2.877,0,0,1-.66.082,2.234,2.234,0,0,1-.758-.113,1.3,1.3,0,0,1-.512-.324,1.256,1.256,0,0,1-.289-.512,2.359,2.359,0,0,1-.09-.676,3.788,3.788,0,0,1,.043-.527,5.466,5.466,0,0,1,.105-.551l.922-4.352H58.25L58.492,33H59.8l.414-1.953a2.408,2.408,0,0,1,.238-.074q.207-.059.453-.133l.453-.137.23-.07L61.1,33h2.016Zm6.852,4.352q-.062.3-.121.668t-.1.734q-.043.363-.07.676T69.406,41H68.078q.008-.156.023-.375t.043-.453q.027-.234.055-.461t.059-.391h-.031q-.242.383-.492.723a3.478,3.478,0,0,1-.555.6,2.429,2.429,0,0,1-.68.406,2.612,2.612,0,0,1-1.84-.039,2.006,2.006,0,0,1-.746-.559,2.574,2.574,0,0,1-.48-.93,4.532,4.532,0,0,1-.168-1.3,6.518,6.518,0,0,1,.094-1.031,6.309,6.309,0,0,1,.316-1.18,6.006,6.006,0,0,1,.594-1.176,4.465,4.465,0,0,1,.922-1.027,4.4,4.4,0,0,1,1.3-.727,5.051,5.051,0,0,1,1.734-.273,9.22,9.22,0,0,1,1.289.094q.664.094,1.32.227Zm-.367-4.383q-.273-.063-.641-.109a5.447,5.447,0,0,0-.687-.047,3.118,3.118,0,0,0-1.2.215,3.077,3.077,0,0,0-.9.563,3.312,3.312,0,0,0-.645.8,4.965,4.965,0,0,0-.418.926,5.449,5.449,0,0,0-.223.934,5.91,5.91,0,0,0-.066.836,3.744,3.744,0,0,0,.078.8,1.749,1.749,0,0,0,.246.605,1.156,1.156,0,0,0,.43.387,1.325,1.325,0,0,0,.621.137,1.692,1.692,0,0,0,.73-.16,2.532,2.532,0,0,0,.637-.434,3.56,3.56,0,0,0,.539-.633,6.225,6.225,0,0,0,.438-.762,6.515,6.515,0,0,0,.332-.82q.137-.418.223-.809Zm7.953.3h-.031a2.306,2.306,0,0,0-.41-.184,1.5,1.5,0,0,0-.5-.09,1.479,1.479,0,0,0-.867.293,3.188,3.188,0,0,0-.754.773,5.549,5.549,0,0,0-.594,1.1,7.5,7.5,0,0,0-.395,1.266L73.008,41H71.727l1.125-5.312q.07-.328.141-.687t.129-.719q.059-.359.105-.687T73.3,33h1.266q-.023.234-.055.5T74.445,34q-.031.246-.062.445t-.047.309h.031a8.622,8.622,0,0,1,.508-.8,3.718,3.718,0,0,1,.543-.613,2.3,2.3,0,0,1,.605-.395,1.71,1.71,0,0,1,.7-.141,2.206,2.206,0,0,1,.434.043q.215.043.387.09Zm2.945,6.609a2.994,2.994,0,0,1-.441.1,3.11,3.11,0,0,1-.488.039,1.594,1.594,0,0,1-1.18-.395,1.439,1.439,0,0,1-.391-1.059A3.228,3.228,0,0,1,77.8,39.2q.039-.266.125-.656L79.086,33h1.3l-1.172,5.57q-.07.328-.1.508a2.079,2.079,0,0,0-.027.3.644.644,0,0,0,.176.488.787.787,0,0,0,.559.168,2.366,2.366,0,0,0,.355-.023,1.575,1.575,0,0,0,.285-.07Zm.914-10.82a.841.841,0,0,1-.238.6.782.782,0,0,1-.59.25.831.831,0,0,1-.6-.246.81.81,0,0,1-.254-.605.749.749,0,0,1,.254-.586.869.869,0,0,1,.6-.227.819.819,0,0,1,.586.23A.769.769,0,0,1,81.172,30.148Zm7.93,5.813a6.659,6.659,0,0,1-.3,2.016,5.154,5.154,0,0,1-.867,1.668,4.19,4.19,0,0,1-1.375,1.133,3.914,3.914,0,0,1-1.824.418,3.33,3.33,0,0,1-1.238-.219,2.576,2.576,0,0,1-.937-.629,2.786,2.786,0,0,1-.594-.992,3.912,3.912,0,0,1-.207-1.316,6.519,6.519,0,0,1,.316-2.059,5.2,5.2,0,0,1,.891-1.664,4.161,4.161,0,0,1,1.375-1.109,3.885,3.885,0,0,1,1.77-.4,3.308,3.308,0,0,1,1.23.219,2.614,2.614,0,0,1,.941.629,2.848,2.848,0,0,1,.605.992A3.783,3.783,0,0,1,89.1,35.961Zm-1.312.063a2.987,2.987,0,0,0-.125-.9,1.92,1.92,0,0,0-.352-.664,1.525,1.525,0,0,0-.547-.414,1.729,1.729,0,0,0-.719-.145,2.272,2.272,0,0,0-1.242.352,3.143,3.143,0,0,0-.937.926,4.591,4.591,0,0,0-.59,1.3,5.46,5.46,0,0,0-.207,1.5,2.988,2.988,0,0,0,.121.879,2,2,0,0,0,.344.672,1.484,1.484,0,0,0,.547.426,1.735,1.735,0,0,0,.73.148,2.3,2.3,0,0,0,1.25-.348A3.1,3.1,0,0,0,87,38.832a4.505,4.505,0,0,0,.586-1.309A5.6,5.6,0,0,0,87.789,36.023Zm14.383-.227a6.075,6.075,0,0,1-.125,1.2,6.207,6.207,0,0,1-.383,1.223,6.02,6.02,0,0,1-.645,1.141,4.625,4.625,0,0,1-.91.949,4.22,4.22,0,0,1-1.187.648,4.323,4.323,0,0,1-1.469.238,4.833,4.833,0,0,1-.91-.086,5.6,5.6,0,0,1-.785-.2l-.8,3.8h-1.3l1.953-9.25q.055-.25.1-.6t.082-.707q.035-.355.059-.668T95.883,33H97.2q0,.133-.02.359t-.051.473q-.031.246-.062.477t-.055.371h.031a4.221,4.221,0,0,1,1.25-1.41A2.672,2.672,0,0,1,99.8,32.8a2.476,2.476,0,0,1,.984.188,1.949,1.949,0,0,1,.746.563,2.6,2.6,0,0,1,.473.938A4.675,4.675,0,0,1,102.172,35.8Zm-1.312.055a3.864,3.864,0,0,0-.074-.781,1.733,1.733,0,0,0-.246-.617,1.246,1.246,0,0,0-.441-.406,1.352,1.352,0,0,0-.66-.148,1.76,1.76,0,0,0-.762.168,2.623,2.623,0,0,0-.66.449,3.682,3.682,0,0,0-.555.652,6.484,6.484,0,0,0-.445.77,6.761,6.761,0,0,0-.332.8,6.036,6.036,0,0,0-.207.754l-.492,2.32a2.192,2.192,0,0,0,.336.113q.2.051.406.09t.43.063a3.83,3.83,0,0,0,.406.023,2.7,2.7,0,0,0,1-.18,2.891,2.891,0,0,0,.82-.488,3.446,3.446,0,0,0,.641-.727,4.821,4.821,0,0,0,.465-.891,5.242,5.242,0,0,0,.281-.977A5.4,5.4,0,0,0,100.859,35.852Zm7.906-1.492h-.031a2.306,2.306,0,0,0-.41-.184,1.5,1.5,0,0,0-.5-.09,1.479,1.479,0,0,0-.867.293,3.188,3.188,0,0,0-.754.773,5.549,5.549,0,0,0-.594,1.1,7.5,7.5,0,0,0-.395,1.266L104.461,41H103.18l1.125-5.312q.07-.328.141-.687t.129-.719q.059-.359.105-.687t.07-.594h1.266q-.023.234-.055.5T105.9,34q-.031.246-.062.445t-.047.309h.031a8.622,8.622,0,0,1,.508-.8,3.718,3.718,0,0,1,.543-.613,2.3,2.3,0,0,1,.605-.395,1.71,1.71,0,0,1,.7-.141,2.206,2.206,0,0,1,.434.043q.215.043.387.09Zm7.648,1.6a6.659,6.659,0,0,1-.3,2.016,5.154,5.154,0,0,1-.867,1.668,4.19,4.19,0,0,1-1.375,1.133,3.914,3.914,0,0,1-1.824.418,3.33,3.33,0,0,1-1.238-.219,2.576,2.576,0,0,1-.937-.629,2.786,2.786,0,0,1-.594-.992,3.912,3.912,0,0,1-.207-1.316,6.519,6.519,0,0,1,.316-2.059,5.2,5.2,0,0,1,.891-1.664,4.161,4.161,0,0,1,1.375-1.109,3.885,3.885,0,0,1,1.77-.4,3.308,3.308,0,0,1,1.23.219,2.614,2.614,0,0,1,.941.629,2.848,2.848,0,0,1,.605.992A3.783,3.783,0,0,1,116.414,35.961Zm-1.312.063a2.987,2.987,0,0,0-.125-.9,1.92,1.92,0,0,0-.352-.664,1.525,1.525,0,0,0-.547-.414,1.729,1.729,0,0,0-.719-.145,2.272,2.272,0,0,0-1.242.352,3.143,3.143,0,0,0-.937.926,4.591,4.591,0,0,0-.59,1.3,5.46,5.46,0,0,0-.207,1.5,2.988,2.988,0,0,0,.121.879,2,2,0,0,0,.344.672,1.484,1.484,0,0,0,.547.426,1.735,1.735,0,0,0,.73.148,2.3,2.3,0,0,0,1.25-.348,3.1,3.1,0,0,0,.938-.922,4.505,4.505,0,0,0,.586-1.309A5.6,5.6,0,0,0,115.1,36.023Zm14.836-1.008a2.6,2.6,0,0,1-.027.309q-.027.207-.07.441t-.086.465q-.043.23-.074.387L128.734,41h-1.281l.977-4.687q.031-.133.063-.3t.059-.324q.027-.16.043-.3a2.008,2.008,0,0,0,.016-.215,1.487,1.487,0,0,0-.266-.949,1,1,0,0,0-.828-.332,1.542,1.542,0,0,0-.613.137,2.836,2.836,0,0,0-.617.371,4.353,4.353,0,0,0-.578.547,5.567,5.567,0,0,0-.508.668,5.2,5.2,0,0,0-.395.727,3.81,3.81,0,0,0-.242.73L123.727,41h-1.3l.992-4.687q.031-.133.063-.3t.059-.324q.027-.16.043-.3a2.01,2.01,0,0,0,.016-.215,1.457,1.457,0,0,0-.273-.949,1,1,0,0,0-.82-.332,1.586,1.586,0,0,0-.625.137,2.8,2.8,0,0,0-.625.375,4.293,4.293,0,0,0-.582.555,5.826,5.826,0,0,0-.508.672,4.916,4.916,0,0,0-.391.727,3.977,3.977,0,0,0-.238.73L118.7,41h-1.3l1.234-5.711q.062-.3.125-.637t.117-.641q.055-.309.094-.574t.063-.437h1.25q-.039.3-.094.637t-.094.613q-.047.328-.1.641h.031a6.756,6.756,0,0,1,.609-.836,4.457,4.457,0,0,1,.7-.66,3.219,3.219,0,0,1,.766-.434,2.411,2.411,0,0,1,1.688-.008,1.6,1.6,0,0,1,.6.418,1.827,1.827,0,0,1,.363.652,3.263,3.263,0,0,1,.148.852,7.56,7.56,0,0,1,.621-.816,4.41,4.41,0,0,1,.711-.656,3.362,3.362,0,0,1,.8-.437,2.542,2.542,0,0,1,.9-.16,1.869,1.869,0,0,1,1.5.582A2.423,2.423,0,0,1,129.938,35.016Zm8.3-.141a2.381,2.381,0,0,1-.281,1.152,2.331,2.331,0,0,1-.93.891,5.584,5.584,0,0,1-1.711.574,14.678,14.678,0,0,1-2.625.211,1,1,0,0,0-.016.18v.156a2.657,2.657,0,0,0,.117.8,1.8,1.8,0,0,0,.363.656,1.714,1.714,0,0,0,.633.445,2.341,2.341,0,0,0,.918.164,3.9,3.9,0,0,0,1.184-.207,5.087,5.087,0,0,0,1.23-.59l-.242,1.266a5.078,5.078,0,0,1-1.023.438,4.4,4.4,0,0,1-1.328.188,3.609,3.609,0,0,1-1.488-.273,2.621,2.621,0,0,1-.977-.73,2.848,2.848,0,0,1-.535-1.055,4.716,4.716,0,0,1-.164-1.254,5.8,5.8,0,0,1,.156-1.355,5.519,5.519,0,0,1,.441-1.215,5.149,5.149,0,0,1,.684-1.027,4.444,4.444,0,0,1,.883-.793,4.093,4.093,0,0,1,1.039-.508,3.7,3.7,0,0,1,1.148-.18,3.319,3.319,0,0,1,1.09.164,2.277,2.277,0,0,1,.789.449,1.915,1.915,0,0,1,.48.66A1.966,1.966,0,0,1,138.234,34.875Zm-1.3.063a.9.9,0,0,0-.363-.766,1.565,1.565,0,0,0-.965-.273,2.163,2.163,0,0,0-.922.207,2.983,2.983,0,0,0-.82.57,3.56,3.56,0,0,0-.648.867,4.038,4.038,0,0,0-.4,1.09,13.5,13.5,0,0,0,1.9-.113,4.925,4.925,0,0,0,1.273-.332,1.712,1.712,0,0,0,.719-.535A1.2,1.2,0,0,0,136.93,34.938Zm8.648,3.6q-.055.25-.105.6t-.09.707q-.039.355-.066.668t-.027.484h-1.328q0-.133.02-.355t.047-.465q.027-.242.059-.465t.055-.363h-.031a7.891,7.891,0,0,1-.562.8,3.256,3.256,0,0,1-.594.578,2.386,2.386,0,0,1-.664.348,2.434,2.434,0,0,1-.773.117,2.39,2.39,0,0,1-.984-.2,2.005,2.005,0,0,1-.746-.574,2.646,2.646,0,0,1-.473-.937,4.57,4.57,0,0,1-.164-1.285,6.324,6.324,0,0,1,.121-1.2,6.162,6.162,0,0,1,.375-1.227,5.748,5.748,0,0,1,.645-1.141,4.367,4.367,0,0,1,2.164-1.59,4.775,4.775,0,0,1,1.555-.238,5.273,5.273,0,0,1,.813.059q.375.059.648.121l.813-3.828h1.266Zm-.336-4.453a5.033,5.033,0,0,0-.621-.137,4.47,4.47,0,0,0-.691-.051,3.17,3.17,0,0,0-1.2.211,3.024,3.024,0,0,0-.906.563,3.367,3.367,0,0,0-.648.8,5.045,5.045,0,0,0-.422.922,5.248,5.248,0,0,0-.227.93,5.786,5.786,0,0,0-.066.824,3.949,3.949,0,0,0,.074.8,1.779,1.779,0,0,0,.242.617,1.157,1.157,0,0,0,.434.4,1.353,1.353,0,0,0,.641.141,1.658,1.658,0,0,0,.73-.164,2.516,2.516,0,0,0,.637-.445,3.676,3.676,0,0,0,.539-.648,6.291,6.291,0,0,0,.438-.781,6.943,6.943,0,0,0,.332-.84q.137-.426.223-.816Zm5.219,6.883a2.994,2.994,0,0,1-.441.1,3.111,3.111,0,0,1-.488.039,1.594,1.594,0,0,1-1.18-.395,1.439,1.439,0,0,1-.391-1.059A3.227,3.227,0,0,1,148,39.2q.039-.266.125-.656L149.289,33h1.3l-1.172,5.57q-.07.328-.1.508a2.078,2.078,0,0,0-.027.3.644.644,0,0,0,.176.488.787.787,0,0,0,.559.168,2.366,2.366,0,0,0,.355-.023,1.575,1.575,0,0,0,.285-.07Zm.914-10.82a.841.841,0,0,1-.238.6.782.782,0,0,1-.59.25.831.831,0,0,1-.6-.246.81.81,0,0,1-.254-.605.749.749,0,0,1,.254-.586.869.869,0,0,1,.6-.227.819.819,0,0,1,.586.23A.769.769,0,0,1,151.375,30.148Zm7.93,5.813a6.659,6.659,0,0,1-.3,2.016,5.153,5.153,0,0,1-.867,1.668,4.19,4.19,0,0,1-1.375,1.133,3.914,3.914,0,0,1-1.824.418,3.33,3.33,0,0,1-1.238-.219,2.576,2.576,0,0,1-.937-.629,2.786,2.786,0,0,1-.594-.992,3.912,3.912,0,0,1-.207-1.316,6.519,6.519,0,0,1,.316-2.059,5.2,5.2,0,0,1,.891-1.664,4.161,4.161,0,0,1,1.375-1.109,3.885,3.885,0,0,1,1.77-.4,3.308,3.308,0,0,1,1.23.219,2.614,2.614,0,0,1,.941.629,2.848,2.848,0,0,1,.605.992A3.783,3.783,0,0,1,159.3,35.961Zm-1.312.063a2.987,2.987,0,0,0-.125-.9,1.919,1.919,0,0,0-.352-.664,1.525,1.525,0,0,0-.547-.414,1.729,1.729,0,0,0-.719-.145,2.272,2.272,0,0,0-1.242.352,3.143,3.143,0,0,0-.937.926,4.591,4.591,0,0,0-.59,1.3,5.46,5.46,0,0,0-.207,1.5,2.988,2.988,0,0,0,.121.879,2,2,0,0,0,.344.672,1.484,1.484,0,0,0,.547.426,1.735,1.735,0,0,0,.73.148,2.3,2.3,0,0,0,1.25-.348,3.1,3.1,0,0,0,.938-.922,4.506,4.506,0,0,0,.586-1.309A5.6,5.6,0,0,0,157.992,36.023Zm13.359,2.516q-.055.25-.105.6t-.09.707q-.039.355-.066.668t-.027.484h-1.328q0-.133.02-.355t.047-.465q.027-.242.059-.465t.055-.363h-.031a7.891,7.891,0,0,1-.562.8,3.256,3.256,0,0,1-.594.578,2.386,2.386,0,0,1-.664.348,2.434,2.434,0,0,1-.773.117,2.39,2.39,0,0,1-.984-.2,2.005,2.005,0,0,1-.746-.574,2.646,2.646,0,0,1-.473-.937,4.57,4.57,0,0,1-.164-1.285,6.324,6.324,0,0,1,.121-1.2,6.162,6.162,0,0,1,.375-1.227,5.748,5.748,0,0,1,.645-1.141,4.367,4.367,0,0,1,2.164-1.59,4.775,4.775,0,0,1,1.555-.238,5.273,5.273,0,0,1,.813.059q.375.059.648.121l.813-3.828h1.266Zm-.336-4.453a5.033,5.033,0,0,0-.621-.137,4.47,4.47,0,0,0-.691-.051,3.17,3.17,0,0,0-1.2.211,3.024,3.024,0,0,0-.906.563,3.367,3.367,0,0,0-.648.8,5.045,5.045,0,0,0-.422.922,5.248,5.248,0,0,0-.227.93,5.786,5.786,0,0,0-.066.824,3.949,3.949,0,0,0,.074.8,1.779,1.779,0,0,0,.242.617,1.157,1.157,0,0,0,.434.4,1.353,1.353,0,0,0,.641.141,1.658,1.658,0,0,0,.73-.164,2.516,2.516,0,0,0,.637-.445,3.676,3.676,0,0,0,.539-.648,6.291,6.291,0,0,0,.438-.781,6.943,6.943,0,0,0,.332-.84q.137-.426.223-.816Zm9.453.789a2.381,2.381,0,0,1-.281,1.152,2.331,2.331,0,0,1-.93.891,5.584,5.584,0,0,1-1.711.574,14.678,14.678,0,0,1-2.625.211,1,1,0,0,0-.016.18v.156a2.657,2.657,0,0,0,.117.8,1.8,1.8,0,0,0,.363.656,1.714,1.714,0,0,0,.633.445,2.341,2.341,0,0,0,.918.164,3.9,3.9,0,0,0,1.184-.207,5.087,5.087,0,0,0,1.23-.59l-.242,1.266a5.078,5.078,0,0,1-1.023.438,4.4,4.4,0,0,1-1.328.188,3.609,3.609,0,0,1-1.488-.273,2.621,2.621,0,0,1-.977-.73,2.848,2.848,0,0,1-.535-1.055,4.716,4.716,0,0,1-.164-1.254,5.8,5.8,0,0,1,.156-1.355,5.519,5.519,0,0,1,.441-1.215,5.149,5.149,0,0,1,.684-1.027,4.444,4.444,0,0,1,.883-.793,4.093,4.093,0,0,1,1.039-.508,3.7,3.7,0,0,1,1.148-.18,3.319,3.319,0,0,1,1.09.164,2.277,2.277,0,0,1,.789.449,1.915,1.915,0,0,1,.48.66A1.966,1.966,0,0,1,180.469,34.875Zm-1.3.063a.9.9,0,0,0-.363-.766,1.565,1.565,0,0,0-.965-.273,2.163,2.163,0,0,0-.922.207,2.983,2.983,0,0,0-.82.57,3.56,3.56,0,0,0-.648.867,4.038,4.038,0,0,0-.4,1.09,13.5,13.5,0,0,0,1.9-.113,4.925,4.925,0,0,0,1.273-.332,1.712,1.712,0,0,0,.719-.535A1.2,1.2,0,0,0,179.164,34.938Zm18.922.078a2.6,2.6,0,0,1-.027.309q-.027.207-.07.441t-.086.465q-.043.23-.074.387L196.883,41H195.6l.977-4.687q.031-.133.063-.3t.059-.324q.027-.16.043-.3a2.008,2.008,0,0,0,.016-.215,1.487,1.487,0,0,0-.266-.949,1,1,0,0,0-.828-.332,1.542,1.542,0,0,0-.613.137,2.836,2.836,0,0,0-.617.371,4.353,4.353,0,0,0-.578.547,5.567,5.567,0,0,0-.508.668,5.2,5.2,0,0,0-.395.727,3.809,3.809,0,0,0-.242.73L191.875,41h-1.3l.992-4.687q.031-.133.063-.3t.059-.324q.027-.16.043-.3a2.008,2.008,0,0,0,.016-.215,1.457,1.457,0,0,0-.273-.949,1,1,0,0,0-.82-.332,1.586,1.586,0,0,0-.625.137,2.8,2.8,0,0,0-.625.375,4.293,4.293,0,0,0-.582.555,5.826,5.826,0,0,0-.508.672,4.916,4.916,0,0,0-.391.727,3.977,3.977,0,0,0-.238.73L186.852,41h-1.3l1.234-5.711q.063-.3.125-.637t.117-.641q.055-.309.094-.574t.063-.437h1.25q-.039.3-.094.637t-.094.613q-.047.328-.1.641h.031a6.756,6.756,0,0,1,.609-.836,4.456,4.456,0,0,1,.7-.66,3.219,3.219,0,0,1,.766-.434,2.411,2.411,0,0,1,1.688-.008,1.6,1.6,0,0,1,.6.418,1.827,1.827,0,0,1,.363.652,3.264,3.264,0,0,1,.148.852,7.558,7.558,0,0,1,.621-.816,4.41,4.41,0,0,1,.711-.656,3.362,3.362,0,0,1,.8-.437,2.542,2.542,0,0,1,.9-.16,1.869,1.869,0,0,1,1.5.582A2.423,2.423,0,0,1,198.086,35.016Zm8.3-.141a2.381,2.381,0,0,1-.281,1.152,2.331,2.331,0,0,1-.93.891,5.584,5.584,0,0,1-1.711.574,14.678,14.678,0,0,1-2.625.211,1,1,0,0,0-.016.18v.156a2.657,2.657,0,0,0,.117.8,1.8,1.8,0,0,0,.363.656,1.714,1.714,0,0,0,.633.445,2.341,2.341,0,0,0,.918.164,3.9,3.9,0,0,0,1.184-.207,5.087,5.087,0,0,0,1.23-.59l-.242,1.266a5.078,5.078,0,0,1-1.023.438,4.4,4.4,0,0,1-1.328.188,3.609,3.609,0,0,1-1.488-.273,2.621,2.621,0,0,1-.977-.73,2.848,2.848,0,0,1-.535-1.055,4.716,4.716,0,0,1-.164-1.254,5.8,5.8,0,0,1,.156-1.355,5.519,5.519,0,0,1,.441-1.215,5.149,5.149,0,0,1,.684-1.027,4.444,4.444,0,0,1,.883-.793,4.093,4.093,0,0,1,1.039-.508,3.7,3.7,0,0,1,1.148-.18,3.319,3.319,0,0,1,1.09.164,2.277,2.277,0,0,1,.789.449,1.915,1.915,0,0,1,.48.66A1.966,1.966,0,0,1,206.383,34.875Zm-1.3.063a.9.9,0,0,0-.363-.766,1.565,1.565,0,0,0-.965-.273,2.163,2.163,0,0,0-.922.207,2.983,2.983,0,0,0-.82.57,3.56,3.56,0,0,0-.648.867,4.038,4.038,0,0,0-.4,1.09,13.5,13.5,0,0,0,1.9-.113,4.925,4.925,0,0,0,1.273-.332,1.712,1.712,0,0,0,.719-.535A1.2,1.2,0,0,0,205.078,34.938Zm7.594-.578h-.031a2.307,2.307,0,0,0-.41-.184,1.5,1.5,0,0,0-.5-.09,1.479,1.479,0,0,0-.867.293,3.188,3.188,0,0,0-.754.773,5.549,5.549,0,0,0-.594,1.1,7.5,7.5,0,0,0-.395,1.266L208.367,41h-1.281l1.125-5.312q.07-.328.141-.687t.129-.719q.059-.359.105-.687t.07-.594h1.266q-.023.234-.055.5T209.8,34q-.031.246-.062.445t-.047.309h.031a8.624,8.624,0,0,1,.508-.8,3.717,3.717,0,0,1,.543-.613,2.3,2.3,0,0,1,.605-.395,1.71,1.71,0,0,1,.7-.141,2.206,2.206,0,0,1,.434.043q.215.043.387.09Zm6.445.227a2.941,2.941,0,0,0-.793-.488,2.582,2.582,0,0,0-1.027-.2,2.427,2.427,0,0,0-.973.188,2.684,2.684,0,0,0-.77.5,3.244,3.244,0,0,0-.578.719,4.793,4.793,0,0,0-.4.844,5.193,5.193,0,0,0-.23.871,4.809,4.809,0,0,0-.074.809,2.552,2.552,0,0,0,.492,1.7,1.672,1.672,0,0,0,1.344.578,2.957,2.957,0,0,0,1.07-.215,5.151,5.151,0,0,0,1.047-.551l-.273,1.281a5.483,5.483,0,0,1-1.012.426,3.666,3.666,0,0,1-1.066.152,3.029,3.029,0,0,1-1.277-.25,2.5,2.5,0,0,1-.9-.687,2.946,2.946,0,0,1-.539-1.035,4.472,4.472,0,0,1-.18-1.293,6.315,6.315,0,0,1,.133-1.293,5.569,5.569,0,0,1,.395-1.2,5.219,5.219,0,0,1,.645-1.051A4.107,4.107,0,0,1,216.133,33a4.451,4.451,0,0,1,1.961-.152,3.8,3.8,0,0,1,.555.125,3.736,3.736,0,0,1,.445.168,1.829,1.829,0,0,1,.313.176Zm7.3,3.852q-.063.3-.121.668t-.1.734q-.043.363-.07.676t-.027.484h-1.328q.008-.156.023-.375t.043-.453q.027-.234.055-.461t.059-.391h-.031q-.242.383-.492.723a3.478,3.478,0,0,1-.555.6,2.429,2.429,0,0,1-.68.406,2.612,2.612,0,0,1-1.84-.039,2.006,2.006,0,0,1-.746-.559,2.574,2.574,0,0,1-.48-.93,4.531,4.531,0,0,1-.168-1.3,6.518,6.518,0,0,1,.094-1.031,6.309,6.309,0,0,1,.316-1.18,6.007,6.007,0,0,1,.594-1.176,4.465,4.465,0,0,1,.922-1.027,4.4,4.4,0,0,1,1.3-.727,5.051,5.051,0,0,1,1.734-.273,9.22,9.22,0,0,1,1.289.094q.664.094,1.32.227Zm-.367-4.383q-.273-.063-.641-.109a5.447,5.447,0,0,0-.687-.047,3.118,3.118,0,0,0-1.2.215,3.077,3.077,0,0,0-.9.563,3.313,3.313,0,0,0-.645.8,4.965,4.965,0,0,0-.418.926,5.448,5.448,0,0,0-.223.934,5.911,5.911,0,0,0-.066.836,3.744,3.744,0,0,0,.078.8,1.748,1.748,0,0,0,.246.605,1.156,1.156,0,0,0,.43.387,1.325,1.325,0,0,0,.621.137,1.692,1.692,0,0,0,.73-.16,2.532,2.532,0,0,0,.637-.434,3.56,3.56,0,0,0,.539-.633,6.225,6.225,0,0,0,.438-.762,6.515,6.515,0,0,0,.332-.82q.137-.418.223-.809ZM236.188,35a2.545,2.545,0,0,1-.027.32q-.027.2-.07.438t-.086.465q-.043.23-.082.395L234.992,41h-1.3l.977-4.687q.031-.125.063-.289t.055-.328q.023-.164.039-.3a2.008,2.008,0,0,0,.016-.215,1.424,1.424,0,0,0-.285-.937,1.038,1.038,0,0,0-.848-.344,1.972,1.972,0,0,0-1.023.3,4.21,4.21,0,0,0-.937.773,5.275,5.275,0,0,0-.738,1.031,3.952,3.952,0,0,0-.418,1.086L229.758,41h-1.3l1.234-5.711q.063-.3.125-.637t.117-.641q.055-.309.094-.574t.063-.437h1.25q-.039.3-.094.637t-.094.613q-.047.328-.1.641h.031a6.607,6.607,0,0,1,.605-.809,4.531,4.531,0,0,1,.719-.664,3.413,3.413,0,0,1,.82-.449,2.55,2.55,0,0,1,.91-.164,2.362,2.362,0,0,1,.914.16,1.712,1.712,0,0,1,.637.449,1.829,1.829,0,0,1,.375.7A3.108,3.108,0,0,1,236.188,35Zm7.57-.414a2.941,2.941,0,0,0-.793-.488,2.582,2.582,0,0,0-1.027-.2,2.427,2.427,0,0,0-.973.188,2.684,2.684,0,0,0-.77.5,3.244,3.244,0,0,0-.578.719,4.793,4.793,0,0,0-.4.844,5.193,5.193,0,0,0-.23.871,4.809,4.809,0,0,0-.074.809,2.552,2.552,0,0,0,.492,1.7,1.672,1.672,0,0,0,1.344.578,2.957,2.957,0,0,0,1.07-.215,5.151,5.151,0,0,0,1.047-.551l-.273,1.281a5.483,5.483,0,0,1-1.012.426,3.666,3.666,0,0,1-1.066.152,3.029,3.029,0,0,1-1.277-.25,2.5,2.5,0,0,1-.9-.687,2.946,2.946,0,0,1-.539-1.035,4.472,4.472,0,0,1-.18-1.293,6.315,6.315,0,0,1,.133-1.293,5.569,5.569,0,0,1,.395-1.2,5.219,5.219,0,0,1,.645-1.051A4.107,4.107,0,0,1,240.773,33a4.451,4.451,0,0,1,1.961-.152,3.8,3.8,0,0,1,.555.125,3.736,3.736,0,0,1,.445.168,1.829,1.829,0,0,1,.313.176Zm3.477,6.383a2.994,2.994,0,0,1-.441.1,3.111,3.111,0,0,1-.488.039,1.594,1.594,0,0,1-1.18-.395,1.439,1.439,0,0,1-.391-1.059,3.227,3.227,0,0,1,.039-.461q.039-.266.125-.656L246.063,33h1.3l-1.172,5.57q-.07.328-.1.508a2.078,2.078,0,0,0-.027.3.644.644,0,0,0,.176.488.787.787,0,0,0,.559.168,2.366,2.366,0,0,0,.355-.023,1.575,1.575,0,0,0,.285-.07Zm.914-10.82a.841.841,0,0,1-.238.6.782.782,0,0,1-.59.25.831.831,0,0,1-.6-.246.81.81,0,0,1-.254-.605.749.749,0,0,1,.254-.586.869.869,0,0,1,.6-.227.819.819,0,0,1,.586.23A.769.769,0,0,1,248.148,30.148Zm7.047,8.289q-.063.3-.121.668t-.1.734q-.043.363-.07.676t-.027.484h-1.328q.008-.156.023-.375t.043-.453q.027-.234.055-.461t.059-.391H253.7q-.242.383-.492.723a3.478,3.478,0,0,1-.555.6,2.429,2.429,0,0,1-.68.406,2.612,2.612,0,0,1-1.84-.039,2.006,2.006,0,0,1-.746-.559,2.574,2.574,0,0,1-.48-.93,4.531,4.531,0,0,1-.168-1.3,6.518,6.518,0,0,1,.094-1.031,6.309,6.309,0,0,1,.316-1.18,6.007,6.007,0,0,1,.594-1.176,4.465,4.465,0,0,1,.922-1.027,4.4,4.4,0,0,1,1.3-.727A5.051,5.051,0,0,1,253.7,32.8a9.22,9.22,0,0,1,1.289.094q.664.094,1.32.227Zm-.367-4.383q-.273-.063-.641-.109a5.447,5.447,0,0,0-.687-.047,3.118,3.118,0,0,0-1.2.215,3.077,3.077,0,0,0-.9.563,3.313,3.313,0,0,0-.645.8,4.965,4.965,0,0,0-.418.926,5.448,5.448,0,0,0-.223.934,5.911,5.911,0,0,0-.066.836,3.744,3.744,0,0,0,.078.8,1.748,1.748,0,0,0,.246.605,1.156,1.156,0,0,0,.43.387,1.325,1.325,0,0,0,.621.137,1.692,1.692,0,0,0,.73-.16,2.532,2.532,0,0,0,.637-.434,3.56,3.56,0,0,0,.539-.633,6.225,6.225,0,0,0,.438-.762,6.515,6.515,0,0,0,.332-.82q.137-.418.223-.809Zm7.633.352a3.33,3.33,0,0,0-.789-.367,2.845,2.845,0,0,0-.875-.141,1.726,1.726,0,0,0-1.137.336,1.1,1.1,0,0,0-.4.891,1.116,1.116,0,0,0,.074.414,1.25,1.25,0,0,0,.219.355,1.985,1.985,0,0,0,.367.324q.223.156.512.336a4.028,4.028,0,0,1,1.262,1.043,2.01,2.01,0,0,1,.387,1.207,2.436,2.436,0,0,1-.168.887,2,2,0,0,1-.535.766,2.744,2.744,0,0,1-.949.535,4.331,4.331,0,0,1-1.418.2,4.7,4.7,0,0,1-.516-.031,5.461,5.461,0,0,1-.566-.094,4.942,4.942,0,0,1-.547-.152,2.408,2.408,0,0,1-.457-.207l.258-1.219a2.69,2.69,0,0,0,.387.219,4,4,0,0,0,.5.2,4.672,4.672,0,0,0,.563.141,3.166,3.166,0,0,0,.582.055,1.834,1.834,0,0,0,1.168-.312,1.053,1.053,0,0,0,.387-.867,1.155,1.155,0,0,0-.059-.375,1.052,1.052,0,0,0-.207-.344,2.3,2.3,0,0,0-.391-.348q-.242-.176-.609-.395a3.946,3.946,0,0,1-1.176-1.012,1.992,1.992,0,0,1-.379-1.191,2.432,2.432,0,0,1,.18-.926,2.24,2.24,0,0,1,.535-.781,2.6,2.6,0,0,1,.895-.543,3.559,3.559,0,0,1,1.258-.2,5.018,5.018,0,0,1,1.066.109,3.786,3.786,0,0,1,.855.281Z" transform="translate(256)" fill="#12263f"/>
        <line id="L칤nea_575" data-name="L칤nea 575" x2="273.951" transform="translate(258.5 21.5)" fill="none" stroke="#12263f" stroke-width="1"/>
      </g>
    </g>
  </g>
</svg>
