<svg xmlns="http://www.w3.org/2000/svg" width="512.719" height="121.103" viewBox="0 0 512.719 121.103">
  <g id="Grupo_1113482" data-name="Grupo 1113482" transform="translate(-351.051 -11712)">
    <g id="Grupo_1113470" data-name="Grupo 1113470" transform="translate(62.277 9113.127)">
      <rect id="Rectángulo_406002" data-name="Rectángulo 406002" width="502.441" height="112.976" transform="translate(299.051 2607)" fill="#bce0fc"/>
      <g id="Rectángulo_406003" data-name="Rectángulo 406003" transform="translate(288.773 2598.873)" fill="#fbfbf9" stroke="#000" stroke-width="0.5">
        <rect width="508.879" height="114.976" stroke="none"/>
        <rect x="0.25" y="0.25" width="508.379" height="114.476" fill="none"/>
      </g>
      <g id="Grupo_1113471" data-name="Grupo 1113471" transform="translate(366.773 2615.873)">
        <path id="Trazado_908179" data-name="Trazado 908179" d="M52.3,8.742a4.3,4.3,0,0,1-.281,1.559,3.463,3.463,0,0,1-.855,1.277,4.07,4.07,0,0,1-1.457.863,6.161,6.161,0,0,1-2.078.316h-1.7L45.039,17H43.7L46.063,5.8h2.9a4.264,4.264,0,0,1,1.535.246,2.889,2.889,0,0,1,1.039.656,2.493,2.493,0,0,1,.586.941A3.349,3.349,0,0,1,52.3,8.742Zm-1.383.117a1.986,1.986,0,0,0-.145-.77,1.589,1.589,0,0,0-.426-.594,1.937,1.937,0,0,0-.7-.379,3.189,3.189,0,0,0-.965-.133H47.164l-.977,4.594h1.57a4.37,4.37,0,0,0,1.426-.207,2.71,2.71,0,0,0,.984-.57,2.222,2.222,0,0,0,.57-.859A3.1,3.1,0,0,0,50.922,8.859ZM59.8,10.875a2.381,2.381,0,0,1-.281,1.152,2.331,2.331,0,0,1-.93.891,5.584,5.584,0,0,1-1.711.574,14.678,14.678,0,0,1-2.625.211,1,1,0,0,0-.016.18v.156a2.657,2.657,0,0,0,.117.8,1.8,1.8,0,0,0,.363.656,1.714,1.714,0,0,0,.633.445,2.341,2.341,0,0,0,.918.164,3.9,3.9,0,0,0,1.184-.207,5.087,5.087,0,0,0,1.23-.59l-.242,1.266a5.078,5.078,0,0,1-1.023.438,4.4,4.4,0,0,1-1.328.188,3.609,3.609,0,0,1-1.488-.273,2.621,2.621,0,0,1-.977-.73,2.848,2.848,0,0,1-.535-1.055,4.716,4.716,0,0,1-.164-1.254,5.8,5.8,0,0,1,.156-1.355,5.519,5.519,0,0,1,.441-1.215,5.148,5.148,0,0,1,.684-1.027,4.444,4.444,0,0,1,.883-.793,4.092,4.092,0,0,1,1.039-.508,3.7,3.7,0,0,1,1.148-.18,3.319,3.319,0,0,1,1.09.164,2.277,2.277,0,0,1,.789.449,1.915,1.915,0,0,1,.48.66A1.966,1.966,0,0,1,59.8,10.875Zm-1.3.063a.9.9,0,0,0-.363-.766,1.565,1.565,0,0,0-.965-.273,2.163,2.163,0,0,0-.922.207,2.984,2.984,0,0,0-.82.57,3.56,3.56,0,0,0-.648.867,4.038,4.038,0,0,0-.4,1.09,13.5,13.5,0,0,0,1.9-.113,4.925,4.925,0,0,0,1.273-.332,1.712,1.712,0,0,0,.719-.535A1.2,1.2,0,0,0,58.5,10.938Zm7.594-.578h-.031a2.306,2.306,0,0,0-.41-.184,1.5,1.5,0,0,0-.5-.09,1.479,1.479,0,0,0-.867.293,3.188,3.188,0,0,0-.754.773,5.549,5.549,0,0,0-.594,1.1,7.5,7.5,0,0,0-.395,1.266L61.789,17H60.508l1.125-5.312q.07-.328.141-.687t.129-.719q.059-.359.105-.687T62.078,9h1.266q-.023.234-.055.5T63.227,10q-.031.246-.062.445t-.047.309h.031a8.623,8.623,0,0,1,.508-.8A3.718,3.718,0,0,1,64.2,9.34a2.3,2.3,0,0,1,.605-.395,1.71,1.71,0,0,1,.7-.141,2.206,2.206,0,0,1,.434.043q.215.043.387.09Zm2.945,6.609a2.994,2.994,0,0,1-.441.1,3.111,3.111,0,0,1-.488.039,1.594,1.594,0,0,1-1.18-.395,1.439,1.439,0,0,1-.391-1.059,3.228,3.228,0,0,1,.039-.461q.039-.266.125-.656L67.867,9h1.3l-1.172,5.57q-.07.328-.1.508a2.079,2.079,0,0,0-.027.3.644.644,0,0,0,.176.488.787.787,0,0,0,.559.168,2.366,2.366,0,0,0,.355-.023,1.575,1.575,0,0,0,.285-.07Zm-.633-9.492h-.961L69.7,4.922h1.258Zm9.477,4.484a6.659,6.659,0,0,1-.3,2.016,5.154,5.154,0,0,1-.867,1.668,4.19,4.19,0,0,1-1.375,1.133,3.914,3.914,0,0,1-1.824.418,3.33,3.33,0,0,1-1.238-.219,2.576,2.576,0,0,1-.937-.629,2.786,2.786,0,0,1-.594-.992,3.912,3.912,0,0,1-.207-1.316,6.519,6.519,0,0,1,.316-2.059,5.2,5.2,0,0,1,.891-1.664,4.161,4.161,0,0,1,1.375-1.109,3.885,3.885,0,0,1,1.77-.4,3.308,3.308,0,0,1,1.23.219,2.614,2.614,0,0,1,.941.629,2.848,2.848,0,0,1,.605.992A3.783,3.783,0,0,1,77.883,11.961Zm-1.312.063a2.987,2.987,0,0,0-.125-.9,1.92,1.92,0,0,0-.352-.664,1.525,1.525,0,0,0-.547-.414,1.729,1.729,0,0,0-.719-.145,2.272,2.272,0,0,0-1.242.352,3.143,3.143,0,0,0-.937.926,4.591,4.591,0,0,0-.59,1.3,5.46,5.46,0,0,0-.207,1.5,2.988,2.988,0,0,0,.121.879,2,2,0,0,0,.344.672,1.484,1.484,0,0,0,.547.426,1.735,1.735,0,0,0,.73.148,2.3,2.3,0,0,0,1.25-.348,3.1,3.1,0,0,0,.938-.922,4.505,4.505,0,0,0,.586-1.309A5.6,5.6,0,0,0,76.57,12.023Zm8.961,2.516q-.055.25-.105.6t-.09.707q-.039.355-.066.668T85.242,17H83.914q0-.133.02-.355t.047-.465q.027-.242.059-.465t.055-.363h-.031a7.891,7.891,0,0,1-.562.8,3.256,3.256,0,0,1-.594.578,2.386,2.386,0,0,1-.664.348,2.434,2.434,0,0,1-.773.117,2.39,2.39,0,0,1-.984-.2,2.006,2.006,0,0,1-.746-.574,2.646,2.646,0,0,1-.473-.937A4.57,4.57,0,0,1,79.1,14.2a6.325,6.325,0,0,1,.121-1.2,6.161,6.161,0,0,1,.375-1.227,5.749,5.749,0,0,1,.645-1.141,4.367,4.367,0,0,1,2.164-1.59A4.775,4.775,0,0,1,83.961,8.8a5.273,5.273,0,0,1,.813.059q.375.059.648.121l.813-3.828H87.5ZM85.2,10.086a5.033,5.033,0,0,0-.621-.137,4.471,4.471,0,0,0-.691-.051,3.17,3.17,0,0,0-1.2.211,3.024,3.024,0,0,0-.906.563,3.367,3.367,0,0,0-.648.8,5.046,5.046,0,0,0-.422.922,5.248,5.248,0,0,0-.227.93,5.785,5.785,0,0,0-.066.824,3.949,3.949,0,0,0,.074.8,1.779,1.779,0,0,0,.242.617,1.157,1.157,0,0,0,.434.4,1.353,1.353,0,0,0,.641.141,1.658,1.658,0,0,0,.73-.164,2.516,2.516,0,0,0,.637-.445,3.677,3.677,0,0,0,.539-.648,6.291,6.291,0,0,0,.438-.781,6.943,6.943,0,0,0,.332-.84q.137-.426.223-.816Zm9.922,1.875a6.659,6.659,0,0,1-.3,2.016,5.154,5.154,0,0,1-.867,1.668,4.19,4.19,0,0,1-1.375,1.133,3.914,3.914,0,0,1-1.824.418,3.33,3.33,0,0,1-1.238-.219,2.576,2.576,0,0,1-.937-.629,2.786,2.786,0,0,1-.594-.992,3.912,3.912,0,0,1-.207-1.316,6.519,6.519,0,0,1,.316-2.059,5.2,5.2,0,0,1,.891-1.664,4.161,4.161,0,0,1,1.375-1.109,3.885,3.885,0,0,1,1.77-.4,3.308,3.308,0,0,1,1.23.219,2.614,2.614,0,0,1,.941.629,2.848,2.848,0,0,1,.605.992A3.783,3.783,0,0,1,95.117,11.961Zm-1.312.063a2.987,2.987,0,0,0-.125-.9,1.92,1.92,0,0,0-.352-.664,1.525,1.525,0,0,0-.547-.414,1.729,1.729,0,0,0-.719-.145,2.272,2.272,0,0,0-1.242.352,3.143,3.143,0,0,0-.937.926,4.591,4.591,0,0,0-.59,1.3,5.46,5.46,0,0,0-.207,1.5,2.988,2.988,0,0,0,.121.879,2,2,0,0,0,.344.672,1.484,1.484,0,0,0,.547.426,1.735,1.735,0,0,0,.73.148,2.3,2.3,0,0,0,1.25-.348,3.1,3.1,0,0,0,.938-.922,4.505,4.505,0,0,0,.586-1.309A5.6,5.6,0,0,0,93.8,12.023Zm14.383-.227a6.075,6.075,0,0,1-.125,1.2,6.207,6.207,0,0,1-.383,1.223,6.02,6.02,0,0,1-.645,1.141,4.625,4.625,0,0,1-.91.949,4.22,4.22,0,0,1-1.187.648,4.323,4.323,0,0,1-1.469.238,4.833,4.833,0,0,1-.91-.086,5.6,5.6,0,0,1-.785-.2l-.8,3.8h-1.3l1.953-9.25q.055-.25.1-.6t.082-.707q.035-.355.059-.668T101.9,9h1.313q0,.133-.02.359t-.051.473q-.031.246-.062.477t-.055.371h.031a4.221,4.221,0,0,1,1.25-1.41A2.672,2.672,0,0,1,105.82,8.8a2.476,2.476,0,0,1,.984.188,1.949,1.949,0,0,1,.746.563,2.6,2.6,0,0,1,.473.938A4.675,4.675,0,0,1,108.188,11.8Zm-1.312.055a3.864,3.864,0,0,0-.074-.781,1.733,1.733,0,0,0-.246-.617,1.246,1.246,0,0,0-.441-.406,1.352,1.352,0,0,0-.66-.148,1.76,1.76,0,0,0-.762.168,2.623,2.623,0,0,0-.66.449,3.682,3.682,0,0,0-.555.652,6.485,6.485,0,0,0-.445.77,6.762,6.762,0,0,0-.332.8,6.036,6.036,0,0,0-.207.754L102,15.813a2.192,2.192,0,0,0,.336.113q.2.051.406.09t.43.063a3.83,3.83,0,0,0,.406.023,2.7,2.7,0,0,0,1-.18,2.891,2.891,0,0,0,.82-.488,3.446,3.446,0,0,0,.641-.727,4.821,4.821,0,0,0,.465-.891,5.242,5.242,0,0,0,.281-.977A5.4,5.4,0,0,0,106.875,11.852Zm7.906-1.492h-.031a2.306,2.306,0,0,0-.41-.184,1.5,1.5,0,0,0-.5-.09,1.479,1.479,0,0,0-.867.293,3.188,3.188,0,0,0-.754.773,5.549,5.549,0,0,0-.594,1.1,7.5,7.5,0,0,0-.395,1.266L110.477,17H109.2l1.125-5.312q.07-.328.141-.687t.129-.719q.059-.359.105-.687t.07-.594h1.266q-.023.234-.055.5t-.062.508q-.031.246-.062.445t-.047.309h.031a8.623,8.623,0,0,1,.508-.8,3.718,3.718,0,0,1,.543-.613,2.3,2.3,0,0,1,.605-.395,1.71,1.71,0,0,1,.7-.141,2.206,2.206,0,0,1,.434.043q.215.043.387.09Zm7.648,1.6a6.659,6.659,0,0,1-.3,2.016,5.154,5.154,0,0,1-.867,1.668,4.19,4.19,0,0,1-1.375,1.133,3.914,3.914,0,0,1-1.824.418,3.33,3.33,0,0,1-1.238-.219,2.576,2.576,0,0,1-.937-.629,2.786,2.786,0,0,1-.594-.992,3.912,3.912,0,0,1-.207-1.316,6.519,6.519,0,0,1,.316-2.059,5.2,5.2,0,0,1,.891-1.664,4.161,4.161,0,0,1,1.375-1.109,3.885,3.885,0,0,1,1.77-.4,3.308,3.308,0,0,1,1.23.219,2.614,2.614,0,0,1,.941.629,2.848,2.848,0,0,1,.605.992A3.783,3.783,0,0,1,122.43,11.961Zm-1.312.063a2.987,2.987,0,0,0-.125-.9,1.92,1.92,0,0,0-.352-.664,1.525,1.525,0,0,0-.547-.414,1.729,1.729,0,0,0-.719-.145,2.272,2.272,0,0,0-1.242.352,3.143,3.143,0,0,0-.937.926,4.591,4.591,0,0,0-.59,1.3,5.46,5.46,0,0,0-.207,1.5,2.988,2.988,0,0,0,.121.879,2,2,0,0,0,.344.672,1.484,1.484,0,0,0,.547.426,1.735,1.735,0,0,0,.73.148,2.3,2.3,0,0,0,1.25-.348,3.1,3.1,0,0,0,.938-.922,4.505,4.505,0,0,0,.586-1.309A5.6,5.6,0,0,0,121.117,12.023Zm14.836-1.008a2.6,2.6,0,0,1-.027.309q-.027.207-.07.441t-.086.465q-.043.23-.074.387L134.75,17h-1.281l.977-4.687q.031-.133.063-.3t.059-.324q.027-.16.043-.3a2.008,2.008,0,0,0,.016-.215,1.487,1.487,0,0,0-.266-.949,1,1,0,0,0-.828-.332,1.542,1.542,0,0,0-.613.137,2.836,2.836,0,0,0-.617.371,4.353,4.353,0,0,0-.578.547,5.567,5.567,0,0,0-.508.668,5.2,5.2,0,0,0-.395.727,3.809,3.809,0,0,0-.242.73L129.742,17h-1.3l.992-4.687q.031-.133.063-.3t.059-.324q.027-.16.043-.3a2.008,2.008,0,0,0,.016-.215,1.457,1.457,0,0,0-.273-.949,1,1,0,0,0-.82-.332,1.586,1.586,0,0,0-.625.137,2.8,2.8,0,0,0-.625.375,4.293,4.293,0,0,0-.582.555,5.826,5.826,0,0,0-.508.672,4.916,4.916,0,0,0-.391.727,3.977,3.977,0,0,0-.238.73L124.719,17h-1.3l1.234-5.711q.062-.3.125-.637t.117-.641q.055-.309.094-.574T125.055,9h1.25q-.039.3-.094.637t-.094.613q-.047.328-.1.641h.031a6.756,6.756,0,0,1,.609-.836,4.457,4.457,0,0,1,.7-.66,3.219,3.219,0,0,1,.766-.434,2.411,2.411,0,0,1,1.688-.008,1.6,1.6,0,0,1,.6.418,1.827,1.827,0,0,1,.363.652,3.264,3.264,0,0,1,.148.852,7.558,7.558,0,0,1,.621-.816,4.41,4.41,0,0,1,.711-.656,3.362,3.362,0,0,1,.8-.437,2.542,2.542,0,0,1,.9-.16,1.869,1.869,0,0,1,1.5.582A2.423,2.423,0,0,1,135.953,11.016Zm8.3-.141a2.381,2.381,0,0,1-.281,1.152,2.331,2.331,0,0,1-.93.891,5.584,5.584,0,0,1-1.711.574,14.678,14.678,0,0,1-2.625.211,1,1,0,0,0-.016.18v.156a2.657,2.657,0,0,0,.117.8,1.8,1.8,0,0,0,.363.656,1.714,1.714,0,0,0,.633.445,2.341,2.341,0,0,0,.918.164,3.9,3.9,0,0,0,1.184-.207,5.087,5.087,0,0,0,1.23-.59l-.242,1.266a5.078,5.078,0,0,1-1.023.438,4.4,4.4,0,0,1-1.328.188,3.609,3.609,0,0,1-1.488-.273,2.621,2.621,0,0,1-.977-.73,2.848,2.848,0,0,1-.535-1.055,4.716,4.716,0,0,1-.164-1.254,5.8,5.8,0,0,1,.156-1.355,5.519,5.519,0,0,1,.441-1.215,5.149,5.149,0,0,1,.684-1.027,4.443,4.443,0,0,1,.883-.793,4.092,4.092,0,0,1,1.039-.508,3.7,3.7,0,0,1,1.148-.18,3.319,3.319,0,0,1,1.09.164,2.277,2.277,0,0,1,.789.449,1.915,1.915,0,0,1,.48.66A1.966,1.966,0,0,1,144.25,10.875Zm-1.3.063a.9.9,0,0,0-.363-.766,1.565,1.565,0,0,0-.965-.273,2.163,2.163,0,0,0-.922.207,2.984,2.984,0,0,0-.82.57,3.56,3.56,0,0,0-.648.867,4.038,4.038,0,0,0-.4,1.09,13.5,13.5,0,0,0,1.9-.113A4.925,4.925,0,0,0,142,12.188a1.712,1.712,0,0,0,.719-.535A1.2,1.2,0,0,0,142.945,10.938Zm8.648,3.6q-.055.25-.105.6t-.09.707q-.039.355-.066.668T151.3,17h-1.328q0-.133.02-.355t.047-.465q.027-.242.059-.465t.055-.363h-.031a7.891,7.891,0,0,1-.562.8,3.256,3.256,0,0,1-.594.578,2.385,2.385,0,0,1-.664.348,2.434,2.434,0,0,1-.773.117,2.39,2.39,0,0,1-.984-.2,2.006,2.006,0,0,1-.746-.574,2.646,2.646,0,0,1-.473-.937,4.57,4.57,0,0,1-.164-1.285,6.324,6.324,0,0,1,.121-1.2,6.162,6.162,0,0,1,.375-1.227,5.748,5.748,0,0,1,.645-1.141,4.367,4.367,0,0,1,2.164-1.59,4.775,4.775,0,0,1,1.555-.238,5.273,5.273,0,0,1,.813.059q.375.059.648.121l.813-3.828h1.266Zm-.336-4.453a5.033,5.033,0,0,0-.621-.137,4.471,4.471,0,0,0-.691-.051,3.17,3.17,0,0,0-1.2.211,3.024,3.024,0,0,0-.906.563,3.367,3.367,0,0,0-.648.8,5.045,5.045,0,0,0-.422.922,5.248,5.248,0,0,0-.227.93,5.786,5.786,0,0,0-.066.824,3.949,3.949,0,0,0,.074.8,1.779,1.779,0,0,0,.242.617,1.157,1.157,0,0,0,.434.4,1.353,1.353,0,0,0,.641.141,1.658,1.658,0,0,0,.73-.164,2.516,2.516,0,0,0,.637-.445,3.676,3.676,0,0,0,.539-.648,6.291,6.291,0,0,0,.438-.781,6.943,6.943,0,0,0,.332-.84q.137-.426.223-.816Zm5.219,6.883a2.994,2.994,0,0,1-.441.1,3.111,3.111,0,0,1-.488.039,1.594,1.594,0,0,1-1.18-.395,1.439,1.439,0,0,1-.391-1.059,3.227,3.227,0,0,1,.039-.461q.039-.266.125-.656L155.3,9h1.3l-1.172,5.57q-.07.328-.1.508a2.078,2.078,0,0,0-.027.3.644.644,0,0,0,.176.488.787.787,0,0,0,.559.168,2.366,2.366,0,0,0,.355-.023,1.575,1.575,0,0,0,.285-.07Zm.914-10.82a.841.841,0,0,1-.238.6.782.782,0,0,1-.59.25.831.831,0,0,1-.6-.246.81.81,0,0,1-.254-.605.749.749,0,0,1,.254-.586.869.869,0,0,1,.6-.227.819.819,0,0,1,.586.23A.769.769,0,0,1,157.391,6.148Zm7.93,5.813a6.659,6.659,0,0,1-.3,2.016,5.153,5.153,0,0,1-.867,1.668,4.19,4.19,0,0,1-1.375,1.133,3.914,3.914,0,0,1-1.824.418,3.33,3.33,0,0,1-1.238-.219,2.576,2.576,0,0,1-.937-.629,2.786,2.786,0,0,1-.594-.992,3.912,3.912,0,0,1-.207-1.316,6.519,6.519,0,0,1,.316-2.059,5.2,5.2,0,0,1,.891-1.664,4.161,4.161,0,0,1,1.375-1.109,3.885,3.885,0,0,1,1.77-.4,3.308,3.308,0,0,1,1.23.219,2.614,2.614,0,0,1,.941.629,2.848,2.848,0,0,1,.605.992A3.783,3.783,0,0,1,165.32,11.961Zm-1.312.063a2.987,2.987,0,0,0-.125-.9,1.919,1.919,0,0,0-.352-.664,1.525,1.525,0,0,0-.547-.414,1.729,1.729,0,0,0-.719-.145,2.272,2.272,0,0,0-1.242.352,3.143,3.143,0,0,0-.937.926,4.591,4.591,0,0,0-.59,1.3,5.46,5.46,0,0,0-.207,1.5,2.988,2.988,0,0,0,.121.879,2,2,0,0,0,.344.672,1.484,1.484,0,0,0,.547.426,1.735,1.735,0,0,0,.73.148,2.3,2.3,0,0,0,1.25-.348,3.1,3.1,0,0,0,.938-.922,4.506,4.506,0,0,0,.586-1.309A5.6,5.6,0,0,0,164.008,12.023Zm13.359,2.516q-.055.25-.105.6t-.09.707q-.039.355-.066.668t-.027.484H175.75q0-.133.02-.355t.047-.465q.027-.242.059-.465t.055-.363H175.9a7.891,7.891,0,0,1-.562.8,3.256,3.256,0,0,1-.594.578,2.385,2.385,0,0,1-.664.348,2.434,2.434,0,0,1-.773.117,2.39,2.39,0,0,1-.984-.2,2.006,2.006,0,0,1-.746-.574,2.646,2.646,0,0,1-.473-.937,4.57,4.57,0,0,1-.164-1.285,6.324,6.324,0,0,1,.121-1.2,6.162,6.162,0,0,1,.375-1.227,5.748,5.748,0,0,1,.645-1.141,4.367,4.367,0,0,1,2.164-1.59A4.775,4.775,0,0,1,175.8,8.8a5.273,5.273,0,0,1,.813.059q.375.059.648.121l.813-3.828h1.266Zm-.336-4.453a5.033,5.033,0,0,0-.621-.137,4.471,4.471,0,0,0-.691-.051,3.17,3.17,0,0,0-1.2.211,3.024,3.024,0,0,0-.906.563,3.367,3.367,0,0,0-.648.8,5.045,5.045,0,0,0-.422.922,5.248,5.248,0,0,0-.227.93,5.786,5.786,0,0,0-.066.824,3.949,3.949,0,0,0,.074.8,1.779,1.779,0,0,0,.242.617,1.157,1.157,0,0,0,.434.4,1.353,1.353,0,0,0,.641.141,1.658,1.658,0,0,0,.73-.164,2.516,2.516,0,0,0,.637-.445,3.676,3.676,0,0,0,.539-.648,6.291,6.291,0,0,0,.438-.781,6.943,6.943,0,0,0,.332-.84q.137-.426.223-.816Zm9.453.789a2.381,2.381,0,0,1-.281,1.152,2.331,2.331,0,0,1-.93.891,5.584,5.584,0,0,1-1.711.574,14.678,14.678,0,0,1-2.625.211,1,1,0,0,0-.016.18v.156a2.657,2.657,0,0,0,.117.8,1.8,1.8,0,0,0,.363.656,1.714,1.714,0,0,0,.633.445,2.341,2.341,0,0,0,.918.164,3.9,3.9,0,0,0,1.184-.207,5.087,5.087,0,0,0,1.23-.59l-.242,1.266a5.078,5.078,0,0,1-1.023.438,4.4,4.4,0,0,1-1.328.188,3.609,3.609,0,0,1-1.488-.273,2.621,2.621,0,0,1-.977-.73,2.848,2.848,0,0,1-.535-1.055,4.716,4.716,0,0,1-.164-1.254,5.8,5.8,0,0,1,.156-1.355,5.519,5.519,0,0,1,.441-1.215,5.149,5.149,0,0,1,.684-1.027,4.443,4.443,0,0,1,.883-.793,4.092,4.092,0,0,1,1.039-.508,3.7,3.7,0,0,1,1.148-.18,3.319,3.319,0,0,1,1.09.164,2.277,2.277,0,0,1,.789.449,1.915,1.915,0,0,1,.48.66A1.966,1.966,0,0,1,186.484,10.875Zm-1.3.063a.9.9,0,0,0-.363-.766,1.565,1.565,0,0,0-.965-.273,2.163,2.163,0,0,0-.922.207,2.984,2.984,0,0,0-.82.57,3.56,3.56,0,0,0-.648.867,4.038,4.038,0,0,0-.4,1.09,13.5,13.5,0,0,0,1.9-.113,4.925,4.925,0,0,0,1.273-.332,1.712,1.712,0,0,0,.719-.535A1.2,1.2,0,0,0,185.18,10.938Zm12.758-.352a2.941,2.941,0,0,0-.793-.488,2.582,2.582,0,0,0-1.027-.2,2.427,2.427,0,0,0-.973.188,2.684,2.684,0,0,0-.77.5,3.244,3.244,0,0,0-.578.719,4.793,4.793,0,0,0-.4.844,5.193,5.193,0,0,0-.23.871,4.809,4.809,0,0,0-.074.809,2.552,2.552,0,0,0,.492,1.7,1.672,1.672,0,0,0,1.344.578,2.957,2.957,0,0,0,1.07-.215,5.151,5.151,0,0,0,1.047-.551l-.273,1.281a5.483,5.483,0,0,1-1.012.426,3.666,3.666,0,0,1-1.066.152,3.029,3.029,0,0,1-1.277-.25,2.5,2.5,0,0,1-.9-.687,2.946,2.946,0,0,1-.539-1.035,4.472,4.472,0,0,1-.18-1.293,6.315,6.315,0,0,1,.133-1.293,5.569,5.569,0,0,1,.395-1.2,5.219,5.219,0,0,1,.645-1.051A4.107,4.107,0,0,1,194.953,9a4.451,4.451,0,0,1,1.961-.152,3.8,3.8,0,0,1,.555.125,3.736,3.736,0,0,1,.445.168,1.829,1.829,0,0,1,.313.176Zm8.18,1.375a6.659,6.659,0,0,1-.3,2.016,5.153,5.153,0,0,1-.867,1.668,4.19,4.19,0,0,1-1.375,1.133,3.914,3.914,0,0,1-1.824.418,3.33,3.33,0,0,1-1.238-.219,2.576,2.576,0,0,1-.937-.629,2.786,2.786,0,0,1-.594-.992,3.912,3.912,0,0,1-.207-1.316,6.519,6.519,0,0,1,.316-2.059,5.2,5.2,0,0,1,.891-1.664,4.161,4.161,0,0,1,1.375-1.109,3.885,3.885,0,0,1,1.77-.4,3.308,3.308,0,0,1,1.23.219,2.614,2.614,0,0,1,.941.629,2.848,2.848,0,0,1,.605.992A3.783,3.783,0,0,1,206.117,11.961Zm-1.312.063a2.987,2.987,0,0,0-.125-.9,1.919,1.919,0,0,0-.352-.664,1.525,1.525,0,0,0-.547-.414,1.729,1.729,0,0,0-.719-.145,2.272,2.272,0,0,0-1.242.352,3.143,3.143,0,0,0-.937.926,4.591,4.591,0,0,0-.59,1.3,5.46,5.46,0,0,0-.207,1.5,2.988,2.988,0,0,0,.121.879,2,2,0,0,0,.344.672,1.484,1.484,0,0,0,.547.426,1.735,1.735,0,0,0,.73.148,2.3,2.3,0,0,0,1.25-.348,3.1,3.1,0,0,0,.938-.922,4.506,4.506,0,0,0,.586-1.309A5.6,5.6,0,0,0,204.8,12.023Zm9.984-.227a6.411,6.411,0,0,1-.109,1.137,6.074,6.074,0,0,1-.352,1.2,6.236,6.236,0,0,1-.617,1.152,4.4,4.4,0,0,1-.9.977,4.314,4.314,0,0,1-1.219.676,4.523,4.523,0,0,1-1.566.254,5.644,5.644,0,0,1-.742-.051,6.466,6.466,0,0,1-.75-.145,5.839,5.839,0,0,1-.7-.227,3.7,3.7,0,0,1-.609-.3l2.406-11.312h1.3l-.8,3.828q-.086.383-.176.8t-.176.75h.016a5.587,5.587,0,0,1,.531-.719,3.4,3.4,0,0,1,.605-.547,2.635,2.635,0,0,1,.7-.348,2.593,2.593,0,0,1,.809-.121,2.1,2.1,0,0,1,1.754.781A3.507,3.507,0,0,1,214.789,11.8Zm-1.312.031a3.625,3.625,0,0,0-.082-.8,1.71,1.71,0,0,0-.258-.609,1.161,1.161,0,0,0-.449-.383,1.51,1.51,0,0,0-.664-.133,1.732,1.732,0,0,0-.945.289,3.356,3.356,0,0,0-.828.766,5.242,5.242,0,0,0-.648,1.078,5.621,5.621,0,0,0-.4,1.227l-.523,2.492a2.764,2.764,0,0,0,.668.25,3.386,3.386,0,0,0,.832.1,2.721,2.721,0,0,0,1.016-.184,2.859,2.859,0,0,0,.828-.5,3.517,3.517,0,0,0,.641-.742,4.73,4.73,0,0,0,.453-.895,5.417,5.417,0,0,0,.27-.977A5.541,5.541,0,0,0,213.477,11.828Zm7.906-1.469h-.031a2.307,2.307,0,0,0-.41-.184,1.5,1.5,0,0,0-.5-.09,1.479,1.479,0,0,0-.867.293,3.188,3.188,0,0,0-.754.773,5.549,5.549,0,0,0-.594,1.1,7.5,7.5,0,0,0-.395,1.266L217.078,17H215.8l1.125-5.312q.07-.328.141-.687t.129-.719q.059-.359.105-.687t.07-.594h1.266q-.023.234-.055.5t-.062.508q-.031.246-.062.445t-.047.309h.031a8.624,8.624,0,0,1,.508-.8,3.717,3.717,0,0,1,.543-.613,2.3,2.3,0,0,1,.605-.395,1.71,1.71,0,0,1,.7-.141,2.206,2.206,0,0,1,.434.043q.215.043.387.09Zm7.648,1.6a6.659,6.659,0,0,1-.3,2.016,5.153,5.153,0,0,1-.867,1.668,4.19,4.19,0,0,1-1.375,1.133,3.914,3.914,0,0,1-1.824.418,3.33,3.33,0,0,1-1.238-.219,2.576,2.576,0,0,1-.937-.629,2.786,2.786,0,0,1-.594-.992,3.912,3.912,0,0,1-.207-1.316A6.519,6.519,0,0,1,222,11.98a5.2,5.2,0,0,1,.891-1.664,4.161,4.161,0,0,1,1.375-1.109,3.885,3.885,0,0,1,1.77-.4,3.308,3.308,0,0,1,1.23.219,2.614,2.614,0,0,1,.941.629,2.848,2.848,0,0,1,.605.992A3.783,3.783,0,0,1,229.031,11.961Zm-1.312.063a2.987,2.987,0,0,0-.125-.9,1.919,1.919,0,0,0-.352-.664,1.525,1.525,0,0,0-.547-.414,1.729,1.729,0,0,0-.719-.145,2.272,2.272,0,0,0-1.242.352,3.143,3.143,0,0,0-.937.926,4.591,4.591,0,0,0-.59,1.3,5.46,5.46,0,0,0-.207,1.5,2.988,2.988,0,0,0,.121.879,2,2,0,0,0,.344.672,1.484,1.484,0,0,0,.547.426,1.735,1.735,0,0,0,.73.148,2.3,2.3,0,0,0,1.25-.348,3.1,3.1,0,0,0,.938-.922,4.506,4.506,0,0,0,.586-1.309A5.6,5.6,0,0,0,227.719,12.023Zm8.32-.828V10.148h7.344V11.2Zm0,3.328V13.477h7.344v1.047Z" transform="translate(0 12)" fill="#12263f"/>
        <path id="Trazado_908180" data-name="Trazado 908180" d="M27.672,8.117A3.281,3.281,0,0,1,27.5,9.184a2.6,2.6,0,0,1-.539.91,3.244,3.244,0,0,1-.937.7,4.822,4.822,0,0,1-1.359.434v.031a2.607,2.607,0,0,1,.859.281,2.319,2.319,0,0,1,1.1,1.266,2.582,2.582,0,0,1,.152.9,3.527,3.527,0,0,1-.258,1.344,3.015,3.015,0,0,1-.785,1.109,3.872,3.872,0,0,1-1.32.758,5.576,5.576,0,0,1-1.863.281,6.015,6.015,0,0,1-.844-.059,7.785,7.785,0,0,1-.777-.148,6.172,6.172,0,0,1-.668-.2,4.266,4.266,0,0,1-.523-.23l.273-1.219a4.154,4.154,0,0,0,.5.281,4.637,4.637,0,0,0,.633.246,5.908,5.908,0,0,0,.711.172,4.184,4.184,0,0,0,.738.066,4.1,4.1,0,0,0,1.375-.2,2.46,2.46,0,0,0,.891-.523,1.836,1.836,0,0,0,.477-.742,2.666,2.666,0,0,0,.141-.855,1.777,1.777,0,0,0-.687-1.473,3.319,3.319,0,0,0-2.078-.543h-.852l.242-1.1h.93a5.638,5.638,0,0,0,1.434-.164,3.181,3.181,0,0,0,1.043-.465,1.979,1.979,0,0,0,.637-.73,2.119,2.119,0,0,0,.215-.961,1.849,1.849,0,0,0-.109-.637,1.369,1.369,0,0,0-.34-.523,1.685,1.685,0,0,0-.578-.355A2.333,2.333,0,0,0,24.5,6.7a4.781,4.781,0,0,0-.762.059,5.619,5.619,0,0,0-.684.152,5.346,5.346,0,0,0-1.078.445l.266-1.281q.2-.078.453-.16a5.633,5.633,0,0,1,.555-.148q.3-.066.672-.109a6.952,6.952,0,0,1,.8-.043,3.668,3.668,0,0,1,1.344.219,2.675,2.675,0,0,1,.914.574,2.171,2.171,0,0,1,.523.8A2.635,2.635,0,0,1,27.672,8.117Zm8.859-.977a3.482,3.482,0,0,0-.789-.316,3.7,3.7,0,0,0-1-.129,3.229,3.229,0,0,0-1.2.227,3.742,3.742,0,0,0-1.055.641,4.337,4.337,0,0,0-.734.785,7.051,7.051,0,0,0-.605.988,8.463,8.463,0,0,0-.465,1.105,8.667,8.667,0,0,0-.3,1.137h.031a3.29,3.29,0,0,1,.492-.625,3.38,3.38,0,0,1,.645-.5,3.22,3.22,0,0,1,.773-.336,3.369,3.369,0,0,1,2.09.1,2.361,2.361,0,0,1,.875.617,2.659,2.659,0,0,1,.531.953,3.991,3.991,0,0,1,.18,1.234,4.882,4.882,0,0,1-.246,1.531,4.148,4.148,0,0,1-.727,1.34,3.647,3.647,0,0,1-1.184.949,3.487,3.487,0,0,1-1.609.359,3.444,3.444,0,0,1-1.312-.242,2.66,2.66,0,0,1-1.02-.734,3.446,3.446,0,0,1-.66-1.234A5.8,5.8,0,0,1,29,13.242a9.995,9.995,0,0,1,.191-1.965,9.442,9.442,0,0,1,.547-1.8A7.994,7.994,0,0,1,30.6,7.918a5.857,5.857,0,0,1,1.137-1.207,4.953,4.953,0,0,1,1.527-.832,5.193,5.193,0,0,1,1.637-.27A5.33,5.33,0,0,1,36,5.715a5.6,5.6,0,0,1,.785.215ZM34.68,13.125a2.73,2.73,0,0,0-.113-.8,1.772,1.772,0,0,0-.348-.645,1.6,1.6,0,0,0-.6-.43,2.226,2.226,0,0,0-.875-.156,2.273,2.273,0,0,0-1.812.82,2.584,2.584,0,0,0-.461.828,2.879,2.879,0,0,0-.156.93,3.352,3.352,0,0,0,.141,1,2.271,2.271,0,0,0,.4.766,1.749,1.749,0,0,0,.629.488,1.957,1.957,0,0,0,.832.172,1.977,1.977,0,0,0,1-.254,2.366,2.366,0,0,0,.742-.668,3.117,3.117,0,0,0,.461-.953A3.848,3.848,0,0,0,34.68,13.125ZM44.938,6.969H40.727l-.687,3.266.828-.031a3.568,3.568,0,0,1,2.438.77,2.735,2.735,0,0,1,.875,2.168,4.074,4.074,0,0,1-.57,2.133,3.629,3.629,0,0,1-1.582,1.438,5.4,5.4,0,0,1-2.355.484,8.377,8.377,0,0,1-1.387-.117,4.335,4.335,0,0,1-1.1-.3l.289-1.258a3.418,3.418,0,0,0,1.031.422,5.058,5.058,0,0,0,1.258.164,3.605,3.605,0,0,0,1.672-.355A2.581,2.581,0,0,0,42.5,14.77a2.681,2.681,0,0,0,.371-1.4A1.977,1.977,0,0,0,42.3,11.84a2.581,2.581,0,0,0-1.789-.52q-1.086,0-1.945.078l1.18-5.6h5.422Zm11.836,7.57q-.055.25-.105.6t-.09.707q-.039.355-.066.668T56.484,17H55.156q0-.133.02-.355t.047-.465q.027-.242.059-.465t.055-.363H55.3a7.891,7.891,0,0,1-.562.8,3.256,3.256,0,0,1-.594.578,2.386,2.386,0,0,1-.664.348,2.434,2.434,0,0,1-.773.117,2.39,2.39,0,0,1-.984-.2,2.006,2.006,0,0,1-.746-.574,2.646,2.646,0,0,1-.473-.937,4.57,4.57,0,0,1-.164-1.285,6.325,6.325,0,0,1,.121-1.2,6.161,6.161,0,0,1,.375-1.227,5.748,5.748,0,0,1,.645-1.141,4.367,4.367,0,0,1,2.164-1.59A4.775,4.775,0,0,1,55.2,8.8a5.273,5.273,0,0,1,.813.059q.375.059.648.121l.813-3.828h1.266Zm-.336-4.453a5.033,5.033,0,0,0-.621-.137,4.471,4.471,0,0,0-.691-.051,3.17,3.17,0,0,0-1.2.211,3.024,3.024,0,0,0-.906.563,3.367,3.367,0,0,0-.648.8,5.045,5.045,0,0,0-.422.922,5.248,5.248,0,0,0-.227.93,5.785,5.785,0,0,0-.066.824,3.949,3.949,0,0,0,.074.8,1.779,1.779,0,0,0,.242.617,1.157,1.157,0,0,0,.434.4,1.353,1.353,0,0,0,.641.141,1.658,1.658,0,0,0,.73-.164,2.516,2.516,0,0,0,.637-.445,3.676,3.676,0,0,0,.539-.648,6.291,6.291,0,0,0,.438-.781,6.943,6.943,0,0,0,.332-.84q.137-.426.223-.816Zm5.219,6.883a2.994,2.994,0,0,1-.441.1,3.111,3.111,0,0,1-.488.039,1.594,1.594,0,0,1-1.18-.395,1.439,1.439,0,0,1-.391-1.059A3.227,3.227,0,0,1,59.2,15.2q.039-.266.125-.656L60.484,9h1.3l-1.172,5.57q-.07.328-.1.508a2.078,2.078,0,0,0-.027.3.644.644,0,0,0,.176.488.787.787,0,0,0,.559.168,2.366,2.366,0,0,0,.355-.023,1.575,1.575,0,0,0,.285-.07Zm-.633-9.492h-.961L62.32,4.922h1.258Zm8.594,6.961q-.062.3-.121.668t-.1.734q-.043.363-.07.676T69.3,17H67.969q.008-.156.023-.375t.043-.453q.027-.234.055-.461t.059-.391h-.031q-.242.383-.492.723a3.478,3.478,0,0,1-.555.6,2.429,2.429,0,0,1-.68.406,2.612,2.612,0,0,1-1.84-.039,2.006,2.006,0,0,1-.746-.559,2.574,2.574,0,0,1-.48-.93,4.532,4.532,0,0,1-.168-1.3,6.518,6.518,0,0,1,.094-1.031,6.309,6.309,0,0,1,.316-1.18,6.007,6.007,0,0,1,.594-1.176A4.465,4.465,0,0,1,65.082,9.8a4.4,4.4,0,0,1,1.3-.727A5.051,5.051,0,0,1,68.117,8.8a9.22,9.22,0,0,1,1.289.094q.664.094,1.32.227Zm-.367-4.383q-.273-.062-.641-.109a5.447,5.447,0,0,0-.687-.047,3.119,3.119,0,0,0-1.2.215,3.077,3.077,0,0,0-.9.563,3.312,3.312,0,0,0-.645.8,4.965,4.965,0,0,0-.418.926,5.449,5.449,0,0,0-.223.934,5.91,5.91,0,0,0-.066.836,3.744,3.744,0,0,0,.078.8,1.749,1.749,0,0,0,.246.605,1.156,1.156,0,0,0,.43.387,1.325,1.325,0,0,0,.621.137,1.692,1.692,0,0,0,.73-.16,2.532,2.532,0,0,0,.637-.434,3.56,3.56,0,0,0,.539-.633,6.225,6.225,0,0,0,.438-.762,6.515,6.515,0,0,0,.332-.82q.137-.418.223-.809Zm7.633.352a3.33,3.33,0,0,0-.789-.367,2.845,2.845,0,0,0-.875-.141,1.726,1.726,0,0,0-1.137.336,1.1,1.1,0,0,0-.4.891,1.116,1.116,0,0,0,.074.414,1.25,1.25,0,0,0,.219.355,1.985,1.985,0,0,0,.367.324q.223.156.512.336A4.028,4.028,0,0,1,76.113,13.6,2.01,2.01,0,0,1,76.5,14.8a2.435,2.435,0,0,1-.168.887,2,2,0,0,1-.535.766,2.744,2.744,0,0,1-.949.535,4.331,4.331,0,0,1-1.418.2,4.7,4.7,0,0,1-.516-.031,5.462,5.462,0,0,1-.566-.094,4.941,4.941,0,0,1-.547-.152,2.407,2.407,0,0,1-.457-.207l.258-1.219a2.691,2.691,0,0,0,.387.219,4,4,0,0,0,.5.2,4.673,4.673,0,0,0,.563.141,3.166,3.166,0,0,0,.582.055,1.834,1.834,0,0,0,1.168-.312,1.053,1.053,0,0,0,.387-.867,1.155,1.155,0,0,0-.059-.375,1.052,1.052,0,0,0-.207-.344,2.3,2.3,0,0,0-.391-.348q-.242-.176-.609-.395a3.947,3.947,0,0,1-1.176-1.012,1.992,1.992,0,0,1-.379-1.191,2.432,2.432,0,0,1,.18-.926,2.24,2.24,0,0,1,.535-.781,2.6,2.6,0,0,1,.895-.543,3.559,3.559,0,0,1,1.258-.2,5.018,5.018,0,0,1,1.066.109,3.786,3.786,0,0,1,.855.281ZM21.844,31.141a3.482,3.482,0,0,0-.789-.316,3.7,3.7,0,0,0-1-.129,3.229,3.229,0,0,0-1.2.227,3.742,3.742,0,0,0-1.055.641,4.337,4.337,0,0,0-.734.785,7.051,7.051,0,0,0-.605.988,8.463,8.463,0,0,0-.465,1.105,8.667,8.667,0,0,0-.3,1.137h.031a3.29,3.29,0,0,1,.492-.625,3.38,3.38,0,0,1,.645-.5,3.22,3.22,0,0,1,.773-.336,3.369,3.369,0,0,1,2.09.1,2.361,2.361,0,0,1,.875.617,2.659,2.659,0,0,1,.531.953,3.991,3.991,0,0,1,.18,1.234,4.882,4.882,0,0,1-.246,1.531,4.148,4.148,0,0,1-.727,1.34,3.646,3.646,0,0,1-1.184.949,3.487,3.487,0,0,1-1.609.359,3.444,3.444,0,0,1-1.312-.242,2.66,2.66,0,0,1-1.02-.734,3.446,3.446,0,0,1-.66-1.234,5.8,5.8,0,0,1-.234-1.742,9.995,9.995,0,0,1,.191-1.965,9.442,9.442,0,0,1,.547-1.8,7.994,7.994,0,0,1,.859-1.555,5.857,5.857,0,0,1,1.137-1.207,4.953,4.953,0,0,1,1.527-.832,5.193,5.193,0,0,1,1.637-.27,5.33,5.33,0,0,1,1.105.105,5.6,5.6,0,0,1,.785.215Zm-1.852,5.984a2.73,2.73,0,0,0-.113-.8,1.772,1.772,0,0,0-.348-.645,1.6,1.6,0,0,0-.6-.43,2.226,2.226,0,0,0-.875-.156,2.273,2.273,0,0,0-1.812.82,2.584,2.584,0,0,0-.461.828,2.879,2.879,0,0,0-.156.93,3.352,3.352,0,0,0,.141,1,2.271,2.271,0,0,0,.4.766,1.749,1.749,0,0,0,.629.488,1.957,1.957,0,0,0,.832.172,1.977,1.977,0,0,0,1-.254,2.366,2.366,0,0,0,.742-.668,3.117,3.117,0,0,0,.461-.953A3.848,3.848,0,0,0,19.992,37.125Zm2.43,5.938H21.414l1.57-3.836h1.281ZM32.578,32.281a1.517,1.517,0,0,0-.449-1.168,1.759,1.759,0,0,0-1.246-.418,3.922,3.922,0,0,0-1.523.32,4.92,4.92,0,0,0-1.43.93l.32-1.437a4.15,4.15,0,0,1,1.355-.7,5.811,5.811,0,0,1,1.59-.2,2.888,2.888,0,0,1,1.992.66,2.26,2.26,0,0,1,.742,1.777,4.059,4.059,0,0,1-.324,1.676,4.455,4.455,0,0,1-1.035,1.395,13.8,13.8,0,0,1-2.078,1.531q-1.242.773-1.887,1.273a5.032,5.032,0,0,0-.957.922,2.657,2.657,0,0,0-.445,1.008h5.531L32.492,41H25.578l.117-.555A5.4,5.4,0,0,1,26.3,38.82,5.57,5.57,0,0,1,27.43,37.5a19.257,19.257,0,0,1,2.242-1.609,13.31,13.31,0,0,0,1.723-1.25,4.048,4.048,0,0,0,.9-1.086A2.688,2.688,0,0,0,32.578,32.281Zm9.766-.164a3.281,3.281,0,0,1-.172,1.066,2.6,2.6,0,0,1-.539.91,3.244,3.244,0,0,1-.937.7,4.822,4.822,0,0,1-1.359.434v.031a2.607,2.607,0,0,1,.859.281,2.319,2.319,0,0,1,1.1,1.266,2.582,2.582,0,0,1,.152.9,3.527,3.527,0,0,1-.258,1.344,3.015,3.015,0,0,1-.785,1.109,3.872,3.872,0,0,1-1.32.758,5.576,5.576,0,0,1-1.863.281,6.015,6.015,0,0,1-.844-.059,7.785,7.785,0,0,1-.777-.148,6.172,6.172,0,0,1-.668-.2,4.266,4.266,0,0,1-.523-.23l.273-1.219a4.154,4.154,0,0,0,.5.281,4.637,4.637,0,0,0,.633.246,5.907,5.907,0,0,0,.711.172,4.184,4.184,0,0,0,.738.066,4.1,4.1,0,0,0,1.375-.2,2.459,2.459,0,0,0,.891-.523,1.836,1.836,0,0,0,.477-.742,2.665,2.665,0,0,0,.141-.855,1.777,1.777,0,0,0-.687-1.473,3.319,3.319,0,0,0-2.078-.543h-.852l.242-1.1h.93a5.638,5.638,0,0,0,1.434-.164,3.181,3.181,0,0,0,1.043-.465,1.979,1.979,0,0,0,.637-.73,2.119,2.119,0,0,0,.215-.961,1.849,1.849,0,0,0-.109-.637,1.369,1.369,0,0,0-.34-.523A1.685,1.685,0,0,0,40,30.828a2.333,2.333,0,0,0-.832-.133,4.781,4.781,0,0,0-.762.059,5.619,5.619,0,0,0-.684.152,5.346,5.346,0,0,0-1.078.445l.266-1.281q.2-.078.453-.16a5.634,5.634,0,0,1,.555-.148q.3-.066.672-.109a6.952,6.952,0,0,1,.8-.043,3.668,3.668,0,0,1,1.344.219,2.675,2.675,0,0,1,.914.574,2.171,2.171,0,0,1,.523.8A2.635,2.635,0,0,1,42.344,32.117ZM50.578,41H49.492l-1.266-8h1.3l.7,5.039q.023.148.043.336t.039.383q.02.2.027.383t.008.336h.031q.063-.141.145-.32t.184-.371q.1-.191.207-.387t.2-.359L53.969,33H55.43Zm11.633-6.125a2.381,2.381,0,0,1-.281,1.152,2.331,2.331,0,0,1-.93.891,5.584,5.584,0,0,1-1.711.574,14.678,14.678,0,0,1-2.625.211,1,1,0,0,0-.016.18v.156a2.657,2.657,0,0,0,.117.8,1.8,1.8,0,0,0,.363.656,1.714,1.714,0,0,0,.633.445,2.341,2.341,0,0,0,.918.164,3.9,3.9,0,0,0,1.184-.207,5.087,5.087,0,0,0,1.23-.59l-.242,1.266a5.078,5.078,0,0,1-1.023.438A4.4,4.4,0,0,1,58.5,41.2a3.609,3.609,0,0,1-1.488-.273,2.621,2.621,0,0,1-.977-.73,2.848,2.848,0,0,1-.535-1.055,4.716,4.716,0,0,1-.164-1.254,5.8,5.8,0,0,1,.156-1.355,5.519,5.519,0,0,1,.441-1.215,5.148,5.148,0,0,1,.684-1.027,4.444,4.444,0,0,1,.883-.793,4.093,4.093,0,0,1,1.039-.508,3.7,3.7,0,0,1,1.148-.18,3.319,3.319,0,0,1,1.09.164,2.277,2.277,0,0,1,.789.449,1.915,1.915,0,0,1,.48.66A1.966,1.966,0,0,1,62.211,34.875Zm-1.3.063a.9.9,0,0,0-.363-.766,1.565,1.565,0,0,0-.965-.273,2.163,2.163,0,0,0-.922.207,2.983,2.983,0,0,0-.82.57,3.56,3.56,0,0,0-.648.867,4.038,4.038,0,0,0-.4,1.09,13.5,13.5,0,0,0,1.9-.113,4.925,4.925,0,0,0,1.273-.332,1.712,1.712,0,0,0,.719-.535A1.2,1.2,0,0,0,60.906,34.938Zm8.359-.352a2.941,2.941,0,0,0-.793-.488,2.582,2.582,0,0,0-1.027-.2,2.427,2.427,0,0,0-.973.188,2.684,2.684,0,0,0-.77.5,3.244,3.244,0,0,0-.578.719,4.792,4.792,0,0,0-.4.844,5.193,5.193,0,0,0-.23.871,4.81,4.81,0,0,0-.074.809,2.552,2.552,0,0,0,.492,1.7,1.672,1.672,0,0,0,1.344.578,2.957,2.957,0,0,0,1.07-.215,5.152,5.152,0,0,0,1.047-.551L68.1,40.617a5.483,5.483,0,0,1-1.012.426,3.666,3.666,0,0,1-1.066.152,3.029,3.029,0,0,1-1.277-.25,2.5,2.5,0,0,1-.9-.687,2.946,2.946,0,0,1-.539-1.035,4.472,4.472,0,0,1-.18-1.293,6.315,6.315,0,0,1,.133-1.293,5.569,5.569,0,0,1,.395-1.2,5.218,5.218,0,0,1,.645-1.051A4.107,4.107,0,0,1,66.281,33a4.451,4.451,0,0,1,1.961-.152,3.8,3.8,0,0,1,.555.125,3.737,3.737,0,0,1,.445.168,1.829,1.829,0,0,1,.313.176Zm7.711.289a2.381,2.381,0,0,1-.281,1.152,2.331,2.331,0,0,1-.93.891,5.584,5.584,0,0,1-1.711.574,14.678,14.678,0,0,1-2.625.211,1,1,0,0,0-.016.18v.156a2.657,2.657,0,0,0,.117.8,1.8,1.8,0,0,0,.363.656,1.714,1.714,0,0,0,.633.445,2.341,2.341,0,0,0,.918.164,3.9,3.9,0,0,0,1.184-.207,5.087,5.087,0,0,0,1.23-.59l-.242,1.266a5.078,5.078,0,0,1-1.023.438,4.4,4.4,0,0,1-1.328.188,3.609,3.609,0,0,1-1.488-.273,2.621,2.621,0,0,1-.977-.73,2.848,2.848,0,0,1-.535-1.055,4.716,4.716,0,0,1-.164-1.254,5.8,5.8,0,0,1,.156-1.355,5.519,5.519,0,0,1,.441-1.215,5.148,5.148,0,0,1,.684-1.027,4.444,4.444,0,0,1,.883-.793,4.093,4.093,0,0,1,1.039-.508,3.7,3.7,0,0,1,1.148-.18,3.319,3.319,0,0,1,1.09.164,2.277,2.277,0,0,1,.789.449,1.915,1.915,0,0,1,.48.66A1.966,1.966,0,0,1,76.977,34.875Zm-1.3.063a.9.9,0,0,0-.363-.766,1.565,1.565,0,0,0-.965-.273,2.163,2.163,0,0,0-.922.207,2.983,2.983,0,0,0-.82.57,3.56,3.56,0,0,0-.648.867,4.038,4.038,0,0,0-.4,1.09,13.5,13.5,0,0,0,1.9-.113,4.925,4.925,0,0,0,1.273-.332,1.712,1.712,0,0,0,.719-.535A1.2,1.2,0,0,0,75.672,34.938Zm7.273-.531a3.33,3.33,0,0,0-.789-.367,2.845,2.845,0,0,0-.875-.141,1.726,1.726,0,0,0-1.137.336,1.1,1.1,0,0,0-.4.891,1.116,1.116,0,0,0,.074.414,1.25,1.25,0,0,0,.219.355,1.985,1.985,0,0,0,.367.324q.223.156.512.336A4.028,4.028,0,0,1,82.176,37.6a2.01,2.01,0,0,1,.387,1.207,2.435,2.435,0,0,1-.168.887,2,2,0,0,1-.535.766,2.744,2.744,0,0,1-.949.535,4.331,4.331,0,0,1-1.418.2,4.7,4.7,0,0,1-.516-.031,5.461,5.461,0,0,1-.566-.094,4.942,4.942,0,0,1-.547-.152,2.407,2.407,0,0,1-.457-.207l.258-1.219a2.691,2.691,0,0,0,.387.219,4,4,0,0,0,.5.2,4.672,4.672,0,0,0,.563.141,3.166,3.166,0,0,0,.582.055,1.834,1.834,0,0,0,1.168-.312,1.053,1.053,0,0,0,.387-.867,1.155,1.155,0,0,0-.059-.375,1.052,1.052,0,0,0-.207-.344,2.3,2.3,0,0,0-.391-.348q-.242-.176-.609-.395a3.947,3.947,0,0,1-1.176-1.012,1.992,1.992,0,0,1-.379-1.191,2.432,2.432,0,0,1,.18-.926,2.24,2.24,0,0,1,.535-.781,2.6,2.6,0,0,1,.895-.543,3.559,3.559,0,0,1,1.258-.2,5.018,5.018,0,0,1,1.066.109,3.786,3.786,0,0,1,.855.281Z" transform="translate(255.467)" fill="#12263f"/>
        <line id="Línea_575" data-name="Línea 575" x2="97.533" transform="translate(249.967 21.5)" fill="none" stroke="#12263f" stroke-width="1"/>
      </g>
    </g>
    <path id="Trazado_908181" data-name="Trazado 908181" d="M40.32,8.742a4.3,4.3,0,0,1-.281,1.559,3.463,3.463,0,0,1-.855,1.277,4.07,4.07,0,0,1-1.457.863,6.161,6.161,0,0,1-2.078.316h-1.7L33.055,17H31.711L34.078,5.8h2.9a4.264,4.264,0,0,1,1.535.246,2.889,2.889,0,0,1,1.039.656,2.493,2.493,0,0,1,.586.941A3.349,3.349,0,0,1,40.32,8.742Zm-1.383.117a1.986,1.986,0,0,0-.145-.77,1.589,1.589,0,0,0-.426-.594,1.937,1.937,0,0,0-.7-.379,3.189,3.189,0,0,0-.965-.133H35.18L34.2,11.578h1.57a4.37,4.37,0,0,0,1.426-.207,2.71,2.71,0,0,0,.984-.57,2.222,2.222,0,0,0,.57-.859A3.1,3.1,0,0,0,38.938,8.859Zm8.883,2.016a2.381,2.381,0,0,1-.281,1.152,2.331,2.331,0,0,1-.93.891,5.584,5.584,0,0,1-1.711.574,14.678,14.678,0,0,1-2.625.211,1,1,0,0,0-.016.18v.156a2.657,2.657,0,0,0,.117.8,1.8,1.8,0,0,0,.363.656,1.714,1.714,0,0,0,.633.445,2.341,2.341,0,0,0,.918.164,3.9,3.9,0,0,0,1.184-.207,5.087,5.087,0,0,0,1.23-.59l-.242,1.266a5.078,5.078,0,0,1-1.023.438,4.4,4.4,0,0,1-1.328.188,3.609,3.609,0,0,1-1.488-.273,2.621,2.621,0,0,1-.977-.73,2.848,2.848,0,0,1-.535-1.055,4.716,4.716,0,0,1-.164-1.254,5.8,5.8,0,0,1,.156-1.355,5.519,5.519,0,0,1,.441-1.215,5.148,5.148,0,0,1,.684-1.027,4.444,4.444,0,0,1,.883-.793,4.092,4.092,0,0,1,1.039-.508A3.7,3.7,0,0,1,45.3,8.8a3.319,3.319,0,0,1,1.09.164,2.277,2.277,0,0,1,.789.449,1.915,1.915,0,0,1,.48.66A1.966,1.966,0,0,1,47.82,10.875Zm-1.3.063a.9.9,0,0,0-.363-.766,1.565,1.565,0,0,0-.965-.273,2.163,2.163,0,0,0-.922.207,2.984,2.984,0,0,0-.82.57,3.56,3.56,0,0,0-.648.867,4.038,4.038,0,0,0-.4,1.09,13.5,13.5,0,0,0,1.9-.113,4.925,4.925,0,0,0,1.273-.332,1.712,1.712,0,0,0,.719-.535A1.2,1.2,0,0,0,46.516,10.938Zm7.594-.578h-.031a2.307,2.307,0,0,0-.41-.184,1.5,1.5,0,0,0-.5-.09,1.479,1.479,0,0,0-.867.293,3.188,3.188,0,0,0-.754.773,5.549,5.549,0,0,0-.594,1.1,7.5,7.5,0,0,0-.395,1.266L49.8,17H48.523l1.125-5.312q.07-.328.141-.687t.129-.719q.059-.359.105-.687T50.094,9h1.266q-.023.234-.055.5T51.242,10q-.031.246-.062.445t-.047.309h.031a8.623,8.623,0,0,1,.508-.8,3.718,3.718,0,0,1,.543-.613,2.3,2.3,0,0,1,.605-.395,1.71,1.71,0,0,1,.7-.141,2.206,2.206,0,0,1,.434.043q.215.043.387.09Zm2.945,6.609a2.994,2.994,0,0,1-.441.1,3.111,3.111,0,0,1-.488.039,1.594,1.594,0,0,1-1.18-.395,1.439,1.439,0,0,1-.391-1.059,3.227,3.227,0,0,1,.039-.461q.039-.266.125-.656L55.883,9h1.3l-1.172,5.57q-.07.328-.1.508a2.078,2.078,0,0,0-.027.3.644.644,0,0,0,.176.488.787.787,0,0,0,.559.168,2.366,2.366,0,0,0,.355-.023,1.575,1.575,0,0,0,.285-.07Zm-.633-9.492h-.961l2.258-2.555h1.258ZM65.9,11.961a6.659,6.659,0,0,1-.3,2.016,5.154,5.154,0,0,1-.867,1.668,4.19,4.19,0,0,1-1.375,1.133,3.914,3.914,0,0,1-1.824.418,3.33,3.33,0,0,1-1.238-.219,2.576,2.576,0,0,1-.937-.629,2.786,2.786,0,0,1-.594-.992,3.912,3.912,0,0,1-.207-1.316,6.519,6.519,0,0,1,.316-2.059,5.2,5.2,0,0,1,.891-1.664,4.161,4.161,0,0,1,1.375-1.109,3.885,3.885,0,0,1,1.77-.4,3.308,3.308,0,0,1,1.23.219,2.614,2.614,0,0,1,.941.629,2.848,2.848,0,0,1,.605.992A3.783,3.783,0,0,1,65.9,11.961Zm-1.312.063a2.987,2.987,0,0,0-.125-.9,1.92,1.92,0,0,0-.352-.664,1.525,1.525,0,0,0-.547-.414,1.729,1.729,0,0,0-.719-.145,2.272,2.272,0,0,0-1.242.352,3.143,3.143,0,0,0-.937.926,4.591,4.591,0,0,0-.59,1.3,5.46,5.46,0,0,0-.207,1.5,2.988,2.988,0,0,0,.121.879,2,2,0,0,0,.344.672,1.484,1.484,0,0,0,.547.426,1.735,1.735,0,0,0,.73.148,2.3,2.3,0,0,0,1.25-.348,3.1,3.1,0,0,0,.938-.922,4.505,4.505,0,0,0,.586-1.309A5.6,5.6,0,0,0,64.586,12.023Zm8.961,2.516q-.055.25-.105.6t-.09.707q-.039.355-.066.668T73.258,17H71.93q0-.133.02-.355T72,16.18q.027-.242.059-.465t.055-.363h-.031a7.891,7.891,0,0,1-.562.8,3.256,3.256,0,0,1-.594.578,2.386,2.386,0,0,1-.664.348,2.434,2.434,0,0,1-.773.117A2.39,2.39,0,0,1,68.5,17a2.006,2.006,0,0,1-.746-.574,2.646,2.646,0,0,1-.473-.937,4.57,4.57,0,0,1-.164-1.285,6.325,6.325,0,0,1,.121-1.2,6.161,6.161,0,0,1,.375-1.227,5.749,5.749,0,0,1,.645-1.141,4.367,4.367,0,0,1,2.164-1.59A4.775,4.775,0,0,1,71.977,8.8a5.273,5.273,0,0,1,.813.059q.375.059.648.121l.813-3.828h1.266Zm-.336-4.453a5.033,5.033,0,0,0-.621-.137A4.471,4.471,0,0,0,71.9,9.9a3.17,3.17,0,0,0-1.2.211,3.024,3.024,0,0,0-.906.563,3.367,3.367,0,0,0-.648.8,5.046,5.046,0,0,0-.422.922,5.248,5.248,0,0,0-.227.93,5.785,5.785,0,0,0-.066.824,3.949,3.949,0,0,0,.074.8,1.779,1.779,0,0,0,.242.617,1.157,1.157,0,0,0,.434.4,1.353,1.353,0,0,0,.641.141,1.658,1.658,0,0,0,.73-.164,2.516,2.516,0,0,0,.637-.445,3.677,3.677,0,0,0,.539-.648,6.291,6.291,0,0,0,.438-.781,6.943,6.943,0,0,0,.332-.84q.137-.426.223-.816Zm9.922,1.875a6.659,6.659,0,0,1-.3,2.016,5.154,5.154,0,0,1-.867,1.668,4.19,4.19,0,0,1-1.375,1.133,3.914,3.914,0,0,1-1.824.418,3.33,3.33,0,0,1-1.238-.219,2.576,2.576,0,0,1-.937-.629A2.786,2.786,0,0,1,76,15.355a3.912,3.912,0,0,1-.207-1.316,6.519,6.519,0,0,1,.316-2.059A5.2,5.2,0,0,1,77,10.316a4.161,4.161,0,0,1,1.375-1.109,3.885,3.885,0,0,1,1.77-.4,3.308,3.308,0,0,1,1.23.219,2.614,2.614,0,0,1,.941.629,2.848,2.848,0,0,1,.605.992A3.783,3.783,0,0,1,83.133,11.961Zm-1.312.063a2.987,2.987,0,0,0-.125-.9,1.92,1.92,0,0,0-.352-.664,1.525,1.525,0,0,0-.547-.414,1.729,1.729,0,0,0-.719-.145,2.272,2.272,0,0,0-1.242.352,3.143,3.143,0,0,0-.937.926,4.591,4.591,0,0,0-.59,1.3,5.46,5.46,0,0,0-.207,1.5,2.988,2.988,0,0,0,.121.879,2,2,0,0,0,.344.672,1.484,1.484,0,0,0,.547.426,1.735,1.735,0,0,0,.73.148,2.3,2.3,0,0,0,1.25-.348,3.1,3.1,0,0,0,.938-.922,4.505,4.505,0,0,0,.586-1.309A5.6,5.6,0,0,0,81.82,12.023ZM96.2,11.8a6.075,6.075,0,0,1-.125,1.2,6.207,6.207,0,0,1-.383,1.223,6.02,6.02,0,0,1-.645,1.141,4.625,4.625,0,0,1-.91.949,4.22,4.22,0,0,1-1.187.648,4.323,4.323,0,0,1-1.469.238,4.833,4.833,0,0,1-.91-.086,5.6,5.6,0,0,1-.785-.2l-.8,3.8H87.7l1.953-9.25q.055-.25.1-.6t.082-.707q.035-.355.059-.668T89.914,9h1.313q0,.133-.02.359t-.051.473q-.031.246-.062.477t-.055.371h.031a4.221,4.221,0,0,1,1.25-1.41A2.672,2.672,0,0,1,93.836,8.8a2.476,2.476,0,0,1,.984.188,1.949,1.949,0,0,1,.746.563,2.6,2.6,0,0,1,.473.938A4.675,4.675,0,0,1,96.2,11.8Zm-1.312.055a3.864,3.864,0,0,0-.074-.781,1.733,1.733,0,0,0-.246-.617,1.246,1.246,0,0,0-.441-.406,1.352,1.352,0,0,0-.66-.148,1.76,1.76,0,0,0-.762.168,2.623,2.623,0,0,0-.66.449,3.682,3.682,0,0,0-.555.652,6.485,6.485,0,0,0-.445.77,6.762,6.762,0,0,0-.332.8,6.036,6.036,0,0,0-.207.754l-.492,2.32a2.192,2.192,0,0,0,.336.113q.2.051.406.09t.43.063a3.83,3.83,0,0,0,.406.023,2.7,2.7,0,0,0,1-.18,2.891,2.891,0,0,0,.82-.488,3.446,3.446,0,0,0,.641-.727,4.821,4.821,0,0,0,.465-.891,5.242,5.242,0,0,0,.281-.977A5.4,5.4,0,0,0,94.891,11.852Zm7.906-1.492h-.031a2.306,2.306,0,0,0-.41-.184,1.5,1.5,0,0,0-.5-.09,1.479,1.479,0,0,0-.867.293,3.188,3.188,0,0,0-.754.773,5.549,5.549,0,0,0-.594,1.1,7.5,7.5,0,0,0-.395,1.266L98.492,17H97.211l1.125-5.312q.07-.328.141-.687t.129-.719q.059-.359.105-.687T98.781,9h1.266q-.023.234-.055.5T99.93,10q-.031.246-.062.445t-.047.309h.031a8.623,8.623,0,0,1,.508-.8,3.718,3.718,0,0,1,.543-.613,2.3,2.3,0,0,1,.605-.395,1.71,1.71,0,0,1,.7-.141,2.206,2.206,0,0,1,.434.043q.215.043.387.09Zm7.648,1.6a6.659,6.659,0,0,1-.3,2.016,5.154,5.154,0,0,1-.867,1.668,4.19,4.19,0,0,1-1.375,1.133,3.914,3.914,0,0,1-1.824.418,3.33,3.33,0,0,1-1.238-.219,2.576,2.576,0,0,1-.937-.629,2.786,2.786,0,0,1-.594-.992,3.912,3.912,0,0,1-.207-1.316,6.519,6.519,0,0,1,.316-2.059,5.2,5.2,0,0,1,.891-1.664,4.161,4.161,0,0,1,1.375-1.109,3.885,3.885,0,0,1,1.77-.4,3.308,3.308,0,0,1,1.23.219,2.614,2.614,0,0,1,.941.629,2.848,2.848,0,0,1,.605.992A3.783,3.783,0,0,1,110.445,11.961Zm-1.312.063a2.987,2.987,0,0,0-.125-.9,1.92,1.92,0,0,0-.352-.664,1.525,1.525,0,0,0-.547-.414,1.729,1.729,0,0,0-.719-.145,2.272,2.272,0,0,0-1.242.352,3.143,3.143,0,0,0-.937.926,4.591,4.591,0,0,0-.59,1.3,5.46,5.46,0,0,0-.207,1.5,2.988,2.988,0,0,0,.121.879,2,2,0,0,0,.344.672,1.484,1.484,0,0,0,.547.426,1.735,1.735,0,0,0,.73.148,2.3,2.3,0,0,0,1.25-.348,3.1,3.1,0,0,0,.938-.922,4.505,4.505,0,0,0,.586-1.309A5.6,5.6,0,0,0,109.133,12.023Zm14.836-1.008a2.6,2.6,0,0,1-.027.309q-.027.207-.07.441t-.086.465q-.043.23-.074.387L122.766,17h-1.281l.977-4.687q.031-.133.063-.3t.059-.324q.027-.16.043-.3a2.01,2.01,0,0,0,.016-.215,1.487,1.487,0,0,0-.266-.949,1,1,0,0,0-.828-.332,1.542,1.542,0,0,0-.613.137,2.836,2.836,0,0,0-.617.371,4.353,4.353,0,0,0-.578.547,5.567,5.567,0,0,0-.508.668,5.2,5.2,0,0,0-.395.727,3.81,3.81,0,0,0-.242.73L117.758,17h-1.3l.992-4.687q.031-.133.063-.3t.059-.324q.027-.16.043-.3a2.01,2.01,0,0,0,.016-.215,1.457,1.457,0,0,0-.273-.949,1,1,0,0,0-.82-.332,1.586,1.586,0,0,0-.625.137,2.8,2.8,0,0,0-.625.375,4.293,4.293,0,0,0-.582.555,5.826,5.826,0,0,0-.508.672,4.916,4.916,0,0,0-.391.727,3.977,3.977,0,0,0-.238.73L112.734,17h-1.3l1.234-5.711q.062-.3.125-.637t.117-.641q.055-.309.094-.574T113.07,9h1.25q-.039.3-.094.637t-.094.613q-.047.328-.1.641h.031a6.756,6.756,0,0,1,.609-.836,4.457,4.457,0,0,1,.7-.66,3.219,3.219,0,0,1,.766-.434,2.411,2.411,0,0,1,1.688-.008,1.6,1.6,0,0,1,.6.418,1.827,1.827,0,0,1,.363.652,3.263,3.263,0,0,1,.148.852,7.56,7.56,0,0,1,.621-.816,4.41,4.41,0,0,1,.711-.656,3.362,3.362,0,0,1,.8-.437,2.542,2.542,0,0,1,.9-.16,1.869,1.869,0,0,1,1.5.582A2.423,2.423,0,0,1,123.969,11.016Zm8.3-.141a2.381,2.381,0,0,1-.281,1.152,2.331,2.331,0,0,1-.93.891,5.584,5.584,0,0,1-1.711.574,14.678,14.678,0,0,1-2.625.211,1,1,0,0,0-.016.18v.156a2.657,2.657,0,0,0,.117.8,1.8,1.8,0,0,0,.363.656,1.714,1.714,0,0,0,.633.445,2.341,2.341,0,0,0,.918.164,3.9,3.9,0,0,0,1.184-.207,5.087,5.087,0,0,0,1.23-.59l-.242,1.266a5.078,5.078,0,0,1-1.023.438,4.4,4.4,0,0,1-1.328.188,3.609,3.609,0,0,1-1.488-.273,2.621,2.621,0,0,1-.977-.73,2.848,2.848,0,0,1-.535-1.055,4.716,4.716,0,0,1-.164-1.254,5.8,5.8,0,0,1,.156-1.355,5.519,5.519,0,0,1,.441-1.215,5.148,5.148,0,0,1,.684-1.027,4.444,4.444,0,0,1,.883-.793,4.092,4.092,0,0,1,1.039-.508,3.7,3.7,0,0,1,1.148-.18,3.319,3.319,0,0,1,1.09.164,2.277,2.277,0,0,1,.789.449,1.915,1.915,0,0,1,.48.66A1.966,1.966,0,0,1,132.266,10.875Zm-1.3.063a.9.9,0,0,0-.363-.766,1.565,1.565,0,0,0-.965-.273,2.163,2.163,0,0,0-.922.207,2.984,2.984,0,0,0-.82.57,3.56,3.56,0,0,0-.648.867,4.038,4.038,0,0,0-.4,1.09,13.5,13.5,0,0,0,1.9-.113,4.925,4.925,0,0,0,1.273-.332,1.712,1.712,0,0,0,.719-.535A1.2,1.2,0,0,0,130.961,10.938Zm8.648,3.6q-.055.25-.105.6t-.09.707q-.039.355-.066.668T139.32,17h-1.328q0-.133.02-.355t.047-.465q.027-.242.059-.465t.055-.363h-.031a7.891,7.891,0,0,1-.562.8,3.256,3.256,0,0,1-.594.578,2.385,2.385,0,0,1-.664.348,2.434,2.434,0,0,1-.773.117,2.39,2.39,0,0,1-.984-.2,2.006,2.006,0,0,1-.746-.574,2.646,2.646,0,0,1-.473-.937,4.57,4.57,0,0,1-.164-1.285A6.324,6.324,0,0,1,133.3,13a6.162,6.162,0,0,1,.375-1.227,5.748,5.748,0,0,1,.645-1.141,4.367,4.367,0,0,1,2.164-1.59,4.775,4.775,0,0,1,1.555-.238,5.273,5.273,0,0,1,.813.059q.375.059.648.121l.813-3.828h1.266Zm-.336-4.453a5.033,5.033,0,0,0-.621-.137,4.471,4.471,0,0,0-.691-.051,3.17,3.17,0,0,0-1.2.211,3.024,3.024,0,0,0-.906.563,3.367,3.367,0,0,0-.648.8,5.045,5.045,0,0,0-.422.922,5.248,5.248,0,0,0-.227.93,5.786,5.786,0,0,0-.066.824,3.949,3.949,0,0,0,.074.8,1.779,1.779,0,0,0,.242.617,1.157,1.157,0,0,0,.434.4,1.353,1.353,0,0,0,.641.141,1.658,1.658,0,0,0,.73-.164,2.516,2.516,0,0,0,.637-.445,3.676,3.676,0,0,0,.539-.648,6.291,6.291,0,0,0,.438-.781,6.943,6.943,0,0,0,.332-.84q.137-.426.223-.816Zm5.219,6.883a2.994,2.994,0,0,1-.441.1,3.111,3.111,0,0,1-.488.039,1.594,1.594,0,0,1-1.18-.395,1.439,1.439,0,0,1-.391-1.059,3.227,3.227,0,0,1,.039-.461q.039-.266.125-.656L143.32,9h1.3l-1.172,5.57q-.07.328-.1.508a2.078,2.078,0,0,0-.027.3.644.644,0,0,0,.176.488.787.787,0,0,0,.559.168,2.366,2.366,0,0,0,.355-.023,1.575,1.575,0,0,0,.285-.07Zm.914-10.82a.841.841,0,0,1-.238.6.782.782,0,0,1-.59.25.831.831,0,0,1-.6-.246.81.81,0,0,1-.254-.605.749.749,0,0,1,.254-.586.869.869,0,0,1,.6-.227.819.819,0,0,1,.586.23A.769.769,0,0,1,145.406,6.148Zm7.93,5.813a6.659,6.659,0,0,1-.3,2.016,5.153,5.153,0,0,1-.867,1.668,4.19,4.19,0,0,1-1.375,1.133,3.914,3.914,0,0,1-1.824.418,3.33,3.33,0,0,1-1.238-.219,2.576,2.576,0,0,1-.937-.629,2.786,2.786,0,0,1-.594-.992,3.912,3.912,0,0,1-.207-1.316,6.519,6.519,0,0,1,.316-2.059,5.2,5.2,0,0,1,.891-1.664,4.161,4.161,0,0,1,1.375-1.109,3.885,3.885,0,0,1,1.77-.4,3.308,3.308,0,0,1,1.23.219,2.614,2.614,0,0,1,.941.629,2.848,2.848,0,0,1,.605.992A3.783,3.783,0,0,1,153.336,11.961Zm-1.312.063a2.987,2.987,0,0,0-.125-.9,1.919,1.919,0,0,0-.352-.664,1.525,1.525,0,0,0-.547-.414,1.729,1.729,0,0,0-.719-.145,2.272,2.272,0,0,0-1.242.352,3.143,3.143,0,0,0-.937.926,4.591,4.591,0,0,0-.59,1.3,5.46,5.46,0,0,0-.207,1.5,2.988,2.988,0,0,0,.121.879,2,2,0,0,0,.344.672,1.484,1.484,0,0,0,.547.426,1.735,1.735,0,0,0,.73.148,2.3,2.3,0,0,0,1.25-.348,3.1,3.1,0,0,0,.938-.922,4.506,4.506,0,0,0,.586-1.309A5.6,5.6,0,0,0,152.023,12.023Zm13.359,2.516q-.055.25-.105.6t-.09.707q-.039.355-.066.668t-.027.484h-1.328q0-.133.02-.355t.047-.465q.027-.242.059-.465t.055-.363h-.031a7.891,7.891,0,0,1-.562.8,3.256,3.256,0,0,1-.594.578,2.385,2.385,0,0,1-.664.348,2.434,2.434,0,0,1-.773.117,2.39,2.39,0,0,1-.984-.2,2.006,2.006,0,0,1-.746-.574,2.646,2.646,0,0,1-.473-.937,4.57,4.57,0,0,1-.164-1.285,6.324,6.324,0,0,1,.121-1.2,6.162,6.162,0,0,1,.375-1.227,5.748,5.748,0,0,1,.645-1.141,4.367,4.367,0,0,1,2.164-1.59,4.775,4.775,0,0,1,1.555-.238,5.273,5.273,0,0,1,.813.059q.375.059.648.121l.813-3.828h1.266Zm-.336-4.453a5.033,5.033,0,0,0-.621-.137,4.471,4.471,0,0,0-.691-.051,3.17,3.17,0,0,0-1.2.211,3.024,3.024,0,0,0-.906.563,3.367,3.367,0,0,0-.648.8,5.045,5.045,0,0,0-.422.922,5.248,5.248,0,0,0-.227.93,5.786,5.786,0,0,0-.066.824,3.949,3.949,0,0,0,.074.8,1.779,1.779,0,0,0,.242.617,1.157,1.157,0,0,0,.434.4,1.353,1.353,0,0,0,.641.141,1.658,1.658,0,0,0,.73-.164,2.516,2.516,0,0,0,.637-.445,3.676,3.676,0,0,0,.539-.648,6.291,6.291,0,0,0,.438-.781,6.943,6.943,0,0,0,.332-.84q.137-.426.223-.816Zm9.453.789a2.381,2.381,0,0,1-.281,1.152,2.331,2.331,0,0,1-.93.891,5.584,5.584,0,0,1-1.711.574,14.678,14.678,0,0,1-2.625.211,1,1,0,0,0-.016.18v.156a2.657,2.657,0,0,0,.117.8,1.8,1.8,0,0,0,.363.656,1.714,1.714,0,0,0,.633.445,2.341,2.341,0,0,0,.918.164,3.9,3.9,0,0,0,1.184-.207,5.087,5.087,0,0,0,1.23-.59l-.242,1.266a5.078,5.078,0,0,1-1.023.438,4.4,4.4,0,0,1-1.328.188,3.609,3.609,0,0,1-1.488-.273,2.621,2.621,0,0,1-.977-.73,2.848,2.848,0,0,1-.535-1.055,4.716,4.716,0,0,1-.164-1.254,5.8,5.8,0,0,1,.156-1.355,5.519,5.519,0,0,1,.441-1.215,5.149,5.149,0,0,1,.684-1.027,4.443,4.443,0,0,1,.883-.793,4.092,4.092,0,0,1,1.039-.508,3.7,3.7,0,0,1,1.148-.18,3.319,3.319,0,0,1,1.09.164,2.277,2.277,0,0,1,.789.449,1.915,1.915,0,0,1,.48.66A1.966,1.966,0,0,1,174.5,10.875Zm-1.3.063a.9.9,0,0,0-.363-.766,1.565,1.565,0,0,0-.965-.273,2.163,2.163,0,0,0-.922.207,2.984,2.984,0,0,0-.82.57,3.56,3.56,0,0,0-.648.867,4.038,4.038,0,0,0-.4,1.09,13.5,13.5,0,0,0,1.9-.113,4.925,4.925,0,0,0,1.273-.332,1.712,1.712,0,0,0,.719-.535A1.2,1.2,0,0,0,173.2,10.938Zm12.758-.352a2.941,2.941,0,0,0-.793-.488,2.582,2.582,0,0,0-1.027-.2,2.427,2.427,0,0,0-.973.188,2.684,2.684,0,0,0-.77.5,3.244,3.244,0,0,0-.578.719,4.793,4.793,0,0,0-.4.844,5.193,5.193,0,0,0-.23.871,4.809,4.809,0,0,0-.074.809,2.552,2.552,0,0,0,.492,1.7,1.672,1.672,0,0,0,1.344.578,2.957,2.957,0,0,0,1.07-.215,5.151,5.151,0,0,0,1.047-.551l-.273,1.281a5.483,5.483,0,0,1-1.012.426,3.666,3.666,0,0,1-1.066.152,3.029,3.029,0,0,1-1.277-.25,2.5,2.5,0,0,1-.9-.687,2.946,2.946,0,0,1-.539-1.035,4.472,4.472,0,0,1-.18-1.293,6.315,6.315,0,0,1,.133-1.293,5.569,5.569,0,0,1,.395-1.2,5.219,5.219,0,0,1,.645-1.051A4.107,4.107,0,0,1,182.969,9a4.451,4.451,0,0,1,1.961-.152,3.8,3.8,0,0,1,.555.125,3.736,3.736,0,0,1,.445.168,1.829,1.829,0,0,1,.313.176Zm8.18,1.375a6.659,6.659,0,0,1-.3,2.016,5.153,5.153,0,0,1-.867,1.668,4.19,4.19,0,0,1-1.375,1.133,3.914,3.914,0,0,1-1.824.418,3.33,3.33,0,0,1-1.238-.219,2.576,2.576,0,0,1-.937-.629,2.786,2.786,0,0,1-.594-.992,3.912,3.912,0,0,1-.207-1.316,6.519,6.519,0,0,1,.316-2.059A5.2,5.2,0,0,1,188,10.316a4.161,4.161,0,0,1,1.375-1.109,3.885,3.885,0,0,1,1.77-.4,3.308,3.308,0,0,1,1.23.219,2.614,2.614,0,0,1,.941.629,2.848,2.848,0,0,1,.605.992A3.783,3.783,0,0,1,194.133,11.961Zm-1.312.063a2.987,2.987,0,0,0-.125-.9,1.919,1.919,0,0,0-.352-.664,1.525,1.525,0,0,0-.547-.414,1.729,1.729,0,0,0-.719-.145,2.272,2.272,0,0,0-1.242.352,3.143,3.143,0,0,0-.937.926,4.591,4.591,0,0,0-.59,1.3,5.46,5.46,0,0,0-.207,1.5,2.988,2.988,0,0,0,.121.879,2,2,0,0,0,.344.672,1.484,1.484,0,0,0,.547.426,1.735,1.735,0,0,0,.73.148,2.3,2.3,0,0,0,1.25-.348,3.1,3.1,0,0,0,.938-.922,4.506,4.506,0,0,0,.586-1.309A5.6,5.6,0,0,0,192.82,12.023ZM202.8,11.8a6.411,6.411,0,0,1-.109,1.137,6.074,6.074,0,0,1-.352,1.2,6.236,6.236,0,0,1-.617,1.152,4.4,4.4,0,0,1-.9.977,4.314,4.314,0,0,1-1.219.676,4.523,4.523,0,0,1-1.566.254,5.644,5.644,0,0,1-.742-.051,6.466,6.466,0,0,1-.75-.145,5.839,5.839,0,0,1-.7-.227,3.7,3.7,0,0,1-.609-.3l2.406-11.312h1.3l-.8,3.828q-.086.383-.176.8t-.176.75h.016a5.587,5.587,0,0,1,.531-.719,3.4,3.4,0,0,1,.605-.547,2.635,2.635,0,0,1,.7-.348,2.593,2.593,0,0,1,.809-.121,2.1,2.1,0,0,1,1.754.781A3.507,3.507,0,0,1,202.8,11.8Zm-1.312.031a3.625,3.625,0,0,0-.082-.8,1.71,1.71,0,0,0-.258-.609,1.161,1.161,0,0,0-.449-.383,1.51,1.51,0,0,0-.664-.133,1.732,1.732,0,0,0-.945.289,3.356,3.356,0,0,0-.828.766,5.242,5.242,0,0,0-.648,1.078,5.621,5.621,0,0,0-.4,1.227L196.7,15.75a2.764,2.764,0,0,0,.668.25,3.386,3.386,0,0,0,.832.1,2.721,2.721,0,0,0,1.016-.184,2.859,2.859,0,0,0,.828-.5,3.517,3.517,0,0,0,.641-.742,4.73,4.73,0,0,0,.453-.895,5.417,5.417,0,0,0,.27-.977A5.541,5.541,0,0,0,201.492,11.828Zm7.906-1.469h-.031a2.307,2.307,0,0,0-.41-.184,1.5,1.5,0,0,0-.5-.09,1.479,1.479,0,0,0-.867.293,3.188,3.188,0,0,0-.754.773,5.549,5.549,0,0,0-.594,1.1,7.5,7.5,0,0,0-.395,1.266L205.094,17h-1.281l1.125-5.312q.07-.328.141-.687t.129-.719q.059-.359.105-.687t.07-.594h1.266q-.023.234-.055.5t-.062.508q-.031.246-.062.445t-.047.309h.031a8.624,8.624,0,0,1,.508-.8,3.717,3.717,0,0,1,.543-.613,2.3,2.3,0,0,1,.605-.395,1.71,1.71,0,0,1,.7-.141,2.206,2.206,0,0,1,.434.043q.215.043.387.09Zm7.648,1.6a6.659,6.659,0,0,1-.3,2.016,5.153,5.153,0,0,1-.867,1.668,4.19,4.19,0,0,1-1.375,1.133,3.914,3.914,0,0,1-1.824.418,3.33,3.33,0,0,1-1.238-.219,2.576,2.576,0,0,1-.937-.629,2.786,2.786,0,0,1-.594-.992,3.912,3.912,0,0,1-.207-1.316,6.519,6.519,0,0,1,.316-2.059,5.2,5.2,0,0,1,.891-1.664,4.161,4.161,0,0,1,1.375-1.109,3.885,3.885,0,0,1,1.77-.4,3.308,3.308,0,0,1,1.23.219,2.614,2.614,0,0,1,.941.629,2.848,2.848,0,0,1,.605.992A3.783,3.783,0,0,1,217.047,11.961Zm-1.312.063a2.987,2.987,0,0,0-.125-.9,1.919,1.919,0,0,0-.352-.664,1.525,1.525,0,0,0-.547-.414,1.729,1.729,0,0,0-.719-.145,2.272,2.272,0,0,0-1.242.352,3.143,3.143,0,0,0-.937.926,4.591,4.591,0,0,0-.59,1.3,5.46,5.46,0,0,0-.207,1.5,2.988,2.988,0,0,0,.121.879,2,2,0,0,0,.344.672,1.484,1.484,0,0,0,.547.426,1.735,1.735,0,0,0,.73.148,2.3,2.3,0,0,0,1.25-.348,3.1,3.1,0,0,0,.938-.922,4.506,4.506,0,0,0,.586-1.309A5.6,5.6,0,0,0,215.734,12.023Zm8.32-.828V10.148H231.4V11.2Zm0,3.328V13.477H231.4v1.047Zm21.586-7.555H241.43l-.687,3.266.828-.031a3.568,3.568,0,0,1,2.438.77,2.735,2.735,0,0,1,.875,2.168,4.074,4.074,0,0,1-.57,2.133,3.629,3.629,0,0,1-1.582,1.438,5.4,5.4,0,0,1-2.355.484,8.377,8.377,0,0,1-1.387-.117,4.335,4.335,0,0,1-1.1-.3l.289-1.258a3.418,3.418,0,0,0,1.031.422,5.058,5.058,0,0,0,1.258.164,3.6,3.6,0,0,0,1.672-.355,2.581,2.581,0,0,0,1.059-.977,2.681,2.681,0,0,0,.371-1.4,1.977,1.977,0,0,0-.562-1.527,2.581,2.581,0,0,0-1.789-.52q-1.086,0-1.945.078l1.18-5.6h5.422Zm.906,7.336a3.246,3.246,0,0,1,.789-2.145,3.708,3.708,0,0,1,2.063-1.238,2.706,2.706,0,0,1-.859-.891,2.439,2.439,0,0,1-.336-1.289,2.93,2.93,0,0,1,.461-1.6,3.077,3.077,0,0,1,1.293-1.129,4.317,4.317,0,0,1,1.9-.4,2.9,2.9,0,0,1,2,.672,2.255,2.255,0,0,1,.758,1.773,2.858,2.858,0,0,1-.555,1.754,3.28,3.28,0,0,1-1.6,1.113,2.316,2.316,0,0,1,1.086.953,2.8,2.8,0,0,1,.406,1.492,3.6,3.6,0,0,1-.547,1.93A3.794,3.794,0,0,1,251.9,16.68a4.468,4.468,0,0,1-2.094.5,3.589,3.589,0,0,1-2.4-.73A2.664,2.664,0,0,1,246.547,14.3Zm1.422-.047a1.732,1.732,0,0,0,.5,1.3,2.007,2.007,0,0,0,1.453.484,2.682,2.682,0,0,0,2.309-1.336,2.67,2.67,0,0,0,.371-1.375A1.817,1.817,0,0,0,252.1,12a1.776,1.776,0,0,0-1.324-.512,2.852,2.852,0,0,0-2.426,1.379A2.663,2.663,0,0,0,247.969,14.258ZM249.5,8.906a1.494,1.494,0,0,0,.434,1.109,1.535,1.535,0,0,0,1.129.43,2.162,2.162,0,0,0,1.059-.293,2.337,2.337,0,0,0,.852-.8,2.067,2.067,0,0,0,.324-1.129,1.488,1.488,0,0,0-.43-1.105,1.581,1.581,0,0,0-1.164-.426,2.188,2.188,0,0,0-2.2,2.219Zm16.6,5.633q-.055.25-.105.6t-.09.707q-.039.355-.066.668t-.027.484h-1.328q0-.133.02-.355t.047-.465q.027-.242.059-.465t.055-.363h-.031a7.891,7.891,0,0,1-.562.8,3.256,3.256,0,0,1-.594.578,2.386,2.386,0,0,1-.664.348,2.434,2.434,0,0,1-.773.117,2.389,2.389,0,0,1-.984-.2,2.006,2.006,0,0,1-.746-.574,2.646,2.646,0,0,1-.473-.937,4.57,4.57,0,0,1-.164-1.285,6.325,6.325,0,0,1,.121-1.2,6.16,6.16,0,0,1,.375-1.227,5.75,5.75,0,0,1,.645-1.141,4.367,4.367,0,0,1,2.164-1.59,4.775,4.775,0,0,1,1.555-.238,5.273,5.273,0,0,1,.813.059q.375.059.648.121l.813-3.828h1.266Zm-.336-4.453a5.032,5.032,0,0,0-.621-.137,4.471,4.471,0,0,0-.691-.051,3.17,3.17,0,0,0-1.2.211,3.024,3.024,0,0,0-.906.563,3.367,3.367,0,0,0-.648.8,5.047,5.047,0,0,0-.422.922,5.248,5.248,0,0,0-.227.93,5.784,5.784,0,0,0-.066.824,3.95,3.95,0,0,0,.074.8,1.779,1.779,0,0,0,.242.617,1.157,1.157,0,0,0,.434.4,1.353,1.353,0,0,0,.641.141,1.658,1.658,0,0,0,.73-.164,2.516,2.516,0,0,0,.637-.445,3.677,3.677,0,0,0,.539-.648,6.291,6.291,0,0,0,.438-.781,6.943,6.943,0,0,0,.332-.84q.137-.426.223-.816Zm5.219,6.883a2.994,2.994,0,0,1-.441.1,3.111,3.111,0,0,1-.488.039,1.594,1.594,0,0,1-1.18-.395,1.439,1.439,0,0,1-.391-1.059,3.229,3.229,0,0,1,.039-.461q.039-.266.125-.656L269.813,9h1.3l-1.172,5.57q-.07.328-.1.508a2.08,2.08,0,0,0-.027.3.644.644,0,0,0,.176.488.787.787,0,0,0,.559.168,2.366,2.366,0,0,0,.355-.023,1.575,1.575,0,0,0,.285-.07Zm-.633-9.492h-.961l2.258-2.555h1.258Zm8.594,6.961q-.062.3-.121.668t-.1.734q-.043.363-.07.676t-.027.484H277.3q.008-.156.023-.375t.043-.453q.027-.234.055-.461t.059-.391h-.031q-.242.383-.492.723a3.478,3.478,0,0,1-.555.6,2.429,2.429,0,0,1-.68.406,2.612,2.612,0,0,1-1.84-.039,2.006,2.006,0,0,1-.746-.559,2.574,2.574,0,0,1-.48-.93,4.532,4.532,0,0,1-.168-1.3,6.518,6.518,0,0,1,.094-1.031,6.309,6.309,0,0,1,.316-1.18,6.006,6.006,0,0,1,.594-1.176A4.465,4.465,0,0,1,274.41,9.8a4.4,4.4,0,0,1,1.3-.727,5.051,5.051,0,0,1,1.734-.273,9.221,9.221,0,0,1,1.289.094q.664.094,1.32.227Zm-.367-4.383q-.273-.062-.641-.109a5.447,5.447,0,0,0-.687-.047,3.118,3.118,0,0,0-1.2.215,3.077,3.077,0,0,0-.9.563,3.312,3.312,0,0,0-.645.8,4.965,4.965,0,0,0-.418.926,5.45,5.45,0,0,0-.223.934,5.909,5.909,0,0,0-.066.836,3.743,3.743,0,0,0,.078.8,1.749,1.749,0,0,0,.246.605,1.156,1.156,0,0,0,.43.387,1.325,1.325,0,0,0,.621.137,1.692,1.692,0,0,0,.73-.16,2.532,2.532,0,0,0,.637-.434,3.561,3.561,0,0,0,.539-.633,6.225,6.225,0,0,0,.438-.762,6.515,6.515,0,0,0,.332-.82q.137-.418.223-.809Zm7.633.352a3.33,3.33,0,0,0-.789-.367,2.845,2.845,0,0,0-.875-.141,1.726,1.726,0,0,0-1.137.336,1.1,1.1,0,0,0-.4.891,1.116,1.116,0,0,0,.074.414,1.25,1.25,0,0,0,.219.355,1.985,1.985,0,0,0,.367.324q.223.156.512.336a4.028,4.028,0,0,1,1.262,1.043,2.01,2.01,0,0,1,.387,1.207,2.436,2.436,0,0,1-.168.887,2,2,0,0,1-.535.766,2.744,2.744,0,0,1-.949.535,4.331,4.331,0,0,1-1.418.2,4.7,4.7,0,0,1-.516-.031,5.462,5.462,0,0,1-.566-.094,4.941,4.941,0,0,1-.547-.152,2.408,2.408,0,0,1-.457-.207l.258-1.219a2.69,2.69,0,0,0,.387.219,4,4,0,0,0,.5.2,4.673,4.673,0,0,0,.563.141,3.166,3.166,0,0,0,.582.055,1.834,1.834,0,0,0,1.168-.312,1.053,1.053,0,0,0,.387-.867,1.155,1.155,0,0,0-.059-.375,1.052,1.052,0,0,0-.207-.344,2.3,2.3,0,0,0-.391-.348q-.242-.176-.609-.395a3.946,3.946,0,0,1-1.176-1.012,1.992,1.992,0,0,1-.379-1.191,2.432,2.432,0,0,1,.18-.926,2.24,2.24,0,0,1,.535-.781,2.6,2.6,0,0,1,.895-.543,3.559,3.559,0,0,1,1.258-.2,5.018,5.018,0,0,1,1.066.109,3.786,3.786,0,0,1,.855.281Z" transform="translate(448.051 11789)" fill="#12263f"/>
  </g>
</svg>
