<svg id="Grupo_1113521" data-name="Grupo 1113521" xmlns="http://www.w3.org/2000/svg" width="560.49" height="85.045" viewBox="0 0 560.49 85.045">
  <g id="Grupo_1113470" data-name="Grupo 1113470">
    <rect id="Rect치ngulo_406002" data-name="Rect치ngulo 406002" width="550.213" height="76.918" transform="translate(10.277 8.127)" fill="#bce0fc"/>
    <g id="Rect치ngulo_406003" data-name="Rect치ngulo 406003" fill="#fbfbf9" stroke="#000" stroke-width="0.5">
      <rect width="556.65" height="78.918" stroke="none"/>
      <rect x="0.25" y="0.25" width="556.15" height="78.418" fill="none"/>
    </g>
    <g id="Grupo_1113471" data-name="Grupo 1113471" transform="translate(25 17)">
      <path id="Trazado_908458" data-name="Trazado 908458" d="M17.828,8.742a4.3,4.3,0,0,1-.281,1.559,3.463,3.463,0,0,1-.855,1.277,4.07,4.07,0,0,1-1.457.863,6.161,6.161,0,0,1-2.078.316h-1.7L10.563,17H9.219L11.586,5.8h2.9a4.264,4.264,0,0,1,1.535.246,2.889,2.889,0,0,1,1.039.656,2.493,2.493,0,0,1,.586.941A3.349,3.349,0,0,1,17.828,8.742Zm-1.383.117a1.986,1.986,0,0,0-.145-.77,1.589,1.589,0,0,0-.426-.594,1.937,1.937,0,0,0-.7-.379,3.189,3.189,0,0,0-.965-.133H12.688l-.977,4.594h1.57a4.37,4.37,0,0,0,1.426-.207,2.71,2.71,0,0,0,.984-.57,2.222,2.222,0,0,0,.57-.859A3.1,3.1,0,0,0,16.445,8.859Zm8.883,2.016a2.381,2.381,0,0,1-.281,1.152,2.331,2.331,0,0,1-.93.891,5.584,5.584,0,0,1-1.711.574,14.678,14.678,0,0,1-2.625.211,1,1,0,0,0-.016.18v.156a2.657,2.657,0,0,0,.117.8,1.8,1.8,0,0,0,.363.656,1.714,1.714,0,0,0,.633.445,2.341,2.341,0,0,0,.918.164,3.9,3.9,0,0,0,1.184-.207,5.087,5.087,0,0,0,1.23-.59l-.242,1.266a5.078,5.078,0,0,1-1.023.438,4.4,4.4,0,0,1-1.328.188,3.609,3.609,0,0,1-1.488-.273,2.621,2.621,0,0,1-.977-.73,2.848,2.848,0,0,1-.535-1.055,4.716,4.716,0,0,1-.164-1.254,5.8,5.8,0,0,1,.156-1.355,5.519,5.519,0,0,1,.441-1.215,5.148,5.148,0,0,1,.684-1.027,4.444,4.444,0,0,1,.883-.793,4.092,4.092,0,0,1,1.039-.508A3.7,3.7,0,0,1,22.8,8.8a3.319,3.319,0,0,1,1.09.164,2.277,2.277,0,0,1,.789.449,1.915,1.915,0,0,1,.48.66A1.966,1.966,0,0,1,25.328,10.875Zm-1.3.063a.9.9,0,0,0-.363-.766A1.565,1.565,0,0,0,22.7,9.9a2.163,2.163,0,0,0-.922.207,2.984,2.984,0,0,0-.82.57,3.56,3.56,0,0,0-.648.867,4.038,4.038,0,0,0-.4,1.09,13.5,13.5,0,0,0,1.9-.113,4.925,4.925,0,0,0,1.273-.332,1.712,1.712,0,0,0,.719-.535A1.2,1.2,0,0,0,24.023,10.938Zm7.594-.578h-.031a2.306,2.306,0,0,0-.41-.184,1.5,1.5,0,0,0-.5-.09,1.479,1.479,0,0,0-.867.293,3.188,3.188,0,0,0-.754.773,5.549,5.549,0,0,0-.594,1.1,7.5,7.5,0,0,0-.395,1.266L27.313,17H26.031l1.125-5.312q.07-.328.141-.687t.129-.719q.059-.359.105-.687T27.6,9h1.266q-.023.234-.055.5T28.75,10q-.031.246-.062.445t-.047.309h.031a8.623,8.623,0,0,1,.508-.8,3.718,3.718,0,0,1,.543-.613,2.3,2.3,0,0,1,.605-.395,1.71,1.71,0,0,1,.7-.141,2.206,2.206,0,0,1,.434.043q.215.043.387.09Zm2.945,6.609a2.994,2.994,0,0,1-.441.1,3.111,3.111,0,0,1-.488.039,1.594,1.594,0,0,1-1.18-.395,1.439,1.439,0,0,1-.391-1.059A3.227,3.227,0,0,1,32.1,15.2q.039-.266.125-.656L33.391,9h1.3l-1.172,5.57q-.07.328-.1.508a2.078,2.078,0,0,0-.027.3.644.644,0,0,0,.176.488.787.787,0,0,0,.559.168,2.366,2.366,0,0,0,.355-.023,1.575,1.575,0,0,0,.285-.07ZM33.93,7.477h-.961l2.258-2.555h1.258Zm9.477,4.484a6.659,6.659,0,0,1-.3,2.016,5.153,5.153,0,0,1-.867,1.668,4.19,4.19,0,0,1-1.375,1.133,3.914,3.914,0,0,1-1.824.418,3.33,3.33,0,0,1-1.238-.219,2.576,2.576,0,0,1-.937-.629,2.786,2.786,0,0,1-.594-.992,3.912,3.912,0,0,1-.207-1.316,6.519,6.519,0,0,1,.316-2.059,5.2,5.2,0,0,1,.891-1.664,4.161,4.161,0,0,1,1.375-1.109,3.885,3.885,0,0,1,1.77-.4,3.308,3.308,0,0,1,1.23.219,2.614,2.614,0,0,1,.941.629,2.848,2.848,0,0,1,.605.992A3.783,3.783,0,0,1,43.406,11.961Zm-1.312.063a2.987,2.987,0,0,0-.125-.9,1.919,1.919,0,0,0-.352-.664,1.525,1.525,0,0,0-.547-.414,1.729,1.729,0,0,0-.719-.145,2.272,2.272,0,0,0-1.242.352,3.143,3.143,0,0,0-.937.926,4.591,4.591,0,0,0-.59,1.3,5.46,5.46,0,0,0-.207,1.5,2.988,2.988,0,0,0,.121.879,2,2,0,0,0,.344.672,1.484,1.484,0,0,0,.547.426,1.735,1.735,0,0,0,.73.148,2.3,2.3,0,0,0,1.25-.348,3.1,3.1,0,0,0,.938-.922,4.506,4.506,0,0,0,.586-1.309A5.6,5.6,0,0,0,42.094,12.023Zm8.961,2.516q-.055.25-.105.6t-.09.707q-.039.355-.066.668T50.766,17H49.438q0-.133.02-.355t.047-.465q.027-.242.059-.465t.055-.363h-.031a7.891,7.891,0,0,1-.562.8,3.256,3.256,0,0,1-.594.578,2.386,2.386,0,0,1-.664.348,2.434,2.434,0,0,1-.773.117,2.39,2.39,0,0,1-.984-.2,2.006,2.006,0,0,1-.746-.574,2.646,2.646,0,0,1-.473-.937,4.57,4.57,0,0,1-.164-1.285,6.325,6.325,0,0,1,.121-1.2,6.161,6.161,0,0,1,.375-1.227,5.748,5.748,0,0,1,.645-1.141,4.367,4.367,0,0,1,2.164-1.59A4.775,4.775,0,0,1,49.484,8.8a5.273,5.273,0,0,1,.813.059q.375.059.648.121l.813-3.828h1.266Zm-.336-4.453a5.033,5.033,0,0,0-.621-.137,4.471,4.471,0,0,0-.691-.051,3.17,3.17,0,0,0-1.2.211,3.024,3.024,0,0,0-.906.563,3.367,3.367,0,0,0-.648.8,5.045,5.045,0,0,0-.422.922,5.248,5.248,0,0,0-.227.93,5.785,5.785,0,0,0-.066.824,3.949,3.949,0,0,0,.074.8,1.779,1.779,0,0,0,.242.617,1.157,1.157,0,0,0,.434.4,1.353,1.353,0,0,0,.641.141,1.658,1.658,0,0,0,.73-.164,2.516,2.516,0,0,0,.637-.445,3.676,3.676,0,0,0,.539-.648,6.291,6.291,0,0,0,.438-.781,6.943,6.943,0,0,0,.332-.84q.137-.426.223-.816Zm9.922,1.875a6.659,6.659,0,0,1-.3,2.016,5.153,5.153,0,0,1-.867,1.668A4.19,4.19,0,0,1,58.1,16.777a3.914,3.914,0,0,1-1.824.418,3.33,3.33,0,0,1-1.238-.219,2.576,2.576,0,0,1-.937-.629,2.786,2.786,0,0,1-.594-.992,3.912,3.912,0,0,1-.207-1.316,6.519,6.519,0,0,1,.316-2.059,5.2,5.2,0,0,1,.891-1.664,4.161,4.161,0,0,1,1.375-1.109,3.885,3.885,0,0,1,1.77-.4,3.308,3.308,0,0,1,1.23.219,2.614,2.614,0,0,1,.941.629,2.848,2.848,0,0,1,.605.992A3.783,3.783,0,0,1,60.641,11.961Zm-1.312.063a2.987,2.987,0,0,0-.125-.9,1.919,1.919,0,0,0-.352-.664,1.525,1.525,0,0,0-.547-.414,1.729,1.729,0,0,0-.719-.145,2.272,2.272,0,0,0-1.242.352,3.143,3.143,0,0,0-.937.926,4.591,4.591,0,0,0-.59,1.3,5.46,5.46,0,0,0-.207,1.5,2.988,2.988,0,0,0,.121.879,2,2,0,0,0,.344.672,1.484,1.484,0,0,0,.547.426,1.735,1.735,0,0,0,.73.148,2.3,2.3,0,0,0,1.25-.348,3.1,3.1,0,0,0,.938-.922,4.506,4.506,0,0,0,.586-1.309A5.6,5.6,0,0,0,59.328,12.023ZM73.711,11.8a6.075,6.075,0,0,1-.125,1.2,6.207,6.207,0,0,1-.383,1.223,6.02,6.02,0,0,1-.645,1.141,4.625,4.625,0,0,1-.91.949,4.22,4.22,0,0,1-1.187.648,4.323,4.323,0,0,1-1.469.238,4.833,4.833,0,0,1-.91-.086,5.6,5.6,0,0,1-.785-.2l-.8,3.8H65.2l1.953-9.25q.055-.25.1-.6t.082-.707q.035-.355.059-.668T67.422,9h1.313q0,.133-.02.359t-.051.473q-.031.246-.062.477t-.055.371h.031a4.221,4.221,0,0,1,1.25-1.41A2.672,2.672,0,0,1,71.344,8.8a2.476,2.476,0,0,1,.984.188,1.949,1.949,0,0,1,.746.563,2.6,2.6,0,0,1,.473.938A4.675,4.675,0,0,1,73.711,11.8Zm-1.312.055a3.864,3.864,0,0,0-.074-.781,1.733,1.733,0,0,0-.246-.617,1.246,1.246,0,0,0-.441-.406,1.352,1.352,0,0,0-.66-.148,1.76,1.76,0,0,0-.762.168,2.623,2.623,0,0,0-.66.449,3.682,3.682,0,0,0-.555.652,6.485,6.485,0,0,0-.445.77,6.762,6.762,0,0,0-.332.8,6.036,6.036,0,0,0-.207.754l-.492,2.32a2.192,2.192,0,0,0,.336.113q.2.051.406.09t.43.063a3.83,3.83,0,0,0,.406.023,2.7,2.7,0,0,0,1-.18,2.891,2.891,0,0,0,.82-.488,3.446,3.446,0,0,0,.641-.727,4.821,4.821,0,0,0,.465-.891,5.242,5.242,0,0,0,.281-.977A5.4,5.4,0,0,0,72.4,11.852ZM80.3,10.359h-.031a2.306,2.306,0,0,0-.41-.184,1.5,1.5,0,0,0-.5-.09,1.479,1.479,0,0,0-.867.293,3.188,3.188,0,0,0-.754.773,5.549,5.549,0,0,0-.594,1.1,7.5,7.5,0,0,0-.395,1.266L76,17H74.719l1.125-5.312q.07-.328.141-.687t.129-.719q.059-.359.105-.687T76.289,9h1.266q-.023.234-.055.5T77.438,10q-.031.246-.062.445t-.047.309h.031a8.623,8.623,0,0,1,.508-.8,3.718,3.718,0,0,1,.543-.613,2.3,2.3,0,0,1,.605-.395,1.71,1.71,0,0,1,.7-.141,2.206,2.206,0,0,1,.434.043q.215.043.387.09Zm7.648,1.6a6.659,6.659,0,0,1-.3,2.016,5.154,5.154,0,0,1-.867,1.668,4.19,4.19,0,0,1-1.375,1.133,3.914,3.914,0,0,1-1.824.418,3.33,3.33,0,0,1-1.238-.219,2.576,2.576,0,0,1-.937-.629,2.786,2.786,0,0,1-.594-.992,3.912,3.912,0,0,1-.207-1.316,6.519,6.519,0,0,1,.316-2.059,5.2,5.2,0,0,1,.891-1.664,4.161,4.161,0,0,1,1.375-1.109,3.885,3.885,0,0,1,1.77-.4,3.308,3.308,0,0,1,1.23.219,2.614,2.614,0,0,1,.941.629,2.848,2.848,0,0,1,.605.992A3.783,3.783,0,0,1,87.953,11.961Zm-1.312.063a2.987,2.987,0,0,0-.125-.9,1.92,1.92,0,0,0-.352-.664,1.525,1.525,0,0,0-.547-.414A1.729,1.729,0,0,0,84.9,9.9a2.272,2.272,0,0,0-1.242.352,3.143,3.143,0,0,0-.937.926,4.591,4.591,0,0,0-.59,1.3,5.46,5.46,0,0,0-.207,1.5,2.988,2.988,0,0,0,.121.879,2,2,0,0,0,.344.672,1.484,1.484,0,0,0,.547.426,1.735,1.735,0,0,0,.73.148,2.3,2.3,0,0,0,1.25-.348,3.1,3.1,0,0,0,.938-.922,4.505,4.505,0,0,0,.586-1.309A5.6,5.6,0,0,0,86.641,12.023Zm14.836-1.008a2.6,2.6,0,0,1-.027.309q-.027.207-.07.441t-.086.465q-.043.23-.074.387L100.273,17H98.992l.977-4.687q.031-.133.063-.3t.059-.324q.027-.16.043-.3a2.01,2.01,0,0,0,.016-.215,1.487,1.487,0,0,0-.266-.949,1,1,0,0,0-.828-.332,1.542,1.542,0,0,0-.613.137,2.836,2.836,0,0,0-.617.371,4.353,4.353,0,0,0-.578.547,5.567,5.567,0,0,0-.508.668,5.2,5.2,0,0,0-.395.727,3.81,3.81,0,0,0-.242.73L95.266,17h-1.3l.992-4.687q.031-.133.063-.3t.059-.324q.027-.16.043-.3a2.01,2.01,0,0,0,.016-.215,1.457,1.457,0,0,0-.273-.949,1,1,0,0,0-.82-.332,1.586,1.586,0,0,0-.625.137,2.8,2.8,0,0,0-.625.375,4.293,4.293,0,0,0-.582.555,5.826,5.826,0,0,0-.508.672,4.916,4.916,0,0,0-.391.727,3.977,3.977,0,0,0-.238.73L90.242,17h-1.3l1.234-5.711q.062-.3.125-.637t.117-.641q.055-.309.094-.574T90.578,9h1.25q-.039.3-.094.637t-.094.613q-.047.328-.1.641h.031a6.756,6.756,0,0,1,.609-.836,4.457,4.457,0,0,1,.7-.66,3.219,3.219,0,0,1,.766-.434,2.411,2.411,0,0,1,1.688-.008,1.6,1.6,0,0,1,.6.418,1.827,1.827,0,0,1,.363.652,3.263,3.263,0,0,1,.148.852,7.56,7.56,0,0,1,.621-.816A4.41,4.41,0,0,1,97.77,9.4a3.362,3.362,0,0,1,.8-.437,2.542,2.542,0,0,1,.9-.16,1.869,1.869,0,0,1,1.5.582A2.423,2.423,0,0,1,101.477,11.016Zm8.3-.141a2.381,2.381,0,0,1-.281,1.152,2.331,2.331,0,0,1-.93.891,5.584,5.584,0,0,1-1.711.574,14.678,14.678,0,0,1-2.625.211,1,1,0,0,0-.016.18v.156a2.657,2.657,0,0,0,.117.8,1.8,1.8,0,0,0,.363.656,1.714,1.714,0,0,0,.633.445,2.341,2.341,0,0,0,.918.164,3.9,3.9,0,0,0,1.184-.207,5.087,5.087,0,0,0,1.23-.59l-.242,1.266a5.078,5.078,0,0,1-1.023.438,4.4,4.4,0,0,1-1.328.188,3.609,3.609,0,0,1-1.488-.273,2.621,2.621,0,0,1-.977-.73,2.848,2.848,0,0,1-.535-1.055,4.716,4.716,0,0,1-.164-1.254,5.8,5.8,0,0,1,.156-1.355,5.519,5.519,0,0,1,.441-1.215,5.148,5.148,0,0,1,.684-1.027,4.444,4.444,0,0,1,.883-.793,4.092,4.092,0,0,1,1.039-.508,3.7,3.7,0,0,1,1.148-.18,3.319,3.319,0,0,1,1.09.164,2.277,2.277,0,0,1,.789.449,1.915,1.915,0,0,1,.48.66A1.966,1.966,0,0,1,109.773,10.875Zm-1.3.063a.9.9,0,0,0-.363-.766,1.565,1.565,0,0,0-.965-.273,2.163,2.163,0,0,0-.922.207,2.984,2.984,0,0,0-.82.57,3.56,3.56,0,0,0-.648.867,4.038,4.038,0,0,0-.4,1.09,13.5,13.5,0,0,0,1.9-.113,4.925,4.925,0,0,0,1.273-.332,1.712,1.712,0,0,0,.719-.535A1.2,1.2,0,0,0,108.469,10.938Zm8.648,3.6q-.055.25-.105.6t-.09.707q-.039.355-.066.668t-.027.484H115.5q0-.133.02-.355t.047-.465q.027-.242.059-.465t.055-.363h-.031a7.891,7.891,0,0,1-.562.8,3.256,3.256,0,0,1-.594.578,2.386,2.386,0,0,1-.664.348,2.434,2.434,0,0,1-.773.117,2.39,2.39,0,0,1-.984-.2,2.006,2.006,0,0,1-.746-.574,2.646,2.646,0,0,1-.473-.937,4.57,4.57,0,0,1-.164-1.285,6.325,6.325,0,0,1,.121-1.2,6.161,6.161,0,0,1,.375-1.227,5.749,5.749,0,0,1,.645-1.141,4.367,4.367,0,0,1,2.164-1.59,4.775,4.775,0,0,1,1.555-.238,5.273,5.273,0,0,1,.813.059q.375.059.648.121l.813-3.828h1.266Zm-.336-4.453a5.033,5.033,0,0,0-.621-.137,4.471,4.471,0,0,0-.691-.051,3.17,3.17,0,0,0-1.2.211,3.024,3.024,0,0,0-.906.563,3.367,3.367,0,0,0-.648.8,5.046,5.046,0,0,0-.422.922,5.248,5.248,0,0,0-.227.93,5.785,5.785,0,0,0-.066.824,3.949,3.949,0,0,0,.074.8,1.779,1.779,0,0,0,.242.617,1.157,1.157,0,0,0,.434.4,1.353,1.353,0,0,0,.641.141,1.658,1.658,0,0,0,.73-.164,2.516,2.516,0,0,0,.637-.445,3.677,3.677,0,0,0,.539-.648,6.291,6.291,0,0,0,.438-.781,6.943,6.943,0,0,0,.332-.84q.137-.426.223-.816ZM122,16.969a2.994,2.994,0,0,1-.441.1,3.111,3.111,0,0,1-.488.039,1.594,1.594,0,0,1-1.18-.395,1.439,1.439,0,0,1-.391-1.059,3.228,3.228,0,0,1,.039-.461q.039-.266.125-.656L120.828,9h1.3l-1.172,5.57q-.07.328-.1.508a2.079,2.079,0,0,0-.027.3.644.644,0,0,0,.176.488.787.787,0,0,0,.559.168,2.366,2.366,0,0,0,.355-.023,1.575,1.575,0,0,0,.285-.07Zm.914-10.82a.841.841,0,0,1-.238.6.782.782,0,0,1-.59.25.831.831,0,0,1-.6-.246.81.81,0,0,1-.254-.605.749.749,0,0,1,.254-.586.869.869,0,0,1,.6-.227.819.819,0,0,1,.586.23A.769.769,0,0,1,122.914,6.148Zm7.93,5.813a6.659,6.659,0,0,1-.3,2.016,5.153,5.153,0,0,1-.867,1.668,4.19,4.19,0,0,1-1.375,1.133,3.914,3.914,0,0,1-1.824.418,3.33,3.33,0,0,1-1.238-.219,2.576,2.576,0,0,1-.937-.629,2.786,2.786,0,0,1-.594-.992,3.912,3.912,0,0,1-.207-1.316,6.519,6.519,0,0,1,.316-2.059,5.2,5.2,0,0,1,.891-1.664,4.161,4.161,0,0,1,1.375-1.109,3.885,3.885,0,0,1,1.77-.4,3.308,3.308,0,0,1,1.23.219,2.614,2.614,0,0,1,.941.629,2.848,2.848,0,0,1,.605.992A3.783,3.783,0,0,1,130.844,11.961Zm-1.312.063a2.987,2.987,0,0,0-.125-.9,1.919,1.919,0,0,0-.352-.664,1.525,1.525,0,0,0-.547-.414,1.729,1.729,0,0,0-.719-.145,2.272,2.272,0,0,0-1.242.352,3.143,3.143,0,0,0-.937.926,4.591,4.591,0,0,0-.59,1.3,5.46,5.46,0,0,0-.207,1.5,2.988,2.988,0,0,0,.121.879,2,2,0,0,0,.344.672,1.484,1.484,0,0,0,.547.426,1.735,1.735,0,0,0,.73.148,2.3,2.3,0,0,0,1.25-.348,3.1,3.1,0,0,0,.938-.922,4.506,4.506,0,0,0,.586-1.309A5.6,5.6,0,0,0,129.531,12.023Zm13.359,2.516q-.055.25-.105.6t-.09.707q-.039.355-.066.668T142.6,17h-1.328q0-.133.02-.355t.047-.465q.027-.242.059-.465t.055-.363h-.031a7.891,7.891,0,0,1-.562.8,3.256,3.256,0,0,1-.594.578,2.385,2.385,0,0,1-.664.348,2.434,2.434,0,0,1-.773.117,2.39,2.39,0,0,1-.984-.2,2.006,2.006,0,0,1-.746-.574,2.646,2.646,0,0,1-.473-.937,4.57,4.57,0,0,1-.164-1.285,6.324,6.324,0,0,1,.121-1.2,6.162,6.162,0,0,1,.375-1.227,5.748,5.748,0,0,1,.645-1.141,4.367,4.367,0,0,1,2.164-1.59A4.775,4.775,0,0,1,141.32,8.8a5.273,5.273,0,0,1,.813.059q.375.059.648.121l.813-3.828h1.266Zm-.336-4.453a5.033,5.033,0,0,0-.621-.137,4.471,4.471,0,0,0-.691-.051,3.17,3.17,0,0,0-1.2.211,3.024,3.024,0,0,0-.906.563,3.367,3.367,0,0,0-.648.8,5.045,5.045,0,0,0-.422.922,5.248,5.248,0,0,0-.227.93,5.786,5.786,0,0,0-.066.824,3.949,3.949,0,0,0,.074.8,1.779,1.779,0,0,0,.242.617,1.157,1.157,0,0,0,.434.4,1.353,1.353,0,0,0,.641.141,1.658,1.658,0,0,0,.73-.164,2.516,2.516,0,0,0,.637-.445,3.676,3.676,0,0,0,.539-.648,6.291,6.291,0,0,0,.438-.781,6.943,6.943,0,0,0,.332-.84q.137-.426.223-.816Zm9.453.789a2.381,2.381,0,0,1-.281,1.152,2.331,2.331,0,0,1-.93.891,5.584,5.584,0,0,1-1.711.574,14.678,14.678,0,0,1-2.625.211,1,1,0,0,0-.016.18v.156a2.657,2.657,0,0,0,.117.8,1.8,1.8,0,0,0,.363.656,1.714,1.714,0,0,0,.633.445,2.341,2.341,0,0,0,.918.164,3.9,3.9,0,0,0,1.184-.207,5.087,5.087,0,0,0,1.23-.59l-.242,1.266a5.078,5.078,0,0,1-1.023.438,4.4,4.4,0,0,1-1.328.188,3.609,3.609,0,0,1-1.488-.273,2.621,2.621,0,0,1-.977-.73,2.848,2.848,0,0,1-.535-1.055,4.716,4.716,0,0,1-.164-1.254,5.8,5.8,0,0,1,.156-1.355,5.519,5.519,0,0,1,.441-1.215,5.149,5.149,0,0,1,.684-1.027,4.443,4.443,0,0,1,.883-.793,4.092,4.092,0,0,1,1.039-.508,3.7,3.7,0,0,1,1.148-.18,3.319,3.319,0,0,1,1.09.164,2.277,2.277,0,0,1,.789.449,1.915,1.915,0,0,1,.48.66A1.966,1.966,0,0,1,152.008,10.875Zm-1.3.063a.9.9,0,0,0-.363-.766,1.565,1.565,0,0,0-.965-.273,2.163,2.163,0,0,0-.922.207,2.984,2.984,0,0,0-.82.57,3.56,3.56,0,0,0-.648.867,4.038,4.038,0,0,0-.4,1.09,13.5,13.5,0,0,0,1.9-.113,4.925,4.925,0,0,0,1.273-.332,1.712,1.712,0,0,0,.719-.535A1.2,1.2,0,0,0,150.7,10.938Zm12.758-.352a2.941,2.941,0,0,0-.793-.488,2.582,2.582,0,0,0-1.027-.2,2.427,2.427,0,0,0-.973.188,2.684,2.684,0,0,0-.77.5,3.244,3.244,0,0,0-.578.719,4.793,4.793,0,0,0-.4.844,5.193,5.193,0,0,0-.23.871,4.809,4.809,0,0,0-.074.809,2.552,2.552,0,0,0,.492,1.7,1.672,1.672,0,0,0,1.344.578,2.957,2.957,0,0,0,1.07-.215,5.151,5.151,0,0,0,1.047-.551l-.273,1.281a5.483,5.483,0,0,1-1.012.426,3.666,3.666,0,0,1-1.066.152,3.029,3.029,0,0,1-1.277-.25,2.5,2.5,0,0,1-.9-.687,2.946,2.946,0,0,1-.539-1.035,4.472,4.472,0,0,1-.18-1.293,6.315,6.315,0,0,1,.133-1.293,5.569,5.569,0,0,1,.395-1.2,5.219,5.219,0,0,1,.645-1.051A4.107,4.107,0,0,1,160.477,9a4.451,4.451,0,0,1,1.961-.152,3.8,3.8,0,0,1,.555.125,3.736,3.736,0,0,1,.445.168,1.829,1.829,0,0,1,.313.176Zm7.492,4.141q-.07.3-.129.633l-.113.633q-.055.3-.094.57t-.062.438H169.3q.039-.3.09-.637t.1-.613q.055-.328.1-.641h-.031a6.607,6.607,0,0,1-.605.809,4.531,4.531,0,0,1-.719.664,3.413,3.413,0,0,1-.82.449,2.529,2.529,0,0,1-.9.164,2.346,2.346,0,0,1-.9-.16,1.741,1.741,0,0,1-.645-.449,1.886,1.886,0,0,1-.387-.7,2.988,2.988,0,0,1-.129-.906,2.2,2.2,0,0,1,.031-.3q.031-.2.07-.437t.09-.465q.051-.23.082-.395L165.656,9h1.3l-.992,4.688q-.031.125-.062.289t-.059.328q-.027.164-.043.3a2.008,2.008,0,0,0-.016.215,1.427,1.427,0,0,0,.285.934,1.042,1.042,0,0,0,.855.348,1.8,1.8,0,0,0,.688-.141,3.128,3.128,0,0,0,.668-.379,4.2,4.2,0,0,0,.613-.555,5.41,5.41,0,0,0,.523-.672,4.879,4.879,0,0,0,.4-.73,4.028,4.028,0,0,0,.242-.719L170.891,9h1.289Zm9.148-3.852a2.381,2.381,0,0,1-.281,1.152,2.331,2.331,0,0,1-.93.891,5.584,5.584,0,0,1-1.711.574,14.678,14.678,0,0,1-2.625.211,1,1,0,0,0-.016.18v.156a2.657,2.657,0,0,0,.117.8,1.8,1.8,0,0,0,.363.656,1.714,1.714,0,0,0,.633.445,2.341,2.341,0,0,0,.918.164,3.9,3.9,0,0,0,1.184-.207,5.087,5.087,0,0,0,1.23-.59l-.242,1.266a5.078,5.078,0,0,1-1.023.438,4.4,4.4,0,0,1-1.328.188,3.609,3.609,0,0,1-1.488-.273,2.621,2.621,0,0,1-.977-.73,2.848,2.848,0,0,1-.535-1.055,4.716,4.716,0,0,1-.164-1.254,5.8,5.8,0,0,1,.156-1.355,5.519,5.519,0,0,1,.441-1.215,5.149,5.149,0,0,1,.684-1.027,4.443,4.443,0,0,1,.883-.793,4.092,4.092,0,0,1,1.039-.508,3.7,3.7,0,0,1,1.148-.18,3.319,3.319,0,0,1,1.09.164,2.277,2.277,0,0,1,.789.449,1.915,1.915,0,0,1,.48.66A1.966,1.966,0,0,1,180.1,10.875Zm-1.3.063a.9.9,0,0,0-.363-.766,1.565,1.565,0,0,0-.965-.273,2.163,2.163,0,0,0-.922.207,2.984,2.984,0,0,0-.82.57,3.56,3.56,0,0,0-.648.867,4.038,4.038,0,0,0-.4,1.09,13.5,13.5,0,0,0,1.9-.113,4.925,4.925,0,0,0,1.273-.332,1.712,1.712,0,0,0,.719-.535A1.2,1.2,0,0,0,178.8,10.938Zm9.781.063a2.545,2.545,0,0,1-.027.32q-.027.2-.07.438t-.086.465q-.043.23-.082.395L187.383,17h-1.3l.977-4.687q.031-.125.063-.289t.055-.328q.023-.164.039-.3a2.008,2.008,0,0,0,.016-.215,1.424,1.424,0,0,0-.285-.937A1.038,1.038,0,0,0,186.1,9.9a1.972,1.972,0,0,0-1.023.3,4.21,4.21,0,0,0-.937.773,5.275,5.275,0,0,0-.738,1.031,3.952,3.952,0,0,0-.418,1.086L182.148,17h-1.3l1.234-5.711q.063-.3.125-.637t.117-.641q.055-.309.094-.574T182.484,9h1.25q-.039.3-.094.637t-.094.613q-.047.328-.1.641h.031a6.607,6.607,0,0,1,.605-.809,4.531,4.531,0,0,1,.719-.664,3.413,3.413,0,0,1,.82-.449,2.55,2.55,0,0,1,.91-.164,2.362,2.362,0,0,1,.914.16,1.712,1.712,0,0,1,.637.449,1.829,1.829,0,0,1,.375.7A3.108,3.108,0,0,1,188.578,11Zm6.211-.914h-2.016l-.9,4.242q-.047.242-.094.523a2.892,2.892,0,0,0-.047.453.789.789,0,0,0,.176.574.764.764,0,0,0,.559.176,1.228,1.228,0,0,0,.242-.031q.148-.031.3-.078t.309-.105l.27-.105-.242,1.125a3.788,3.788,0,0,1-.621.2,2.877,2.877,0,0,1-.66.082,2.234,2.234,0,0,1-.758-.113,1.3,1.3,0,0,1-.512-.324,1.256,1.256,0,0,1-.289-.512,2.359,2.359,0,0,1-.09-.676,3.789,3.789,0,0,1,.043-.527,5.464,5.464,0,0,1,.105-.551l.922-4.352h-1.328L190.406,9h1.313l.414-1.953a2.408,2.408,0,0,1,.238-.074q.207-.059.453-.133l.453-.137.23-.07L193.016,9h2.016Zm6.852,4.352q-.063.3-.121.668t-.1.734q-.043.363-.07.676T201.32,17h-1.328q.008-.156.023-.375t.043-.453q.027-.234.055-.461t.059-.391h-.031q-.242.383-.492.723a3.478,3.478,0,0,1-.555.6,2.429,2.429,0,0,1-.68.406,2.612,2.612,0,0,1-1.84-.039,2.006,2.006,0,0,1-.746-.559,2.574,2.574,0,0,1-.48-.93,4.531,4.531,0,0,1-.168-1.3,6.518,6.518,0,0,1,.094-1.031,6.309,6.309,0,0,1,.316-1.18,6.007,6.007,0,0,1,.594-1.176,4.465,4.465,0,0,1,.922-1.027,4.4,4.4,0,0,1,1.3-.727,5.051,5.051,0,0,1,1.734-.273,9.22,9.22,0,0,1,1.289.094q.664.094,1.32.227Zm-.367-4.383q-.273-.062-.641-.109a5.447,5.447,0,0,0-.687-.047,3.119,3.119,0,0,0-1.2.215,3.077,3.077,0,0,0-.9.563,3.313,3.313,0,0,0-.645.8,4.965,4.965,0,0,0-.418.926,5.448,5.448,0,0,0-.223.934,5.911,5.911,0,0,0-.066.836,3.744,3.744,0,0,0,.078.8,1.748,1.748,0,0,0,.246.605,1.156,1.156,0,0,0,.43.387,1.325,1.325,0,0,0,.621.137,1.692,1.692,0,0,0,.73-.16,2.532,2.532,0,0,0,.637-.434,3.56,3.56,0,0,0,.539-.633,6.225,6.225,0,0,0,.438-.762,6.515,6.515,0,0,0,.332-.82q.137-.418.223-.809Zm7.633.352a3.329,3.329,0,0,0-.789-.367,2.845,2.845,0,0,0-.875-.141,1.726,1.726,0,0,0-1.137.336,1.1,1.1,0,0,0-.4.891,1.116,1.116,0,0,0,.074.414,1.25,1.25,0,0,0,.219.355,1.986,1.986,0,0,0,.367.324q.223.156.512.336a4.028,4.028,0,0,1,1.262,1.043,2.01,2.01,0,0,1,.387,1.207,2.435,2.435,0,0,1-.168.887,2,2,0,0,1-.535.766,2.745,2.745,0,0,1-.949.535,4.331,4.331,0,0,1-1.418.2,4.7,4.7,0,0,1-.516-.031,5.462,5.462,0,0,1-.566-.094,4.941,4.941,0,0,1-.547-.152,2.407,2.407,0,0,1-.457-.207l.258-1.219a2.692,2.692,0,0,0,.387.219,4,4,0,0,0,.5.2,4.673,4.673,0,0,0,.563.141,3.166,3.166,0,0,0,.582.055,1.834,1.834,0,0,0,1.168-.312,1.053,1.053,0,0,0,.387-.867,1.155,1.155,0,0,0-.059-.375,1.052,1.052,0,0,0-.207-.344,2.3,2.3,0,0,0-.391-.348q-.242-.176-.609-.395a3.947,3.947,0,0,1-1.176-1.012,1.992,1.992,0,0,1-.379-1.191,2.432,2.432,0,0,1,.18-.926,2.24,2.24,0,0,1,.535-.781A2.6,2.6,0,0,1,206,9.008a3.559,3.559,0,0,1,1.258-.2,5.018,5.018,0,0,1,1.066.109,3.786,3.786,0,0,1,.855.281ZM222.023,11.8A6.076,6.076,0,0,1,221.9,13a6.206,6.206,0,0,1-.383,1.223,6.02,6.02,0,0,1-.645,1.141,4.626,4.626,0,0,1-.91.949,4.22,4.22,0,0,1-1.187.648,4.323,4.323,0,0,1-1.469.238,4.833,4.833,0,0,1-.91-.086,5.594,5.594,0,0,1-.785-.2l-.8,3.8h-1.3l1.953-9.25q.055-.25.1-.6t.082-.707q.035-.355.059-.668T215.734,9h1.313q0,.133-.02.359t-.051.473q-.031.246-.062.477t-.055.371h.031a4.221,4.221,0,0,1,1.25-1.41,2.672,2.672,0,0,1,1.516-.465,2.476,2.476,0,0,1,.984.188,1.949,1.949,0,0,1,.746.563,2.6,2.6,0,0,1,.473.938A4.675,4.675,0,0,1,222.023,11.8Zm-1.312.055a3.864,3.864,0,0,0-.074-.781,1.733,1.733,0,0,0-.246-.617,1.246,1.246,0,0,0-.441-.406,1.352,1.352,0,0,0-.66-.148,1.761,1.761,0,0,0-.762.168,2.623,2.623,0,0,0-.66.449,3.683,3.683,0,0,0-.555.652,6.482,6.482,0,0,0-.445.77,6.762,6.762,0,0,0-.332.8,6.038,6.038,0,0,0-.207.754l-.492,2.32a2.193,2.193,0,0,0,.336.113q.2.051.406.09t.43.063a3.83,3.83,0,0,0,.406.023,2.7,2.7,0,0,0,1-.18,2.891,2.891,0,0,0,.82-.488,3.446,3.446,0,0,0,.641-.727,4.822,4.822,0,0,0,.465-.891,5.242,5.242,0,0,0,.281-.977A5.4,5.4,0,0,0,220.711,11.852Zm9.875.109a6.659,6.659,0,0,1-.3,2.016,5.153,5.153,0,0,1-.867,1.668,4.19,4.19,0,0,1-1.375,1.133,3.914,3.914,0,0,1-1.824.418,3.33,3.33,0,0,1-1.238-.219,2.576,2.576,0,0,1-.937-.629,2.786,2.786,0,0,1-.594-.992,3.912,3.912,0,0,1-.207-1.316,6.519,6.519,0,0,1,.316-2.059,5.2,5.2,0,0,1,.891-1.664,4.161,4.161,0,0,1,1.375-1.109,3.885,3.885,0,0,1,1.77-.4,3.308,3.308,0,0,1,1.23.219,2.614,2.614,0,0,1,.941.629,2.848,2.848,0,0,1,.605.992A3.783,3.783,0,0,1,230.586,11.961Zm-1.312.063a2.987,2.987,0,0,0-.125-.9,1.919,1.919,0,0,0-.352-.664,1.525,1.525,0,0,0-.547-.414,1.729,1.729,0,0,0-.719-.145,2.272,2.272,0,0,0-1.242.352,3.143,3.143,0,0,0-.937.926,4.591,4.591,0,0,0-.59,1.3,5.46,5.46,0,0,0-.207,1.5,2.988,2.988,0,0,0,.121.879,2,2,0,0,0,.344.672,1.484,1.484,0,0,0,.547.426,1.735,1.735,0,0,0,.73.148,2.3,2.3,0,0,0,1.25-.348,3.1,3.1,0,0,0,.938-.922,4.506,4.506,0,0,0,.586-1.309A5.6,5.6,0,0,0,229.273,12.023Zm7.906-1.664h-.031a2.307,2.307,0,0,0-.41-.184,1.5,1.5,0,0,0-.5-.09,1.479,1.479,0,0,0-.867.293,3.188,3.188,0,0,0-.754.773,5.549,5.549,0,0,0-.594,1.1,7.5,7.5,0,0,0-.395,1.266L232.875,17h-1.281l1.125-5.312q.07-.328.141-.687t.129-.719q.059-.359.105-.687t.07-.594h1.266q-.023.234-.055.5t-.062.508q-.031.246-.062.445t-.047.309h.031a8.624,8.624,0,0,1,.508-.8,3.717,3.717,0,0,1,.543-.613,2.3,2.3,0,0,1,.605-.395,1.71,1.71,0,0,1,.7-.141,2.206,2.206,0,0,1,.434.043q.215.043.387.09ZM249.336,11.8a6.076,6.076,0,0,1-.125,1.2,6.206,6.206,0,0,1-.383,1.223,6.02,6.02,0,0,1-.645,1.141,4.626,4.626,0,0,1-.91.949,4.22,4.22,0,0,1-1.187.648,4.323,4.323,0,0,1-1.469.238,4.833,4.833,0,0,1-.91-.086,5.594,5.594,0,0,1-.785-.2l-.8,3.8h-1.3l1.953-9.25q.055-.25.1-.6t.082-.707q.035-.355.059-.668T243.047,9h1.313q0,.133-.02.359t-.051.473q-.031.246-.062.477t-.055.371h.031a4.221,4.221,0,0,1,1.25-1.41,2.672,2.672,0,0,1,1.516-.465,2.476,2.476,0,0,1,.984.188,1.949,1.949,0,0,1,.746.563,2.6,2.6,0,0,1,.473.938A4.675,4.675,0,0,1,249.336,11.8Zm-1.312.055a3.864,3.864,0,0,0-.074-.781,1.733,1.733,0,0,0-.246-.617,1.246,1.246,0,0,0-.441-.406,1.352,1.352,0,0,0-.66-.148,1.761,1.761,0,0,0-.762.168,2.623,2.623,0,0,0-.66.449,3.683,3.683,0,0,0-.555.652,6.482,6.482,0,0,0-.445.77,6.762,6.762,0,0,0-.332.8,6.038,6.038,0,0,0-.207.754l-.492,2.32a2.193,2.193,0,0,0,.336.113q.2.051.406.09t.43.063a3.83,3.83,0,0,0,.406.023,2.7,2.7,0,0,0,1-.18,2.891,2.891,0,0,0,.82-.488,3.446,3.446,0,0,0,.641-.727,4.822,4.822,0,0,0,.465-.891,5.242,5.242,0,0,0,.281-.977A5.4,5.4,0,0,0,248.023,11.852Zm8.992,2.586q-.062.3-.121.668t-.1.734q-.043.363-.07.676T256.7,17h-1.328q.008-.156.023-.375t.043-.453q.027-.234.055-.461t.059-.391h-.031q-.242.383-.492.723a3.478,3.478,0,0,1-.555.6,2.429,2.429,0,0,1-.68.406,2.612,2.612,0,0,1-1.84-.039,2.006,2.006,0,0,1-.746-.559,2.574,2.574,0,0,1-.48-.93,4.531,4.531,0,0,1-.168-1.3,6.518,6.518,0,0,1,.094-1.031,6.309,6.309,0,0,1,.316-1.18,6.007,6.007,0,0,1,.594-1.176A4.465,4.465,0,0,1,252.48,9.8a4.4,4.4,0,0,1,1.3-.727,5.051,5.051,0,0,1,1.734-.273A9.22,9.22,0,0,1,256.8,8.9q.664.094,1.32.227Zm-.367-4.383q-.273-.062-.641-.109a5.447,5.447,0,0,0-.687-.047,3.119,3.119,0,0,0-1.2.215,3.077,3.077,0,0,0-.9.563,3.313,3.313,0,0,0-.645.8,4.965,4.965,0,0,0-.418.926,5.448,5.448,0,0,0-.223.934,5.911,5.911,0,0,0-.066.836,3.744,3.744,0,0,0,.078.8,1.748,1.748,0,0,0,.246.605,1.156,1.156,0,0,0,.43.387,1.325,1.325,0,0,0,.621.137,1.692,1.692,0,0,0,.73-.16,2.532,2.532,0,0,0,.637-.434,3.56,3.56,0,0,0,.539-.633,6.225,6.225,0,0,0,.438-.762,6.515,6.515,0,0,0,.332-.82q.137-.418.223-.809Zm8.609,6.367a10.135,10.135,0,0,1-.516,1.73,4.58,4.58,0,0,1-.848,1.375,3.611,3.611,0,0,1-1.3.906,4.869,4.869,0,0,1-1.883.324,4.42,4.42,0,0,1-1.332-.18,6.143,6.143,0,0,1-1.035-.43l.242-1.2a6.048,6.048,0,0,0,1.047.5,3.45,3.45,0,0,0,1.2.2,3.263,3.263,0,0,0,1.207-.2,2.424,2.424,0,0,0,.883-.6,3.3,3.3,0,0,0,.617-.965,7.336,7.336,0,0,0,.41-1.3l.273-1.25h-.031a7.841,7.841,0,0,1-.582.824,3.356,3.356,0,0,1-.6.578,2.334,2.334,0,0,1-.656.344A2.589,2.589,0,0,1,260.617,17a1.985,1.985,0,0,1-.746-.566,2.649,2.649,0,0,1-.477-.937,4.542,4.542,0,0,1-.168-1.3,6.163,6.163,0,0,1,.152-1.367,5.985,5.985,0,0,1,.441-1.273,5.361,5.361,0,0,1,.707-1.105,4.7,4.7,0,0,1,.949-.871,4.475,4.475,0,0,1,1.168-.574,4.383,4.383,0,0,1,1.363-.207,11.344,11.344,0,0,1,1.453.094q.727.094,1.336.211Zm.063-6.367a6.182,6.182,0,0,0-.645-.109,6.6,6.6,0,0,0-.809-.047,2.712,2.712,0,0,0-1.344.34,3.373,3.373,0,0,0-1.051.922,4.458,4.458,0,0,0-.687,1.355,5.353,5.353,0,0,0-.246,1.633,3.865,3.865,0,0,0,.074.781,1.882,1.882,0,0,0,.234.617,1.188,1.188,0,0,0,.414.406,1.212,1.212,0,0,0,.621.148,1.764,1.764,0,0,0,.793-.18,2.617,2.617,0,0,0,.668-.477,3.655,3.655,0,0,0,.543-.676,6.826,6.826,0,0,0,.422-.777,7.086,7.086,0,0,0,.309-.785q.125-.387.2-.7Zm9.039,4.383q-.062.3-.121.668t-.1.734q-.043.363-.07.676t-.027.484h-1.328q.008-.156.023-.375t.043-.453q.027-.234.055-.461t.059-.391h-.031q-.242.383-.492.723a3.478,3.478,0,0,1-.555.6,2.429,2.429,0,0,1-.68.406,2.612,2.612,0,0,1-1.84-.039,2.006,2.006,0,0,1-.746-.559,2.574,2.574,0,0,1-.48-.93,4.532,4.532,0,0,1-.168-1.3,6.518,6.518,0,0,1,.094-1.031,6.309,6.309,0,0,1,.316-1.18,6.006,6.006,0,0,1,.594-1.176,4.465,4.465,0,0,1,.922-1.027,4.4,4.4,0,0,1,1.3-.727,5.051,5.051,0,0,1,1.734-.273,9.221,9.221,0,0,1,1.289.094q.664.094,1.32.227Zm-.367-4.383q-.273-.062-.641-.109a5.447,5.447,0,0,0-.687-.047,3.118,3.118,0,0,0-1.2.215,3.077,3.077,0,0,0-.9.563,3.312,3.312,0,0,0-.645.8,4.965,4.965,0,0,0-.418.926,5.45,5.45,0,0,0-.223.934,5.909,5.909,0,0,0-.066.836,3.743,3.743,0,0,0,.078.8,1.749,1.749,0,0,0,.246.605,1.156,1.156,0,0,0,.43.387,1.325,1.325,0,0,0,.621.137,1.692,1.692,0,0,0,.73-.16,2.532,2.532,0,0,0,.637-.434,3.561,3.561,0,0,0,.539-.633,6.225,6.225,0,0,0,.438-.762,6.515,6.515,0,0,0,.332-.82q.137-.418.223-.809Zm7.953.3h-.031a2.306,2.306,0,0,0-.41-.184,1.5,1.5,0,0,0-.5-.09,1.479,1.479,0,0,0-.867.293,3.188,3.188,0,0,0-.754.773,5.55,5.55,0,0,0-.594,1.1,7.5,7.5,0,0,0-.395,1.266L277.641,17h-1.281l1.125-5.312q.07-.328.141-.687t.129-.719q.059-.359.105-.687T277.93,9H279.2q-.023.234-.055.5t-.062.508q-.031.246-.062.445t-.047.309H279a8.621,8.621,0,0,1,.508-.8,3.718,3.718,0,0,1,.543-.613,2.3,2.3,0,0,1,.605-.395,1.71,1.71,0,0,1,.7-.141,2.205,2.205,0,0,1,.434.043q.215.043.387.09Zm6.094.836V10.148h7.344V11.2Zm0,3.328V13.477h7.344v1.047Z" transform="translate(-13.583 12)" fill="#12263f"/>
      <path id="Trazado_908459" data-name="Trazado 908459" d="M87.377,8.117A3.281,3.281,0,0,1,87.2,9.184a2.6,2.6,0,0,1-.539.91,3.243,3.243,0,0,1-.937.7,4.822,4.822,0,0,1-1.359.434v.031a2.607,2.607,0,0,1,.859.281,2.319,2.319,0,0,1,1.1,1.266,2.582,2.582,0,0,1,.152.9,3.527,3.527,0,0,1-.258,1.344,3.015,3.015,0,0,1-.785,1.109,3.872,3.872,0,0,1-1.32.758,5.576,5.576,0,0,1-1.863.281,6.015,6.015,0,0,1-.844-.059,7.785,7.785,0,0,1-.777-.148,6.172,6.172,0,0,1-.668-.2,4.267,4.267,0,0,1-.523-.23l.273-1.219a4.154,4.154,0,0,0,.5.281,4.637,4.637,0,0,0,.633.246,5.907,5.907,0,0,0,.711.172,4.184,4.184,0,0,0,.738.066,4.1,4.1,0,0,0,1.375-.2,2.46,2.46,0,0,0,.891-.523,1.836,1.836,0,0,0,.477-.742,2.666,2.666,0,0,0,.141-.855,1.777,1.777,0,0,0-.687-1.473,3.319,3.319,0,0,0-2.078-.543h-.852l.242-1.1h.93A5.638,5.638,0,0,0,84.17,10.5a3.181,3.181,0,0,0,1.043-.465,1.979,1.979,0,0,0,.637-.73,2.119,2.119,0,0,0,.215-.961,1.849,1.849,0,0,0-.109-.637,1.369,1.369,0,0,0-.34-.523,1.685,1.685,0,0,0-.578-.355A2.333,2.333,0,0,0,84.2,6.7a4.781,4.781,0,0,0-.762.059,5.619,5.619,0,0,0-.684.152,5.346,5.346,0,0,0-1.078.445l.266-1.281q.2-.078.453-.16a5.633,5.633,0,0,1,.555-.148q.3-.066.672-.109a6.952,6.952,0,0,1,.8-.043,3.668,3.668,0,0,1,1.344.219,2.675,2.675,0,0,1,.914.574,2.171,2.171,0,0,1,.523.8A2.635,2.635,0,0,1,87.377,8.117Zm8.859-.977a3.482,3.482,0,0,0-.789-.316,3.7,3.7,0,0,0-1-.129,3.229,3.229,0,0,0-1.2.227,3.742,3.742,0,0,0-1.055.641,4.337,4.337,0,0,0-.734.785,7.051,7.051,0,0,0-.605.988,8.463,8.463,0,0,0-.465,1.105,8.666,8.666,0,0,0-.3,1.137h.031a3.29,3.29,0,0,1,.492-.625,3.38,3.38,0,0,1,.645-.5,3.22,3.22,0,0,1,.773-.336,3.369,3.369,0,0,1,2.09.1,2.361,2.361,0,0,1,.875.617,2.659,2.659,0,0,1,.531.953,3.991,3.991,0,0,1,.18,1.234,4.882,4.882,0,0,1-.246,1.531,4.148,4.148,0,0,1-.727,1.34,3.647,3.647,0,0,1-1.184.949,3.487,3.487,0,0,1-1.609.359,3.444,3.444,0,0,1-1.312-.242,2.66,2.66,0,0,1-1.02-.734,3.446,3.446,0,0,1-.66-1.234,5.8,5.8,0,0,1-.234-1.742,10,10,0,0,1,.191-1.965,9.442,9.442,0,0,1,.547-1.8A7.994,7.994,0,0,1,90.3,7.918a5.857,5.857,0,0,1,1.137-1.207,4.953,4.953,0,0,1,1.527-.832,5.193,5.193,0,0,1,1.637-.27,5.33,5.33,0,0,1,1.105.105,5.6,5.6,0,0,1,.785.215Zm-1.852,5.984a2.73,2.73,0,0,0-.113-.8,1.772,1.772,0,0,0-.348-.645,1.6,1.6,0,0,0-.6-.43,2.226,2.226,0,0,0-.875-.156,2.273,2.273,0,0,0-1.812.82,2.584,2.584,0,0,0-.461.828,2.879,2.879,0,0,0-.156.93,3.352,3.352,0,0,0,.141,1,2.271,2.271,0,0,0,.4.766,1.749,1.749,0,0,0,.629.488,1.957,1.957,0,0,0,.832.172,1.977,1.977,0,0,0,1-.254,2.366,2.366,0,0,0,.742-.668,3.117,3.117,0,0,0,.461-.953A3.848,3.848,0,0,0,94.384,13.125Zm10.258-6.156h-4.211l-.687,3.266.828-.031a3.568,3.568,0,0,1,2.438.77,2.734,2.734,0,0,1,.875,2.168,4.074,4.074,0,0,1-.57,2.133,3.629,3.629,0,0,1-1.582,1.438,5.4,5.4,0,0,1-2.355.484,8.377,8.377,0,0,1-1.387-.117,4.335,4.335,0,0,1-1.1-.3l.289-1.258a3.418,3.418,0,0,0,1.031.422,5.058,5.058,0,0,0,1.258.164,3.605,3.605,0,0,0,1.672-.355,2.581,2.581,0,0,0,1.059-.977,2.681,2.681,0,0,0,.371-1.4,1.977,1.977,0,0,0-.562-1.527,2.581,2.581,0,0,0-1.789-.52q-1.086,0-1.945.078l1.18-5.6h5.422Zm11.836,7.57q-.055.25-.105.6t-.09.707q-.039.355-.066.668t-.027.484h-1.328q0-.133.02-.355t.047-.465q.027-.242.059-.465t.055-.363h-.031a7.891,7.891,0,0,1-.562.8,3.256,3.256,0,0,1-.594.578,2.386,2.386,0,0,1-.664.348,2.434,2.434,0,0,1-.773.117,2.39,2.39,0,0,1-.984-.2,2.006,2.006,0,0,1-.746-.574,2.646,2.646,0,0,1-.473-.937,4.57,4.57,0,0,1-.164-1.285,6.325,6.325,0,0,1,.121-1.2,6.161,6.161,0,0,1,.375-1.227,5.749,5.749,0,0,1,.645-1.141,4.367,4.367,0,0,1,2.164-1.59,4.775,4.775,0,0,1,1.555-.238,5.273,5.273,0,0,1,.813.059q.375.059.648.121l.813-3.828h1.266Zm-.336-4.453a5.033,5.033,0,0,0-.621-.137,4.471,4.471,0,0,0-.691-.051,3.17,3.17,0,0,0-1.2.211,3.024,3.024,0,0,0-.906.563,3.367,3.367,0,0,0-.648.8,5.046,5.046,0,0,0-.422.922,5.248,5.248,0,0,0-.227.93,5.785,5.785,0,0,0-.066.824,3.949,3.949,0,0,0,.074.8,1.779,1.779,0,0,0,.242.617,1.157,1.157,0,0,0,.434.4,1.353,1.353,0,0,0,.641.141,1.658,1.658,0,0,0,.73-.164,2.516,2.516,0,0,0,.637-.445,3.677,3.677,0,0,0,.539-.648,6.291,6.291,0,0,0,.438-.781,6.943,6.943,0,0,0,.332-.84q.137-.426.223-.816Zm5.219,6.883a2.994,2.994,0,0,1-.441.1,3.111,3.111,0,0,1-.488.039,1.594,1.594,0,0,1-1.18-.395,1.439,1.439,0,0,1-.391-1.059,3.228,3.228,0,0,1,.039-.461q.039-.266.125-.656L120.189,9h1.3l-1.172,5.57q-.07.328-.1.508a2.079,2.079,0,0,0-.027.3.644.644,0,0,0,.176.488.787.787,0,0,0,.559.168,2.366,2.366,0,0,0,.355-.023,1.575,1.575,0,0,0,.285-.07Zm-.633-9.492h-.961l2.258-2.555h1.258Zm8.594,6.961q-.063.3-.121.668t-.1.734q-.043.363-.07.676T129,17h-1.328q.008-.156.023-.375t.043-.453q.027-.234.055-.461t.059-.391h-.031q-.242.383-.492.723a3.478,3.478,0,0,1-.555.6,2.429,2.429,0,0,1-.68.406,2.612,2.612,0,0,1-1.84-.039,2.006,2.006,0,0,1-.746-.559,2.574,2.574,0,0,1-.48-.93,4.532,4.532,0,0,1-.168-1.3,6.518,6.518,0,0,1,.094-1.031,6.309,6.309,0,0,1,.316-1.18,6.006,6.006,0,0,1,.594-1.176,4.465,4.465,0,0,1,.922-1.027,4.4,4.4,0,0,1,1.3-.727,5.051,5.051,0,0,1,1.734-.273,9.22,9.22,0,0,1,1.289.094q.664.094,1.32.227Zm-.367-4.383q-.273-.062-.641-.109a5.447,5.447,0,0,0-.687-.047,3.119,3.119,0,0,0-1.2.215,3.077,3.077,0,0,0-.9.563,3.312,3.312,0,0,0-.645.8,4.965,4.965,0,0,0-.418.926,5.449,5.449,0,0,0-.223.934,5.91,5.91,0,0,0-.066.836,3.744,3.744,0,0,0,.078.8,1.749,1.749,0,0,0,.246.605,1.156,1.156,0,0,0,.43.387,1.325,1.325,0,0,0,.621.137,1.692,1.692,0,0,0,.73-.16,2.532,2.532,0,0,0,.637-.434,3.56,3.56,0,0,0,.539-.633,6.225,6.225,0,0,0,.438-.762,6.515,6.515,0,0,0,.332-.82q.137-.418.223-.809Zm7.633.352a3.329,3.329,0,0,0-.789-.367,2.845,2.845,0,0,0-.875-.141,1.726,1.726,0,0,0-1.137.336,1.1,1.1,0,0,0-.4.891,1.116,1.116,0,0,0,.074.414,1.25,1.25,0,0,0,.219.355,1.986,1.986,0,0,0,.367.324q.223.156.512.336a4.028,4.028,0,0,1,1.262,1.043A2.01,2.01,0,0,1,136.2,14.8a2.435,2.435,0,0,1-.168.887,2,2,0,0,1-.535.766,2.745,2.745,0,0,1-.949.535,4.331,4.331,0,0,1-1.418.2,4.7,4.7,0,0,1-.516-.031,5.462,5.462,0,0,1-.566-.094,4.941,4.941,0,0,1-.547-.152,2.407,2.407,0,0,1-.457-.207l.258-1.219a2.692,2.692,0,0,0,.387.219,4,4,0,0,0,.5.2,4.673,4.673,0,0,0,.563.141,3.166,3.166,0,0,0,.582.055,1.834,1.834,0,0,0,1.168-.312,1.053,1.053,0,0,0,.387-.867,1.155,1.155,0,0,0-.059-.375,1.052,1.052,0,0,0-.207-.344,2.3,2.3,0,0,0-.391-.348q-.242-.176-.609-.395a3.947,3.947,0,0,1-1.176-1.012,1.992,1.992,0,0,1-.379-1.191,2.432,2.432,0,0,1,.18-.926,2.24,2.24,0,0,1,.535-.781,2.6,2.6,0,0,1,.895-.543,3.559,3.559,0,0,1,1.258-.2,5.018,5.018,0,0,1,1.066.109,3.786,3.786,0,0,1,.855.281ZM22.478,32.57a3.269,3.269,0,0,1-.254,1.313,3.031,3.031,0,0,1-.7,1.008,3.416,3.416,0,0,1-1.062.676,4.532,4.532,0,0,1-1.344.316v.031a1.3,1.3,0,0,1,.645.492,3.027,3.027,0,0,1,.449,1.008L21.15,41H19.713l-.828-3.344a2.026,2.026,0,0,0-.574-1.078,1.531,1.531,0,0,0-1.043-.344h-.977L15.267,41H13.923l2.367-11.2h3.086a4.028,4.028,0,0,1,1.406.219,2.615,2.615,0,0,1,.961.6,2.373,2.373,0,0,1,.555.883A3.175,3.175,0,0,1,22.478,32.57Zm-1.375.141a1.976,1.976,0,0,0-.117-.691,1.431,1.431,0,0,0-.359-.547,1.666,1.666,0,0,0-.617-.359,2.747,2.747,0,0,0-.891-.129H17.392l-.859,4.063H18.08a4.36,4.36,0,0,0,1.395-.2,2.728,2.728,0,0,0,.938-.516,1.894,1.894,0,0,0,.527-.746A2.424,2.424,0,0,0,21.1,32.711Zm9.508,3.25a6.659,6.659,0,0,1-.3,2.016,5.154,5.154,0,0,1-.867,1.668,4.19,4.19,0,0,1-1.375,1.133,3.914,3.914,0,0,1-1.824.418,3.33,3.33,0,0,1-1.238-.219,2.576,2.576,0,0,1-.937-.629,2.786,2.786,0,0,1-.594-.992,3.912,3.912,0,0,1-.207-1.316,6.519,6.519,0,0,1,.316-2.059,5.2,5.2,0,0,1,.891-1.664,4.161,4.161,0,0,1,1.375-1.109,3.885,3.885,0,0,1,1.77-.4,3.308,3.308,0,0,1,1.23.219,2.614,2.614,0,0,1,.941.629,2.848,2.848,0,0,1,.605.992A3.783,3.783,0,0,1,30.611,35.961Zm-1.312.063a2.987,2.987,0,0,0-.125-.9,1.919,1.919,0,0,0-.352-.664,1.525,1.525,0,0,0-.547-.414,1.729,1.729,0,0,0-.719-.145,2.272,2.272,0,0,0-1.242.352,3.143,3.143,0,0,0-.937.926,4.591,4.591,0,0,0-.59,1.3,5.46,5.46,0,0,0-.207,1.5,2.988,2.988,0,0,0,.121.879,2,2,0,0,0,.344.672,1.484,1.484,0,0,0,.547.426,1.735,1.735,0,0,0,.73.148,2.3,2.3,0,0,0,1.25-.348,3.1,3.1,0,0,0,.938-.922,4.506,4.506,0,0,0,.586-1.309A5.6,5.6,0,0,0,29.3,36.023Zm7.313-1.937H34.6l-.9,4.242q-.047.242-.094.523a2.892,2.892,0,0,0-.047.453.789.789,0,0,0,.176.574.764.764,0,0,0,.559.176,1.228,1.228,0,0,0,.242-.031q.148-.031.3-.078t.309-.105l.27-.105-.242,1.125a3.788,3.788,0,0,1-.621.2,2.877,2.877,0,0,1-.66.082,2.234,2.234,0,0,1-.758-.113,1.3,1.3,0,0,1-.512-.324,1.256,1.256,0,0,1-.289-.512,2.359,2.359,0,0,1-.09-.676,3.788,3.788,0,0,1,.043-.527,5.466,5.466,0,0,1,.105-.551l.922-4.352H31.986L32.228,33h1.313l.414-1.953a2.408,2.408,0,0,1,.238-.074q.207-.059.453-.133L35.1,30.7l.23-.07L34.838,33h2.016Zm6.852,4.352q-.063.3-.121.668t-.1.734q-.043.363-.07.676T43.142,41H41.814q.008-.156.023-.375t.043-.453q.027-.234.055-.461t.059-.391h-.031q-.242.383-.492.723a3.478,3.478,0,0,1-.555.6,2.429,2.429,0,0,1-.68.406,2.612,2.612,0,0,1-1.84-.039,2.006,2.006,0,0,1-.746-.559,2.574,2.574,0,0,1-.48-.93,4.532,4.532,0,0,1-.168-1.3,6.518,6.518,0,0,1,.094-1.031,6.309,6.309,0,0,1,.316-1.18,6.006,6.006,0,0,1,.594-1.176,4.465,4.465,0,0,1,.922-1.027,4.4,4.4,0,0,1,1.3-.727,5.051,5.051,0,0,1,1.734-.273,9.22,9.22,0,0,1,1.289.094q.664.094,1.32.227ZM43.1,34.055q-.273-.063-.641-.109a5.447,5.447,0,0,0-.687-.047,3.118,3.118,0,0,0-1.2.215,3.077,3.077,0,0,0-.9.563,3.313,3.313,0,0,0-.645.8,4.965,4.965,0,0,0-.418.926,5.448,5.448,0,0,0-.223.934,5.91,5.91,0,0,0-.066.836,3.744,3.744,0,0,0,.078.8,1.748,1.748,0,0,0,.246.605,1.156,1.156,0,0,0,.43.387,1.325,1.325,0,0,0,.621.137,1.692,1.692,0,0,0,.73-.16,2.532,2.532,0,0,0,.637-.434,3.56,3.56,0,0,0,.539-.633,6.225,6.225,0,0,0,.438-.762,6.515,6.515,0,0,0,.332-.82q.137-.418.223-.809Zm8.719.531a2.941,2.941,0,0,0-.793-.488,2.582,2.582,0,0,0-1.027-.2,2.427,2.427,0,0,0-.973.188,2.684,2.684,0,0,0-.77.5,3.244,3.244,0,0,0-.578.719,4.792,4.792,0,0,0-.4.844,5.193,5.193,0,0,0-.23.871,4.81,4.81,0,0,0-.074.809,2.552,2.552,0,0,0,.492,1.7,1.672,1.672,0,0,0,1.344.578,2.957,2.957,0,0,0,1.07-.215,5.152,5.152,0,0,0,1.047-.551l-.273,1.281a5.483,5.483,0,0,1-1.012.426,3.666,3.666,0,0,1-1.066.152,3.029,3.029,0,0,1-1.277-.25,2.5,2.5,0,0,1-.9-.687,2.946,2.946,0,0,1-.539-1.035,4.472,4.472,0,0,1-.18-1.293,6.315,6.315,0,0,1,.133-1.293,5.569,5.569,0,0,1,.395-1.2,5.218,5.218,0,0,1,.645-1.051A4.107,4.107,0,0,1,48.83,33a4.451,4.451,0,0,1,1.961-.152,3.8,3.8,0,0,1,.555.125,3.737,3.737,0,0,1,.445.168,1.829,1.829,0,0,1,.313.176Zm3.477,6.383a2.994,2.994,0,0,1-.441.1,3.11,3.11,0,0,1-.488.039,1.594,1.594,0,0,1-1.18-.395,1.439,1.439,0,0,1-.391-1.059,3.227,3.227,0,0,1,.039-.461q.039-.266.125-.656L54.119,33h1.3l-1.172,5.57q-.07.328-.1.508a2.079,2.079,0,0,0-.027.3.644.644,0,0,0,.176.488.787.787,0,0,0,.559.168,2.366,2.366,0,0,0,.355-.023,1.575,1.575,0,0,0,.285-.07Zm.914-10.82a.841.841,0,0,1-.238.6.782.782,0,0,1-.59.25.831.831,0,0,1-.6-.246.81.81,0,0,1-.254-.605.749.749,0,0,1,.254-.586.869.869,0,0,1,.6-.227.819.819,0,0,1,.586.23A.769.769,0,0,1,56.2,30.148Zm7.93,5.813a6.659,6.659,0,0,1-.3,2.016,5.153,5.153,0,0,1-.867,1.668,4.19,4.19,0,0,1-1.375,1.133,3.914,3.914,0,0,1-1.824.418,3.33,3.33,0,0,1-1.238-.219,2.576,2.576,0,0,1-.937-.629A2.786,2.786,0,0,1,57,39.355a3.912,3.912,0,0,1-.207-1.316,6.519,6.519,0,0,1,.316-2.059A5.2,5.2,0,0,1,58,34.316a4.161,4.161,0,0,1,1.375-1.109,3.885,3.885,0,0,1,1.77-.4,3.308,3.308,0,0,1,1.23.219,2.614,2.614,0,0,1,.941.629,2.848,2.848,0,0,1,.605.992A3.783,3.783,0,0,1,64.134,35.961Zm-1.312.063a2.987,2.987,0,0,0-.125-.9,1.919,1.919,0,0,0-.352-.664,1.525,1.525,0,0,0-.547-.414,1.729,1.729,0,0,0-.719-.145,2.272,2.272,0,0,0-1.242.352,3.143,3.143,0,0,0-.937.926,4.591,4.591,0,0,0-.59,1.3,5.46,5.46,0,0,0-.207,1.5,2.988,2.988,0,0,0,.121.879,2,2,0,0,0,.344.672,1.484,1.484,0,0,0,.547.426,1.735,1.735,0,0,0,.73.148,2.3,2.3,0,0,0,1.25-.348,3.1,3.1,0,0,0,.938-.922,4.506,4.506,0,0,0,.586-1.309A5.6,5.6,0,0,0,62.822,36.023Zm-1.648-4.547h-.961l2.258-2.555h1.258ZM72.916,35a2.547,2.547,0,0,1-.027.32q-.027.2-.07.438t-.086.465q-.043.23-.082.395L71.72,41h-1.3l.977-4.687q.031-.125.063-.289t.055-.328q.023-.164.039-.3a2.01,2.01,0,0,0,.016-.215,1.424,1.424,0,0,0-.285-.937,1.038,1.038,0,0,0-.848-.344,1.972,1.972,0,0,0-1.023.3,4.211,4.211,0,0,0-.937.773,5.274,5.274,0,0,0-.738,1.031,3.952,3.952,0,0,0-.418,1.086L66.486,41h-1.3l1.234-5.711q.062-.3.125-.637t.117-.641q.055-.309.094-.574T66.822,33h1.25q-.039.3-.094.637t-.094.613q-.047.328-.1.641h.031a6.607,6.607,0,0,1,.605-.809,4.531,4.531,0,0,1,.719-.664,3.413,3.413,0,0,1,.82-.449,2.55,2.55,0,0,1,.91-.164,2.362,2.362,0,0,1,.914.16,1.712,1.712,0,0,1,.637.449,1.829,1.829,0,0,1,.375.7A3.108,3.108,0,0,1,72.916,35Zm11.969-.414a2.941,2.941,0,0,0-.793-.488,2.582,2.582,0,0,0-1.027-.2,2.427,2.427,0,0,0-.973.188,2.684,2.684,0,0,0-.77.5,3.244,3.244,0,0,0-.578.719,4.792,4.792,0,0,0-.4.844,5.193,5.193,0,0,0-.23.871,4.81,4.81,0,0,0-.074.809,2.552,2.552,0,0,0,.492,1.7,1.672,1.672,0,0,0,1.344.578,2.957,2.957,0,0,0,1.07-.215,5.152,5.152,0,0,0,1.047-.551l-.273,1.281a5.483,5.483,0,0,1-1.012.426,3.666,3.666,0,0,1-1.066.152,3.029,3.029,0,0,1-1.277-.25,2.5,2.5,0,0,1-.9-.687,2.946,2.946,0,0,1-.539-1.035,4.472,4.472,0,0,1-.18-1.293,6.315,6.315,0,0,1,.133-1.293,5.569,5.569,0,0,1,.395-1.2,5.218,5.218,0,0,1,.645-1.051A4.107,4.107,0,0,1,81.9,33a4.451,4.451,0,0,1,1.961-.152,3.8,3.8,0,0,1,.555.125,3.737,3.737,0,0,1,.445.168,1.829,1.829,0,0,1,.313.176Zm7.492,4.141q-.07.3-.129.633l-.113.633q-.055.3-.094.57T91.978,41h-1.25q.039-.3.09-.637t.1-.613q.055-.328.1-.641h-.031a6.607,6.607,0,0,1-.605.809,4.531,4.531,0,0,1-.719.664,3.413,3.413,0,0,1-.82.449,2.529,2.529,0,0,1-.9.164,2.346,2.346,0,0,1-.9-.16,1.741,1.741,0,0,1-.645-.449,1.886,1.886,0,0,1-.387-.7,2.988,2.988,0,0,1-.129-.906,2.2,2.2,0,0,1,.031-.3q.031-.2.07-.437t.09-.465q.051-.23.082-.395L87.08,33h1.3l-.992,4.688q-.031.125-.062.289t-.059.328q-.027.164-.043.3a2.01,2.01,0,0,0-.016.215,1.427,1.427,0,0,0,.285.934,1.042,1.042,0,0,0,.855.348,1.8,1.8,0,0,0,.688-.141,3.128,3.128,0,0,0,.668-.379,4.2,4.2,0,0,0,.613-.555,5.41,5.41,0,0,0,.523-.672,4.879,4.879,0,0,0,.4-.73,4.028,4.028,0,0,0,.242-.719L92.314,33H93.6Zm9.148-3.852a2.381,2.381,0,0,1-.281,1.152,2.331,2.331,0,0,1-.93.891,5.584,5.584,0,0,1-1.711.574,14.678,14.678,0,0,1-2.625.211,1,1,0,0,0-.016.18v.156a2.657,2.657,0,0,0,.117.8,1.8,1.8,0,0,0,.363.656,1.714,1.714,0,0,0,.633.445,2.341,2.341,0,0,0,.918.164,3.9,3.9,0,0,0,1.184-.207,5.087,5.087,0,0,0,1.23-.59l-.242,1.266a5.078,5.078,0,0,1-1.023.438,4.4,4.4,0,0,1-1.328.188,3.609,3.609,0,0,1-1.488-.273,2.621,2.621,0,0,1-.977-.73,2.848,2.848,0,0,1-.535-1.055,4.716,4.716,0,0,1-.164-1.254,5.8,5.8,0,0,1,.156-1.355,5.519,5.519,0,0,1,.441-1.215,5.148,5.148,0,0,1,.684-1.027,4.444,4.444,0,0,1,.883-.793,4.093,4.093,0,0,1,1.039-.508A3.7,3.7,0,0,1,99,32.8a3.319,3.319,0,0,1,1.09.164,2.277,2.277,0,0,1,.789.449,1.915,1.915,0,0,1,.48.66A1.966,1.966,0,0,1,101.525,34.875Zm-1.3.063a.9.9,0,0,0-.363-.766,1.565,1.565,0,0,0-.965-.273,2.163,2.163,0,0,0-.922.207,2.983,2.983,0,0,0-.82.57,3.56,3.56,0,0,0-.648.867,4.038,4.038,0,0,0-.4,1.09A13.5,13.5,0,0,0,98,36.52a4.925,4.925,0,0,0,1.273-.332,1.712,1.712,0,0,0,.719-.535A1.2,1.2,0,0,0,100.22,34.938ZM110,35a2.547,2.547,0,0,1-.027.32q-.027.2-.07.438t-.086.465q-.043.23-.082.395L108.806,41h-1.3l.977-4.687q.031-.125.063-.289t.055-.328q.023-.164.039-.3a2.01,2.01,0,0,0,.016-.215,1.424,1.424,0,0,0-.285-.937,1.038,1.038,0,0,0-.848-.344,1.972,1.972,0,0,0-1.023.3,4.211,4.211,0,0,0-.937.773,5.274,5.274,0,0,0-.738,1.031,3.952,3.952,0,0,0-.418,1.086L103.572,41h-1.3l1.234-5.711q.062-.3.125-.637t.117-.641q.055-.309.094-.574t.063-.437h1.25q-.039.3-.094.637t-.094.613q-.047.328-.1.641h.031a6.607,6.607,0,0,1,.605-.809,4.531,4.531,0,0,1,.719-.664,3.413,3.413,0,0,1,.82-.449,2.55,2.55,0,0,1,.91-.164,2.362,2.362,0,0,1,.914.16,1.712,1.712,0,0,1,.637.449,1.829,1.829,0,0,1,.375.7A3.108,3.108,0,0,1,110,35Zm6.211-.914H114.2l-.9,4.242q-.047.242-.094.523a2.892,2.892,0,0,0-.047.453.789.789,0,0,0,.176.574.764.764,0,0,0,.559.176,1.228,1.228,0,0,0,.242-.031q.148-.031.3-.078t.309-.105l.27-.105-.242,1.125a3.788,3.788,0,0,1-.621.2,2.877,2.877,0,0,1-.66.082,2.234,2.234,0,0,1-.758-.113,1.3,1.3,0,0,1-.512-.324,1.256,1.256,0,0,1-.289-.512,2.358,2.358,0,0,1-.09-.676,3.787,3.787,0,0,1,.043-.527,5.468,5.468,0,0,1,.105-.551l.922-4.352h-1.328L111.83,33h1.313l.414-1.953a2.408,2.408,0,0,1,.238-.074q.207-.059.453-.133l.453-.137.23-.07L114.439,33h2.016Zm6.852,4.352q-.062.3-.121.668t-.1.734q-.043.363-.07.676t-.027.484h-1.328q.008-.156.023-.375t.043-.453q.027-.234.055-.461t.059-.391h-.031q-.242.383-.492.723a3.478,3.478,0,0,1-.555.6,2.429,2.429,0,0,1-.68.406,2.612,2.612,0,0,1-1.84-.039,2.006,2.006,0,0,1-.746-.559,2.574,2.574,0,0,1-.48-.93,4.532,4.532,0,0,1-.168-1.3,6.518,6.518,0,0,1,.094-1.031,6.309,6.309,0,0,1,.316-1.18,6.006,6.006,0,0,1,.594-1.176,4.465,4.465,0,0,1,.922-1.027,4.4,4.4,0,0,1,1.3-.727,5.051,5.051,0,0,1,1.734-.273,9.22,9.22,0,0,1,1.289.094q.664.094,1.32.227Zm-.367-4.383q-.273-.063-.641-.109a5.447,5.447,0,0,0-.687-.047,3.118,3.118,0,0,0-1.2.215,3.077,3.077,0,0,0-.9.563,3.312,3.312,0,0,0-.645.8,4.965,4.965,0,0,0-.418.926,5.449,5.449,0,0,0-.223.934,5.91,5.91,0,0,0-.066.836,3.744,3.744,0,0,0,.078.8,1.749,1.749,0,0,0,.246.605,1.156,1.156,0,0,0,.43.387,1.325,1.325,0,0,0,.621.137,1.692,1.692,0,0,0,.73-.16,2.532,2.532,0,0,0,.637-.434,3.56,3.56,0,0,0,.539-.633,6.225,6.225,0,0,0,.438-.762,6.515,6.515,0,0,0,.332-.82q.137-.418.223-.809Zm7.633.352a3.329,3.329,0,0,0-.789-.367,2.845,2.845,0,0,0-.875-.141,1.726,1.726,0,0,0-1.137.336,1.1,1.1,0,0,0-.4.891,1.116,1.116,0,0,0,.074.414,1.25,1.25,0,0,0,.219.355,1.985,1.985,0,0,0,.367.324q.223.156.512.336A4.028,4.028,0,0,1,129.56,37.6a2.01,2.01,0,0,1,.387,1.207,2.435,2.435,0,0,1-.168.887,2,2,0,0,1-.535.766,2.745,2.745,0,0,1-.949.535,4.331,4.331,0,0,1-1.418.2,4.7,4.7,0,0,1-.516-.031,5.461,5.461,0,0,1-.566-.094,4.942,4.942,0,0,1-.547-.152,2.407,2.407,0,0,1-.457-.207l.258-1.219a2.691,2.691,0,0,0,.387.219,4,4,0,0,0,.5.2,4.672,4.672,0,0,0,.563.141,3.166,3.166,0,0,0,.582.055,1.834,1.834,0,0,0,1.168-.312,1.053,1.053,0,0,0,.387-.867,1.155,1.155,0,0,0-.059-.375,1.052,1.052,0,0,0-.207-.344,2.3,2.3,0,0,0-.391-.348q-.242-.176-.609-.395a3.947,3.947,0,0,1-1.176-1.012,1.992,1.992,0,0,1-.379-1.191,2.432,2.432,0,0,1,.18-.926,2.24,2.24,0,0,1,.535-.781,2.6,2.6,0,0,1,.895-.543,3.559,3.559,0,0,1,1.258-.2,5.018,5.018,0,0,1,1.066.109,3.786,3.786,0,0,1,.855.281ZM143.447,35.8a6.076,6.076,0,0,1-.125,1.2,6.206,6.206,0,0,1-.383,1.223,6.02,6.02,0,0,1-.645,1.141,4.626,4.626,0,0,1-.91.949,4.22,4.22,0,0,1-1.187.648,4.323,4.323,0,0,1-1.469.238,4.833,4.833,0,0,1-.91-.086,5.6,5.6,0,0,1-.785-.2l-.8,3.8h-1.3l1.953-9.25q.055-.25.1-.6t.082-.707q.035-.355.059-.668t.023-.484h1.313q0,.133-.02.359t-.051.473q-.031.246-.062.477t-.055.371h.031a4.221,4.221,0,0,1,1.25-1.41,2.672,2.672,0,0,1,1.516-.465,2.476,2.476,0,0,1,.984.188,1.949,1.949,0,0,1,.746.563,2.6,2.6,0,0,1,.473.938A4.675,4.675,0,0,1,143.447,35.8Zm-1.312.055a3.864,3.864,0,0,0-.074-.781,1.733,1.733,0,0,0-.246-.617,1.246,1.246,0,0,0-.441-.406,1.352,1.352,0,0,0-.66-.148,1.76,1.76,0,0,0-.762.168,2.623,2.623,0,0,0-.66.449,3.683,3.683,0,0,0-.555.652,6.482,6.482,0,0,0-.445.77,6.761,6.761,0,0,0-.332.8,6.038,6.038,0,0,0-.207.754l-.492,2.32a2.193,2.193,0,0,0,.336.113q.2.051.406.09t.43.063a3.83,3.83,0,0,0,.406.023,2.7,2.7,0,0,0,1-.18,2.891,2.891,0,0,0,.82-.488,3.446,3.446,0,0,0,.641-.727,4.822,4.822,0,0,0,.465-.891,5.242,5.242,0,0,0,.281-.977A5.4,5.4,0,0,0,142.134,35.852Zm9.875.109a6.659,6.659,0,0,1-.3,2.016,5.153,5.153,0,0,1-.867,1.668,4.19,4.19,0,0,1-1.375,1.133,3.914,3.914,0,0,1-1.824.418,3.33,3.33,0,0,1-1.238-.219,2.576,2.576,0,0,1-.937-.629,2.786,2.786,0,0,1-.594-.992,3.912,3.912,0,0,1-.207-1.316,6.519,6.519,0,0,1,.316-2.059,5.2,5.2,0,0,1,.891-1.664,4.161,4.161,0,0,1,1.375-1.109,3.885,3.885,0,0,1,1.77-.4,3.308,3.308,0,0,1,1.23.219,2.614,2.614,0,0,1,.941.629,2.848,2.848,0,0,1,.605.992A3.783,3.783,0,0,1,152.009,35.961Zm-1.312.063a2.987,2.987,0,0,0-.125-.9,1.919,1.919,0,0,0-.352-.664,1.525,1.525,0,0,0-.547-.414,1.729,1.729,0,0,0-.719-.145,2.272,2.272,0,0,0-1.242.352,3.143,3.143,0,0,0-.937.926,4.591,4.591,0,0,0-.59,1.3,5.46,5.46,0,0,0-.207,1.5,2.988,2.988,0,0,0,.121.879,2,2,0,0,0,.344.672,1.484,1.484,0,0,0,.547.426,1.735,1.735,0,0,0,.73.148,2.3,2.3,0,0,0,1.25-.348,3.1,3.1,0,0,0,.938-.922,4.506,4.506,0,0,0,.586-1.309A5.6,5.6,0,0,0,150.7,36.023Zm7.906-1.664h-.031a2.307,2.307,0,0,0-.41-.184,1.5,1.5,0,0,0-.5-.09,1.479,1.479,0,0,0-.867.293,3.188,3.188,0,0,0-.754.773,5.549,5.549,0,0,0-.594,1.1,7.5,7.5,0,0,0-.395,1.266L154.3,41h-1.281l1.125-5.312q.07-.328.141-.687t.129-.719q.059-.359.105-.687t.07-.594h1.266q-.023.234-.055.5t-.062.508q-.031.246-.062.445t-.047.309h.031a8.624,8.624,0,0,1,.508-.8,3.717,3.717,0,0,1,.543-.613,2.3,2.3,0,0,1,.605-.395,1.71,1.71,0,0,1,.7-.141,2.206,2.206,0,0,1,.434.043q.215.043.387.09ZM170.759,35.8a6.076,6.076,0,0,1-.125,1.2,6.206,6.206,0,0,1-.383,1.223,6.02,6.02,0,0,1-.645,1.141,4.626,4.626,0,0,1-.91.949,4.22,4.22,0,0,1-1.187.648,4.323,4.323,0,0,1-1.469.238,4.833,4.833,0,0,1-.91-.086,5.6,5.6,0,0,1-.785-.2l-.8,3.8h-1.3l1.953-9.25q.055-.25.1-.6t.082-.707q.035-.355.059-.668T164.47,33h1.313q0,.133-.02.359t-.051.473q-.031.246-.062.477t-.055.371h.031a4.221,4.221,0,0,1,1.25-1.41,2.672,2.672,0,0,1,1.516-.465,2.476,2.476,0,0,1,.984.188,1.949,1.949,0,0,1,.746.563,2.6,2.6,0,0,1,.473.938A4.675,4.675,0,0,1,170.759,35.8Zm-1.312.055a3.864,3.864,0,0,0-.074-.781,1.733,1.733,0,0,0-.246-.617,1.246,1.246,0,0,0-.441-.406,1.352,1.352,0,0,0-.66-.148,1.76,1.76,0,0,0-.762.168,2.623,2.623,0,0,0-.66.449,3.683,3.683,0,0,0-.555.652,6.482,6.482,0,0,0-.445.77,6.761,6.761,0,0,0-.332.8,6.038,6.038,0,0,0-.207.754l-.492,2.32a2.193,2.193,0,0,0,.336.113q.2.051.406.09t.43.063a3.83,3.83,0,0,0,.406.023,2.7,2.7,0,0,0,1-.18,2.891,2.891,0,0,0,.82-.488,3.446,3.446,0,0,0,.641-.727,4.822,4.822,0,0,0,.465-.891,5.242,5.242,0,0,0,.281-.977A5.4,5.4,0,0,0,169.447,35.852Zm8.992,2.586q-.063.3-.121.668t-.1.734q-.043.363-.07.676t-.027.484h-1.328q.008-.156.023-.375t.043-.453q.027-.234.055-.461t.059-.391h-.031q-.242.383-.492.723a3.478,3.478,0,0,1-.555.6,2.429,2.429,0,0,1-.68.406,2.612,2.612,0,0,1-1.84-.039,2.006,2.006,0,0,1-.746-.559,2.574,2.574,0,0,1-.48-.93,4.531,4.531,0,0,1-.168-1.3,6.518,6.518,0,0,1,.094-1.031,6.309,6.309,0,0,1,.316-1.18,6.007,6.007,0,0,1,.594-1.176A4.465,4.465,0,0,1,173.9,33.8a4.4,4.4,0,0,1,1.3-.727,5.051,5.051,0,0,1,1.734-.273,9.22,9.22,0,0,1,1.289.094q.664.094,1.32.227Zm-.367-4.383q-.273-.063-.641-.109a5.447,5.447,0,0,0-.687-.047,3.118,3.118,0,0,0-1.2.215,3.077,3.077,0,0,0-.9.563,3.313,3.313,0,0,0-.645.8,4.965,4.965,0,0,0-.418.926,5.448,5.448,0,0,0-.223.934,5.911,5.911,0,0,0-.066.836,3.744,3.744,0,0,0,.078.8,1.748,1.748,0,0,0,.246.605,1.156,1.156,0,0,0,.43.387,1.325,1.325,0,0,0,.621.137,1.692,1.692,0,0,0,.73-.16,2.532,2.532,0,0,0,.637-.434,3.56,3.56,0,0,0,.539-.633,6.225,6.225,0,0,0,.438-.762,6.515,6.515,0,0,0,.332-.82q.137-.418.223-.809Zm8.609,6.367a10.132,10.132,0,0,1-.516,1.73,4.581,4.581,0,0,1-.848,1.375,3.611,3.611,0,0,1-1.3.906,4.869,4.869,0,0,1-1.883.324,4.42,4.42,0,0,1-1.332-.18,6.143,6.143,0,0,1-1.035-.43l.242-1.2a6.047,6.047,0,0,0,1.047.5,3.45,3.45,0,0,0,1.2.2,3.263,3.263,0,0,0,1.207-.2,2.424,2.424,0,0,0,.883-.6,3.3,3.3,0,0,0,.617-.965,7.336,7.336,0,0,0,.41-1.3l.273-1.25h-.031a7.841,7.841,0,0,1-.582.824,3.357,3.357,0,0,1-.6.578,2.333,2.333,0,0,1-.656.344A2.589,2.589,0,0,1,182.041,41a1.985,1.985,0,0,1-.746-.566,2.649,2.649,0,0,1-.477-.937,4.541,4.541,0,0,1-.168-1.3,6.163,6.163,0,0,1,.152-1.367,5.986,5.986,0,0,1,.441-1.273,5.361,5.361,0,0,1,.707-1.105,4.7,4.7,0,0,1,.949-.871,4.475,4.475,0,0,1,1.168-.574,4.383,4.383,0,0,1,1.363-.207,11.344,11.344,0,0,1,1.453.094q.727.094,1.336.211Zm.063-6.367a6.18,6.18,0,0,0-.645-.109,6.6,6.6,0,0,0-.809-.047,2.712,2.712,0,0,0-1.344.34,3.373,3.373,0,0,0-1.051.922,4.459,4.459,0,0,0-.687,1.355,5.353,5.353,0,0,0-.246,1.633,3.864,3.864,0,0,0,.074.781,1.883,1.883,0,0,0,.234.617,1.188,1.188,0,0,0,.414.406,1.212,1.212,0,0,0,.621.148,1.764,1.764,0,0,0,.793-.18,2.617,2.617,0,0,0,.668-.477,3.655,3.655,0,0,0,.543-.676,6.822,6.822,0,0,0,.422-.777,7.086,7.086,0,0,0,.309-.785q.125-.387.2-.7Zm9.039,4.383q-.063.3-.121.668t-.1.734q-.043.363-.07.676t-.027.484h-1.328q.008-.156.023-.375t.043-.453q.027-.234.055-.461t.059-.391h-.031q-.242.383-.492.723a3.478,3.478,0,0,1-.555.6,2.429,2.429,0,0,1-.68.406,2.612,2.612,0,0,1-1.84-.039,2.006,2.006,0,0,1-.746-.559,2.574,2.574,0,0,1-.48-.93,4.531,4.531,0,0,1-.168-1.3,6.518,6.518,0,0,1,.094-1.031,6.309,6.309,0,0,1,.316-1.18,6.007,6.007,0,0,1,.594-1.176,4.465,4.465,0,0,1,.922-1.027,4.4,4.4,0,0,1,1.3-.727,5.051,5.051,0,0,1,1.734-.273,9.22,9.22,0,0,1,1.289.094q.664.094,1.32.227Zm-.367-4.383q-.273-.063-.641-.109a5.447,5.447,0,0,0-.687-.047,3.118,3.118,0,0,0-1.2.215,3.077,3.077,0,0,0-.9.563,3.313,3.313,0,0,0-.645.8,4.965,4.965,0,0,0-.418.926,5.448,5.448,0,0,0-.223.934,5.911,5.911,0,0,0-.066.836,3.744,3.744,0,0,0,.078.8,1.748,1.748,0,0,0,.246.605,1.156,1.156,0,0,0,.43.387,1.325,1.325,0,0,0,.621.137,1.692,1.692,0,0,0,.73-.16,2.532,2.532,0,0,0,.637-.434,3.56,3.56,0,0,0,.539-.633,6.225,6.225,0,0,0,.438-.762,6.515,6.515,0,0,0,.332-.82q.137-.418.223-.809Zm7.953.3h-.031a2.307,2.307,0,0,0-.41-.184,1.5,1.5,0,0,0-.5-.09,1.479,1.479,0,0,0-.867.293,3.188,3.188,0,0,0-.754.773,5.549,5.549,0,0,0-.594,1.1,7.5,7.5,0,0,0-.395,1.266L199.064,41h-1.281l1.125-5.312q.07-.328.141-.687t.129-.719q.059-.359.105-.687t.07-.594h1.266q-.023.234-.055.5T200.5,34q-.031.246-.062.445t-.047.309h.031a8.624,8.624,0,0,1,.508-.8,3.717,3.717,0,0,1,.543-.613,2.3,2.3,0,0,1,.605-.395,1.71,1.71,0,0,1,.7-.141,2.206,2.206,0,0,1,.434.043q.215.043.387.09Z" transform="translate(283.417)" fill="#12263f"/>
      <line id="L칤nea_575" data-name="L칤nea 575" x2="203.361" transform="translate(292.917 21.5)" fill="none" stroke="#12263f" stroke-width="1"/>
    </g>
  </g>
</svg>
