<svg xmlns="http://www.w3.org/2000/svg" xmlns:xlink="http://www.w3.org/1999/xlink" width="113" height="113" viewBox="0 0 113 113">
  <defs>
    <filter id="Trazado_906463" x="0" y="0" width="113" height="113" filterUnits="userSpaceOnUse">
      <feOffset dy="3" input="SourceAlpha"/>
      <feGaussianBlur stdDeviation="3" result="blur"/>
      <feFlood flood-opacity="0.161"/>
      <feComposite operator="in" in2="blur"/>
      <feComposite in="SourceGraphic"/>
    </filter>
  </defs>
  <g id="Grupo_1114234" data-name="Grupo 1114234" transform="translate(-271.051 -2827)">
    <g transform="matrix(1, 0, 0, 1, 271.05, 2827)" filter="url(#Trazado_906463)">
      <g id="Trazado_906463-2" data-name="Trazado 906463" transform="translate(9 6)" fill="#f3f0ea">
        <path d="M 47.49993515014648 93.5 C 41.28932189941406 93.5 35.26528167724609 92.28397369384766 29.59514808654785 89.88571929931641 C 24.1176815032959 87.56894683837891 19.1981086730957 84.25197601318359 14.97306823730469 80.02693176269531 C 10.74802875518799 75.80189514160156 7.431055068969727 70.88231658935547 5.11428165435791 65.40485382080078 C 2.716028451919556 59.73471832275391 1.500001788139343 53.71067810058594 1.500001788139343 47.50006484985352 C 1.500001788139343 41.28932189941406 2.716028451919556 35.26528167724609 5.11428165435791 29.59514617919922 C 7.431055068969727 24.11767959594727 10.74802875518799 19.19810676574707 14.97306823730469 14.97306632995605 C 19.1981086730957 10.74802684783936 24.1176815032959 7.431053161621094 29.59514808654785 5.114280223846436 C 35.26528167724609 2.716026782989502 41.28932189941406 1.5 47.49993515014648 1.5 C 53.71054840087891 1.5 59.73458862304688 2.716026782989502 65.40472412109375 5.114280223846436 C 70.88218688964844 7.431053161621094 75.80176544189453 10.74802684783936 80.02680206298828 14.97306632995605 C 84.25183868408203 19.19810676574707 87.56881713867188 24.11767959594727 89.88558959960938 29.59514617919922 C 92.28384399414062 35.26528167724609 93.49987030029297 41.28932189941406 93.49987030029297 47.49993515014648 C 93.49987030029297 53.71067810058594 92.28384399414062 59.73471832275391 89.88558959960938 65.40485382080078 C 87.56881713867188 70.88231658935547 84.25183868408203 75.80189514160156 80.02680206298828 80.02693176269531 C 75.80176544189453 84.25197601318359 70.88218688964844 87.56894683837891 65.40472412109375 89.88571929931641 C 59.73458862304688 92.28397369384766 53.71054840087891 93.5 47.49993515014648 93.5 Z" stroke="none"/>
        <path d="M 47.49993515014648 3 C 41.49116516113281 3 35.66371917724609 4.176155090332031 30.17947387695312 6.495796203613281 C 24.88081359863281 8.7369384765625 20.12149047851562 11.94596862792969 16.03372192382812 16.03372192382812 C 11.94596862792969 20.12149047851562 8.7369384765625 24.88081359863281 6.495796203613281 30.17947387695312 C 4.1761474609375 35.66372299194336 3 41.49116897583008 3 47.50006103515625 C 3 53.50883102416992 4.1761474609375 59.33627700805664 6.495796203613281 64.82052612304688 C 8.7369384765625 70.11918640136719 11.94596862792969 74.87850952148438 16.03372192382812 78.96627807617188 C 20.12149047851562 83.05403137207031 24.88081359863281 86.2630615234375 30.17947387695312 88.50419616699219 C 35.66371917724609 90.82384490966797 41.49116516113281 92 47.49993515014648 92 C 53.50870513916016 92 59.33615112304688 90.82384490966797 64.82039642333984 88.50419616699219 C 70.11905670166016 86.2630615234375 74.87837982177734 83.05403137207031 78.96614837646484 78.96627807617188 C 83.05390167236328 74.87850952148438 86.26293182373047 70.11918640136719 88.50407409667969 64.82052612304688 C 90.82372283935547 59.33627700805664 91.99987030029297 53.50883102416992 91.99987030029297 47.49993896484375 C 91.99987030029297 41.49116897583008 90.82372283935547 35.66372299194336 88.50407409667969 30.17947387695312 C 86.26293182373047 24.88081359863281 83.05390167236328 20.12149047851562 78.96614837646484 16.03372192382812 C 74.87837982177734 11.94596862792969 70.11905670166016 8.7369384765625 64.82039642333984 6.495796203613281 C 59.33615112304688 4.176155090332031 53.50870513916016 3 47.49993515014648 3 M 47.49993515014648 0 C 73.73342895507812 0 94.99987030029297 21.26644897460938 94.99987030029297 47.49993896484375 L 94.99987030029297 47.50006103515625 C 94.99987030029297 73.73355102539062 73.73342895507812 95 47.49993515014648 95 C 21.26644134521484 95 0 73.73355102539062 0 47.50006103515625 L 0 47.49993896484375 C 0 21.26644897460938 21.26644134521484 0 47.49993515014648 0 Z" stroke="none" fill="#fff"/>
      </g>
    </g>
    <g id="_12._Verification" data-name="12. Verification" transform="translate(298.051 2830)">
      <rect id="Rectángulo_406608" data-name="Rectángulo 406608" width="34.987" height="46.649" rx="16" transform="translate(0.897 24.731)" fill="#c1d1f7"/>
      <path id="Trazado_907152" data-name="Trazado 907152" d="M41.306,393.85H9.85A1.85,1.85,0,0,1,8,392v2.776a1.85,1.85,0,0,0,1.85,1.85H41.306a1.85,1.85,0,0,0,1.85-1.85V392A1.85,1.85,0,0,1,41.306,393.85Z" transform="translate(-7.075 -325.442)" fill="#adbeee"/>
      <path id="Trazado_907153" data-name="Trazado 907153" d="M34.231,72.109H10.177a.925.925,0,0,1,0-1.85H34.231a.925.925,0,0,0,.925-.925V26.776a.925.925,0,0,0-.925-.925H2.776a.925.925,0,0,0-.925.925V69.333a.925.925,0,0,0,.925.925h3.7a.925.925,0,0,1,0,1.85h-3.7A2.776,2.776,0,0,1,0,69.333V26.776A2.776,2.776,0,0,1,2.776,24H34.231a2.776,2.776,0,0,1,2.776,2.776V69.333A2.776,2.776,0,0,1,34.231,72.109Z" transform="translate(0 0)"/>
      <path id="Trazado_907154" data-name="Trazado 907154" d="M123.157,89.252v35.157a1.85,1.85,0,0,1-1.85,1.85H89.85a1.85,1.85,0,0,1-1.85-1.85V81.85A1.85,1.85,0,0,1,89.85,80H113.9Z" transform="translate(-77.823 -49.524)" fill="#eaf2ff"/>
      <path id="Trazado_907155" data-name="Trazado 907155" d="M121.306,441.85H89.85A1.85,1.85,0,0,1,88,440v2.776a1.85,1.85,0,0,0,1.85,1.85h31.456a1.85,1.85,0,0,0,1.85-1.85V440A1.85,1.85,0,0,1,121.306,441.85Z" transform="translate(-77.823 -367.891)" fill="#c1d1f7"/>
      <path id="Trazado_907156" data-name="Trazado 907156" d="M114.231,120.109H82.776A2.776,2.776,0,0,1,80,117.333V74.776A2.776,2.776,0,0,1,82.776,72H106.83a.925.925,0,0,1,.655.271l9.252,9.252a.925.925,0,0,1,.271.655v3.7a.925.925,0,1,1-1.85,0V82.56l-8.709-8.709H82.776a.925.925,0,0,0-.925.925v42.558a.925.925,0,0,0,.925.925h31.456a.925.925,0,0,0,.925-.925v-25.9a.925.925,0,0,1,1.85,0v25.9A2.776,2.776,0,0,1,114.231,120.109Z" transform="translate(-70.748 -42.449)"/>
      <path id="Trazado_907157" data-name="Trazado 907157" d="M314.177,83.1h-7.4A2.776,2.776,0,0,1,304,80.321v-7.4a.925.925,0,0,1,1.58-.655l9.252,9.252a.925.925,0,0,1-.655,1.58Zm-8.327-7.944v5.168a.925.925,0,0,0,.925.925h5.168Z" transform="translate(-268.843 -42.443)"/>
      <path id="Trazado_907158" data-name="Trazado 907158" d="M321.252,89.252h-7.4A1.85,1.85,0,0,1,312,87.4V80Z" transform="translate(-275.918 -49.524)" fill="#c1d1f7"/>
      <path id="Trazado_907159" data-name="Trazado 907159" d="M314.177,83.1h-7.4A2.776,2.776,0,0,1,304,80.321v-7.4a.925.925,0,0,1,1.58-.655l9.252,9.252a.925.925,0,0,1-.655,1.58Zm-8.327-7.944v5.168a.925.925,0,0,0,.925.925h5.168Z" transform="translate(-268.843 -42.443)"/>
      <path id="Trazado_907160" data-name="Trazado 907160" d="M136,128h14.8v3.7H136Z" transform="translate(-120.272 -91.973)" fill="#e38343"/>
      <path id="Trazado_907161" data-name="Trazado 907161" d="M143.728,125.551h-14.8a.925.925,0,0,1-.925-.925v-3.7a.925.925,0,0,1,.925-.925h14.8a.925.925,0,0,1,.925.925v3.7A.925.925,0,0,1,143.728,125.551ZM129.85,123.7H142.8v-1.85H129.85Z" transform="translate(-113.197 -84.898)"/>
      <path id="Trazado_907162" data-name="Trazado 907162" d="M136,200h5.551v5.551H136Z" transform="translate(-120.272 -155.646)" fill="#b1da7a"/>
      <path id="Trazado_907163" data-name="Trazado 907163" d="M134.476,199.4h-5.551a.925.925,0,0,1-.925-.925v-5.551a.925.925,0,0,1,.925-.925h5.551a.925.925,0,0,1,.925.925v5.551A.925.925,0,0,1,134.476,199.4Zm-4.626-1.85h3.7v-3.7h-3.7Z" transform="translate(-113.197 -148.571)"/>
      <path id="Trazado_907164" data-name="Trazado 907164" d="M220.027,193.85h-11.1a.925.925,0,0,1,0-1.85h11.1a.925.925,0,0,1,0,1.85Z" transform="translate(-183.946 -148.571)"/>
      <path id="Trazado_907165" data-name="Trazado 907165" d="M220.027,225.85h-11.1a.925.925,0,0,1,0-1.85h11.1a.925.925,0,0,1,0,1.85Z" transform="translate(-183.946 -176.871)"/>
      <path id="Trazado_907166" data-name="Trazado 907166" d="M136,288h5.551v5.551H136Z" transform="translate(-120.272 -233.469)" fill="#b1da7a"/>
      <path id="Trazado_907167" data-name="Trazado 907167" d="M134.476,287.4h-5.551a.925.925,0,0,1-.925-.925v-5.551a.925.925,0,0,1,.925-.925h5.551a.925.925,0,0,1,.925.925v5.551A.925.925,0,0,1,134.476,287.4Zm-4.626-1.85h3.7v-3.7h-3.7Z" transform="translate(-113.197 -226.395)"/>
      <path id="Trazado_907168" data-name="Trazado 907168" d="M220.027,281.85h-11.1a.925.925,0,0,1,0-1.85h11.1a.925.925,0,1,1,0,1.85Z" transform="translate(-183.946 -226.395)"/>
      <path id="Trazado_907169" data-name="Trazado 907169" d="M220.027,313.85h-11.1a.925.925,0,1,1,0-1.85h11.1a.925.925,0,1,1,0,1.85Z" transform="translate(-183.946 -254.694)"/>
      <path id="Trazado_907170" data-name="Trazado 907170" d="M136,376h5.551v5.551H136Z" transform="translate(-120.272 -311.292)" fill="#b1da7a"/>
      <path id="Trazado_907171" data-name="Trazado 907171" d="M134.476,375.4h-5.551a.925.925,0,0,1-.925-.925v-5.551a.925.925,0,0,1,.925-.925h5.551a.925.925,0,0,1,.925.925v5.551A.925.925,0,0,1,134.476,375.4Zm-4.626-1.85h3.7v-3.7h-3.7Z" transform="translate(-113.197 -304.218)"/>
      <path id="Trazado_907172" data-name="Trazado 907172" d="M220.027,369.85h-11.1a.925.925,0,0,1,0-1.85h11.1a.925.925,0,0,1,0,1.85Z" transform="translate(-183.946 -304.218)"/>
      <path id="Trazado_907173" data-name="Trazado 907173" d="M220.027,401.85h-11.1a.925.925,0,0,1,0-1.85h11.1a.925.925,0,0,1,0,1.85Z" transform="translate(-183.946 -332.517)"/>
      <path id="Trazado_907174" data-name="Trazado 907174" d="M395.7,368l-3.7,3.7,8.485,8.485a2.617,2.617,0,1,0,3.7-3.7Z" transform="translate(-346.667 -304.218)" fill="#e38343"/>
      <path id="Trazado_907175" data-name="Trazado 907175" d="M402.335,392.485,393.85,384,392,385.85l8.485,8.485a2.619,2.619,0,0,0,4.378-1.173A2.619,2.619,0,0,1,402.335,392.485Z" transform="translate(-346.667 -318.367)" fill="#df6117"/>
      <path id="Trazado_907176" data-name="Trazado 907176" d="M395.255,374.771a3.518,3.518,0,0,1-2.5-1.041l-8.486-8.485a.925.925,0,0,1,0-1.309l3.7-3.7a.925.925,0,0,1,1.309,0l8.482,8.49a3.541,3.541,0,0,1-2.5,6.046Zm-9.027-10.177,7.828,7.832a1.694,1.694,0,1,0,2.4-2.4L388.62,362.2Z" transform="translate(-339.586 -297.111)"/>
      <circle id="Elipse_12773" data-name="Elipse 12773" cx="12.111" cy="12.111" r="12.111" transform="translate(27.81 46.262)" fill="#596060"/>
      <path id="Trazado_907177" data-name="Trazado 907177" d="M252.025,318.635A12.027,12.027,0,0,1,240.077,308a12.027,12.027,0,1,0,23.895,0A12.027,12.027,0,0,1,252.025,318.635Z" transform="translate(-212.242 -251.152)" fill="#4c5657"/>
      <path id="Trazado_907178" data-name="Trazado 907178" d="M244.952,233.9A12.952,12.952,0,1,1,257.9,220.952,12.952,12.952,0,0,1,244.952,233.9Zm0-24.054a11.1,11.1,0,1,0,11.1,11.1A11.1,11.1,0,0,0,244.952,209.85Z" transform="translate(-205.17 -162.721)"/>
      <circle id="Elipse_12774" data-name="Elipse 12774" cx="8.522" cy="8.522" r="8.522" transform="translate(31.398 49.85)" fill="#b1da7a"/>
      <path id="Trazado_907179" data-name="Trazado 907179" d="M280.325,250.819a8.327,8.327,0,0,1,8.211,6.94,8.327,8.327,0,1,0-16.422,0A8.327,8.327,0,0,1,280.325,250.819Z" transform="translate(-240.543 -198.138)" fill="#96bf5b"/>
      <path id="Trazado_907180" data-name="Trazado 907180" d="M273.252,258.5a9.252,9.252,0,1,1,9.252-9.252A9.252,9.252,0,0,1,273.252,258.5Zm0-16.653a7.4,7.4,0,1,0,7.4,7.4A7.4,7.4,0,0,0,273.252,241.85Z" transform="translate(-233.469 -191.02)"/>
      <path id="Trazado_907181" data-name="Trazado 907181" d="M315.042,302.2l-2.776-2.776a.926.926,0,0,1,1.309-1.309l2.121,2.122,3.971-3.972a.926.926,0,0,1,1.309,1.309l-4.626,4.626a.925.925,0,0,1-1.309,0Z" transform="translate(-275.914 -240.54)"/>
    </g>
  </g>
</svg>
