<svg xmlns="http://www.w3.org/2000/svg" xmlns:xlink="http://www.w3.org/1999/xlink" width="113" height="113" viewBox="0 0 113 113">
  <defs>
    <filter id="Trazado_906461" x="0" y="0" width="113" height="113" filterUnits="userSpaceOnUse">
      <feOffset dy="3" input="SourceAlpha"/>
      <feGaussianBlur stdDeviation="3" result="blur"/>
      <feFlood flood-opacity="0.161"/>
      <feComposite operator="in" in2="blur"/>
      <feComposite in="SourceGraphic"/>
    </filter>
  </defs>
  <g id="Grupo_1114319" data-name="Grupo 1114319" transform="translate(-901.051 -2827)">
    <g transform="matrix(1, 0, 0, 1, 901.05, 2827)" filter="url(#Trazado_906461)">
      <g id="Trazado_906461-2" data-name="Trazado 906461" transform="translate(9 6)" fill="#f3f0ea">
        <path d="M 47.49993515014648 93.5 C 41.28932189941406 93.5 35.26528167724609 92.28397369384766 29.59514808654785 89.88571929931641 C 24.1176815032959 87.56894683837891 19.1981086730957 84.25197601318359 14.97306823730469 80.02693176269531 C 10.74802875518799 75.80189514160156 7.431055068969727 70.88231658935547 5.11428165435791 65.40485382080078 C 2.716028451919556 59.73471832275391 1.500001788139343 53.71067810058594 1.500001788139343 47.50006484985352 C 1.500001788139343 41.28932189941406 2.716028451919556 35.26528167724609 5.11428165435791 29.59514617919922 C 7.431055068969727 24.11767959594727 10.74802875518799 19.19810676574707 14.97306823730469 14.97306632995605 C 19.1981086730957 10.74802684783936 24.1176815032959 7.431053161621094 29.59514808654785 5.114280223846436 C 35.26528167724609 2.716026782989502 41.28932189941406 1.5 47.49993515014648 1.5 C 53.71054840087891 1.5 59.73458862304688 2.716026782989502 65.40472412109375 5.114280223846436 C 70.88218688964844 7.431053161621094 75.80176544189453 10.74802684783936 80.02680206298828 14.97306632995605 C 84.25183868408203 19.19810676574707 87.56881713867188 24.11767959594727 89.88558959960938 29.59514617919922 C 92.28384399414062 35.26528167724609 93.49987030029297 41.28932189941406 93.49987030029297 47.49993515014648 C 93.49987030029297 53.71067810058594 92.28384399414062 59.73471832275391 89.88558959960938 65.40485382080078 C 87.56881713867188 70.88231658935547 84.25183868408203 75.80189514160156 80.02680206298828 80.02693176269531 C 75.80176544189453 84.25197601318359 70.88218688964844 87.56894683837891 65.40472412109375 89.88571929931641 C 59.73458862304688 92.28397369384766 53.71054840087891 93.5 47.49993515014648 93.5 Z" stroke="none"/>
        <path d="M 47.49993515014648 3 C 41.49116516113281 3 35.66371917724609 4.176155090332031 30.17947387695312 6.495796203613281 C 24.88081359863281 8.7369384765625 20.12149047851562 11.94596862792969 16.03372192382812 16.03372192382812 C 11.94596862792969 20.12149047851562 8.7369384765625 24.88081359863281 6.495796203613281 30.17947387695312 C 4.1761474609375 35.66372299194336 3 41.49116897583008 3 47.50006103515625 C 3 53.50883102416992 4.1761474609375 59.33627700805664 6.495796203613281 64.82052612304688 C 8.7369384765625 70.11918640136719 11.94596862792969 74.87850952148438 16.03372192382812 78.96627807617188 C 20.12149047851562 83.05403137207031 24.88081359863281 86.2630615234375 30.17947387695312 88.50419616699219 C 35.66371917724609 90.82384490966797 41.49116516113281 92 47.49993515014648 92 C 53.50870513916016 92 59.33615112304688 90.82384490966797 64.82039642333984 88.50419616699219 C 70.11905670166016 86.2630615234375 74.87837982177734 83.05403137207031 78.96614837646484 78.96627807617188 C 83.05390167236328 74.87850952148438 86.26293182373047 70.11918640136719 88.50407409667969 64.82052612304688 C 90.82372283935547 59.33627700805664 91.99987030029297 53.50883102416992 91.99987030029297 47.49993896484375 C 91.99987030029297 41.49116897583008 90.82372283935547 35.66372299194336 88.50407409667969 30.17947387695312 C 86.26293182373047 24.88081359863281 83.05390167236328 20.12149047851562 78.96614837646484 16.03372192382812 C 74.87837982177734 11.94596862792969 70.11905670166016 8.7369384765625 64.82039642333984 6.495796203613281 C 59.33615112304688 4.176155090332031 53.50870513916016 3 47.49993515014648 3 M 47.49993515014648 0 C 73.73342895507812 0 94.99987030029297 21.26644897460938 94.99987030029297 47.49993896484375 L 94.99987030029297 47.50006103515625 C 94.99987030029297 73.73355102539062 73.73342895507812 95 47.49993515014648 95 C 21.26644134521484 95 0 73.73355102539062 0 47.50006103515625 L 0 47.49993896484375 C 0 21.26644897460938 21.26644134521484 0 47.49993515014648 0 Z" stroke="none" fill="#fff"/>
      </g>
    </g>
    <g id="Grupo_1114318" data-name="Grupo 1114318" transform="translate(925.251 2848.2)">
      <g id="Grupo_1114264" data-name="Grupo 1114264" transform="translate(3.83 5.617)">
        <g id="Grupo_1114240" data-name="Grupo 1114240" transform="translate(0.413 13.383)">
          <path id="Trazado_907191" data-name="Trazado 907191" d="M49.283,57.614c.06,18.419-42.918,18.24-44.647,0A17.766,17.766,0,0,1,6.723,47.123C10.3,40.924,15.843,35.44,22.1,29.3h9.716c6.259,6.14,11.8,11.624,15.379,17.823,1.788,3.159,2.086,6.8,2.086,10.491Z" transform="translate(-4.542 -29.3)" fill="#dabcbc"/>
        </g>
        <g id="Grupo_1114241" data-name="Grupo 1114241" transform="translate(1.341 24.172)">
          <path id="Trazado_907192" data-name="Trazado 907192" d="M49.912,64.925C49.972,82.212,12.359,83.165,6.1,68.2a21.637,21.637,0,0,0,15.26,6.259A22.161,22.161,0,0,0,43.3,52.109a24.257,24.257,0,0,0-.477-4.709,48.2,48.2,0,0,1,4.948,6.974C49.614,57.593,49.912,61.289,49.912,64.925Z" transform="translate(-6.1 -47.4)" fill="#bc9595"/>
        </g>
        <g id="Grupo_1114242" data-name="Grupo 1114242" transform="translate(12.495 0.417)">
          <path id="Trazado_907193" data-name="Trazado 907193" d="M45.072,14.852l-5.186,5.663H30.348l-5.186-5.663a1.388,1.388,0,0,1,.06-1.907,5.6,5.6,0,0,1,3.815-1.431L28.56,9.9a1.331,1.331,0,0,1,.954-1.669,21.828,21.828,0,0,1,11.087.06,1.359,1.359,0,0,1,1.013,1.729l-.417,1.49a5.6,5.6,0,0,1,3.815,1.431,1.388,1.388,0,0,1,.06,1.907Z" transform="translate(-24.812 -7.549)" fill="#dabcbc"/>
        </g>
        <g id="Grupo_1114243" data-name="Grupo 1114243" transform="translate(12.495 4.859)">
          <path id="Trazado_907194" data-name="Trazado 907194" d="M45.072,17.861l-5.186,5.663H30.348l-5.186-5.663a1.388,1.388,0,0,1,.06-1.907,2.334,2.334,0,0,1,.6-.477c1.013,3.159,4.53,5.484,8.762,5.484,4.411,0,8.047-2.563,8.882-5.961a3.837,3.837,0,0,1,1.55.954,1.388,1.388,0,0,1,.06,1.907Z" transform="translate(-24.812 -15)" fill="#bc9595"/>
        </g>
        <g id="Grupo_1114244" data-name="Grupo 1114244" transform="translate(38.072 50.615)">
          <path id="Trazado_907195" data-name="Trazado 907195" d="M68.185,96.97a.6.6,0,0,1-.417-.238.463.463,0,0,1,.179-.6,19.541,19.541,0,0,0,5.305-3.7,3.857,3.857,0,0,0,.477-.536.542.542,0,0,1,.656-.06.534.534,0,0,1,.06.656l-.536.536a21.359,21.359,0,0,1-5.544,3.875A.219.219,0,0,1,68.185,96.97Z" transform="translate(-67.719 -91.761)" fill="#0f0f0f"/>
        </g>
        <g id="Grupo_1114245" data-name="Grupo 1114245" transform="translate(45.586 47.658)">
          <path id="Trazado_907196" data-name="Trazado 907196" d="M80.787,88.588a.358.358,0,0,1-.238-.06.371.371,0,0,1-.119-.6l.536-.894a.44.44,0,1,1,.775.417c-.179.358-.358.656-.536.954A.89.89,0,0,1,80.787,88.588Z" transform="translate(-80.326 -86.8)" fill="#0f0f0f"/>
        </g>
        <g id="Grupo_1114246" data-name="Grupo 1114246" transform="translate(0 12.966)">
          <path id="Trazado_907197" data-name="Trazado 907197" d="M27.485,71.578c-11.087,0-22.651-4.769-23.545-14.187A18.2,18.2,0,0,1,6.085,46.6c3.457-6.02,8.584-11.206,15.439-17.883a.455.455,0,0,1,.3-.119h9.716a.455.455,0,0,1,.3.119c5.782,5.6,11.743,11.445,15.439,17.883,1.907,3.278,2.146,7.093,2.146,10.73,0,9.12-10.133,13.71-20.148,14.187-.6,0-1.192.06-1.788.06ZM22.06,29.494c-6.8,6.557-11.8,11.683-15.2,17.525A17.415,17.415,0,0,0,4.834,57.272c.894,9.418,13.233,13.889,24.44,13.352,9.6-.477,19.313-4.769,19.313-13.293,0-3.517-.238-7.153-2.027-10.312-3.636-6.319-9.537-12.041-15.2-17.585Z" transform="translate(-3.85 -28.6)" fill="#0f0f0f"/>
        </g>
        <g id="Grupo_1114247" data-name="Grupo 1114247" transform="translate(12.003 0)">
          <path id="Trazado_907198" data-name="Trazado 907198" d="M39.553,20.649H30.015a.847.847,0,0,1-.358-.119l-5.186-5.663a1.781,1.781,0,0,1,.06-2.5,5.539,5.539,0,0,1,3.517-1.49L27.75,9.8A1.845,1.845,0,0,1,29,7.535a22.743,22.743,0,0,1,11.326.06,2.1,2.1,0,0,1,1.192.835A1.98,1.98,0,0,1,41.7,9.86l-.3.954a5.539,5.539,0,0,1,3.517,1.49,1.781,1.781,0,0,1,.06,2.5L39.791,20.47c0,.119-.119.179-.238.179Zm-9.359-.894h9.12l5.007-5.544a.919.919,0,0,0,0-1.252A5.034,5.034,0,0,0,40.8,11.708a.515.515,0,0,1-.358-.179.394.394,0,0,1-.06-.358l.417-1.49a.788.788,0,0,0-.119-.715.862.862,0,0,0-.6-.417A21.435,21.435,0,0,0,29.3,8.37.871.871,0,0,0,28.7,9.5l.477,1.609a.366.366,0,0,1-.06.358.36.36,0,0,1-.358.179A5.034,5.034,0,0,0,25.247,12.9a.864.864,0,0,0,0,1.252Z" transform="translate(-23.987 -6.849)" fill="#0f0f0f"/>
        </g>
        <g id="Grupo_1114248" data-name="Grupo 1114248" transform="translate(16.288 3.95)">
          <path id="Trazado_907199" data-name="Trazado 907199" d="M34.051,16.888a.455.455,0,0,1-.3-.119l-2.444-2.5a.464.464,0,1,1,.656-.656l2.444,2.5a.468.468,0,0,1,0,.656A.847.847,0,0,1,34.051,16.888Z" transform="translate(-31.175 -13.475)" fill="#0f0f0f"/>
        </g>
        <g id="Grupo_1114249" data-name="Grupo 1114249" transform="translate(24.625 3.941)">
          <path id="Trazado_907200" data-name="Trazado 907200" d="M45.6,18.67a.455.455,0,0,1-.3-.119.534.534,0,0,1-.06-.656L49.059,13.6a.466.466,0,1,1,.715.6l-3.815,4.351A.847.847,0,0,1,45.6,18.67Z" transform="translate(-45.161 -13.461)" fill="#0f0f0f"/>
        </g>
        <g id="Grupo_1114250" data-name="Grupo 1114250" transform="translate(17.734 14.05)">
          <path id="Trazado_907201" data-name="Trazado 907201" d="M34.077,41.018a.513.513,0,0,1-.477-.477c.3-7.093,3.7-9.9,3.815-10.014a.466.466,0,0,1,.6.715c-.06.06-3.219,2.682-3.517,9.359A.407.407,0,0,1,34.077,41.018Z" transform="translate(-33.6 -30.419)" fill="#0f0f0f"/>
        </g>
        <g id="Grupo_1114251" data-name="Grupo 1114251" transform="translate(21.441 14.05)">
          <path id="Trazado_907202" data-name="Trazado 907202" d="M43.086,38.812a.407.407,0,0,1-.417-.417c-.238-5.067-2.623-7.093-2.682-7.153a.466.466,0,0,1,.6-.715c.119.119,2.742,2.265,2.98,7.809a.647.647,0,0,1-.477.477Z" transform="translate(-39.819 -30.419)" fill="#0f0f0f"/>
        </g>
        <g id="Grupo_1114252" data-name="Grupo 1114252" transform="translate(14.816 11.498)">
          <path id="Trazado_907203" data-name="Trazado 907203" d="M43.366,29.394a29.965,29.965,0,0,1-13.412,0,1.627,1.627,0,0,1-1.192-2.027v-.06a1.616,1.616,0,0,1,1.907-1.133,26.828,26.828,0,0,0,11.922,0A1.616,1.616,0,0,1,44.5,27.307v.06A1.5,1.5,0,0,1,43.366,29.394Z" transform="translate(-28.705 -26.137)" fill="#5b5476"/>
        </g>
        <g id="Grupo_1114253" data-name="Grupo 1114253" transform="translate(14.992 11.47)">
          <path id="Trazado_907204" data-name="Trazado 907204" d="M43.485,29.375a29.965,29.965,0,0,1-13.412,0A1.484,1.484,0,0,1,29,28.481a29.978,29.978,0,0,0,12.816-.119,1.654,1.654,0,0,0,1.192-2.027v-.06c0-.06-.06-.119-.06-.179a1.688,1.688,0,0,1,1.729,1.133v.06a1.605,1.605,0,0,1-1.192,2.086Z" transform="translate(-29 -26.092)" fill="#3f3b5b"/>
        </g>
        <g id="Grupo_1114254" data-name="Grupo 1114254" transform="translate(14.398 11.125)">
          <path id="Trazado_907205" data-name="Trazado 907205" d="M36.406,30.333a28.988,28.988,0,0,1-6.8-.775A2.121,2.121,0,0,1,28.3,28.6,2.173,2.173,0,0,1,28.061,27,2.041,2.041,0,0,1,30.5,25.565a26.039,26.039,0,0,0,11.743,0A2.092,2.092,0,0,1,44.692,27v.06a1.927,1.927,0,0,1-.238,1.609,2.121,2.121,0,0,1-1.311.954,31.508,31.508,0,0,1-6.736.715Zm-7.451-3.1a1.345,1.345,0,0,0,.119.954,1.05,1.05,0,0,0,.775.536,29.181,29.181,0,0,0,13.233,0,1.171,1.171,0,0,0,.775-.536,1.072,1.072,0,0,0,.119-.954v-.06a1.1,1.1,0,0,0-1.371-.775,27.9,27.9,0,0,1-12.16,0,1.167,1.167,0,0,0-1.49.835Z" transform="translate(-28.003 -25.512)" fill="#0f0f0f"/>
        </g>
        <g id="Grupo_1114263" data-name="Grupo 1114263" transform="translate(9.454 24.27)">
          <g id="Grupo_1114255" data-name="Grupo 1114255">
            <circle id="Elipse_12779" data-name="Elipse 12779" cx="9.537" cy="9.537" r="9.537" transform="translate(0 15.527) rotate(-54.482)" fill="#fff"/>
          </g>
          <g id="Grupo_1114256" data-name="Grupo 1114256" transform="translate(3.689 5.624)">
            <path id="Trazado_907206" data-name="Trazado 907206" d="M43.067,70.472A9.568,9.568,0,0,1,25.9,64.511,9.717,9.717,0,0,1,29.715,57a9.7,9.7,0,0,0-1.967,5.663,9.542,9.542,0,0,0,9.418,9.716A9.111,9.111,0,0,0,43.067,70.472Z" transform="translate(-25.899 -57)" fill="#ddd"/>
          </g>
          <g id="Grupo_1114257" data-name="Grupo 1114257" transform="translate(3.27 3.297)">
            <path id="Trazado_907207" data-name="Trazado 907207" d="M35.213,73.127h-.179a10.107,10.107,0,1,1,.179,0Zm0-19.134a9.056,9.056,0,0,0-9.061,8.941,9.12,9.12,0,0,0,9,9.239h.119a9.134,9.134,0,0,0,9.12-9h0a9.044,9.044,0,0,0-2.563-6.5,8.939,8.939,0,0,0-6.378-2.742A.451.451,0,0,1,35.213,53.992Z" transform="translate(-25.196 -53.096)" fill="#0f0f0f"/>
          </g>
          <g id="Grupo_1114262" data-name="Grupo 1114262" transform="translate(9.829 8.009)">
            <g id="Grupo_1114258" data-name="Grupo 1114258" transform="translate(0.06 1.013)">
              <path id="Trazado_907208" data-name="Trazado 907208" d="M40.771,67.469l-2.146-.06a2.355,2.355,0,0,1,.06-4.709l2.146.06a2.256,2.256,0,0,1,1.669.715,2.562,2.562,0,0,1,.656,1.669.448.448,0,0,1-.894-.06,1.228,1.228,0,0,0-.417-1.013,1.691,1.691,0,0,0-1.013-.417l-2.146-.06a1.461,1.461,0,1,0-.06,2.921l2.146.06a.425.425,0,0,1,.417.477A.448.448,0,0,1,40.771,67.469Z" transform="translate(-36.3 -62.7)" fill="#0f0f0f"/>
            </g>
            <g id="Grupo_1114259" data-name="Grupo 1114259" transform="translate(0 4.948)">
              <path id="Trazado_907209" data-name="Trazado 907209" d="M40.671,73.89H38.525A2.341,2.341,0,0,1,36.2,71.506a.448.448,0,0,1,.894.06,1.5,1.5,0,0,0,1.431,1.49l2.146.06a1.307,1.307,0,0,0,1.013-.417,1.4,1.4,0,0,0,.417-1.013,1.228,1.228,0,0,0-.417-1.013,1.691,1.691,0,0,0-1.013-.417l-2.146-.06a.425.425,0,0,1-.417-.477.461.461,0,0,1,.477-.417l2.146.06a2.256,2.256,0,0,1,1.669.715,2.562,2.562,0,0,1,.656,1.669,2.256,2.256,0,0,1-.715,1.669,3.653,3.653,0,0,1-1.669.477Z" transform="translate(-36.2 -69.3)" fill="#0f0f0f"/>
            </g>
            <g id="Grupo_1114260" data-name="Grupo 1114260" transform="translate(3.04)">
              <path id="Trazado_907210" data-name="Trazado 907210" d="M41.777,62.907a.47.47,0,0,1-.477-.477V61.417a.448.448,0,0,1,.894.06V62.49A.407.407,0,0,1,41.777,62.907Z" transform="translate(-41.3 -61)" fill="#0f0f0f"/>
            </g>
            <g id="Grupo_1114261" data-name="Grupo 1114261" transform="translate(2.921 8.643)">
              <path id="Trazado_907211" data-name="Trazado 907211" d="M41.577,77.407a.47.47,0,0,1-.477-.477V75.917a.461.461,0,0,1,.477-.417.425.425,0,0,1,.417.477V76.99A.407.407,0,0,1,41.577,77.407Z" transform="translate(-41.1 -75.5)" fill="#0f0f0f"/>
            </g>
          </g>
        </g>
      </g>
      <g id="Grupo_1114268" data-name="Grupo 1114268" transform="translate(7.496 16.556)">
        <g id="Grupo_1114265" data-name="Grupo 1114265" transform="translate(0.417 0.417)">
          <path id="Trazado_907212" data-name="Trazado 907212" d="M14.753,27.927A2.027,2.027,0,1,1,12.727,25.9,2.01,2.01,0,0,1,14.753,27.927Z" transform="translate(-10.7 -25.9)" fill="#aff2b6"/>
        </g>
        <g id="Grupo_1114266" data-name="Grupo 1114266" transform="translate(0.536 0.775)">
          <path id="Trazado_907213" data-name="Trazado 907213" d="M14.834,28.169a2.033,2.033,0,0,1-3.934.715,2.059,2.059,0,0,0,1.073.3A2.01,2.01,0,0,0,14,27.156a2.143,2.143,0,0,0-.119-.656A1.955,1.955,0,0,1,14.834,28.169Z" transform="translate(-10.9 -26.5)" fill="#7fd685"/>
        </g>
        <g id="Grupo_1114267" data-name="Grupo 1114267">
          <path id="Trazado_907214" data-name="Trazado 907214" d="M12.444,30.088A2.417,2.417,0,0,1,10,27.644,2.455,2.455,0,0,1,12.444,25.2a2.417,2.417,0,0,1,2.444,2.444A2.455,2.455,0,0,1,12.444,30.088Zm0-3.994a1.55,1.55,0,1,0,1.55,1.55A1.5,1.5,0,0,0,12.444,26.094Z" transform="translate(-10 -25.2)" fill="#0f0f0f"/>
        </g>
      </g>
      <g id="Grupo_1114272" data-name="Grupo 1114272" transform="translate(55.183 50.295)">
        <g id="Grupo_1114269" data-name="Grupo 1114269" transform="translate(0.358 0.417)">
          <path id="Trazado_907215" data-name="Trazado 907215" d="M94.653,84.527A2.027,2.027,0,1,1,92.627,82.5,2.088,2.088,0,0,1,94.653,84.527Z" transform="translate(-90.6 -82.5)" fill="#c3c9fb"/>
        </g>
        <g id="Grupo_1114270" data-name="Grupo 1114270" transform="translate(0.477 0.775)">
          <path id="Trazado_907216" data-name="Trazado 907216" d="M94.734,84.769a2.033,2.033,0,0,1-3.934.715,2.058,2.058,0,0,0,1.073.3A2.01,2.01,0,0,0,93.9,83.756a2.143,2.143,0,0,0-.119-.656,1.835,1.835,0,0,1,.954,1.669Z" transform="translate(-90.8 -83.1)" fill="#8693e2"/>
        </g>
        <g id="Grupo_1114271" data-name="Grupo 1114271">
          <path id="Trazado_907217" data-name="Trazado 907217" d="M92.444,86.688a2.444,2.444,0,1,1,2.444-2.444A2.455,2.455,0,0,1,92.444,86.688Zm0-3.994a1.55,1.55,0,1,0,1.55,1.55A1.578,1.578,0,0,0,92.444,82.694Z" transform="translate(-90 -81.8)" fill="#0f0f0f"/>
        </g>
      </g>
      <g id="Grupo_1114276" data-name="Grupo 1114276" transform="translate(38.254 3.8)">
        <g id="Grupo_1114273" data-name="Grupo 1114273" transform="translate(0.507 0.566)">
          <path id="Trazado_907218" data-name="Trazado 907218" d="M69.752,8.535a4.455,4.455,0,0,0-3.517,3.517.089.089,0,1,1-.179,0A4.081,4.081,0,0,0,64.8,9.787a4.477,4.477,0,0,0-2.265-1.252.089.089,0,0,1,0-.179A4.081,4.081,0,0,0,64.8,7.1a4.736,4.736,0,0,0,1.252-2.265.089.089,0,1,1,.179,0A4.081,4.081,0,0,0,67.487,7.1a4.736,4.736,0,0,0,2.265,1.252c.06,0,.06.119,0,.179Z" transform="translate(-62.45 -4.75)" fill="#abecef"/>
        </g>
        <g id="Grupo_1114274" data-name="Grupo 1114274" transform="translate(2.98 2.742)">
          <path id="Trazado_907219" data-name="Trazado 907219" d="M71.428,9.95a4.455,4.455,0,0,0-3.517,3.517.089.089,0,0,1-.179,0A4.877,4.877,0,0,0,66.6,11.261,3.051,3.051,0,0,0,69.1,8.4c0,.06.06.06.119.119a4.477,4.477,0,0,0,2.265,1.252C71.488,9.831,71.488,9.95,71.428,9.95Z" transform="translate(-66.6 -8.4)" fill="#75c5c9"/>
        </g>
        <g id="Grupo_1114275" data-name="Grupo 1114275">
          <path id="Trazado_907220" data-name="Trazado 907220" d="M65.773,12.145a.573.573,0,0,1-.536-.417A4.24,4.24,0,0,0,64.1,9.642a4,4,0,0,0-2.086-1.133.554.554,0,0,1,0-1.073A4.24,4.24,0,0,0,64.1,6.3a4,4,0,0,0,1.133-2.086.554.554,0,0,1,1.073,0,4.178,4.178,0,0,0,3.219,3.219.554.554,0,0,1,0,1.073,4.011,4.011,0,0,0-3.159,3.159A.685.685,0,0,1,65.773,12.145ZM63.329,8.032a5.208,5.208,0,0,1,2.444,2.444,4.882,4.882,0,0,1,2.444-2.444,4.809,4.809,0,0,1-1.431-1.013,4.809,4.809,0,0,1-1.013-1.431,4.809,4.809,0,0,1-1.013,1.431A4.809,4.809,0,0,1,63.329,8.032Zm5.961-.358Z" transform="translate(-61.6 -3.8)" fill="#0f0f0f"/>
        </g>
      </g>
      <g id="Grupo_1114296" data-name="Grupo 1114296" transform="translate(3.8 50.414)">
        <g id="Grupo_1114295" data-name="Grupo 1114295">
          <g id="Grupo_1114294" data-name="Grupo 1114294">
            <g id="Grupo_1114293" data-name="Grupo 1114293">
              <g id="Grupo_1114277" data-name="Grupo 1114277" transform="translate(0.417 5.663)">
                <path id="Trazado_907221" data-name="Trazado 907221" d="M24.469,92.394v3.457a.878.878,0,0,1-.894.894H5.394a.878.878,0,0,1-.894-.894V92.394a.878.878,0,0,1,.894-.894H23.575A.961.961,0,0,1,24.469,92.394Z" transform="translate(-4.5 -91.5)" fill="#ffd9b0"/>
              </g>
              <g id="Grupo_1114278" data-name="Grupo 1114278" transform="translate(0.477 5.663)">
                <path id="Trazado_907222" data-name="Trazado 907222" d="M24.509,95.375v.536a.917.917,0,0,1-.894.894H5.435a.831.831,0,0,1-.835-.894V92.394a.866.866,0,0,1,.835-.894H7.342q-1.073.536-1.073,1.073c0,1.55,6.557,2.861,14.6,2.861,1.252,0,2.444,0,3.636-.06Z" transform="translate(-4.6 -91.5)" fill="#edb57e"/>
              </g>
              <g id="Grupo_1114279" data-name="Grupo 1114279" transform="translate(0 5.246)">
                <path id="Trazado_907223" data-name="Trazado 907223" d="M23.292,96.94H5.111A1.323,1.323,0,0,1,3.8,95.628V92.111A1.323,1.323,0,0,1,5.111,90.8H23.292A1.323,1.323,0,0,1,24.6,92.111v3.457A1.337,1.337,0,0,1,23.292,96.94ZM5.111,91.694a.407.407,0,0,0-.417.417v3.457a.407.407,0,0,0,.417.417H23.292a.407.407,0,0,0,.417-.417V92.111a.407.407,0,0,0-.417-.417Z" transform="translate(-3.8 -90.8)" fill="#0f0f0f"/>
              </g>
              <g id="Grupo_1114284" data-name="Grupo 1114284" transform="translate(3.577 5.246)">
                <g id="Grupo_1114280" data-name="Grupo 1114280">
                  <path id="Trazado_907224" data-name="Trazado 907224" d="M10.277,96.94a.47.47,0,0,1-.477-.477V91.277a.47.47,0,0,1,.477-.477.439.439,0,0,1,.477.477v5.186A.513.513,0,0,1,10.277,96.94Z" transform="translate(-9.8 -90.8)" fill="#0f0f0f"/>
                </g>
                <g id="Grupo_1114281" data-name="Grupo 1114281" transform="translate(4.232)">
                  <path id="Trazado_907225" data-name="Trazado 907225" d="M17.377,96.94a.47.47,0,0,1-.477-.477V91.277a.47.47,0,0,1,.477-.477.439.439,0,0,1,.477.477v5.186A.513.513,0,0,1,17.377,96.94Z" transform="translate(-16.9 -90.8)" fill="#0f0f0f"/>
                </g>
                <g id="Grupo_1114282" data-name="Grupo 1114282" transform="translate(8.464)">
                  <path id="Trazado_907226" data-name="Trazado 907226" d="M24.477,96.94A.47.47,0,0,1,24,96.463V91.277a.47.47,0,0,1,.477-.477.439.439,0,0,1,.477.477v5.186A.513.513,0,0,1,24.477,96.94Z" transform="translate(-24 -90.8)" fill="#0f0f0f"/>
                </g>
                <g id="Grupo_1114283" data-name="Grupo 1114283" transform="translate(12.697)">
                  <path id="Trazado_907227" data-name="Trazado 907227" d="M31.577,96.94a.47.47,0,0,1-.477-.477V91.277a.47.47,0,0,1,.477-.477.439.439,0,0,1,.477.477v5.186A.513.513,0,0,1,31.577,96.94Z" transform="translate(-31.1 -90.8)" fill="#0f0f0f"/>
                </g>
              </g>
              <g id="Grupo_1114285" data-name="Grupo 1114285" transform="translate(2.563 0.477)">
                <path id="Trazado_907228" data-name="Trazado 907228" d="M28.009,83.694v3.457a.878.878,0,0,1-.894.894H8.994a.878.878,0,0,1-.894-.894V83.694a.878.878,0,0,1,.894-.894H27.175A.866.866,0,0,1,28.009,83.694Z" transform="translate(-8.1 -82.8)" fill="#ffd9b0"/>
              </g>
              <g id="Grupo_1114286" data-name="Grupo 1114286" transform="translate(2.563 0.477)">
                <path id="Trazado_907229" data-name="Trazado 907229" d="M28.009,85.84v1.311a.878.878,0,0,1-.894.894H8.994a.878.878,0,0,1-.894-.894V83.694a.878.878,0,0,1,.894-.894h3.1c-1.729.358-2.742.775-2.742,1.192,0,1.073,5.9,1.967,13.233,1.967A53.3,53.3,0,0,0,28.009,85.84Z" transform="translate(-8.1 -82.8)" fill="#edb57e"/>
              </g>
              <g id="Grupo_1114287" data-name="Grupo 1114287" transform="translate(2.146 0.06)">
                <path id="Trazado_907230" data-name="Trazado 907230" d="M26.892,88.18H8.711A1.323,1.323,0,0,1,7.4,86.869V83.411A1.323,1.323,0,0,1,8.711,82.1H26.892A1.323,1.323,0,0,1,28.2,83.411v3.457A1.323,1.323,0,0,1,26.892,88.18ZM8.711,82.994a.407.407,0,0,0-.417.417v3.457a.407.407,0,0,0,.417.417H26.892a.407.407,0,0,0,.417-.417V83.411a.407.407,0,0,0-.417-.417Z" transform="translate(-7.4 -82.1)" fill="#0f0f0f"/>
              </g>
              <g id="Grupo_1114292" data-name="Grupo 1114292" transform="translate(5.722)">
                <g id="Grupo_1114288" data-name="Grupo 1114288" transform="translate(0)">
                  <path id="Trazado_907231" data-name="Trazado 907231" d="M13.877,88.14a.47.47,0,0,1-.477-.477V82.477A.47.47,0,0,1,13.877,82a.439.439,0,0,1,.477.477v5.186C14.294,87.961,14.115,88.14,13.877,88.14Z" transform="translate(-13.4 -82)" fill="#0f0f0f"/>
                </g>
                <g id="Grupo_1114289" data-name="Grupo 1114289" transform="translate(4.232)">
                  <path id="Trazado_907232" data-name="Trazado 907232" d="M20.977,88.14a.47.47,0,0,1-.477-.477V82.477A.47.47,0,0,1,20.977,82a.439.439,0,0,1,.477.477v5.186C21.394,87.961,21.215,88.14,20.977,88.14Z" transform="translate(-20.5 -82)" fill="#0f0f0f"/>
                </g>
                <g id="Grupo_1114290" data-name="Grupo 1114290" transform="translate(8.464)">
                  <path id="Trazado_907233" data-name="Trazado 907233" d="M28.077,88.14a.47.47,0,0,1-.477-.477V82.477A.47.47,0,0,1,28.077,82a.439.439,0,0,1,.477.477v5.186C28.494,87.961,28.315,88.14,28.077,88.14Z" transform="translate(-27.6 -82)" fill="#0f0f0f"/>
                </g>
                <g id="Grupo_1114291" data-name="Grupo 1114291" transform="translate(12.697)">
                  <path id="Trazado_907234" data-name="Trazado 907234" d="M35.177,88.14a.47.47,0,0,1-.477-.477V82.477A.47.47,0,0,1,35.177,82a.439.439,0,0,1,.477.477v5.186C35.594,87.961,35.415,88.14,35.177,88.14Z" transform="translate(-34.7 -82)" fill="#0f0f0f"/>
                </g>
              </g>
            </g>
          </g>
        </g>
      </g>
      <g id="Grupo_1114317" data-name="Grupo 1114317" transform="translate(34.975 13.159)">
        <g id="Grupo_1114316" data-name="Grupo 1114316">
          <g id="Grupo_1114315" data-name="Grupo 1114315">
            <g id="Grupo_1114311" data-name="Grupo 1114311">
              <g id="Grupo_1114297" data-name="Grupo 1114297" transform="translate(0.417 2.802)">
                <path id="Trazado_907235" data-name="Trazado 907235" d="M69.795,50.189A12.995,12.995,0,1,1,82.789,37.195,13.025,13.025,0,0,1,69.795,50.189Z" transform="translate(-56.8 -24.2)" fill="#ff84a0"/>
              </g>
              <g id="Grupo_1114298" data-name="Grupo 1114298" transform="translate(0.477 5.722)">
                <path id="Trazado_907236" data-name="Trazado 907236" d="M79.969,47.34a12.839,12.839,0,0,1-10.074,4.828A12.972,12.972,0,0,1,61.728,29.1,12.974,12.974,0,0,0,71.862,50.2,12.689,12.689,0,0,0,79.969,47.34Z" transform="translate(-56.9 -29.1)" fill="#f76189"/>
              </g>
              <g id="Grupo_1114299" data-name="Grupo 1114299" transform="translate(3.278 5.663)">
                <path id="Trazado_907237" data-name="Trazado 907237" d="M71.733,49.267A10.133,10.133,0,1,1,81.867,39.133,10.125,10.125,0,0,1,71.733,49.267Z" transform="translate(-61.6 -29)" fill="#fff"/>
              </g>
              <g id="Grupo_1114300" data-name="Grupo 1114300" transform="translate(3.278 10.372)">
                <path id="Trazado_907238" data-name="Trazado 907238" d="M81.509,44.947A10.127,10.127,0,0,1,61.6,42.324,9.842,9.842,0,0,1,63.209,36.9a9.181,9.181,0,0,0-.358,2.563,10.135,10.135,0,0,0,18.658,5.484Z" transform="translate(-61.6 -36.9)" fill="#ddd"/>
              </g>
              <g id="Grupo_1114301" data-name="Grupo 1114301" transform="translate(6.676 9.12)">
                <path id="Trazado_907239" data-name="Trazado 907239" d="M74.036,48.272a6.736,6.736,0,1,1,6.736-6.736A6.767,6.767,0,0,1,74.036,48.272Z" transform="translate(-67.3 -34.8)" fill="#ff84a0"/>
              </g>
              <g id="Grupo_1114302" data-name="Grupo 1114302" transform="translate(6.676 10.432)">
                <path id="Trazado_907240" data-name="Trazado 907240" d="M79.877,45.762A6.743,6.743,0,1,1,69.982,37a6.576,6.576,0,0,0-.894,3.4,6.767,6.767,0,0,0,6.736,6.736A6.186,6.186,0,0,0,79.877,45.762Z" transform="translate(-67.3 -37)" fill="#f76189"/>
              </g>
              <g id="Grupo_1114303" data-name="Grupo 1114303" transform="translate(10.074 12.458)">
                <path id="Trazado_907241" data-name="Trazado 907241" d="M76.338,47.076a3.338,3.338,0,1,1,3.338-3.338A3.333,3.333,0,0,1,76.338,47.076Z" transform="translate(-73 -40.4)" fill="#fff"/>
              </g>
              <g id="Grupo_1114304" data-name="Grupo 1114304" transform="translate(10.074 12.995)">
                <path id="Trazado_907242" data-name="Trazado 907242" d="M79.378,45.473A3.32,3.32,0,0,1,73,44.161,3.19,3.19,0,0,1,74.669,41.3a3.208,3.208,0,0,0-.238,1.311,3.333,3.333,0,0,0,3.338,3.338A4.609,4.609,0,0,0,79.378,45.473Z" transform="translate(-73 -41.3)" fill="#ddd"/>
              </g>
              <g id="Grupo_1114305" data-name="Grupo 1114305" transform="translate(11.981)">
                <path id="Trazado_907243" data-name="Trazado 907243" d="M76.617,20.454a.407.407,0,0,1-.417-.417.461.461,0,0,1,.417-.477c.358,0,.715-.06,1.013-.06a.47.47,0,0,1,.477.477.422.422,0,0,1-.477.417c-.3,0-.656.06-1.013.06Z" transform="translate(-76.2 -19.5)" fill="#0f0f0f"/>
              </g>
              <g id="Grupo_1114306" data-name="Grupo 1114306" transform="translate(3.796 0.346)">
                <path id="Trazado_907244" data-name="Trazado 907244" d="M62.9,23.728a.425.425,0,0,1-.358-.179.485.485,0,0,1,.119-.656,15.821,15.821,0,0,1,6.2-2.8.456.456,0,0,1,.179.894,15.6,15.6,0,0,0-5.9,2.682c-.06,0-.179.06-.238.06Z" transform="translate(-62.469 -20.081)" fill="#0f0f0f"/>
              </g>
              <g id="Grupo_1114307" data-name="Grupo 1114307" transform="translate(0 2.444)">
                <path id="Trazado_907245" data-name="Trazado 907245" d="M69.512,50.424A13.412,13.412,0,1,1,82.924,37.012,13.432,13.432,0,0,1,69.512,50.424Zm0-25.989A12.518,12.518,0,1,0,82.03,36.952,12.516,12.516,0,0,0,69.512,24.435Z" transform="translate(-56.1 -23.6)" fill="#0f0f0f"/>
              </g>
              <g id="Grupo_1114308" data-name="Grupo 1114308" transform="translate(2.861 5.305)">
                <path id="Trazado_907246" data-name="Trazado 907246" d="M71.451,49.5A10.551,10.551,0,1,1,82,38.951,10.532,10.532,0,0,1,71.451,49.5Zm0-20.267a9.657,9.657,0,1,0,9.657,9.716A9.693,9.693,0,0,0,71.451,29.235Z" transform="translate(-60.9 -28.4)" fill="#0f0f0f"/>
              </g>
              <g id="Grupo_1114309" data-name="Grupo 1114309" transform="translate(6.199 8.643)">
                <path id="Trazado_907247" data-name="Trazado 907247" d="M73.713,48.366a7.183,7.183,0,1,1,7.213-7.153A7.238,7.238,0,0,1,73.713,48.366Zm0-13.472a6.319,6.319,0,1,0,6.319,6.319A6.322,6.322,0,0,0,73.713,34.894Z" transform="translate(-66.5 -34)" fill="#0f0f0f"/>
              </g>
              <g id="Grupo_1114310" data-name="Grupo 1114310" transform="translate(9.657 12.101)">
                <path id="Trazado_907248" data-name="Trazado 907248" d="M76.055,47.311a3.755,3.755,0,1,1,3.755-3.755A3.778,3.778,0,0,1,76.055,47.311Zm0-6.676a2.861,2.861,0,0,0,0,5.722A2.9,2.9,0,0,0,78.917,43.5,2.862,2.862,0,0,0,76.055,40.635Z" transform="translate(-72.3 -39.8)" fill="#0f0f0f"/>
              </g>
            </g>
            <g id="Grupo_1114314" data-name="Grupo 1114314" transform="translate(13.039 3.157)">
              <g id="Grupo_1114312" data-name="Grupo 1114312" transform="translate(0 0.584)">
                <path id="Trazado_907249" data-name="Trazado 907249" d="M78.407,38.308a.455.455,0,0,1-.3-.119.468.468,0,0,1,0-.656L90.031,25.909a.464.464,0,1,1,.656.656L78.705,38.189A.455.455,0,0,1,78.407,38.308Z" transform="translate(-77.975 -25.775)" fill="#0f0f0f"/>
              </g>
              <g id="Grupo_1114313" data-name="Grupo 1114313" transform="translate(8.301)">
                <path id="Trazado_907250" data-name="Trazado 907250" d="M96.873,27.833,94.786,29.68a.219.219,0,0,1-.179.06l-1.729-.179c-.119,0-.179-.119-.179-.238l.06-1.729a.219.219,0,0,1,.06-.179l2.086-1.848c.119-.119.358,0,.358.179l-.06,1.311c0,.119.06.238.179.238l1.311.119c.238.06.3.3.179.417Z" transform="translate(-92.223 -25.088)" fill="#5b5476"/>
                <path id="Trazado_907251" data-name="Trazado 907251" d="M94.284,29.865h-.06L92.5,29.686a.65.65,0,0,1-.6-.656l.06-1.729a.542.542,0,0,1,.238-.477l2.086-1.848A.634.634,0,0,1,95,24.858a.656.656,0,0,1,.358.6v1.073l1.073.119a.708.708,0,0,1,.6.477.783.783,0,0,1-.179.715l-2.086,1.848a.6.6,0,0,1-.477.179Zm-1.49-1.013,1.431.119,1.609-1.431-.775-.06a.613.613,0,0,1-.6-.656V26.05l-1.609,1.431Zm2.325-2.265Z" transform="translate(-91.9 -24.796)" fill="#0f0f0f"/>
              </g>
            </g>
          </g>
        </g>
      </g>
    </g>
  </g>
</svg>
