<svg xmlns="http://www.w3.org/2000/svg" xmlns:xlink="http://www.w3.org/1999/xlink" width="113" height="113" viewBox="0 0 113 113">
  <defs>
    <filter id="Trazado_896985" x="0" y="0" width="113" height="113" filterUnits="userSpaceOnUse">
      <feOffset dy="3" input="SourceAlpha"/>
      <feGaussianBlur stdDeviation="3" result="blur"/>
      <feFlood flood-opacity="0.161"/>
      <feComposite operator="in" in2="blur"/>
      <feComposite in="SourceGraphic"/>
    </filter>
  </defs>
  <g id="Grupo_1114359" data-name="Grupo 1114359" transform="translate(-247.051 -3295)">
    <g id="Grupo_1098742" data-name="Grupo 1098742" transform="translate(256.051 3301)" style="isolation: isolate">
      <g transform="matrix(1, 0, 0, 1, -9, -6)" filter="url(#Trazado_896985)">
        <g id="Trazado_896985-2" data-name="Trazado 896985" transform="translate(9 6)" fill="#e2dacc">
          <path d="M 47.49993515014648 93.5 C 41.28932189941406 93.5 35.26528167724609 92.28397369384766 29.59514808654785 89.88571929931641 C 24.1176815032959 87.56894683837891 19.1981086730957 84.25197601318359 14.97306823730469 80.02693176269531 C 10.74802875518799 75.80189514160156 7.431055068969727 70.88231658935547 5.11428165435791 65.40485382080078 C 2.716028451919556 59.73471832275391 1.500001788139343 53.71067810058594 1.500001788139343 47.50006484985352 C 1.500001788139343 41.28932189941406 2.716028451919556 35.26528167724609 5.11428165435791 29.59514617919922 C 7.431055068969727 24.11767959594727 10.74802875518799 19.19810676574707 14.97306823730469 14.97306632995605 C 19.1981086730957 10.74802684783936 24.1176815032959 7.431053161621094 29.59514808654785 5.114280223846436 C 35.26528167724609 2.716026782989502 41.28932189941406 1.5 47.49993515014648 1.5 C 53.71054840087891 1.5 59.73458862304688 2.716026782989502 65.40472412109375 5.114280223846436 C 70.88218688964844 7.431053161621094 75.80176544189453 10.74802684783936 80.02680206298828 14.97306632995605 C 84.25183868408203 19.19810676574707 87.56881713867188 24.11767959594727 89.88558959960938 29.59514617919922 C 92.28384399414062 35.26528167724609 93.49987030029297 41.28932189941406 93.49987030029297 47.49993515014648 C 93.49987030029297 53.71067810058594 92.28384399414062 59.73471832275391 89.88558959960938 65.40485382080078 C 87.56881713867188 70.88231658935547 84.25183868408203 75.80189514160156 80.02680206298828 80.02693176269531 C 75.80176544189453 84.25197601318359 70.88218688964844 87.56894683837891 65.40472412109375 89.88571929931641 C 59.73458862304688 92.28397369384766 53.71054840087891 93.5 47.49993515014648 93.5 Z" stroke="none"/>
          <path d="M 47.49993515014648 3 C 41.49116516113281 3 35.66371917724609 4.176155090332031 30.17947387695312 6.495796203613281 C 24.88081359863281 8.7369384765625 20.12149047851562 11.94596862792969 16.03372192382812 16.03372192382812 C 11.94596862792969 20.12149047851562 8.7369384765625 24.88081359863281 6.495796203613281 30.17947387695312 C 4.1761474609375 35.66372299194336 3 41.49116897583008 3 47.50006103515625 C 3 53.50883102416992 4.1761474609375 59.33627700805664 6.495796203613281 64.82052612304688 C 8.7369384765625 70.11918640136719 11.94596862792969 74.87850952148438 16.03372192382812 78.96627807617188 C 20.12149047851562 83.05403137207031 24.88081359863281 86.2630615234375 30.17947387695312 88.50419616699219 C 35.66371917724609 90.82384490966797 41.49116516113281 92 47.49993515014648 92 C 53.50870513916016 92 59.33615112304688 90.82384490966797 64.82039642333984 88.50419616699219 C 70.11905670166016 86.2630615234375 74.87837982177734 83.05403137207031 78.96614837646484 78.96627807617188 C 83.05390167236328 74.87850952148438 86.26293182373047 70.11918640136719 88.50407409667969 64.82052612304688 C 90.82372283935547 59.33627700805664 91.99987030029297 53.50883102416992 91.99987030029297 47.49993896484375 C 91.99987030029297 41.49116897583008 90.82372283935547 35.66372299194336 88.50407409667969 30.17947387695312 C 86.26293182373047 24.88081359863281 83.05390167236328 20.12149047851562 78.96614837646484 16.03372192382812 C 74.87837982177734 11.94596862792969 70.11905670166016 8.7369384765625 64.82039642333984 6.495796203613281 C 59.33615112304688 4.176155090332031 53.50870513916016 3 47.49993515014648 3 M 47.49993515014648 0 C 73.73342895507812 0 94.99987030029297 21.26644897460938 94.99987030029297 47.49993896484375 L 94.99987030029297 47.50006103515625 C 94.99987030029297 73.73355102539062 73.73342895507812 95 47.49993515014648 95 C 21.26644134521484 95 0 73.73355102539062 0 47.50006103515625 L 0 47.49993896484375 C 0 21.26644897460938 21.26644134521484 0 47.49993515014648 0 Z" stroke="none" fill="#fff"/>
        </g>
      </g>
      <g id="Rectángulo_400907" data-name="Rectángulo 400907" transform="translate(0 0)" fill="none" stroke="#fff" stroke-width="3">
        <rect width="95" height="95" rx="47.5" stroke="none"/>
        <rect x="1.5" y="1.5" width="92" height="92" rx="46" fill="none"/>
      </g>
    </g>
    <g id="Grupo_1114358" data-name="Grupo 1114358" transform="translate(276.051 3315.41)">
      <g id="Grupo_1114356" data-name="Grupo 1114356" transform="translate(0.806 7.396)">
        <g id="Grupo_1114355" data-name="Grupo 1114355">
          <g id="Grupo_1114351" data-name="Grupo 1114351" transform="translate(13.487 9.654)">
            <g id="Grupo_1114349" data-name="Grupo 1114349" transform="translate(2.391 4.249)">
              <path id="Trazado_907291" data-name="Trazado 907291" d="M170.431,171.081a10.348,10.348,0,0,1,4.732-8.688l-3.931-3.931a.747.747,0,0,1,0-1.056l4.252-4.252a3.735,3.735,0,0,0,1.094-2.641v-7.079H155.221v7.079a3.735,3.735,0,0,0,1.094,2.641l4.252,4.252a.747.747,0,0,1,0,1.056l-4.252,4.252a3.735,3.735,0,0,0-1.094,2.641v7.079h15.3A10.412,10.412,0,0,1,170.431,171.081Z" transform="translate(-155.221 -143.433)" fill="#f3f0f3"/>
              <path id="Trazado_907292" data-name="Trazado 907292" d="M280.552,164.1a10.43,10.43,0,0,1,2.017-1.708l-3.931-3.931a.747.747,0,0,1,0-1.056l4.252-4.252a3.735,3.735,0,0,0,1.094-2.641v-7.079h-3.216v7.079a3.735,3.735,0,0,1-1.094,2.641l-3.64,3.64a1.612,1.612,0,0,0,0,2.28l3.64,3.64A3.736,3.736,0,0,1,280.552,164.1Z" transform="translate(-262.627 -143.432)" fill="#e2dee2"/>
              <path id="Trazado_907293" data-name="Trazado 907293" d="M197.208,365.907a10.289,10.289,0,0,1,.884-4.184H186.3a1.075,1.075,0,0,0-1.075,1.075v4.462H197.3A10.393,10.393,0,0,1,197.208,365.907Z" transform="translate(-181.997 -338.259)" fill="#b5adb6"/>
              <path id="Trazado_907294" data-name="Trazado 907294" d="M275.964,365.907a10.289,10.289,0,0,1,.884-4.184h-2.513a10.419,10.419,0,0,0-.871,4.184,10.527,10.527,0,0,0,.089,1.353h2.5A10.393,10.393,0,0,1,275.964,365.907Z" transform="translate(-260.754 -338.259)" fill="#a79ba7"/>
              <path id="Trazado_907295" data-name="Trazado 907295" d="M192.441,206.512l5.777,5.777a1.075,1.075,0,0,0,1.52,0l5.777-5.777a.537.537,0,0,0-.38-.917H192.821A.537.537,0,0,0,192.441,206.512Z" transform="translate(-188.299 -198.913)" fill="#b5adb6"/>
              <path id="Trazado_907296" data-name="Trazado 907296" d="M247.391,205.6h-1.914l-5.848,5.848.846.846a1.075,1.075,0,0,0,1.52,0l5.777-5.777A.537.537,0,0,0,247.391,205.6Z" transform="translate(-230.556 -198.913)" fill="#a79ba7"/>
            </g>
            <g id="Grupo_1114350" data-name="Grupo 1114350">
              <path id="Trazado_907297" data-name="Trazado 907297" d="M157.648,108.256h-23.21a1.466,1.466,0,0,1-1.466-1.466v-1.426a1.466,1.466,0,0,1,1.466-1.466h23.21a1.466,1.466,0,0,1,1.466,1.466v1.426A1.466,1.466,0,0,1,157.648,108.256Z" transform="translate(-132.973 -103.899)" fill="#fe5ca7"/>
              <path id="Trazado_907298" data-name="Trazado 907298" d="M157.648,103.9h-1.756v.48a1.466,1.466,0,0,1-1.466,1.466H132.973v.946a1.466,1.466,0,0,0,1.466,1.466h23.21a1.465,1.465,0,0,0,1.466-1.466v-1.426A1.466,1.466,0,0,0,157.648,103.9Z" transform="translate(-132.973 -103.9)" fill="#fe3d97"/>
              <path id="Trazado_907299" data-name="Trazado 907299" d="M150.65,412.229H134.439a1.466,1.466,0,0,0-1.466,1.466v1.426a1.465,1.465,0,0,0,1.466,1.466h17.788a10.282,10.282,0,0,1-1.576-4.357Z" transform="translate(-132.973 -379.086)" fill="#fe5ca7"/>
              <path id="Trazado_907300" data-name="Trazado 907300" d="M151.086,430.532H132.973v.924a1.465,1.465,0,0,0,1.466,1.466h17.788A10.313,10.313,0,0,1,151.086,430.532Z" transform="translate(-132.973 -395.422)" fill="#fe3d97"/>
            </g>
          </g>
          <path id="Trazado_907301" data-name="Trazado 907301" d="M401.061,162.912l-5.847-5.895a.375.375,0,0,0-.532,0l-5.847,5.895a.375.375,0,0,0,.266.639h1.922a.625.625,0,0,1,.625.625v8.879a10.388,10.388,0,0,1,6.6,5.062V164.176a.625.625,0,0,1,.625-.625h1.922A.375.375,0,0,0,401.061,162.912Z" transform="translate(-347.747 -141.555)" fill="#46cc8d"/>
          <circle id="Elipse_12783" data-name="Elipse 12783" cx="10.455" cy="10.455" r="10.455" transform="translate(30.981 31.095)" fill="#ffe177"/>
          <g id="Grupo_1114352" data-name="Grupo 1114352" transform="translate(45.991 15.352)">
            <path id="Trazado_907302" data-name="Trazado 907302" d="M454.812,219.8v10.555a10.417,10.417,0,0,1,2.419,2.936V219.346a.625.625,0,0,1,.625-.625h-1.968a1.075,1.075,0,0,0-1.075,1.075Z" transform="translate(-452.721 -212.077)" fill="#00c27a"/>
            <path id="Trazado_907303" data-name="Trazado 907303" d="M442.685,162.912l-5.847-5.895a.375.375,0,0,0-.532,0l-.943.951,5.537,5.583h1.519A.375.375,0,0,0,442.685,162.912Z" transform="translate(-435.363 -156.907)" fill="#00c27a"/>
          </g>
          <path id="Trazado_907304" data-name="Trazado 907304" d="M19.835,20.1,13.988,14.2a.375.375,0,0,0-.532,0L7.609,20.1a.375.375,0,0,0,.266.639H9.8a.625.625,0,0,1,.625.625V39.868a.538.538,0,0,0,.537.537h5.525a.538.538,0,0,0,.537-.537V21.359a.625.625,0,0,1,.625-.625h1.922a.375.375,0,0,0,.266-.639Z" transform="translate(-7.5 -14.09)" fill="#46cc8d"/>
          <g id="Grupo_1114353" data-name="Grupo 1114353" transform="translate(5.013)">
            <path id="Trazado_907305" data-name="Trazado 907305" d="M69.123,76.979V95.038a.538.538,0,0,1-.537.537H71a.538.538,0,0,0,.537-.537V76.529a.625.625,0,0,1,.625-.625H70.2A1.075,1.075,0,0,0,69.123,76.979Z" transform="translate(-67.033 -69.26)" fill="#00c27a"/>
            <path id="Trazado_907306" data-name="Trazado 907306" d="M61.46,20.1,55.613,14.2a.375.375,0,0,0-.532,0l-.943.951,5.537,5.583h1.519A.375.375,0,0,0,61.46,20.1Z" transform="translate(-54.138 -14.09)" fill="#00c27a"/>
          </g>
          <g id="Grupo_1114354" data-name="Grupo 1114354" transform="translate(30.981 31.095)">
            <circle id="Elipse_12784" data-name="Elipse 12784" cx="10.455" cy="10.455" r="10.455" fill="#ffe177"/>
            <path id="Trazado_907307" data-name="Trazado 907307" d="M333.089,313.138a10.457,10.457,0,0,1-12.335,16.407,10.456,10.456,0,1,0,12.335-16.407Z" transform="translate(-318.063 -312.088)" fill="#ffd15b"/>
          </g>
        </g>
      </g>
      <g id="Grupo_1114357" data-name="Grupo 1114357" transform="translate(-0.001 6.59)">
        <path id="Trazado_907308" data-name="Trazado 907308" d="M247.873,287.973a.806.806,0,0,0-.806.806v.322a.806.806,0,0,0,1.612,0v-.322A.806.806,0,0,0,247.873,287.973Z" transform="translate(-220.509 -257.727)"/>
        <path id="Trazado_907309" data-name="Trazado 907309" d="M247.873,319.207a.806.806,0,0,0-.806.806v.322a.806.806,0,0,0,1.612,0v-.322A.806.806,0,0,0,247.873,319.207Z" transform="translate(-220.509 -285.604)"/>
        <path id="Trazado_907310" data-name="Trazado 907310" d="M364.044,345.013c-1.117-.412-2.153-.862-2.42-.979a.881.881,0,0,1-.349-.853,1.179,1.179,0,0,1,.892-.929,3.189,3.189,0,0,1,2.66.607.806.806,0,0,0,1.034-1.237,5.231,5.231,0,0,0-2.131-1v-.737a.806.806,0,0,0-1.612,0v.716a4.036,4.036,0,0,0-.416.1,2.786,2.786,0,0,0-2.023,2.244,2.49,2.49,0,0,0,1.11,2.465.8.8,0,0,0,.112.061c.05.022,1.242.553,2.585,1.048.949.35,1.432.9,1.324,1.5a1.754,1.754,0,0,1-1.8,1.225,3.321,3.321,0,0,1-2.44-1.027.806.806,0,1,0-1.195,1.083,4.869,4.869,0,0,0,2.744,1.476v.727a.806.806,0,1,0,1.612,0V350.8a3.252,3.252,0,0,0,2.667-2.484C366.593,347.209,366.079,345.764,364.044,345.013Z" transform="translate(-320.557 -303.344)"/>
        <path id="Trazado_907311" data-name="Trazado 907311" d="M166.677,108.341l-5.847-5.894a1.173,1.173,0,0,0-.839-.35h0a1.173,1.173,0,0,0-.839.349l-5.847,5.895a1.181,1.181,0,0,0,.838,2.013h1.741v1.8a.806.806,0,1,0,1.612,0v-1.985a1.433,1.433,0,0,0-1.431-1.431h-.887l4.811-4.851,4.811,4.851h-.887a1.432,1.432,0,0,0-1.431,1.431v11.282a11.282,11.282,0,0,0-4.988-3.128v-2.406a.806.806,0,0,0-1.612,0v2.044a11.255,11.255,0,0,0-7.229,1.355l-3.363-3.363,4.211-4.21a4.512,4.512,0,0,0,1.33-3.211v-6.165h.12a2.274,2.274,0,0,0,2.272-2.272V98.671a2.274,2.274,0,0,0-2.272-2.272h-3.389a.806.806,0,0,0,0,1.612h3.389a.66.66,0,0,1,.659.659V100.1a.66.66,0,0,1-.659.659h-23.21a.66.66,0,0,1-.659-.659V98.671a.66.66,0,0,1,.659-.659H143.8a.806.806,0,1,0,0-1.612H127.744a2.274,2.274,0,0,0-2.272,2.272V100.1a2.274,2.274,0,0,0,2.272,2.272h.12v6.165a4.512,4.512,0,0,0,1.33,3.211l4.211,4.21-4.211,4.21a4.512,4.512,0,0,0-1.33,3.211v6.165h-.12a2.274,2.274,0,0,0-2.272,2.272v1.426a2.274,2.274,0,0,0,2.272,2.272h17.229A11.258,11.258,0,0,0,164.1,123.685V110.354h1.741a1.181,1.181,0,0,0,.839-2.013Zm-37.2,15.035a2.91,2.91,0,0,1,.858-2.071l4.252-4.252a1.555,1.555,0,0,0,0-2.2l-4.252-4.252a2.909,2.909,0,0,1-.858-2.071v-6.165h19.745v6.165a2.909,2.909,0,0,1-.858,2.071l-4.252,4.252a1.554,1.554,0,0,0,0,2.2l3.182,3.182a11.334,11.334,0,0,0-3.159,3.877H132.969a1.883,1.883,0,0,0-1.881,1.881v3.548h-1.612Zm13.5,6.165H132.7v-3.548a.269.269,0,0,1,.269-.269h10.515a11.222,11.222,0,0,0-.518,3.377C142.966,129.25,142.97,129.4,142.976,129.542ZM127.744,133.9a.66.66,0,0,1-.659-.659v-1.426a.66.66,0,0,1,.659-.659h15.411a11.169,11.169,0,0,0,.886,2.744h-16.3Zm26.484,4.853a9.649,9.649,0,1,1,9.649-9.649A9.66,9.66,0,0,1,154.228,138.752Z" transform="translate(-111.985 -86.745)"/>
        <path id="Trazado_907312" data-name="Trazado 907312" d="M13.965,14.12a1.178,1.178,0,0,0-.252-1.286L7.866,6.939a1.173,1.173,0,0,0-.838-.349h0a1.173,1.173,0,0,0-.839.349L.343,12.834a1.181,1.181,0,0,0,.838,2.013H2.922V21.79a.806.806,0,1,0,1.612,0V14.665A1.433,1.433,0,0,0,3.1,13.234H2.216L7.028,8.383l4.811,4.851h-.887a1.433,1.433,0,0,0-1.431,1.431V32.906H4.534V25.552a.806.806,0,0,0-1.612,0v7.622a1.345,1.345,0,0,0,1.344,1.344H9.79a1.345,1.345,0,0,0,1.344-1.344V14.847h1.741A1.178,1.178,0,0,0,13.965,14.12Z" transform="translate(0.001 -6.59)"/>
        <path id="Trazado_907313" data-name="Trazado 907313" d="M192.287,206.716a1.869,1.869,0,0,0,1.33-.551l5.777-5.777a1.344,1.344,0,0,0-.95-2.294H186.131a1.344,1.344,0,0,0-.95,2.294l5.777,5.777a1.87,1.87,0,0,0,1.33.551Zm5.508-7.009-5.318,5.318a.269.269,0,0,1-.38,0l-5.318-5.318Z" transform="translate(-164.924 -177.51)"/>
      </g>
    </g>
  </g>
</svg>
