<svg xmlns="http://www.w3.org/2000/svg" width="399" height="124.094" viewBox="0 0 399 124.094">
  <g id="Grupo_1114732" data-name="Grupo 1114732" transform="translate(-338.051 -4253.93)">
    <path id="Trazado_908104" data-name="Trazado 908104" d="M0,0H388V116.094H0Z" transform="translate(349.051 4261.93)" fill="#bce0fc"/>
    <g id="Trazado_908105" data-name="Trazado 908105" transform="translate(338.051 4253.93)" fill="#fbfbf9">
      <path d="M 394.75 117.8437728881836 L 0.25 117.8437728881836 L 0.25 0.2500250041484833 L 394.75 0.2500250041484833 L 394.75 117.8437728881836 Z" stroke="none"/>
      <path d="M 0.5 0.4999771118164062 L 0.5 117.5937271118164 L 394.5 117.5937271118164 L 394.5 0.4999771118164062 L 0.5 0.4999771118164062 M 0 -2.288818359375e-05 L 395 -2.288818359375e-05 L 395 118.0937271118164 L 0 118.0937271118164 L 0 -2.288818359375e-05 Z" stroke="none" fill="#000"/>
    </g>
    <path id="Trazado_908106" data-name="Trazado 908106" d="M1.563,5.813a2.7,2.7,0,0,1,.891-1.691,2.641,2.641,0,0,1,1.82-.66,1.925,1.925,0,0,1,1.586.684,2.045,2.045,0,0,1,.406,1.668l-.086.6A2.729,2.729,0,0,1,5.293,8.1a2.605,2.605,0,0,1-1.8.652,1.973,1.973,0,0,1-1.605-.68,1.978,1.978,0,0,1-.41-1.656Zm1.055.6a1.367,1.367,0,0,0,.164.992.944.944,0,0,0,.852.391,1.23,1.23,0,0,0,.93-.406,1.821,1.821,0,0,0,.477-.977l.086-.6a1.434,1.434,0,0,0-.168-1,.911.911,0,0,0-.832-.4,1.248,1.248,0,0,0-.949.414,1.8,1.8,0,0,0-.473.984Zm3.5,5.8A2.705,2.705,0,0,1,7,10.527a2.626,2.626,0,0,1,1.816-.66,1.927,1.927,0,0,1,1.582.684,2.047,2.047,0,0,1,.418,1.66l-.094.609a2.738,2.738,0,0,1-.891,1.688,2.6,2.6,0,0,1-1.8.656A1.93,1.93,0,0,1,6.023,12.82Zm1.047.609a1.4,1.4,0,0,0,.16,1,.942.942,0,0,0,.855.391,1.23,1.23,0,0,0,.93-.406,1.826,1.826,0,0,0,.477-.984l.094-.609a1.406,1.406,0,0,0-.172-1,.924.924,0,0,0-.836-.395,1.248,1.248,0,0,0-.949.414,1.751,1.751,0,0,0-.465.977Zm-4.078,1.32-.773-.523L9.2,4.727l.773.523ZM22.7,12.07H18.414L16.961,15h-1.57L21.2,3.625h1.32L24.828,15h-1.57Zm-3.648-1.289h3.4L21.531,5.9l-.047-.008Zm10.75,3.18a2.076,2.076,0,0,0,1.293-.477,1.8,1.8,0,0,0,.723-1.156h1.391l.016.047A2.885,2.885,0,0,1,32,14.34a3.838,3.838,0,0,1-2.379.824A2.837,2.837,0,0,1,27.1,13.941a4.112,4.112,0,0,1-.559-3l.047-.328a5.417,5.417,0,0,1,1.422-3.035,3.89,3.89,0,0,1,2.93-1.184,2.769,2.769,0,0,1,2.164.883,2.407,2.407,0,0,1,.57,2.148l-.016.039H32.25a1.676,1.676,0,0,0-.3-1.332,1.429,1.429,0,0,0-1.2-.527,2.118,2.118,0,0,0-1.766.895,4.517,4.517,0,0,0-.859,2.113l-.047.328a3.852,3.852,0,0,0,.18,2.168A1.514,1.514,0,0,0,29.8,13.961Zm8.57-9.453-.3,2.039h1.6L39.5,7.688H37.9l-.766,5.133a1.052,1.052,0,0,0,.113.848.793.793,0,0,0,.621.23,1.571,1.571,0,0,0,.3-.035,2.1,2.1,0,0,0,.285-.074l.055,1.055a1.634,1.634,0,0,1-.543.23,2.7,2.7,0,0,1-.676.09,1.735,1.735,0,0,1-1.395-.57,2.153,2.153,0,0,1-.3-1.773l.766-5.133H35.016l.172-1.141h1.344l.3-2.039ZM41.719,15H40.18l1.266-8.453h1.539ZM43.313,4.383H41.773l.234-1.57h1.539Zm3.969,8.125.047.594.047.008.234-.6,2.836-5.961h1.57L47.641,15H46.477L44.594,6.547h1.578ZM52.3,10.7A5.387,5.387,0,0,1,53.777,7.57a4,4,0,0,1,2.941-1.18,2.942,2.942,0,0,1,2.559,1.223,4.1,4.1,0,0,1,.6,3.082l-.031.172A5.4,5.4,0,0,1,58.367,14a4.018,4.018,0,0,1-2.945,1.168,2.945,2.945,0,0,1-2.559-1.219,4.063,4.063,0,0,1-.59-3.078Zm1.508.172a3.681,3.681,0,0,0,.227,2.242,1.6,1.6,0,0,0,1.563.852,2.211,2.211,0,0,0,1.777-.887,4.5,4.5,0,0,0,.926-2.207l.031-.172A3.683,3.683,0,0,0,58.1,8.461,1.6,1.6,0,0,0,56.539,7.6a2.212,2.212,0,0,0-1.785.895,4.425,4.425,0,0,0-.91,2.2Zm18.82-2.3H66.117l.2-1.281h6.516Zm-.484,3.25H65.633l.2-1.281h6.516Z" transform="translate(415.051 4282.93)" fill="#12263f"/>
    <path id="Trazado_908107" data-name="Trazado 908107" d="M2.531,9.563.688,9.039l.383-1.2,1.844.7L2.836,6.555H4.094L4.016,8.586l1.82-.7.375,1.219L4.32,9.641l1.2,1.563-1.031.75-1.094-1.7L2.336,11.891,1.3,11.172ZM12.453,15H10.906V5.047L8.43,5.07V3.883l4.023-.422Zm11.586-4.016a4.489,4.489,0,0,1-.98,3.055,3.321,3.321,0,0,1-2.637,1.125,3.335,3.335,0,0,1-2.637-1.125,4.466,4.466,0,0,1-.988-3.055V7.641a4.5,4.5,0,0,1,.98-3.047,3.3,3.3,0,0,1,2.629-1.133,3.333,3.333,0,0,1,2.645,1.133,4.472,4.472,0,0,1,.988,3.047ZM22.5,7.32a3.1,3.1,0,0,0-.547-1.937,1.838,1.838,0,0,0-1.547-.711,1.808,1.808,0,0,0-1.531.711,3.135,3.135,0,0,0-.539,1.938V11.3a3.122,3.122,0,0,0,.551,1.945,2.006,2.006,0,0,0,3.074,0A3.167,3.167,0,0,0,22.5,11.3Zm10.547,3.664a4.489,4.489,0,0,1-.98,3.055,3.652,3.652,0,0,1-5.273,0,4.466,4.466,0,0,1-.988-3.055V7.641a4.5,4.5,0,0,1,.98-3.047,3.635,3.635,0,0,1,5.273,0,4.472,4.472,0,0,1,.988,3.047ZM31.508,7.32a3.1,3.1,0,0,0-.547-1.937,1.838,1.838,0,0,0-1.547-.711,1.808,1.808,0,0,0-1.531.711,3.135,3.135,0,0,0-.539,1.938V11.3a3.122,3.122,0,0,0,.551,1.945,2.006,2.006,0,0,0,3.074,0,3.167,3.167,0,0,0,.539-1.949Z" transform="translate(620.051 4282.93)" fill="#12263f"/>
    <path id="Trazado_908108" data-name="Trazado 908108" d="M59.594,5.813a2.345,2.345,0,0,1,.641-1.672,2.5,2.5,0,0,1,3.422,0A2.342,2.342,0,0,1,64.3,5.813v.6a2.326,2.326,0,0,1-.637,1.664,2.231,2.231,0,0,1-1.7.672,2.276,2.276,0,0,1-1.723-.672,2.311,2.311,0,0,1-.645-1.664Zm1.141.6a1.537,1.537,0,0,0,.316.98,1.089,1.089,0,0,0,.91.4,1.057,1.057,0,0,0,.883-.4,1.546,1.546,0,0,0,.313-.984v-.6a1.57,1.57,0,0,0-.316-.988,1.185,1.185,0,0,0-1.793,0,1.583,1.583,0,0,0-.312.988Zm4.367,5.8a2.332,2.332,0,0,1,.641-1.668,2.5,2.5,0,0,1,3.418,0,2.324,2.324,0,0,1,.645,1.668v.609a2.328,2.328,0,0,1-.641,1.672,2.234,2.234,0,0,1-1.7.672,2.276,2.276,0,0,1-1.723-.672A2.32,2.32,0,0,1,65.1,12.82Zm1.141.609a1.549,1.549,0,0,0,.316.988,1.089,1.089,0,0,0,.91.4,1.053,1.053,0,0,0,.883-.4,1.562,1.562,0,0,0,.313-.988v-.609a1.541,1.541,0,0,0-.32-.984,1.184,1.184,0,0,0-1.785,0,1.554,1.554,0,0,0-.316.984Zm-3.883,1.32-.852-.523,5.555-8.891.852.523Zm19.3-2.07H77.383L76.367,15H74.8L78.9,3.625h1.32L84.234,15h-1.57Zm-3.836-1.289h3.4L79.57,5.9h-.047Zm11.227,3.18a1.81,1.81,0,0,0,1.242-.473,1.494,1.494,0,0,0,.531-1.16h1.391l.023.047a2.428,2.428,0,0,1-.937,1.941,3.582,3.582,0,0,1-5-.363,4.674,4.674,0,0,1-.969-3.016v-.328a4.654,4.654,0,0,1,.973-3,3.317,3.317,0,0,1,2.746-1.215,3.189,3.189,0,0,1,2.316.875,2.775,2.775,0,0,1,.871,2.148l-.016.047h-1.4a1.865,1.865,0,0,0-.5-1.316,1.658,1.658,0,0,0-1.27-.543A1.777,1.777,0,0,0,87.4,8.48a4.114,4.114,0,0,0-.52,2.129v.328a4.192,4.192,0,0,0,.512,2.148A1.776,1.776,0,0,0,89.055,13.961Zm7.156-9.453V6.547h1.6V7.688h-1.6V12.82a1.149,1.149,0,0,0,.246.836.89.89,0,0,0,.652.242,1.43,1.43,0,0,0,.3-.035,2.2,2.2,0,0,0,.273-.074l.211,1.055a1.36,1.36,0,0,1-.508.23,2.562,2.562,0,0,1-.664.09,1.993,1.993,0,0,1-1.492-.566,2.46,2.46,0,0,1-.555-1.777V7.688H93.328V6.547h1.344V4.508ZM101.125,15H99.586V6.547h1.539Zm0-10.617H99.586V2.813h1.539Zm5.188,8.125.133.594h.047l.148-.594,1.945-5.961h1.57L107.047,15h-1.164l-3.148-8.453h1.578Zm4.75-1.812a4.654,4.654,0,0,1,1.016-3.09,3.764,3.764,0,0,1,5.535,0,4.639,4.639,0,0,1,1.02,3.094v.172a4.631,4.631,0,0,1-1.016,3.094,3.781,3.781,0,0,1-5.535,0,4.623,4.623,0,0,1-1.02-3.09Zm1.539.172a4.009,4.009,0,0,0,.566,2.219,2.046,2.046,0,0,0,3.355,0,3.988,3.988,0,0,0,.57-2.219V10.7a3.976,3.976,0,0,0-.574-2.211,1.882,1.882,0,0,0-1.684-.883,1.856,1.856,0,0,0-1.668.883A4.018,4.018,0,0,0,112.6,10.7Zm18.477-2.3h-6.516V7.289h6.516Zm0,3.25h-6.516V10.539h6.516ZM141.906,15h-1.547V5.047l-2.477.023V3.883l4.023-.422Zm5.922-.375-1.172,2.391h-.914l.547-2.469V13.273h1.539Zm2.063-4.68.656-6.32h5.7V4.992h-4.4l-.367,3.273a3.511,3.511,0,0,1,.813-.449,2.858,2.858,0,0,1,1.016-.184,3.1,3.1,0,0,1,2.473.988,3.992,3.992,0,0,1,.895,2.754,4,4,0,0,1-.918,2.75,3.382,3.382,0,0,1-2.676,1.039,3.666,3.666,0,0,1-2.406-.789,2.731,2.731,0,0,1-.922-2.32l.016-.047h1.391a1.9,1.9,0,0,0,.535,1.441,1.924,1.924,0,0,0,1.387.512,1.816,1.816,0,0,0,1.516-.687,2.976,2.976,0,0,0,.539-1.883,2.71,2.71,0,0,0-.543-1.758,1.835,1.835,0,0,0-1.512-.672,2.416,2.416,0,0,0-1.312.273,1.6,1.6,0,0,0-.6.844Zm12.164-1.414a1.8,1.8,0,0,0,1.457-.512,2.179,2.179,0,0,0,.426-1.434,2.02,2.02,0,0,0-.465-1.387,1.741,1.741,0,0,0-1.379-.527,2.057,2.057,0,0,0-1.473.551,1.819,1.819,0,0,0-.582,1.379H158.57l-.023-.047a2.718,2.718,0,0,1,.969-2.187,3.709,3.709,0,0,1,2.578-.906,3.6,3.6,0,0,1,2.484.8,2.991,2.991,0,0,1,.9,2.355,2.65,2.65,0,0,1-.418,1.453,2.818,2.818,0,0,1-1.168,1.023,2.688,2.688,0,0,1,1.309,1.043,3.063,3.063,0,0,1,.449,1.691,3.122,3.122,0,0,1-.988,2.449,3.7,3.7,0,0,1-2.566.887,4.064,4.064,0,0,1-2.559-.855,2.62,2.62,0,0,1-1.066-2.262l.016-.047h1.469a1.846,1.846,0,0,0,.6,1.395,2.152,2.152,0,0,0,1.543.566,1.914,1.914,0,0,0,1.477-.582,2.147,2.147,0,0,0,.539-1.52,2.273,2.273,0,0,0-.5-1.6,2.041,2.041,0,0,0-1.559-.531h-1.266v-1.2Zm9.273-2.719a2.345,2.345,0,0,1,.641-1.672,2.5,2.5,0,0,1,3.422,0,2.342,2.342,0,0,1,.641,1.676v.6a2.326,2.326,0,0,1-.637,1.664,2.231,2.231,0,0,1-1.7.672,2.276,2.276,0,0,1-1.723-.672,2.311,2.311,0,0,1-.645-1.664Zm1.141.6a1.537,1.537,0,0,0,.316.98,1.089,1.089,0,0,0,.91.4,1.057,1.057,0,0,0,.883-.4,1.546,1.546,0,0,0,.313-.984v-.6a1.57,1.57,0,0,0-.316-.988,1.185,1.185,0,0,0-1.793,0,1.583,1.583,0,0,0-.312.988Zm4.367,5.8a2.332,2.332,0,0,1,.641-1.668,2.5,2.5,0,0,1,3.418,0,2.324,2.324,0,0,1,.645,1.668v.609a2.328,2.328,0,0,1-.641,1.672,2.234,2.234,0,0,1-1.7.672,2.276,2.276,0,0,1-1.723-.672,2.32,2.32,0,0,1-.645-1.672Zm1.141.609a1.549,1.549,0,0,0,.316.988,1.089,1.089,0,0,0,.91.4,1.053,1.053,0,0,0,.883-.4,1.562,1.562,0,0,0,.313-.988v-.609a1.541,1.541,0,0,0-.32-.984,1.184,1.184,0,0,0-1.785,0,1.554,1.554,0,0,0-.316.984Zm-3.883,1.32-.852-.523L178.8,4.727l.852.523Z" transform="translate(415.051 4333.93)" fill="#12263f"/>
    <path id="Trazado_908109" data-name="Trazado 908109" d="M26.262,12.063a1.478,1.478,0,0,0-.324-1.211,3.611,3.611,0,0,0-1.527-.875,4.768,4.768,0,0,1-2.2-1.273A2.542,2.542,0,0,1,21.7,6.578,3.442,3.442,0,0,1,22.73,4.445a3.73,3.73,0,0,1,2.18-.953l.242-1.719h1.234l-.242,1.734A2.576,2.576,0,0,1,28,4.6a3.375,3.375,0,0,1,.414,2.387H26.879a2.315,2.315,0,0,0-.258-1.625,1.424,1.424,0,0,0-1.281-.6,1.985,1.985,0,0,0-2.1,1.8,1.47,1.47,0,0,0,.3,1.238,3.977,3.977,0,0,0,1.594.879A4.9,4.9,0,0,1,27.32,9.957a2.544,2.544,0,0,1,.48,2.09,3.351,3.351,0,0,1-1.1,2.168,4.084,4.084,0,0,1-2.352.91l-.2,1.5H22.918l.2-1.492a3.12,3.12,0,0,1-2.051-1,2.949,2.949,0,0,1-.527-2.484h1.539a1.913,1.913,0,0,0,.352,1.738,2.03,2.03,0,0,0,1.43.488,2.646,2.646,0,0,0,1.625-.488A1.915,1.915,0,0,0,26.262,12.063ZM32.6,8.531h1.266a2.064,2.064,0,0,0,1.512-.52,2.467,2.467,0,0,0,.668-1.426,1.823,1.823,0,0,0-.25-1.4,1.536,1.536,0,0,0-1.312-.512,2.374,2.374,0,0,0-1.543.559,2.119,2.119,0,0,0-.8,1.371H30.668l-.016-.047a3.228,3.228,0,0,1,1.3-2.211,4.29,4.29,0,0,1,2.719-.883A3.143,3.143,0,0,1,37,4.27a2.612,2.612,0,0,1,.578,2.348,3.1,3.1,0,0,1-.641,1.488,3.359,3.359,0,0,1-1.328,1,2.282,2.282,0,0,1,1.148,1.055,2.747,2.747,0,0,1,.211,1.664,3.707,3.707,0,0,1-1.352,2.48,4.274,4.274,0,0,1-2.7.855,3.562,3.562,0,0,1-2.4-.863,2.251,2.251,0,0,1-.754-2.254L29.77,12h1.477a1.6,1.6,0,0,0,.379,1.41,1.9,1.9,0,0,0,1.465.551,2.206,2.206,0,0,0,1.543-.59,2.491,2.491,0,0,0,.785-1.512,2.07,2.07,0,0,0-.25-1.621,1.821,1.821,0,0,0-1.484-.512H32.418l.039-.25.1-.687Zm11.523-5.07a6.346,6.346,0,0,1,1.3.137,4.4,4.4,0,0,1,1.047.332l-.508,1.18a4.926,4.926,0,0,0-.891-.316,4.645,4.645,0,0,0-1.133-.121,2.459,2.459,0,0,0-1.859.922,4.292,4.292,0,0,0-1.031,2.3l-.125.852a4.149,4.149,0,0,1,1.234-.73A4.028,4.028,0,0,1,43.6,7.758a2.5,2.5,0,0,1,2.141.992,3.379,3.379,0,0,1,.508,2.578,4.673,4.673,0,0,1-1.379,2.824,3.886,3.886,0,0,1-2.738,1.012A2.9,2.9,0,0,1,39.7,13.957a4.209,4.209,0,0,1-.6-3.27l.391-2.617a5.646,5.646,0,0,1,1.629-3.344A4.216,4.216,0,0,1,44.121,3.461ZM42.934,8.906a2.571,2.571,0,0,0-1.281.32,2.747,2.747,0,0,0-.937.859l-.109.75a3.427,3.427,0,0,0,.273,2.313,1.586,1.586,0,0,0,1.43.813,2.017,2.017,0,0,0,1.57-.738,3.648,3.648,0,0,0,.828-1.895,2.412,2.412,0,0,0-.293-1.785A1.7,1.7,0,0,0,42.934,8.906ZM54.66,15H47.6l.148-1.055L51.91,9.688a12.936,12.936,0,0,0,1.551-1.84A3.521,3.521,0,0,0,54,6.469a1.684,1.684,0,0,0-.273-1.309,1.444,1.444,0,0,0-1.211-.488,2.2,2.2,0,0,0-1.605.625,2.579,2.579,0,0,0-.762,1.531H48.668l-.016-.047A3.559,3.559,0,0,1,49.91,4.4a4.111,4.111,0,0,1,2.773-.937,2.893,2.893,0,0,1,2.25.855,2.542,2.542,0,0,1,.6,2.168A3.978,3.978,0,0,1,54.8,8.25,24.569,24.569,0,0,1,52.973,10.4L49.645,13.75l.016.047h5.172Zm3.531,0H56.652l.234-1.578h1.539Zm9.031-3.828H68.8l-.187,1.2h-1.57L66.652,15H65.121l.391-2.625H60.629l.133-.867L66.73,3.625h1.625Zm-4.758,0h3.227l.8-5.312-.039-.016-.2.375Zm8.344-1.227,1.6-6.32h5.7l-.2,1.367H73.5l-.859,3.273a4.172,4.172,0,0,1,.879-.449,3.1,3.1,0,0,1,1.043-.184,2.67,2.67,0,0,1,2.324.988,3.6,3.6,0,0,1,.488,2.754,4.693,4.693,0,0,1-1.332,2.781,3.937,3.937,0,0,1-2.832,1.008,3.212,3.212,0,0,1-2.262-.793,2.412,2.412,0,0,1-.605-2.324l.016-.039h1.4a1.679,1.679,0,0,0,.309,1.457,1.711,1.711,0,0,0,1.324.5,2.122,2.122,0,0,0,1.6-.7,3.384,3.384,0,0,0,.84-1.875,2.485,2.485,0,0,0-.273-1.777,1.578,1.578,0,0,0-1.414-.652,2.616,2.616,0,0,0-1.336.281,1.946,1.946,0,0,0-.742.836ZM86.855,6.531a3.1,3.1,0,0,1-.742,1.6,3.549,3.549,0,0,1-1.477.992,2.882,2.882,0,0,1,1.379,1.086,2.325,2.325,0,0,1,.348,1.664,3.567,3.567,0,0,1-1.379,2.461,4.489,4.489,0,0,1-2.73.828,3.7,3.7,0,0,1-2.578-.867,2.526,2.526,0,0,1-.719-2.422,3.068,3.068,0,0,1,.855-1.734A4.105,4.105,0,0,1,81.6,9.086a2.585,2.585,0,0,1-1.23-1.016,2.193,2.193,0,0,1-.285-1.539,3.273,3.273,0,0,1,1.289-2.309A4.388,4.388,0,0,1,84,3.461a3.1,3.1,0,0,1,2.234.8A2.472,2.472,0,0,1,86.855,6.531ZM84.84,11.844a1.836,1.836,0,0,0-.371-1.547,1.774,1.774,0,0,0-1.41-.586,2.591,2.591,0,0,0-1.676.605,2.338,2.338,0,0,0-.879,1.527,1.73,1.73,0,0,0,.387,1.555,2.045,2.045,0,0,0,1.543.563,2.367,2.367,0,0,0,1.559-.586A2.417,2.417,0,0,0,84.84,11.844Zm.469-5.289A1.665,1.665,0,0,0,85,5.188a1.471,1.471,0,0,0-1.2-.516,2.214,2.214,0,0,0-1.437.516,2.088,2.088,0,0,0-.758,1.367,1.672,1.672,0,0,0,.332,1.422,1.659,1.659,0,0,0,1.309.523,1.925,1.925,0,0,0,1.324-.543A2.307,2.307,0,0,0,85.309,6.555Zm-70.2,29.508a1.478,1.478,0,0,0-.324-1.211,3.611,3.611,0,0,0-1.527-.875,4.768,4.768,0,0,1-2.2-1.273,2.542,2.542,0,0,1-.508-2.125,3.442,3.442,0,0,1,1.031-2.133,3.73,3.73,0,0,1,2.18-.953L14,25.773h1.234L15,27.508a2.576,2.576,0,0,1,1.852,1.09,3.375,3.375,0,0,1,.414,2.387H15.73a2.315,2.315,0,0,0-.258-1.625,1.424,1.424,0,0,0-1.281-.6,1.985,1.985,0,0,0-2.1,1.8,1.47,1.47,0,0,0,.3,1.238,3.977,3.977,0,0,0,1.594.879,4.9,4.9,0,0,1,2.191,1.285,2.544,2.544,0,0,1,.48,2.09,3.351,3.351,0,0,1-1.1,2.168,4.084,4.084,0,0,1-2.352.91l-.2,1.5H11.77l.2-1.492a3.12,3.12,0,0,1-2.051-1,2.949,2.949,0,0,1-.527-2.484h1.539a1.913,1.913,0,0,0,.352,1.738,2.03,2.03,0,0,0,1.43.488,2.646,2.646,0,0,0,1.625-.488A1.915,1.915,0,0,0,15.113,36.063ZM25.5,39H18.434l.148-1.055,4.164-4.258a12.936,12.936,0,0,0,1.551-1.84,3.521,3.521,0,0,0,.535-1.379,1.684,1.684,0,0,0-.273-1.309,1.444,1.444,0,0,0-1.211-.488,2.2,2.2,0,0,0-1.605.625,2.58,2.58,0,0,0-.762,1.531H19.5l-.016-.047A3.559,3.559,0,0,1,20.746,28.4a4.111,4.111,0,0,1,2.773-.937,2.893,2.893,0,0,1,2.25.855,2.542,2.542,0,0,1,.6,2.168,3.978,3.978,0,0,1-.734,1.766A24.569,24.569,0,0,1,23.809,34.4L20.48,37.75l.016.047h5.172Zm4.961-6.469h1.266a2.064,2.064,0,0,0,1.512-.52,2.467,2.467,0,0,0,.668-1.426,1.823,1.823,0,0,0-.25-1.4,1.536,1.536,0,0,0-1.312-.512,2.374,2.374,0,0,0-1.543.559A2.119,2.119,0,0,0,30,30.6H28.527l-.016-.047a3.228,3.228,0,0,1,1.3-2.211,4.29,4.29,0,0,1,2.719-.883,3.143,3.143,0,0,1,2.328.809,2.612,2.612,0,0,1,.578,2.348,3.1,3.1,0,0,1-.641,1.488,3.359,3.359,0,0,1-1.328,1,2.282,2.282,0,0,1,1.148,1.055,2.747,2.747,0,0,1,.211,1.664,3.707,3.707,0,0,1-1.352,2.48,4.274,4.274,0,0,1-2.7.855,3.562,3.562,0,0,1-2.4-.863,2.251,2.251,0,0,1-.754-2.254L27.629,36h1.477a1.6,1.6,0,0,0,.379,1.41,1.9,1.9,0,0,0,1.465.551,2.206,2.206,0,0,0,1.543-.59,2.491,2.491,0,0,0,.785-1.512,2.07,2.07,0,0,0-.25-1.621,1.821,1.821,0,0,0-1.484-.512H30.277l.039-.25.1-.687ZM38.035,39H36.5l.234-1.578H38.27ZM49.348,28.836a20.852,20.852,0,0,0-3.59,4.523,13.491,13.491,0,0,0-1.418,4.4L44.152,39H42.613l.188-1.242a12.183,12.183,0,0,1,1.625-4.672,26.046,26.046,0,0,1,3.406-4.25H41.8l.18-1.211h7.547Zm5.922-1.375a6.346,6.346,0,0,1,1.3.137,4.4,4.4,0,0,1,1.047.332l-.508,1.18a4.926,4.926,0,0,0-.891-.316,4.645,4.645,0,0,0-1.133-.121,2.459,2.459,0,0,0-1.859.922,4.292,4.292,0,0,0-1.031,2.3l-.125.852a4.149,4.149,0,0,1,1.234-.73,4.028,4.028,0,0,1,1.445-.262,2.5,2.5,0,0,1,2.141.992,3.379,3.379,0,0,1,.508,2.578,4.673,4.673,0,0,1-1.379,2.824,3.886,3.886,0,0,1-2.738,1.012,2.9,2.9,0,0,1-2.434-1.207,4.209,4.209,0,0,1-.6-3.27l.391-2.617a5.646,5.646,0,0,1,1.629-3.344A4.216,4.216,0,0,1,55.27,27.461Zm-1.187,5.445a2.571,2.571,0,0,0-1.281.32,2.747,2.747,0,0,0-.937.859l-.109.75a3.427,3.427,0,0,0,.273,2.313,1.586,1.586,0,0,0,1.43.813,2.017,2.017,0,0,0,1.57-.738,3.648,3.648,0,0,0,.828-1.895,2.412,2.412,0,0,0-.293-1.785A1.7,1.7,0,0,0,54.082,32.906Zm7.68-.375h1.266a2.064,2.064,0,0,0,1.512-.52,2.467,2.467,0,0,0,.668-1.426,1.823,1.823,0,0,0-.25-1.4,1.536,1.536,0,0,0-1.312-.512,2.374,2.374,0,0,0-1.543.559,2.119,2.119,0,0,0-.8,1.371H59.832l-.016-.047a3.228,3.228,0,0,1,1.3-2.211,4.29,4.29,0,0,1,2.719-.883,3.143,3.143,0,0,1,2.328.809,2.612,2.612,0,0,1,.578,2.348,3.1,3.1,0,0,1-.641,1.488,3.359,3.359,0,0,1-1.328,1,2.282,2.282,0,0,1,1.148,1.055,2.747,2.747,0,0,1,.211,1.664,3.707,3.707,0,0,1-1.352,2.48,4.274,4.274,0,0,1-2.7.855,3.562,3.562,0,0,1-2.4-.863,2.251,2.251,0,0,1-.754-2.254L58.934,36H60.41a1.6,1.6,0,0,0,.379,1.41,1.9,1.9,0,0,0,1.465.551,2.206,2.206,0,0,0,1.543-.59,2.491,2.491,0,0,0,.785-1.512,2.07,2.07,0,0,0-.25-1.621,1.821,1.821,0,0,0-1.484-.512H61.582l.039-.25.1-.687ZM69.34,39H67.8l.234-1.578h1.539Zm9.031-3.828h1.578l-.187,1.2h-1.57L77.8,39H76.27l.391-2.625H71.777l.133-.867,5.969-7.883H79.5Zm-4.758,0H76.84l.8-5.312-.039-.016-.2.375ZM89.66,28.836a20.852,20.852,0,0,0-3.59,4.523,13.491,13.491,0,0,0-1.418,4.4L84.465,39H82.926l.188-1.242a12.183,12.183,0,0,1,1.625-4.672,26.046,26.046,0,0,1,3.406-4.25H82.113l.18-1.211H89.84Zm6.727,6.336h1.578l-.187,1.2h-1.57L95.816,39H94.285l.391-2.625H89.793l.133-.867,5.969-7.883H97.52Zm-4.758,0h3.227l.8-5.312-.039-.016-.2.375Z" transform="translate(502.051 4270.93)" fill="#12263f"/>
    <path id="Trazado_908110" data-name="Trazado 908110" d="M0,0H110" transform="translate(498.551 4292.43)" fill="none" stroke="#12263f" stroke-width="1"/>
    <path id="Trazado_908111" data-name="Trazado 908111" d="M1.031-4.617A10.458,10.458,0,0,1,2.273-9.875a7.19,7.19,0,0,1,2.609-2.906l.047.008.3.906a6.665,6.665,0,0,0-1.863,2.68A11.54,11.54,0,0,0,2.57-4.633v.1A11.591,11.591,0,0,0,3.359.023a7.25,7.25,0,0,0,1.867,2.75l-.3.844H4.883A7.193,7.193,0,0,1,2.273.715,10.452,10.452,0,0,1,1.031-4.547Zm123.836.07A10.426,10.426,0,0,1,123.621.715a7.244,7.244,0,0,1-2.605,2.9h-.047l-.3-.844a6.653,6.653,0,0,0,1.855-2.7,11.749,11.749,0,0,0,.8-4.605v-.1a11.354,11.354,0,0,0-.824-4.559,7.532,7.532,0,0,0-1.832-2.746l.3-.844h.047a7.241,7.241,0,0,1,2.605,2.906,10.431,10.431,0,0,1,1.246,5.258Z" transform="translate(492.051 4297.93)" fill="#12263f"/>
  </g>
</svg>
