<svg xmlns="http://www.w3.org/2000/svg" width="505" height="108.074" viewBox="0 0 505 108.074">
  <g id="Grupo_1114743" data-name="Grupo 1114743" transform="translate(-810 -5780.696)">
    <path id="Trazado_908221" data-name="Trazado 908221" d="M0,0H494V100.074H0Z" transform="translate(821 5788.696)" fill="#bce0fc"/>
    <g id="Trazado_908222" data-name="Trazado 908222" transform="translate(810 5780.696)" fill="#fbfbf9">
      <path d="M 500.75 101.8242340087891 L 0.25 101.8242340087891 L 0.25 0.2499843686819077 L 500.75 0.2499843686819077 L 500.75 101.8242340087891 Z" stroke="none"/>
      <path d="M 0.5 0.4999847412109375 L 0.5 101.5742340087891 L 500.5 101.5742340087891 L 500.5 0.4999847412109375 L 0.5 0.4999847412109375 M 0 -1.52587890625e-05 L 501 -1.52587890625e-05 L 501 102.0742340087891 L 0 102.0742340087891 L 0 -1.52587890625e-05 Z" stroke="none" fill="#000"/>
    </g>
    <path id="Trazado_908223" data-name="Trazado 908223" d="M79.828,11.359l.016.047a4.027,4.027,0,0,1-1.523,2.711A4.979,4.979,0,0,1,75.1,15.164a3.446,3.446,0,0,1-2.9-1.379,4.374,4.374,0,0,1-.73-3.457l.3-2.023A5.839,5.839,0,0,1,73.5,4.793a4.715,4.715,0,0,1,3.359-1.332A3.859,3.859,0,0,1,79.738,4.5a2.951,2.951,0,0,1,.738,2.715l-.023.047H78.977a2.277,2.277,0,0,0-.414-1.914,2.4,2.4,0,0,0-1.891-.672,2.872,2.872,0,0,0-2.184,1.051,4.789,4.789,0,0,0-1.176,2.566l-.3,2.039a3.844,3.844,0,0,0,.359,2.625,2.075,2.075,0,0,0,1.914,1.008,3.087,3.087,0,0,0,2.063-.7,3,3,0,0,0,1.016-1.9ZM83.008,15H81.461l1.7-11.375h1.547ZM94.43,15H92.891l-4.18-8.7-.047.008L87.367,15H85.828l1.7-11.375H89.07l4.18,8.688L93.3,12.3l1.3-8.68h1.539Zm6.719-4.3a5.387,5.387,0,0,1,1.473-3.125,4,4,0,0,1,2.941-1.18,2.942,2.942,0,0,1,2.559,1.223,4.1,4.1,0,0,1,.6,3.082l-.031.172A5.4,5.4,0,0,1,107.211,14a4.018,4.018,0,0,1-2.945,1.168,2.945,2.945,0,0,1-2.559-1.219,4.063,4.063,0,0,1-.59-3.078Zm1.508.172a3.681,3.681,0,0,0,.227,2.242,1.6,1.6,0,0,0,1.563.852,2.211,2.211,0,0,0,1.777-.887,4.5,4.5,0,0,0,.926-2.207l.031-.172a3.683,3.683,0,0,0-.238-2.234,1.6,1.6,0,0,0-1.559-.859A2.212,2.212,0,0,0,103.6,8.5a4.425,4.425,0,0,0-.91,2.2Zm17.8,1.2h-4.289L114.719,15h-1.57l5.8-11.375h1.32L122.586,15h-1.57Zm-3.648-1.289h3.4L119.289,5.9l-.047-.008ZM132.859,15H131.32l-4.18-8.7-.047.008L125.8,15h-1.539l1.7-11.375H127.5l4.18,8.688.047-.008,1.3-8.68h1.539Zm9.758-5.031h-4.8L137.063,15h-1.539l1.7-11.375h7.133l-.18,1.211h-5.594l-.594,3.922h4.8Zm13.047-1.4h-6.516l.2-1.281h6.516Zm-.484,3.25h-6.516l.2-1.281h6.516Zm12.016.242a1.478,1.478,0,0,0-.324-1.211,3.611,3.611,0,0,0-1.527-.875,4.768,4.768,0,0,1-2.2-1.273,2.542,2.542,0,0,1-.508-2.125,3.442,3.442,0,0,1,1.031-2.133,3.73,3.73,0,0,1,2.18-.953l.242-1.719h1.234l-.242,1.734A2.576,2.576,0,0,1,168.93,4.6a3.375,3.375,0,0,1,.414,2.387h-1.531a2.315,2.315,0,0,0-.258-1.625,1.424,1.424,0,0,0-1.281-.6,1.985,1.985,0,0,0-2.1,1.8,1.47,1.47,0,0,0,.3,1.238,3.977,3.977,0,0,0,1.594.879,4.9,4.9,0,0,1,2.191,1.285,2.544,2.544,0,0,1,.48,2.09,3.351,3.351,0,0,1-1.1,2.168,4.084,4.084,0,0,1-2.352.91l-.2,1.5h-1.227l.2-1.492a3.12,3.12,0,0,1-2.051-1,2.949,2.949,0,0,1-.527-2.484h1.539a1.913,1.913,0,0,0,.352,1.738,2.03,2.03,0,0,0,1.43.488,2.646,2.646,0,0,0,1.625-.488A1.915,1.915,0,0,0,167.2,12.063Zm11.273-5.531a3.1,3.1,0,0,1-.742,1.6,3.549,3.549,0,0,1-1.477.992,2.882,2.882,0,0,1,1.379,1.086,2.325,2.325,0,0,1,.348,1.664,3.567,3.567,0,0,1-1.379,2.461,4.489,4.489,0,0,1-2.73.828,3.7,3.7,0,0,1-2.578-.867,2.526,2.526,0,0,1-.719-2.422,3.068,3.068,0,0,1,.855-1.734,4.105,4.105,0,0,1,1.785-1.055,2.585,2.585,0,0,1-1.23-1.016,2.193,2.193,0,0,1-.285-1.539,3.273,3.273,0,0,1,1.289-2.309,4.388,4.388,0,0,1,2.625-.762,3.1,3.1,0,0,1,2.234.8A2.472,2.472,0,0,1,178.469,6.531Zm-2.016,5.313a1.836,1.836,0,0,0-.371-1.547,1.774,1.774,0,0,0-1.41-.586,2.591,2.591,0,0,0-1.676.605,2.338,2.338,0,0,0-.879,1.527A1.73,1.73,0,0,0,172.5,13.4a2.045,2.045,0,0,0,1.543.563,2.367,2.367,0,0,0,1.559-.586A2.417,2.417,0,0,0,176.453,11.844Zm.469-5.289a1.665,1.665,0,0,0-.3-1.367,1.471,1.471,0,0,0-1.2-.516,2.214,2.214,0,0,0-1.437.516,2.088,2.088,0,0,0-.758,1.367,1.672,1.672,0,0,0,.332,1.422,1.659,1.659,0,0,0,1.309.523,1.925,1.925,0,0,0,1.324-.543A2.307,2.307,0,0,0,176.922,6.555Zm11.219-1.719a20.852,20.852,0,0,0-3.59,4.523,13.492,13.492,0,0,0-1.418,4.4L182.945,15h-1.539l.188-1.242a12.183,12.183,0,0,1,1.625-4.672,26.046,26.046,0,0,1,3.406-4.25h-6.031l.18-1.211h7.547ZM190.117,15h-1.539l.234-1.578h1.539Zm10.211-4.016a5.235,5.235,0,0,1-1.437,3.09,3.888,3.888,0,0,1-2.8,1.09,2.863,2.863,0,0,1-2.437-1.137,3.926,3.926,0,0,1-.562-3.043l.5-3.344a5.2,5.2,0,0,1,1.438-3.082,3.89,3.89,0,0,1,2.8-1.1A2.846,2.846,0,0,1,200.266,4.6a3.967,3.967,0,0,1,.563,3.039Zm-.992-3.664a2.859,2.859,0,0,0-.25-1.961,1.581,1.581,0,0,0-1.445-.687,2.123,2.123,0,0,0-1.613.719,3.556,3.556,0,0,0-.855,1.93l-.594,3.977a2.845,2.845,0,0,0,.246,1.969,1.577,1.577,0,0,0,1.441.7,2.126,2.126,0,0,0,1.621-.723,3.585,3.585,0,0,0,.855-1.941Zm10,3.664a5.235,5.235,0,0,1-1.437,3.09,3.888,3.888,0,0,1-2.8,1.09,2.863,2.863,0,0,1-2.437-1.137,3.926,3.926,0,0,1-.562-3.043l.5-3.344a5.2,5.2,0,0,1,1.438-3.082,3.89,3.89,0,0,1,2.8-1.1A2.846,2.846,0,0,1,209.273,4.6a3.967,3.967,0,0,1,.563,3.039Zm-.992-3.664a2.859,2.859,0,0,0-.25-1.961,1.581,1.581,0,0,0-1.445-.687,2.123,2.123,0,0,0-1.613.719,3.556,3.556,0,0,0-.855,1.93l-.594,3.977a2.845,2.845,0,0,0,.246,1.969,1.577,1.577,0,0,0,1.441.7,2.126,2.126,0,0,0,1.621-.723,3.585,3.585,0,0,0,.855-1.941Zm5.5,1.211h1.266a2.064,2.064,0,0,0,1.512-.52,2.467,2.467,0,0,0,.668-1.426,1.823,1.823,0,0,0-.25-1.4,1.536,1.536,0,0,0-1.312-.512,2.374,2.374,0,0,0-1.543.559,2.119,2.119,0,0,0-.8,1.371h-1.469l-.016-.047a3.228,3.228,0,0,1,1.3-2.211,4.29,4.29,0,0,1,2.719-.883,3.143,3.143,0,0,1,2.328.809,2.612,2.612,0,0,1,.578,2.348,3.1,3.1,0,0,1-.641,1.488,3.359,3.359,0,0,1-1.328,1A2.282,2.282,0,0,1,218,10.164a2.747,2.747,0,0,1,.211,1.664,3.707,3.707,0,0,1-1.352,2.48,4.274,4.274,0,0,1-2.7.855,3.562,3.562,0,0,1-2.4-.863A2.251,2.251,0,0,1,211,12.047l.016-.047h1.477a1.6,1.6,0,0,0,.379,1.41,1.9,1.9,0,0,0,1.465.551,2.206,2.206,0,0,0,1.543-.59,2.491,2.491,0,0,0,.785-1.512,2.07,2.07,0,0,0-.25-1.621,1.821,1.821,0,0,0-1.484-.512h-1.266l.039-.25.1-.687ZM221.422,15h-1.539l.234-1.578h1.539Zm9.758,0h-7.062l.148-1.055,4.164-4.258a12.935,12.935,0,0,0,1.551-1.84,3.521,3.521,0,0,0,.535-1.379,1.684,1.684,0,0,0-.273-1.309,1.444,1.444,0,0,0-1.211-.488,2.2,2.2,0,0,0-1.605.625,2.579,2.579,0,0,0-.762,1.531h-1.477l-.016-.047A3.559,3.559,0,0,1,226.43,4.4a4.111,4.111,0,0,1,2.773-.937,2.893,2.893,0,0,1,2.25.855,2.542,2.542,0,0,1,.6,2.168,3.978,3.978,0,0,1-.734,1.766,24.567,24.567,0,0,1-1.828,2.148l-3.328,3.352.016.047h5.172Zm9.461-4.016a5.235,5.235,0,0,1-1.437,3.09,3.888,3.888,0,0,1-2.8,1.09,2.863,2.863,0,0,1-2.437-1.137,3.926,3.926,0,0,1-.562-3.043l.5-3.344a5.2,5.2,0,0,1,1.438-3.082,3.89,3.89,0,0,1,2.8-1.1A2.846,2.846,0,0,1,240.578,4.6a3.967,3.967,0,0,1,.563,3.039Zm-.992-3.664a2.859,2.859,0,0,0-.25-1.961,1.581,1.581,0,0,0-1.445-.687,2.123,2.123,0,0,0-1.613.719,3.556,3.556,0,0,0-.855,1.93l-.594,3.977a2.845,2.845,0,0,0,.246,1.969,1.577,1.577,0,0,0,1.441.7,2.126,2.126,0,0,0,1.621-.723,3.585,3.585,0,0,0,.855-1.941Zm10,3.664a5.235,5.235,0,0,1-1.437,3.09,3.888,3.888,0,0,1-2.8,1.09,2.863,2.863,0,0,1-2.437-1.137,3.926,3.926,0,0,1-.562-3.043l.5-3.344a5.2,5.2,0,0,1,1.438-3.082,3.89,3.89,0,0,1,2.8-1.1A2.846,2.846,0,0,1,249.586,4.6a3.967,3.967,0,0,1,.563,3.039Zm-.992-3.664a2.859,2.859,0,0,0-.25-1.961,1.581,1.581,0,0,0-1.445-.687,2.123,2.123,0,0,0-1.613.719,3.556,3.556,0,0,0-.855,1.93L243.9,11.3a2.845,2.845,0,0,0,.246,1.969,1.577,1.577,0,0,0,1.441.7,2.126,2.126,0,0,0,1.621-.723,3.585,3.585,0,0,0,.855-1.941Zm11.453,1.563h3.117l-.2,1.391h-3.117l-.539,3.586h-1.539l.539-3.586h-3.141l.2-1.391h3.141l.5-3.3h1.539Zm14.063,3.18a1.478,1.478,0,0,0-.324-1.211,3.611,3.611,0,0,0-1.527-.875,4.767,4.767,0,0,1-2.2-1.273,2.542,2.542,0,0,1-.508-2.125,3.442,3.442,0,0,1,1.031-2.133,3.73,3.73,0,0,1,2.18-.953l.242-1.719H274.3l-.242,1.734a2.576,2.576,0,0,1,1.852,1.09,3.375,3.375,0,0,1,.414,2.387h-1.531a2.315,2.315,0,0,0-.258-1.625,1.424,1.424,0,0,0-1.281-.6,1.985,1.985,0,0,0-2.1,1.8,1.47,1.47,0,0,0,.3,1.238,3.977,3.977,0,0,0,1.594.879,4.9,4.9,0,0,1,2.191,1.285,2.544,2.544,0,0,1,.48,2.09,3.351,3.351,0,0,1-1.1,2.168,4.084,4.084,0,0,1-2.352.91l-.2,1.5h-1.227l.2-1.492a3.12,3.12,0,0,1-2.051-1,2.949,2.949,0,0,1-.527-2.484h1.539a1.913,1.913,0,0,0,.352,1.738,2.03,2.03,0,0,0,1.43.488,2.646,2.646,0,0,0,1.625-.488A1.915,1.915,0,0,0,274.172,12.063ZM284.555,15h-7.062l.148-1.055L281.8,9.688a12.936,12.936,0,0,0,1.551-1.84,3.521,3.521,0,0,0,.535-1.379,1.684,1.684,0,0,0-.273-1.309,1.444,1.444,0,0,0-1.211-.488A2.2,2.2,0,0,0,280.8,5.3a2.58,2.58,0,0,0-.762,1.531h-1.477l-.016-.047A3.559,3.559,0,0,1,279.8,4.4a4.111,4.111,0,0,1,2.773-.937,2.893,2.893,0,0,1,2.25.855,2.542,2.542,0,0,1,.6,2.168A3.978,3.978,0,0,1,284.7,8.25a24.573,24.573,0,0,1-1.828,2.148l-3.328,3.352.016.047h5.172Zm9.9-8.469a3.1,3.1,0,0,1-.742,1.6,3.549,3.549,0,0,1-1.477.992,2.882,2.882,0,0,1,1.379,1.086,2.325,2.325,0,0,1,.348,1.664,3.567,3.567,0,0,1-1.379,2.461,4.489,4.489,0,0,1-2.73.828,3.7,3.7,0,0,1-2.578-.867,2.526,2.526,0,0,1-.719-2.422,3.068,3.068,0,0,1,.855-1.734A4.105,4.105,0,0,1,289.2,9.086a2.585,2.585,0,0,1-1.23-1.016,2.193,2.193,0,0,1-.285-1.539,3.273,3.273,0,0,1,1.289-2.309,4.388,4.388,0,0,1,2.625-.762,3.1,3.1,0,0,1,2.234.8A2.472,2.472,0,0,1,294.453,6.531Zm-2.016,5.313a1.836,1.836,0,0,0-.371-1.547,1.774,1.774,0,0,0-1.41-.586,2.591,2.591,0,0,0-1.676.605,2.338,2.338,0,0,0-.879,1.527,1.73,1.73,0,0,0,.387,1.555,2.045,2.045,0,0,0,1.543.563,2.367,2.367,0,0,0,1.559-.586A2.417,2.417,0,0,0,292.438,11.844Zm.469-5.289a1.665,1.665,0,0,0-.3-1.367,1.471,1.471,0,0,0-1.2-.516,2.214,2.214,0,0,0-1.437.516,2.088,2.088,0,0,0-.758,1.367,1.672,1.672,0,0,0,.332,1.422,1.659,1.659,0,0,0,1.309.523,1.925,1.925,0,0,0,1.324-.543A2.307,2.307,0,0,0,292.906,6.555ZM297.094,15h-1.539l.234-1.578h1.539ZM307.3,10.984a5.235,5.235,0,0,1-1.437,3.09,3.888,3.888,0,0,1-2.8,1.09,2.863,2.863,0,0,1-2.437-1.137,3.926,3.926,0,0,1-.562-3.043l.5-3.344A5.2,5.2,0,0,1,302,4.559a3.89,3.89,0,0,1,2.8-1.1A2.846,2.846,0,0,1,307.242,4.6a3.967,3.967,0,0,1,.563,3.039Zm-.992-3.664a2.859,2.859,0,0,0-.25-1.961,1.581,1.581,0,0,0-1.445-.687A2.123,2.123,0,0,0,303,5.391a3.556,3.556,0,0,0-.855,1.93l-.594,3.977a2.845,2.845,0,0,0,.246,1.969,1.577,1.577,0,0,0,1.441.7,2.126,2.126,0,0,0,1.621-.723,3.585,3.585,0,0,0,.855-1.941Zm10,3.664a5.235,5.235,0,0,1-1.437,3.09,3.888,3.888,0,0,1-2.8,1.09,2.863,2.863,0,0,1-2.437-1.137,3.926,3.926,0,0,1-.562-3.043l.5-3.344a5.2,5.2,0,0,1,1.438-3.082,3.89,3.89,0,0,1,2.8-1.1A2.846,2.846,0,0,1,316.25,4.6a3.967,3.967,0,0,1,.563,3.039ZM315.32,7.32a2.859,2.859,0,0,0-.25-1.961,1.581,1.581,0,0,0-1.445-.687,2.123,2.123,0,0,0-1.613.719,3.556,3.556,0,0,0-.855,1.93l-.594,3.977a2.845,2.845,0,0,0,.246,1.969,1.577,1.577,0,0,0,1.441.7,2.126,2.126,0,0,0,1.621-.723,3.585,3.585,0,0,0,.855-1.941Zm10,3.664a5.235,5.235,0,0,1-1.437,3.09,3.888,3.888,0,0,1-2.8,1.09,2.863,2.863,0,0,1-2.437-1.137,3.926,3.926,0,0,1-.562-3.043l.5-3.344a5.2,5.2,0,0,1,1.438-3.082,3.89,3.89,0,0,1,2.8-1.1A2.846,2.846,0,0,1,325.258,4.6a3.967,3.967,0,0,1,.563,3.039Zm-.992-3.664a2.859,2.859,0,0,0-.25-1.961,1.581,1.581,0,0,0-1.445-.687,2.123,2.123,0,0,0-1.613.719,3.556,3.556,0,0,0-.855,1.93L319.57,11.3a2.845,2.845,0,0,0,.246,1.969,1.577,1.577,0,0,0,1.441.7,2.126,2.126,0,0,0,1.621-.723,3.585,3.585,0,0,0,.855-1.941ZM328.4,15h-1.539l.234-1.578h1.539Zm10.211-4.016a5.235,5.235,0,0,1-1.437,3.09,3.888,3.888,0,0,1-2.8,1.09,2.863,2.863,0,0,1-2.437-1.137,3.926,3.926,0,0,1-.562-3.043l.5-3.344A5.2,5.2,0,0,1,333.3,4.559a3.89,3.89,0,0,1,2.8-1.1A2.846,2.846,0,0,1,338.547,4.6a3.967,3.967,0,0,1,.563,3.039Zm-.992-3.664a2.859,2.859,0,0,0-.25-1.961,1.581,1.581,0,0,0-1.445-.687,2.123,2.123,0,0,0-1.613.719,3.556,3.556,0,0,0-.855,1.93l-.594,3.977a2.845,2.845,0,0,0,.246,1.969,1.577,1.577,0,0,0,1.441.7,2.126,2.126,0,0,0,1.621-.723,3.585,3.585,0,0,0,.855-1.941Zm10,3.664a5.235,5.235,0,0,1-1.437,3.09,3.888,3.888,0,0,1-2.8,1.09,2.863,2.863,0,0,1-2.437-1.137,3.926,3.926,0,0,1-.562-3.043l.5-3.344a5.2,5.2,0,0,1,1.438-3.082,3.89,3.89,0,0,1,2.8-1.1A2.846,2.846,0,0,1,347.555,4.6a3.967,3.967,0,0,1,.563,3.039Zm-.992-3.664a2.859,2.859,0,0,0-.25-1.961,1.581,1.581,0,0,0-1.445-.687,2.123,2.123,0,0,0-1.613.719,3.556,3.556,0,0,0-.855,1.93l-.594,3.977a2.845,2.845,0,0,0,.246,1.969,1.577,1.577,0,0,0,1.441.7,2.126,2.126,0,0,0,1.621-.723,3.585,3.585,0,0,0,.855-1.941Zm10,3.664a5.235,5.235,0,0,1-1.437,3.09,3.888,3.888,0,0,1-2.8,1.09,2.863,2.863,0,0,1-2.437-1.137,3.926,3.926,0,0,1-.562-3.043l.5-3.344a5.2,5.2,0,0,1,1.438-3.082,3.89,3.89,0,0,1,2.8-1.1A2.846,2.846,0,0,1,356.563,4.6a3.967,3.967,0,0,1,.563,3.039Zm-.992-3.664a2.859,2.859,0,0,0-.25-1.961,1.581,1.581,0,0,0-1.445-.687,2.123,2.123,0,0,0-1.613.719,3.556,3.556,0,0,0-.855,1.93l-.594,3.977a2.845,2.845,0,0,0,.246,1.969,1.577,1.577,0,0,0,1.441.7,2.126,2.126,0,0,0,1.621-.723,3.585,3.585,0,0,0,.855-1.941Z" transform="translate(848 5809.696)" fill="#12263f"/>
    <path id="Trazado_908224" data-name="Trazado 908224" d="M128.813,11.359l.016.047a4.027,4.027,0,0,1-1.523,2.711,4.979,4.979,0,0,1-3.219,1.047,3.446,3.446,0,0,1-2.9-1.379,4.374,4.374,0,0,1-.73-3.457l.3-2.023a5.839,5.839,0,0,1,1.727-3.512,4.715,4.715,0,0,1,3.359-1.332A3.859,3.859,0,0,1,128.723,4.5a2.951,2.951,0,0,1,.738,2.715l-.023.047h-1.477a2.277,2.277,0,0,0-.414-1.914,2.4,2.4,0,0,0-1.891-.672,2.872,2.872,0,0,0-2.184,1.051A4.789,4.789,0,0,0,122.3,8.289l-.3,2.039a3.844,3.844,0,0,0,.359,2.625,2.075,2.075,0,0,0,1.914,1.008,3.087,3.087,0,0,0,2.063-.7,3,3,0,0,0,1.016-1.9ZM131.992,15h-1.547l1.7-11.375H133.7Zm11.422,0h-1.539L137.7,6.3l-.047.008L136.352,15h-1.539l1.7-11.375h1.539l4.18,8.688.047-.008,1.3-8.68h1.539Zm6.719-4.3a5.387,5.387,0,0,1,1.473-3.125,4,4,0,0,1,2.941-1.18,2.942,2.942,0,0,1,2.559,1.223,4.1,4.1,0,0,1,.6,3.082l-.031.172A5.4,5.4,0,0,1,156.2,14a4.018,4.018,0,0,1-2.945,1.168,2.945,2.945,0,0,1-2.559-1.219,4.063,4.063,0,0,1-.59-3.078Zm1.508.172a3.681,3.681,0,0,0,.227,2.242,1.6,1.6,0,0,0,1.563.852,2.211,2.211,0,0,0,1.777-.887,4.5,4.5,0,0,0,.926-2.207l.031-.172a3.683,3.683,0,0,0-.238-2.234,1.6,1.6,0,0,0-1.559-.859,2.212,2.212,0,0,0-1.785.895,4.425,4.425,0,0,0-.91,2.2Zm17.8,1.2h-4.289L163.7,15h-1.57l5.8-11.375h1.32L171.57,15H170ZM165.8,10.781h3.4L168.273,5.9l-.047-.008ZM181.844,15H180.3l-4.18-8.7-.047.008L174.781,15h-1.539l1.7-11.375h1.539l4.18,8.688.047-.008,1.3-8.68h1.539ZM191.6,9.969h-4.8L186.047,15h-1.539l1.7-11.375h7.133l-.18,1.211H187.57l-.594,3.922h4.8Zm13.047-1.4h-6.516l.2-1.281h6.516Zm-.484,3.25h-6.516l.2-1.281h6.516Zm12.016.242a1.478,1.478,0,0,0-.324-1.211,3.611,3.611,0,0,0-1.527-.875,4.768,4.768,0,0,1-2.2-1.273,2.542,2.542,0,0,1-.508-2.125,3.442,3.442,0,0,1,1.031-2.133,3.73,3.73,0,0,1,2.18-.953l.242-1.719H216.3l-.242,1.734a2.576,2.576,0,0,1,1.852,1.09,3.375,3.375,0,0,1,.414,2.387H216.8a2.315,2.315,0,0,0-.258-1.625,1.424,1.424,0,0,0-1.281-.6,1.985,1.985,0,0,0-2.1,1.8,1.47,1.47,0,0,0,.3,1.238,3.977,3.977,0,0,0,1.594.879,4.9,4.9,0,0,1,2.191,1.285,2.544,2.544,0,0,1,.48,2.09,3.351,3.351,0,0,1-1.1,2.168,4.084,4.084,0,0,1-2.352.91l-.2,1.5h-1.227l.2-1.492a3.12,3.12,0,0,1-2.051-1,2.949,2.949,0,0,1-.527-2.484H212a1.913,1.913,0,0,0,.352,1.738,2.03,2.03,0,0,0,1.43.488,2.646,2.646,0,0,0,1.625-.488A1.915,1.915,0,0,0,216.18,12.063ZM223.836,15h-1.547l1.492-9.953L221.3,5.07l.172-1.187,4.094-.422Zm9.008,0H231.3l1.492-9.953-2.477.023.172-1.187,4.094-.422Zm5.586-5.055,1.6-6.32h5.7l-.2,1.367h-4.4l-.859,3.273a4.171,4.171,0,0,1,.879-.449,3.1,3.1,0,0,1,1.043-.184,2.67,2.67,0,0,1,2.324.988A3.6,3.6,0,0,1,245,11.375a4.693,4.693,0,0,1-1.332,2.781,3.937,3.937,0,0,1-2.832,1.008,3.212,3.212,0,0,1-2.262-.793,2.412,2.412,0,0,1-.605-2.324l.016-.039h1.4a1.679,1.679,0,0,0,.309,1.457,1.711,1.711,0,0,0,1.324.5,2.122,2.122,0,0,0,1.6-.7,3.384,3.384,0,0,0,.84-1.875,2.485,2.485,0,0,0-.273-1.777,1.578,1.578,0,0,0-1.414-.652,2.616,2.616,0,0,0-1.336.281,1.946,1.946,0,0,0-.742.836ZM248.109,15H246.57l.234-1.578h1.539Zm10.648-8.469a3.1,3.1,0,0,1-.742,1.6,3.549,3.549,0,0,1-1.477.992,2.882,2.882,0,0,1,1.379,1.086,2.325,2.325,0,0,1,.348,1.664,3.567,3.567,0,0,1-1.379,2.461,4.489,4.489,0,0,1-2.73.828,3.7,3.7,0,0,1-2.578-.867,2.526,2.526,0,0,1-.719-2.422,3.068,3.068,0,0,1,.855-1.734A4.105,4.105,0,0,1,253.5,9.086a2.585,2.585,0,0,1-1.23-1.016,2.193,2.193,0,0,1-.285-1.539,3.273,3.273,0,0,1,1.289-2.309,4.388,4.388,0,0,1,2.625-.762,3.1,3.1,0,0,1,2.234.8A2.472,2.472,0,0,1,258.758,6.531Zm-2.016,5.313a1.836,1.836,0,0,0-.371-1.547,1.774,1.774,0,0,0-1.41-.586,2.591,2.591,0,0,0-1.676.605,2.338,2.338,0,0,0-.879,1.527,1.73,1.73,0,0,0,.387,1.555,2.045,2.045,0,0,0,1.543.563,2.367,2.367,0,0,0,1.559-.586A2.417,2.417,0,0,0,256.742,11.844Zm.469-5.289a1.665,1.665,0,0,0-.3-1.367,1.471,1.471,0,0,0-1.2-.516,2.214,2.214,0,0,0-1.437.516,2.088,2.088,0,0,0-.758,1.367,1.672,1.672,0,0,0,.332,1.422,1.659,1.659,0,0,0,1.309.523,1.925,1.925,0,0,0,1.324-.543A2.307,2.307,0,0,0,257.211,6.555Zm10.117,4.43a5.235,5.235,0,0,1-1.437,3.09,3.888,3.888,0,0,1-2.8,1.09,2.863,2.863,0,0,1-2.437-1.137,3.926,3.926,0,0,1-.562-3.043l.5-3.344a5.2,5.2,0,0,1,1.438-3.082,3.89,3.89,0,0,1,2.8-1.1A2.846,2.846,0,0,1,267.266,4.6a3.967,3.967,0,0,1,.563,3.039Zm-.992-3.664a2.859,2.859,0,0,0-.25-1.961,1.581,1.581,0,0,0-1.445-.687,2.123,2.123,0,0,0-1.613.719,3.556,3.556,0,0,0-.855,1.93l-.594,3.977a2.845,2.845,0,0,0,.246,1.969,1.577,1.577,0,0,0,1.441.7,2.126,2.126,0,0,0,1.621-.723,3.585,3.585,0,0,0,.855-1.941Zm5.5,1.211H273.1a2.064,2.064,0,0,0,1.512-.52,2.467,2.467,0,0,0,.668-1.426,1.823,1.823,0,0,0-.25-1.4,1.536,1.536,0,0,0-1.312-.512,2.374,2.374,0,0,0-1.543.559,2.119,2.119,0,0,0-.8,1.371h-1.469l-.016-.047a3.228,3.228,0,0,1,1.3-2.211,4.29,4.29,0,0,1,2.719-.883,3.143,3.143,0,0,1,2.328.809,2.612,2.612,0,0,1,.578,2.348,3.1,3.1,0,0,1-.641,1.488,3.359,3.359,0,0,1-1.328,1,2.282,2.282,0,0,1,1.148,1.055,2.747,2.747,0,0,1,.211,1.664,3.707,3.707,0,0,1-1.352,2.48,4.274,4.274,0,0,1-2.7.855,3.562,3.562,0,0,1-2.4-.863,2.251,2.251,0,0,1-.754-2.254l.016-.047h1.477a1.6,1.6,0,0,0,.379,1.41,1.9,1.9,0,0,0,1.465.551,2.206,2.206,0,0,0,1.543-.59,2.491,2.491,0,0,0,.785-1.512,2.07,2.07,0,0,0-.25-1.621,1.821,1.821,0,0,0-1.484-.512h-1.266l.039-.25.1-.687ZM279.414,15h-1.539l.234-1.578h1.539Zm9.758,0h-7.062l.148-1.055,4.164-4.258a12.936,12.936,0,0,0,1.551-1.84,3.521,3.521,0,0,0,.535-1.379,1.684,1.684,0,0,0-.273-1.309,1.444,1.444,0,0,0-1.211-.488,2.2,2.2,0,0,0-1.605.625,2.58,2.58,0,0,0-.762,1.531H283.18l-.016-.047A3.559,3.559,0,0,1,284.422,4.4a4.111,4.111,0,0,1,2.773-.937,2.893,2.893,0,0,1,2.25.855,2.542,2.542,0,0,1,.6,2.168,3.978,3.978,0,0,1-.734,1.766,24.573,24.573,0,0,1-1.828,2.148l-3.328,3.352.016.047h5.172Zm9.461-4.016a5.235,5.235,0,0,1-1.437,3.09,3.888,3.888,0,0,1-2.8,1.09,2.863,2.863,0,0,1-2.437-1.137,3.926,3.926,0,0,1-.562-3.043l.5-3.344a5.2,5.2,0,0,1,1.438-3.082,3.89,3.89,0,0,1,2.8-1.1A2.846,2.846,0,0,1,298.57,4.6a3.967,3.967,0,0,1,.563,3.039Zm-.992-3.664a2.859,2.859,0,0,0-.25-1.961,1.581,1.581,0,0,0-1.445-.687,2.123,2.123,0,0,0-1.613.719,3.556,3.556,0,0,0-.855,1.93l-.594,3.977a2.845,2.845,0,0,0,.246,1.969,1.577,1.577,0,0,0,1.441.7,2.126,2.126,0,0,0,1.621-.723,3.585,3.585,0,0,0,.855-1.941Zm10,3.664a5.235,5.235,0,0,1-1.437,3.09,3.888,3.888,0,0,1-2.8,1.09,2.863,2.863,0,0,1-2.437-1.137,3.926,3.926,0,0,1-.562-3.043l.5-3.344a5.2,5.2,0,0,1,1.438-3.082,3.89,3.89,0,0,1,2.8-1.1A2.846,2.846,0,0,1,307.578,4.6a3.967,3.967,0,0,1,.563,3.039Zm-.992-3.664a2.859,2.859,0,0,0-.25-1.961,1.581,1.581,0,0,0-1.445-.687,2.123,2.123,0,0,0-1.613.719,3.556,3.556,0,0,0-.855,1.93l-.594,3.977a2.845,2.845,0,0,0,.246,1.969,1.577,1.577,0,0,0,1.441.7,2.126,2.126,0,0,0,1.621-.723,3.585,3.585,0,0,0,.855-1.941Z" transform="translate(848 5842.788)" fill="#12263f"/>
  </g>
</svg>
