<svg id="Grupo_1113342" data-name="Grupo 1113342" xmlns="http://www.w3.org/2000/svg" width="400" height="108.074" viewBox="0 0 400 108.074">
  <g id="Grupo_1113326" data-name="Grupo 1113326">
    <rect id="Rect치ngulo_406002" data-name="Rect치ngulo 406002" width="389" height="100.074" transform="translate(11 8)" fill="#bce0fc"/>
    <g id="Rect치ngulo_406003" data-name="Rect치ngulo 406003" fill="#fbfbf9" stroke="#000" stroke-width="0.5">
      <rect width="396" height="102.074" stroke="none"/>
      <rect x="0.25" y="0.25" width="395.5" height="101.574" fill="none"/>
    </g>
  </g>
  <path id="Trazado_908373" data-name="Trazado 908373" d="M19.781,11.359l.016.047a4.027,4.027,0,0,1-1.523,2.711,4.979,4.979,0,0,1-3.219,1.047,3.446,3.446,0,0,1-2.9-1.379,4.374,4.374,0,0,1-.73-3.457l.3-2.023a5.839,5.839,0,0,1,1.727-3.512,4.715,4.715,0,0,1,3.359-1.332A3.859,3.859,0,0,1,19.691,4.5a2.951,2.951,0,0,1,.738,2.715l-.023.047H18.93a2.277,2.277,0,0,0-.414-1.914,2.4,2.4,0,0,0-1.891-.672,2.872,2.872,0,0,0-2.184,1.051,4.789,4.789,0,0,0-1.176,2.566l-.3,2.039a3.844,3.844,0,0,0,.359,2.625,2.075,2.075,0,0,0,1.914,1.008,3.087,3.087,0,0,0,2.063-.7,3,3,0,0,0,1.016-1.9ZM22.961,15H21.414l1.7-11.375h1.547Zm11.422,0H32.844l-4.18-8.7-.047.008L27.32,15H25.781l1.7-11.375h1.539l4.18,8.688.047-.008,1.3-8.68h1.539ZM41.1,10.7A5.387,5.387,0,0,1,42.574,7.57a4,4,0,0,1,2.941-1.18,2.942,2.942,0,0,1,2.559,1.223,4.1,4.1,0,0,1,.6,3.082l-.031.172A5.4,5.4,0,0,1,47.164,14a4.018,4.018,0,0,1-2.945,1.168,2.945,2.945,0,0,1-2.559-1.219,4.063,4.063,0,0,1-.59-3.078Zm1.508.172a3.681,3.681,0,0,0,.227,2.242,1.6,1.6,0,0,0,1.563.852,2.211,2.211,0,0,0,1.777-.887,4.5,4.5,0,0,0,.926-2.207l.031-.172a3.683,3.683,0,0,0-.238-2.234A1.6,1.6,0,0,0,45.336,7.6a2.212,2.212,0,0,0-1.785.895,4.425,4.425,0,0,0-.91,2.2Zm17.8,1.2H56.125L54.672,15H53.1l5.8-11.375h1.32L62.539,15h-1.57Zm-3.648-1.289h3.4L59.242,5.9,59.2,5.891ZM72.813,15H71.273l-4.18-8.7-.047.008L65.75,15H64.211l1.7-11.375h1.539l4.18,8.688.047-.008,1.3-8.68h1.539ZM82.57,9.969h-4.8L77.016,15H75.477l1.7-11.375h7.133l-.18,1.211H78.539l-.594,3.922h4.8Zm13.047-1.4H89.1l.2-1.281h6.516Zm-.484,3.25H88.617l.2-1.281h6.516Zm12.016.242a1.478,1.478,0,0,0-.324-1.211,3.611,3.611,0,0,0-1.527-.875,4.768,4.768,0,0,1-2.2-1.273,2.542,2.542,0,0,1-.508-2.125,3.442,3.442,0,0,1,1.031-2.133,3.73,3.73,0,0,1,2.18-.953l.242-1.719h1.234l-.242,1.734a2.576,2.576,0,0,1,1.852,1.09,3.375,3.375,0,0,1,.414,2.387h-1.531a2.315,2.315,0,0,0-.258-1.625,1.424,1.424,0,0,0-1.281-.6,1.985,1.985,0,0,0-2.1,1.8,1.47,1.47,0,0,0,.3,1.238,3.977,3.977,0,0,0,1.594.879,4.9,4.9,0,0,1,2.191,1.285,2.544,2.544,0,0,1,.48,2.09,3.351,3.351,0,0,1-1.1,2.168,4.084,4.084,0,0,1-2.352.91l-.2,1.5H103.8l.2-1.492a3.12,3.12,0,0,1-2.051-1,2.949,2.949,0,0,1-.527-2.484h1.539a1.913,1.913,0,0,0,.352,1.738,2.03,2.03,0,0,0,1.43.488,2.646,2.646,0,0,0,1.625-.488A1.915,1.915,0,0,0,107.148,12.063ZM121.508,15h-7.062l.148-1.055,4.164-4.258a12.936,12.936,0,0,0,1.551-1.84,3.521,3.521,0,0,0,.535-1.379,1.684,1.684,0,0,0-.273-1.309,1.444,1.444,0,0,0-1.211-.488,2.2,2.2,0,0,0-1.605.625,2.58,2.58,0,0,0-.762,1.531h-1.477l-.016-.047A3.559,3.559,0,0,1,116.758,4.4a4.111,4.111,0,0,1,2.773-.937,2.893,2.893,0,0,1,2.25.855,2.542,2.542,0,0,1,.6,2.168,3.978,3.978,0,0,1-.734,1.766A24.57,24.57,0,0,1,119.82,10.4l-3.328,3.352.016.047h5.172Zm9.461-4.016a5.235,5.235,0,0,1-1.437,3.09,3.888,3.888,0,0,1-2.8,1.09,2.863,2.863,0,0,1-2.437-1.137,3.926,3.926,0,0,1-.562-3.043l.5-3.344a5.2,5.2,0,0,1,1.438-3.082,3.89,3.89,0,0,1,2.8-1.1A2.846,2.846,0,0,1,130.906,4.6a3.967,3.967,0,0,1,.563,3.039Zm-.992-3.664a2.859,2.859,0,0,0-.25-1.961,1.581,1.581,0,0,0-1.445-.687,2.123,2.123,0,0,0-1.613.719,3.556,3.556,0,0,0-.855,1.93l-.594,3.977a2.845,2.845,0,0,0,.246,1.969,1.577,1.577,0,0,0,1.441.7,2.126,2.126,0,0,0,1.621-.723,3.585,3.585,0,0,0,.855-1.941ZM139.523,15h-7.062l.148-1.055,4.164-4.258a12.935,12.935,0,0,0,1.551-1.84,3.521,3.521,0,0,0,.535-1.379,1.684,1.684,0,0,0-.273-1.309,1.444,1.444,0,0,0-1.211-.488,2.2,2.2,0,0,0-1.605.625,2.579,2.579,0,0,0-.762,1.531h-1.477l-.016-.047A3.559,3.559,0,0,1,134.773,4.4a4.111,4.111,0,0,1,2.773-.937,2.893,2.893,0,0,1,2.25.855,2.542,2.542,0,0,1,.6,2.168,3.978,3.978,0,0,1-.734,1.766,24.567,24.567,0,0,1-1.828,2.148l-3.328,3.352.016.047H139.7Zm3.531,0h-1.539l.234-1.578h1.539ZM153.7,6.531a3.1,3.1,0,0,1-.742,1.6,3.549,3.549,0,0,1-1.477.992,2.882,2.882,0,0,1,1.379,1.086,2.325,2.325,0,0,1,.348,1.664,3.567,3.567,0,0,1-1.379,2.461,4.489,4.489,0,0,1-2.73.828,3.7,3.7,0,0,1-2.578-.867,2.526,2.526,0,0,1-.719-2.422,3.068,3.068,0,0,1,.855-1.734,4.105,4.105,0,0,1,1.785-1.055,2.585,2.585,0,0,1-1.23-1.016,2.193,2.193,0,0,1-.285-1.539,3.273,3.273,0,0,1,1.289-2.309,4.388,4.388,0,0,1,2.625-.762,3.1,3.1,0,0,1,2.234.8A2.472,2.472,0,0,1,153.7,6.531Zm-2.016,5.313a1.836,1.836,0,0,0-.371-1.547,1.774,1.774,0,0,0-1.41-.586,2.591,2.591,0,0,0-1.676.605,2.338,2.338,0,0,0-.879,1.527,1.73,1.73,0,0,0,.387,1.555,2.045,2.045,0,0,0,1.543.563,2.367,2.367,0,0,0,1.559-.586A2.417,2.417,0,0,0,151.688,11.844Zm.469-5.289a1.665,1.665,0,0,0-.3-1.367,1.471,1.471,0,0,0-1.2-.516,2.214,2.214,0,0,0-1.437.516,2.088,2.088,0,0,0-.758,1.367,1.672,1.672,0,0,0,.332,1.422A1.659,1.659,0,0,0,150.1,8.5a1.925,1.925,0,0,0,1.324-.543A2.307,2.307,0,0,0,152.156,6.555Zm10.117,4.43a5.235,5.235,0,0,1-1.437,3.09,3.888,3.888,0,0,1-2.8,1.09,2.863,2.863,0,0,1-2.437-1.137,3.926,3.926,0,0,1-.562-3.043l.5-3.344a5.2,5.2,0,0,1,1.438-3.082,3.89,3.89,0,0,1,2.8-1.1A2.846,2.846,0,0,1,162.211,4.6a3.967,3.967,0,0,1,.563,3.039Zm-.992-3.664a2.859,2.859,0,0,0-.25-1.961,1.581,1.581,0,0,0-1.445-.687,2.123,2.123,0,0,0-1.613.719,3.556,3.556,0,0,0-.855,1.93l-.594,3.977a2.845,2.845,0,0,0,.246,1.969,1.577,1.577,0,0,0,1.441.7,2.126,2.126,0,0,0,1.621-.723,3.585,3.585,0,0,0,.855-1.941Zm10,3.664a5.235,5.235,0,0,1-1.437,3.09,3.888,3.888,0,0,1-2.8,1.09,2.863,2.863,0,0,1-2.437-1.137,3.926,3.926,0,0,1-.562-3.043l.5-3.344a5.2,5.2,0,0,1,1.438-3.082,3.89,3.89,0,0,1,2.8-1.1A2.846,2.846,0,0,1,171.219,4.6a3.967,3.967,0,0,1,.563,3.039Zm-.992-3.664a2.859,2.859,0,0,0-.25-1.961,1.581,1.581,0,0,0-1.445-.687,2.123,2.123,0,0,0-1.613.719,3.556,3.556,0,0,0-.855,1.93l-.594,3.977a2.845,2.845,0,0,0,.246,1.969,1.577,1.577,0,0,0,1.441.7,2.126,2.126,0,0,0,1.621-.723A3.585,3.585,0,0,0,169.7,11.3Zm4.07,7.68H172.82l.234-1.578h1.539Zm10.211-4.016a5.235,5.235,0,0,1-1.437,3.09,3.888,3.888,0,0,1-2.8,1.09,2.863,2.863,0,0,1-2.437-1.137,3.926,3.926,0,0,1-.562-3.043l.5-3.344a5.2,5.2,0,0,1,1.438-3.082,3.89,3.89,0,0,1,2.8-1.1A2.846,2.846,0,0,1,184.508,4.6a3.967,3.967,0,0,1,.563,3.039Zm-.992-3.664a2.859,2.859,0,0,0-.25-1.961,1.581,1.581,0,0,0-1.445-.687,2.123,2.123,0,0,0-1.613.719,3.556,3.556,0,0,0-.855,1.93L178.82,11.3a2.845,2.845,0,0,0,.246,1.969,1.577,1.577,0,0,0,1.441.7,2.126,2.126,0,0,0,1.621-.723,3.585,3.585,0,0,0,.855-1.941Zm10,3.664a5.235,5.235,0,0,1-1.437,3.09,3.888,3.888,0,0,1-2.8,1.09,2.863,2.863,0,0,1-2.437-1.137,3.926,3.926,0,0,1-.562-3.043l.5-3.344a5.2,5.2,0,0,1,1.438-3.082,3.89,3.89,0,0,1,2.8-1.1A2.846,2.846,0,0,1,193.516,4.6a3.967,3.967,0,0,1,.563,3.039Zm-.992-3.664a2.859,2.859,0,0,0-.25-1.961,1.581,1.581,0,0,0-1.445-.687,2.123,2.123,0,0,0-1.613.719,3.556,3.556,0,0,0-.855,1.93l-.594,3.977a2.845,2.845,0,0,0,.246,1.969,1.577,1.577,0,0,0,1.441.7,2.126,2.126,0,0,0,1.621-.723,3.585,3.585,0,0,0,.855-1.941Zm10,3.664a5.235,5.235,0,0,1-1.437,3.09,3.888,3.888,0,0,1-2.8,1.09,2.863,2.863,0,0,1-2.437-1.137,3.926,3.926,0,0,1-.562-3.043l.5-3.344a5.2,5.2,0,0,1,1.438-3.082,3.89,3.89,0,0,1,2.8-1.1A2.846,2.846,0,0,1,202.523,4.6a3.967,3.967,0,0,1,.563,3.039Zm-.992-3.664a2.859,2.859,0,0,0-.25-1.961,1.581,1.581,0,0,0-1.445-.687,2.123,2.123,0,0,0-1.613.719,3.556,3.556,0,0,0-.855,1.93l-.594,3.977a2.845,2.845,0,0,0,.246,1.969,1.577,1.577,0,0,0,1.441.7,2.126,2.126,0,0,0,1.621-.723A3.585,3.585,0,0,0,201,11.3Zm11.8,3.477h-4.609l.18-1.2h4.609Zm11.852,1.266a1.478,1.478,0,0,0-.324-1.211,3.611,3.611,0,0,0-1.527-.875,4.768,4.768,0,0,1-2.2-1.273,2.542,2.542,0,0,1-.508-2.125,3.442,3.442,0,0,1,1.031-2.133,3.73,3.73,0,0,1,2.18-.953l.242-1.719h1.234l-.242,1.734a2.576,2.576,0,0,1,1.852,1.09,3.375,3.375,0,0,1,.414,2.387h-1.531a2.315,2.315,0,0,0-.258-1.625,1.424,1.424,0,0,0-1.281-.6,1.985,1.985,0,0,0-2.1,1.8,1.47,1.47,0,0,0,.3,1.238,3.977,3.977,0,0,0,1.594.879A4.9,4.9,0,0,1,226.3,9.957a2.544,2.544,0,0,1,.48,2.09,3.351,3.351,0,0,1-1.1,2.168,4.084,4.084,0,0,1-2.352.91l-.2,1.5H221.9l.2-1.492a3.12,3.12,0,0,1-2.051-1,2.949,2.949,0,0,1-.527-2.484h1.539a1.913,1.913,0,0,0,.352,1.738,2.03,2.03,0,0,0,1.43.488,2.646,2.646,0,0,0,1.625-.488A1.915,1.915,0,0,0,225.242,12.063Zm15.25-5.531a3.1,3.1,0,0,1-.742,1.6,3.549,3.549,0,0,1-1.477.992,2.882,2.882,0,0,1,1.379,1.086A2.325,2.325,0,0,1,240,11.875a3.567,3.567,0,0,1-1.379,2.461,4.489,4.489,0,0,1-2.73.828,3.7,3.7,0,0,1-2.578-.867,2.526,2.526,0,0,1-.719-2.422,3.068,3.068,0,0,1,.855-1.734,4.105,4.105,0,0,1,1.785-1.055A2.585,2.585,0,0,1,234,8.07a2.193,2.193,0,0,1-.285-1.539,3.273,3.273,0,0,1,1.289-2.309,4.388,4.388,0,0,1,2.625-.762,3.1,3.1,0,0,1,2.234.8A2.472,2.472,0,0,1,240.492,6.531Zm-2.016,5.313a1.836,1.836,0,0,0-.371-1.547,1.774,1.774,0,0,0-1.41-.586,2.591,2.591,0,0,0-1.676.605,2.338,2.338,0,0,0-.879,1.527,1.73,1.73,0,0,0,.387,1.555,2.045,2.045,0,0,0,1.543.563,2.367,2.367,0,0,0,1.559-.586A2.417,2.417,0,0,0,238.477,11.844Zm.469-5.289a1.665,1.665,0,0,0-.3-1.367,1.471,1.471,0,0,0-1.2-.516,2.214,2.214,0,0,0-1.437.516,2.088,2.088,0,0,0-.758,1.367,1.672,1.672,0,0,0,.332,1.422,1.659,1.659,0,0,0,1.309.523,1.925,1.925,0,0,0,1.324-.543A2.307,2.307,0,0,0,238.945,6.555Zm8.133-3.094a6.346,6.346,0,0,1,1.3.137,4.4,4.4,0,0,1,1.047.332l-.508,1.18a4.926,4.926,0,0,0-.891-.316,4.645,4.645,0,0,0-1.133-.121,2.459,2.459,0,0,0-1.859.922A4.292,4.292,0,0,0,244,7.9l-.125.852a4.149,4.149,0,0,1,1.234-.73,4.028,4.028,0,0,1,1.445-.262,2.5,2.5,0,0,1,2.141.992,3.379,3.379,0,0,1,.508,2.578,4.673,4.673,0,0,1-1.379,2.824,3.886,3.886,0,0,1-2.738,1.012,2.9,2.9,0,0,1-2.434-1.207,4.209,4.209,0,0,1-.6-3.27l.391-2.617a5.646,5.646,0,0,1,1.629-3.344A4.216,4.216,0,0,1,247.078,3.461Zm-1.187,5.445a2.571,2.571,0,0,0-1.281.32,2.747,2.747,0,0,0-.937.859l-.109.75a3.427,3.427,0,0,0,.273,2.313,1.586,1.586,0,0,0,1.43.813,2.017,2.017,0,0,0,1.57-.738,3.648,3.648,0,0,0,.828-1.895,2.412,2.412,0,0,0-.293-1.785A1.7,1.7,0,0,0,245.891,8.906ZM252.141,15H250.6l.234-1.578h1.539Zm5.555-1.039a2.661,2.661,0,0,0,1.887-.773,3.624,3.624,0,0,0,1.027-2.164l.133-.914a2.918,2.918,0,0,1-1.047.8,3.064,3.064,0,0,1-1.266.266,2.869,2.869,0,0,1-2.391-1.023,3.482,3.482,0,0,1-.539-2.8,4.655,4.655,0,0,1,1.41-2.844,3.758,3.758,0,0,1,2.621-1.055,3.121,3.121,0,0,1,2.539,1.078,3.683,3.683,0,0,1,.609,3.016l-.516,3.453a4.774,4.774,0,0,1-1.574,3.1,4.642,4.642,0,0,1-3.074,1.059,6.134,6.134,0,0,1-1.2-.125,4.817,4.817,0,0,1-1.133-.367l.414-1.172a3.965,3.965,0,0,0,.961.355A5.349,5.349,0,0,0,257.7,13.961Zm.914-3.984A2.6,2.6,0,0,0,260,9.6a2.818,2.818,0,0,0,.961-.949l.2-1.32a2.761,2.761,0,0,0-.27-1.992,1.706,1.706,0,0,0-1.5-.664,2.011,2.011,0,0,0-1.492.75,3.537,3.537,0,0,0-.859,1.938,2.935,2.935,0,0,0,.215,1.918A1.437,1.437,0,0,0,258.609,9.977Zm8.094,3.984a2.661,2.661,0,0,0,1.887-.773,3.624,3.624,0,0,0,1.027-2.164l.133-.914a2.918,2.918,0,0,1-1.047.8,3.064,3.064,0,0,1-1.266.266,2.869,2.869,0,0,1-2.391-1.023,3.482,3.482,0,0,1-.539-2.8,4.655,4.655,0,0,1,1.41-2.844,3.758,3.758,0,0,1,2.621-1.055,3.121,3.121,0,0,1,2.539,1.078,3.683,3.683,0,0,1,.609,3.016l-.516,3.453a4.774,4.774,0,0,1-1.574,3.1,4.642,4.642,0,0,1-3.074,1.059,6.134,6.134,0,0,1-1.2-.125,4.817,4.817,0,0,1-1.133-.367L264.6,13.5a3.964,3.964,0,0,0,.961.355A5.349,5.349,0,0,0,266.7,13.961Zm.914-3.984a2.6,2.6,0,0,0,1.391-.379,2.818,2.818,0,0,0,.961-.949l.2-1.32a2.761,2.761,0,0,0-.27-1.992,1.706,1.706,0,0,0-1.5-.664,2.011,2.011,0,0,0-1.492.75,3.537,3.537,0,0,0-.859,1.938,2.935,2.935,0,0,0,.215,1.918A1.437,1.437,0,0,0,267.617,9.977Zm10.766-6.516a6.346,6.346,0,0,1,1.3.137,4.4,4.4,0,0,1,1.047.332l-.508,1.18a4.925,4.925,0,0,0-.891-.316,4.645,4.645,0,0,0-1.133-.121,2.459,2.459,0,0,0-1.859.922A4.291,4.291,0,0,0,275.3,7.9l-.125.852a4.149,4.149,0,0,1,1.234-.73,4.028,4.028,0,0,1,1.445-.262A2.5,2.5,0,0,1,280,8.75a3.379,3.379,0,0,1,.508,2.578,4.673,4.673,0,0,1-1.379,2.824,3.886,3.886,0,0,1-2.738,1.012,2.9,2.9,0,0,1-2.434-1.207,4.208,4.208,0,0,1-.6-3.27l.391-2.617a5.646,5.646,0,0,1,1.629-3.344A4.216,4.216,0,0,1,278.383,3.461ZM277.2,8.906a2.571,2.571,0,0,0-1.281.32,2.746,2.746,0,0,0-.937.859l-.109.75a3.427,3.427,0,0,0,.273,2.313,1.587,1.587,0,0,0,1.43.813,2.016,2.016,0,0,0,1.57-.738,3.648,3.648,0,0,0,.828-1.895,2.412,2.412,0,0,0-.293-1.785A1.7,1.7,0,0,0,277.2,8.906ZM283.445,15h-1.539l.234-1.578h1.539Zm10.648-8.469a3.1,3.1,0,0,1-.742,1.6,3.549,3.549,0,0,1-1.477.992,2.882,2.882,0,0,1,1.379,1.086,2.325,2.325,0,0,1,.348,1.664,3.567,3.567,0,0,1-1.379,2.461,4.489,4.489,0,0,1-2.73.828,3.7,3.7,0,0,1-2.578-.867,2.526,2.526,0,0,1-.719-2.422,3.068,3.068,0,0,1,.855-1.734,4.105,4.105,0,0,1,1.785-1.055,2.585,2.585,0,0,1-1.23-1.016,2.193,2.193,0,0,1-.285-1.539,3.273,3.273,0,0,1,1.289-2.309,4.388,4.388,0,0,1,2.625-.762,3.1,3.1,0,0,1,2.234.8A2.472,2.472,0,0,1,294.094,6.531Zm-2.016,5.313a1.836,1.836,0,0,0-.371-1.547,1.774,1.774,0,0,0-1.41-.586,2.591,2.591,0,0,0-1.676.605,2.338,2.338,0,0,0-.879,1.527,1.73,1.73,0,0,0,.387,1.555,2.045,2.045,0,0,0,1.543.563,2.367,2.367,0,0,0,1.559-.586A2.417,2.417,0,0,0,292.078,11.844Zm.469-5.289a1.665,1.665,0,0,0-.3-1.367,1.471,1.471,0,0,0-1.2-.516,2.214,2.214,0,0,0-1.437.516,2.088,2.088,0,0,0-.758,1.367,1.672,1.672,0,0,0,.332,1.422,1.659,1.659,0,0,0,1.309.523,1.925,1.925,0,0,0,1.324-.543A2.307,2.307,0,0,0,292.547,6.555Zm10.117,4.43a5.235,5.235,0,0,1-1.437,3.09,3.888,3.888,0,0,1-2.8,1.09,2.863,2.863,0,0,1-2.437-1.137,3.926,3.926,0,0,1-.562-3.043l.5-3.344a5.2,5.2,0,0,1,1.438-3.082,3.89,3.89,0,0,1,2.8-1.1A2.846,2.846,0,0,1,302.6,4.6a3.967,3.967,0,0,1,.563,3.039Zm-.992-3.664a2.859,2.859,0,0,0-.25-1.961,1.581,1.581,0,0,0-1.445-.687,2.123,2.123,0,0,0-1.613.719,3.556,3.556,0,0,0-.855,1.93l-.594,3.977a2.845,2.845,0,0,0,.246,1.969,1.577,1.577,0,0,0,1.441.7,2.126,2.126,0,0,0,1.621-.723,3.585,3.585,0,0,0,.855-1.941Zm10,3.664a5.235,5.235,0,0,1-1.437,3.09,3.888,3.888,0,0,1-2.8,1.09,2.863,2.863,0,0,1-2.437-1.137,3.926,3.926,0,0,1-.562-3.043l.5-3.344a5.2,5.2,0,0,1,1.438-3.082,3.89,3.89,0,0,1,2.8-1.1A2.846,2.846,0,0,1,311.609,4.6a3.967,3.967,0,0,1,.563,3.039ZM310.68,7.32a2.859,2.859,0,0,0-.25-1.961,1.581,1.581,0,0,0-1.445-.687,2.123,2.123,0,0,0-1.613.719,3.556,3.556,0,0,0-.855,1.93l-.594,3.977a2.845,2.845,0,0,0,.246,1.969,1.577,1.577,0,0,0,1.441.7,2.126,2.126,0,0,0,1.621-.723,3.585,3.585,0,0,0,.855-1.941Z" transform="translate(38 29)" fill="#12263f"/>
  <path id="Trazado_908372" data-name="Trazado 908372" d="M76.313,11.359l.016.047A4.027,4.027,0,0,1,74.8,14.117a4.979,4.979,0,0,1-3.219,1.047,3.446,3.446,0,0,1-2.9-1.379,4.374,4.374,0,0,1-.73-3.457l.3-2.023a5.839,5.839,0,0,1,1.727-3.512,4.715,4.715,0,0,1,3.359-1.332A3.859,3.859,0,0,1,76.223,4.5a2.951,2.951,0,0,1,.738,2.715l-.023.047H75.461a2.277,2.277,0,0,0-.414-1.914,2.4,2.4,0,0,0-1.891-.672,2.872,2.872,0,0,0-2.184,1.051A4.789,4.789,0,0,0,69.8,8.289l-.3,2.039a3.844,3.844,0,0,0,.359,2.625,2.075,2.075,0,0,0,1.914,1.008,3.087,3.087,0,0,0,2.063-.7,3,3,0,0,0,1.016-1.9ZM79.492,15H77.945l1.7-11.375H81.2Zm11.422,0H89.375L85.2,6.3l-.047.008L83.852,15H82.313l1.7-11.375h1.539l4.18,8.688.047-.008,1.3-8.68h1.539Zm6.719-4.3A5.387,5.387,0,0,1,99.105,7.57a4,4,0,0,1,2.941-1.18,2.942,2.942,0,0,1,2.559,1.223,4.1,4.1,0,0,1,.6,3.082l-.031.172A5.4,5.4,0,0,1,103.7,14a4.018,4.018,0,0,1-2.945,1.168,2.945,2.945,0,0,1-2.559-1.219,4.063,4.063,0,0,1-.59-3.078Zm1.508.172a3.681,3.681,0,0,0,.227,2.242,1.6,1.6,0,0,0,1.563.852,2.211,2.211,0,0,0,1.777-.887,4.5,4.5,0,0,0,.926-2.207l.031-.172a3.683,3.683,0,0,0-.238-2.234,1.6,1.6,0,0,0-1.559-.859,2.212,2.212,0,0,0-1.785.895,4.425,4.425,0,0,0-.91,2.2Zm17.8,1.2h-4.289L111.2,15h-1.57l5.8-11.375h1.32L119.07,15H117.5ZM113.3,10.781h3.4L115.773,5.9l-.047-.008ZM129.344,15H127.8l-4.18-8.7-.047.008L122.281,15h-1.539l1.7-11.375h1.539l4.18,8.688.047-.008,1.3-8.68h1.539ZM139.1,9.969h-4.8L133.547,15h-1.539l1.7-11.375h7.133l-.18,1.211H135.07l-.594,3.922h4.8Zm13.047-1.4h-6.516l.2-1.281h6.516Zm-.484,3.25h-6.516l.2-1.281h6.516Zm12.016.242a1.478,1.478,0,0,0-.324-1.211,3.611,3.611,0,0,0-1.527-.875,4.768,4.768,0,0,1-2.2-1.273,2.542,2.542,0,0,1-.508-2.125,3.442,3.442,0,0,1,1.031-2.133,3.73,3.73,0,0,1,2.18-.953l.242-1.719H163.8l-.242,1.734a2.576,2.576,0,0,1,1.852,1.09,3.375,3.375,0,0,1,.414,2.387H164.3a2.315,2.315,0,0,0-.258-1.625,1.424,1.424,0,0,0-1.281-.6,1.985,1.985,0,0,0-2.1,1.8,1.47,1.47,0,0,0,.3,1.238,3.977,3.977,0,0,0,1.594.879,4.9,4.9,0,0,1,2.191,1.285,2.544,2.544,0,0,1,.48,2.09,3.351,3.351,0,0,1-1.1,2.168,4.084,4.084,0,0,1-2.352.91l-.2,1.5h-1.227l.2-1.492a3.12,3.12,0,0,1-2.051-1,2.949,2.949,0,0,1-.527-2.484H159.5a1.913,1.913,0,0,0,.352,1.738,2.03,2.03,0,0,0,1.43.488,2.646,2.646,0,0,0,1.625-.488A1.915,1.915,0,0,0,163.68,12.063ZM171.336,15h-1.547l1.492-9.953L168.8,5.07l.172-1.187,4.094-.422Zm9.008,0H178.8l1.492-9.953-2.477.023.172-1.187,4.094-.422Zm5.586-5.055,1.6-6.32h5.7l-.2,1.367h-4.4l-.859,3.273a4.171,4.171,0,0,1,.879-.449,3.1,3.1,0,0,1,1.043-.184,2.67,2.67,0,0,1,2.324.988,3.6,3.6,0,0,1,.488,2.754,4.693,4.693,0,0,1-1.332,2.781,3.937,3.937,0,0,1-2.832,1.008,3.212,3.212,0,0,1-2.262-.793,2.412,2.412,0,0,1-.605-2.324l.016-.039h1.4a1.679,1.679,0,0,0,.309,1.457,1.711,1.711,0,0,0,1.324.5,2.122,2.122,0,0,0,1.6-.7,3.384,3.384,0,0,0,.84-1.875,2.485,2.485,0,0,0-.273-1.777,1.578,1.578,0,0,0-1.414-.652,2.616,2.616,0,0,0-1.336.281,1.946,1.946,0,0,0-.742.836ZM195.609,15H194.07l.234-1.578h1.539Zm10.648-8.469a3.1,3.1,0,0,1-.742,1.6,3.549,3.549,0,0,1-1.477.992,2.882,2.882,0,0,1,1.379,1.086,2.325,2.325,0,0,1,.348,1.664,3.567,3.567,0,0,1-1.379,2.461,4.489,4.489,0,0,1-2.73.828,3.7,3.7,0,0,1-2.578-.867,2.526,2.526,0,0,1-.719-2.422,3.068,3.068,0,0,1,.855-1.734A4.105,4.105,0,0,1,201,9.086a2.585,2.585,0,0,1-1.23-1.016,2.193,2.193,0,0,1-.285-1.539,3.273,3.273,0,0,1,1.289-2.309,4.388,4.388,0,0,1,2.625-.762,3.1,3.1,0,0,1,2.234.8A2.472,2.472,0,0,1,206.258,6.531Zm-2.016,5.313a1.836,1.836,0,0,0-.371-1.547,1.774,1.774,0,0,0-1.41-.586,2.591,2.591,0,0,0-1.676.605,2.338,2.338,0,0,0-.879,1.527,1.73,1.73,0,0,0,.387,1.555,2.045,2.045,0,0,0,1.543.563,2.367,2.367,0,0,0,1.559-.586A2.417,2.417,0,0,0,204.242,11.844Zm.469-5.289a1.665,1.665,0,0,0-.3-1.367,1.471,1.471,0,0,0-1.2-.516,2.214,2.214,0,0,0-1.437.516,2.088,2.088,0,0,0-.758,1.367,1.672,1.672,0,0,0,.332,1.422,1.659,1.659,0,0,0,1.309.523,1.925,1.925,0,0,0,1.324-.543A2.307,2.307,0,0,0,204.711,6.555Zm10.117,4.43a5.235,5.235,0,0,1-1.437,3.09,3.888,3.888,0,0,1-2.8,1.09,2.863,2.863,0,0,1-2.437-1.137,3.926,3.926,0,0,1-.562-3.043l.5-3.344a5.2,5.2,0,0,1,1.438-3.082,3.89,3.89,0,0,1,2.8-1.1A2.846,2.846,0,0,1,214.766,4.6a3.967,3.967,0,0,1,.563,3.039Zm-.992-3.664a2.859,2.859,0,0,0-.25-1.961,1.581,1.581,0,0,0-1.445-.687,2.123,2.123,0,0,0-1.613.719,3.556,3.556,0,0,0-.855,1.93l-.594,3.977a2.845,2.845,0,0,0,.246,1.969,1.577,1.577,0,0,0,1.441.7,2.126,2.126,0,0,0,1.621-.723,3.585,3.585,0,0,0,.855-1.941Zm5.5,1.211H220.6a2.064,2.064,0,0,0,1.512-.52,2.467,2.467,0,0,0,.668-1.426,1.823,1.823,0,0,0-.25-1.4,1.536,1.536,0,0,0-1.312-.512,2.374,2.374,0,0,0-1.543.559,2.119,2.119,0,0,0-.8,1.371h-1.469l-.016-.047a3.228,3.228,0,0,1,1.3-2.211,4.29,4.29,0,0,1,2.719-.883,3.143,3.143,0,0,1,2.328.809,2.612,2.612,0,0,1,.578,2.348,3.1,3.1,0,0,1-.641,1.488,3.359,3.359,0,0,1-1.328,1,2.282,2.282,0,0,1,1.148,1.055,2.747,2.747,0,0,1,.211,1.664,3.707,3.707,0,0,1-1.352,2.48,4.274,4.274,0,0,1-2.7.855,3.562,3.562,0,0,1-2.4-.863,2.251,2.251,0,0,1-.754-2.254l.016-.047h1.477a1.6,1.6,0,0,0,.379,1.41,1.9,1.9,0,0,0,1.465.551,2.206,2.206,0,0,0,1.543-.59,2.491,2.491,0,0,0,.785-1.512,2.07,2.07,0,0,0-.25-1.621,1.821,1.821,0,0,0-1.484-.512h-1.266l.039-.25.1-.687ZM226.914,15h-1.539l.234-1.578h1.539Zm9.758,0h-7.062l.148-1.055,4.164-4.258a12.935,12.935,0,0,0,1.551-1.84,3.521,3.521,0,0,0,.535-1.379,1.684,1.684,0,0,0-.273-1.309,1.444,1.444,0,0,0-1.211-.488,2.2,2.2,0,0,0-1.605.625,2.579,2.579,0,0,0-.762,1.531H230.68l-.016-.047A3.559,3.559,0,0,1,231.922,4.4a4.111,4.111,0,0,1,2.773-.937,2.893,2.893,0,0,1,2.25.855,2.542,2.542,0,0,1,.6,2.168,3.978,3.978,0,0,1-.734,1.766,24.567,24.567,0,0,1-1.828,2.148l-3.328,3.352.016.047h5.172Zm9.461-4.016a5.235,5.235,0,0,1-1.437,3.09,3.888,3.888,0,0,1-2.8,1.09,2.863,2.863,0,0,1-2.437-1.137,3.926,3.926,0,0,1-.562-3.043l.5-3.344a5.2,5.2,0,0,1,1.438-3.082,3.89,3.89,0,0,1,2.8-1.1A2.846,2.846,0,0,1,246.07,4.6a3.967,3.967,0,0,1,.563,3.039Zm-.992-3.664a2.859,2.859,0,0,0-.25-1.961,1.581,1.581,0,0,0-1.445-.687,2.123,2.123,0,0,0-1.613.719,3.556,3.556,0,0,0-.855,1.93l-.594,3.977a2.845,2.845,0,0,0,.246,1.969,1.577,1.577,0,0,0,1.441.7,2.126,2.126,0,0,0,1.621-.723,3.585,3.585,0,0,0,.855-1.941Zm10,3.664a5.235,5.235,0,0,1-1.437,3.09,3.888,3.888,0,0,1-2.8,1.09,2.863,2.863,0,0,1-2.437-1.137,3.926,3.926,0,0,1-.562-3.043l.5-3.344a5.2,5.2,0,0,1,1.438-3.082,3.89,3.89,0,0,1,2.8-1.1A2.846,2.846,0,0,1,255.078,4.6a3.967,3.967,0,0,1,.563,3.039Zm-.992-3.664a2.859,2.859,0,0,0-.25-1.961,1.581,1.581,0,0,0-1.445-.687,2.123,2.123,0,0,0-1.613.719,3.556,3.556,0,0,0-.855,1.93l-.594,3.977a2.845,2.845,0,0,0,.246,1.969,1.577,1.577,0,0,0,1.441.7,2.126,2.126,0,0,0,1.621-.723,3.585,3.585,0,0,0,.855-1.941Z" transform="translate(38 62.092)" fill="#12263f"/>
</svg>
