<svg xmlns="http://www.w3.org/2000/svg" width="399" height="82" viewBox="0 0 399 82">
  <g id="Grupo_1112997" data-name="Grupo 1112997" transform="translate(-329.051 -2884)">
    <path id="Trazado_908140" data-name="Trazado 908140" d="M0,0H388V74H0Z" transform="translate(340.051 2892)" fill="#bce0fc"/>
    <g id="Trazado_908141" data-name="Trazado 908141" transform="translate(329.051 2884)" fill="#fbfbf9">
      <path d="M 394.75 75.75 L 0.25 75.75 L 0.25 0.25 L 394.75 0.25 L 394.75 75.75 Z" stroke="none"/>
      <path d="M 0.5 0.5 L 0.5 75.5 L 394.5 75.5 L 394.5 0.5 L 0.5 0.5 M 0 0 L 395 0 L 395 76 L 0 76 L 0 0 Z" stroke="none" fill="#000"/>
    </g>
    <path id="Trazado_908142" data-name="Trazado 908142" d="M2.531,9.563.688,9.039l.383-1.2,1.844.7L2.836,6.555H4.094L4.016,8.586l1.82-.7.375,1.219L4.32,9.641l1.2,1.563-1.031.75-1.094-1.7L2.336,11.891,1.3,11.172ZM12.453,15H10.906V5.047L8.43,5.07V3.883l4.023-.422Zm11.586-4.016a4.489,4.489,0,0,1-.98,3.055,3.321,3.321,0,0,1-2.637,1.125,3.335,3.335,0,0,1-2.637-1.125,4.466,4.466,0,0,1-.988-3.055V7.641a4.5,4.5,0,0,1,.98-3.047,3.3,3.3,0,0,1,2.629-1.133,3.333,3.333,0,0,1,2.645,1.133,4.472,4.472,0,0,1,.988,3.047ZM22.5,7.32a3.1,3.1,0,0,0-.547-1.937,1.838,1.838,0,0,0-1.547-.711,1.808,1.808,0,0,0-1.531.711,3.135,3.135,0,0,0-.539,1.938V11.3a3.122,3.122,0,0,0,.551,1.945,2.006,2.006,0,0,0,3.074,0A3.167,3.167,0,0,0,22.5,11.3Zm10.547,3.664a4.489,4.489,0,0,1-.98,3.055,3.652,3.652,0,0,1-5.273,0,4.466,4.466,0,0,1-.988-3.055V7.641a4.5,4.5,0,0,1,.98-3.047,3.635,3.635,0,0,1,5.273,0,4.472,4.472,0,0,1,.988,3.047ZM31.508,7.32a3.1,3.1,0,0,0-.547-1.937,1.838,1.838,0,0,0-1.547-.711,1.808,1.808,0,0,0-1.531.711,3.135,3.135,0,0,0-.539,1.938V11.3a3.122,3.122,0,0,0,.551,1.945,2.006,2.006,0,0,0,3.074,0,3.167,3.167,0,0,0,.539-1.949Z" transform="translate(656.051 2913)" fill="#12263f"/>
    <path id="Trazado_908143" data-name="Trazado 908143" d="M45.8,13.961a2.076,2.076,0,0,0,1.293-.477,1.8,1.8,0,0,0,.723-1.156h1.391l.016.047A2.885,2.885,0,0,1,48,14.34a3.838,3.838,0,0,1-2.379.824,2.837,2.837,0,0,1-2.527-1.223,4.112,4.112,0,0,1-.559-3l.047-.328A5.417,5.417,0,0,1,44,7.574a3.89,3.89,0,0,1,2.93-1.184,2.769,2.769,0,0,1,2.164.883,2.407,2.407,0,0,1,.57,2.148l-.016.039H48.246a1.676,1.676,0,0,0-.3-1.332,1.429,1.429,0,0,0-1.2-.527,2.118,2.118,0,0,0-1.766.895,4.517,4.517,0,0,0-.859,2.113l-.047.328a3.852,3.852,0,0,0,.18,2.168A1.514,1.514,0,0,0,45.8,13.961ZM56.129,15l.086-1.211a3.446,3.446,0,0,1-1.176,1.023,3.209,3.209,0,0,1-1.5.352,2.33,2.33,0,0,1-2-.895,3.643,3.643,0,0,1-.383-2.738l.742-4.984h1.539l-.75,5a2.963,2.963,0,0,0,.109,1.883,1.311,1.311,0,0,0,1.18.484,2.606,2.606,0,0,0,2.367-1.328l.9-6.039h1.539L57.512,15Zm7.1.164a3.069,3.069,0,0,1-2.629-1.18,3.934,3.934,0,0,1-.6-3.047l.055-.344a5.061,5.061,0,0,1,1.488-3.047A3.89,3.89,0,0,1,64.3,6.391a2.624,2.624,0,0,1,2.352,1.07,3.846,3.846,0,0,1,.461,2.789L67,11.063H61.527a3.355,3.355,0,0,0,.266,2.121,1.7,1.7,0,0,0,1.617.777,4.177,4.177,0,0,0,1.395-.227,3.661,3.661,0,0,0,1.113-.609l.453,1a4.447,4.447,0,0,1-1.3.738A5.139,5.139,0,0,1,63.23,15.164ZM64.121,7.6a1.948,1.948,0,0,0-1.4.625,3.561,3.561,0,0,0-.9,1.578l.016.047h3.8l.016-.125a2.256,2.256,0,0,0-.219-1.535A1.41,1.41,0,0,0,64.121,7.6Zm6.578.156a3.653,3.653,0,0,1,1.207-1.012,3.241,3.241,0,0,1,1.5-.355,2.384,2.384,0,0,1,1.973.809,3.111,3.111,0,0,1,.4,2.465L74.988,15H73.449l.8-5.3a2.11,2.11,0,0,0-.2-1.605,1.585,1.585,0,0,0-1.289-.449,2.518,2.518,0,0,0-1.234.3,2.729,2.729,0,0,0-.922.832L69.668,15H68.129l1.266-8.453H70.77Zm10.234-3.25-.3,2.039h1.6l-.172,1.141h-1.6l-.766,5.133a1.052,1.052,0,0,0,.113.848.793.793,0,0,0,.621.23,1.571,1.571,0,0,0,.3-.035,2.1,2.1,0,0,0,.285-.074l.055,1.055a1.634,1.634,0,0,1-.543.23,2.7,2.7,0,0,1-.676.09,1.735,1.735,0,0,1-1.395-.57,2.153,2.153,0,0,1-.3-1.773l.766-5.133H77.574l.172-1.141H79.09l.3-2.039ZM87.809,15q-.016-.438-.016-.707a4.986,4.986,0,0,1,.031-.551,4.564,4.564,0,0,1-1.277,1.012,3.193,3.193,0,0,1-1.543.41,2.41,2.41,0,0,1-1.887-.684,2.155,2.155,0,0,1-.434-1.855,2.584,2.584,0,0,1,1.25-1.914,5.194,5.194,0,0,1,2.773-.664h1.672l.125-.836a1.369,1.369,0,0,0-.27-1.191A1.593,1.593,0,0,0,87.012,7.6a2.134,2.134,0,0,0-1.25.375,1.3,1.3,0,0,0-.609.9l-1.469.016-.008-.047a2.422,2.422,0,0,1,1.117-1.707,4.1,4.1,0,0,1,2.484-.746,3.053,3.053,0,0,1,2.172.738,2.258,2.258,0,0,1,.594,2.1l-.609,4.07a6.685,6.685,0,0,0-.09.887,4.511,4.511,0,0,0,.051.816Zm-2.383-1.125a3.032,3.032,0,0,0,1.547-.437,2.613,2.613,0,0,0,1.039-.984l.211-1.367H86.5a2.54,2.54,0,0,0-1.547.477,1.651,1.651,0,0,0-.734,1.094,1.011,1.011,0,0,0,.207.9A1.341,1.341,0,0,0,85.426,13.875Zm17.75-2.781a5.4,5.4,0,0,1-1.316,2.984,3.4,3.4,0,0,1-2.582,1.086,2.9,2.9,0,0,1-1.312-.277,2.238,2.238,0,0,1-.9-.816l-.625,4.18H94.9l1.75-11.7h1.18l.078,1.094a3.5,3.5,0,0,1,1.172-.93,3.372,3.372,0,0,1,1.484-.32,2.371,2.371,0,0,1,2.219,1.262,5.081,5.081,0,0,1,.414,3.277Zm-1.516-.164a4.127,4.127,0,0,0-.2-2.391,1.558,1.558,0,0,0-1.539-.9,2.229,2.229,0,0,0-1.16.309,3,3,0,0,0-.9.84l-.609,4.063a1.819,1.819,0,0,0,.641.816,1.893,1.893,0,0,0,1.1.293,2.237,2.237,0,0,0,1.754-.809,3.935,3.935,0,0,0,.895-2.059ZM109.676,15q-.016-.438-.016-.707a4.986,4.986,0,0,1,.031-.551,4.564,4.564,0,0,1-1.277,1.012,3.193,3.193,0,0,1-1.543.41,2.41,2.41,0,0,1-1.887-.684,2.155,2.155,0,0,1-.434-1.855,2.584,2.584,0,0,1,1.25-1.914,5.194,5.194,0,0,1,2.773-.664h1.672l.125-.836a1.369,1.369,0,0,0-.27-1.191,1.593,1.593,0,0,0-1.223-.418,2.134,2.134,0,0,0-1.25.375,1.3,1.3,0,0,0-.609.9l-1.469.016-.008-.047a2.422,2.422,0,0,1,1.117-1.707,4.1,4.1,0,0,1,2.484-.746,3.053,3.053,0,0,1,2.172.738,2.258,2.258,0,0,1,.594,2.1L111.3,13.3a6.685,6.685,0,0,0-.09.887,4.511,4.511,0,0,0,.051.816Zm-2.383-1.125a3.032,3.032,0,0,0,1.547-.437,2.613,2.613,0,0,0,1.039-.984l.211-1.367h-1.727a2.54,2.54,0,0,0-1.547.477,1.651,1.651,0,0,0-.734,1.094,1.011,1.011,0,0,0,.207.9A1.341,1.341,0,0,0,107.293,13.875Zm11.258-1.148a.908.908,0,0,0-.266-.836,3.27,3.27,0,0,0-1.391-.555,5.344,5.344,0,0,1-2.176-.9,1.562,1.562,0,0,1-.582-1.547A2.6,2.6,0,0,1,115.258,7.1a3.935,3.935,0,0,1,2.387-.711,3.006,3.006,0,0,1,2.188.789,1.943,1.943,0,0,1,.633,1.813l-.016.047h-1.477a1.162,1.162,0,0,0-.336-1A1.515,1.515,0,0,0,117.48,7.6a1.974,1.974,0,0,0-1.254.371,1.334,1.334,0,0,0-.543.871.821.821,0,0,0,.234.781,3.447,3.447,0,0,0,1.375.492,5.217,5.217,0,0,1,2.227.93,1.632,1.632,0,0,1,.586,1.57,2.62,2.62,0,0,1-1.164,1.855,4.265,4.265,0,0,1-2.484.691,3.283,3.283,0,0,1-2.395-.828,2.033,2.033,0,0,1-.652-1.906l.016-.047H114.9a1.245,1.245,0,0,0,.445,1.2,2.1,2.1,0,0,0,1.281.379,2.3,2.3,0,0,0,1.313-.352A1.3,1.3,0,0,0,118.551,12.727ZM123.309,15H121.77l1.266-8.453h1.539ZM124.9,4.383h-1.539l.234-1.57h1.539Zm3.969,8.125.047.594.047.008.234-.6,2.836-5.961h1.57L129.23,15h-1.164l-1.883-8.453h1.578Zm5.023-1.812a5.387,5.387,0,0,1,1.473-3.125,4,4,0,0,1,2.941-1.18,2.942,2.942,0,0,1,2.559,1.223,4.1,4.1,0,0,1,.6,3.082l-.031.172A5.4,5.4,0,0,1,139.957,14a4.018,4.018,0,0,1-2.945,1.168,2.945,2.945,0,0,1-2.559-1.219,4.063,4.063,0,0,1-.59-3.078Zm1.508.172a3.681,3.681,0,0,0,.227,2.242,1.6,1.6,0,0,0,1.563.852,2.211,2.211,0,0,0,1.777-.887,4.5,4.5,0,0,0,.926-2.207l.031-.172a3.683,3.683,0,0,0-.238-2.234,1.6,1.6,0,0,0-1.559-.859,2.212,2.212,0,0,0-1.785.895,4.425,4.425,0,0,0-.91,2.2ZM6.586,28.508l-.3,2.039h1.6l-.172,1.141h-1.6L5.344,36.82a1.052,1.052,0,0,0,.113.848.793.793,0,0,0,.621.23,1.571,1.571,0,0,0,.3-.035,2.1,2.1,0,0,0,.285-.074l.055,1.055a1.634,1.634,0,0,1-.543.23,2.7,2.7,0,0,1-.676.09,1.735,1.735,0,0,1-1.395-.57,2.153,2.153,0,0,1-.3-1.773l.766-5.133H3.227L3.4,30.547H4.742l.3-2.039ZM8.555,34.7a5.387,5.387,0,0,1,1.473-3.125,4,4,0,0,1,2.941-1.18,2.942,2.942,0,0,1,2.559,1.223,4.1,4.1,0,0,1,.6,3.082l-.031.172A5.4,5.4,0,0,1,14.617,38a4.018,4.018,0,0,1-2.945,1.168,2.945,2.945,0,0,1-2.559-1.219,4.063,4.063,0,0,1-.59-3.078Zm1.508.172a3.681,3.681,0,0,0,.227,2.242,1.6,1.6,0,0,0,1.563.852,2.211,2.211,0,0,0,1.777-.887,4.5,4.5,0,0,0,.926-2.207l.031-.172a3.683,3.683,0,0,0-.238-2.234,1.6,1.6,0,0,0-1.559-.859A2.212,2.212,0,0,0,11,32.5a4.425,4.425,0,0,0-.91,2.2ZM21.07,28.508l-.3,2.039h1.6L22.2,31.688h-1.6l-.766,5.133a1.052,1.052,0,0,0,.113.848.793.793,0,0,0,.621.23,1.571,1.571,0,0,0,.3-.035,2.1,2.1,0,0,0,.285-.074l.055,1.055a1.634,1.634,0,0,1-.543.23,2.7,2.7,0,0,1-.676.09,1.735,1.735,0,0,1-1.395-.57,2.153,2.153,0,0,1-.3-1.773l.766-5.133H17.711l.172-1.141h1.344l.3-2.039ZM27.945,39q-.016-.438-.016-.707a4.986,4.986,0,0,1,.031-.551,4.564,4.564,0,0,1-1.277,1.012,3.193,3.193,0,0,1-1.543.41,2.41,2.41,0,0,1-1.887-.684,2.155,2.155,0,0,1-.434-1.855,2.584,2.584,0,0,1,1.25-1.914,5.194,5.194,0,0,1,2.773-.664h1.672l.125-.836a1.369,1.369,0,0,0-.27-1.191,1.593,1.593,0,0,0-1.223-.418,2.134,2.134,0,0,0-1.25.375,1.3,1.3,0,0,0-.609.9l-1.469.016-.008-.047a2.422,2.422,0,0,1,1.117-1.707,4.1,4.1,0,0,1,2.484-.746,3.053,3.053,0,0,1,2.172.738,2.258,2.258,0,0,1,.594,2.1L29.57,37.3a6.685,6.685,0,0,0-.09.887,4.511,4.511,0,0,0,.051.816Zm-2.383-1.125a3.032,3.032,0,0,0,1.547-.437,2.613,2.613,0,0,0,1.039-.984l.211-1.367H26.633a2.54,2.54,0,0,0-1.547.477,1.651,1.651,0,0,0-.734,1.094,1.011,1.011,0,0,0,.207.9A1.341,1.341,0,0,0,25.563,37.875ZM33.211,39H31.672L33.5,26.813h1.539Zm14.133-3.906a5.4,5.4,0,0,1-1.316,2.984,3.4,3.4,0,0,1-2.582,1.086,2.9,2.9,0,0,1-1.312-.277,2.238,2.238,0,0,1-.9-.816l-.625,4.18H39.07l1.75-11.7H42l.078,1.094a3.5,3.5,0,0,1,1.172-.93,3.372,3.372,0,0,1,1.484-.32,2.371,2.371,0,0,1,2.219,1.262,5.081,5.081,0,0,1,.414,3.277Zm-1.516-.164a4.127,4.127,0,0,0-.2-2.391,1.558,1.558,0,0,0-1.539-.9,2.229,2.229,0,0,0-1.16.309,3,3,0,0,0-.9.84l-.609,4.063a1.819,1.819,0,0,0,.641.816,1.893,1.893,0,0,0,1.1.293,2.237,2.237,0,0,0,1.754-.809,3.935,3.935,0,0,0,.895-2.059ZM53.844,39q-.016-.438-.016-.707a4.987,4.987,0,0,1,.031-.551,4.564,4.564,0,0,1-1.277,1.012,3.193,3.193,0,0,1-1.543.41,2.41,2.41,0,0,1-1.887-.684,2.155,2.155,0,0,1-.434-1.855,2.584,2.584,0,0,1,1.25-1.914,5.194,5.194,0,0,1,2.773-.664h1.672l.125-.836a1.369,1.369,0,0,0-.27-1.191,1.593,1.593,0,0,0-1.223-.418,2.134,2.134,0,0,0-1.25.375,1.3,1.3,0,0,0-.609.9l-1.469.016-.008-.047a2.422,2.422,0,0,1,1.117-1.707,4.1,4.1,0,0,1,2.484-.746,3.053,3.053,0,0,1,2.172.738,2.258,2.258,0,0,1,.594,2.1l-.609,4.07a6.686,6.686,0,0,0-.09.887A4.511,4.511,0,0,0,55.43,39Zm-2.383-1.125a3.032,3.032,0,0,0,1.547-.437,2.613,2.613,0,0,0,1.039-.984l.211-1.367H52.531a2.54,2.54,0,0,0-1.547.477,1.651,1.651,0,0,0-.734,1.094,1.011,1.011,0,0,0,.207.9A1.341,1.341,0,0,0,51.461,37.875Zm11.258-1.148a.908.908,0,0,0-.266-.836,3.27,3.27,0,0,0-1.391-.555,5.344,5.344,0,0,1-2.176-.9,1.562,1.562,0,0,1-.582-1.547A2.6,2.6,0,0,1,59.426,31.1a3.935,3.935,0,0,1,2.387-.711A3.006,3.006,0,0,1,64,31.18a1.943,1.943,0,0,1,.633,1.813l-.016.047H63.141a1.162,1.162,0,0,0-.336-1,1.515,1.515,0,0,0-1.156-.437,1.974,1.974,0,0,0-1.254.371,1.334,1.334,0,0,0-.543.871.821.821,0,0,0,.234.781,3.447,3.447,0,0,0,1.375.492,5.217,5.217,0,0,1,2.227.93,1.632,1.632,0,0,1,.586,1.57,2.62,2.62,0,0,1-1.164,1.855,4.265,4.265,0,0,1-2.484.691,3.283,3.283,0,0,1-2.395-.828,2.033,2.033,0,0,1-.652-1.906l.016-.047H59.07a1.245,1.245,0,0,0,.445,1.2,2.1,2.1,0,0,0,1.281.379,2.3,2.3,0,0,0,1.313-.352A1.3,1.3,0,0,0,62.719,36.727ZM67.477,39H65.938L67.2,30.547h1.539ZM69.07,28.383H67.531l.234-1.57H69.3Zm3.969,8.125.047.594.047.008.234-.6L76.2,30.547h1.57L73.4,39H72.234l-1.883-8.453H71.93ZM78.063,34.7a5.387,5.387,0,0,1,1.473-3.125,4,4,0,0,1,2.941-1.18,2.942,2.942,0,0,1,2.559,1.223,4.1,4.1,0,0,1,.6,3.082l-.031.172A5.4,5.4,0,0,1,84.125,38a4.018,4.018,0,0,1-2.945,1.168,2.945,2.945,0,0,1-2.559-1.219,4.063,4.063,0,0,1-.59-3.078Zm1.508.172a3.681,3.681,0,0,0,.227,2.242,1.6,1.6,0,0,0,1.563.852,2.211,2.211,0,0,0,1.777-.887,4.5,4.5,0,0,0,.926-2.207l.031-.172a3.683,3.683,0,0,0-.238-2.234A1.6,1.6,0,0,0,82.3,31.6a2.212,2.212,0,0,0-1.785.895,4.425,4.425,0,0,0-.91,2.2ZM95.93,32.883h3.117l-.2,1.391H95.727l-.539,3.586H93.648l.539-3.586H91.047l.2-1.391h3.141l.5-3.3H96.43Zm15.758,2.211a5.4,5.4,0,0,1-1.316,2.984,3.4,3.4,0,0,1-2.582,1.086,2.9,2.9,0,0,1-1.312-.277,2.238,2.238,0,0,1-.9-.816l-.625,4.18h-1.539l1.75-11.7h1.18l.078,1.094a3.5,3.5,0,0,1,1.172-.93,3.372,3.372,0,0,1,1.484-.32,2.371,2.371,0,0,1,2.219,1.262,5.081,5.081,0,0,1,.414,3.277Zm-1.516-.164a4.127,4.127,0,0,0-.2-2.391,1.558,1.558,0,0,0-1.539-.9,2.229,2.229,0,0,0-1.16.309,3,3,0,0,0-.9.84l-.609,4.063a1.819,1.819,0,0,0,.641.816,1.893,1.893,0,0,0,1.1.293,2.237,2.237,0,0,0,1.754-.809,3.935,3.935,0,0,0,.895-2.059ZM118.188,39q-.016-.438-.016-.707a4.986,4.986,0,0,1,.031-.551,4.564,4.564,0,0,1-1.277,1.012,3.193,3.193,0,0,1-1.543.41,2.41,2.41,0,0,1-1.887-.684,2.155,2.155,0,0,1-.434-1.855,2.584,2.584,0,0,1,1.25-1.914,5.194,5.194,0,0,1,2.773-.664h1.672l.125-.836a1.369,1.369,0,0,0-.27-1.191,1.593,1.593,0,0,0-1.223-.418,2.134,2.134,0,0,0-1.25.375,1.3,1.3,0,0,0-.609.9l-1.469.016-.008-.047a2.422,2.422,0,0,1,1.117-1.707,4.1,4.1,0,0,1,2.484-.746,3.053,3.053,0,0,1,2.172.738,2.258,2.258,0,0,1,.594,2.1l-.609,4.07a6.685,6.685,0,0,0-.09.887,4.511,4.511,0,0,0,.051.816ZM115.8,37.875a3.032,3.032,0,0,0,1.547-.437,2.613,2.613,0,0,0,1.039-.984l.211-1.367h-1.727a2.54,2.54,0,0,0-1.547.477,1.651,1.651,0,0,0-.734,1.094,1.011,1.011,0,0,0,.207.9A1.341,1.341,0,0,0,115.8,37.875Zm9.7-9.367-.3,2.039h1.6l-.172,1.141h-1.6l-.766,5.133a1.052,1.052,0,0,0,.113.848.793.793,0,0,0,.621.23,1.571,1.571,0,0,0,.3-.035,2.1,2.1,0,0,0,.285-.074l.055,1.055a1.634,1.634,0,0,1-.543.23,2.7,2.7,0,0,1-.676.09,1.735,1.735,0,0,1-1.395-.57,2.153,2.153,0,0,1-.3-1.773l.766-5.133h-1.344l.172-1.141h1.344l.3-2.039Zm6.742,3.4-.781-.047a1.9,1.9,0,0,0-1.062.3,2.49,2.49,0,0,0-.781.848l-.9,5.992H127.18l1.266-8.453h1.375l-.031,1.2a3.552,3.552,0,0,1,1.031-1,2.384,2.384,0,0,1,1.273-.355,1.923,1.923,0,0,1,.324.027,1.787,1.787,0,0,1,.254.059Zm2.2,7.094h-1.539l1.266-8.453h1.539Zm1.594-10.617H134.5l.234-1.57h1.539Zm3.359,3.234a3.411,3.411,0,0,1,1.18-.91,3.605,3.605,0,0,1,1.539-.316,2.3,2.3,0,0,1,1.359.391,1.942,1.942,0,0,1,.75,1.164,3.722,3.722,0,0,1,1.223-1.141,3.187,3.187,0,0,1,1.613-.414,2.158,2.158,0,0,1,1.879.895,3.643,3.643,0,0,1,.379,2.66L148.563,39h-1.539l.758-5.07a2.626,2.626,0,0,0-.152-1.793,1.381,1.381,0,0,0-1.215-.5,1.886,1.886,0,0,0-1.34.555,2.884,2.884,0,0,0-.8,1.383.063.063,0,0,0-.008.027v.027l-.8,5.367h-1.547l.758-5.07a2.571,2.571,0,0,0-.168-1.762,1.339,1.339,0,0,0-1.2-.527,2.236,2.236,0,0,0-1.191.309,2.473,2.473,0,0,0-.832.855l-.93,6.2h-1.539l1.266-8.453h1.375ZM151.086,34.7a5.387,5.387,0,0,1,1.473-3.125,4,4,0,0,1,2.941-1.18,2.942,2.942,0,0,1,2.559,1.223,4.1,4.1,0,0,1,.6,3.082l-.031.172A5.4,5.4,0,0,1,157.148,38a4.018,4.018,0,0,1-2.945,1.168,2.945,2.945,0,0,1-2.559-1.219,4.063,4.063,0,0,1-.59-3.078Zm1.508.172a3.681,3.681,0,0,0,.227,2.242,1.6,1.6,0,0,0,1.563.852,2.211,2.211,0,0,0,1.777-.887,4.5,4.5,0,0,0,.926-2.207l.031-.172a3.683,3.683,0,0,0-.238-2.234,1.6,1.6,0,0,0-1.559-.859,2.212,2.212,0,0,0-1.785.895,4.425,4.425,0,0,0-.91,2.2Zm9.867-3.109a3.653,3.653,0,0,1,1.207-1.012,3.241,3.241,0,0,1,1.5-.355,2.384,2.384,0,0,1,1.973.809,3.111,3.111,0,0,1,.4,2.465L166.75,39h-1.539l.8-5.3a2.11,2.11,0,0,0-.2-1.605,1.585,1.585,0,0,0-1.289-.449,2.518,2.518,0,0,0-1.234.3,2.729,2.729,0,0,0-.922.832L161.43,39h-1.539l1.266-8.453h1.375ZM170.648,39h-1.539l1.266-8.453h1.539Zm1.594-10.617H170.7l.234-1.57h1.539ZM173.3,34.7a5.387,5.387,0,0,1,1.473-3.125,4,4,0,0,1,2.941-1.18,2.942,2.942,0,0,1,2.559,1.223,4.1,4.1,0,0,1,.6,3.082l-.031.172A5.4,5.4,0,0,1,179.367,38a4.018,4.018,0,0,1-2.945,1.168,2.945,2.945,0,0,1-2.559-1.219,4.063,4.063,0,0,1-.59-3.078Zm1.508.172a3.681,3.681,0,0,0,.227,2.242,1.6,1.6,0,0,0,1.563.852,2.211,2.211,0,0,0,1.777-.887,4.5,4.5,0,0,0,.926-2.207l.031-.172a3.683,3.683,0,0,0-.238-2.234,1.6,1.6,0,0,0-1.559-.859,2.212,2.212,0,0,0-1.785.895,4.425,4.425,0,0,0-.91,2.2Z" transform="translate(462.051 2901)" fill="#12263f"/>
    <path id="Trazado_908146" data-name="Trazado 908146" d="M11.594,5.813a2.7,2.7,0,0,1,.891-1.691,2.641,2.641,0,0,1,1.82-.66,1.925,1.925,0,0,1,1.586.684A2.045,2.045,0,0,1,16.3,5.813l-.086.6A2.729,2.729,0,0,1,15.324,8.1a2.605,2.605,0,0,1-1.8.652,1.928,1.928,0,0,1-2.016-2.336Zm1.055.6a1.367,1.367,0,0,0,.164.992.944.944,0,0,0,.852.391,1.23,1.23,0,0,0,.93-.406,1.821,1.821,0,0,0,.477-.977l.086-.6a1.434,1.434,0,0,0-.168-1,.911.911,0,0,0-.832-.4,1.248,1.248,0,0,0-.949.414,1.8,1.8,0,0,0-.473.984Zm3.5,5.8a2.705,2.705,0,0,1,.887-1.684,2.626,2.626,0,0,1,1.816-.66,1.927,1.927,0,0,1,1.582.684,2.047,2.047,0,0,1,.418,1.66l-.094.609a2.738,2.738,0,0,1-.891,1.688,2.6,2.6,0,0,1-1.8.656,1.93,1.93,0,0,1-2.016-2.344Zm1.047.609a1.4,1.4,0,0,0,.16,1,.942.942,0,0,0,.855.391,1.23,1.23,0,0,0,.93-.406,1.826,1.826,0,0,0,.477-.984l.094-.609a1.406,1.406,0,0,0-.172-1,.924.924,0,0,0-.836-.395,1.248,1.248,0,0,0-.949.414,1.751,1.751,0,0,0-.465.977Zm-4.078,1.32-.773-.523,6.883-8.891L20,5.25Zm15.516-3.7L27.953,15H26.414l1.7-11.375h4.352a3.5,3.5,0,0,1,2.652.945A2.794,2.794,0,0,1,35.8,7.031a3.815,3.815,0,0,1-1.379,2.508,4.633,4.633,0,0,1-2.973.9Zm.18-1.2h2.82a2.518,2.518,0,0,0,2.625-2.187,2.042,2.042,0,0,0-.332-1.594,1.94,1.94,0,0,0-1.637-.617H29.477ZM41.484,15q-.016-.438-.016-.707a4.987,4.987,0,0,1,.031-.551,4.564,4.564,0,0,1-1.277,1.012,3.193,3.193,0,0,1-1.543.41,2.41,2.41,0,0,1-1.887-.684,2.155,2.155,0,0,1-.434-1.855,2.584,2.584,0,0,1,1.25-1.914,5.194,5.194,0,0,1,2.773-.664h1.672l.125-.836a1.369,1.369,0,0,0-.27-1.191A1.593,1.593,0,0,0,40.688,7.6a2.134,2.134,0,0,0-1.25.375,1.3,1.3,0,0,0-.609.9l-1.469.016-.008-.047a2.422,2.422,0,0,1,1.117-1.707,4.1,4.1,0,0,1,2.484-.746,3.053,3.053,0,0,1,2.172.738,2.258,2.258,0,0,1,.594,2.1l-.609,4.07a6.686,6.686,0,0,0-.09.887A4.511,4.511,0,0,0,43.07,15ZM39.1,13.875a3.032,3.032,0,0,0,1.547-.437,2.613,2.613,0,0,0,1.039-.984l.211-1.367H40.172a2.54,2.54,0,0,0-1.547.477,1.651,1.651,0,0,0-.734,1.094,1.011,1.011,0,0,0,.207.9A1.341,1.341,0,0,0,39.1,13.875Zm11.258-1.148a.908.908,0,0,0-.266-.836,3.27,3.27,0,0,0-1.391-.555,5.344,5.344,0,0,1-2.176-.9,1.562,1.562,0,0,1-.582-1.547A2.6,2.6,0,0,1,47.066,7.1a3.935,3.935,0,0,1,2.387-.711,3.006,3.006,0,0,1,2.188.789,1.943,1.943,0,0,1,.633,1.813l-.016.047H50.781a1.162,1.162,0,0,0-.336-1A1.515,1.515,0,0,0,49.289,7.6a1.974,1.974,0,0,0-1.254.371,1.334,1.334,0,0,0-.543.871.821.821,0,0,0,.234.781,3.446,3.446,0,0,0,1.375.492,5.217,5.217,0,0,1,2.227.93,1.632,1.632,0,0,1,.586,1.57,2.62,2.62,0,0,1-1.164,1.855,4.265,4.265,0,0,1-2.484.691,3.283,3.283,0,0,1-2.395-.828,2.033,2.033,0,0,1-.652-1.906l.016-.047h1.477a1.245,1.245,0,0,0,.445,1.2,2.1,2.1,0,0,0,1.281.379,2.3,2.3,0,0,0,1.313-.352A1.3,1.3,0,0,0,50.359,12.727ZM55.117,15H53.578l1.266-8.453h1.539ZM56.711,4.383H55.172l.234-1.57h1.539Zm3.969,8.125.047.594.047.008.234-.6,2.836-5.961h1.57L61.039,15H59.875L57.992,6.547H59.57ZM65.7,10.7A5.387,5.387,0,0,1,67.176,7.57a4,4,0,0,1,2.941-1.18,2.942,2.942,0,0,1,2.559,1.223,4.1,4.1,0,0,1,.6,3.082l-.031.172A5.4,5.4,0,0,1,71.766,14a4.018,4.018,0,0,1-2.945,1.168,2.945,2.945,0,0,1-2.559-1.219,4.063,4.063,0,0,1-.59-3.078Zm1.508.172a3.681,3.681,0,0,0,.227,2.242A1.6,1.6,0,0,0,69,13.961a2.211,2.211,0,0,0,1.777-.887,4.5,4.5,0,0,0,.926-2.207l.031-.172A3.683,3.683,0,0,0,71.5,8.461,1.6,1.6,0,0,0,69.938,7.6a2.212,2.212,0,0,0-1.785.895,4.425,4.425,0,0,0-.91,2.2Zm18.82-2.3H79.516l.2-1.281h6.516Zm-.484,3.25H79.031l.2-1.281h6.516Z" transform="translate(363.051 2913)" fill="#12263f"/>
    <path id="Trazado_908145" data-name="Trazado 908145" d="M0,0H175" transform="translate(466.551 2922.5)" fill="none" stroke="#12263f" stroke-width="1"/>
    <path id="Trazado_908152" data-name="Trazado 908152" d="M1.031-4.617A10.458,10.458,0,0,1,2.273-9.875a7.19,7.19,0,0,1,2.609-2.906l.047.008.3.906a6.665,6.665,0,0,0-1.863,2.68A11.54,11.54,0,0,0,2.57-4.633v.1A11.591,11.591,0,0,0,3.359.023a7.25,7.25,0,0,0,1.867,2.75l-.3.844H4.883A7.193,7.193,0,0,1,2.273.715,10.452,10.452,0,0,1,1.031-4.547Z" transform="translate(457.193 2928)" fill="#12263f"/>
    <path id="Trazado_908153" data-name="Trazado 908153" d="M4.242-4.547A10.426,10.426,0,0,1,3,.715a7.244,7.244,0,0,1-2.605,2.9H.344l-.3-.844A6.653,6.653,0,0,0,1.9.074a11.749,11.749,0,0,0,.8-4.605v-.1a11.354,11.354,0,0,0-.824-4.559A7.532,7.532,0,0,0,.047-11.937l.3-.844H.391A7.241,7.241,0,0,1,3-9.875,10.431,10.431,0,0,1,4.242-4.617Z" transform="translate(646.051 2928)" fill="#12263f"/>
  </g>
</svg>
