<svg xmlns="http://www.w3.org/2000/svg" width="504.949" height="279.5" viewBox="0 0 504.949 279.5">
  <g id="Grupo_1114727" data-name="Grupo 1114727" transform="translate(-705 -8756.56)">
    <g id="Grupo_1113368" data-name="Grupo 1113368" transform="translate(524.949 -30.44)">
      <g id="Rectángulo_26736" data-name="Rectángulo 26736" transform="translate(180.051 8787.912)" fill="#fff" stroke="#707070" stroke-width="0.2">
        <rect width="504.199" height="278.108" stroke="none"/>
        <rect x="0.1" y="0.1" width="503.999" height="277.908" fill="none"/>
      </g>
      <rect id="Rectángulo_404595" data-name="Rectángulo 404595" width="504.898" height="39.247" transform="translate(180.102 8871.254)" fill="#ddeffd"/>
      <rect id="Rectángulo_406361" data-name="Rectángulo 406361" width="504.898" height="39.247" transform="translate(180.102 8949.014)" fill="#ddeffd"/>
      <rect id="Rectángulo_406362" data-name="Rectángulo 406362" width="504.898" height="39.247" transform="translate(180.102 9026.773)" fill="#ddeffd"/>
      <path id="Trazado_908246" data-name="Trazado 908246" d="M9.664,12.469q0,4.719-4.258,4.719-4.078,0-4.078-4.539V5.8H2.641v6.766q0,3.445,2.906,3.445,2.8,0,2.8-3.328V5.8H9.664ZM16,16.922a2.47,2.47,0,0,1-1.2.25q-2.1,0-2.1-2.344V10.094H11.328V9H12.7V7.047l1.281-.414V9H16v1.094H13.984V14.6a1.869,1.869,0,0,0,.273,1.148,1.091,1.091,0,0,0,.906.344A1.347,1.347,0,0,0,16,15.828Zm2.367-9.953a.812.812,0,0,1-.586-.234.791.791,0,0,1-.242-.594.821.821,0,0,1,.828-.836.827.827,0,0,1,.6.238.835.835,0,0,1,0,1.184A.82.82,0,0,1,18.367,6.969ZM18.992,17H17.711V9h1.281Zm3.875,0H21.586V5.156h1.281Zm3.25-10.031a.812.812,0,0,1-.586-.234.791.791,0,0,1-.242-.594.821.821,0,0,1,.828-.836.827.827,0,0,1,.6.238.835.835,0,0,1,0,1.184A.82.82,0,0,1,26.117,6.969ZM26.742,17H25.461V9h1.281Zm9.422,0H34.883V15.641h-.031a2.958,2.958,0,0,1-2.75,1.547,2.988,2.988,0,0,1-2.41-1.074,4.407,4.407,0,0,1-.9-2.926,4.794,4.794,0,0,1,1-3.18,3.3,3.3,0,0,1,2.664-1.2,2.564,2.564,0,0,1,2.4,1.3h.031V5.156h1.281Zm-1.281-3.617V12.2a2.289,2.289,0,0,0-.641-1.641,2.149,2.149,0,0,0-1.625-.672,2.212,2.212,0,0,0-1.844.859,3.766,3.766,0,0,0-.672,2.375,3.387,3.387,0,0,0,.645,2.184,2.107,2.107,0,0,0,1.73.8,2.188,2.188,0,0,0,1.738-.773A2.882,2.882,0,0,0,34.883,13.383ZM44.484,17H43.2V15.75h-.031a2.682,2.682,0,0,1-2.461,1.438,2.63,2.63,0,0,1-1.871-.633,2.192,2.192,0,0,1-.676-1.68q0-2.242,2.641-2.609l2.4-.336q0-2.039-1.648-2.039a3.938,3.938,0,0,0-2.609.984V9.563a4.958,4.958,0,0,1,2.719-.75q2.82,0,2.82,2.984ZM43.2,12.953l-1.93.266a3.133,3.133,0,0,0-1.344.441,1.273,1.273,0,0,0-.453,1.121,1.221,1.221,0,0,0,.418.957,1.615,1.615,0,0,0,1.113.371,2.056,2.056,0,0,0,1.574-.668A2.387,2.387,0,0,0,43.2,13.75ZM53.727,17H52.445V15.641h-.031a2.958,2.958,0,0,1-2.75,1.547,2.988,2.988,0,0,1-2.41-1.074,4.407,4.407,0,0,1-.9-2.926,4.794,4.794,0,0,1,1-3.18,3.3,3.3,0,0,1,2.664-1.2,2.564,2.564,0,0,1,2.4,1.3h.031V5.156h1.281Zm-1.281-3.617V12.2a2.289,2.289,0,0,0-.641-1.641,2.149,2.149,0,0,0-1.625-.672,2.212,2.212,0,0,0-1.844.859,3.766,3.766,0,0,0-.672,2.375,3.387,3.387,0,0,0,.645,2.184,2.107,2.107,0,0,0,1.73.8,2.188,2.188,0,0,0,1.738-.773A2.882,2.882,0,0,0,52.445,13.383Zm9.57,2.461h-.031V17H60.7V5.156h1.281v5.25h.031a3.03,3.03,0,0,1,2.766-1.594,2.932,2.932,0,0,1,2.41,1.074,4.436,4.436,0,0,1,.871,2.879,4.959,4.959,0,0,1-.977,3.215,3.251,3.251,0,0,1-2.672,1.207A2.631,2.631,0,0,1,62.016,15.844Zm-.031-3.227v1.117a2.379,2.379,0,0,0,.645,1.684,2.3,2.3,0,0,0,3.461-.2,4.086,4.086,0,0,0,.66-2.477,3.225,3.225,0,0,0-.617-2.094,2.043,2.043,0,0,0-1.672-.758,2.27,2.27,0,0,0-1.8.777A2.854,2.854,0,0,0,61.984,12.617Zm12.3-2.32a1.567,1.567,0,0,0-.969-.258,1.635,1.635,0,0,0-1.371.773,3.576,3.576,0,0,0-.551,2.109V17H70.109V9h1.281v1.648h.031a2.793,2.793,0,0,1,.836-1.316,1.906,1.906,0,0,1,1.258-.473,2.092,2.092,0,0,1,.766.109ZM82.141,17H80.859V15.734h-.031a2.631,2.631,0,0,1-2.469,1.453q-2.859,0-2.859-3.406V9h1.273v4.578q0,2.531,1.938,2.531a1.96,1.96,0,0,0,1.543-.691,2.645,2.645,0,0,0,.605-1.809V9h1.281Zm6.3-.078a2.47,2.47,0,0,1-1.2.25q-2.1,0-2.1-2.344V10.094H83.766V9h1.375V7.047l1.281-.414V9h2.016v1.094H86.422V14.6A1.869,1.869,0,0,0,86.7,15.75a1.091,1.091,0,0,0,.906.344,1.347,1.347,0,0,0,.836-.266ZM95.875,17H94.594V15.75h-.031A2.682,2.682,0,0,1,92.1,17.188a2.63,2.63,0,0,1-1.871-.633,2.192,2.192,0,0,1-.676-1.68q0-2.242,2.641-2.609l2.4-.336q0-2.039-1.648-2.039a3.938,3.938,0,0,0-2.609.984V9.563a4.958,4.958,0,0,1,2.719-.75q2.82,0,2.82,2.984Zm-1.281-4.047-1.93.266a3.133,3.133,0,0,0-1.344.441,1.273,1.273,0,0,0-.453,1.121,1.221,1.221,0,0,0,.418.957,1.615,1.615,0,0,0,1.113.371,2.056,2.056,0,0,0,1.574-.668,2.387,2.387,0,0,0,.621-1.691ZM4.656,57.547H3.516a9.984,9.984,0,0,1-2.422-6.82A10.362,10.362,0,0,1,3.516,43.8H4.672a10.529,10.529,0,0,0-2.453,6.914A10.345,10.345,0,0,0,4.656,57.547Zm8.172-6.5h-8V50.039h8Zm1.328,6.5H13.016a10.345,10.345,0,0,0,2.438-6.836A10.529,10.529,0,0,0,13,43.8h1.156a10.321,10.321,0,0,1,2.438,6.93A9.945,9.945,0,0,1,14.156,57.547Zm17.727-3.312a7.492,7.492,0,0,1-3.75.953,5.124,5.124,0,0,1-3.879-1.547,5.674,5.674,0,0,1-1.48-4.094,5.826,5.826,0,0,1,1.645-4.27,5.606,5.606,0,0,1,4.168-1.668,7.093,7.093,0,0,1,3.07.594v1.453a5.9,5.9,0,0,0-3.219-.859,4.021,4.021,0,0,0-3.086,1.3,5.417,5.417,0,0,0-.086,6.7A3.916,3.916,0,0,0,28.3,54.008a4.684,4.684,0,0,0,2.273-.523V50.344H28.117V49.156h3.766ZM40.039,55H38.758V53.75h-.031a2.682,2.682,0,0,1-2.461,1.438,2.63,2.63,0,0,1-1.871-.633,2.192,2.192,0,0,1-.676-1.68q0-2.242,2.641-2.609l2.4-.336q0-2.039-1.648-2.039a3.938,3.938,0,0,0-2.609.984V47.563a4.958,4.958,0,0,1,2.719-.75q2.82,0,2.82,2.984Zm-1.281-4.047-1.93.266a3.133,3.133,0,0,0-1.344.441,1.273,1.273,0,0,0-.453,1.121,1.221,1.221,0,0,0,.418.957,1.615,1.615,0,0,0,1.113.371,2.056,2.056,0,0,0,1.574-.668,2.387,2.387,0,0,0,.621-1.691Zm3.211,3.758V53.336a3.792,3.792,0,0,0,2.3.773q1.688,0,1.688-1.125a.976.976,0,0,0-.145-.543,1.44,1.44,0,0,0-.391-.395,3.007,3.007,0,0,0-.578-.309q-.332-.137-.715-.285a9.206,9.206,0,0,1-.934-.426,2.82,2.82,0,0,1-.672-.484,1.8,1.8,0,0,1-.406-.613,2.17,2.17,0,0,1-.137-.8,1.912,1.912,0,0,1,.258-1,2.286,2.286,0,0,1,.688-.727,3.206,3.206,0,0,1,.98-.441,4.349,4.349,0,0,1,1.137-.148,4.59,4.59,0,0,1,1.859.359v1.3a3.624,3.624,0,0,0-2.031-.578,2.374,2.374,0,0,0-.648.082,1.587,1.587,0,0,0-.5.23,1.065,1.065,0,0,0-.32.355.936.936,0,0,0-.113.457,1.1,1.1,0,0,0,.113.523,1.152,1.152,0,0,0,.332.375,2.538,2.538,0,0,0,.531.3q.312.133.711.289a9.894,9.894,0,0,1,.953.418,3.269,3.269,0,0,1,.719.484,1.893,1.893,0,0,1,.457.621,2,2,0,0,1,.16.836,1.971,1.971,0,0,1-.262,1.031,2.243,2.243,0,0,1-.7.727,3.2,3.2,0,0,1-1.008.43,4.976,4.976,0,0,1-1.2.141A4.539,4.539,0,0,1,41.969,54.711Zm10.984.211a2.47,2.47,0,0,1-1.2.25q-2.1,0-2.1-2.344V48.094H48.281V47h1.375V45.047l1.281-.414V47h2.016v1.094H50.938V52.6a1.869,1.869,0,0,0,.273,1.148,1.091,1.091,0,0,0,.906.344,1.347,1.347,0,0,0,.836-.266Zm5.055.266a3.711,3.711,0,0,1-2.832-1.121,4.153,4.153,0,0,1-1.059-2.973,4.326,4.326,0,0,1,1.1-3.148A3.96,3.96,0,0,1,58.2,46.813a3.588,3.588,0,0,1,2.793,1.1,4.368,4.368,0,0,1,1,3.055,4.3,4.3,0,0,1-1.082,3.066A3.791,3.791,0,0,1,58.008,55.188Zm.094-7.3a2.437,2.437,0,0,0-1.953.84,3.449,3.449,0,0,0-.719,2.316,3.262,3.262,0,0,0,.727,2.242,2.469,2.469,0,0,0,1.945.82,2.342,2.342,0,0,0,1.91-.8,3.492,3.492,0,0,0,.668-2.289,3.552,3.552,0,0,0-.668-2.312A2.332,2.332,0,0,0,58.1,47.891Zm5.453,6.82V53.336a3.792,3.792,0,0,0,2.3.773q1.688,0,1.688-1.125a.976.976,0,0,0-.145-.543,1.44,1.44,0,0,0-.391-.395,3.007,3.007,0,0,0-.578-.309q-.332-.137-.715-.285a9.206,9.206,0,0,1-.934-.426,2.82,2.82,0,0,1-.672-.484,1.8,1.8,0,0,1-.406-.613,2.17,2.17,0,0,1-.137-.8,1.912,1.912,0,0,1,.258-1,2.286,2.286,0,0,1,.688-.727,3.206,3.206,0,0,1,.98-.441,4.349,4.349,0,0,1,1.137-.148,4.59,4.59,0,0,1,1.859.359v1.3a3.624,3.624,0,0,0-2.031-.578,2.374,2.374,0,0,0-.648.082,1.587,1.587,0,0,0-.5.23,1.065,1.065,0,0,0-.32.355.936.936,0,0,0-.113.457,1.1,1.1,0,0,0,.113.523,1.152,1.152,0,0,0,.332.375,2.538,2.538,0,0,0,.531.3q.313.133.711.289a9.9,9.9,0,0,1,.953.418,3.269,3.269,0,0,1,.719.484,1.893,1.893,0,0,1,.457.621,2,2,0,0,1,.16.836,1.971,1.971,0,0,1-.262,1.031,2.243,2.243,0,0,1-.7.727,3.2,3.2,0,0,1-1.008.43,4.976,4.976,0,0,1-1.2.141A4.539,4.539,0,0,1,63.555,54.711ZM82.039,55H80.758V53.641h-.031a2.958,2.958,0,0,1-2.75,1.547,2.988,2.988,0,0,1-2.41-1.074,4.407,4.407,0,0,1-.9-2.926,4.794,4.794,0,0,1,1-3.18,3.3,3.3,0,0,1,2.664-1.2,2.564,2.564,0,0,1,2.4,1.3h.031V43.156h1.281Zm-1.281-3.617V50.2a2.289,2.289,0,0,0-.641-1.641,2.149,2.149,0,0,0-1.625-.672,2.212,2.212,0,0,0-1.844.859,3.766,3.766,0,0,0-.672,2.375,3.387,3.387,0,0,0,.645,2.184,2.107,2.107,0,0,0,1.73.8,2.188,2.188,0,0,0,1.738-.773A2.882,2.882,0,0,0,80.758,51.383Zm10.3-.062H85.414a2.992,2.992,0,0,0,.719,2.063,2.478,2.478,0,0,0,1.891.727,3.931,3.931,0,0,0,2.484-.891v1.2a4.643,4.643,0,0,1-2.789.766,3.381,3.381,0,0,1-2.664-1.09,4.461,4.461,0,0,1-.969-3.066,4.375,4.375,0,0,1,1.059-3.043,3.394,3.394,0,0,1,2.629-1.176,3.008,3.008,0,0,1,2.43,1.016,4.234,4.234,0,0,1,.859,2.82ZM89.75,50.234a2.607,2.607,0,0,0-.535-1.727,1.823,1.823,0,0,0-1.465-.617,2.07,2.07,0,0,0-1.539.648,2.943,2.943,0,0,0-.781,1.7ZM103.109,55h-1.281V53.75H101.8a2.682,2.682,0,0,1-2.461,1.438,2.63,2.63,0,0,1-1.871-.633,2.192,2.192,0,0,1-.676-1.68q0-2.242,2.641-2.609l2.4-.336q0-2.039-1.648-2.039a3.938,3.938,0,0,0-2.609.984V47.563a4.958,4.958,0,0,1,2.719-.75q2.82,0,2.82,2.984Zm-1.281-4.047-1.93.266a3.133,3.133,0,0,0-1.344.441,1.273,1.273,0,0,0-.453,1.121,1.221,1.221,0,0,0,.418.957,1.615,1.615,0,0,0,1.113.371,2.056,2.056,0,0,0,1.574-.668,2.387,2.387,0,0,0,.621-1.691ZM112.352,55H111.07V53.641h-.031a2.958,2.958,0,0,1-2.75,1.547,2.988,2.988,0,0,1-2.41-1.074,4.407,4.407,0,0,1-.9-2.926,4.794,4.794,0,0,1,1-3.18,3.3,3.3,0,0,1,2.664-1.2,2.564,2.564,0,0,1,2.4,1.3h.031V43.156h1.281Zm-1.281-3.617V50.2a2.289,2.289,0,0,0-.641-1.641,2.149,2.149,0,0,0-1.625-.672,2.212,2.212,0,0,0-1.844.859,3.766,3.766,0,0,0-.672,2.375,3.387,3.387,0,0,0,.645,2.184,2.107,2.107,0,0,0,1.73.8,2.188,2.188,0,0,0,1.738-.773A2.882,2.882,0,0,0,111.07,51.383ZM126.3,55h-1.281V50.406a3.466,3.466,0,0,0-.41-1.922,1.555,1.555,0,0,0-1.379-.594,1.708,1.708,0,0,0-1.395.75,2.869,2.869,0,0,0-.574,1.8V55h-1.281V50.25q0-2.359-1.82-2.359a1.686,1.686,0,0,0-1.391.707,2.923,2.923,0,0,0-.547,1.84V55h-1.281V47h1.281v1.266h.031a2.718,2.718,0,0,1,2.484-1.453,2.311,2.311,0,0,1,2.266,1.656,2.855,2.855,0,0,1,2.656-1.656q2.641,0,2.641,3.258Zm3.078-10.031a.812.812,0,0,1-.586-.234.791.791,0,0,1-.242-.594.821.821,0,0,1,.828-.836.827.827,0,0,1,.6.238.835.835,0,0,1,0,1.184A.82.82,0,0,1,129.383,44.969ZM130.008,55h-1.281V47h1.281Zm9.234,0h-1.281V50.438q0-2.547-1.859-2.547a2.017,2.017,0,0,0-1.59.723,2.679,2.679,0,0,0-.629,1.824V55H132.6V47h1.281v1.328h.031a2.887,2.887,0,0,1,2.625-1.516,2.448,2.448,0,0,1,2.008.848,3.776,3.776,0,0,1,.7,2.449Zm3.07-10.031a.812.812,0,0,1-.586-.234.791.791,0,0,1-.242-.594.821.821,0,0,1,.828-.836.827.827,0,0,1,.6.238.835.835,0,0,1,0,1.184A.82.82,0,0,1,142.313,44.969ZM142.938,55h-1.281V47h1.281Zm2.109-.289V53.336a3.792,3.792,0,0,0,2.3.773q1.688,0,1.688-1.125a.976.976,0,0,0-.145-.543,1.44,1.44,0,0,0-.391-.395,3.007,3.007,0,0,0-.578-.309q-.332-.137-.715-.285a9.206,9.206,0,0,1-.934-.426,2.82,2.82,0,0,1-.672-.484,1.8,1.8,0,0,1-.406-.613,2.17,2.17,0,0,1-.137-.8,1.912,1.912,0,0,1,.258-1,2.286,2.286,0,0,1,.688-.727,3.206,3.206,0,0,1,.98-.441,4.349,4.349,0,0,1,1.137-.148,4.59,4.59,0,0,1,1.859.359v1.3a3.624,3.624,0,0,0-2.031-.578,2.374,2.374,0,0,0-.648.082,1.587,1.587,0,0,0-.5.23,1.065,1.065,0,0,0-.32.355.936.936,0,0,0-.113.457,1.1,1.1,0,0,0,.113.523,1.152,1.152,0,0,0,.332.375,2.538,2.538,0,0,0,.531.3q.312.133.711.289a9.894,9.894,0,0,1,.953.418,3.269,3.269,0,0,1,.719.484,1.893,1.893,0,0,1,.457.621,2,2,0,0,1,.16.836,1.971,1.971,0,0,1-.262,1.031,2.243,2.243,0,0,1-.7.727,3.2,3.2,0,0,1-1.008.43,4.976,4.976,0,0,1-1.2.141A4.539,4.539,0,0,1,145.047,54.711Zm10.984.211a2.47,2.47,0,0,1-1.2.25q-2.1,0-2.1-2.344V48.094h-1.375V47h1.375V45.047l1.281-.414V47h2.016v1.094h-2.016V52.6a1.869,1.869,0,0,0,.273,1.148,1.091,1.091,0,0,0,.906.344,1.347,1.347,0,0,0,.836-.266Zm5.883-6.625a1.567,1.567,0,0,0-.969-.258,1.635,1.635,0,0,0-1.371.773,3.576,3.576,0,0,0-.551,2.109V55h-1.281V47h1.281v1.648h.031a2.794,2.794,0,0,1,.836-1.316,1.906,1.906,0,0,1,1.258-.473,2.092,2.092,0,0,1,.766.109Zm7.117,6.7H167.75V53.75h-.031a2.682,2.682,0,0,1-2.461,1.438,2.63,2.63,0,0,1-1.871-.633,2.192,2.192,0,0,1-.676-1.68q0-2.242,2.641-2.609l2.4-.336q0-2.039-1.648-2.039a3.938,3.938,0,0,0-2.609.984V47.563a4.958,4.958,0,0,1,2.719-.75q2.82,0,2.82,2.984Zm-1.281-4.047-1.93.266a3.133,3.133,0,0,0-1.344.441,1.273,1.273,0,0,0-.453,1.121,1.221,1.221,0,0,0,.418.957,1.615,1.615,0,0,0,1.113.371,2.056,2.056,0,0,0,1.574-.668,2.387,2.387,0,0,0,.621-1.691Zm9.148,3.68a4.163,4.163,0,0,1-2.187.555,3.622,3.622,0,0,1-2.762-1.113,4.035,4.035,0,0,1-1.051-2.887,4.435,4.435,0,0,1,1.133-3.176,3.963,3.963,0,0,1,3.023-1.2,4.208,4.208,0,0,1,1.859.391v1.313a3.258,3.258,0,0,0-1.906-.625A2.576,2.576,0,0,0,173,48.77a3.335,3.335,0,0,0-.785,2.309,3.176,3.176,0,0,0,.738,2.219,2.545,2.545,0,0,0,1.98.813,3.211,3.211,0,0,0,1.969-.7Zm2.594-9.664a.812.812,0,0,1-.586-.234.791.791,0,0,1-.242-.594.821.821,0,0,1,.828-.836.827.827,0,0,1,.6.238.835.835,0,0,1,0,1.184A.82.82,0,0,1,179.492,44.969ZM180.117,55h-1.281V47h1.281Zm5.938.188a3.711,3.711,0,0,1-2.832-1.121,4.153,4.153,0,0,1-1.059-2.973,4.326,4.326,0,0,1,1.1-3.148,3.96,3.96,0,0,1,2.977-1.133,3.588,3.588,0,0,1,2.793,1.1,4.368,4.368,0,0,1,1,3.055,4.3,4.3,0,0,1-1.082,3.066A3.791,3.791,0,0,1,186.055,55.188Zm.094-7.3a2.437,2.437,0,0,0-1.953.84,3.449,3.449,0,0,0-.719,2.316,3.262,3.262,0,0,0,.727,2.242,2.469,2.469,0,0,0,1.945.82,2.342,2.342,0,0,0,1.91-.8,3.492,3.492,0,0,0,.668-2.289,3.552,3.552,0,0,0-.668-2.312A2.332,2.332,0,0,0,186.148,47.891Zm1.875-4.969-2.047,2.563h-.992l1.742-2.562ZM198.727,55h-1.281V50.438q0-2.547-1.859-2.547a2.017,2.017,0,0,0-1.59.723,2.679,2.679,0,0,0-.629,1.824V55h-1.281V47h1.281v1.328h.031a2.887,2.887,0,0,1,2.625-1.516,2.448,2.448,0,0,1,2.008.848,3.776,3.776,0,0,1,.7,2.449ZM4.656,95.547H3.516a9.984,9.984,0,0,1-2.422-6.82A10.362,10.362,0,0,1,3.516,81.8H4.672a10.529,10.529,0,0,0-2.453,6.914A10.345,10.345,0,0,0,4.656,95.547Zm8.172-6.5h-8V88.039h8Zm1.328,6.5H13.016a10.345,10.345,0,0,0,2.438-6.836A10.529,10.529,0,0,0,13,81.8h1.156a10.321,10.321,0,0,1,2.438,6.93A9.945,9.945,0,0,1,14.156,95.547Zm17.727-3.312a7.492,7.492,0,0,1-3.75.953,5.124,5.124,0,0,1-3.879-1.547,5.674,5.674,0,0,1-1.48-4.094,5.826,5.826,0,0,1,1.645-4.27,5.606,5.606,0,0,1,4.168-1.668,7.093,7.093,0,0,1,3.07.594v1.453a5.9,5.9,0,0,0-3.219-.859,4.021,4.021,0,0,0-3.086,1.3,5.417,5.417,0,0,0-.086,6.7A3.916,3.916,0,0,0,28.3,92.008a4.684,4.684,0,0,0,2.273-.523V88.344H28.117V87.156h3.766ZM40.039,93H38.758V91.75h-.031a2.682,2.682,0,0,1-2.461,1.438,2.63,2.63,0,0,1-1.871-.633,2.192,2.192,0,0,1-.676-1.68q0-2.242,2.641-2.609l2.4-.336q0-2.039-1.648-2.039a3.938,3.938,0,0,0-2.609.984V85.563a4.958,4.958,0,0,1,2.719-.75q2.82,0,2.82,2.984Zm-1.281-4.047-1.93.266a3.133,3.133,0,0,0-1.344.441,1.273,1.273,0,0,0-.453,1.121,1.221,1.221,0,0,0,.418.957,1.615,1.615,0,0,0,1.113.371,2.056,2.056,0,0,0,1.574-.668,2.387,2.387,0,0,0,.621-1.691Zm3.211,3.758V91.336a3.792,3.792,0,0,0,2.3.773q1.688,0,1.688-1.125a.976.976,0,0,0-.145-.543,1.44,1.44,0,0,0-.391-.395,3.007,3.007,0,0,0-.578-.309q-.332-.137-.715-.285a9.207,9.207,0,0,1-.934-.426,2.82,2.82,0,0,1-.672-.484,1.8,1.8,0,0,1-.406-.613,2.17,2.17,0,0,1-.137-.8,1.912,1.912,0,0,1,.258-1,2.286,2.286,0,0,1,.688-.727,3.206,3.206,0,0,1,.98-.441,4.349,4.349,0,0,1,1.137-.148,4.59,4.59,0,0,1,1.859.359v1.3a3.624,3.624,0,0,0-2.031-.578,2.374,2.374,0,0,0-.648.082,1.587,1.587,0,0,0-.5.23,1.065,1.065,0,0,0-.32.355.936.936,0,0,0-.113.457,1.1,1.1,0,0,0,.113.523,1.152,1.152,0,0,0,.332.375,2.538,2.538,0,0,0,.531.3q.312.133.711.289a9.894,9.894,0,0,1,.953.418,3.269,3.269,0,0,1,.719.484,1.893,1.893,0,0,1,.457.621,2,2,0,0,1,.16.836,1.971,1.971,0,0,1-.262,1.031,2.243,2.243,0,0,1-.7.727,3.2,3.2,0,0,1-1.008.43,4.976,4.976,0,0,1-1.2.141A4.539,4.539,0,0,1,41.969,92.711Zm10.984.211a2.47,2.47,0,0,1-1.2.25q-2.1,0-2.1-2.344V86.094H48.281V85h1.375V83.047l1.281-.414V85h2.016v1.094H50.938V90.6a1.869,1.869,0,0,0,.273,1.148,1.091,1.091,0,0,0,.906.344,1.347,1.347,0,0,0,.836-.266Zm5.055.266a3.711,3.711,0,0,1-2.832-1.121,4.153,4.153,0,0,1-1.059-2.973,4.326,4.326,0,0,1,1.1-3.148A3.96,3.96,0,0,1,58.2,84.813a3.588,3.588,0,0,1,2.793,1.1,4.368,4.368,0,0,1,1,3.055,4.3,4.3,0,0,1-1.082,3.066A3.791,3.791,0,0,1,58.008,93.188Zm.094-7.3a2.437,2.437,0,0,0-1.953.84,3.449,3.449,0,0,0-.719,2.316,3.262,3.262,0,0,0,.727,2.242,2.469,2.469,0,0,0,1.945.82,2.342,2.342,0,0,0,1.91-.8,3.492,3.492,0,0,0,.668-2.289,3.552,3.552,0,0,0-.668-2.312A2.332,2.332,0,0,0,58.1,85.891Zm5.453,6.82V91.336a3.792,3.792,0,0,0,2.3.773q1.688,0,1.688-1.125a.976.976,0,0,0-.145-.543,1.44,1.44,0,0,0-.391-.395,3.007,3.007,0,0,0-.578-.309q-.332-.137-.715-.285a9.207,9.207,0,0,1-.934-.426,2.82,2.82,0,0,1-.672-.484,1.8,1.8,0,0,1-.406-.613,2.17,2.17,0,0,1-.137-.8,1.912,1.912,0,0,1,.258-1,2.286,2.286,0,0,1,.688-.727,3.206,3.206,0,0,1,.98-.441,4.349,4.349,0,0,1,1.137-.148,4.59,4.59,0,0,1,1.859.359v1.3a3.624,3.624,0,0,0-2.031-.578,2.374,2.374,0,0,0-.648.082,1.587,1.587,0,0,0-.5.23,1.065,1.065,0,0,0-.32.355.936.936,0,0,0-.113.457,1.1,1.1,0,0,0,.113.523,1.152,1.152,0,0,0,.332.375,2.538,2.538,0,0,0,.531.3q.313.133.711.289a9.9,9.9,0,0,1,.953.418,3.269,3.269,0,0,1,.719.484,1.893,1.893,0,0,1,.457.621,2,2,0,0,1,.16.836,1.971,1.971,0,0,1-.262,1.031,2.243,2.243,0,0,1-.7.727,3.2,3.2,0,0,1-1.008.43,4.976,4.976,0,0,1-1.2.141A4.539,4.539,0,0,1,63.555,92.711ZM82.039,93H80.758V91.641h-.031a2.958,2.958,0,0,1-2.75,1.547,2.988,2.988,0,0,1-2.41-1.074,4.407,4.407,0,0,1-.9-2.926,4.794,4.794,0,0,1,1-3.18,3.3,3.3,0,0,1,2.664-1.2,2.564,2.564,0,0,1,2.4,1.3h.031V81.156h1.281Zm-1.281-3.617V88.2a2.289,2.289,0,0,0-.641-1.641,2.149,2.149,0,0,0-1.625-.672,2.212,2.212,0,0,0-1.844.859,3.766,3.766,0,0,0-.672,2.375,3.387,3.387,0,0,0,.645,2.184,2.107,2.107,0,0,0,1.73.8,2.188,2.188,0,0,0,1.738-.773A2.882,2.882,0,0,0,80.758,89.383Zm10.3-.062H85.414a2.992,2.992,0,0,0,.719,2.063,2.478,2.478,0,0,0,1.891.727,3.931,3.931,0,0,0,2.484-.891v1.2a4.643,4.643,0,0,1-2.789.766,3.381,3.381,0,0,1-2.664-1.09,4.461,4.461,0,0,1-.969-3.066,4.375,4.375,0,0,1,1.059-3.043,3.394,3.394,0,0,1,2.629-1.176,3.008,3.008,0,0,1,2.43,1.016,4.234,4.234,0,0,1,.859,2.82ZM89.75,88.234a2.607,2.607,0,0,0-.535-1.727,1.823,1.823,0,0,0-1.465-.617,2.07,2.07,0,0,0-1.539.648,2.943,2.943,0,0,0-.781,1.7ZM103.672,85l-3.187,8H99.227L96.2,85H97.6l2.031,5.813a5.217,5.217,0,0,1,.281,1.117h.031a5.283,5.283,0,0,1,.25-1.086L102.32,85Zm7.8,4.32h-5.648a2.992,2.992,0,0,0,.719,2.063,2.478,2.478,0,0,0,1.891.727,3.931,3.931,0,0,0,2.484-.891v1.2a4.643,4.643,0,0,1-2.789.766,3.381,3.381,0,0,1-2.664-1.09,4.461,4.461,0,0,1-.969-3.066,4.375,4.375,0,0,1,1.059-3.043,3.394,3.394,0,0,1,2.629-1.176,3.008,3.008,0,0,1,2.43,1.016,4.234,4.234,0,0,1,.859,2.82Zm-1.312-1.086a2.607,2.607,0,0,0-.535-1.727,1.823,1.823,0,0,0-1.465-.617,2.07,2.07,0,0,0-1.539.648,2.943,2.943,0,0,0-.781,1.7ZM120.055,93h-1.281V88.438q0-2.547-1.859-2.547a2.017,2.017,0,0,0-1.59.723,2.679,2.679,0,0,0-.629,1.824V93h-1.281V85H114.7v1.328h.031a2.887,2.887,0,0,1,2.625-1.516,2.448,2.448,0,0,1,2.008.848,3.776,3.776,0,0,1,.7,2.449Zm6.125-.078a2.47,2.47,0,0,1-1.2.25q-2.1,0-2.1-2.344V86.094h-1.375V85h1.375V83.047l1.281-.414V85h2.016v1.094h-2.016V90.6a1.869,1.869,0,0,0,.273,1.148,1.091,1.091,0,0,0,.906.344,1.347,1.347,0,0,0,.836-.266Zm7.438.078h-1.281V91.75H132.3a2.682,2.682,0,0,1-2.461,1.438,2.63,2.63,0,0,1-1.871-.633,2.192,2.192,0,0,1-.676-1.68q0-2.242,2.641-2.609l2.4-.336q0-2.039-1.648-2.039a3.938,3.938,0,0,0-2.609.984V85.563a4.958,4.958,0,0,1,2.719-.75q2.82,0,2.82,2.984Zm-1.281-4.047-1.93.266a3.133,3.133,0,0,0-1.344.441,1.273,1.273,0,0,0-.453,1.121,1.221,1.221,0,0,0,.418.957,1.615,1.615,0,0,0,1.113.371,2.056,2.056,0,0,0,1.574-.668,2.387,2.387,0,0,0,.621-1.691Zm3.211,3.758V91.336a3.792,3.792,0,0,0,2.3.773q1.688,0,1.688-1.125a.976.976,0,0,0-.145-.543,1.441,1.441,0,0,0-.391-.395,3.007,3.007,0,0,0-.578-.309q-.332-.137-.715-.285a9.207,9.207,0,0,1-.934-.426,2.82,2.82,0,0,1-.672-.484,1.8,1.8,0,0,1-.406-.613,2.17,2.17,0,0,1-.137-.8,1.912,1.912,0,0,1,.258-1,2.286,2.286,0,0,1,.688-.727,3.206,3.206,0,0,1,.98-.441,4.349,4.349,0,0,1,1.137-.148,4.59,4.59,0,0,1,1.859.359v1.3a3.624,3.624,0,0,0-2.031-.578,2.374,2.374,0,0,0-.648.082,1.587,1.587,0,0,0-.5.23,1.065,1.065,0,0,0-.32.355.936.936,0,0,0-.113.457,1.1,1.1,0,0,0,.113.523,1.152,1.152,0,0,0,.332.375,2.538,2.538,0,0,0,.531.3q.312.133.711.289a9.894,9.894,0,0,1,.953.418,3.269,3.269,0,0,1,.719.484,1.893,1.893,0,0,1,.457.621,2,2,0,0,1,.16.836,1.971,1.971,0,0,1-.262,1.031,2.243,2.243,0,0,1-.7.727,3.2,3.2,0,0,1-1.008.43,4.976,4.976,0,0,1-1.2.141A4.539,4.539,0,0,1,135.547,92.711ZM4.656,133.547H3.516a9.984,9.984,0,0,1-2.422-6.82,10.362,10.362,0,0,1,2.422-6.93H4.672a10.529,10.529,0,0,0-2.453,6.914A10.345,10.345,0,0,0,4.656,133.547Zm9.328-8.359H6.641v-1.031h7.344Zm0,3.328H6.641v-1.031h7.344Zm3.117,5.031H15.961a10.345,10.345,0,0,0,2.438-6.836,10.529,10.529,0,0,0-2.453-6.914H17.1a10.321,10.321,0,0,1,2.438,6.93A9.945,9.945,0,0,1,17.1,133.547Zm17.547-7.078q0,4.719-4.258,4.719-4.078,0-4.078-4.539V119.8h1.313v6.766q0,3.445,2.906,3.445,2.8,0,2.8-3.328V119.8h1.313Zm6.336,4.453a2.47,2.47,0,0,1-1.2.25q-2.1,0-2.1-2.344v-4.734H36.313V123h1.375v-1.953l1.281-.414V123h2.016v1.094H38.969V128.6a1.869,1.869,0,0,0,.273,1.148,1.091,1.091,0,0,0,.906.344,1.347,1.347,0,0,0,.836-.266Zm2.367-9.953a.812.812,0,0,1-.586-.234.791.791,0,0,1-.242-.594.821.821,0,0,1,.828-.836.827.827,0,0,1,.6.238.835.835,0,0,1,0,1.184A.82.82,0,0,1,43.352,120.969ZM43.977,131H42.7v-8h1.281Zm3.875,0H46.57V119.156h1.281Zm3.25-10.031a.812.812,0,0,1-.586-.234.791.791,0,0,1-.242-.594.821.821,0,0,1,.828-.836.827.827,0,0,1,.6.238.835.835,0,0,1,0,1.184A.82.82,0,0,1,51.1,120.969ZM51.727,131H50.445v-8h1.281Zm9.422,0H59.867v-1.359h-.031a2.958,2.958,0,0,1-2.75,1.547,2.988,2.988,0,0,1-2.41-1.074,4.407,4.407,0,0,1-.9-2.926,4.794,4.794,0,0,1,1-3.18,3.3,3.3,0,0,1,2.664-1.2,2.564,2.564,0,0,1,2.4,1.3h.031v-4.953h1.281Zm-1.281-3.617V126.2a2.289,2.289,0,0,0-.641-1.641,2.149,2.149,0,0,0-1.625-.672,2.212,2.212,0,0,0-1.844.859,3.766,3.766,0,0,0-.672,2.375,3.387,3.387,0,0,0,.645,2.184,2.107,2.107,0,0,0,1.73.8,2.188,2.188,0,0,0,1.738-.773A2.882,2.882,0,0,0,59.867,127.383Zm9.6,3.617H68.188v-1.25h-.031a2.682,2.682,0,0,1-2.461,1.438,2.63,2.63,0,0,1-1.871-.633,2.192,2.192,0,0,1-.676-1.68q0-2.242,2.641-2.609l2.4-.336q0-2.039-1.648-2.039a3.938,3.938,0,0,0-2.609.984v-1.312a4.958,4.958,0,0,1,2.719-.75q2.82,0,2.82,2.984Zm-1.281-4.047-1.93.266a3.133,3.133,0,0,0-1.344.441,1.273,1.273,0,0,0-.453,1.121,1.221,1.221,0,0,0,.418.957,1.615,1.615,0,0,0,1.113.371,2.056,2.056,0,0,0,1.574-.668,2.387,2.387,0,0,0,.621-1.691ZM78.711,131H77.43v-1.359H77.4a2.958,2.958,0,0,1-2.75,1.547,2.988,2.988,0,0,1-2.41-1.074,4.407,4.407,0,0,1-.9-2.926,4.794,4.794,0,0,1,1-3.18,3.3,3.3,0,0,1,2.664-1.2,2.564,2.564,0,0,1,2.4,1.3h.031v-4.953h1.281Zm-1.281-3.617V126.2a2.289,2.289,0,0,0-.641-1.641,2.149,2.149,0,0,0-1.625-.672,2.212,2.212,0,0,0-1.844.859,3.766,3.766,0,0,0-.672,2.375,3.387,3.387,0,0,0,.645,2.184,2.107,2.107,0,0,0,1.73.8,2.188,2.188,0,0,0,1.738-.773A2.882,2.882,0,0,0,77.43,127.383Zm11.6,3.8a3.711,3.711,0,0,1-2.832-1.121,4.153,4.153,0,0,1-1.059-2.973,4.326,4.326,0,0,1,1.1-3.148,3.96,3.96,0,0,1,2.977-1.133,3.588,3.588,0,0,1,2.793,1.1,4.368,4.368,0,0,1,1,3.055,4.3,4.3,0,0,1-1.082,3.066A3.791,3.791,0,0,1,89.031,131.188Zm.094-7.3a2.437,2.437,0,0,0-1.953.84,3.449,3.449,0,0,0-.719,2.316,3.262,3.262,0,0,0,.727,2.242,2.469,2.469,0,0,0,1.945.82,2.342,2.342,0,0,0,1.91-.8,3.492,3.492,0,0,0,.668-2.289,3.552,3.552,0,0,0-.668-2.312A2.332,2.332,0,0,0,89.125,123.891Zm7.25,5.953h-.031v4.836H95.063V123h1.281v1.406h.031a3.03,3.03,0,0,1,2.766-1.594,2.93,2.93,0,0,1,2.414,1.074,4.449,4.449,0,0,1,.867,2.879,4.959,4.959,0,0,1-.977,3.215,3.251,3.251,0,0,1-2.672,1.207A2.676,2.676,0,0,1,96.375,129.844Zm-.031-3.227v1.117a2.379,2.379,0,0,0,.645,1.684,2.3,2.3,0,0,0,3.461-.2,4.086,4.086,0,0,0,.66-2.477,3.225,3.225,0,0,0-.617-2.094,2.043,2.043,0,0,0-1.672-.758,2.27,2.27,0,0,0-1.8.777A2.854,2.854,0,0,0,96.344,126.617Zm14.555.7H105.25a2.992,2.992,0,0,0,.719,2.063,2.478,2.478,0,0,0,1.891.727,3.931,3.931,0,0,0,2.484-.891v1.2a4.643,4.643,0,0,1-2.789.766,3.381,3.381,0,0,1-2.664-1.09,4.461,4.461,0,0,1-.969-3.066,4.375,4.375,0,0,1,1.059-3.043,3.394,3.394,0,0,1,2.629-1.176,3.008,3.008,0,0,1,2.43,1.016,4.234,4.234,0,0,1,.859,2.82Zm-1.312-1.086a2.607,2.607,0,0,0-.535-1.727,1.823,1.823,0,0,0-1.465-.617,2.07,2.07,0,0,0-1.539.648,2.943,2.943,0,0,0-.781,1.7Zm7.422-1.937a1.567,1.567,0,0,0-.969-.258,1.635,1.635,0,0,0-1.371.773,3.576,3.576,0,0,0-.551,2.109V131h-1.281v-8h1.281v1.648h.031a2.793,2.793,0,0,1,.836-1.316,1.906,1.906,0,0,1,1.258-.473,2.092,2.092,0,0,1,.766.109Zm7.117,6.7h-1.281v-1.25h-.031a2.682,2.682,0,0,1-2.461,1.438,2.63,2.63,0,0,1-1.871-.633,2.192,2.192,0,0,1-.676-1.68q0-2.242,2.641-2.609l2.4-.336q0-2.039-1.648-2.039a3.938,3.938,0,0,0-2.609.984v-1.312a4.958,4.958,0,0,1,2.719-.75q2.82,0,2.82,2.984Zm-1.281-4.047-1.93.266a3.133,3.133,0,0,0-1.344.441,1.273,1.273,0,0,0-.453,1.121,1.221,1.221,0,0,0,.418.957,1.615,1.615,0,0,0,1.113.371,2.056,2.056,0,0,0,1.574-.668,2.387,2.387,0,0,0,.621-1.691Zm7.406,3.969a2.47,2.47,0,0,1-1.2.25q-2.1,0-2.1-2.344v-4.734h-1.375V123h1.375v-1.953l1.281-.414V123h2.016v1.094h-2.016V128.6a1.869,1.869,0,0,0,.273,1.148,1.091,1.091,0,0,0,.906.344,1.347,1.347,0,0,0,.836-.266Zm2.367-9.953a.812.812,0,0,1-.586-.234.791.791,0,0,1-.242-.594.821.821,0,0,1,.828-.836.827.827,0,0,1,.6.238.835.835,0,0,1,0,1.184A.82.82,0,0,1,132.617,120.969ZM133.242,131h-1.281v-8h1.281Zm8.883-8-3.187,8H137.68l-3.031-8h1.406l2.031,5.813a5.216,5.216,0,0,1,.281,1.117h.031a5.283,5.283,0,0,1,.25-1.086L140.773,123Zm7.1,8h-1.281v-1.25h-.031a2.682,2.682,0,0,1-2.461,1.438,2.63,2.63,0,0,1-1.871-.633,2.192,2.192,0,0,1-.676-1.68q0-2.242,2.641-2.609l2.4-.336q0-2.039-1.648-2.039a3.938,3.938,0,0,0-2.609.984v-1.312a4.958,4.958,0,0,1,2.719-.75q2.82,0,2.82,2.984Zm-1.281-4.047-1.93.266a3.133,3.133,0,0,0-1.344.441,1.273,1.273,0,0,0-.453,1.121,1.221,1.221,0,0,0,.418.957,1.615,1.615,0,0,0,1.113.371,2.056,2.056,0,0,0,1.574-.668,2.387,2.387,0,0,0,.621-1.691Zm11.438,6.594h-1.141a9.984,9.984,0,0,1-2.422-6.82,10.362,10.362,0,0,1,2.422-6.93H159.4a10.529,10.529,0,0,0-2.453,6.914A10.345,10.345,0,0,0,159.383,133.547ZM166.961,131h-5.937V119.8h5.688v1.188h-4.375v3.727h4.047v1.18h-4.047v3.922h4.625Zm2.156,0V119.8H172.3a3.484,3.484,0,0,1,2.3.711,2.3,2.3,0,0,1,.852,1.852,2.725,2.725,0,0,1-.516,1.656,2.78,2.78,0,0,1-1.422,1v.031a2.85,2.85,0,0,1,1.813.855,2.631,2.631,0,0,1,.68,1.879,2.929,2.929,0,0,1-1.031,2.328,3.838,3.838,0,0,1-2.6.891Zm1.313-10.016V124.6h1.344a2.552,2.552,0,0,0,1.7-.52,1.809,1.809,0,0,0,.617-1.465q0-1.633-2.148-1.633Zm0,4.8v4.031h1.781a2.669,2.669,0,0,0,1.793-.547,1.873,1.873,0,0,0,.637-1.5q0-1.984-2.7-1.984ZM179.6,131h-1.312V119.8H179.6Zm9.57-10.016h-3.234V131h-1.312V120.984H181.4V119.8h7.773Zm1.617,12.563h-1.141a10.345,10.345,0,0,0,2.438-6.836,10.529,10.529,0,0,0-2.453-6.914h1.156a10.321,10.321,0,0,1,2.438,6.93A9.945,9.945,0,0,1,190.789,133.547Zm-186.133,38H3.516a9.984,9.984,0,0,1-2.422-6.82,10.362,10.362,0,0,1,2.422-6.93H4.672a10.529,10.529,0,0,0-2.453,6.914A10.345,10.345,0,0,0,4.656,171.547Zm9.328-6.687H10.828v3.148H9.789v-3.148H6.641v-1.047H9.789v-3.148h1.039v3.148h3.156Zm3.117,6.688H15.961a10.345,10.345,0,0,0,2.438-6.836,10.529,10.529,0,0,0-2.453-6.914H17.1a10.321,10.321,0,0,1,2.438,6.93A9.945,9.945,0,0,1,17.1,171.547ZM26.453,169V157.8h3.094q5.922,0,5.922,5.461a5.5,5.5,0,0,1-1.645,4.168,6.1,6.1,0,0,1-4.4,1.574Zm1.313-10.016v8.828h1.672a4.745,4.745,0,0,0,3.43-1.18,4.422,4.422,0,0,0,1.227-3.344q0-4.3-4.578-4.3ZM43.93,165.32H38.281A2.992,2.992,0,0,0,39,167.383a2.478,2.478,0,0,0,1.891.727,3.931,3.931,0,0,0,2.484-.891v1.2a4.643,4.643,0,0,1-2.789.766,3.381,3.381,0,0,1-2.664-1.09,4.461,4.461,0,0,1-.969-3.066,4.375,4.375,0,0,1,1.059-3.043,3.394,3.394,0,0,1,2.629-1.176,3.008,3.008,0,0,1,2.43,1.016,4.234,4.234,0,0,1,.859,2.82Zm-1.312-1.086a2.607,2.607,0,0,0-.535-1.727,1.823,1.823,0,0,0-1.465-.617,2.07,2.07,0,0,0-1.539.648,2.943,2.943,0,0,0-.781,1.7Zm4.563,3.609h-.031v4.836H45.867V161h1.281v1.406h.031a3.03,3.03,0,0,1,2.766-1.594,2.93,2.93,0,0,1,2.414,1.074,4.449,4.449,0,0,1,.867,2.879,4.959,4.959,0,0,1-.977,3.215,3.251,3.251,0,0,1-2.672,1.207A2.676,2.676,0,0,1,47.18,167.844Zm-.031-3.227v1.117a2.379,2.379,0,0,0,.645,1.684,2.3,2.3,0,0,0,3.461-.2,4.086,4.086,0,0,0,.66-2.477,3.225,3.225,0,0,0-.617-2.094,2.043,2.043,0,0,0-1.672-.758,2.27,2.27,0,0,0-1.8.777A2.854,2.854,0,0,0,47.148,164.617Zm12.3-2.32a1.567,1.567,0,0,0-.969-.258,1.635,1.635,0,0,0-1.371.773,3.576,3.576,0,0,0-.551,2.109V169H55.273v-8h1.281v1.648h.031a2.794,2.794,0,0,1,.836-1.316,1.906,1.906,0,0,1,1.258-.473,2.092,2.092,0,0,1,.766.109Zm7.82,3.023H61.617a2.992,2.992,0,0,0,.719,2.063,2.478,2.478,0,0,0,1.891.727,3.931,3.931,0,0,0,2.484-.891v1.2a4.643,4.643,0,0,1-2.789.766,3.381,3.381,0,0,1-2.664-1.09,4.461,4.461,0,0,1-.969-3.066,4.375,4.375,0,0,1,1.059-3.043,3.394,3.394,0,0,1,2.629-1.176,3.008,3.008,0,0,1,2.43,1.016,4.234,4.234,0,0,1,.859,2.82Zm-1.312-1.086a2.607,2.607,0,0,0-.535-1.727,1.823,1.823,0,0,0-1.465-.617,2.07,2.07,0,0,0-1.539.648,2.943,2.943,0,0,0-.781,1.7Zm8.7,4.4a4.163,4.163,0,0,1-2.187.555,3.622,3.622,0,0,1-2.762-1.113,4.035,4.035,0,0,1-1.051-2.887,4.435,4.435,0,0,1,1.133-3.176,3.963,3.963,0,0,1,3.023-1.2,4.208,4.208,0,0,1,1.859.391v1.313a3.258,3.258,0,0,0-1.906-.625,2.576,2.576,0,0,0-2.012.879,3.335,3.335,0,0,0-.785,2.309,3.176,3.176,0,0,0,.738,2.219,2.545,2.545,0,0,0,1.98.813,3.211,3.211,0,0,0,1.969-.7Zm2.594-9.664a.812.812,0,0,1-.586-.234.791.791,0,0,1-.242-.594.821.821,0,0,1,.828-.836.827.827,0,0,1,.6.238.835.835,0,0,1,0,1.184A.82.82,0,0,1,77.25,158.969ZM77.875,169H76.594v-8h1.281Zm8.32,0H84.914v-1.25h-.031a2.682,2.682,0,0,1-2.461,1.438,2.63,2.63,0,0,1-1.871-.633,2.192,2.192,0,0,1-.676-1.68q0-2.242,2.641-2.609l2.4-.336q0-2.039-1.648-2.039a3.938,3.938,0,0,0-2.609.984v-1.312a4.958,4.958,0,0,1,2.719-.75q2.82,0,2.82,2.984Zm-1.281-4.047-1.93.266a3.133,3.133,0,0,0-1.344.441,1.273,1.273,0,0,0-.453,1.121,1.221,1.221,0,0,0,.418.957,1.615,1.615,0,0,0,1.113.371,2.056,2.056,0,0,0,1.574-.668,2.387,2.387,0,0,0,.621-1.691Zm9.148,3.68a4.163,4.163,0,0,1-2.187.555,3.622,3.622,0,0,1-2.762-1.113,4.035,4.035,0,0,1-1.051-2.887,4.435,4.435,0,0,1,1.133-3.176,3.963,3.963,0,0,1,3.023-1.2,4.208,4.208,0,0,1,1.859.391v1.313a3.258,3.258,0,0,0-1.906-.625,2.576,2.576,0,0,0-2.012.879,3.335,3.335,0,0,0-.785,2.309,3.176,3.176,0,0,0,.738,2.219,2.545,2.545,0,0,0,1.98.813,3.211,3.211,0,0,0,1.969-.7Zm2.594-9.664a.812.812,0,0,1-.586-.234.791.791,0,0,1-.242-.594.821.821,0,0,1,.828-.836.827.827,0,0,1,.6.238.835.835,0,0,1,0,1.184A.82.82,0,0,1,96.656,158.969ZM97.281,169H96v-8h1.281Zm5.938.188a3.711,3.711,0,0,1-2.832-1.121,4.153,4.153,0,0,1-1.059-2.973,4.326,4.326,0,0,1,1.1-3.148,3.96,3.96,0,0,1,2.977-1.133,3.588,3.588,0,0,1,2.793,1.1,4.368,4.368,0,0,1,1,3.055,4.3,4.3,0,0,1-1.082,3.066A3.791,3.791,0,0,1,103.219,169.188Zm.094-7.3a2.437,2.437,0,0,0-1.953.84,3.449,3.449,0,0,0-.719,2.316,3.262,3.262,0,0,0,.727,2.242,2.469,2.469,0,0,0,1.945.82,2.342,2.342,0,0,0,1.91-.8,3.492,3.492,0,0,0,.668-2.289,3.552,3.552,0,0,0-.668-2.312A2.332,2.332,0,0,0,103.313,161.891ZM115.891,169h-1.281v-4.562q0-2.547-1.859-2.547a2.017,2.017,0,0,0-1.59.723,2.679,2.679,0,0,0-.629,1.824V169H109.25v-8h1.281v1.328h.031a2.887,2.887,0,0,1,2.625-1.516,2.447,2.447,0,0,1,2.008.848,3.776,3.776,0,0,1,.7,2.449Zm8.844-3.68h-5.648a2.992,2.992,0,0,0,.719,2.063,2.478,2.478,0,0,0,1.891.727,3.931,3.931,0,0,0,2.484-.891v1.2a4.643,4.643,0,0,1-2.789.766,3.381,3.381,0,0,1-2.664-1.09,4.461,4.461,0,0,1-.969-3.066,4.375,4.375,0,0,1,1.059-3.043,3.394,3.394,0,0,1,2.629-1.176,3.008,3.008,0,0,1,2.43,1.016,4.234,4.234,0,0,1,.859,2.82Zm-1.312-1.086a2.607,2.607,0,0,0-.535-1.727,1.823,1.823,0,0,0-1.465-.617,2.07,2.07,0,0,0-1.539.648,2.943,2.943,0,0,0-.781,1.7Zm2.766,4.477v-1.375a3.792,3.792,0,0,0,2.3.773q1.688,0,1.688-1.125a.976.976,0,0,0-.145-.543,1.44,1.44,0,0,0-.391-.395,3.007,3.007,0,0,0-.578-.309q-.332-.137-.715-.285a9.206,9.206,0,0,1-.934-.426,2.821,2.821,0,0,1-.672-.484,1.8,1.8,0,0,1-.406-.613,2.17,2.17,0,0,1-.137-.8,1.912,1.912,0,0,1,.258-1,2.286,2.286,0,0,1,.688-.727,3.206,3.206,0,0,1,.98-.441,4.349,4.349,0,0,1,1.137-.148,4.59,4.59,0,0,1,1.859.359v1.3a3.624,3.624,0,0,0-2.031-.578,2.374,2.374,0,0,0-.648.082,1.588,1.588,0,0,0-.5.23,1.065,1.065,0,0,0-.32.355.936.936,0,0,0-.113.457,1.1,1.1,0,0,0,.113.523,1.152,1.152,0,0,0,.332.375,2.538,2.538,0,0,0,.531.3q.312.133.711.289a9.894,9.894,0,0,1,.953.418,3.269,3.269,0,0,1,.719.484,1.893,1.893,0,0,1,.457.621,2,2,0,0,1,.16.836,1.971,1.971,0,0,1-.262,1.031,2.243,2.243,0,0,1-.7.727,3.2,3.2,0,0,1-1.008.43,4.976,4.976,0,0,1-1.2.141A4.539,4.539,0,0,1,126.188,168.711ZM144.211,161l-3.68,9.281q-.984,2.484-2.766,2.484a2.932,2.932,0,0,1-.836-.1v-1.148a2.375,2.375,0,0,0,.758.141,1.57,1.57,0,0,0,1.453-1.156l.641-1.516L136.656,161h1.422l2.164,6.156q.039.117.164.609h.047q.039-.187.156-.594L142.883,161Zm11.484,8h-1.281v-1.25h-.031a2.682,2.682,0,0,1-2.461,1.438,2.63,2.63,0,0,1-1.871-.633,2.192,2.192,0,0,1-.676-1.68q0-2.242,2.641-2.609l2.4-.336q0-2.039-1.648-2.039a3.938,3.938,0,0,0-2.609.984v-1.312a4.958,4.958,0,0,1,2.719-.75q2.82,0,2.82,2.984Zm-1.281-4.047-1.93.266a3.133,3.133,0,0,0-1.344.441,1.273,1.273,0,0,0-.453,1.121,1.221,1.221,0,0,0,.418.957,1.615,1.615,0,0,0,1.113.371,2.056,2.056,0,0,0,1.574-.668,2.387,2.387,0,0,0,.621-1.691ZM169.469,169h-1.281v-4.594a3.466,3.466,0,0,0-.41-1.922,1.555,1.555,0,0,0-1.379-.594,1.708,1.708,0,0,0-1.395.75,2.869,2.869,0,0,0-.574,1.8V169h-1.281v-4.75q0-2.359-1.82-2.359a1.686,1.686,0,0,0-1.391.707,2.923,2.923,0,0,0-.547,1.84V169h-1.281v-8h1.281v1.266h.031a2.718,2.718,0,0,1,2.484-1.453,2.311,2.311,0,0,1,2.266,1.656,2.855,2.855,0,0,1,2.656-1.656q2.641,0,2.641,3.258Zm5.766.188a3.711,3.711,0,0,1-2.832-1.121,4.153,4.153,0,0,1-1.059-2.973,4.326,4.326,0,0,1,1.1-3.148,3.96,3.96,0,0,1,2.977-1.133,3.588,3.588,0,0,1,2.793,1.1,4.368,4.368,0,0,1,1,3.055,4.3,4.3,0,0,1-1.082,3.066A3.791,3.791,0,0,1,175.234,169.188Zm.094-7.3a2.437,2.437,0,0,0-1.953.84,3.449,3.449,0,0,0-.719,2.316,3.262,3.262,0,0,0,.727,2.242,2.469,2.469,0,0,0,1.945.82,2.342,2.342,0,0,0,1.91-.8,3.492,3.492,0,0,0,.668-2.289,3.552,3.552,0,0,0-.668-2.312A2.332,2.332,0,0,0,175.328,161.891Zm10.109.406a1.567,1.567,0,0,0-.969-.258,1.635,1.635,0,0,0-1.371.773,3.576,3.576,0,0,0-.551,2.109V169h-1.281v-8h1.281v1.648h.031a2.794,2.794,0,0,1,.836-1.316,1.906,1.906,0,0,1,1.258-.473,2.092,2.092,0,0,1,.766.109Zm5.1,6.625a2.47,2.47,0,0,1-1.2.25q-2.1,0-2.1-2.344v-4.734h-1.375V161h1.375v-1.953l1.281-.414V161h2.016v1.094h-2.016V166.6a1.869,1.869,0,0,0,.273,1.148,1.091,1.091,0,0,0,.906.344,1.347,1.347,0,0,0,.836-.266Zm2.367-9.953a.812.812,0,0,1-.586-.234.791.791,0,0,1-.242-.594.821.821,0,0,1,.828-.836.827.827,0,0,1,.6.238.835.835,0,0,1,0,1.184A.82.82,0,0,1,192.906,158.969ZM193.531,169H192.25v-8h1.281Zm8.172-7.633-4.734,6.539h4.688V169h-6.57v-.4l4.734-6.508h-4.289V161H201.7ZM209.086,169H207.8v-1.25h-.031a2.682,2.682,0,0,1-2.461,1.438,2.63,2.63,0,0,1-1.871-.633,2.192,2.192,0,0,1-.676-1.68q0-2.242,2.641-2.609l2.4-.336q0-2.039-1.648-2.039a3.938,3.938,0,0,0-2.609.984v-1.312a4.958,4.958,0,0,1,2.719-.75q2.82,0,2.82,2.984Zm-1.281-4.047-1.93.266a3.133,3.133,0,0,0-1.344.441,1.273,1.273,0,0,0-.453,1.121,1.221,1.221,0,0,0,.418.957,1.615,1.615,0,0,0,1.113.371,2.056,2.056,0,0,0,1.574-.668,2.387,2.387,0,0,0,.621-1.691Zm9.148,3.68a4.163,4.163,0,0,1-2.187.555A3.622,3.622,0,0,1,212,168.074a4.035,4.035,0,0,1-1.051-2.887,4.435,4.435,0,0,1,1.133-3.176,3.963,3.963,0,0,1,3.023-1.2,4.208,4.208,0,0,1,1.859.391v1.313a3.258,3.258,0,0,0-1.906-.625,2.576,2.576,0,0,0-2.012.879,3.335,3.335,0,0,0-.785,2.309A3.176,3.176,0,0,0,213,167.3a2.545,2.545,0,0,0,1.98.813,3.211,3.211,0,0,0,1.969-.7Zm2.594-9.664a.812.812,0,0,1-.586-.234.791.791,0,0,1-.242-.594.821.821,0,0,1,.828-.836.827.827,0,0,1,.6.238.835.835,0,0,1,0,1.184A.82.82,0,0,1,219.547,158.969ZM220.172,169h-1.281v-8h1.281Zm5.938.188a3.711,3.711,0,0,1-2.832-1.121,4.153,4.153,0,0,1-1.059-2.973,4.326,4.326,0,0,1,1.1-3.148,3.96,3.96,0,0,1,2.977-1.133,3.588,3.588,0,0,1,2.793,1.1,4.368,4.368,0,0,1,1,3.055,4.3,4.3,0,0,1-1.082,3.066A3.791,3.791,0,0,1,226.109,169.188Zm.094-7.3a2.437,2.437,0,0,0-1.953.84,3.449,3.449,0,0,0-.719,2.316,3.262,3.262,0,0,0,.727,2.242,2.469,2.469,0,0,0,1.945.82,2.342,2.342,0,0,0,1.91-.8,3.492,3.492,0,0,0,.668-2.289,3.552,3.552,0,0,0-.668-2.312A2.332,2.332,0,0,0,226.2,161.891ZM238.781,169H237.5v-4.562q0-2.547-1.859-2.547a2.017,2.017,0,0,0-1.59.723,2.679,2.679,0,0,0-.629,1.824V169h-1.281v-8h1.281v1.328h.031a2.887,2.887,0,0,1,2.625-1.516,2.448,2.448,0,0,1,2.008.848,3.776,3.776,0,0,1,.7,2.449Zm8.844-3.68h-5.648a2.992,2.992,0,0,0,.719,2.063,2.478,2.478,0,0,0,1.891.727,3.931,3.931,0,0,0,2.484-.891v1.2a4.643,4.643,0,0,1-2.789.766,3.381,3.381,0,0,1-2.664-1.09,4.461,4.461,0,0,1-.969-3.066,4.374,4.374,0,0,1,1.059-3.043,3.394,3.394,0,0,1,2.629-1.176,3.008,3.008,0,0,1,2.43,1.016,4.234,4.234,0,0,1,.859,2.82Zm-1.312-1.086a2.607,2.607,0,0,0-.535-1.727,1.823,1.823,0,0,0-1.465-.617,2.07,2.07,0,0,0-1.539.648,2.943,2.943,0,0,0-.781,1.7Zm2.766,4.477v-1.375a3.792,3.792,0,0,0,2.3.773q1.688,0,1.688-1.125a.976.976,0,0,0-.145-.543,1.44,1.44,0,0,0-.391-.395,3.007,3.007,0,0,0-.578-.309q-.332-.137-.715-.285a9.206,9.206,0,0,1-.934-.426,2.82,2.82,0,0,1-.672-.484,1.8,1.8,0,0,1-.406-.613,2.17,2.17,0,0,1-.137-.8,1.912,1.912,0,0,1,.258-1,2.286,2.286,0,0,1,.688-.727,3.206,3.206,0,0,1,.98-.441,4.349,4.349,0,0,1,1.137-.148,4.59,4.59,0,0,1,1.859.359v1.3a3.624,3.624,0,0,0-2.031-.578,2.374,2.374,0,0,0-.648.082,1.588,1.588,0,0,0-.5.23,1.065,1.065,0,0,0-.32.355.936.936,0,0,0-.113.457,1.1,1.1,0,0,0,.113.523,1.152,1.152,0,0,0,.332.375,2.538,2.538,0,0,0,.531.3q.312.133.711.289a9.894,9.894,0,0,1,.953.418,3.269,3.269,0,0,1,.719.484,1.893,1.893,0,0,1,.457.621,2,2,0,0,1,.16.836,1.971,1.971,0,0,1-.262,1.031,2.243,2.243,0,0,1-.7.727,3.2,3.2,0,0,1-1.008.43,4.976,4.976,0,0,1-1.2.141A4.539,4.539,0,0,1,249.078,168.711ZM4.656,209.547H3.516a9.984,9.984,0,0,1-2.422-6.82,10.362,10.362,0,0,1,2.422-6.93H4.672a10.529,10.529,0,0,0-2.453,6.914A10.345,10.345,0,0,0,4.656,209.547Zm9.328-8.359H6.641v-1.031h7.344Zm0,3.328H6.641v-1.031h7.344Zm3.117,5.031H15.961a10.345,10.345,0,0,0,2.438-6.836,10.529,10.529,0,0,0-2.453-6.914H17.1a10.321,10.321,0,0,1,2.438,6.93A9.945,9.945,0,0,1,17.1,209.547ZM32.391,207H26.453V195.8h5.688v1.188H27.766v3.727h4.047v1.18H27.766v3.922h4.625Zm2.156,0V195.8h3.188a3.484,3.484,0,0,1,2.3.711,2.3,2.3,0,0,1,.852,1.852,2.724,2.724,0,0,1-.516,1.656,2.781,2.781,0,0,1-1.422,1v.031a2.85,2.85,0,0,1,1.813.855,2.631,2.631,0,0,1,.68,1.879,2.929,2.929,0,0,1-1.031,2.328,3.838,3.838,0,0,1-2.6.891Zm1.313-10.016V200.6H37.2a2.552,2.552,0,0,0,1.7-.52,1.809,1.809,0,0,0,.617-1.465q0-1.633-2.148-1.633Zm0,4.8v4.031h1.781a2.669,2.669,0,0,0,1.793-.547,1.873,1.873,0,0,0,.637-1.5q0-1.984-2.7-1.984ZM45.031,207H43.719V195.8h1.313Zm9.57-10.016H51.367V207H50.055V196.984H46.828V195.8H54.6ZM56.359,207V195.8h3.094q5.922,0,5.922,5.461a5.5,5.5,0,0,1-1.645,4.168,6.1,6.1,0,0,1-4.4,1.574Zm1.313-10.016v8.828h1.672a4.745,4.745,0,0,0,3.43-1.18A4.422,4.422,0,0,0,64,201.289q0-4.3-4.578-4.3ZM75.859,207H74.406l-1.187-3.141h-4.75L67.352,207H65.891l4.3-11.2h1.359Zm-3.07-4.32-1.758-4.773a4.571,4.571,0,0,1-.172-.75h-.031a4.185,4.185,0,0,1-.18.75l-1.742,4.773Z" transform="translate(203.051 8844)" fill="#00223d"/>
      <path id="Trazado_908245" data-name="Trazado 908245" d="M42.016,17h-1.6l-2.578-4.289a3.846,3.846,0,0,1-.258-.555h-.031q-.078.18-.266.555L34.625,17H33.016l3.75-5.633L33.313,5.8h1.609l2.289,3.938a7.9,7.9,0,0,1,.4.781h.031a8.626,8.626,0,0,1,.438-.812L40.461,5.8h1.508l-3.523,5.555Zm9.438,0h-1.6l-2.578-4.289a3.846,3.846,0,0,1-.258-.555h-.031q-.078.18-.266.555L44.063,17H42.453l3.75-5.633L42.75,5.8h1.609l2.289,3.938a7.9,7.9,0,0,1,.4.781h.031a8.626,8.626,0,0,1,.438-.812L49.9,5.8h1.508l-3.523,5.555Zm9.438,0h-1.6l-2.578-4.289a3.846,3.846,0,0,1-.258-.555h-.031q-.078.18-.266.555L53.5,17H51.891l3.75-5.633L52.188,5.8H53.8l2.289,3.938a7.9,7.9,0,0,1,.4.781h.031a8.626,8.626,0,0,1,.438-.812L59.336,5.8h1.508L57.32,11.352Zm9.438,0h-1.6l-2.578-4.289a3.846,3.846,0,0,1-.258-.555h-.031q-.078.18-.266.555L62.938,17H61.328l3.75-5.633L61.625,5.8h1.609l2.289,3.938a7.9,7.9,0,0,1,.4.781h.031a8.625,8.625,0,0,1,.438-.812L68.773,5.8h1.508l-3.523,5.555Zm9.438,0h-1.6l-2.578-4.289a3.846,3.846,0,0,1-.258-.555H75.3q-.078.18-.266.555L72.375,17H70.766l3.75-5.633L71.063,5.8h1.609l2.289,3.938a7.9,7.9,0,0,1,.4.781h.031a8.625,8.625,0,0,1,.438-.812L78.211,5.8h1.508L76.2,11.352ZM42.016,55h-1.6l-2.578-4.289a3.846,3.846,0,0,1-.258-.555h-.031q-.078.18-.266.555L34.625,55H33.016l3.75-5.633L33.313,43.8h1.609l2.289,3.938a7.9,7.9,0,0,1,.4.781h.031a8.626,8.626,0,0,1,.438-.812L40.461,43.8h1.508l-3.523,5.555Zm9.438,0h-1.6l-2.578-4.289a3.846,3.846,0,0,1-.258-.555h-.031q-.078.18-.266.555L44.063,55H42.453l3.75-5.633L42.75,43.8h1.609l2.289,3.938a7.9,7.9,0,0,1,.4.781h.031a8.626,8.626,0,0,1,.438-.812L49.9,43.8h1.508l-3.523,5.555Zm9.438,0h-1.6l-2.578-4.289a3.846,3.846,0,0,1-.258-.555h-.031q-.078.18-.266.555L53.5,55H51.891l3.75-5.633L52.188,43.8H53.8l2.289,3.938a7.9,7.9,0,0,1,.4.781h.031a8.626,8.626,0,0,1,.438-.812L59.336,43.8h1.508L57.32,49.352Zm9.438,0h-1.6l-2.578-4.289a3.846,3.846,0,0,1-.258-.555h-.031q-.078.18-.266.555L62.938,55H61.328l3.75-5.633L61.625,43.8h1.609l2.289,3.938a7.9,7.9,0,0,1,.4.781h.031a8.626,8.626,0,0,1,.438-.812L68.773,43.8h1.508l-3.523,5.555Zm9.438,0h-1.6l-2.578-4.289a3.846,3.846,0,0,1-.258-.555H75.3q-.078.18-.266.555L72.375,55H70.766l3.75-5.633L71.063,43.8h1.609l2.289,3.938a7.9,7.9,0,0,1,.4.781h.031a8.626,8.626,0,0,1,.438-.812L78.211,43.8h1.508L76.2,49.352ZM42.016,93h-1.6l-2.578-4.289a3.846,3.846,0,0,1-.258-.555h-.031q-.078.18-.266.555L34.625,93H33.016l3.75-5.633L33.313,81.8h1.609l2.289,3.938a7.9,7.9,0,0,1,.4.781h.031a8.626,8.626,0,0,1,.438-.812L40.461,81.8h1.508l-3.523,5.555Zm9.438,0h-1.6l-2.578-4.289a3.846,3.846,0,0,1-.258-.555h-.031q-.078.18-.266.555L44.063,93H42.453l3.75-5.633L42.75,81.8h1.609l2.289,3.938a7.9,7.9,0,0,1,.4.781h.031a8.626,8.626,0,0,1,.438-.812L49.9,81.8h1.508l-3.523,5.555Zm9.438,0h-1.6l-2.578-4.289a3.846,3.846,0,0,1-.258-.555h-.031q-.078.18-.266.555L53.5,93H51.891l3.75-5.633L52.188,81.8H53.8l2.289,3.938a7.9,7.9,0,0,1,.4.781h.031a8.626,8.626,0,0,1,.438-.812L59.336,81.8h1.508L57.32,87.352Zm9.438,0h-1.6l-2.578-4.289a3.846,3.846,0,0,1-.258-.555h-.031q-.078.18-.266.555L62.938,93H61.328l3.75-5.633L61.625,81.8h1.609l2.289,3.938a7.9,7.9,0,0,1,.4.781h.031a8.625,8.625,0,0,1,.438-.812L68.773,81.8h1.508l-3.523,5.555Zm9.438,0h-1.6l-2.578-4.289a3.846,3.846,0,0,1-.258-.555H75.3q-.078.18-.266.555L72.375,93H70.766l3.75-5.633L71.063,81.8h1.609l2.289,3.938a7.9,7.9,0,0,1,.4.781h.031a8.625,8.625,0,0,1,.438-.812L78.211,81.8h1.508L76.2,87.352Zm-37.75,38h-1.6l-2.578-4.289a3.846,3.846,0,0,1-.258-.555h-.031q-.078.18-.266.555L34.625,131H33.016l3.75-5.633-3.453-5.57h1.609l2.289,3.938a7.9,7.9,0,0,1,.4.781h.031a8.626,8.626,0,0,1,.438-.812l2.383-3.906h1.508l-3.523,5.555Zm9.438,0h-1.6l-2.578-4.289a3.846,3.846,0,0,1-.258-.555h-.031q-.078.18-.266.555L44.063,131H42.453l3.75-5.633L42.75,119.8h1.609l2.289,3.938a7.9,7.9,0,0,1,.4.781h.031a8.626,8.626,0,0,1,.438-.812L49.9,119.8h1.508l-3.523,5.555Zm9.438,0h-1.6l-2.578-4.289a3.846,3.846,0,0,1-.258-.555h-.031q-.078.18-.266.555L53.5,131H51.891l3.75-5.633-3.453-5.57H53.8l2.289,3.938a7.9,7.9,0,0,1,.4.781h.031a8.626,8.626,0,0,1,.438-.812l2.383-3.906h1.508l-3.523,5.555Zm9.438,0h-1.6l-2.578-4.289a3.846,3.846,0,0,1-.258-.555h-.031q-.078.18-.266.555L62.938,131H61.328l3.75-5.633-3.453-5.57h1.609l2.289,3.938a7.9,7.9,0,0,1,.4.781h.031a8.625,8.625,0,0,1,.438-.812l2.383-3.906h1.508l-3.523,5.555Zm9.438,0h-1.6l-2.578-4.289a3.846,3.846,0,0,1-.258-.555H75.3q-.078.18-.266.555L72.375,131H70.766l3.75-5.633-3.453-5.57h1.609l2.289,3.938a7.9,7.9,0,0,1,.4.781h.031a8.625,8.625,0,0,1,.438-.812l2.383-3.906h1.508L76.2,125.352Zm-37.75,38h-1.6l-2.578-4.289a3.846,3.846,0,0,1-.258-.555h-.031q-.078.18-.266.555L34.625,169H33.016l3.75-5.633-3.453-5.57h1.609l2.289,3.938a7.9,7.9,0,0,1,.4.781h.031a8.627,8.627,0,0,1,.438-.812l2.383-3.906h1.508l-3.523,5.555Zm9.438,0h-1.6l-2.578-4.289a3.846,3.846,0,0,1-.258-.555h-.031q-.078.18-.266.555L44.063,169H42.453l3.75-5.633L42.75,157.8h1.609l2.289,3.938a7.9,7.9,0,0,1,.4.781h.031a8.627,8.627,0,0,1,.438-.812L49.9,157.8h1.508l-3.523,5.555Zm9.438,0h-1.6l-2.578-4.289a3.846,3.846,0,0,1-.258-.555h-.031q-.078.18-.266.555L53.5,169H51.891l3.75-5.633-3.453-5.57H53.8l2.289,3.938a7.9,7.9,0,0,1,.4.781h.031a8.627,8.627,0,0,1,.438-.812l2.383-3.906h1.508l-3.523,5.555Zm9.438,0h-1.6l-2.578-4.289a3.846,3.846,0,0,1-.258-.555h-.031q-.078.18-.266.555L62.938,169H61.328l3.75-5.633-3.453-5.57h1.609l2.289,3.938a7.9,7.9,0,0,1,.4.781h.031a8.626,8.626,0,0,1,.438-.812l2.383-3.906h1.508l-3.523,5.555Zm9.438,0h-1.6l-2.578-4.289a3.846,3.846,0,0,1-.258-.555H75.3q-.078.18-.266.555L72.375,169H70.766l3.75-5.633-3.453-5.57h1.609l2.289,3.938a7.9,7.9,0,0,1,.4.781h.031a8.626,8.626,0,0,1,.438-.812l2.383-3.906h1.508L76.2,163.352Z" transform="translate(580.051 8844)" fill="#00223d"/>
      <path id="Trazado_106625" data-name="Trazado 106625" d="M0,0H504.2V42.5H0Z" transform="translate(180.051 8787)" fill="#5ab4f9"/>
      <path id="Trazado_908243" data-name="Trazado 908243" d="M23.988,16.6a7.388,7.388,0,0,1-3.2.594A5.4,5.4,0,0,1,16.73,15.68a5.54,5.54,0,0,1-1.477-4.039,5.919,5.919,0,0,1,1.66-4.359,5.807,5.807,0,0,1,4.309-1.672,8.058,8.058,0,0,1,2.766.414v2.43a4.9,4.9,0,0,0-2.562-.672,3.4,3.4,0,0,0-2.547.992,3.682,3.682,0,0,0-.969,2.688,3.611,3.611,0,0,0,.914,2.59,3.229,3.229,0,0,0,2.461.965,5.249,5.249,0,0,0,2.7-.719Zm5.523.594a4.3,4.3,0,0,1-3.145-1.121,4.064,4.064,0,0,1-1.145-3.043A4.065,4.065,0,0,1,26.41,9.926,4.487,4.487,0,0,1,29.621,8.8a4.249,4.249,0,0,1,3.125,1.121,3.985,3.985,0,0,1,1.133,2.965,4.23,4.23,0,0,1-1.168,3.148A4.348,4.348,0,0,1,29.512,17.2Zm.063-6.5a1.647,1.647,0,0,0-1.359.6A2.653,2.653,0,0,0,27.73,13q0,2.3,1.859,2.3,1.773,0,1.773-2.367Q31.363,10.7,29.574,10.7ZM43.207,17H40.746V12.555q0-1.859-1.328-1.859a1.318,1.318,0,0,0-1.055.492,1.875,1.875,0,0,0-.414,1.25V17H35.48V9h2.469v1.266h.031A2.829,2.829,0,0,1,40.551,8.8q2.656,0,2.656,3.3Zm8.016-.289a4.881,4.881,0,0,1-2.414.484,4.083,4.083,0,0,1-2.984-1.117A3.859,3.859,0,0,1,44.684,13.2,4.251,4.251,0,0,1,45.906,9.98,4.518,4.518,0,0,1,49.176,8.8a4.2,4.2,0,0,1,2.047.375v2.094A2.814,2.814,0,0,0,49.5,10.7a2.275,2.275,0,0,0-1.684.621,2.317,2.317,0,0,0-.621,1.715,2.28,2.28,0,0,0,.594,1.668,2.182,2.182,0,0,0,1.633.605,3.258,3.258,0,0,0,1.8-.578Zm8.8-3.008H54.809q.125,1.742,2.2,1.742a4.286,4.286,0,0,0,2.32-.625V16.6a6.1,6.1,0,0,1-2.883.594,4.058,4.058,0,0,1-3.008-1.074,4.058,4.058,0,0,1-1.07-3A4.281,4.281,0,0,1,53.52,9.969,3.852,3.852,0,0,1,56.363,8.8,3.5,3.5,0,0,1,59.07,9.844a4,4,0,0,1,.957,2.82Zm-2.289-1.516q0-1.719-1.391-1.719a1.328,1.328,0,0,0-1.027.492,2.234,2.234,0,0,0-.527,1.227ZM64,16.07h-.031V20.68H61.5V9h2.469v1.2H64a3.142,3.142,0,0,1,4.973-.332,4.54,4.54,0,0,1,.848,2.9,4.922,4.922,0,0,1-.988,3.211A3.222,3.222,0,0,1,66.2,17.2,2.491,2.491,0,0,1,64,16.07Zm-.07-3.281v.641a2.037,2.037,0,0,0,.438,1.352,1.424,1.424,0,0,0,1.148.523,1.514,1.514,0,0,0,1.309-.652,3.15,3.15,0,0,0,.465-1.848q0-2.109-1.641-2.109a1.541,1.541,0,0,0-1.238.574A2.29,2.29,0,0,0,63.926,12.789Zm12.328,4.117a3.649,3.649,0,0,1-1.648.289Q72,17.2,72,14.484V10.82H70.7V9H72V7.273l2.461-.7V9h1.8v1.82h-1.8v3.234q0,1.25.992,1.25a1.673,1.673,0,0,0,.8-.227Zm5.141.289a4.3,4.3,0,0,1-3.145-1.121,4.064,4.064,0,0,1-1.145-3.043,4.065,4.065,0,0,1,1.188-3.105A4.487,4.487,0,0,1,81.5,8.8a4.249,4.249,0,0,1,3.125,1.121,3.985,3.985,0,0,1,1.133,2.965,4.23,4.23,0,0,1-1.168,3.148A4.348,4.348,0,0,1,81.395,17.2Zm.063-6.5a1.647,1.647,0,0,0-1.359.6,2.653,2.653,0,0,0-.484,1.7q0,2.3,1.859,2.3,1.773,0,1.773-2.367Q83.246,10.7,81.457,10.7Z" transform="translate(245.051 8799)" fill="#12263f"/>
      <path id="Trazado_908244" data-name="Trazado 908244" d="M41.723,5.8,37.863,17H35L31.191,5.8H33.91l2.336,7.8a5.584,5.584,0,0,1,.227,1.117h.047a6.314,6.314,0,0,1,.242-1.148L39.082,5.8ZM48.277,17H45.941V15.852H45.91A2.607,2.607,0,0,1,43.527,17.2a2.492,2.492,0,0,1-1.832-.66,2.366,2.366,0,0,1-.668-1.762q0-2.328,2.758-2.687l2.172-.289q0-1.312-1.422-1.312a4.853,4.853,0,0,0-2.719.852V9.477a6.116,6.116,0,0,1,1.41-.469,7.413,7.413,0,0,1,1.629-.2q3.422,0,3.422,3.414Zm-2.32-3.25v-.539L44.5,13.4q-1.2.156-1.2,1.086a.9.9,0,0,0,.293.691,1.126,1.126,0,0,0,.793.27,1.462,1.462,0,0,0,1.133-.48A1.735,1.735,0,0,0,45.957,13.75ZM52.7,17H50.23V5.156H52.7Zm5.891.2a4.3,4.3,0,0,1-3.145-1.121A4.064,4.064,0,0,1,54.3,13.031a4.065,4.065,0,0,1,1.188-3.105A4.487,4.487,0,0,1,58.7,8.8a4.249,4.249,0,0,1,3.125,1.121,3.985,3.985,0,0,1,1.133,2.965,4.23,4.23,0,0,1-1.168,3.148A4.348,4.348,0,0,1,58.59,17.2Zm.063-6.5a1.647,1.647,0,0,0-1.359.6,2.653,2.653,0,0,0-.484,1.7q0,2.3,1.859,2.3,1.773,0,1.773-2.367Q60.441,10.7,58.652,10.7Zm11.125.531a2.141,2.141,0,0,0-1.039-.242,1.5,1.5,0,0,0-1.258.59,2.573,2.573,0,0,0-.453,1.605V17H64.559V9h2.469v1.484h.031a2.136,2.136,0,0,1,2.109-1.625,1.59,1.59,0,0,1,.609.094Z" transform="translate(554.051 8799)" fill="#12263f"/>
      <line id="Línea_1844" data-name="Línea 1844" y2="278.588" transform="translate(529 8787.912)" fill="none" stroke="#12263f" stroke-miterlimit="10" stroke-width="1"/>
    </g>
  </g>
</svg>
