<svg xmlns="http://www.w3.org/2000/svg" xmlns:xlink="http://www.w3.org/1999/xlink" width="81.414" height="81.414" viewBox="0 0 81.414 81.414">
  <defs>
    <filter id="Trazado_873828" x="0" y="0" width="81.414" height="81.414" filterUnits="userSpaceOnUse">
      <feOffset dy="3" input="SourceAlpha"/>
      <feGaussianBlur stdDeviation="3" result="blur"/>
      <feFlood flood-opacity="0.161"/>
      <feComposite operator="in" in2="blur"/>
    </filter>
    <filter id="Trazado_873828-2" x="0" y="0" width="81.414" height="81.414" filterUnits="userSpaceOnUse">
      <feOffset dy="3" input="SourceAlpha"/>
      <feGaussianBlur stdDeviation="3" result="blur-2"/>
      <feFlood flood-opacity="0.161" result="color"/>
      <feComposite operator="out" in="SourceGraphic" in2="blur-2"/>
      <feComposite operator="in" in="color"/>
      <feComposite operator="in" in2="SourceGraphic"/>
    </filter>
  </defs>
  <g id="Grupo_1114521" data-name="Grupo 1114521" transform="translate(-502.051 -7401)">
    <g data-type="innerShadowGroup">
      <g transform="matrix(1, 0, 0, 1, 502.05, 7401)" filter="url(#Trazado_873828)">
        <g id="Trazado_873828-3" data-name="Trazado 873828" transform="translate(9 6)" fill="#bce0fc">
          <path d="M 31.70703125 61.4140625 C 27.69572067260742 61.4140625 23.80547142028809 60.62889099121094 20.14433097839355 59.08036041259766 C 16.60707092285156 57.58423233032227 13.42987155914307 55.44195938110352 10.7009916305542 52.71308135986328 C 7.972101211547852 49.98419189453125 5.829841136932373 46.80699157714844 4.333701133728027 43.26974105834961 C 2.785171270370483 39.60859298706055 2.000001192092896 35.71834182739258 2.000001192092896 31.70703125 C 2.000001192092896 27.69573211669922 2.785171270370483 23.80547142028809 4.333701133728027 20.14433097839355 C 5.829841136932373 16.60707092285156 7.972101211547852 13.42987155914307 10.7009916305542 10.7009916305542 C 13.42987155914307 7.972101211547852 16.60707092285156 5.829841136932373 20.14433097839355 4.333701133728027 C 23.80547142028809 2.785171270370483 27.69573211669922 2.000001192092896 31.70703125 2.000001192092896 C 35.71834182739258 2.000001192092896 39.60859298706055 2.785171270370483 43.26974105834961 4.333701133728027 C 46.80699157714844 5.829841136932373 49.98419189453125 7.972101211547852 52.71308135986328 10.7009916305542 C 55.44195938110352 13.42987155914307 57.58423233032227 16.60707092285156 59.08036041259766 20.14433097839355 C 60.62889099121094 23.80547142028809 61.4140625 27.69572067260742 61.4140625 31.70703125 C 61.4140625 35.71834182739258 60.62889099121094 39.60859298706055 59.08036041259766 43.26974105834961 C 57.58423233032227 46.80699157714844 55.44195938110352 49.98419189453125 52.71308135986328 52.71308135986328 C 49.98419189453125 55.44195938110352 46.80699157714844 57.58423233032227 43.26974105834961 59.08036041259766 C 39.60859298706055 60.62889099121094 35.71834182739258 61.4140625 31.70703125 61.4140625 Z" stroke="none"/>
          <path d="M 31.70703125 3.999996185302734 C 27.96484375 3.999996185302734 24.33671188354492 4.732006072998047 20.92343139648438 6.175712585449219 C 17.62457275390625 7.571006774902344 14.66105651855469 9.569347381591797 12.11519622802734 12.11519622802734 C 9.569347381591797 14.66105651855469 7.571006774902344 17.62457275390625 6.175712585449219 20.92343139648438 C 4.732006072998047 24.33671188354492 3.999996185302734 27.96484375 3.999996185302734 31.70703125 C 3.999996185302734 35.44921875 4.732006072998047 39.07734680175781 6.175712585449219 42.49063110351562 C 7.571006774902344 45.78948974609375 9.5693359375 48.75300598144531 12.11519622802734 51.29886627197266 C 14.66105651855469 53.8447265625 17.62457275390625 55.84305572509766 20.92343139648438 57.23834991455078 C 24.33671188354492 58.68205642700195 27.96484375 59.41406631469727 31.70703125 59.41406631469727 C 35.44921875 59.41406631469727 39.07734680175781 58.68205642700195 42.49063110351562 57.23834991455078 C 45.78948974609375 55.84305572509766 48.75300598144531 53.8447265625 51.29886627197266 51.29886627197266 C 53.8447265625 48.75300598144531 55.84305572509766 45.78948974609375 57.23834991455078 42.49063110351562 C 58.68205642700195 39.07734680175781 59.41406631469727 35.44921875 59.41406631469727 31.70703125 C 59.41406631469727 27.96484375 58.68205642700195 24.33671188354492 57.23834991455078 20.92343139648438 C 55.84305572509766 17.62457275390625 53.8447265625 14.66105651855469 51.29886627197266 12.11519622802734 C 48.75300598144531 9.5693359375 45.78948974609375 7.571006774902344 42.49063110351562 6.175712585449219 C 39.07734680175781 4.732006072998047 35.44921875 3.999996185302734 31.70703125 3.999996185302734 M 31.70703125 -3.814697265625e-06 C 49.21834945678711 -3.814697265625e-06 63.41406631469727 14.19572448730469 63.41406631469727 31.70703125 C 63.41406631469727 49.21834945678711 49.21834945678711 63.41406631469727 31.70703125 63.41406631469727 C 14.19572448730469 63.41406631469727 -3.814697265625e-06 49.21834945678711 -3.814697265625e-06 31.70703125 C -3.814697265625e-06 14.19572448730469 14.19572448730469 -3.814697265625e-06 31.70703125 -3.814697265625e-06 Z" stroke="none" fill="#fff"/>
        </g>
      </g>
      <g id="Trazado_873828-4" data-name="Trazado 873828" transform="translate(511.051 7407)" fill="#bce0fc">
        <path d="M 31.70703125 61.4140625 C 27.69572067260742 61.4140625 23.80547142028809 60.62889099121094 20.14433097839355 59.08036041259766 C 16.60707092285156 57.58423233032227 13.42987155914307 55.44195938110352 10.7009916305542 52.71308135986328 C 7.972101211547852 49.98419189453125 5.829841136932373 46.80699157714844 4.333701133728027 43.26974105834961 C 2.785171270370483 39.60859298706055 2.000001192092896 35.71834182739258 2.000001192092896 31.70703125 C 2.000001192092896 27.69573211669922 2.785171270370483 23.80547142028809 4.333701133728027 20.14433097839355 C 5.829841136932373 16.60707092285156 7.972101211547852 13.42987155914307 10.7009916305542 10.7009916305542 C 13.42987155914307 7.972101211547852 16.60707092285156 5.829841136932373 20.14433097839355 4.333701133728027 C 23.80547142028809 2.785171270370483 27.69573211669922 2.000001192092896 31.70703125 2.000001192092896 C 35.71834182739258 2.000001192092896 39.60859298706055 2.785171270370483 43.26974105834961 4.333701133728027 C 46.80699157714844 5.829841136932373 49.98419189453125 7.972101211547852 52.71308135986328 10.7009916305542 C 55.44195938110352 13.42987155914307 57.58423233032227 16.60707092285156 59.08036041259766 20.14433097839355 C 60.62889099121094 23.80547142028809 61.4140625 27.69572067260742 61.4140625 31.70703125 C 61.4140625 35.71834182739258 60.62889099121094 39.60859298706055 59.08036041259766 43.26974105834961 C 57.58423233032227 46.80699157714844 55.44195938110352 49.98419189453125 52.71308135986328 52.71308135986328 C 49.98419189453125 55.44195938110352 46.80699157714844 57.58423233032227 43.26974105834961 59.08036041259766 C 39.60859298706055 60.62889099121094 35.71834182739258 61.4140625 31.70703125 61.4140625 Z" stroke="none"/>
        <path d="M 31.70703125 3.999996185302734 C 27.96484375 3.999996185302734 24.33671188354492 4.732006072998047 20.92343139648438 6.175712585449219 C 17.62457275390625 7.571006774902344 14.66105651855469 9.569347381591797 12.11519622802734 12.11519622802734 C 9.569347381591797 14.66105651855469 7.571006774902344 17.62457275390625 6.175712585449219 20.92343139648438 C 4.732006072998047 24.33671188354492 3.999996185302734 27.96484375 3.999996185302734 31.70703125 C 3.999996185302734 35.44921875 4.732006072998047 39.07734680175781 6.175712585449219 42.49063110351562 C 7.571006774902344 45.78948974609375 9.5693359375 48.75300598144531 12.11519622802734 51.29886627197266 C 14.66105651855469 53.8447265625 17.62457275390625 55.84305572509766 20.92343139648438 57.23834991455078 C 24.33671188354492 58.68205642700195 27.96484375 59.41406631469727 31.70703125 59.41406631469727 C 35.44921875 59.41406631469727 39.07734680175781 58.68205642700195 42.49063110351562 57.23834991455078 C 45.78948974609375 55.84305572509766 48.75300598144531 53.8447265625 51.29886627197266 51.29886627197266 C 53.8447265625 48.75300598144531 55.84305572509766 45.78948974609375 57.23834991455078 42.49063110351562 C 58.68205642700195 39.07734680175781 59.41406631469727 35.44921875 59.41406631469727 31.70703125 C 59.41406631469727 27.96484375 58.68205642700195 24.33671188354492 57.23834991455078 20.92343139648438 C 55.84305572509766 17.62457275390625 53.8447265625 14.66105651855469 51.29886627197266 12.11519622802734 C 48.75300598144531 9.5693359375 45.78948974609375 7.571006774902344 42.49063110351562 6.175712585449219 C 39.07734680175781 4.732006072998047 35.44921875 3.999996185302734 31.70703125 3.999996185302734 M 31.70703125 -3.814697265625e-06 C 49.21834945678711 -3.814697265625e-06 63.41406631469727 14.19572448730469 63.41406631469727 31.70703125 C 63.41406631469727 49.21834945678711 49.21834945678711 63.41406631469727 31.70703125 63.41406631469727 C 14.19572448730469 63.41406631469727 -3.814697265625e-06 49.21834945678711 -3.814697265625e-06 31.70703125 C -3.814697265625e-06 14.19572448730469 14.19572448730469 -3.814697265625e-06 31.70703125 -3.814697265625e-06 Z" stroke="none"/>
      </g>
      <g transform="matrix(1, 0, 0, 1, 502.05, 7401)" filter="url(#Trazado_873828-2)">
        <g id="Trazado_873828-5" data-name="Trazado 873828" transform="translate(9 6)" fill="#fff">
          <path d="M 31.70703125 61.4140625 C 27.69572067260742 61.4140625 23.80547142028809 60.62889099121094 20.14433097839355 59.08036041259766 C 16.60707092285156 57.58423233032227 13.42987155914307 55.44195938110352 10.7009916305542 52.71308135986328 C 7.972101211547852 49.98419189453125 5.829841136932373 46.80699157714844 4.333701133728027 43.26974105834961 C 2.785171270370483 39.60859298706055 2.000001192092896 35.71834182739258 2.000001192092896 31.70703125 C 2.000001192092896 27.69573211669922 2.785171270370483 23.80547142028809 4.333701133728027 20.14433097839355 C 5.829841136932373 16.60707092285156 7.972101211547852 13.42987155914307 10.7009916305542 10.7009916305542 C 13.42987155914307 7.972101211547852 16.60707092285156 5.829841136932373 20.14433097839355 4.333701133728027 C 23.80547142028809 2.785171270370483 27.69573211669922 2.000001192092896 31.70703125 2.000001192092896 C 35.71834182739258 2.000001192092896 39.60859298706055 2.785171270370483 43.26974105834961 4.333701133728027 C 46.80699157714844 5.829841136932373 49.98419189453125 7.972101211547852 52.71308135986328 10.7009916305542 C 55.44195938110352 13.42987155914307 57.58423233032227 16.60707092285156 59.08036041259766 20.14433097839355 C 60.62889099121094 23.80547142028809 61.4140625 27.69572067260742 61.4140625 31.70703125 C 61.4140625 35.71834182739258 60.62889099121094 39.60859298706055 59.08036041259766 43.26974105834961 C 57.58423233032227 46.80699157714844 55.44195938110352 49.98419189453125 52.71308135986328 52.71308135986328 C 49.98419189453125 55.44195938110352 46.80699157714844 57.58423233032227 43.26974105834961 59.08036041259766 C 39.60859298706055 60.62889099121094 35.71834182739258 61.4140625 31.70703125 61.4140625 Z" stroke="none"/>
          <path d="M 31.70703125 3.999996185302734 C 27.96484375 3.999996185302734 24.33671188354492 4.732006072998047 20.92343139648438 6.175712585449219 C 17.62457275390625 7.571006774902344 14.66105651855469 9.569347381591797 12.11519622802734 12.11519622802734 C 9.569347381591797 14.66105651855469 7.571006774902344 17.62457275390625 6.175712585449219 20.92343139648438 C 4.732006072998047 24.33671188354492 3.999996185302734 27.96484375 3.999996185302734 31.70703125 C 3.999996185302734 35.44921875 4.732006072998047 39.07734680175781 6.175712585449219 42.49063110351562 C 7.571006774902344 45.78948974609375 9.5693359375 48.75300598144531 12.11519622802734 51.29886627197266 C 14.66105651855469 53.8447265625 17.62457275390625 55.84305572509766 20.92343139648438 57.23834991455078 C 24.33671188354492 58.68205642700195 27.96484375 59.41406631469727 31.70703125 59.41406631469727 C 35.44921875 59.41406631469727 39.07734680175781 58.68205642700195 42.49063110351562 57.23834991455078 C 45.78948974609375 55.84305572509766 48.75300598144531 53.8447265625 51.29886627197266 51.29886627197266 C 53.8447265625 48.75300598144531 55.84305572509766 45.78948974609375 57.23834991455078 42.49063110351562 C 58.68205642700195 39.07734680175781 59.41406631469727 35.44921875 59.41406631469727 31.70703125 C 59.41406631469727 27.96484375 58.68205642700195 24.33671188354492 57.23834991455078 20.92343139648438 C 55.84305572509766 17.62457275390625 53.8447265625 14.66105651855469 51.29886627197266 12.11519622802734 C 48.75300598144531 9.5693359375 45.78948974609375 7.571006774902344 42.49063110351562 6.175712585449219 C 39.07734680175781 4.732006072998047 35.44921875 3.999996185302734 31.70703125 3.999996185302734 M 31.70703125 -3.814697265625e-06 C 49.21834945678711 -3.814697265625e-06 63.41406631469727 14.19572448730469 63.41406631469727 31.70703125 C 63.41406631469727 49.21834945678711 49.21834945678711 63.41406631469727 31.70703125 63.41406631469727 C 14.19572448730469 63.41406631469727 -3.814697265625e-06 49.21834945678711 -3.814697265625e-06 31.70703125 C -3.814697265625e-06 14.19572448730469 14.19572448730469 -3.814697265625e-06 31.70703125 -3.814697265625e-06 Z" stroke="none"/>
        </g>
      </g>
      <g id="Trazado_873828-6" data-name="Trazado 873828" transform="translate(511.051 7407)" fill="none">
        <path d="M 31.70703125 61.4140625 C 27.69572067260742 61.4140625 23.80547142028809 60.62889099121094 20.14433097839355 59.08036041259766 C 16.60707092285156 57.58423233032227 13.42987155914307 55.44195938110352 10.7009916305542 52.71308135986328 C 7.972101211547852 49.98419189453125 5.829841136932373 46.80699157714844 4.333701133728027 43.26974105834961 C 2.785171270370483 39.60859298706055 2.000001192092896 35.71834182739258 2.000001192092896 31.70703125 C 2.000001192092896 27.69573211669922 2.785171270370483 23.80547142028809 4.333701133728027 20.14433097839355 C 5.829841136932373 16.60707092285156 7.972101211547852 13.42987155914307 10.7009916305542 10.7009916305542 C 13.42987155914307 7.972101211547852 16.60707092285156 5.829841136932373 20.14433097839355 4.333701133728027 C 23.80547142028809 2.785171270370483 27.69573211669922 2.000001192092896 31.70703125 2.000001192092896 C 35.71834182739258 2.000001192092896 39.60859298706055 2.785171270370483 43.26974105834961 4.333701133728027 C 46.80699157714844 5.829841136932373 49.98419189453125 7.972101211547852 52.71308135986328 10.7009916305542 C 55.44195938110352 13.42987155914307 57.58423233032227 16.60707092285156 59.08036041259766 20.14433097839355 C 60.62889099121094 23.80547142028809 61.4140625 27.69572067260742 61.4140625 31.70703125 C 61.4140625 35.71834182739258 60.62889099121094 39.60859298706055 59.08036041259766 43.26974105834961 C 57.58423233032227 46.80699157714844 55.44195938110352 49.98419189453125 52.71308135986328 52.71308135986328 C 49.98419189453125 55.44195938110352 46.80699157714844 57.58423233032227 43.26974105834961 59.08036041259766 C 39.60859298706055 60.62889099121094 35.71834182739258 61.4140625 31.70703125 61.4140625 Z" stroke="none"/>
        <path d="M 31.70703125 3.999996185302734 C 27.96484375 3.999996185302734 24.33671188354492 4.732006072998047 20.92343139648438 6.175712585449219 C 17.62457275390625 7.571006774902344 14.66105651855469 9.569347381591797 12.11519622802734 12.11519622802734 C 9.569347381591797 14.66105651855469 7.571006774902344 17.62457275390625 6.175712585449219 20.92343139648438 C 4.732006072998047 24.33671188354492 3.999996185302734 27.96484375 3.999996185302734 31.70703125 C 3.999996185302734 35.44921875 4.732006072998047 39.07734680175781 6.175712585449219 42.49063110351562 C 7.571006774902344 45.78948974609375 9.5693359375 48.75300598144531 12.11519622802734 51.29886627197266 C 14.66105651855469 53.8447265625 17.62457275390625 55.84305572509766 20.92343139648438 57.23834991455078 C 24.33671188354492 58.68205642700195 27.96484375 59.41406631469727 31.70703125 59.41406631469727 C 35.44921875 59.41406631469727 39.07734680175781 58.68205642700195 42.49063110351562 57.23834991455078 C 45.78948974609375 55.84305572509766 48.75300598144531 53.8447265625 51.29886627197266 51.29886627197266 C 53.8447265625 48.75300598144531 55.84305572509766 45.78948974609375 57.23834991455078 42.49063110351562 C 58.68205642700195 39.07734680175781 59.41406631469727 35.44921875 59.41406631469727 31.70703125 C 59.41406631469727 27.96484375 58.68205642700195 24.33671188354492 57.23834991455078 20.92343139648438 C 55.84305572509766 17.62457275390625 53.8447265625 14.66105651855469 51.29886627197266 12.11519622802734 C 48.75300598144531 9.5693359375 45.78948974609375 7.571006774902344 42.49063110351562 6.175712585449219 C 39.07734680175781 4.732006072998047 35.44921875 3.999996185302734 31.70703125 3.999996185302734 M 31.70703125 -3.814697265625e-06 C 49.21834945678711 -3.814697265625e-06 63.41406631469727 14.19572448730469 63.41406631469727 31.70703125 C 63.41406631469727 49.21834945678711 49.21834945678711 63.41406631469727 31.70703125 63.41406631469727 C 14.19572448730469 63.41406631469727 -3.814697265625e-06 49.21834945678711 -3.814697265625e-06 31.70703125 C -3.814697265625e-06 14.19572448730469 14.19572448730469 -3.814697265625e-06 31.70703125 -3.814697265625e-06 Z" stroke="none" fill="#fff"/>
      </g>
    </g>
    <g id="Grupo_1114520" data-name="Grupo 1114520" transform="translate(524.051 7419.985)">
      <path id="Trazado_907670" data-name="Trazado 907670" d="M32.052,20V43.117A1.156,1.156,0,0,1,30.9,44.273H3.156A1.156,1.156,0,0,1,2,43.117V21.156A1.156,1.156,0,0,1,3.156,20Z" transform="translate(-0.422 -8.013)" fill="#e2e7f6"/>
      <path id="Trazado_907671" data-name="Trazado 907671" d="M3.156,20A1.156,1.156,0,0,0,2,21.156V41.961H28.585a1.156,1.156,0,0,0,1.156-1.156V20Z" transform="translate(-0.422 -8.013)" fill="#f2f2f2"/>
      <circle id="Elipse_12787" data-name="Elipse 12787" cx="8.091" cy="8.091" r="8.091" transform="translate(20.072 1.584)" fill="#686868"/>
      <path id="Trazado_907672" data-name="Trazado 907672" d="M49.406,23.044a8.091,8.091,0,0,1-10.4,0,5.2,5.2,0,0,1,10.4,0Z" transform="translate(-16.042 -7.169)" fill="#b5b5b5"/>
      <circle id="Elipse_12788" data-name="Elipse 12788" cx="3.468" cy="3.468" r="3.468" transform="translate(24.695 3.896)" fill="#f2b9a1"/>
      <path id="Trazado_907673" data-name="Trazado 907673" d="M6,54H31.429v2.312H6Z" transform="translate(-2.11 -22.363)" fill="#3b5892"/>
      <path id="Trazado_907674" data-name="Trazado 907674" d="M6,54v1.156H29.7a.578.578,0,0,0,.578-.578V54Z" transform="translate(-2.11 -22.363)" fill="#4c6cb5"/>
      <path id="Trazado_907675" data-name="Trazado 907675" d="M6,41.338V24H8.312V41.338" transform="translate(-2.11 -9.701)" fill="#5e87ca"/>
      <path id="Trazado_907676" data-name="Trazado 907676" d="M7.156,39.6V24H6V40.182h.578A.578.578,0,0,0,7.156,39.6Z" transform="translate(-2.11 -9.701)" fill="#78a0d4"/>
      <path id="Trazado_907677" data-name="Trazado 907677" d="M16,49.779V44h3.468v5.779" transform="translate(-6.331 -18.143)" fill="#f9d266"/>
      <path id="Trazado_907678" data-name="Trazado 907678" d="M17.734,48.045V44H16v4.623h1.156A.578.578,0,0,0,17.734,48.045Z" transform="translate(-6.331 -18.143)" fill="#fce797"/>
      <path id="Trazado_907679" data-name="Trazado 907679" d="M26,47.247V38h3.468v9.247" transform="translate(-10.552 -15.61)" fill="#f6b940"/>
      <path id="Trazado_907680" data-name="Trazado 907680" d="M27.734,45.513V38H26v8.091h1.156A.578.578,0,0,0,27.734,45.513Z" transform="translate(-10.552 -15.61)" fill="#f9d266"/>
      <path id="Trazado_907681" data-name="Trazado 907681" d="M36,44.714V32h3.468V44.714" transform="translate(-14.773 -13.078)" fill="#f4a93c"/>
      <path id="Trazado_907682" data-name="Trazado 907682" d="M37.734,42.981V32H36V43.559h1.156A.578.578,0,0,0,37.734,42.981Z" transform="translate(-14.773 -13.078)" fill="#f6b940"/>
      <path id="Trazado_907683" data-name="Trazado 907683" d="M26.371,26H24.059v1.156h.917L23.481,28.65l-1.325-1.325a.578.578,0,0,0-.817,0l-4.045,4.045.817.817,3.637-3.637,1.325,1.325a.578.578,0,0,0,.817,0l1.9-1.9v.917h1.156V26.578A.578.578,0,0,0,26.371,26Z" transform="translate(-6.877 -10.545)" fill="#93bee5"/>
      <path id="Trazado_907684" data-name="Trazado 907684" d="M44.23,18a5.2,5.2,0,0,0-5.163,4.585h4.007a1.156,1.156,0,0,0,1.156-1.156Z" transform="translate(-16.067 -7.169)" fill="#ccc"/>
      <path id="Trazado_907685" data-name="Trazado 907685" d="M42,9.468a3.468,3.468,0,0,0,3.468,3.468V6A3.468,3.468,0,0,0,42,9.468Z" transform="translate(-17.305 -2.104)" fill="#fbe1ca"/>
      <path id="Trazado_907686" data-name="Trazado 907686" d="M36.832,9.675a8.669,8.669,0,1,0-17.164,1.734H2.734A1.734,1.734,0,0,0,1,13.143V35.1a1.734,1.734,0,0,0,1.734,1.734H30.474A1.734,1.734,0,0,0,32.208,35.1V17.336a8.673,8.673,0,0,0,4.623-7.661ZM28.163,2.162a7.5,7.5,0,0,1,5.606,12.5,5.8,5.8,0,0,0-3.343-3.943,4.045,4.045,0,1,0-4.525,0,5.8,5.8,0,0,0-3.343,3.943,7.5,7.5,0,0,1,5.606-12.5Zm-2.89,5.2a2.89,2.89,0,1,1,2.89,2.89,2.89,2.89,0,0,1-2.89-2.89ZM32.764,15.6a7.465,7.465,0,0,1-9.2,0,4.623,4.623,0,0,1,9.2,0ZM31.052,35.1a.578.578,0,0,1-.578.578H2.734a.578.578,0,0,1-.578-.578V13.143a.578.578,0,0,1,.578-.578H20a8.626,8.626,0,0,0,11.053,5.274Z" transform="translate(0 0)"/>
      <path id="Trazado_907687" data-name="Trazado 907687" d="M26.961,28.2a.578.578,0,0,0-.578-.578H22.916a.578.578,0,0,0-.578.578V40.338H21.182V31.669a.578.578,0,0,0-.578-.578H17.136a.578.578,0,0,0-.578.578v8.669H15.4v-5.2a.578.578,0,0,0-.578-.578H11.357a.578.578,0,0,0-.578.578v5.2H8.468V23.578A.578.578,0,0,0,7.89,23H5.578A.578.578,0,0,0,5,23.578v19.65a.578.578,0,0,0,.578.578H31.007a.578.578,0,0,0,.578-.578V40.916a.578.578,0,0,0-.578-.578H26.961Zm-3.468.578h2.312V40.338H23.494Zm-5.779,3.468h2.312v8.091H17.714Zm-5.779,3.468h2.312v4.623H11.935ZM7.312,24.156V40.338H6.156V24.156ZM30.429,42.65H6.156V41.494H30.429Z" transform="translate(-1.688 -9.279)"/>
      <path id="Trazado_907688" data-name="Trazado 907688" d="M21.747,28.551l1.325,1.325a.578.578,0,0,0,.817,0l1.9-1.9v.917h1.156V26.578A.578.578,0,0,0,26.371,26H24.059v1.156h.917L23.481,28.65l-1.325-1.325a.578.578,0,0,0-.817,0l-4.045,4.045.817.817Z" transform="translate(-6.877 -10.545)"/>
    </g>
  </g>
</svg>
