<svg xmlns="http://www.w3.org/2000/svg" width="325.949" height="124.094" viewBox="0 0 325.949 124.094">
  <g id="Grupo_1114739" data-name="Grupo 1114739" transform="translate(-799.102 -9600.816)">
    <path id="Trazado_908198" data-name="Trazado 908198" d="M0,0H314.949V116.094H0Z" transform="translate(810.102 9608.816)" fill="#bce0fc"/>
    <g id="Trazado_908199" data-name="Trazado 908199" transform="translate(799.102 9600.816)" fill="#fbfbf9">
      <path d="M 321.6992492675781 117.84375 L 0.2500260472297668 117.84375 L 0.2500260472297668 0.25 L 321.6992492675781 0.25 L 321.6992492675781 117.84375 Z" stroke="none"/>
      <path d="M 0.499969482421875 0.5 L 0.499969482421875 117.59375 L 321.4491882324219 117.59375 L 321.4491882324219 0.5 L 0.499969482421875 0.5 M -3.0517578125e-05 0 L 321.9491882324219 0 L 321.9491882324219 118.09375 L -3.0517578125e-05 118.09375 L -3.0517578125e-05 0 Z" stroke="none" fill="#000"/>
    </g>
    <path id="Trazado_908200" data-name="Trazado 908200" d="M41.746,10.07V15H40.207V3.633H44.1a4.32,4.32,0,0,1,2.852.828,2.968,2.968,0,0,1,.984,2.406,2.576,2.576,0,0,1-.457,1.523,3.1,3.1,0,0,1-1.332,1.031,2.331,2.331,0,0,1,1.348.988A3.236,3.236,0,0,1,47.9,12.1v1.07a3.564,3.564,0,0,0,.117.953,1.429,1.429,0,0,0,.406.688V15H46.84a1.273,1.273,0,0,1-.391-.781,6.453,6.453,0,0,1-.086-1.062V12.117a2.056,2.056,0,0,0-.539-1.484,1.908,1.908,0,0,0-1.445-.562Zm0-1.211h2.2a2.858,2.858,0,0,0,1.879-.5,1.89,1.89,0,0,0,.574-1.512,1.948,1.948,0,0,0-.559-1.488A2.461,2.461,0,0,0,44.1,4.836H41.746ZM55.371,15q-.078-.383-.121-.676a4.96,4.96,0,0,1-.051-.59,3.589,3.589,0,0,1-1.121,1.02,2.867,2.867,0,0,1-1.488.41,2.763,2.763,0,0,1-2.012-.676,2.486,2.486,0,0,1-.691-1.863,2.183,2.183,0,0,1,.98-1.895,4.579,4.579,0,0,1,2.66-.684H55.2V9.211a1.551,1.551,0,0,0-.453-1.176A1.779,1.779,0,0,0,53.465,7.6a1.859,1.859,0,0,0-1.211.375,1.125,1.125,0,0,0-.461.9l-1.461.016-.016-.047a2.023,2.023,0,0,1,.863-1.687,3.578,3.578,0,0,1,2.371-.766,3.49,3.49,0,0,1,2.313.73,2.588,2.588,0,0,1,.875,2.105V13.3a7.923,7.923,0,0,0,.047.875,4.5,4.5,0,0,0,.172.828Zm-2.555-1.125a2.739,2.739,0,0,0,1.508-.43,2.042,2.042,0,0,0,.875-.984V11.086H53.473a2.24,2.24,0,0,0-1.488.469,1.4,1.4,0,0,0-.559,1.1,1.159,1.159,0,0,0,.352.891A1.472,1.472,0,0,0,52.816,13.875Zm7.609-.078h4.883V15H58.59V13.922l4.57-6.156H58.645V6.547h6.4V7.594Zm6.109-3.1a4.654,4.654,0,0,1,1.016-3.09,3.764,3.764,0,0,1,5.535,0,4.639,4.639,0,0,1,1.02,3.094v.172a4.631,4.631,0,0,1-1.016,3.094,3.781,3.781,0,0,1-5.535,0,4.623,4.623,0,0,1-1.02-3.09Zm1.539.172a4.009,4.009,0,0,0,.566,2.219,2.046,2.046,0,0,0,3.355,0,3.988,3.988,0,0,0,.57-2.219V10.7a3.976,3.976,0,0,0-.574-2.211A1.882,1.882,0,0,0,70.309,7.6a1.856,1.856,0,0,0-1.668.883,4.018,4.018,0,0,0-.566,2.211Zm2.992-7.906h1.8l.016.047-2.1,2.031H69.621Zm6.3,3.586L77.473,7.8a3.069,3.069,0,0,1,1.059-1.043,2.824,2.824,0,0,1,1.449-.371,2.759,2.759,0,0,1,2.117.8,3.515,3.515,0,0,1,.75,2.473V15H81.309V9.7a2.287,2.287,0,0,0-.441-1.586,1.768,1.768,0,0,0-1.348-.469,2.386,2.386,0,0,0-1.207.285,2.072,2.072,0,0,0-.785.8V15H75.988V6.547Zm15.055,7.414a1.81,1.81,0,0,0,1.242-.473,1.494,1.494,0,0,0,.531-1.16h1.391l.023.047a2.428,2.428,0,0,1-.937,1.941,3.582,3.582,0,0,1-5-.363,4.674,4.674,0,0,1-.969-3.016v-.328a4.654,4.654,0,0,1,.973-3,3.317,3.317,0,0,1,2.746-1.215,3.189,3.189,0,0,1,2.316.875,2.775,2.775,0,0,1,.871,2.148l-.016.047h-1.4a1.865,1.865,0,0,0-.5-1.316,1.658,1.658,0,0,0-1.27-.543,1.777,1.777,0,0,0-1.652.879,4.114,4.114,0,0,0-.52,2.129v.328a4.192,4.192,0,0,0,.512,2.148A1.776,1.776,0,0,0,92.418,13.961ZM99.1,15H97.559V6.547H99.1Zm0-10.617H97.559V2.813H99.1Zm6.367,3.523-.789-.047a1.762,1.762,0,0,0-1.027.289,1.854,1.854,0,0,0-.645.813V15h-1.539V6.547h1.375l.148,1.234a2.934,2.934,0,0,1,.887-1.023,2.073,2.073,0,0,1,1.215-.367,1.9,1.9,0,0,1,.328.027,2.175,2.175,0,0,1,.258.059Zm4.813,6.055a1.81,1.81,0,0,0,1.242-.473,1.494,1.494,0,0,0,.531-1.16h1.391l.023.047a2.428,2.428,0,0,1-.937,1.941,3.582,3.582,0,0,1-5-.363,4.674,4.674,0,0,1-.969-3.016v-.328a4.654,4.654,0,0,1,.973-3,3.317,3.317,0,0,1,2.746-1.215,3.189,3.189,0,0,1,2.316.875,2.775,2.775,0,0,1,.871,2.148l-.016.047h-1.4a1.865,1.865,0,0,0-.5-1.316,1.658,1.658,0,0,0-1.27-.543,1.777,1.777,0,0,0-1.652.879,4.114,4.114,0,0,0-.52,2.129v.328a4.192,4.192,0,0,0,.512,2.148A1.776,1.776,0,0,0,110.277,13.961Zm10.383-.211a2.863,2.863,0,0,1-1.023,1.047,2.8,2.8,0,0,1-1.445.367,2.716,2.716,0,0,1-2.156-.883,4.1,4.1,0,0,1-.773-2.75V6.547H116.8v5a3.147,3.147,0,0,0,.4,1.859,1.481,1.481,0,0,0,1.242.508,2.531,2.531,0,0,0,1.355-.332,2.077,2.077,0,0,0,.809-.941V6.547h1.539V15h-1.383ZM126.051,15h-1.539V2.813h1.539Zm7.563,0q-.078-.383-.121-.676a4.96,4.96,0,0,1-.051-.59,3.588,3.588,0,0,1-1.121,1.02,2.867,2.867,0,0,1-1.488.41,2.763,2.763,0,0,1-2.012-.676,2.486,2.486,0,0,1-.691-1.863,2.183,2.183,0,0,1,.98-1.895,4.579,4.579,0,0,1,2.66-.684h1.672V9.211a1.551,1.551,0,0,0-.453-1.176,1.779,1.779,0,0,0-1.281-.434,1.859,1.859,0,0,0-1.211.375,1.125,1.125,0,0,0-.461.9l-1.461.016-.016-.047a2.023,2.023,0,0,1,.863-1.687,3.578,3.578,0,0,1,2.371-.766,3.49,3.49,0,0,1,2.313.73,2.588,2.588,0,0,1,.875,2.105V13.3a7.923,7.923,0,0,0,.047.875A4.5,4.5,0,0,0,135.2,15Zm-2.555-1.125a2.739,2.739,0,0,0,1.508-.43,2.042,2.042,0,0,0,.875-.984V11.086h-1.727a2.24,2.24,0,0,0-1.488.469,1.4,1.4,0,0,0-.559,1.1,1.159,1.159,0,0,0,.352.891A1.472,1.472,0,0,0,131.059,13.875Zm7.531-7.328L138.7,7.8a3.069,3.069,0,0,1,1.059-1.043,2.824,2.824,0,0,1,1.449-.371,2.759,2.759,0,0,1,2.117.8,3.515,3.515,0,0,1,.75,2.473V15h-1.539V9.7a2.287,2.287,0,0,0-.441-1.586,1.768,1.768,0,0,0-1.348-.469,2.386,2.386,0,0,0-1.207.285,2.072,2.072,0,0,0-.785.8V15h-1.539V6.547Zm9.859-2.039V6.547h1.6V7.688h-1.6V12.82a1.149,1.149,0,0,0,.246.836.89.89,0,0,0,.652.242,1.429,1.429,0,0,0,.3-.035,2.2,2.2,0,0,0,.273-.074l.211,1.055a1.36,1.36,0,0,1-.508.23,2.562,2.562,0,0,1-.664.09,1.993,1.993,0,0,1-1.492-.566,2.46,2.46,0,0,1-.555-1.777V7.688h-1.344V6.547h1.344V4.508Zm6.75,10.656A3.576,3.576,0,0,1,152.359,14a4.48,4.48,0,0,1-1.02-3.062v-.344a4.386,4.386,0,0,1,1.051-3.012,3.3,3.3,0,0,1,2.566-1.191A3.067,3.067,0,0,1,157.5,7.445a4.345,4.345,0,0,1,.848,2.8v.813h-5.406l-.023.039a3.494,3.494,0,0,0,.563,2.066,1.965,1.965,0,0,0,1.719.793,3.872,3.872,0,0,0,1.371-.223,3.061,3.061,0,0,0,1.012-.613l.6,1a3.7,3.7,0,0,1-1.2.738A4.762,4.762,0,0,1,155.2,15.164ZM154.957,7.6a1.673,1.673,0,0,0-1.332.621,2.938,2.938,0,0,0-.645,1.59l.016.039h3.813V9.727a2.462,2.462,0,0,0-.453-1.523A1.638,1.638,0,0,0,154.957,7.6Zm15.68.969h-6.516V7.289h6.516Zm0,3.25h-6.516V10.539h6.516ZM181.465,15h-1.547V5.047l-2.477.023V3.883l4.023-.422Zm5.922-.375-1.172,2.391H185.3l.547-2.469V13.273h1.539Zm8.93.375h-7.062V13.945l3.57-4.258a10.726,10.726,0,0,0,1.293-1.84,3.07,3.07,0,0,0,.34-1.379A1.841,1.841,0,0,0,194,5.176a1.639,1.639,0,0,0-1.273-.5,1.908,1.908,0,0,0-1.535.617,2.286,2.286,0,0,0-.527,1.539h-1.484l-.016-.047a3.068,3.068,0,0,1,.93-2.355,3.566,3.566,0,0,1,2.633-.965,3.31,3.31,0,0,1,2.4.844A2.894,2.894,0,0,1,196,6.484a3.476,3.476,0,0,1-.5,1.758,19.614,19.614,0,0,1-1.512,2.156l-2.867,3.359.016.039h5.18Zm5.3-6.469a1.8,1.8,0,0,0,1.457-.512,2.179,2.179,0,0,0,.426-1.434,2.02,2.02,0,0,0-.465-1.387,1.741,1.741,0,0,0-1.379-.527,2.057,2.057,0,0,0-1.473.551A1.819,1.819,0,0,0,199.6,6.6h-1.469l-.023-.047a2.718,2.718,0,0,1,.969-2.187,3.709,3.709,0,0,1,2.578-.906,3.6,3.6,0,0,1,2.484.8,2.991,2.991,0,0,1,.9,2.355,2.65,2.65,0,0,1-.418,1.453,2.818,2.818,0,0,1-1.168,1.023,2.688,2.688,0,0,1,1.309,1.043,3.063,3.063,0,0,1,.449,1.691,3.122,3.122,0,0,1-.988,2.449,3.7,3.7,0,0,1-2.566.887,4.064,4.064,0,0,1-2.559-.855,2.62,2.62,0,0,1-1.066-2.262l.016-.047h1.469a1.846,1.846,0,0,0,.6,1.395,2.152,2.152,0,0,0,1.543.566,1.914,1.914,0,0,0,1.477-.582,2.147,2.147,0,0,0,.539-1.52,2.273,2.273,0,0,0-.5-1.6,2.041,2.041,0,0,0-1.559-.531h-1.266v-1.2Z" transform="translate(839.102 9680.816)" fill="#12263f"/>
    <path id="Trazado_908201" data-name="Trazado 908201" d="M11.965,10.07,11.23,15H9.691l1.7-11.367h3.891a3.818,3.818,0,0,1,2.691.836,2.561,2.561,0,0,1,.66,2.4,3.006,3.006,0,0,1-.7,1.559,3.738,3.738,0,0,1-1.5,1,1.987,1.987,0,0,1,1.2,1,2.88,2.88,0,0,1,.188,1.668l-.164,1.07a3.317,3.317,0,0,0-.027.965,1.206,1.206,0,0,0,.309.676L17.91,15H16.324a1.072,1.072,0,0,1-.273-.773,7.006,7.006,0,0,1,.07-1.07l.156-1.039a1.849,1.849,0,0,0-.309-1.5,1.667,1.667,0,0,0-1.363-.543Zm.18-1.211h2.2a3.157,3.157,0,0,0,1.922-.5,2.214,2.214,0,0,0,.828-1.5,1.741,1.741,0,0,0-.324-1.5,2.21,2.21,0,0,0-1.668-.512H12.754ZM24.855,15q-.016-.438-.016-.707a4.986,4.986,0,0,1,.031-.551,4.564,4.564,0,0,1-1.277,1.012,3.193,3.193,0,0,1-1.543.41,2.41,2.41,0,0,1-1.887-.684,2.155,2.155,0,0,1-.434-1.855,2.584,2.584,0,0,1,1.25-1.914,5.194,5.194,0,0,1,2.773-.664h1.672l.125-.836a1.369,1.369,0,0,0-.27-1.191A1.593,1.593,0,0,0,24.059,7.6a2.134,2.134,0,0,0-1.25.375,1.3,1.3,0,0,0-.609.9l-1.469.016-.008-.047A2.422,2.422,0,0,1,21.84,7.137a4.1,4.1,0,0,1,2.484-.746,3.053,3.053,0,0,1,2.172.738,2.258,2.258,0,0,1,.594,2.1L26.48,13.3a6.686,6.686,0,0,0-.09.887,4.511,4.511,0,0,0,.051.816Zm-2.383-1.125a3.032,3.032,0,0,0,1.547-.437,2.613,2.613,0,0,0,1.039-.984l.211-1.367H23.543A2.54,2.54,0,0,0,22,11.563a1.651,1.651,0,0,0-.734,1.094,1.011,1.011,0,0,0,.207.9A1.341,1.341,0,0,0,22.473,13.875Zm7.656-.117.016.039h4.828l-.18,1.2H28.074l.164-1.078L33.691,7.8l-.016-.039H29.215l.18-1.219h6.4l-.156,1.047ZM36.668,10.7A5.387,5.387,0,0,1,38.141,7.57a4,4,0,0,1,2.941-1.18,2.942,2.942,0,0,1,2.559,1.223,4.1,4.1,0,0,1,.6,3.082l-.031.172A5.4,5.4,0,0,1,42.73,14a4.018,4.018,0,0,1-2.945,1.168,2.945,2.945,0,0,1-2.559-1.219,4.063,4.063,0,0,1-.59-3.078Zm1.508.172a3.681,3.681,0,0,0,.227,2.242,1.6,1.6,0,0,0,1.563.852,2.211,2.211,0,0,0,1.777-.887,4.5,4.5,0,0,0,.926-2.207L42.7,10.7a3.683,3.683,0,0,0-.238-2.234A1.6,1.6,0,0,0,40.9,7.6a2.212,2.212,0,0,0-1.785.895,4.425,4.425,0,0,0-.91,2.2Zm4.1-7.906h1.789l.016.047L41.691,5.039h-1.1L40.574,5Zm5.766,4.8A3.653,3.653,0,0,1,49.25,6.746a3.241,3.241,0,0,1,1.5-.355,2.384,2.384,0,0,1,1.973.809,3.111,3.111,0,0,1,.4,2.465L52.332,15H50.793l.8-5.3a2.11,2.11,0,0,0-.2-1.605,1.585,1.585,0,0,0-1.289-.449,2.518,2.518,0,0,0-1.234.3,2.729,2.729,0,0,0-.922.832L47.012,15H45.473l1.266-8.453h1.375Zm14.016,6.2a2.076,2.076,0,0,0,1.293-.477,1.8,1.8,0,0,0,.723-1.156h1.391l.016.047a2.885,2.885,0,0,1-1.223,1.965,3.838,3.838,0,0,1-2.379.824,2.837,2.837,0,0,1-2.527-1.223,4.112,4.112,0,0,1-.559-3l.047-.328a5.417,5.417,0,0,1,1.422-3.035,3.89,3.89,0,0,1,2.93-1.184,2.769,2.769,0,0,1,2.164.883,2.407,2.407,0,0,1,.57,2.148l-.016.039H64.5a1.676,1.676,0,0,0-.3-1.332,1.429,1.429,0,0,0-1.2-.527,2.118,2.118,0,0,0-1.766.895,4.517,4.517,0,0,0-.859,2.113l-.047.328a3.852,3.852,0,0,0,.18,2.168A1.514,1.514,0,0,0,62.059,13.961ZM68.582,15H67.043l1.266-8.453h1.539ZM70.176,4.383H68.637l.234-1.57H70.41Zm5.836,3.523-.781-.047a1.9,1.9,0,0,0-1.062.3,2.49,2.49,0,0,0-.781.848L72.488,15H70.949l1.266-8.453H73.59l-.031,1.2a3.552,3.552,0,0,1,1.031-1,2.384,2.384,0,0,1,1.273-.355,1.923,1.923,0,0,1,.324.027,1.787,1.787,0,0,1,.254.059Zm3.906,6.055a2.076,2.076,0,0,0,1.293-.477,1.8,1.8,0,0,0,.723-1.156h1.391l.016.047a2.885,2.885,0,0,1-1.223,1.965,3.838,3.838,0,0,1-2.379.824,2.837,2.837,0,0,1-2.527-1.223,4.112,4.112,0,0,1-.559-3l.047-.328a5.417,5.417,0,0,1,1.422-3.035,3.89,3.89,0,0,1,2.93-1.184,2.769,2.769,0,0,1,2.164.883,2.407,2.407,0,0,1,.57,2.148l-.016.039H82.363a1.676,1.676,0,0,0-.3-1.332,1.429,1.429,0,0,0-1.2-.527,2.118,2.118,0,0,0-1.766.895,4.517,4.517,0,0,0-.859,2.113l-.047.328a3.852,3.852,0,0,0,.18,2.168A1.514,1.514,0,0,0,79.918,13.961ZM90.246,15l.086-1.211a3.446,3.446,0,0,1-1.176,1.023,3.209,3.209,0,0,1-1.5.352,2.33,2.33,0,0,1-2-.895,3.643,3.643,0,0,1-.383-2.738l.742-4.984h1.539l-.75,5a2.963,2.963,0,0,0,.109,1.883,1.311,1.311,0,0,0,1.18.484,2.606,2.606,0,0,0,2.367-1.328l.9-6.039h1.539L91.629,15Zm5.289,0H94L95.824,2.813h1.539Zm7.563,0q-.016-.438-.016-.707a4.986,4.986,0,0,1,.031-.551,4.564,4.564,0,0,1-1.277,1.012,3.193,3.193,0,0,1-1.543.41,2.41,2.41,0,0,1-1.887-.684,2.155,2.155,0,0,1-.434-1.855,2.584,2.584,0,0,1,1.25-1.914A5.194,5.194,0,0,1,102,10.047h1.672l.125-.836a1.369,1.369,0,0,0-.27-1.191A1.593,1.593,0,0,0,102.3,7.6a2.134,2.134,0,0,0-1.25.375,1.3,1.3,0,0,0-.609.9l-1.469.016-.008-.047a2.422,2.422,0,0,1,1.117-1.707,4.1,4.1,0,0,1,2.484-.746,3.053,3.053,0,0,1,2.172.738,2.258,2.258,0,0,1,.594,2.1l-.609,4.07a6.685,6.685,0,0,0-.09.887,4.511,4.511,0,0,0,.051.816Zm-2.383-1.125a3.032,3.032,0,0,0,1.547-.437,2.613,2.613,0,0,0,1.039-.984l.211-1.367h-1.727a2.54,2.54,0,0,0-1.547.477,1.651,1.651,0,0,0-.734,1.094,1.011,1.011,0,0,0,.207.9A1.341,1.341,0,0,0,100.715,13.875Zm8.555-6.117a3.653,3.653,0,0,1,1.207-1.012,3.241,3.241,0,0,1,1.5-.355,2.384,2.384,0,0,1,1.973.809,3.111,3.111,0,0,1,.4,2.465l-.8,5.336H112.02l.8-5.3a2.11,2.11,0,0,0-.2-1.605,1.585,1.585,0,0,0-1.289-.449,2.518,2.518,0,0,0-1.234.3,2.729,2.729,0,0,0-.922.832L108.238,15H106.7l1.266-8.453h1.375ZM119.5,4.508l-.3,2.039h1.6l-.172,1.141h-1.6l-.766,5.133a1.052,1.052,0,0,0,.113.848.793.793,0,0,0,.621.23,1.571,1.571,0,0,0,.3-.035,2.1,2.1,0,0,0,.285-.074l.055,1.055a1.634,1.634,0,0,1-.543.23,2.7,2.7,0,0,1-.676.09,1.735,1.735,0,0,1-1.395-.57,2.153,2.153,0,0,1-.3-1.773l.766-5.133h-1.344l.172-1.141h1.344l.3-2.039Zm5.156,10.656a3.069,3.069,0,0,1-2.629-1.18,3.934,3.934,0,0,1-.6-3.047l.055-.344a5.061,5.061,0,0,1,1.488-3.047,3.89,3.89,0,0,1,2.754-1.156,2.624,2.624,0,0,1,2.352,1.07,3.845,3.845,0,0,1,.461,2.789l-.117.813h-5.469a3.355,3.355,0,0,0,.266,2.121,1.7,1.7,0,0,0,1.617.777,4.177,4.177,0,0,0,1.395-.227,3.661,3.661,0,0,0,1.113-.609l.453,1a4.447,4.447,0,0,1-1.3.738A5.139,5.139,0,0,1,124.66,15.164Zm.891-7.562a1.948,1.948,0,0,0-1.4.625,3.561,3.561,0,0,0-.9,1.578l.016.047h3.8l.016-.125a2.256,2.256,0,0,0-.219-1.535A1.41,1.41,0,0,0,125.551,7.6Zm15.531.969h-6.516l.2-1.281h6.516Zm-.484,3.25h-6.516l.2-1.281h6.516Z" transform="translate(830.102 9629.816)" fill="#12263f"/>
    <path id="Trazado_908202" data-name="Trazado 908202" d="M10.359,12.063a1.478,1.478,0,0,0-.324-1.211,3.611,3.611,0,0,0-1.527-.875A4.768,4.768,0,0,1,6.3,8.7,2.542,2.542,0,0,1,5.8,6.578,3.442,3.442,0,0,1,6.828,4.445a3.73,3.73,0,0,1,2.18-.953L9.25,1.773h1.234l-.242,1.734A2.576,2.576,0,0,1,12.094,4.6a3.375,3.375,0,0,1,.414,2.387H10.977a2.315,2.315,0,0,0-.258-1.625,1.424,1.424,0,0,0-1.281-.6,1.985,1.985,0,0,0-2.1,1.8,1.47,1.47,0,0,0,.3,1.238,3.977,3.977,0,0,0,1.594.879,4.9,4.9,0,0,1,2.191,1.285,2.544,2.544,0,0,1,.48,2.09,3.351,3.351,0,0,1-1.1,2.168,4.084,4.084,0,0,1-2.352.91l-.2,1.5H7.016l.2-1.492a3.12,3.12,0,0,1-2.051-1,2.949,2.949,0,0,1-.527-2.484H6.18a1.913,1.913,0,0,0,.352,1.738,2.03,2.03,0,0,0,1.43.488,2.646,2.646,0,0,0,1.625-.488A1.915,1.915,0,0,0,10.359,12.063ZM18.016,15H16.469l1.492-9.953-2.477.023.172-1.187,4.094-.422Zm11.008-3.828H30.6l-.187,1.2h-1.57L28.453,15H26.922l.391-2.625H22.43l.133-.867,5.969-7.883h1.625Zm-4.758,0h3.227l.8-5.312-.039-.016-.2.375ZM38.758,15H31.7l.148-1.055,4.164-4.258a12.936,12.936,0,0,0,1.551-1.84,3.521,3.521,0,0,0,.535-1.379A1.684,1.684,0,0,0,37.82,5.16a1.444,1.444,0,0,0-1.211-.488A2.2,2.2,0,0,0,35,5.3a2.579,2.579,0,0,0-.762,1.531H32.766l-.016-.047A3.559,3.559,0,0,1,34.008,4.4a4.111,4.111,0,0,1,2.773-.937,2.893,2.893,0,0,1,2.25.855,2.542,2.542,0,0,1,.6,2.168A3.978,3.978,0,0,1,38.9,8.25,24.569,24.569,0,0,1,37.07,10.4L33.742,13.75l.016.047H38.93Zm3.531,0H40.75l.234-1.578h1.539ZM52.938,6.531a3.1,3.1,0,0,1-.742,1.6,3.549,3.549,0,0,1-1.477.992A2.882,2.882,0,0,1,52.1,10.211a2.325,2.325,0,0,1,.348,1.664,3.567,3.567,0,0,1-1.379,2.461,4.489,4.489,0,0,1-2.73.828,3.7,3.7,0,0,1-2.578-.867,2.526,2.526,0,0,1-.719-2.422,3.068,3.068,0,0,1,.855-1.734A4.105,4.105,0,0,1,47.68,9.086a2.585,2.585,0,0,1-1.23-1.016,2.193,2.193,0,0,1-.285-1.539,3.273,3.273,0,0,1,1.289-2.309,4.388,4.388,0,0,1,2.625-.762,3.1,3.1,0,0,1,2.234.8A2.472,2.472,0,0,1,52.938,6.531Zm-2.016,5.313a1.836,1.836,0,0,0-.371-1.547,1.774,1.774,0,0,0-1.41-.586,2.591,2.591,0,0,0-1.676.605,2.338,2.338,0,0,0-.879,1.527,1.73,1.73,0,0,0,.387,1.555,2.045,2.045,0,0,0,1.543.563,2.367,2.367,0,0,0,1.559-.586A2.417,2.417,0,0,0,50.922,11.844Zm.469-5.289a1.665,1.665,0,0,0-.3-1.367,1.471,1.471,0,0,0-1.2-.516,2.214,2.214,0,0,0-1.437.516A2.088,2.088,0,0,0,47.7,6.555a1.672,1.672,0,0,0,.332,1.422,1.659,1.659,0,0,0,1.309.523,1.925,1.925,0,0,0,1.324-.543A2.307,2.307,0,0,0,51.391,6.555Zm10.117,4.43a5.235,5.235,0,0,1-1.437,3.09,3.888,3.888,0,0,1-2.8,1.09,2.863,2.863,0,0,1-2.437-1.137,3.926,3.926,0,0,1-.562-3.043l.5-3.344A5.2,5.2,0,0,1,56.2,4.559a3.89,3.89,0,0,1,2.8-1.1A2.846,2.846,0,0,1,61.445,4.6a3.967,3.967,0,0,1,.563,3.039ZM60.516,7.32a2.859,2.859,0,0,0-.25-1.961,1.581,1.581,0,0,0-1.445-.687,2.123,2.123,0,0,0-1.613.719,3.556,3.556,0,0,0-.855,1.93L55.758,11.3A2.845,2.845,0,0,0,56,13.266a1.577,1.577,0,0,0,1.441.7,2.126,2.126,0,0,0,1.621-.723,3.585,3.585,0,0,0,.855-1.941Zm10,3.664a5.235,5.235,0,0,1-1.437,3.09,3.888,3.888,0,0,1-2.8,1.09,2.863,2.863,0,0,1-2.437-1.137,3.926,3.926,0,0,1-.562-3.043l.5-3.344a5.2,5.2,0,0,1,1.438-3.082,3.89,3.89,0,0,1,2.8-1.1A2.846,2.846,0,0,1,70.453,4.6a3.967,3.967,0,0,1,.563,3.039ZM69.523,7.32a2.859,2.859,0,0,0-.25-1.961,1.581,1.581,0,0,0-1.445-.687,2.123,2.123,0,0,0-1.613.719,3.556,3.556,0,0,0-.855,1.93L64.766,11.3a2.845,2.845,0,0,0,.246,1.969,1.577,1.577,0,0,0,1.441.7,2.126,2.126,0,0,0,1.621-.723A3.585,3.585,0,0,0,68.93,11.3ZM73.594,15H72.055l.234-1.578h1.539ZM83.8,10.984a5.235,5.235,0,0,1-1.437,3.09,3.888,3.888,0,0,1-2.8,1.09,2.863,2.863,0,0,1-2.437-1.137,3.926,3.926,0,0,1-.562-3.043l.5-3.344A5.2,5.2,0,0,1,78.5,4.559a3.89,3.89,0,0,1,2.8-1.1A2.846,2.846,0,0,1,83.742,4.6,3.967,3.967,0,0,1,84.3,7.641ZM82.813,7.32a2.859,2.859,0,0,0-.25-1.961,1.581,1.581,0,0,0-1.445-.687,2.123,2.123,0,0,0-1.613.719,3.556,3.556,0,0,0-.855,1.93L78.055,11.3a2.845,2.845,0,0,0,.246,1.969,1.577,1.577,0,0,0,1.441.7,2.126,2.126,0,0,0,1.621-.723,3.585,3.585,0,0,0,.855-1.941Zm10,3.664a5.235,5.235,0,0,1-1.437,3.09,3.888,3.888,0,0,1-2.8,1.09,2.863,2.863,0,0,1-2.437-1.137,3.926,3.926,0,0,1-.562-3.043l.5-3.344a5.2,5.2,0,0,1,1.438-3.082,3.89,3.89,0,0,1,2.8-1.1A2.846,2.846,0,0,1,92.75,4.6a3.967,3.967,0,0,1,.563,3.039ZM91.82,7.32a2.859,2.859,0,0,0-.25-1.961,1.581,1.581,0,0,0-1.445-.687,2.123,2.123,0,0,0-1.613.719,3.556,3.556,0,0,0-.855,1.93L87.063,11.3a2.845,2.845,0,0,0,.246,1.969,1.577,1.577,0,0,0,1.441.7,2.126,2.126,0,0,0,1.621-.723,3.585,3.585,0,0,0,.855-1.941Zm10,3.664a5.235,5.235,0,0,1-1.437,3.09,3.888,3.888,0,0,1-2.8,1.09,2.863,2.863,0,0,1-2.437-1.137,3.926,3.926,0,0,1-.562-3.043l.5-3.344a5.2,5.2,0,0,1,1.438-3.082,3.89,3.89,0,0,1,2.8-1.1A2.846,2.846,0,0,1,101.758,4.6a3.967,3.967,0,0,1,.563,3.039Zm-.992-3.664a2.859,2.859,0,0,0-.25-1.961,1.581,1.581,0,0,0-1.445-.687,2.123,2.123,0,0,0-1.613.719,3.556,3.556,0,0,0-.855,1.93L96.07,11.3a2.845,2.845,0,0,0,.246,1.969,1.577,1.577,0,0,0,1.441.7,2.126,2.126,0,0,0,1.621-.723,3.585,3.585,0,0,0,.855-1.941ZM10.359,36.063a1.478,1.478,0,0,0-.324-1.211,3.611,3.611,0,0,0-1.527-.875A4.768,4.768,0,0,1,6.3,32.7,2.542,2.542,0,0,1,5.8,30.578a3.442,3.442,0,0,1,1.031-2.133,3.73,3.73,0,0,1,2.18-.953l.242-1.719h1.234l-.242,1.734a2.576,2.576,0,0,1,1.852,1.09,3.375,3.375,0,0,1,.414,2.387H10.977a2.315,2.315,0,0,0-.258-1.625,1.424,1.424,0,0,0-1.281-.6,1.985,1.985,0,0,0-2.1,1.8,1.47,1.47,0,0,0,.3,1.238,3.977,3.977,0,0,0,1.594.879,4.9,4.9,0,0,1,2.191,1.285,2.544,2.544,0,0,1,.48,2.09,3.351,3.351,0,0,1-1.1,2.168,4.084,4.084,0,0,1-2.352.91l-.2,1.5H7.016l.2-1.492a3.12,3.12,0,0,1-2.051-1,2.949,2.949,0,0,1-.527-2.484H6.18a1.913,1.913,0,0,0,.352,1.738,2.03,2.03,0,0,0,1.43.488,2.646,2.646,0,0,0,1.625-.488A1.915,1.915,0,0,0,10.359,36.063ZM18.016,39H16.469l1.492-9.953-2.477.023.172-1.187,4.094-.422Zm9.008,0H25.477l1.492-9.953-2.477.023.172-1.187,4.094-.422Zm5.586-5.055,1.6-6.32h5.7l-.2,1.367H35.3l-.859,3.273a4.172,4.172,0,0,1,.879-.449,3.1,3.1,0,0,1,1.043-.184,2.67,2.67,0,0,1,2.324.988,3.6,3.6,0,0,1,.488,2.754,4.693,4.693,0,0,1-1.332,2.781,3.937,3.937,0,0,1-2.832,1.008,3.212,3.212,0,0,1-2.262-.793,2.412,2.412,0,0,1-.605-2.324l.016-.039h1.4a1.679,1.679,0,0,0,.309,1.457,1.711,1.711,0,0,0,1.324.5,2.122,2.122,0,0,0,1.6-.7,3.384,3.384,0,0,0,.84-1.875,2.485,2.485,0,0,0-.273-1.777,1.578,1.578,0,0,0-1.414-.652,2.616,2.616,0,0,0-1.336.281,1.946,1.946,0,0,0-.742.836ZM42.289,39H40.75l.234-1.578h1.539ZM53.6,28.836a20.852,20.852,0,0,0-3.59,4.523,13.491,13.491,0,0,0-1.418,4.4L48.406,39H46.867l.188-1.242a12.183,12.183,0,0,1,1.625-4.672,26.046,26.046,0,0,1,3.406-4.25H46.055l.18-1.211h7.547Zm3.25,9.125a2.661,2.661,0,0,0,1.887-.773,3.624,3.624,0,0,0,1.027-2.164l.133-.914a2.918,2.918,0,0,1-1.047.8,3.064,3.064,0,0,1-1.266.266A2.869,2.869,0,0,1,55.2,34.156a3.482,3.482,0,0,1-.539-2.8,4.655,4.655,0,0,1,1.41-2.844,3.758,3.758,0,0,1,2.621-1.055,3.121,3.121,0,0,1,2.539,1.078,3.683,3.683,0,0,1,.609,3.016l-.516,3.453a4.774,4.774,0,0,1-1.574,3.1,4.642,4.642,0,0,1-3.074,1.059,6.134,6.134,0,0,1-1.2-.125,4.817,4.817,0,0,1-1.133-.367L54.75,37.5a3.965,3.965,0,0,0,.961.355A5.349,5.349,0,0,0,56.852,37.961Zm.914-3.984a2.6,2.6,0,0,0,1.391-.379,2.818,2.818,0,0,0,.961-.949l.2-1.32a2.761,2.761,0,0,0-.27-1.992,1.706,1.706,0,0,0-1.5-.664,2.011,2.011,0,0,0-1.492.75,3.537,3.537,0,0,0-.859,1.938,2.935,2.935,0,0,0,.215,1.918A1.437,1.437,0,0,0,57.766,33.977Zm10.766-6.516a6.346,6.346,0,0,1,1.3.137,4.4,4.4,0,0,1,1.047.332l-.508,1.18a4.926,4.926,0,0,0-.891-.316,4.645,4.645,0,0,0-1.133-.121,2.459,2.459,0,0,0-1.859.922,4.291,4.291,0,0,0-1.031,2.3l-.125.852a4.149,4.149,0,0,1,1.234-.73,4.028,4.028,0,0,1,1.445-.262,2.5,2.5,0,0,1,2.141.992,3.379,3.379,0,0,1,.508,2.578,4.673,4.673,0,0,1-1.379,2.824,3.886,3.886,0,0,1-2.738,1.012,2.9,2.9,0,0,1-2.434-1.207,4.209,4.209,0,0,1-.6-3.27L63.9,32.07a5.646,5.646,0,0,1,1.629-3.344A4.216,4.216,0,0,1,68.531,27.461Zm-1.187,5.445a2.571,2.571,0,0,0-1.281.32,2.746,2.746,0,0,0-.937.859l-.109.75a3.427,3.427,0,0,0,.273,2.313,1.586,1.586,0,0,0,1.43.813,2.017,2.017,0,0,0,1.57-.738,3.648,3.648,0,0,0,.828-1.895,2.412,2.412,0,0,0-.293-1.785A1.7,1.7,0,0,0,67.344,32.906ZM73.594,39H72.055l.234-1.578h1.539Zm10.648-8.469a3.1,3.1,0,0,1-.742,1.6,3.549,3.549,0,0,1-1.477.992A2.882,2.882,0,0,1,83.4,34.211a2.325,2.325,0,0,1,.348,1.664,3.567,3.567,0,0,1-1.379,2.461,4.489,4.489,0,0,1-2.73.828,3.7,3.7,0,0,1-2.578-.867,2.526,2.526,0,0,1-.719-2.422,3.068,3.068,0,0,1,.855-1.734,4.105,4.105,0,0,1,1.785-1.055,2.585,2.585,0,0,1-1.23-1.016,2.193,2.193,0,0,1-.285-1.539,3.273,3.273,0,0,1,1.289-2.309,4.388,4.388,0,0,1,2.625-.762,3.1,3.1,0,0,1,2.234.8A2.472,2.472,0,0,1,84.242,30.531Zm-2.016,5.313a1.836,1.836,0,0,0-.371-1.547,1.774,1.774,0,0,0-1.41-.586,2.591,2.591,0,0,0-1.676.605,2.338,2.338,0,0,0-.879,1.527,1.73,1.73,0,0,0,.387,1.555,2.045,2.045,0,0,0,1.543.563,2.367,2.367,0,0,0,1.559-.586A2.417,2.417,0,0,0,82.227,35.844Zm.469-5.289a1.665,1.665,0,0,0-.3-1.367,1.471,1.471,0,0,0-1.2-.516,2.214,2.214,0,0,0-1.437.516A2.088,2.088,0,0,0,79,30.555,1.552,1.552,0,0,0,80.641,32.5a1.925,1.925,0,0,0,1.324-.543A2.307,2.307,0,0,0,82.7,30.555Zm10.117,4.43a5.235,5.235,0,0,1-1.437,3.09,3.888,3.888,0,0,1-2.8,1.09,2.863,2.863,0,0,1-2.437-1.137,3.926,3.926,0,0,1-.562-3.043l.5-3.344a5.2,5.2,0,0,1,1.438-3.082,3.89,3.89,0,0,1,2.8-1.1A2.846,2.846,0,0,1,92.75,28.6a3.967,3.967,0,0,1,.563,3.039ZM91.82,31.32a2.859,2.859,0,0,0-.25-1.961,1.581,1.581,0,0,0-1.445-.687,2.123,2.123,0,0,0-1.613.719,3.556,3.556,0,0,0-.855,1.93L87.063,35.3a2.845,2.845,0,0,0,.246,1.969,1.577,1.577,0,0,0,1.441.7,2.126,2.126,0,0,0,1.621-.723,3.585,3.585,0,0,0,.855-1.941Zm10,3.664a5.235,5.235,0,0,1-1.437,3.09,3.888,3.888,0,0,1-2.8,1.09,2.863,2.863,0,0,1-2.437-1.137,3.926,3.926,0,0,1-.562-3.043l.5-3.344a5.2,5.2,0,0,1,1.438-3.082,3.89,3.89,0,0,1,2.8-1.1,2.846,2.846,0,0,1,2.438,1.141,3.967,3.967,0,0,1,.563,3.039Zm-.992-3.664a2.859,2.859,0,0,0-.25-1.961,1.581,1.581,0,0,0-1.445-.687,2.123,2.123,0,0,0-1.613.719,3.556,3.556,0,0,0-.855,1.93L96.07,35.3a2.845,2.845,0,0,0,.246,1.969,1.577,1.577,0,0,0,1.441.7,2.126,2.126,0,0,0,1.621-.723,3.585,3.585,0,0,0,.855-1.941Z" transform="translate(983.152 9617.816)" fill="#12263f"/>
    <path id="Trazado_908203" data-name="Trazado 908203" d="M0,0H110" transform="translate(979.652 9639.316)" fill="none" stroke="#12263f" stroke-width="1"/>
  </g>
</svg>
