<svg xmlns="http://www.w3.org/2000/svg" width="85" height="85" viewBox="0 0 85 85">
  <g id="Grupo_1114581" data-name="Grupo 1114581" transform="translate(-757.051 -10354)">
    <g id="Elipse_12759" data-name="Elipse 12759" transform="translate(757.051 10354)" fill="#8454ee" stroke="#fff" stroke-width="3">
      <circle cx="42.5" cy="42.5" r="42.5" stroke="none"/>
      <circle cx="42.5" cy="42.5" r="41" fill="none"/>
    </g>
    <g id="Grupo_1114580" data-name="Grupo 1114580" transform="translate(773.051 10369)">
      <g id="Grupo_1114578" data-name="Grupo 1114578" transform="translate(1.837 1.837)">
        <g id="Grupo_1114569" data-name="Grupo 1114569" transform="translate(34.337 9.212)">
          <path id="Trazado_907840" data-name="Trazado 907840" d="M47.522,17.02a2.513,2.513,0,0,1-4.489-1.1,2.2,2.2,0,0,1-.034-.41,2.512,2.512,0,1,1,4.522,1.507Z" transform="translate(-43 -13)" fill="#fcd770"/>
        </g>
        <g id="Grupo_1114570" data-name="Grupo 1114570" transform="translate(24.287 10.887)">
          <path id="Trazado_907841" data-name="Trazado 907841" d="M35.991,17.1a2.2,2.2,0,0,1,.034.41,2.512,2.512,0,1,1-5.025,0A2.527,2.527,0,0,1,33.512,15a2.513,2.513,0,0,1,2.479,2.1Z" transform="translate(-31 -15)" fill="#fcd770"/>
        </g>
        <g id="Grupo_1114571" data-name="Grupo 1114571" transform="translate(0 0)">
          <path id="Trazado_907842" data-name="Trazado 907842" d="M18.75,10.375A8.375,8.375,0,1,1,10.375,2,8.32,8.32,0,0,1,18.75,10.375Z" transform="translate(-2 -2)" fill="#fcd770"/>
        </g>
        <g id="Grupo_1114572" data-name="Grupo 1114572" transform="translate(43.549 28.475)">
          <path id="Trazado_907843" data-name="Trazado 907843" d="M54,36h6.7V57.775H54Z" transform="translate(-54 -36)" fill="#ff826e"/>
        </g>
        <g id="Grupo_1114573" data-name="Grupo 1114573" transform="translate(33.5 20.937)">
          <path id="Trazado_907844" data-name="Trazado 907844" d="M42,27h6.7V56.312H42Z" transform="translate(-42 -27)" fill="#ff826e"/>
        </g>
        <g id="Grupo_1114574" data-name="Grupo 1114574" transform="translate(23.45 25.125)">
          <path id="Trazado_907845" data-name="Trazado 907845" d="M30,32h6.7V57.125H30Z" transform="translate(-30 -32)" fill="#ff826e"/>
        </g>
        <g id="Grupo_1114575" data-name="Grupo 1114575" transform="translate(11.725 20.1)">
          <path id="Trazado_907846" data-name="Trazado 907846" d="M24.375,26V56.15h-6.7V54.877A7.534,7.534,0,0,0,19.517,44.09L16,39.4l2.655-2.655a2.365,2.365,0,0,0-1-3.945l.025-.1V26Z" transform="translate(-16 -26)" fill="#ff826e"/>
        </g>
        <g id="Grupo_1114576" data-name="Grupo 1114576" transform="translate(3.35 25.125)">
          <path id="Trazado_907847" data-name="Trazado 907847" d="M12.633,33.675h2.722a2.2,2.2,0,0,1,.67.1,2.365,2.365,0,0,1,1,3.945l-2.655,2.655h-6.7L6.084,34.806A2.057,2.057,0,0,1,6,34.2,2.2,2.2,0,0,1,8.2,32H10.5a2.2,2.2,0,0,1,2.136,1.675Z" transform="translate(-6 -32)" fill="#a0d468"/>
        </g>
        <g id="Grupo_1114577" data-name="Grupo 1114577" transform="translate(0 33.5)">
          <path id="Trazado_907848" data-name="Trazado 907848" d="M7.025,42h6.7l3.517,4.69a7.54,7.54,0,0,1-6.03,12.06H9.537a7.537,7.537,0,0,1-6.03-12.06Z" transform="translate(-2 -42)" fill="#b4dd7f"/>
        </g>
      </g>
      <g id="Grupo_1114579" data-name="Grupo 1114579" transform="translate(1 1)">
        <path id="Trazado_907849" data-name="Trazado 907849" d="M10.675,14.928v1.8H12.35v-1.8a2.381,2.381,0,0,0,.353-4.407l-1.632-.817A.715.715,0,0,1,11.39,8.35h.244a.717.717,0,0,1,.716.715v.122h1.675V9.065A2.386,2.386,0,0,0,12.35,6.8V5H10.675V6.8a2.381,2.381,0,0,0-.353,4.407l1.632.817a.715.715,0,0,1-.319,1.355h-.244a.717.717,0,0,1-.716-.715V11.7H9v.96A2.386,2.386,0,0,0,10.675,14.928Z" transform="translate(-2.3 -1.65)"/>
        <path id="Trazado_907850" data-name="Trazado 907850" d="M12.35,46.8V45H10.675v1.8a2.381,2.381,0,0,0-.353,4.407l1.632.817a.715.715,0,0,1-.319,1.355h-.244a.717.717,0,0,1-.716-.715V51.7H9v.96a2.384,2.384,0,0,0,1.675,2.269v1.8H12.35v-1.8a2.381,2.381,0,0,0,.353-4.407l-1.632-.817a.715.715,0,0,1,.319-1.355h.244a.717.717,0,0,1,.716.715v.122h1.675v-.122A2.386,2.386,0,0,0,12.35,46.8Z" transform="translate(-2.3 -8.15)"/>
        <path id="Trazado_907851" data-name="Trazado 907851" d="M10.212,19.425a9.22,9.22,0,0,0,8.62-5.993l6.459,1.761c0,.015,0,.029,0,.044a3.341,3.341,0,0,0,6.67.3l3.674-.612a3.35,3.35,0,0,0,3.056,1.992,3.315,3.315,0,0,0,2.079-.745l9.253,6.939-3.095.516.275,1.652L53.05,24.3l-.975-5.851-1.652.276.494,2.964-9.135-6.851a3.317,3.317,0,0,0,.255-1.275,3.341,3.341,0,0,0-6.67-.3l-3.674.612a3.331,3.331,0,0,0-5.95-.3l-6.468-1.764a9.208,9.208,0,1,0-9.063,7.609Zm28.475-7.537a1.675,1.675,0,1,1-1.675,1.675A1.677,1.677,0,0,1,38.687,11.887Zm-10.05,1.675a1.675,1.675,0,1,1-1.675,1.675A1.677,1.677,0,0,1,28.637,13.562ZM10.212,2.675a7.537,7.537,0,1,1-7.537,7.537A7.546,7.546,0,0,1,10.212,2.675Z" transform="translate(-1 -1)"/>
        <path id="Trazado_907852" data-name="Trazado 907852" d="M14.4,31.7H12.386a3.034,3.034,0,0,0-2.7-1.675H7.392A3.041,3.041,0,0,0,4.467,33.9l1.476,5.166L2.675,43.425a8.375,8.375,0,0,0,6.7,13.4H11.05a8.316,8.316,0,0,0,3.35-.7v.7h8.375V25H14.4Zm-7.008,0H9.683a1.368,1.368,0,0,1,1.367,1.367V35.05h1.675V33.375h1.819a1.531,1.531,0,0,1,1.083,2.614L13.216,38.4H7.495L6.078,33.441a1.348,1.348,0,0,1-.053-.374A1.368,1.368,0,0,1,7.392,31.7ZM9.375,55.15a6.7,6.7,0,0,1-5.36-10.721l3.266-4.354h5.862l3.266,4.354A6.7,6.7,0,0,1,11.05,55.15ZM21.1,26.675V55.15H16.075v-.016A8.356,8.356,0,0,0,17.75,43.425l-3.082-4.109,2.143-2.143a3.189,3.189,0,0,0-.736-5.066V26.675Z" transform="translate(-1 -4.9)"/>
        <path id="Trazado_907853" data-name="Trazado 907853" d="M29,57.8h8.375V31H29Zm1.675-25.125H35.7v23.45H30.675Z" transform="translate(-5.55 -5.875)"/>
        <path id="Trazado_907854" data-name="Trazado 907854" d="M41,56.987h8.375V26H41Zm1.675-29.312H47.7V55.312H42.675Z" transform="translate(-7.5 -5.063)"/>
        <path id="Trazado_907855" data-name="Trazado 907855" d="M53,58.45h8.375V35H53Zm1.675-21.775H59.7v20.1H54.675Z" transform="translate(-9.451 -6.525)"/>
      </g>
    </g>
  </g>
</svg>
