<svg id="Grupo_1113530" data-name="Grupo 1113530" xmlns="http://www.w3.org/2000/svg" width="259.751" height="82" viewBox="0 0 259.751 82">
  <g id="Grupo_1113326" data-name="Grupo 1113326">
    <rect id="Rect치ngulo_406002" data-name="Rect치ngulo 406002" width="248.751" height="74" transform="translate(11 8)" fill="#bce0fc"/>
    <g id="Rect치ngulo_406003" data-name="Rect치ngulo 406003" fill="#fbfbf9" stroke="#000" stroke-width="0.5">
      <rect width="255.751" height="76" stroke="none"/>
      <rect x="0.25" y="0.25" width="255.251" height="75.5" fill="none"/>
    </g>
  </g>
  <path id="Trazado_908438" data-name="Trazado 908438" d="M18.594,11.359l.016.047a4.027,4.027,0,0,1-1.523,2.711,4.979,4.979,0,0,1-3.219,1.047,3.446,3.446,0,0,1-2.9-1.379,4.374,4.374,0,0,1-.73-3.457l.3-2.023a5.839,5.839,0,0,1,1.727-3.512,4.715,4.715,0,0,1,3.359-1.332A3.859,3.859,0,0,1,18.5,4.5a2.951,2.951,0,0,1,.738,2.715l-.023.047H17.742a2.277,2.277,0,0,0-.414-1.914,2.4,2.4,0,0,0-1.891-.672,2.872,2.872,0,0,0-2.184,1.051,4.789,4.789,0,0,0-1.176,2.566l-.3,2.039a3.844,3.844,0,0,0,.359,2.625,2.075,2.075,0,0,0,1.914,1.008,3.087,3.087,0,0,0,2.063-.7,3,3,0,0,0,1.016-1.9Zm8.57-1.391h-4.8L21.609,15H20.07l1.7-11.375h7.133l-.18,1.211H23.133l-.594,3.922h4.8ZM37.75,8.883h3.117l-.2,1.391H37.547l-.539,3.586H35.469l.539-3.586H32.867l.2-1.391h3.141l.5-3.3H38.25ZM56.023,3.625,54.891,11.18a4.32,4.32,0,0,1-1.648,2.965,5.35,5.35,0,0,1-3.3,1.02A3.819,3.819,0,0,1,47.094,14.1a3.227,3.227,0,0,1-.773-2.918l1.133-7.555h1.539L47.859,11.18a2.446,2.446,0,0,0,.43,2.07,2.319,2.319,0,0,0,1.828.711,3.276,3.276,0,0,0,2.121-.742,3.108,3.108,0,0,0,1.113-2.039l1.133-7.555ZM56.758,15l1.7-11.375h3.578a4.154,4.154,0,0,1,3.336,1.387,4.208,4.208,0,0,1,.867,3.527l-.234,1.555a5.675,5.675,0,0,1-1.879,3.582A5.6,5.6,0,0,1,60.336,15ZM59.82,4.836,58.477,13.8h2.039a3.649,3.649,0,0,0,2.613-1.051,4.488,4.488,0,0,0,1.34-2.652l.234-1.57a3.476,3.476,0,0,0-.5-2.676,2.725,2.725,0,0,0-2.344-1.012ZM71.531,15.977H70.219l6.6-12.352h1.3Zm11.047-5.594a11.684,11.684,0,0,1,1.965-5.316A8.782,8.782,0,0,1,87.57,2.219l.047.008.172.906a8.17,8.17,0,0,0-2.242,2.68,12.607,12.607,0,0,0-1.43,4.555l-.016.1a11.079,11.079,0,0,0,.129,4.6,6.02,6.02,0,0,0,1.5,2.7l-.414.844h-.047a5.9,5.9,0,0,1-2.207-2.9,9.705,9.705,0,0,1-.5-5.262ZM91.711,15H90.164l1.492-9.953L89.18,5.07l.172-1.187,4.094-.422Zm10.008-4.2H97.109l.18-1.2H101.9Zm5.492-6.289-.3,2.039h1.6l-.172,1.141h-1.6l-.766,5.133a1.052,1.052,0,0,0,.113.848.793.793,0,0,0,.621.23,1.571,1.571,0,0,0,.3-.035,2.1,2.1,0,0,0,.285-.074l.055,1.055a1.634,1.634,0,0,1-.543.23,2.7,2.7,0,0,1-.676.09,1.735,1.735,0,0,1-1.395-.57,2.153,2.153,0,0,1-.3-1.773l.766-5.133h-1.344l.172-1.141h1.344l.3-2.039Zm5.477,5.945a11.73,11.73,0,0,1-1.973,5.32,8.822,8.822,0,0,1-3.02,2.844l-.047-.008-.18-.836a8.091,8.091,0,0,0,2.234-2.7,12.974,12.974,0,0,0,1.445-4.605l.016-.1A10.855,10.855,0,0,0,111,5.762a6.225,6.225,0,0,0-1.469-2.7l.414-.844h.047a5.924,5.924,0,0,1,2.2,2.906,9.745,9.745,0,0,1,.512,5.258ZM18.578,29.383a11.684,11.684,0,0,1,1.965-5.316,8.782,8.782,0,0,1,3.027-2.848l.047.008.172.906a8.17,8.17,0,0,0-2.242,2.68,12.607,12.607,0,0,0-1.43,4.555l-.016.1a11.079,11.079,0,0,0,.129,4.6,6.02,6.02,0,0,0,1.5,2.7l-.414.844h-.047a5.9,5.9,0,0,1-2.207-2.9,9.705,9.705,0,0,1-.5-5.262Zm7.133.055L25.031,34H23.492l1.7-11.375h4.352a3.5,3.5,0,0,1,2.652.945,2.794,2.794,0,0,1,.684,2.461A3.815,3.815,0,0,1,31.5,28.539a4.633,4.633,0,0,1-2.973.9Zm.18-1.2h2.82a2.518,2.518,0,0,0,2.625-2.187A2.042,2.042,0,0,0,31,24.453a1.94,1.94,0,0,0-1.637-.617H26.555Zm11.672,2.781.117.938.047.008.4-.945,4.2-8.391h1.664L38.055,34h-1.32L34.211,22.625h1.672Zm16.313-8.391L52.742,30.18a4.32,4.32,0,0,1-1.648,2.965,5.35,5.35,0,0,1-3.3,1.02A3.819,3.819,0,0,1,44.945,33.1a3.227,3.227,0,0,1-.773-2.918L45.3,22.625h1.539L45.711,30.18a2.446,2.446,0,0,0,.43,2.07,2.319,2.319,0,0,0,1.828.711,3.276,3.276,0,0,0,2.121-.742A3.108,3.108,0,0,0,51.2,30.18l1.133-7.555ZM63.8,29.8H59.2l.18-1.2h4.609Zm14.625.563.016.047a4.027,4.027,0,0,1-1.523,2.711A4.979,4.979,0,0,1,73.7,34.164a3.446,3.446,0,0,1-2.9-1.379,4.374,4.374,0,0,1-.73-3.457l.3-2.023A5.839,5.839,0,0,1,72.1,23.793a4.715,4.715,0,0,1,3.359-1.332A3.859,3.859,0,0,1,78.34,23.5a2.951,2.951,0,0,1,.738,2.715l-.023.047H77.578a2.277,2.277,0,0,0-.414-1.914,2.4,2.4,0,0,0-1.891-.672,2.872,2.872,0,0,0-2.184,1.051,4.789,4.789,0,0,0-1.176,2.566l-.3,2.039a3.844,3.844,0,0,0,.359,2.625,2.075,2.075,0,0,0,1.914,1.008,3.087,3.087,0,0,0,2.063-.7,3,3,0,0,0,1.016-1.9Zm5.375.656.117.938.047.008.4-.945,4.2-8.391h1.664L84.3,34h-1.32L80.453,22.625h1.672Zm16.313-8.391L98.984,30.18a4.32,4.32,0,0,1-1.648,2.965,5.35,5.35,0,0,1-3.3,1.02A3.819,3.819,0,0,1,91.188,33.1a3.227,3.227,0,0,1-.773-2.918l1.133-7.555h1.539L91.953,30.18a2.446,2.446,0,0,0,.43,2.07,2.319,2.319,0,0,0,1.828.711,3.276,3.276,0,0,0,2.121-.742,3.108,3.108,0,0,0,1.113-2.039l1.133-7.555Zm4.32,6.828a11.73,11.73,0,0,1-1.973,5.32,8.822,8.822,0,0,1-3.02,2.844l-.047-.008-.18-.836a8.091,8.091,0,0,0,2.234-2.7,12.974,12.974,0,0,0,1.445-4.605l.016-.1a10.855,10.855,0,0,0-.164-4.605,6.225,6.225,0,0,0-1.469-2.7l.414-.844h.047a5.924,5.924,0,0,1,2.2,2.906,9.745,9.745,0,0,1,.512,5.258Z" transform="translate(102 19)" fill="#12263f"/>
  <path id="Trazado_908439" data-name="Trazado 908439" d="M19.789,10.438,19.109,15H17.57l1.7-11.375h4.352a3.5,3.5,0,0,1,2.652.945,2.794,2.794,0,0,1,.684,2.461,3.815,3.815,0,0,1-1.379,2.508,4.633,4.633,0,0,1-2.973.9Zm.18-1.2h2.82a2.518,2.518,0,0,0,2.625-2.187,2.042,2.042,0,0,0-.332-1.594,1.94,1.94,0,0,0-1.637-.617H20.633Zm14.773.492H30.07l-.609,4.07H34.93L34.75,15H27.742l1.7-11.375h6.922l-.18,1.211H30.8l-.547,3.68h4.68Zm11.219.6a6.458,6.458,0,0,1-.523,1.738,5.638,5.638,0,0,1-.937,1.418l1.43,1.625-1.2,1.008-1.469-1.641a4.962,4.962,0,0,1-1.27.516,5.667,5.667,0,0,1-1.4.172,3.575,3.575,0,0,1-3-1.387,4.337,4.337,0,0,1-.762-3.449l.3-2.023a5.782,5.782,0,0,1,1.758-3.5,4.886,4.886,0,0,1,3.453-1.34,3.767,3.767,0,0,1,3.1,1.395,4.257,4.257,0,0,1,.82,3.449ZM44.727,8.289a3.493,3.493,0,0,0-.453-2.59,2.425,2.425,0,0,0-2.125-.973,3.07,3.07,0,0,0-2.27,1.012,4.5,4.5,0,0,0-1.207,2.551l-.3,2.039a3.608,3.608,0,0,0,.4,2.605,2.244,2.244,0,0,0,2.008.973A3.283,3.283,0,0,0,43.164,12.9a4.477,4.477,0,0,0,1.258-2.57Zm14.3.281H52.516l.2-1.281h6.516Zm-.484,3.25H52.031l.2-1.281h6.516Z" transform="translate(35 29)" fill="#12263f"/>
  <path id="Trazado_908440" data-name="Trazado 908440" d="M0,0H122" transform="translate(102.5 38.5)" fill="none" stroke="#12263f" stroke-width="1"/>
</svg>
