<svg xmlns="http://www.w3.org/2000/svg" width="505" height="397" viewBox="0 0 505 397">
  <g id="Grupo_1114746" data-name="Grupo 1114746" transform="translate(-180.051 -705.074)">
    <rect id="Rectángulo_406487" data-name="Rectángulo 406487" width="505" height="397" rx="8" transform="translate(180.051 705.074)" fill="#ddeffd"/>
    <g id="Grupo_1114745" data-name="Grupo 1114745">
      <g id="Grupo_1114727" data-name="Grupo 1114727">
        <rect id="Rectángulo_406002" data-name="Rectángulo 406002" width="396" height="193" transform="translate(231.051 811.074)" fill="#bce0fc"/>
        <g id="Rectángulo_406003" data-name="Rectángulo 406003" transform="translate(220.051 803.074)" fill="#fbfbf9" stroke="#000" stroke-width="0.5">
          <rect width="403" height="195" stroke="none"/>
          <rect x="0.25" y="0.25" width="402.5" height="194.5" fill="none"/>
        </g>
        <path id="Trazado_908123" data-name="Trazado 908123" d="M11.625,12.063a1.478,1.478,0,0,0-.324-1.211,3.611,3.611,0,0,0-1.527-.875A4.768,4.768,0,0,1,7.57,8.7a2.542,2.542,0,0,1-.508-2.125A3.442,3.442,0,0,1,8.094,4.445a3.73,3.73,0,0,1,2.18-.953l.242-1.719H11.75l-.242,1.734A2.576,2.576,0,0,1,13.359,4.6a3.375,3.375,0,0,1,.414,2.387H12.242a2.315,2.315,0,0,0-.258-1.625,1.424,1.424,0,0,0-1.281-.6,1.985,1.985,0,0,0-2.1,1.8,1.47,1.47,0,0,0,.3,1.238,3.977,3.977,0,0,0,1.594.879,4.9,4.9,0,0,1,2.191,1.285,2.544,2.544,0,0,1,.48,2.09,3.351,3.351,0,0,1-1.1,2.168,4.084,4.084,0,0,1-2.352.91l-.2,1.5H8.281l.2-1.492a3.12,3.12,0,0,1-2.051-1,2.949,2.949,0,0,1-.527-2.484H7.445A1.913,1.913,0,0,0,7.8,13.387a2.03,2.03,0,0,0,1.43.488,2.646,2.646,0,0,0,1.625-.488A1.915,1.915,0,0,0,11.625,12.063Zm9.656-.891h1.578l-.187,1.2H21.1L20.711,15H19.18l.391-2.625H14.688l.133-.867,5.969-7.883h1.625Zm-4.758,0H19.75l.8-5.312-.039-.016-.2.375Zm14.945-.187a5.235,5.235,0,0,1-1.437,3.09,3.888,3.888,0,0,1-2.8,1.09,2.863,2.863,0,0,1-2.437-1.137,3.926,3.926,0,0,1-.562-3.043l.5-3.344a5.2,5.2,0,0,1,1.438-3.082,3.89,3.89,0,0,1,2.8-1.1A2.846,2.846,0,0,1,31.406,4.6a3.967,3.967,0,0,1,.563,3.039ZM30.477,7.32a2.859,2.859,0,0,0-.25-1.961,1.581,1.581,0,0,0-1.445-.687,2.123,2.123,0,0,0-1.613.719,3.556,3.556,0,0,0-.855,1.93L25.719,11.3a2.845,2.845,0,0,0,.246,1.969,1.577,1.577,0,0,0,1.441.7,2.126,2.126,0,0,0,1.621-.723,3.585,3.585,0,0,0,.855-1.941ZM34.547,15H33.008l.234-1.578h1.539Zm10.211-4.016a5.235,5.235,0,0,1-1.437,3.09,3.888,3.888,0,0,1-2.8,1.09,2.863,2.863,0,0,1-2.437-1.137,3.926,3.926,0,0,1-.562-3.043l.5-3.344a5.2,5.2,0,0,1,1.438-3.082,3.89,3.89,0,0,1,2.8-1.1A2.846,2.846,0,0,1,44.7,4.6a3.967,3.967,0,0,1,.563,3.039ZM43.766,7.32a2.859,2.859,0,0,0-.25-1.961,1.581,1.581,0,0,0-1.445-.687,2.123,2.123,0,0,0-1.613.719A3.556,3.556,0,0,0,39.6,7.32L39.008,11.3a2.845,2.845,0,0,0,.246,1.969,1.577,1.577,0,0,0,1.441.7,2.126,2.126,0,0,0,1.621-.723,3.585,3.585,0,0,0,.855-1.941Zm10,3.664a5.235,5.235,0,0,1-1.437,3.09,3.888,3.888,0,0,1-2.8,1.09,2.863,2.863,0,0,1-2.437-1.137,3.926,3.926,0,0,1-.562-3.043l.5-3.344a5.2,5.2,0,0,1,1.438-3.082,3.89,3.89,0,0,1,2.8-1.1A2.846,2.846,0,0,1,53.7,4.6a3.967,3.967,0,0,1,.563,3.039ZM52.773,7.32a2.859,2.859,0,0,0-.25-1.961,1.581,1.581,0,0,0-1.445-.687,2.123,2.123,0,0,0-1.613.719,3.556,3.556,0,0,0-.855,1.93L48.016,11.3a2.845,2.845,0,0,0,.246,1.969,1.577,1.577,0,0,0,1.441.7,2.126,2.126,0,0,0,1.621-.723A3.585,3.585,0,0,0,52.18,11.3Zm10,3.664a5.235,5.235,0,0,1-1.437,3.09,3.888,3.888,0,0,1-2.8,1.09,2.863,2.863,0,0,1-2.437-1.137,3.926,3.926,0,0,1-.562-3.043l.5-3.344a5.2,5.2,0,0,1,1.438-3.082,3.89,3.89,0,0,1,2.8-1.1A2.846,2.846,0,0,1,62.711,4.6a3.967,3.967,0,0,1,.563,3.039ZM61.781,7.32a2.859,2.859,0,0,0-.25-1.961,1.581,1.581,0,0,0-1.445-.687,2.123,2.123,0,0,0-1.613.719,3.556,3.556,0,0,0-.855,1.93L57.023,11.3a2.845,2.845,0,0,0,.246,1.969,1.577,1.577,0,0,0,1.441.7,2.126,2.126,0,0,0,1.621-.723,3.585,3.585,0,0,0,.855-1.941ZM65.852,15H64.313l.234-1.578h1.539Zm10.211-4.016a5.235,5.235,0,0,1-1.437,3.09,3.888,3.888,0,0,1-2.8,1.09,2.863,2.863,0,0,1-2.437-1.137,3.926,3.926,0,0,1-.562-3.043l.5-3.344a5.2,5.2,0,0,1,1.438-3.082,3.89,3.89,0,0,1,2.8-1.1A2.846,2.846,0,0,1,76,4.6a3.967,3.967,0,0,1,.563,3.039ZM75.07,7.32a2.859,2.859,0,0,0-.25-1.961,1.581,1.581,0,0,0-1.445-.687,2.123,2.123,0,0,0-1.613.719,3.556,3.556,0,0,0-.855,1.93L70.313,11.3a2.845,2.845,0,0,0,.246,1.969,1.577,1.577,0,0,0,1.441.7,2.126,2.126,0,0,0,1.621-.723,3.585,3.585,0,0,0,.855-1.941Zm10,3.664a5.235,5.235,0,0,1-1.437,3.09,3.888,3.888,0,0,1-2.8,1.09,2.863,2.863,0,0,1-2.437-1.137,3.926,3.926,0,0,1-.562-3.043l.5-3.344a5.2,5.2,0,0,1,1.438-3.082,3.89,3.89,0,0,1,2.8-1.1A2.846,2.846,0,0,1,85.008,4.6a3.967,3.967,0,0,1,.563,3.039ZM84.078,7.32a2.859,2.859,0,0,0-.25-1.961,1.581,1.581,0,0,0-1.445-.687,2.123,2.123,0,0,0-1.613.719,3.556,3.556,0,0,0-.855,1.93L79.32,11.3a2.845,2.845,0,0,0,.246,1.969,1.577,1.577,0,0,0,1.441.7,2.126,2.126,0,0,0,1.621-.723,3.585,3.585,0,0,0,.855-1.941Zm10,3.664a5.235,5.235,0,0,1-1.437,3.09,3.888,3.888,0,0,1-2.8,1.09A2.863,2.863,0,0,1,87.4,14.027a3.926,3.926,0,0,1-.562-3.043l.5-3.344a5.2,5.2,0,0,1,1.438-3.082,3.89,3.89,0,0,1,2.8-1.1A2.846,2.846,0,0,1,94.016,4.6a3.967,3.967,0,0,1,.563,3.039ZM93.086,7.32a2.859,2.859,0,0,0-.25-1.961,1.581,1.581,0,0,0-1.445-.687,2.123,2.123,0,0,0-1.613.719,3.556,3.556,0,0,0-.855,1.93L88.328,11.3a2.845,2.845,0,0,0,.246,1.969,1.577,1.577,0,0,0,1.441.7,2.126,2.126,0,0,0,1.621-.723,3.585,3.585,0,0,0,.855-1.941Zm11.453,1.563h3.117l-.2,1.391h-3.117l-.539,3.586h-1.539l.539-3.586H99.656l.2-1.391H103l.5-3.3h1.539Zm14.063,3.18a1.478,1.478,0,0,0-.324-1.211,3.611,3.611,0,0,0-1.527-.875,4.768,4.768,0,0,1-2.2-1.273,2.542,2.542,0,0,1-.508-2.125,3.442,3.442,0,0,1,1.031-2.133,3.73,3.73,0,0,1,2.18-.953l.242-1.719h1.234l-.242,1.734a2.576,2.576,0,0,1,1.852,1.09,3.375,3.375,0,0,1,.414,2.387h-1.531a2.315,2.315,0,0,0-.258-1.625,1.424,1.424,0,0,0-1.281-.6,1.985,1.985,0,0,0-2.1,1.8,1.47,1.47,0,0,0,.3,1.238,3.977,3.977,0,0,0,1.594.879,4.9,4.9,0,0,1,2.191,1.285,2.544,2.544,0,0,1,.48,2.09,3.351,3.351,0,0,1-1.1,2.168,4.084,4.084,0,0,1-2.352.91l-.2,1.5h-1.227l.2-1.492a3.12,3.12,0,0,1-2.051-1,2.949,2.949,0,0,1-.527-2.484h1.539a1.913,1.913,0,0,0,.352,1.738,2.03,2.03,0,0,0,1.43.488,2.646,2.646,0,0,0,1.625-.488A1.915,1.915,0,0,0,118.6,12.063ZM126.258,15h-1.547L126.2,5.047l-2.477.023.172-1.187,4.094-.422Zm12.188-4.016a5.235,5.235,0,0,1-1.437,3.09,3.888,3.888,0,0,1-2.8,1.09,2.863,2.863,0,0,1-2.437-1.137,3.926,3.926,0,0,1-.562-3.043l.5-3.344a5.2,5.2,0,0,1,1.438-3.082,3.89,3.89,0,0,1,2.8-1.1A2.846,2.846,0,0,1,138.383,4.6a3.967,3.967,0,0,1,.563,3.039Zm-.992-3.664a2.859,2.859,0,0,0-.25-1.961,1.581,1.581,0,0,0-1.445-.687,2.123,2.123,0,0,0-1.613.719,3.556,3.556,0,0,0-.855,1.93L132.7,11.3a2.845,2.845,0,0,0,.246,1.969,1.577,1.577,0,0,0,1.441.7A2.126,2.126,0,0,0,136,13.238a3.585,3.585,0,0,0,.855-1.941Zm4.07,7.68h-1.539l.234-1.578h1.539Zm10.211-4.016a5.235,5.235,0,0,1-1.437,3.09,3.888,3.888,0,0,1-2.8,1.09,2.863,2.863,0,0,1-2.437-1.137,3.926,3.926,0,0,1-.562-3.043l.5-3.344a5.2,5.2,0,0,1,1.438-3.082,3.89,3.89,0,0,1,2.8-1.1A2.846,2.846,0,0,1,151.672,4.6a3.967,3.967,0,0,1,.563,3.039Zm-.992-3.664a2.859,2.859,0,0,0-.25-1.961,1.581,1.581,0,0,0-1.445-.687,2.123,2.123,0,0,0-1.613.719,3.556,3.556,0,0,0-.855,1.93l-.594,3.977a2.845,2.845,0,0,0,.246,1.969,1.577,1.577,0,0,0,1.441.7,2.126,2.126,0,0,0,1.621-.723,3.585,3.585,0,0,0,.855-1.941Zm10,3.664a5.235,5.235,0,0,1-1.437,3.09,3.888,3.888,0,0,1-2.8,1.09,2.863,2.863,0,0,1-2.437-1.137,3.926,3.926,0,0,1-.562-3.043l.5-3.344a5.2,5.2,0,0,1,1.438-3.082,3.89,3.89,0,0,1,2.8-1.1A2.846,2.846,0,0,1,160.68,4.6a3.967,3.967,0,0,1,.563,3.039ZM159.75,7.32a2.859,2.859,0,0,0-.25-1.961,1.581,1.581,0,0,0-1.445-.687,2.123,2.123,0,0,0-1.613.719,3.556,3.556,0,0,0-.855,1.93l-.594,3.977a2.845,2.845,0,0,0,.246,1.969,1.577,1.577,0,0,0,1.441.7,2.126,2.126,0,0,0,1.621-.723,3.585,3.585,0,0,0,.855-1.941Zm10,3.664a5.235,5.235,0,0,1-1.437,3.09,3.888,3.888,0,0,1-2.8,1.09,2.863,2.863,0,0,1-2.437-1.137,3.926,3.926,0,0,1-.562-3.043l.5-3.344a5.2,5.2,0,0,1,1.438-3.082,3.89,3.89,0,0,1,2.8-1.1A2.846,2.846,0,0,1,169.688,4.6a3.967,3.967,0,0,1,.563,3.039Zm-.992-3.664a2.859,2.859,0,0,0-.25-1.961,1.581,1.581,0,0,0-1.445-.687,2.123,2.123,0,0,0-1.613.719,3.556,3.556,0,0,0-.855,1.93L164,11.3a2.845,2.845,0,0,0,.246,1.969,1.577,1.577,0,0,0,1.441.7,2.126,2.126,0,0,0,1.621-.723,3.585,3.585,0,0,0,.855-1.941Zm4.07,7.68h-1.539l.234-1.578h1.539Zm10.211-4.016a5.235,5.235,0,0,1-1.437,3.09,3.888,3.888,0,0,1-2.8,1.09,2.863,2.863,0,0,1-2.437-1.137,3.926,3.926,0,0,1-.562-3.043l.5-3.344a5.2,5.2,0,0,1,1.438-3.082,3.89,3.89,0,0,1,2.8-1.1A2.846,2.846,0,0,1,182.977,4.6a3.967,3.967,0,0,1,.563,3.039Zm-.992-3.664a2.859,2.859,0,0,0-.25-1.961,1.581,1.581,0,0,0-1.445-.687,2.123,2.123,0,0,0-1.613.719,3.556,3.556,0,0,0-.855,1.93l-.594,3.977a2.845,2.845,0,0,0,.246,1.969,1.577,1.577,0,0,0,1.441.7,2.126,2.126,0,0,0,1.621-.723,3.585,3.585,0,0,0,.855-1.941Zm10,3.664a5.235,5.235,0,0,1-1.437,3.09,3.888,3.888,0,0,1-2.8,1.09,2.863,2.863,0,0,1-2.437-1.137,3.926,3.926,0,0,1-.562-3.043l.5-3.344a5.2,5.2,0,0,1,1.438-3.082,3.89,3.89,0,0,1,2.8-1.1A2.846,2.846,0,0,1,191.984,4.6a3.967,3.967,0,0,1,.563,3.039Zm-.992-3.664a2.859,2.859,0,0,0-.25-1.961,1.581,1.581,0,0,0-1.445-.687,2.123,2.123,0,0,0-1.613.719,3.556,3.556,0,0,0-.855,1.93L186.3,11.3a2.845,2.845,0,0,0,.246,1.969,1.577,1.577,0,0,0,1.441.7,2.126,2.126,0,0,0,1.621-.723,3.585,3.585,0,0,0,.855-1.941Zm10,3.664a5.235,5.235,0,0,1-1.437,3.09,3.888,3.888,0,0,1-2.8,1.09,2.863,2.863,0,0,1-2.437-1.137,3.926,3.926,0,0,1-.562-3.043l.5-3.344a5.2,5.2,0,0,1,1.438-3.082,3.89,3.89,0,0,1,2.8-1.1A2.846,2.846,0,0,1,200.992,4.6a3.967,3.967,0,0,1,.563,3.039Zm-.992-3.664a2.859,2.859,0,0,0-.25-1.961,1.581,1.581,0,0,0-1.445-.687,2.123,2.123,0,0,0-1.613.719,3.556,3.556,0,0,0-.855,1.93L195.3,11.3a2.845,2.845,0,0,0,.246,1.969,1.577,1.577,0,0,0,1.441.7,2.126,2.126,0,0,0,1.621-.723,3.585,3.585,0,0,0,.855-1.941ZM33.035,29.383A11.684,11.684,0,0,1,35,24.066a8.782,8.782,0,0,1,3.027-2.848l.047.008.172.906A8.17,8.17,0,0,0,36,24.813a12.607,12.607,0,0,0-1.43,4.555l-.016.1a11.079,11.079,0,0,0,.129,4.6,6.02,6.02,0,0,0,1.5,2.7l-.414.844H35.73a5.9,5.9,0,0,1-2.207-2.9,9.705,9.705,0,0,1-.5-5.262Zm10.8,1.68a1.478,1.478,0,0,0-.324-1.211,3.611,3.611,0,0,0-1.527-.875,4.768,4.768,0,0,1-2.2-1.273,2.542,2.542,0,0,1-.508-2.125A3.442,3.442,0,0,1,40.3,23.445a3.73,3.73,0,0,1,2.18-.953l.242-1.719h1.234l-.242,1.734a2.576,2.576,0,0,1,1.852,1.09,3.375,3.375,0,0,1,.414,2.387H44.449a2.315,2.315,0,0,0-.258-1.625,1.424,1.424,0,0,0-1.281-.6,1.985,1.985,0,0,0-2.1,1.8,1.47,1.47,0,0,0,.3,1.238,3.977,3.977,0,0,0,1.594.879,4.9,4.9,0,0,1,2.191,1.285,2.544,2.544,0,0,1,.48,2.09,3.351,3.351,0,0,1-1.1,2.168,4.084,4.084,0,0,1-2.352.91l-.2,1.5H40.488l.2-1.492a3.12,3.12,0,0,1-2.051-1,2.949,2.949,0,0,1-.527-2.484h1.539A1.913,1.913,0,0,0,40,32.387a2.03,2.03,0,0,0,1.43.488,2.646,2.646,0,0,0,1.625-.488A1.915,1.915,0,0,0,43.832,31.063Zm9.656-.891h1.578l-.187,1.2h-1.57L52.918,34H51.387l.391-2.625H46.895l.133-.867L53,22.625h1.625Zm-4.758,0h3.227l.8-5.312-.039-.016-.2.375Zm14.945-.187a5.235,5.235,0,0,1-1.437,3.09,3.888,3.888,0,0,1-2.8,1.09A2.863,2.863,0,0,1,57,33.027a3.926,3.926,0,0,1-.562-3.043l.5-3.344a5.2,5.2,0,0,1,1.438-3.082,3.89,3.89,0,0,1,2.8-1.1A2.846,2.846,0,0,1,63.613,23.6a3.967,3.967,0,0,1,.563,3.039Zm-.992-3.664a2.859,2.859,0,0,0-.25-1.961,1.581,1.581,0,0,0-1.445-.687,2.123,2.123,0,0,0-1.613.719,3.556,3.556,0,0,0-.855,1.93L57.926,30.3a2.845,2.845,0,0,0,.246,1.969,1.577,1.577,0,0,0,1.441.7,2.126,2.126,0,0,0,1.621-.723A3.585,3.585,0,0,0,62.09,30.3ZM66.754,34H65.215l.234-1.578h1.539Zm10.211-4.016a5.235,5.235,0,0,1-1.437,3.09,3.888,3.888,0,0,1-2.8,1.09,2.863,2.863,0,0,1-2.437-1.137,3.926,3.926,0,0,1-.562-3.043l.5-3.344a5.2,5.2,0,0,1,1.438-3.082,3.89,3.89,0,0,1,2.8-1.1A2.846,2.846,0,0,1,76.9,23.6a3.967,3.967,0,0,1,.563,3.039Zm-.992-3.664a2.859,2.859,0,0,0-.25-1.961,1.581,1.581,0,0,0-1.445-.687,2.123,2.123,0,0,0-1.613.719,3.556,3.556,0,0,0-.855,1.93L71.215,30.3a2.845,2.845,0,0,0,.246,1.969,1.577,1.577,0,0,0,1.441.7,2.126,2.126,0,0,0,1.621-.723,3.585,3.585,0,0,0,.855-1.941Zm10,3.664a5.235,5.235,0,0,1-1.437,3.09,3.888,3.888,0,0,1-2.8,1.09,2.863,2.863,0,0,1-2.437-1.137,3.926,3.926,0,0,1-.562-3.043l.5-3.344a5.2,5.2,0,0,1,1.438-3.082,3.89,3.89,0,0,1,2.8-1.1A2.846,2.846,0,0,1,85.91,23.6a3.967,3.967,0,0,1,.563,3.039ZM84.98,26.32a2.859,2.859,0,0,0-.25-1.961,1.581,1.581,0,0,0-1.445-.687,2.123,2.123,0,0,0-1.613.719,3.556,3.556,0,0,0-.855,1.93L80.223,30.3a2.845,2.845,0,0,0,.246,1.969,1.577,1.577,0,0,0,1.441.7,2.126,2.126,0,0,0,1.621-.723,3.585,3.585,0,0,0,.855-1.941Zm10,3.664a5.235,5.235,0,0,1-1.437,3.09,3.888,3.888,0,0,1-2.8,1.09A2.863,2.863,0,0,1,88.3,33.027a3.926,3.926,0,0,1-.562-3.043l.5-3.344a5.2,5.2,0,0,1,1.438-3.082,3.89,3.89,0,0,1,2.8-1.1A2.846,2.846,0,0,1,94.918,23.6a3.967,3.967,0,0,1,.563,3.039Zm-.992-3.664a2.859,2.859,0,0,0-.25-1.961,1.581,1.581,0,0,0-1.445-.687,2.123,2.123,0,0,0-1.613.719,3.556,3.556,0,0,0-.855,1.93L89.23,30.3a2.845,2.845,0,0,0,.246,1.969,1.577,1.577,0,0,0,1.441.7,2.126,2.126,0,0,0,1.621-.723,3.585,3.585,0,0,0,.855-1.941Zm11.8,3.477h-4.609l.18-1.2h4.609Zm11.852,1.266a1.478,1.478,0,0,0-.324-1.211,3.611,3.611,0,0,0-1.527-.875,4.768,4.768,0,0,1-2.2-1.273,2.542,2.542,0,0,1-.508-2.125,3.442,3.442,0,0,1,1.031-2.133,3.73,3.73,0,0,1,2.18-.953l.242-1.719h1.234l-.242,1.734a2.576,2.576,0,0,1,1.852,1.09,3.375,3.375,0,0,1,.414,2.387h-1.531A2.315,2.315,0,0,0,118,24.359a1.424,1.424,0,0,0-1.281-.6,1.985,1.985,0,0,0-2.1,1.8,1.47,1.47,0,0,0,.3,1.238,3.977,3.977,0,0,0,1.594.879,4.9,4.9,0,0,1,2.191,1.285,2.544,2.544,0,0,1,.48,2.09,3.351,3.351,0,0,1-1.1,2.168,4.084,4.084,0,0,1-2.352.91l-.2,1.5h-1.227l.2-1.492a3.12,3.12,0,0,1-2.051-1,2.949,2.949,0,0,1-.527-2.484h1.539a1.913,1.913,0,0,0,.352,1.738,2.03,2.03,0,0,0,1.43.488,2.646,2.646,0,0,0,1.625-.488A1.915,1.915,0,0,0,117.637,31.063Zm6.336-3.531h1.266a2.064,2.064,0,0,0,1.512-.52,2.467,2.467,0,0,0,.668-1.426,1.823,1.823,0,0,0-.25-1.4,1.536,1.536,0,0,0-1.312-.512,2.374,2.374,0,0,0-1.543.559,2.119,2.119,0,0,0-.8,1.371h-1.469l-.016-.047a3.228,3.228,0,0,1,1.3-2.211,4.29,4.29,0,0,1,2.719-.883,3.143,3.143,0,0,1,2.328.809,2.612,2.612,0,0,1,.578,2.348,3.1,3.1,0,0,1-.641,1.488,3.359,3.359,0,0,1-1.328,1,2.282,2.282,0,0,1,1.148,1.055,2.747,2.747,0,0,1,.211,1.664,3.707,3.707,0,0,1-1.352,2.48,4.274,4.274,0,0,1-2.7.855,3.562,3.562,0,0,1-2.4-.863,2.251,2.251,0,0,1-.754-2.254l.016-.047h1.477A1.6,1.6,0,0,0,123,32.41a1.9,1.9,0,0,0,1.465.551,2.206,2.206,0,0,0,1.543-.59,2.491,2.491,0,0,0,.785-1.512,2.07,2.07,0,0,0-.25-1.621,1.821,1.821,0,0,0-1.484-.512h-1.266l.039-.25.1-.687Zm6.906,1.414,1.6-6.32h5.7l-.2,1.367h-4.4l-.859,3.273a4.171,4.171,0,0,1,.879-.449,3.1,3.1,0,0,1,1.043-.184,2.67,2.67,0,0,1,2.324.988,3.6,3.6,0,0,1,.488,2.754,4.693,4.693,0,0,1-1.332,2.781,3.937,3.937,0,0,1-2.832,1.008,3.212,3.212,0,0,1-2.262-.793,2.412,2.412,0,0,1-.605-2.324l.016-.039h1.4a1.679,1.679,0,0,0,.309,1.457,1.711,1.711,0,0,0,1.324.5,2.122,2.122,0,0,0,1.6-.7,3.384,3.384,0,0,0,.84-1.875,2.485,2.485,0,0,0-.273-1.777,1.578,1.578,0,0,0-1.414-.652,2.616,2.616,0,0,0-1.336.281,1.946,1.946,0,0,0-.742.836ZM140.559,34H139.02l.234-1.578h1.539Zm10.211-4.016a5.235,5.235,0,0,1-1.437,3.09,3.888,3.888,0,0,1-2.8,1.09,2.863,2.863,0,0,1-2.437-1.137,3.926,3.926,0,0,1-.562-3.043l.5-3.344a5.2,5.2,0,0,1,1.438-3.082,3.89,3.89,0,0,1,2.8-1.1,2.846,2.846,0,0,1,2.438,1.141,3.967,3.967,0,0,1,.563,3.039Zm-.992-3.664a2.859,2.859,0,0,0-.25-1.961,1.581,1.581,0,0,0-1.445-.687,2.123,2.123,0,0,0-1.613.719,3.556,3.556,0,0,0-.855,1.93L145.02,30.3a2.845,2.845,0,0,0,.246,1.969,1.577,1.577,0,0,0,1.441.7,2.126,2.126,0,0,0,1.621-.723,3.585,3.585,0,0,0,.855-1.941Zm10,3.664a5.235,5.235,0,0,1-1.437,3.09,3.888,3.888,0,0,1-2.8,1.09,2.863,2.863,0,0,1-2.437-1.137,3.926,3.926,0,0,1-.562-3.043l.5-3.344a5.2,5.2,0,0,1,1.438-3.082,3.89,3.89,0,0,1,2.8-1.1,2.846,2.846,0,0,1,2.438,1.141,3.967,3.967,0,0,1,.563,3.039Zm-.992-3.664a2.859,2.859,0,0,0-.25-1.961,1.581,1.581,0,0,0-1.445-.687,2.123,2.123,0,0,0-1.613.719,3.556,3.556,0,0,0-.855,1.93l-.594,3.977a2.845,2.845,0,0,0,.246,1.969,1.577,1.577,0,0,0,1.441.7,2.126,2.126,0,0,0,1.621-.723,3.585,3.585,0,0,0,.855-1.941Zm10,3.664a5.235,5.235,0,0,1-1.437,3.09,3.888,3.888,0,0,1-2.8,1.09,2.863,2.863,0,0,1-2.437-1.137,3.926,3.926,0,0,1-.562-3.043l.5-3.344a5.2,5.2,0,0,1,1.438-3.082,3.89,3.89,0,0,1,2.8-1.1,2.846,2.846,0,0,1,2.438,1.141,3.967,3.967,0,0,1,.563,3.039Zm-.992-3.664a2.859,2.859,0,0,0-.25-1.961,1.581,1.581,0,0,0-1.445-.687,2.123,2.123,0,0,0-1.613.719,3.556,3.556,0,0,0-.855,1.93l-.594,3.977a2.845,2.845,0,0,0,.246,1.969,1.577,1.577,0,0,0,1.441.7,2.126,2.126,0,0,0,1.621-.723A3.585,3.585,0,0,0,167.2,30.3Zm6.188,3.133a11.73,11.73,0,0,1-1.973,5.32,8.822,8.822,0,0,1-3.02,2.844l-.047-.008-.18-.836a8.091,8.091,0,0,0,2.234-2.7,12.974,12.974,0,0,0,1.445-4.605l.016-.1a10.855,10.855,0,0,0-.164-4.605,6.226,6.226,0,0,0-1.469-2.7l.414-.844h.047a5.924,5.924,0,0,1,2.2,2.906A9.745,9.745,0,0,1,174,29.383Z" transform="translate(353.051 830.074)" fill="#12263f"/>
        <path id="Trazado_908124" data-name="Trazado 908124" d="M18.789,10.438,18.109,15H16.57l1.7-11.375h4.352a3.5,3.5,0,0,1,2.652.945,2.794,2.794,0,0,1,.684,2.461,3.815,3.815,0,0,1-1.379,2.508,4.633,4.633,0,0,1-2.973.9Zm.18-1.2h2.82a2.518,2.518,0,0,0,2.625-2.187,2.042,2.042,0,0,0-.332-1.594,1.94,1.94,0,0,0-1.637-.617H19.633Zm14.773.492H29.07l-.609,4.07H33.93L33.75,15H26.742l1.7-11.375h6.922l-.18,1.211H29.8l-.547,3.68h4.68Zm11.219.6a6.458,6.458,0,0,1-.523,1.738,5.638,5.638,0,0,1-.937,1.418l1.43,1.625-1.2,1.008-1.469-1.641a4.962,4.962,0,0,1-1.27.516,5.667,5.667,0,0,1-1.4.172,3.575,3.575,0,0,1-3-1.387,4.337,4.337,0,0,1-.762-3.449l.3-2.023a5.782,5.782,0,0,1,1.758-3.5,4.886,4.886,0,0,1,3.453-1.34,3.767,3.767,0,0,1,3.1,1.395,4.257,4.257,0,0,1,.82,3.449ZM43.727,8.289a3.493,3.493,0,0,0-.453-2.59,2.425,2.425,0,0,0-2.125-.973,3.07,3.07,0,0,0-2.27,1.012,4.5,4.5,0,0,0-1.207,2.551l-.3,2.039a3.608,3.608,0,0,0,.4,2.605,2.244,2.244,0,0,0,2.008.973A3.283,3.283,0,0,0,42.164,12.9a4.477,4.477,0,0,0,1.258-2.57Zm14.3.281H51.516l.2-1.281h6.516Zm-.484,3.25H51.031l.2-1.281h6.516Z" transform="translate(287.051 839.074)" fill="#12263f"/>
        <path id="Trazado_908125" data-name="Trazado 908125" d="M0,0H209.384" transform="translate(350.897 848.574)" fill="none" stroke="#12263f" stroke-width="1"/>
        <path id="Trazado_908126" data-name="Trazado 908126" d="M21.613,12.063a1.478,1.478,0,0,0-.324-1.211,3.611,3.611,0,0,0-1.527-.875,4.768,4.768,0,0,1-2.2-1.273,2.542,2.542,0,0,1-.508-2.125,3.442,3.442,0,0,1,1.031-2.133,3.73,3.73,0,0,1,2.18-.953L20.5,1.773h1.234L21.5,3.508A2.576,2.576,0,0,1,23.348,4.6a3.375,3.375,0,0,1,.414,2.387H22.23a2.315,2.315,0,0,0-.258-1.625,1.424,1.424,0,0,0-1.281-.6,1.985,1.985,0,0,0-2.1,1.8,1.47,1.47,0,0,0,.3,1.238,3.977,3.977,0,0,0,1.594.879,4.9,4.9,0,0,1,2.191,1.285,2.544,2.544,0,0,1,.48,2.09,3.351,3.351,0,0,1-1.1,2.168,4.084,4.084,0,0,1-2.352.91l-.2,1.5H18.27l.2-1.492a3.12,3.12,0,0,1-2.051-1,2.949,2.949,0,0,1-.527-2.484h1.539a1.913,1.913,0,0,0,.352,1.738,2.03,2.03,0,0,0,1.43.488,2.646,2.646,0,0,0,1.625-.488A1.915,1.915,0,0,0,21.613,12.063Zm4.234-2.117,1.6-6.32h5.7l-.2,1.367h-4.4l-.859,3.273a4.172,4.172,0,0,1,.879-.449,3.1,3.1,0,0,1,1.043-.184,2.67,2.67,0,0,1,2.324.988,3.6,3.6,0,0,1,.488,2.754,4.693,4.693,0,0,1-1.332,2.781,3.937,3.937,0,0,1-2.832,1.008,3.212,3.212,0,0,1-2.262-.793,2.412,2.412,0,0,1-.605-2.324l.016-.039h1.4a1.679,1.679,0,0,0,.309,1.457,1.711,1.711,0,0,0,1.324.5,2.122,2.122,0,0,0,1.6-.7,3.384,3.384,0,0,0,.84-1.875A2.485,2.485,0,0,0,30.6,9.613a1.578,1.578,0,0,0-1.414-.652,2.616,2.616,0,0,0-1.336.281,1.946,1.946,0,0,0-.742.836Zm15.609,1.039a5.235,5.235,0,0,1-1.437,3.09,3.888,3.888,0,0,1-2.8,1.09,2.863,2.863,0,0,1-2.437-1.137,3.926,3.926,0,0,1-.562-3.043l.5-3.344a5.2,5.2,0,0,1,1.438-3.082,3.89,3.89,0,0,1,2.8-1.1A2.846,2.846,0,0,1,41.395,4.6a3.967,3.967,0,0,1,.563,3.039ZM40.465,7.32a2.859,2.859,0,0,0-.25-1.961,1.581,1.581,0,0,0-1.445-.687,2.123,2.123,0,0,0-1.613.719A3.556,3.556,0,0,0,36.3,7.32L35.707,11.3a2.845,2.845,0,0,0,.246,1.969,1.577,1.577,0,0,0,1.441.7,2.126,2.126,0,0,0,1.621-.723,3.585,3.585,0,0,0,.855-1.941ZM44.535,15H43l.234-1.578H44.77Zm10.211-4.016a5.235,5.235,0,0,1-1.437,3.09,3.888,3.888,0,0,1-2.8,1.09,2.863,2.863,0,0,1-2.437-1.137,3.926,3.926,0,0,1-.562-3.043L48,7.641a5.2,5.2,0,0,1,1.438-3.082,3.89,3.89,0,0,1,2.8-1.1A2.846,2.846,0,0,1,54.684,4.6a3.967,3.967,0,0,1,.563,3.039ZM53.754,7.32a2.859,2.859,0,0,0-.25-1.961,1.581,1.581,0,0,0-1.445-.687,2.123,2.123,0,0,0-1.613.719,3.556,3.556,0,0,0-.855,1.93L49,11.3a2.845,2.845,0,0,0,.246,1.969,1.577,1.577,0,0,0,1.441.7,2.126,2.126,0,0,0,1.621-.723A3.585,3.585,0,0,0,53.16,11.3Zm10,3.664a5.235,5.235,0,0,1-1.437,3.09,3.888,3.888,0,0,1-2.8,1.09,2.863,2.863,0,0,1-2.437-1.137,3.926,3.926,0,0,1-.562-3.043l.5-3.344a5.2,5.2,0,0,1,1.438-3.082,3.89,3.89,0,0,1,2.8-1.1A2.846,2.846,0,0,1,63.691,4.6a3.967,3.967,0,0,1,.563,3.039ZM62.762,7.32a2.859,2.859,0,0,0-.25-1.961,1.581,1.581,0,0,0-1.445-.687,2.123,2.123,0,0,0-1.613.719A3.556,3.556,0,0,0,58.6,7.32L58,11.3a2.845,2.845,0,0,0,.246,1.969,1.577,1.577,0,0,0,1.441.7,2.126,2.126,0,0,0,1.621-.723,3.585,3.585,0,0,0,.855-1.941Zm10,3.664a5.235,5.235,0,0,1-1.437,3.09,3.888,3.888,0,0,1-2.8,1.09,2.863,2.863,0,0,1-2.437-1.137,3.926,3.926,0,0,1-.562-3.043l.5-3.344a5.2,5.2,0,0,1,1.438-3.082,3.89,3.89,0,0,1,2.8-1.1A2.846,2.846,0,0,1,72.7,4.6a3.967,3.967,0,0,1,.563,3.039ZM71.77,7.32a2.859,2.859,0,0,0-.25-1.961,1.581,1.581,0,0,0-1.445-.687,2.123,2.123,0,0,0-1.613.719,3.556,3.556,0,0,0-.855,1.93L67.012,11.3a2.845,2.845,0,0,0,.246,1.969,1.577,1.577,0,0,0,1.441.7,2.126,2.126,0,0,0,1.621-.723,3.585,3.585,0,0,0,.855-1.941ZM75.84,15H74.3l.234-1.578h1.539Zm10.211-4.016a5.235,5.235,0,0,1-1.437,3.09,3.888,3.888,0,0,1-2.8,1.09,2.863,2.863,0,0,1-2.437-1.137,3.926,3.926,0,0,1-.562-3.043l.5-3.344a5.2,5.2,0,0,1,1.438-3.082,3.89,3.89,0,0,1,2.8-1.1A2.846,2.846,0,0,1,85.988,4.6a3.967,3.967,0,0,1,.563,3.039ZM85.059,7.32a2.859,2.859,0,0,0-.25-1.961,1.581,1.581,0,0,0-1.445-.687,2.123,2.123,0,0,0-1.613.719,3.556,3.556,0,0,0-.855,1.93L80.3,11.3a2.845,2.845,0,0,0,.246,1.969,1.577,1.577,0,0,0,1.441.7,2.126,2.126,0,0,0,1.621-.723,3.585,3.585,0,0,0,.855-1.941Zm10,3.664a5.235,5.235,0,0,1-1.437,3.09,3.888,3.888,0,0,1-2.8,1.09,2.863,2.863,0,0,1-2.437-1.137,3.926,3.926,0,0,1-.562-3.043l.5-3.344a5.2,5.2,0,0,1,1.438-3.082,3.89,3.89,0,0,1,2.8-1.1A2.846,2.846,0,0,1,95,4.6a3.967,3.967,0,0,1,.563,3.039ZM94.066,7.32a2.859,2.859,0,0,0-.25-1.961,1.581,1.581,0,0,0-1.445-.687,2.123,2.123,0,0,0-1.613.719A3.556,3.556,0,0,0,89.9,7.32L89.309,11.3a2.845,2.845,0,0,0,.246,1.969,1.577,1.577,0,0,0,1.441.7,2.126,2.126,0,0,0,1.621-.723,3.585,3.585,0,0,0,.855-1.941Zm10,3.664a5.235,5.235,0,0,1-1.437,3.09,3.888,3.888,0,0,1-2.8,1.09,2.863,2.863,0,0,1-2.437-1.137,3.926,3.926,0,0,1-.562-3.043l.5-3.344a5.2,5.2,0,0,1,1.438-3.082,3.89,3.89,0,0,1,2.8-1.1A2.846,2.846,0,0,1,104,4.6a3.967,3.967,0,0,1,.563,3.039Zm-.992-3.664a2.859,2.859,0,0,0-.25-1.961,1.581,1.581,0,0,0-1.445-.687,2.123,2.123,0,0,0-1.613.719,3.556,3.556,0,0,0-.855,1.93L98.316,11.3a2.845,2.845,0,0,0,.246,1.969,1.577,1.577,0,0,0,1.441.7,2.126,2.126,0,0,0,1.621-.723,3.585,3.585,0,0,0,.855-1.941ZM30.941,29.383a11.684,11.684,0,0,1,1.965-5.316,8.782,8.782,0,0,1,3.027-2.848l.047.008.172.906a8.17,8.17,0,0,0-2.242,2.68,12.607,12.607,0,0,0-1.43,4.555l-.016.1a11.079,11.079,0,0,0,.129,4.6,6.02,6.02,0,0,0,1.5,2.7l-.414.844h-.047a5.9,5.9,0,0,1-2.207-2.9,9.705,9.705,0,0,1-.5-5.262Zm10.8,1.68a1.478,1.478,0,0,0-.324-1.211,3.611,3.611,0,0,0-1.527-.875,4.768,4.768,0,0,1-2.2-1.273,2.542,2.542,0,0,1-.508-2.125,3.442,3.442,0,0,1,1.031-2.133,3.73,3.73,0,0,1,2.18-.953l.242-1.719h1.234l-.242,1.734a2.576,2.576,0,0,1,1.852,1.09,3.375,3.375,0,0,1,.414,2.387H42.355a2.315,2.315,0,0,0-.258-1.625,1.424,1.424,0,0,0-1.281-.6,1.985,1.985,0,0,0-2.1,1.8,1.47,1.47,0,0,0,.3,1.238,3.977,3.977,0,0,0,1.594.879A4.9,4.9,0,0,1,42.8,28.957a2.544,2.544,0,0,1,.48,2.09,3.351,3.351,0,0,1-1.1,2.168,4.084,4.084,0,0,1-2.352.91l-.2,1.5H38.395l.2-1.492a3.12,3.12,0,0,1-2.051-1,2.949,2.949,0,0,1-.527-2.484h1.539a1.913,1.913,0,0,0,.352,1.738,2.03,2.03,0,0,0,1.43.488,2.646,2.646,0,0,0,1.625-.488A1.915,1.915,0,0,0,41.738,31.063Zm4.234-2.117,1.6-6.32h5.7l-.2,1.367h-4.4l-.859,3.273a4.172,4.172,0,0,1,.879-.449,3.1,3.1,0,0,1,1.043-.184,2.67,2.67,0,0,1,2.324.988,3.6,3.6,0,0,1,.488,2.754,4.693,4.693,0,0,1-1.332,2.781,3.937,3.937,0,0,1-2.832,1.008,3.212,3.212,0,0,1-2.262-.793,2.412,2.412,0,0,1-.605-2.324l.016-.039h1.4a1.679,1.679,0,0,0,.309,1.457,1.711,1.711,0,0,0,1.324.5,2.122,2.122,0,0,0,1.6-.7A3.384,3.384,0,0,0,51,30.391a2.485,2.485,0,0,0-.273-1.777,1.578,1.578,0,0,0-1.414-.652,2.616,2.616,0,0,0-1.336.281,1.946,1.946,0,0,0-.742.836ZM55.652,34H54.113l.234-1.578h1.539Zm10.211-4.016a5.235,5.235,0,0,1-1.437,3.09,3.888,3.888,0,0,1-2.8,1.09,2.863,2.863,0,0,1-2.437-1.137,3.926,3.926,0,0,1-.562-3.043l.5-3.344a5.2,5.2,0,0,1,1.438-3.082,3.89,3.89,0,0,1,2.8-1.1A2.846,2.846,0,0,1,65.8,23.6a3.967,3.967,0,0,1,.563,3.039Zm-.992-3.664a2.859,2.859,0,0,0-.25-1.961,1.581,1.581,0,0,0-1.445-.687,2.123,2.123,0,0,0-1.613.719,3.556,3.556,0,0,0-.855,1.93L60.113,30.3a2.845,2.845,0,0,0,.246,1.969,1.577,1.577,0,0,0,1.441.7,2.126,2.126,0,0,0,1.621-.723,3.585,3.585,0,0,0,.855-1.941Zm10,3.664a5.235,5.235,0,0,1-1.437,3.09,3.888,3.888,0,0,1-2.8,1.09,2.863,2.863,0,0,1-2.437-1.137,3.926,3.926,0,0,1-.562-3.043l.5-3.344a5.2,5.2,0,0,1,1.438-3.082,3.89,3.89,0,0,1,2.8-1.1A2.846,2.846,0,0,1,74.809,23.6a3.967,3.967,0,0,1,.563,3.039Zm-.992-3.664a2.859,2.859,0,0,0-.25-1.961,1.581,1.581,0,0,0-1.445-.687,2.123,2.123,0,0,0-1.613.719,3.556,3.556,0,0,0-.855,1.93L69.121,30.3a2.845,2.845,0,0,0,.246,1.969,1.577,1.577,0,0,0,1.441.7,2.126,2.126,0,0,0,1.621-.723,3.585,3.585,0,0,0,.855-1.941Zm10,3.664a5.235,5.235,0,0,1-1.437,3.09,3.888,3.888,0,0,1-2.8,1.09A2.863,2.863,0,0,1,77.2,33.027a3.926,3.926,0,0,1-.562-3.043l.5-3.344a5.2,5.2,0,0,1,1.438-3.082,3.89,3.89,0,0,1,2.8-1.1A2.846,2.846,0,0,1,83.816,23.6a3.967,3.967,0,0,1,.563,3.039Zm-.992-3.664a2.859,2.859,0,0,0-.25-1.961,1.581,1.581,0,0,0-1.445-.687,2.123,2.123,0,0,0-1.613.719,3.556,3.556,0,0,0-.855,1.93L78.129,30.3a2.845,2.845,0,0,0,.246,1.969,1.577,1.577,0,0,0,1.441.7,2.126,2.126,0,0,0,1.621-.723,3.585,3.585,0,0,0,.855-1.941Zm6.188,3.133a11.73,11.73,0,0,1-1.973,5.32,8.822,8.822,0,0,1-3.02,2.844l-.047-.008-.18-.836a8.091,8.091,0,0,0,2.234-2.7,12.974,12.974,0,0,0,1.445-4.605l.016-.1a10.855,10.855,0,0,0-.164-4.605,6.225,6.225,0,0,0-1.469-2.7l.414-.844h.047a5.924,5.924,0,0,1,2.2,2.906,9.745,9.745,0,0,1,.512,5.258Z" transform="translate(399.051 897.074)" fill="#12263f"/>
        <path id="Trazado_908127" data-name="Trazado 908127" d="M18.789,10.438,18.109,15H16.57l1.7-11.375h4.352a3.5,3.5,0,0,1,2.652.945,2.794,2.794,0,0,1,.684,2.461,3.815,3.815,0,0,1-1.379,2.508,4.633,4.633,0,0,1-2.973.9Zm.18-1.2h2.82a2.518,2.518,0,0,0,2.625-2.187,2.042,2.042,0,0,0-.332-1.594,1.94,1.94,0,0,0-1.637-.617H19.633Zm14.773.492H29.07l-.609,4.07H33.93L33.75,15H26.742l1.7-11.375h6.922l-.18,1.211H29.8l-.547,3.68h4.68Zm11.219.6a6.458,6.458,0,0,1-.523,1.738,5.638,5.638,0,0,1-.937,1.418l1.43,1.625-1.2,1.008-1.469-1.641a4.962,4.962,0,0,1-1.27.516,5.667,5.667,0,0,1-1.4.172,3.575,3.575,0,0,1-3-1.387,4.337,4.337,0,0,1-.762-3.449l.3-2.023a5.782,5.782,0,0,1,1.758-3.5,4.886,4.886,0,0,1,3.453-1.34,3.767,3.767,0,0,1,3.1,1.395,4.257,4.257,0,0,1,.82,3.449ZM43.727,8.289a3.493,3.493,0,0,0-.453-2.59,2.425,2.425,0,0,0-2.125-.973,3.07,3.07,0,0,0-2.27,1.012,4.5,4.5,0,0,0-1.207,2.551l-.3,2.039a3.608,3.608,0,0,0,.4,2.605,2.244,2.244,0,0,0,2.008.973A3.283,3.283,0,0,0,42.164,12.9a4.477,4.477,0,0,0,1.258-2.57Zm14.3.281H51.516l.2-1.281h6.516Zm-.484,3.25H51.031l.2-1.281h6.516Z" transform="translate(327.051 906.074)" fill="#12263f"/>
        <path id="Trazado_908128" data-name="Trazado 908128" d="M0,0H126" transform="translate(394.499 915.574)" fill="none" stroke="#12263f" stroke-width="1"/>
        <path id="Trazado_908129" data-name="Trazado 908129" d="M18.746,10.438,18.066,15H16.527l1.7-11.375h4.352a3.5,3.5,0,0,1,2.652.945,2.794,2.794,0,0,1,.684,2.461,3.815,3.815,0,0,1-1.379,2.508,4.633,4.633,0,0,1-2.973.9Zm.18-1.2h2.82a2.518,2.518,0,0,0,2.625-2.187,2.042,2.042,0,0,0-.332-1.594A1.94,1.94,0,0,0,22.4,4.836H19.59ZM33.7,9.727H29.027l-.609,4.07h5.469l-.18,1.2H26.7L28.4,3.625h6.922l-.18,1.211H29.754l-.547,3.68h4.68Zm11.219.6a6.458,6.458,0,0,1-.523,1.738,5.638,5.638,0,0,1-.937,1.418l1.43,1.625-1.2,1.008-1.469-1.641a4.962,4.962,0,0,1-1.27.516,5.667,5.667,0,0,1-1.4.172,3.575,3.575,0,0,1-3-1.387,4.337,4.337,0,0,1-.762-3.449l.3-2.023a5.782,5.782,0,0,1,1.758-3.5A4.886,4.886,0,0,1,41.3,3.461a3.767,3.767,0,0,1,3.1,1.395,4.257,4.257,0,0,1,.82,3.449ZM43.684,8.289A3.493,3.493,0,0,0,43.23,5.7a2.425,2.425,0,0,0-2.125-.973,3.07,3.07,0,0,0-2.27,1.012,4.5,4.5,0,0,0-1.207,2.551l-.3,2.039a3.608,3.608,0,0,0,.4,2.605,2.244,2.244,0,0,0,2.008.973A3.283,3.283,0,0,0,42.121,12.9a4.477,4.477,0,0,0,1.258-2.57Zm14.3.281H51.473l.2-1.281h6.516ZM57.5,11.82H50.988l.2-1.281H57.7ZM67.855,15H66.309L67.8,5.047l-2.477.023L65.5,3.883l4.094-.422Zm12.188-4.016a5.235,5.235,0,0,1-1.437,3.09,3.888,3.888,0,0,1-2.8,1.09,2.863,2.863,0,0,1-2.437-1.137,3.926,3.926,0,0,1-.562-3.043l.5-3.344a5.2,5.2,0,0,1,1.438-3.082,3.89,3.89,0,0,1,2.8-1.1A2.846,2.846,0,0,1,79.98,4.6a3.967,3.967,0,0,1,.563,3.039ZM79.051,7.32a2.859,2.859,0,0,0-.25-1.961,1.581,1.581,0,0,0-1.445-.687,2.123,2.123,0,0,0-1.613.719,3.556,3.556,0,0,0-.855,1.93L74.293,11.3a2.845,2.845,0,0,0,.246,1.969,1.577,1.577,0,0,0,1.441.7,2.126,2.126,0,0,0,1.621-.723,3.585,3.585,0,0,0,.855-1.941ZM83.121,15H81.582l.234-1.578h1.539Zm10.211-4.016a5.235,5.235,0,0,1-1.437,3.09,3.888,3.888,0,0,1-2.8,1.09,2.863,2.863,0,0,1-2.437-1.137,3.926,3.926,0,0,1-.562-3.043l.5-3.344a5.2,5.2,0,0,1,1.438-3.082,3.89,3.89,0,0,1,2.8-1.1A2.846,2.846,0,0,1,93.27,4.6a3.967,3.967,0,0,1,.563,3.039ZM92.34,7.32a2.859,2.859,0,0,0-.25-1.961,1.581,1.581,0,0,0-1.445-.687,2.123,2.123,0,0,0-1.613.719,3.556,3.556,0,0,0-.855,1.93L87.582,11.3a2.845,2.845,0,0,0,.246,1.969,1.577,1.577,0,0,0,1.441.7,2.126,2.126,0,0,0,1.621-.723,3.585,3.585,0,0,0,.855-1.941Zm10,3.664a5.235,5.235,0,0,1-1.437,3.09,3.888,3.888,0,0,1-2.8,1.09,2.863,2.863,0,0,1-2.437-1.137,3.926,3.926,0,0,1-.562-3.043l.5-3.344a5.2,5.2,0,0,1,1.438-3.082,3.89,3.89,0,0,1,2.8-1.1A2.846,2.846,0,0,1,102.277,4.6a3.967,3.967,0,0,1,.563,3.039Zm-.992-3.664a2.859,2.859,0,0,0-.25-1.961,1.581,1.581,0,0,0-1.445-.687,2.123,2.123,0,0,0-1.613.719,3.556,3.556,0,0,0-.855,1.93L96.59,11.3a2.845,2.845,0,0,0,.246,1.969,1.577,1.577,0,0,0,1.441.7,2.126,2.126,0,0,0,1.621-.723,3.585,3.585,0,0,0,.855-1.941Zm10,3.664a5.235,5.235,0,0,1-1.437,3.09,3.888,3.888,0,0,1-2.8,1.09,2.863,2.863,0,0,1-2.437-1.137,3.926,3.926,0,0,1-.562-3.043l.5-3.344a5.2,5.2,0,0,1,1.438-3.082,3.89,3.89,0,0,1,2.8-1.1A2.846,2.846,0,0,1,111.285,4.6a3.967,3.967,0,0,1,.563,3.039Zm-.992-3.664a2.859,2.859,0,0,0-.25-1.961,1.581,1.581,0,0,0-1.445-.687,2.123,2.123,0,0,0-1.613.719,3.556,3.556,0,0,0-.855,1.93L105.6,11.3a2.845,2.845,0,0,0,.246,1.969,1.577,1.577,0,0,0,1.441.7,2.126,2.126,0,0,0,1.621-.723,3.585,3.585,0,0,0,.855-1.941ZM122.191,15l.086-1.211a3.446,3.446,0,0,1-1.176,1.023,3.209,3.209,0,0,1-1.5.352,2.33,2.33,0,0,1-2-.895,3.643,3.643,0,0,1-.383-2.738l.742-4.984H119.5l-.75,5a2.963,2.963,0,0,0,.109,1.883,1.311,1.311,0,0,0,1.18.484,2.606,2.606,0,0,0,2.367-1.328l.9-6.039h1.539L123.574,15Zm6.2-7.242a3.653,3.653,0,0,1,1.207-1.012,3.241,3.241,0,0,1,1.5-.355,2.384,2.384,0,0,1,1.973.809,3.111,3.111,0,0,1,.4,2.465l-.8,5.336h-1.539l.8-5.3a2.11,2.11,0,0,0-.2-1.605,1.585,1.585,0,0,0-1.289-.449,2.518,2.518,0,0,0-1.234.3,2.729,2.729,0,0,0-.922.832L127.355,15h-1.539l1.266-8.453h1.375ZM136.574,15h-1.539L136.3,6.547h1.539Zm1.594-10.617h-1.539l.234-1.57H138.4ZM139.2,10.93A6.411,6.411,0,0,1,140.559,7.6a3.334,3.334,0,0,1,2.633-1.211,2.617,2.617,0,0,1,1.262.289,2.29,2.29,0,0,1,.871.836l.7-4.7h1.539L145.738,15h-1.18l-.07-1.07a3.432,3.432,0,0,1-1.164.922,3.355,3.355,0,0,1-1.461.313,2.473,2.473,0,0,1-2.227-1.133,4.13,4.13,0,0,1-.461-2.937Zm1.516.164a3.283,3.283,0,0,0,.207,2.07,1.575,1.575,0,0,0,1.52.75,2.229,2.229,0,0,0,1.188-.32,3.028,3.028,0,0,0,.914-.891l.586-3.914a1.906,1.906,0,0,0-.645-.84,1.811,1.811,0,0,0-1.09-.309,2.105,2.105,0,0,0-1.754.926,5.128,5.128,0,0,0-.9,2.363ZM153.23,15q-.016-.438-.016-.707a4.988,4.988,0,0,1,.031-.551,4.564,4.564,0,0,1-1.277,1.012,3.193,3.193,0,0,1-1.543.41,2.41,2.41,0,0,1-1.887-.684,2.155,2.155,0,0,1-.434-1.855,2.584,2.584,0,0,1,1.25-1.914,5.194,5.194,0,0,1,2.773-.664H153.8l.125-.836a1.369,1.369,0,0,0-.27-1.191,1.593,1.593,0,0,0-1.223-.418,2.134,2.134,0,0,0-1.25.375,1.3,1.3,0,0,0-.609.9l-1.469.016-.008-.047a2.422,2.422,0,0,1,1.117-1.707,4.1,4.1,0,0,1,2.484-.746,3.053,3.053,0,0,1,2.172.738,2.258,2.258,0,0,1,.594,2.1l-.609,4.07a6.686,6.686,0,0,0-.09.887,4.51,4.51,0,0,0,.051.816Zm-2.383-1.125a3.032,3.032,0,0,0,1.547-.437,2.613,2.613,0,0,0,1.039-.984l.211-1.367h-1.727a2.54,2.54,0,0,0-1.547.477,1.651,1.651,0,0,0-.734,1.094,1.011,1.011,0,0,0,.207.9A1.341,1.341,0,0,0,150.848,13.875Zm6.242-2.945A6.411,6.411,0,0,1,158.449,7.6a3.334,3.334,0,0,1,2.633-1.211,2.617,2.617,0,0,1,1.262.289,2.29,2.29,0,0,1,.871.836l.7-4.7h1.539L163.629,15h-1.18l-.07-1.07a3.432,3.432,0,0,1-1.164.922,3.355,3.355,0,0,1-1.461.313,2.473,2.473,0,0,1-2.227-1.133,4.13,4.13,0,0,1-.461-2.937Zm1.516.164a3.283,3.283,0,0,0,.207,2.07,1.575,1.575,0,0,0,1.52.75,2.229,2.229,0,0,0,1.188-.32,3.028,3.028,0,0,0,.914-.891l.586-3.914a1.906,1.906,0,0,0-.645-.84,1.811,1.811,0,0,0-1.09-.309,2.105,2.105,0,0,0-1.754.926,5.128,5.128,0,0,0-.9,2.363Zm10.8,4.07a3.069,3.069,0,0,1-2.629-1.18,3.934,3.934,0,0,1-.6-3.047l.055-.344a5.061,5.061,0,0,1,1.488-3.047,3.89,3.89,0,0,1,2.754-1.156,2.624,2.624,0,0,1,2.352,1.07,3.845,3.845,0,0,1,.461,2.789l-.117.813H167.7a3.355,3.355,0,0,0,.266,2.121,1.7,1.7,0,0,0,1.617.777,4.177,4.177,0,0,0,1.395-.227,3.661,3.661,0,0,0,1.113-.609l.453,1a4.447,4.447,0,0,1-1.3.738A5.139,5.139,0,0,1,169.4,15.164Zm.891-7.562a1.948,1.948,0,0,0-1.4.625,3.561,3.561,0,0,0-.9,1.578l.016.047h3.8l.016-.125a2.257,2.257,0,0,0-.219-1.535A1.41,1.41,0,0,0,170.293,7.6Zm9.281,5.125a.908.908,0,0,0-.266-.836,3.27,3.27,0,0,0-1.391-.555,5.344,5.344,0,0,1-2.176-.9,1.562,1.562,0,0,1-.582-1.547A2.6,2.6,0,0,1,176.281,7.1a3.935,3.935,0,0,1,2.387-.711,3.006,3.006,0,0,1,2.188.789,1.943,1.943,0,0,1,.633,1.813l-.016.047H180a1.162,1.162,0,0,0-.336-1A1.515,1.515,0,0,0,178.5,7.6a1.974,1.974,0,0,0-1.254.371,1.334,1.334,0,0,0-.543.871.821.821,0,0,0,.234.781,3.446,3.446,0,0,0,1.375.492,5.217,5.217,0,0,1,2.227.93,1.632,1.632,0,0,1,.586,1.57,2.62,2.62,0,0,1-1.164,1.855,4.265,4.265,0,0,1-2.484.691,3.283,3.283,0,0,1-2.395-.828,2.033,2.033,0,0,1-.652-1.906l.016-.047h1.477a1.245,1.245,0,0,0,.445,1.2,2.1,2.1,0,0,0,1.281.379,2.3,2.3,0,0,0,1.313-.352A1.3,1.3,0,0,0,179.574,12.727Z" transform="translate(324.051 959.074)" fill="#12263f"/>
      </g>
    </g>
  </g>
</svg>
