<svg xmlns="http://www.w3.org/2000/svg" xmlns:xlink="http://www.w3.org/1999/xlink" width="81.414" height="81.414" viewBox="0 0 81.414 81.414">
  <defs>
    <filter id="Trazado_873828" x="0" y="0" width="81.414" height="81.414" filterUnits="userSpaceOnUse">
      <feOffset dy="3" input="SourceAlpha"/>
      <feGaussianBlur stdDeviation="3" result="blur"/>
      <feFlood flood-opacity="0.161"/>
      <feComposite operator="in" in2="blur"/>
    </filter>
    <filter id="Trazado_873828-2" x="0" y="0" width="81.414" height="81.414" filterUnits="userSpaceOnUse">
      <feOffset dy="3" input="SourceAlpha"/>
      <feGaussianBlur stdDeviation="3" result="blur-2"/>
      <feFlood flood-opacity="0.161" result="color"/>
      <feComposite operator="out" in="SourceGraphic" in2="blur-2"/>
      <feComposite operator="in" in="color"/>
      <feComposite operator="in" in2="SourceGraphic"/>
    </filter>
  </defs>
  <g id="Grupo_1114594" data-name="Grupo 1114594" transform="translate(-187.051 -4179)">
    <g data-type="innerShadowGroup">
      <g transform="matrix(1, 0, 0, 1, 187.05, 4179)" filter="url(#Trazado_873828)">
        <g id="Trazado_873828-3" data-name="Trazado 873828" transform="translate(9 6)" fill="#bce0fc">
          <path d="M 31.70703125 61.4140625 C 27.69572067260742 61.4140625 23.80547142028809 60.62889099121094 20.14433097839355 59.08036041259766 C 16.60707092285156 57.58423233032227 13.42987155914307 55.44195938110352 10.7009916305542 52.71308135986328 C 7.972101211547852 49.98419189453125 5.829841136932373 46.80699157714844 4.333701133728027 43.26974105834961 C 2.785171270370483 39.60859298706055 2.000001192092896 35.71834182739258 2.000001192092896 31.70703125 C 2.000001192092896 27.69573211669922 2.785171270370483 23.80547142028809 4.333701133728027 20.14433097839355 C 5.829841136932373 16.60707092285156 7.972101211547852 13.42987155914307 10.7009916305542 10.7009916305542 C 13.42987155914307 7.972101211547852 16.60707092285156 5.829841136932373 20.14433097839355 4.333701133728027 C 23.80547142028809 2.785171270370483 27.69573211669922 2.000001192092896 31.70703125 2.000001192092896 C 35.71834182739258 2.000001192092896 39.60859298706055 2.785171270370483 43.26974105834961 4.333701133728027 C 46.80699157714844 5.829841136932373 49.98419189453125 7.972101211547852 52.71308135986328 10.7009916305542 C 55.44195938110352 13.42987155914307 57.58423233032227 16.60707092285156 59.08036041259766 20.14433097839355 C 60.62889099121094 23.80547142028809 61.4140625 27.69572067260742 61.4140625 31.70703125 C 61.4140625 35.71834182739258 60.62889099121094 39.60859298706055 59.08036041259766 43.26974105834961 C 57.58423233032227 46.80699157714844 55.44195938110352 49.98419189453125 52.71308135986328 52.71308135986328 C 49.98419189453125 55.44195938110352 46.80699157714844 57.58423233032227 43.26974105834961 59.08036041259766 C 39.60859298706055 60.62889099121094 35.71834182739258 61.4140625 31.70703125 61.4140625 Z" stroke="none"/>
          <path d="M 31.70703125 3.999996185302734 C 27.96484375 3.999996185302734 24.33671188354492 4.732006072998047 20.92343139648438 6.175712585449219 C 17.62457275390625 7.571006774902344 14.66105651855469 9.569347381591797 12.11519622802734 12.11519622802734 C 9.569347381591797 14.66105651855469 7.571006774902344 17.62457275390625 6.175712585449219 20.92343139648438 C 4.732006072998047 24.33671188354492 3.999996185302734 27.96484375 3.999996185302734 31.70703125 C 3.999996185302734 35.44921875 4.732006072998047 39.07734680175781 6.175712585449219 42.49063110351562 C 7.571006774902344 45.78948974609375 9.5693359375 48.75300598144531 12.11519622802734 51.29886627197266 C 14.66105651855469 53.8447265625 17.62457275390625 55.84305572509766 20.92343139648438 57.23834991455078 C 24.33671188354492 58.68205642700195 27.96484375 59.41406631469727 31.70703125 59.41406631469727 C 35.44921875 59.41406631469727 39.07734680175781 58.68205642700195 42.49063110351562 57.23834991455078 C 45.78948974609375 55.84305572509766 48.75300598144531 53.8447265625 51.29886627197266 51.29886627197266 C 53.8447265625 48.75300598144531 55.84305572509766 45.78948974609375 57.23834991455078 42.49063110351562 C 58.68205642700195 39.07734680175781 59.41406631469727 35.44921875 59.41406631469727 31.70703125 C 59.41406631469727 27.96484375 58.68205642700195 24.33671188354492 57.23834991455078 20.92343139648438 C 55.84305572509766 17.62457275390625 53.8447265625 14.66105651855469 51.29886627197266 12.11519622802734 C 48.75300598144531 9.5693359375 45.78948974609375 7.571006774902344 42.49063110351562 6.175712585449219 C 39.07734680175781 4.732006072998047 35.44921875 3.999996185302734 31.70703125 3.999996185302734 M 31.70703125 -3.814697265625e-06 C 49.21834945678711 -3.814697265625e-06 63.41406631469727 14.19572448730469 63.41406631469727 31.70703125 C 63.41406631469727 49.21834945678711 49.21834945678711 63.41406631469727 31.70703125 63.41406631469727 C 14.19572448730469 63.41406631469727 -3.814697265625e-06 49.21834945678711 -3.814697265625e-06 31.70703125 C -3.814697265625e-06 14.19572448730469 14.19572448730469 -3.814697265625e-06 31.70703125 -3.814697265625e-06 Z" stroke="none" fill="#fff"/>
        </g>
      </g>
      <g id="Trazado_873828-4" data-name="Trazado 873828" transform="translate(196.051 4185)" fill="#bce0fc">
        <path d="M 31.70703125 61.4140625 C 27.69572067260742 61.4140625 23.80547142028809 60.62889099121094 20.14433097839355 59.08036041259766 C 16.60707092285156 57.58423233032227 13.42987155914307 55.44195938110352 10.7009916305542 52.71308135986328 C 7.972101211547852 49.98419189453125 5.829841136932373 46.80699157714844 4.333701133728027 43.26974105834961 C 2.785171270370483 39.60859298706055 2.000001192092896 35.71834182739258 2.000001192092896 31.70703125 C 2.000001192092896 27.69573211669922 2.785171270370483 23.80547142028809 4.333701133728027 20.14433097839355 C 5.829841136932373 16.60707092285156 7.972101211547852 13.42987155914307 10.7009916305542 10.7009916305542 C 13.42987155914307 7.972101211547852 16.60707092285156 5.829841136932373 20.14433097839355 4.333701133728027 C 23.80547142028809 2.785171270370483 27.69573211669922 2.000001192092896 31.70703125 2.000001192092896 C 35.71834182739258 2.000001192092896 39.60859298706055 2.785171270370483 43.26974105834961 4.333701133728027 C 46.80699157714844 5.829841136932373 49.98419189453125 7.972101211547852 52.71308135986328 10.7009916305542 C 55.44195938110352 13.42987155914307 57.58423233032227 16.60707092285156 59.08036041259766 20.14433097839355 C 60.62889099121094 23.80547142028809 61.4140625 27.69572067260742 61.4140625 31.70703125 C 61.4140625 35.71834182739258 60.62889099121094 39.60859298706055 59.08036041259766 43.26974105834961 C 57.58423233032227 46.80699157714844 55.44195938110352 49.98419189453125 52.71308135986328 52.71308135986328 C 49.98419189453125 55.44195938110352 46.80699157714844 57.58423233032227 43.26974105834961 59.08036041259766 C 39.60859298706055 60.62889099121094 35.71834182739258 61.4140625 31.70703125 61.4140625 Z" stroke="none"/>
        <path d="M 31.70703125 3.999996185302734 C 27.96484375 3.999996185302734 24.33671188354492 4.732006072998047 20.92343139648438 6.175712585449219 C 17.62457275390625 7.571006774902344 14.66105651855469 9.569347381591797 12.11519622802734 12.11519622802734 C 9.569347381591797 14.66105651855469 7.571006774902344 17.62457275390625 6.175712585449219 20.92343139648438 C 4.732006072998047 24.33671188354492 3.999996185302734 27.96484375 3.999996185302734 31.70703125 C 3.999996185302734 35.44921875 4.732006072998047 39.07734680175781 6.175712585449219 42.49063110351562 C 7.571006774902344 45.78948974609375 9.5693359375 48.75300598144531 12.11519622802734 51.29886627197266 C 14.66105651855469 53.8447265625 17.62457275390625 55.84305572509766 20.92343139648438 57.23834991455078 C 24.33671188354492 58.68205642700195 27.96484375 59.41406631469727 31.70703125 59.41406631469727 C 35.44921875 59.41406631469727 39.07734680175781 58.68205642700195 42.49063110351562 57.23834991455078 C 45.78948974609375 55.84305572509766 48.75300598144531 53.8447265625 51.29886627197266 51.29886627197266 C 53.8447265625 48.75300598144531 55.84305572509766 45.78948974609375 57.23834991455078 42.49063110351562 C 58.68205642700195 39.07734680175781 59.41406631469727 35.44921875 59.41406631469727 31.70703125 C 59.41406631469727 27.96484375 58.68205642700195 24.33671188354492 57.23834991455078 20.92343139648438 C 55.84305572509766 17.62457275390625 53.8447265625 14.66105651855469 51.29886627197266 12.11519622802734 C 48.75300598144531 9.5693359375 45.78948974609375 7.571006774902344 42.49063110351562 6.175712585449219 C 39.07734680175781 4.732006072998047 35.44921875 3.999996185302734 31.70703125 3.999996185302734 M 31.70703125 -3.814697265625e-06 C 49.21834945678711 -3.814697265625e-06 63.41406631469727 14.19572448730469 63.41406631469727 31.70703125 C 63.41406631469727 49.21834945678711 49.21834945678711 63.41406631469727 31.70703125 63.41406631469727 C 14.19572448730469 63.41406631469727 -3.814697265625e-06 49.21834945678711 -3.814697265625e-06 31.70703125 C -3.814697265625e-06 14.19572448730469 14.19572448730469 -3.814697265625e-06 31.70703125 -3.814697265625e-06 Z" stroke="none"/>
      </g>
      <g transform="matrix(1, 0, 0, 1, 187.05, 4179)" filter="url(#Trazado_873828-2)">
        <g id="Trazado_873828-5" data-name="Trazado 873828" transform="translate(9 6)" fill="#fff">
          <path d="M 31.70703125 61.4140625 C 27.69572067260742 61.4140625 23.80547142028809 60.62889099121094 20.14433097839355 59.08036041259766 C 16.60707092285156 57.58423233032227 13.42987155914307 55.44195938110352 10.7009916305542 52.71308135986328 C 7.972101211547852 49.98419189453125 5.829841136932373 46.80699157714844 4.333701133728027 43.26974105834961 C 2.785171270370483 39.60859298706055 2.000001192092896 35.71834182739258 2.000001192092896 31.70703125 C 2.000001192092896 27.69573211669922 2.785171270370483 23.80547142028809 4.333701133728027 20.14433097839355 C 5.829841136932373 16.60707092285156 7.972101211547852 13.42987155914307 10.7009916305542 10.7009916305542 C 13.42987155914307 7.972101211547852 16.60707092285156 5.829841136932373 20.14433097839355 4.333701133728027 C 23.80547142028809 2.785171270370483 27.69573211669922 2.000001192092896 31.70703125 2.000001192092896 C 35.71834182739258 2.000001192092896 39.60859298706055 2.785171270370483 43.26974105834961 4.333701133728027 C 46.80699157714844 5.829841136932373 49.98419189453125 7.972101211547852 52.71308135986328 10.7009916305542 C 55.44195938110352 13.42987155914307 57.58423233032227 16.60707092285156 59.08036041259766 20.14433097839355 C 60.62889099121094 23.80547142028809 61.4140625 27.69572067260742 61.4140625 31.70703125 C 61.4140625 35.71834182739258 60.62889099121094 39.60859298706055 59.08036041259766 43.26974105834961 C 57.58423233032227 46.80699157714844 55.44195938110352 49.98419189453125 52.71308135986328 52.71308135986328 C 49.98419189453125 55.44195938110352 46.80699157714844 57.58423233032227 43.26974105834961 59.08036041259766 C 39.60859298706055 60.62889099121094 35.71834182739258 61.4140625 31.70703125 61.4140625 Z" stroke="none"/>
          <path d="M 31.70703125 3.999996185302734 C 27.96484375 3.999996185302734 24.33671188354492 4.732006072998047 20.92343139648438 6.175712585449219 C 17.62457275390625 7.571006774902344 14.66105651855469 9.569347381591797 12.11519622802734 12.11519622802734 C 9.569347381591797 14.66105651855469 7.571006774902344 17.62457275390625 6.175712585449219 20.92343139648438 C 4.732006072998047 24.33671188354492 3.999996185302734 27.96484375 3.999996185302734 31.70703125 C 3.999996185302734 35.44921875 4.732006072998047 39.07734680175781 6.175712585449219 42.49063110351562 C 7.571006774902344 45.78948974609375 9.5693359375 48.75300598144531 12.11519622802734 51.29886627197266 C 14.66105651855469 53.8447265625 17.62457275390625 55.84305572509766 20.92343139648438 57.23834991455078 C 24.33671188354492 58.68205642700195 27.96484375 59.41406631469727 31.70703125 59.41406631469727 C 35.44921875 59.41406631469727 39.07734680175781 58.68205642700195 42.49063110351562 57.23834991455078 C 45.78948974609375 55.84305572509766 48.75300598144531 53.8447265625 51.29886627197266 51.29886627197266 C 53.8447265625 48.75300598144531 55.84305572509766 45.78948974609375 57.23834991455078 42.49063110351562 C 58.68205642700195 39.07734680175781 59.41406631469727 35.44921875 59.41406631469727 31.70703125 C 59.41406631469727 27.96484375 58.68205642700195 24.33671188354492 57.23834991455078 20.92343139648438 C 55.84305572509766 17.62457275390625 53.8447265625 14.66105651855469 51.29886627197266 12.11519622802734 C 48.75300598144531 9.5693359375 45.78948974609375 7.571006774902344 42.49063110351562 6.175712585449219 C 39.07734680175781 4.732006072998047 35.44921875 3.999996185302734 31.70703125 3.999996185302734 M 31.70703125 -3.814697265625e-06 C 49.21834945678711 -3.814697265625e-06 63.41406631469727 14.19572448730469 63.41406631469727 31.70703125 C 63.41406631469727 49.21834945678711 49.21834945678711 63.41406631469727 31.70703125 63.41406631469727 C 14.19572448730469 63.41406631469727 -3.814697265625e-06 49.21834945678711 -3.814697265625e-06 31.70703125 C -3.814697265625e-06 14.19572448730469 14.19572448730469 -3.814697265625e-06 31.70703125 -3.814697265625e-06 Z" stroke="none"/>
        </g>
      </g>
      <g id="Trazado_873828-6" data-name="Trazado 873828" transform="translate(196.051 4185)" fill="none">
        <path d="M 31.70703125 61.4140625 C 27.69572067260742 61.4140625 23.80547142028809 60.62889099121094 20.14433097839355 59.08036041259766 C 16.60707092285156 57.58423233032227 13.42987155914307 55.44195938110352 10.7009916305542 52.71308135986328 C 7.972101211547852 49.98419189453125 5.829841136932373 46.80699157714844 4.333701133728027 43.26974105834961 C 2.785171270370483 39.60859298706055 2.000001192092896 35.71834182739258 2.000001192092896 31.70703125 C 2.000001192092896 27.69573211669922 2.785171270370483 23.80547142028809 4.333701133728027 20.14433097839355 C 5.829841136932373 16.60707092285156 7.972101211547852 13.42987155914307 10.7009916305542 10.7009916305542 C 13.42987155914307 7.972101211547852 16.60707092285156 5.829841136932373 20.14433097839355 4.333701133728027 C 23.80547142028809 2.785171270370483 27.69573211669922 2.000001192092896 31.70703125 2.000001192092896 C 35.71834182739258 2.000001192092896 39.60859298706055 2.785171270370483 43.26974105834961 4.333701133728027 C 46.80699157714844 5.829841136932373 49.98419189453125 7.972101211547852 52.71308135986328 10.7009916305542 C 55.44195938110352 13.42987155914307 57.58423233032227 16.60707092285156 59.08036041259766 20.14433097839355 C 60.62889099121094 23.80547142028809 61.4140625 27.69572067260742 61.4140625 31.70703125 C 61.4140625 35.71834182739258 60.62889099121094 39.60859298706055 59.08036041259766 43.26974105834961 C 57.58423233032227 46.80699157714844 55.44195938110352 49.98419189453125 52.71308135986328 52.71308135986328 C 49.98419189453125 55.44195938110352 46.80699157714844 57.58423233032227 43.26974105834961 59.08036041259766 C 39.60859298706055 60.62889099121094 35.71834182739258 61.4140625 31.70703125 61.4140625 Z" stroke="none"/>
        <path d="M 31.70703125 3.999996185302734 C 27.96484375 3.999996185302734 24.33671188354492 4.732006072998047 20.92343139648438 6.175712585449219 C 17.62457275390625 7.571006774902344 14.66105651855469 9.569347381591797 12.11519622802734 12.11519622802734 C 9.569347381591797 14.66105651855469 7.571006774902344 17.62457275390625 6.175712585449219 20.92343139648438 C 4.732006072998047 24.33671188354492 3.999996185302734 27.96484375 3.999996185302734 31.70703125 C 3.999996185302734 35.44921875 4.732006072998047 39.07734680175781 6.175712585449219 42.49063110351562 C 7.571006774902344 45.78948974609375 9.5693359375 48.75300598144531 12.11519622802734 51.29886627197266 C 14.66105651855469 53.8447265625 17.62457275390625 55.84305572509766 20.92343139648438 57.23834991455078 C 24.33671188354492 58.68205642700195 27.96484375 59.41406631469727 31.70703125 59.41406631469727 C 35.44921875 59.41406631469727 39.07734680175781 58.68205642700195 42.49063110351562 57.23834991455078 C 45.78948974609375 55.84305572509766 48.75300598144531 53.8447265625 51.29886627197266 51.29886627197266 C 53.8447265625 48.75300598144531 55.84305572509766 45.78948974609375 57.23834991455078 42.49063110351562 C 58.68205642700195 39.07734680175781 59.41406631469727 35.44921875 59.41406631469727 31.70703125 C 59.41406631469727 27.96484375 58.68205642700195 24.33671188354492 57.23834991455078 20.92343139648438 C 55.84305572509766 17.62457275390625 53.8447265625 14.66105651855469 51.29886627197266 12.11519622802734 C 48.75300598144531 9.5693359375 45.78948974609375 7.571006774902344 42.49063110351562 6.175712585449219 C 39.07734680175781 4.732006072998047 35.44921875 3.999996185302734 31.70703125 3.999996185302734 M 31.70703125 -3.814697265625e-06 C 49.21834945678711 -3.814697265625e-06 63.41406631469727 14.19572448730469 63.41406631469727 31.70703125 C 63.41406631469727 49.21834945678711 49.21834945678711 63.41406631469727 31.70703125 63.41406631469727 C 14.19572448730469 63.41406631469727 -3.814697265625e-06 49.21834945678711 -3.814697265625e-06 31.70703125 C -3.814697265625e-06 14.19572448730469 14.19572448730469 -3.814697265625e-06 31.70703125 -3.814697265625e-06 Z" stroke="none" fill="#fff"/>
      </g>
    </g>
    <g id="Grupo_1114593" data-name="Grupo 1114593" transform="translate(202.622 4193.999)">
      <path id="Trazado_907858" data-name="Trazado 907858" d="M263.173,59.066h3.87v12.6l-1.755.164c-2.372.186-5.364.648-7.679.226-1.719-.313-2.16-.827-4.618-.827l-.97,0V60.154c6.548-.427,7.833-3.277,7.346-9.053a.672.672,0,0,1,.594-.724c4.393-.494,3.483,6.582,3.212,8.689Z" transform="translate(-227.276 -42.894)" fill="#ffcec0" fill-rule="evenodd"/>
      <path id="Trazado_907859" data-name="Trazado 907859" d="M360.591,167.2c-.046,1.317-.353,3.794-3.621,3.825a5.323,5.323,0,0,1-3.081,2.595.6.6,0,0,1-.373-1.133,4.165,4.165,0,0,0,2.41-2.031,7.454,7.454,0,0,0,.8-3.256h3.861Z" transform="translate(-320.825 -151.028)" fill="#fdb0a0" fill-rule="evenodd"/>
      <rect id="Rectángulo_406756" data-name="Rectángulo 406756" width="6.508" height="3.267" rx="1.634" transform="translate(36.178 16.171)" fill="#fdb0a0"/>
      <path id="Trazado_907860" data-name="Trazado 907860" d="M406.982,167.2h3.24a1.638,1.638,0,0,1,1.634,1.634h-6.508A1.638,1.638,0,0,1,406.982,167.2Z" transform="translate(-369.17 -151.028)" fill="#ffcec0" fill-rule="evenodd"/>
      <path id="Trazado_907861" data-name="Trazado 907861" d="M215.625,182.7h1.335a.91.91,0,0,0,.907-.907V170.759a.91.91,0,0,0-.907-.907h-2.67a.91.91,0,0,0-.907.907V181.8a.91.91,0,0,0,.907.907Z" transform="translate(-191.521 -153.483)" fill="#2a92fa" fill-rule="evenodd"/>
      <path id="Trazado_907862" data-name="Trazado 907862" d="M214.291,169.852h.778a.908.908,0,0,1,.907.907V181.8a.908.908,0,0,1-.907.907h-.778a.908.908,0,0,1-.907-.907V170.759a.908.908,0,0,1,.907-.907Z" transform="translate(-191.522 -153.483)" fill="#4eb1fc"/>
      <g id="Grupo_1114592" data-name="Grupo 1114592" transform="translate(35.544 19.439)">
        <path id="Trazado_907863" data-name="Trazado 907863" d="M398.481,211.011H402.8a1.634,1.634,0,0,1,0,3.267h-4.319a1.634,1.634,0,1,1,0-3.267Z" transform="translate(-396.847 -211.011)" fill="#fdb0a0" fill-rule="evenodd"/>
        <path id="Trazado_907864" data-name="Trazado 907864" d="M398.48,211.011H402.8a1.638,1.638,0,0,1,1.634,1.634h-7.586a1.638,1.638,0,0,1,1.634-1.634Z" transform="translate(-396.846 -211.011)" fill="#ffcec0" fill-rule="evenodd"/>
        <path id="Trazado_907865" data-name="Trazado 907865" d="M400.23,254.823h3.72a1.634,1.634,0,1,1,0,3.267h-3.72a1.634,1.634,0,1,1,0-3.267Z" transform="translate(-398.466 -251.556)" fill="#fdb0a0" fill-rule="evenodd"/>
        <path id="Trazado_907866" data-name="Trazado 907866" d="M400.231,254.823h3.72a1.638,1.638,0,0,1,1.634,1.634H398.6a1.638,1.638,0,0,1,1.634-1.634Z" transform="translate(-398.466 -251.556)" fill="#ffcec0" fill-rule="evenodd"/>
        <path id="Trazado_907867" data-name="Trazado 907867" d="M411.552,298.635h2.3a1.481,1.481,0,1,1,0,2.961h-2.3a1.481,1.481,0,1,1,0-2.961Z" transform="translate(-409.085 -292.101)" fill="#fdb0a0" fill-rule="evenodd"/>
        <path id="Trazado_907868" data-name="Trazado 907868" d="M411.552,298.635h2.3a1.485,1.485,0,0,1,1.481,1.481h-5.262A1.485,1.485,0,0,1,411.552,298.635Z" transform="translate(-409.085 -292.101)" fill="#ffcec0" fill-rule="evenodd"/>
      </g>
      <circle id="Elipse_12813" data-name="Elipse 12813" cx="4.57" cy="4.57" r="4.57" transform="translate(28.428 32.442) rotate(-5.91)" fill="#99d100"/>
      <path id="Trazado_907869" data-name="Trazado 907869" d="M311.377,388.159a4.57,4.57,0,1,1,3.887-4.519A4.571,4.571,0,0,1,311.377,388.159Z" transform="translate(-278.61 -347.146)" fill="#a8e304" fill-rule="evenodd"/>
      <path id="Trazado_907870" data-name="Trazado 907870" d="M32.862,19.08V11.093H28.7l-.724,3.673-3.888,1.613-3.111-2.086-4.3,4.3L18.758,21.7l-1.613,3.888-3.673.724V32.4l3.673.724,1.613,3.888-2.086,3.111,4.3,4.3,3.111-2.086,3.888,1.613L28.7,47.62h4.166V39.636a10.449,10.449,0,0,1-1.124.061,10.339,10.339,0,0,1,0-20.678,10.468,10.468,0,0,1,1.124.061Z" transform="translate(-6.519 -6.563)" fill="#9cf" fill-rule="evenodd"/>
      <path id="Trazado_907871" data-name="Trazado 907871" d="M30.664,19.076l.052-.005V11.1H28.695l-.724,3.673L22.757,16.93,20.11,15.155l-3.439,3.439,2.086,3.111-1.613,3.888-3.673.724V32.4l3.673.724,1.613,3.888-2.086,3.111,3.439,3.439,2.647-1.775,5.213,2.163.724,3.673h2.021V39.648l-.052-.005a10.446,10.446,0,0,1-1.072.055,10.339,10.339,0,0,1,0-20.678,10.446,10.446,0,0,1,1.072.055Z" transform="translate(-6.518 -6.565)" fill="#b6dbff" fill-rule="evenodd"/>
      <path id="Trazado_907872" data-name="Trazado 907872" d="M35.682,34.736a.522.522,0,0,1,0,.738L32.9,38.252a.521.521,0,0,1-.369.153.538.538,0,0,1-.068,0,.522.522,0,0,1-.384-.257L31.135,36.5a.522.522,0,0,1,.9-.522l.607,1.054,2.3-2.3a.521.521,0,0,1,.738,0ZM33.45,40.542A4.048,4.048,0,1,0,29.4,36.494a4.053,4.053,0,0,0,4.048,4.048Zm0-9.14a5.092,5.092,0,1,0,5.092,5.092A5.1,5.1,0,0,0,33.45,31.4Zm6.861-2.991h-2.3a.958.958,0,0,1,0-1.917h2.3a.958.958,0,0,1,0,1.917Zm-14.487-.1a.386.386,0,0,1-.385.386H22.77a.386.386,0,0,1-.385-.386V17.277a.386.386,0,0,1,.385-.385h2.67a.386.386,0,0,1,.385.385V28.313ZM31.767,14.6c.837-1.443,1.1-3.428.843-6.437A.151.151,0,0,1,32.742,8a2.073,2.073,0,0,1,1.823.547c1.579,1.6,1,6.084.813,7.556,0,0,0,0,0,.007s0,.022,0,.034a.206.206,0,0,0,0,.022.17.17,0,0,0,0,.03c0,.008,0,.017,0,.025v.006c.332,3.033-.439,4.569-2.662,5.3a.522.522,0,1,0,.327.992,5.387,5.387,0,0,0,2-1.124,2.162,2.162,0,0,0,.8,1.365,2.154,2.154,0,0,0,.544,3.525,2,2,0,0,0-.04,2.276l-.751.072a20.3,20.3,0,0,1-5.169.012A12.254,12.254,0,0,1,29.03,28.3c-.249-.074-.494-.147-.758-.213l-.218-.051-.019,0a8.5,8.5,0,0,0-.906-.147c-.084-.009-.171-.018-.26-.025V17.533c2.435-.443,4-1.382,4.9-2.934Zm9.285,2.095a1.111,1.111,0,1,1,0,2.223h-3.24a1.111,1.111,0,0,1,0-2.223ZM42.6,21.186a1.2,1.2,0,0,0,0-.227,1.114,1.114,0,0,0-1.106-1h-4.32a1.112,1.112,0,0,0,0,2.223H41.5a1.114,1.114,0,0,0,1.106-1Zm-1.574,4.266a1.112,1.112,0,1,0,0-2.223H37.308a1.112,1.112,0,0,0,0,2.223Zm2.58-3.945a2.184,2.184,0,0,0,.043-.434,2.155,2.155,0,0,0-1-1.821,2.155,2.155,0,0,0-1.6-3.6H36.487c.247-2.058.57-6.057-1.178-7.833a3.089,3.089,0,0,0-2.684-.853A1.187,1.187,0,0,0,31.57,8.25c.454,5.391-.794,7.53-4.923,8.263a1.43,1.43,0,0,0-1.207-.665H22.77a1.431,1.431,0,0,0-1.43,1.429V28.313a1.431,1.431,0,0,0,1.43,1.43h2.67a1.432,1.432,0,0,0,1.306-.85c.156.013.3.028.44.046l.094.013c.232.033.44.074.636.12.284.066.543.143.817.225a11.536,11.536,0,0,0,3.8.558h0c1.32,0,2.7-.134,3.975-.258.535-.052,1.039-.1,1.523-.139h2.28a2,2,0,0,0,1.629-3.164,2.161,2.161,0,0,0,1.24-1.842c0-.037,0-.074,0-.111a2.145,2.145,0,0,0-.551-1.437,2.16,2.16,0,0,0,.976-1.4ZM25.825,40.542v-6.9c-.2.011-.4.017-.6.017a10.861,10.861,0,1,1,0-21.721c.2,0,.4.006.6.017V5.045H22.609L21.967,8.3a.52.52,0,0,1-.312.381l-3.889,1.614a.522.522,0,0,1-.491-.049L14.519,8.4l-3.7,3.7,1.848,2.756a.521.521,0,0,1,.049.491l-1.613,3.889a.523.523,0,0,1-.381.312l-3.253.641v5.226l3.253.641a.523.523,0,0,1,.381.312l1.613,3.89a.52.52,0,0,1-.049.491L10.824,33.5l3.7,3.7,2.756-1.848a.522.522,0,0,1,.491-.049l3.889,1.614a.521.521,0,0,1,.312.381l.641,3.253h3.216Zm.87-7.859a.523.523,0,0,0-.4-.131,9.817,9.817,0,1,1-1.07-19.575,10.015,10.015,0,0,1,1.07.058.523.523,0,0,0,.579-.519V4.523A.522.522,0,0,0,26.347,4H22.18a.521.521,0,0,0-.512.421L21,7.822l-3.373,1.4L14.744,7.29a.523.523,0,0,0-.66.064l-4.3,4.3a.523.523,0,0,0-.064.66l1.932,2.88-1.4,3.373-3.4.67a.522.522,0,0,0-.421.512v6.084a.522.522,0,0,0,.421.512l3.4.67,1.4,3.373-1.932,2.88a.523.523,0,0,0,.064.66l4.3,4.3a.522.522,0,0,0,.66.065l2.88-1.931L21,37.765l.67,3.4a.521.521,0,0,0,.512.421h4.167a.522.522,0,0,0,.522-.522V33.072a.522.522,0,0,0-.174-.389Z" fill-rule="evenodd"/>
    </g>
  </g>
</svg>
