<svg xmlns="http://www.w3.org/2000/svg" xmlns:xlink="http://www.w3.org/1999/xlink" width="81.414" height="81.414" viewBox="0 0 81.414 81.414">
  <defs>
    <filter id="Trazado_873828" x="0" y="0" width="81.414" height="81.414" filterUnits="userSpaceOnUse">
      <feOffset dy="3" input="SourceAlpha"/>
      <feGaussianBlur stdDeviation="3" result="blur"/>
      <feFlood flood-opacity="0.161"/>
      <feComposite operator="in" in2="blur"/>
    </filter>
    <filter id="Trazado_873828-2" x="0" y="0" width="81.414" height="81.414" filterUnits="userSpaceOnUse">
      <feOffset dy="3" input="SourceAlpha"/>
      <feGaussianBlur stdDeviation="3" result="blur-2"/>
      <feFlood flood-opacity="0.161" result="color"/>
      <feComposite operator="out" in="SourceGraphic" in2="blur-2"/>
      <feComposite operator="in" in="color"/>
      <feComposite operator="in" in2="SourceGraphic"/>
    </filter>
  </defs>
  <g id="Grupo_1114600" data-name="Grupo 1114600" transform="translate(-1132.051 -4179)">
    <g data-type="innerShadowGroup">
      <g transform="matrix(1, 0, 0, 1, 1132.05, 4179)" filter="url(#Trazado_873828)">
        <g id="Trazado_873828-3" data-name="Trazado 873828" transform="translate(9 6)" fill="#bce0fc">
          <path d="M 31.70703125 61.4140625 C 27.69572067260742 61.4140625 23.80547142028809 60.62889099121094 20.14433097839355 59.08036041259766 C 16.60707092285156 57.58423233032227 13.42987155914307 55.44195938110352 10.7009916305542 52.71308135986328 C 7.972101211547852 49.98419189453125 5.829841136932373 46.80699157714844 4.333701133728027 43.26974105834961 C 2.785171270370483 39.60859298706055 2.000001192092896 35.71834182739258 2.000001192092896 31.70703125 C 2.000001192092896 27.69573211669922 2.785171270370483 23.80547142028809 4.333701133728027 20.14433097839355 C 5.829841136932373 16.60707092285156 7.972101211547852 13.42987155914307 10.7009916305542 10.7009916305542 C 13.42987155914307 7.972101211547852 16.60707092285156 5.829841136932373 20.14433097839355 4.333701133728027 C 23.80547142028809 2.785171270370483 27.69573211669922 2.000001192092896 31.70703125 2.000001192092896 C 35.71834182739258 2.000001192092896 39.60859298706055 2.785171270370483 43.26974105834961 4.333701133728027 C 46.80699157714844 5.829841136932373 49.98419189453125 7.972101211547852 52.71308135986328 10.7009916305542 C 55.44195938110352 13.42987155914307 57.58423233032227 16.60707092285156 59.08036041259766 20.14433097839355 C 60.62889099121094 23.80547142028809 61.4140625 27.69572067260742 61.4140625 31.70703125 C 61.4140625 35.71834182739258 60.62889099121094 39.60859298706055 59.08036041259766 43.26974105834961 C 57.58423233032227 46.80699157714844 55.44195938110352 49.98419189453125 52.71308135986328 52.71308135986328 C 49.98419189453125 55.44195938110352 46.80699157714844 57.58423233032227 43.26974105834961 59.08036041259766 C 39.60859298706055 60.62889099121094 35.71834182739258 61.4140625 31.70703125 61.4140625 Z" stroke="none"/>
          <path d="M 31.70703125 3.999996185302734 C 27.96484375 3.999996185302734 24.33671188354492 4.732006072998047 20.92343139648438 6.175712585449219 C 17.62457275390625 7.571006774902344 14.66105651855469 9.569347381591797 12.11519622802734 12.11519622802734 C 9.569347381591797 14.66105651855469 7.571006774902344 17.62457275390625 6.175712585449219 20.92343139648438 C 4.732006072998047 24.33671188354492 3.999996185302734 27.96484375 3.999996185302734 31.70703125 C 3.999996185302734 35.44921875 4.732006072998047 39.07734680175781 6.175712585449219 42.49063110351562 C 7.571006774902344 45.78948974609375 9.5693359375 48.75300598144531 12.11519622802734 51.29886627197266 C 14.66105651855469 53.8447265625 17.62457275390625 55.84305572509766 20.92343139648438 57.23834991455078 C 24.33671188354492 58.68205642700195 27.96484375 59.41406631469727 31.70703125 59.41406631469727 C 35.44921875 59.41406631469727 39.07734680175781 58.68205642700195 42.49063110351562 57.23834991455078 C 45.78948974609375 55.84305572509766 48.75300598144531 53.8447265625 51.29886627197266 51.29886627197266 C 53.8447265625 48.75300598144531 55.84305572509766 45.78948974609375 57.23834991455078 42.49063110351562 C 58.68205642700195 39.07734680175781 59.41406631469727 35.44921875 59.41406631469727 31.70703125 C 59.41406631469727 27.96484375 58.68205642700195 24.33671188354492 57.23834991455078 20.92343139648438 C 55.84305572509766 17.62457275390625 53.8447265625 14.66105651855469 51.29886627197266 12.11519622802734 C 48.75300598144531 9.5693359375 45.78948974609375 7.571006774902344 42.49063110351562 6.175712585449219 C 39.07734680175781 4.732006072998047 35.44921875 3.999996185302734 31.70703125 3.999996185302734 M 31.70703125 -3.814697265625e-06 C 49.21834945678711 -3.814697265625e-06 63.41406631469727 14.19572448730469 63.41406631469727 31.70703125 C 63.41406631469727 49.21834945678711 49.21834945678711 63.41406631469727 31.70703125 63.41406631469727 C 14.19572448730469 63.41406631469727 -3.814697265625e-06 49.21834945678711 -3.814697265625e-06 31.70703125 C -3.814697265625e-06 14.19572448730469 14.19572448730469 -3.814697265625e-06 31.70703125 -3.814697265625e-06 Z" stroke="none" fill="#fff"/>
        </g>
      </g>
      <g id="Trazado_873828-4" data-name="Trazado 873828" transform="translate(1141.051 4185)" fill="#bce0fc">
        <path d="M 31.70703125 61.4140625 C 27.69572067260742 61.4140625 23.80547142028809 60.62889099121094 20.14433097839355 59.08036041259766 C 16.60707092285156 57.58423233032227 13.42987155914307 55.44195938110352 10.7009916305542 52.71308135986328 C 7.972101211547852 49.98419189453125 5.829841136932373 46.80699157714844 4.333701133728027 43.26974105834961 C 2.785171270370483 39.60859298706055 2.000001192092896 35.71834182739258 2.000001192092896 31.70703125 C 2.000001192092896 27.69573211669922 2.785171270370483 23.80547142028809 4.333701133728027 20.14433097839355 C 5.829841136932373 16.60707092285156 7.972101211547852 13.42987155914307 10.7009916305542 10.7009916305542 C 13.42987155914307 7.972101211547852 16.60707092285156 5.829841136932373 20.14433097839355 4.333701133728027 C 23.80547142028809 2.785171270370483 27.69573211669922 2.000001192092896 31.70703125 2.000001192092896 C 35.71834182739258 2.000001192092896 39.60859298706055 2.785171270370483 43.26974105834961 4.333701133728027 C 46.80699157714844 5.829841136932373 49.98419189453125 7.972101211547852 52.71308135986328 10.7009916305542 C 55.44195938110352 13.42987155914307 57.58423233032227 16.60707092285156 59.08036041259766 20.14433097839355 C 60.62889099121094 23.80547142028809 61.4140625 27.69572067260742 61.4140625 31.70703125 C 61.4140625 35.71834182739258 60.62889099121094 39.60859298706055 59.08036041259766 43.26974105834961 C 57.58423233032227 46.80699157714844 55.44195938110352 49.98419189453125 52.71308135986328 52.71308135986328 C 49.98419189453125 55.44195938110352 46.80699157714844 57.58423233032227 43.26974105834961 59.08036041259766 C 39.60859298706055 60.62889099121094 35.71834182739258 61.4140625 31.70703125 61.4140625 Z" stroke="none"/>
        <path d="M 31.70703125 3.999996185302734 C 27.96484375 3.999996185302734 24.33671188354492 4.732006072998047 20.92343139648438 6.175712585449219 C 17.62457275390625 7.571006774902344 14.66105651855469 9.569347381591797 12.11519622802734 12.11519622802734 C 9.569347381591797 14.66105651855469 7.571006774902344 17.62457275390625 6.175712585449219 20.92343139648438 C 4.732006072998047 24.33671188354492 3.999996185302734 27.96484375 3.999996185302734 31.70703125 C 3.999996185302734 35.44921875 4.732006072998047 39.07734680175781 6.175712585449219 42.49063110351562 C 7.571006774902344 45.78948974609375 9.5693359375 48.75300598144531 12.11519622802734 51.29886627197266 C 14.66105651855469 53.8447265625 17.62457275390625 55.84305572509766 20.92343139648438 57.23834991455078 C 24.33671188354492 58.68205642700195 27.96484375 59.41406631469727 31.70703125 59.41406631469727 C 35.44921875 59.41406631469727 39.07734680175781 58.68205642700195 42.49063110351562 57.23834991455078 C 45.78948974609375 55.84305572509766 48.75300598144531 53.8447265625 51.29886627197266 51.29886627197266 C 53.8447265625 48.75300598144531 55.84305572509766 45.78948974609375 57.23834991455078 42.49063110351562 C 58.68205642700195 39.07734680175781 59.41406631469727 35.44921875 59.41406631469727 31.70703125 C 59.41406631469727 27.96484375 58.68205642700195 24.33671188354492 57.23834991455078 20.92343139648438 C 55.84305572509766 17.62457275390625 53.8447265625 14.66105651855469 51.29886627197266 12.11519622802734 C 48.75300598144531 9.5693359375 45.78948974609375 7.571006774902344 42.49063110351562 6.175712585449219 C 39.07734680175781 4.732006072998047 35.44921875 3.999996185302734 31.70703125 3.999996185302734 M 31.70703125 -3.814697265625e-06 C 49.21834945678711 -3.814697265625e-06 63.41406631469727 14.19572448730469 63.41406631469727 31.70703125 C 63.41406631469727 49.21834945678711 49.21834945678711 63.41406631469727 31.70703125 63.41406631469727 C 14.19572448730469 63.41406631469727 -3.814697265625e-06 49.21834945678711 -3.814697265625e-06 31.70703125 C -3.814697265625e-06 14.19572448730469 14.19572448730469 -3.814697265625e-06 31.70703125 -3.814697265625e-06 Z" stroke="none"/>
      </g>
      <g transform="matrix(1, 0, 0, 1, 1132.05, 4179)" filter="url(#Trazado_873828-2)">
        <g id="Trazado_873828-5" data-name="Trazado 873828" transform="translate(9 6)" fill="#fff">
          <path d="M 31.70703125 61.4140625 C 27.69572067260742 61.4140625 23.80547142028809 60.62889099121094 20.14433097839355 59.08036041259766 C 16.60707092285156 57.58423233032227 13.42987155914307 55.44195938110352 10.7009916305542 52.71308135986328 C 7.972101211547852 49.98419189453125 5.829841136932373 46.80699157714844 4.333701133728027 43.26974105834961 C 2.785171270370483 39.60859298706055 2.000001192092896 35.71834182739258 2.000001192092896 31.70703125 C 2.000001192092896 27.69573211669922 2.785171270370483 23.80547142028809 4.333701133728027 20.14433097839355 C 5.829841136932373 16.60707092285156 7.972101211547852 13.42987155914307 10.7009916305542 10.7009916305542 C 13.42987155914307 7.972101211547852 16.60707092285156 5.829841136932373 20.14433097839355 4.333701133728027 C 23.80547142028809 2.785171270370483 27.69573211669922 2.000001192092896 31.70703125 2.000001192092896 C 35.71834182739258 2.000001192092896 39.60859298706055 2.785171270370483 43.26974105834961 4.333701133728027 C 46.80699157714844 5.829841136932373 49.98419189453125 7.972101211547852 52.71308135986328 10.7009916305542 C 55.44195938110352 13.42987155914307 57.58423233032227 16.60707092285156 59.08036041259766 20.14433097839355 C 60.62889099121094 23.80547142028809 61.4140625 27.69572067260742 61.4140625 31.70703125 C 61.4140625 35.71834182739258 60.62889099121094 39.60859298706055 59.08036041259766 43.26974105834961 C 57.58423233032227 46.80699157714844 55.44195938110352 49.98419189453125 52.71308135986328 52.71308135986328 C 49.98419189453125 55.44195938110352 46.80699157714844 57.58423233032227 43.26974105834961 59.08036041259766 C 39.60859298706055 60.62889099121094 35.71834182739258 61.4140625 31.70703125 61.4140625 Z" stroke="none"/>
          <path d="M 31.70703125 3.999996185302734 C 27.96484375 3.999996185302734 24.33671188354492 4.732006072998047 20.92343139648438 6.175712585449219 C 17.62457275390625 7.571006774902344 14.66105651855469 9.569347381591797 12.11519622802734 12.11519622802734 C 9.569347381591797 14.66105651855469 7.571006774902344 17.62457275390625 6.175712585449219 20.92343139648438 C 4.732006072998047 24.33671188354492 3.999996185302734 27.96484375 3.999996185302734 31.70703125 C 3.999996185302734 35.44921875 4.732006072998047 39.07734680175781 6.175712585449219 42.49063110351562 C 7.571006774902344 45.78948974609375 9.5693359375 48.75300598144531 12.11519622802734 51.29886627197266 C 14.66105651855469 53.8447265625 17.62457275390625 55.84305572509766 20.92343139648438 57.23834991455078 C 24.33671188354492 58.68205642700195 27.96484375 59.41406631469727 31.70703125 59.41406631469727 C 35.44921875 59.41406631469727 39.07734680175781 58.68205642700195 42.49063110351562 57.23834991455078 C 45.78948974609375 55.84305572509766 48.75300598144531 53.8447265625 51.29886627197266 51.29886627197266 C 53.8447265625 48.75300598144531 55.84305572509766 45.78948974609375 57.23834991455078 42.49063110351562 C 58.68205642700195 39.07734680175781 59.41406631469727 35.44921875 59.41406631469727 31.70703125 C 59.41406631469727 27.96484375 58.68205642700195 24.33671188354492 57.23834991455078 20.92343139648438 C 55.84305572509766 17.62457275390625 53.8447265625 14.66105651855469 51.29886627197266 12.11519622802734 C 48.75300598144531 9.5693359375 45.78948974609375 7.571006774902344 42.49063110351562 6.175712585449219 C 39.07734680175781 4.732006072998047 35.44921875 3.999996185302734 31.70703125 3.999996185302734 M 31.70703125 -3.814697265625e-06 C 49.21834945678711 -3.814697265625e-06 63.41406631469727 14.19572448730469 63.41406631469727 31.70703125 C 63.41406631469727 49.21834945678711 49.21834945678711 63.41406631469727 31.70703125 63.41406631469727 C 14.19572448730469 63.41406631469727 -3.814697265625e-06 49.21834945678711 -3.814697265625e-06 31.70703125 C -3.814697265625e-06 14.19572448730469 14.19572448730469 -3.814697265625e-06 31.70703125 -3.814697265625e-06 Z" stroke="none"/>
        </g>
      </g>
      <g id="Trazado_873828-6" data-name="Trazado 873828" transform="translate(1141.051 4185)" fill="none">
        <path d="M 31.70703125 61.4140625 C 27.69572067260742 61.4140625 23.80547142028809 60.62889099121094 20.14433097839355 59.08036041259766 C 16.60707092285156 57.58423233032227 13.42987155914307 55.44195938110352 10.7009916305542 52.71308135986328 C 7.972101211547852 49.98419189453125 5.829841136932373 46.80699157714844 4.333701133728027 43.26974105834961 C 2.785171270370483 39.60859298706055 2.000001192092896 35.71834182739258 2.000001192092896 31.70703125 C 2.000001192092896 27.69573211669922 2.785171270370483 23.80547142028809 4.333701133728027 20.14433097839355 C 5.829841136932373 16.60707092285156 7.972101211547852 13.42987155914307 10.7009916305542 10.7009916305542 C 13.42987155914307 7.972101211547852 16.60707092285156 5.829841136932373 20.14433097839355 4.333701133728027 C 23.80547142028809 2.785171270370483 27.69573211669922 2.000001192092896 31.70703125 2.000001192092896 C 35.71834182739258 2.000001192092896 39.60859298706055 2.785171270370483 43.26974105834961 4.333701133728027 C 46.80699157714844 5.829841136932373 49.98419189453125 7.972101211547852 52.71308135986328 10.7009916305542 C 55.44195938110352 13.42987155914307 57.58423233032227 16.60707092285156 59.08036041259766 20.14433097839355 C 60.62889099121094 23.80547142028809 61.4140625 27.69572067260742 61.4140625 31.70703125 C 61.4140625 35.71834182739258 60.62889099121094 39.60859298706055 59.08036041259766 43.26974105834961 C 57.58423233032227 46.80699157714844 55.44195938110352 49.98419189453125 52.71308135986328 52.71308135986328 C 49.98419189453125 55.44195938110352 46.80699157714844 57.58423233032227 43.26974105834961 59.08036041259766 C 39.60859298706055 60.62889099121094 35.71834182739258 61.4140625 31.70703125 61.4140625 Z" stroke="none"/>
        <path d="M 31.70703125 3.999996185302734 C 27.96484375 3.999996185302734 24.33671188354492 4.732006072998047 20.92343139648438 6.175712585449219 C 17.62457275390625 7.571006774902344 14.66105651855469 9.569347381591797 12.11519622802734 12.11519622802734 C 9.569347381591797 14.66105651855469 7.571006774902344 17.62457275390625 6.175712585449219 20.92343139648438 C 4.732006072998047 24.33671188354492 3.999996185302734 27.96484375 3.999996185302734 31.70703125 C 3.999996185302734 35.44921875 4.732006072998047 39.07734680175781 6.175712585449219 42.49063110351562 C 7.571006774902344 45.78948974609375 9.5693359375 48.75300598144531 12.11519622802734 51.29886627197266 C 14.66105651855469 53.8447265625 17.62457275390625 55.84305572509766 20.92343139648438 57.23834991455078 C 24.33671188354492 58.68205642700195 27.96484375 59.41406631469727 31.70703125 59.41406631469727 C 35.44921875 59.41406631469727 39.07734680175781 58.68205642700195 42.49063110351562 57.23834991455078 C 45.78948974609375 55.84305572509766 48.75300598144531 53.8447265625 51.29886627197266 51.29886627197266 C 53.8447265625 48.75300598144531 55.84305572509766 45.78948974609375 57.23834991455078 42.49063110351562 C 58.68205642700195 39.07734680175781 59.41406631469727 35.44921875 59.41406631469727 31.70703125 C 59.41406631469727 27.96484375 58.68205642700195 24.33671188354492 57.23834991455078 20.92343139648438 C 55.84305572509766 17.62457275390625 53.8447265625 14.66105651855469 51.29886627197266 12.11519622802734 C 48.75300598144531 9.5693359375 45.78948974609375 7.571006774902344 42.49063110351562 6.175712585449219 C 39.07734680175781 4.732006072998047 35.44921875 3.999996185302734 31.70703125 3.999996185302734 M 31.70703125 -3.814697265625e-06 C 49.21834945678711 -3.814697265625e-06 63.41406631469727 14.19572448730469 63.41406631469727 31.70703125 C 63.41406631469727 49.21834945678711 49.21834945678711 63.41406631469727 31.70703125 63.41406631469727 C 14.19572448730469 63.41406631469727 -3.814697265625e-06 49.21834945678711 -3.814697265625e-06 31.70703125 C -3.814697265625e-06 14.19572448730469 14.19572448730469 -3.814697265625e-06 31.70703125 -3.814697265625e-06 Z" stroke="none" fill="#fff"/>
      </g>
    </g>
    <g id="Grupo_1114599" data-name="Grupo 1114599" transform="translate(1150.064 4194.003)">
      <path id="Trazado_907887" data-name="Trazado 907887" d="M102.235,14.2l-1.5-1a.6.6,0,0,0-.769.075L97.654,15.59a.6.6,0,0,0-.075.769l1,1.5L97.31,20.928l-1.767.348a.6.6,0,0,0-.491.6v3.275a.6.6,0,0,0,.491.6l1.767.348,1.273,3.072-1,1.5a.6.6,0,0,0,.075.769l2.316,2.316a.6.6,0,0,0,.769.075l1.5-1,3.072,1.273.348,1.767a.6.6,0,0,0,.6.49h1.632V31.195a7.685,7.685,0,0,1,0-15.369V10.672h-1.632a.6.6,0,0,0-.6.49l-.348,1.767L102.235,14.2Z" transform="translate(-85.074 -7.092)" fill="#b7bfc9" fill-rule="evenodd"/>
      <path id="Trazado_907888" data-name="Trazado 907888" d="M113.458,13.377l-2.564,2.611,1.242,1.833-1.311,3.169-2.3.453v4.135l2.3.453,1.311,3.169-1.242,1.833,2.564,2.611,2.01-1.348,3.078,1.275.51,2.777h1.283V31.195a7.685,7.685,0,0,1,0-15.369V10.672h-1.283l-.51,2.777-3.078,1.275Z" transform="translate(-97.528 -7.092)" fill="#d1d6dc" fill-rule="evenodd"/>
      <circle id="Elipse_12816" data-name="Elipse 12816" cx="8.057" cy="8.057" r="8.057" transform="translate(14.747 8.361)" fill="#ff6b84"/>
      <path id="Trazado_907889" data-name="Trazado 907889" d="M173.626,89.823a8.056,8.056,0,1,1,7.752-8.051A8.057,8.057,0,0,1,173.626,89.823Z" transform="translate(-150.518 -65.354)" fill="#ff8298" fill-rule="evenodd"/>
      <circle id="Elipse_12817" data-name="Elipse 12817" cx="5.569" cy="5.569" r="5.569" transform="translate(17.235 10.849)" fill="#dee2e6"/>
      <path id="Trazado_907890" data-name="Trazado 907890" d="M195.962,117.6a5.568,5.568,0,1,1,5.348-5.564A5.569,5.569,0,0,1,195.962,117.6Z" transform="translate(-173.379 -95.614)" fill="#fff" fill-rule="evenodd"/>
      <circle id="Elipse_12818" data-name="Elipse 12818" cx="3.081" cy="3.081" r="3.081" transform="translate(19.723 13.338)" fill="#ff6b84"/>
      <path id="Trazado_907891" data-name="Trazado 907891" d="M233.308,145.467a3.081,3.081,0,1,1,2.81-3.069A3.081,3.081,0,0,1,233.308,145.467Z" transform="translate(-210.235 -125.98)" fill="#ff8298" fill-rule="evenodd"/>
      <circle id="Elipse_12819" data-name="Elipse 12819" cx="5.08" cy="5.08" r="5.08" transform="translate(30.642 19.734)" fill="#4eb1fc"/>
      <g id="Grupo_1114598" data-name="Grupo 1114598" transform="translate(2.987 2.997)">
        <path id="Trazado_907892" data-name="Trazado 907892" d="M371.917,233.694a5.08,5.08,0,1,1,4.739-5.069A5.08,5.08,0,0,1,371.917,233.694Z" transform="translate(-339.523 -206.809)" fill="#6cbfff" fill-rule="evenodd"/>
        <path id="Trazado_907893" data-name="Trazado 907893" d="M28.878,366.3c-.063-.849-.745-1.427-2.251-1.441-2.4-.022-4.554-.213-6.968-.466-3.591-.25-6.375,2.714-8.608,5.185l5.172,5.172c2.859-2.323,4.154-1.837,6.526-1.874A8.67,8.67,0,0,0,27,372.219l10.15-4.616a14.046,14.046,0,0,0,2.082-1.209c.578-1.4-.61-2.721-4.053-1.368-1.774.7-3.9,1.4-5.367,1.8-.131.036-.645.17-1.064.279a1.639,1.639,0,0,0,.126-.8Z" transform="translate(-10.439 -336.936)" fill="#ffcec0" fill-rule="evenodd"/>
        <path id="Trazado_907894" data-name="Trazado 907894" d="M140.725,397.782a.624.624,0,0,1,.024-1.247c.228,0,.47.015.747.027a29.22,29.22,0,0,0,3.348.005c1.359-.1,2.662-.377,3.17-1.079.354-.092.71-.183,1.064-.279l.4-.11c-.179,1.917-2.3,2.546-4.54,2.711a30.077,30.077,0,0,1-3.49,0c-.291-.013-.546-.024-.719-.027Z" transform="translate(-129.701 -365.324)" fill="#fdb0a0" fill-rule="evenodd"/>
        <path id="Trazado_907895" data-name="Trazado 907895" d="M20.781,364.507q-.553-.055-1.122-.115c-3.59-.25-6.375,2.714-8.608,5.185l.85.85c2.438-2.639,5.344-5.4,8.88-5.921Z" transform="translate(-10.438 -336.936)" fill="#fdc0b1" fill-rule="evenodd"/>
        <path id="Trazado_907896" data-name="Trazado 907896" d="M338.823,28.141V25.047l3.209-3.209v3.094h3.094l-3.209,3.209Z" transform="translate(-313.321 -20.407)" fill="#f2cc8a" fill-rule="evenodd"/>
        <path id="Trazado_907897" data-name="Trazado 907897" d="M338.823,34.8V31.7l2.662-2.662v3.094h3.094L341.917,34.8Z" transform="translate(-313.321 -27.062)" fill="#fcdca4" fill-rule="evenodd"/>
        <path id="Trazado_907898" data-name="Trazado 907898" d="M35.723,29.287A4.473,4.473,0,1,1,40.2,24.815,4.478,4.478,0,0,1,35.723,29.287Zm0-10.16a5.688,5.688,0,1,0,5.69,5.688A5.695,5.695,0,0,0,35.723,19.127Zm2.812,3.546a.609.609,0,0,0-.86,0l-2.918,2.919L33.7,24.11a.608.608,0,1,0-.989.707l1.479,2.064a.609.609,0,0,0,.443.252h.051a.6.6,0,0,0,.428-.178l3.427-3.426a.606.606,0,0,0,0-.859ZM32.1,30.63a1.924,1.924,0,0,1,.256,2.056.618.618,0,0,1-.183.242,14.6,14.6,0,0,1-2.2,1.281l-.015.008L19.8,38.835a8.163,8.163,0,0,1-3.925.717c-.2,0-.392-.008-.571-.005-.4.006-.751,0-1.1-.009a6.227,6.227,0,0,0-5.056,1.748A.61.61,0,0,1,8.3,41.2a.607.607,0,0,1,.088-.854,7.355,7.355,0,0,1,5.851-2.02c.337.007.681.015,1.054.009.2,0,.4,0,.611.005a7.031,7.031,0,0,0,3.4-.609l10.141-4.614a15.392,15.392,0,0,0,1.831-1.036.66.66,0,0,0-.088-.641c-.256-.287-1-.464-2.314-.1-1.164.324-2.3.73-3.507,1.159s-2.427.864-3.679,1.214a2.008,2.008,0,0,1-.256.316c-1.241,1.28-4,1.273-6.484,1.165-.245-.011-.458-.02-.626-.023a.607.607,0,0,1,.026-1.214c.183,0,.4.013.652.025,1.494.064,4.595.2,5.561-.8a.938.938,0,0,0,.26-.778c-.04-.573-.6-.869-1.651-.879-2.332-.022-4.415-.2-7.018-.469-3.387-.228-6.114,2.787-8.106,4.99a.606.606,0,0,1-.45.2.613.613,0,0,1-.41-.156.606.606,0,0,1-.04-.858,25.226,25.226,0,0,1,3.892-3.7,7.861,7.861,0,0,1,5.21-1.685l.022,0c2.574.269,4.628.442,6.912.463,2.442.023,2.808,1.41,2.852,2a.09.09,0,0,1,0,.031c.985-.3,1.966-.649,2.922-.99,1.172-.418,2.387-.85,3.588-1.186,2.193-.611,3.167.026,3.551.46ZM10.6,14.784l1.765-.347a.614.614,0,0,0,.443-.364l1.27-3.066a.61.61,0,0,0-.059-.571l-1-1.493,2.31-2.31,1.494,1a.607.607,0,0,0,.571.057l3.064-1.27a.6.6,0,0,0,.362-.444l.348-1.764H22.2V7.783a8.657,8.657,0,0,0,0,17.271v3.57H21.166l-.348-1.763a.6.6,0,0,0-.362-.443l-3.064-1.27a.606.606,0,0,0-.571.056l-1.494,1-2.31-2.312,1-1.493a.609.609,0,0,0,.059-.571L12.8,18.764a.614.614,0,0,0-.443-.364L10.6,18.052Zm18.5-6.9,2-1.995V7.521a.607.607,0,0,0,.608.607h1.626l-2,2H29.1V7.889ZM10.362,19.245l1.442.285,1.021,2.465-.82,1.222a1.218,1.218,0,0,0,.15,1.537l2.31,2.31a1.221,1.221,0,0,0,1.538.15l1.223-.82,2.464,1.021.286,1.444a1.214,1.214,0,0,0,1.19.981H22.8a.61.61,0,0,0,.608-.607V25.054a8.66,8.66,0,0,0,6.4-13.715h1.768a.6.6,0,0,0,.428-.178l3.211-3.21a.607.607,0,0,0-.428-1.037H32.307V4.427A.609.609,0,0,0,31.268,4L28.06,7.207a.612.612,0,0,0-.179.43V10.48l-5.51,5.509a.608.608,0,0,0,.86.859l1.691-1.693a2.469,2.469,0,1,1-2.12-1.207,2.493,2.493,0,0,1,.461.043.607.607,0,1,0,.223-1.194A3.685,3.685,0,1,0,25.8,14.278l.908-.908a4.938,4.938,0,1,1-1.842-1.459.607.607,0,1,0,.505-1.1,6.112,6.112,0,0,0-2.57-.56,6.172,6.172,0,1,0,4.771,2.259l.9-.9A7.44,7.44,0,1,1,26.4,9.9a.608.608,0,1,0,.589-1.063,8.665,8.665,0,0,0-3.577-1.056V3.6A.609.609,0,0,0,22.8,3H21.166a1.214,1.214,0,0,0-1.19.981l-.286,1.444L17.227,6.443,16,5.623a1.22,1.22,0,0,0-1.538.15l-2.31,2.31a1.218,1.218,0,0,0-.15,1.537l.82,1.223L11.8,13.308l-1.442.285a1.215,1.215,0,0,0-.981,1.192v3.267a1.216,1.216,0,0,0,.981,1.192Z" transform="translate(-2.987 -2.997)" fill-rule="evenodd"/>
      </g>
    </g>
  </g>
</svg>
