<svg xmlns="http://www.w3.org/2000/svg" xmlns:xlink="http://www.w3.org/1999/xlink" width="81.414" height="81.414" viewBox="0 0 81.414 81.414">
  <defs>
    <filter id="Trazado_873828" x="0" y="0" width="81.414" height="81.414" filterUnits="userSpaceOnUse">
      <feOffset dy="3" input="SourceAlpha"/>
      <feGaussianBlur stdDeviation="3" result="blur"/>
      <feFlood flood-opacity="0.161"/>
      <feComposite operator="in" in2="blur"/>
    </filter>
    <filter id="Trazado_873828-2" x="0" y="0" width="81.414" height="81.414" filterUnits="userSpaceOnUse">
      <feOffset dy="3" input="SourceAlpha"/>
      <feGaussianBlur stdDeviation="3" result="blur-2"/>
      <feFlood flood-opacity="0.161" result="color"/>
      <feComposite operator="out" in="SourceGraphic" in2="blur-2"/>
      <feComposite operator="in" in="color"/>
      <feComposite operator="in" in2="SourceGraphic"/>
    </filter>
  </defs>
  <g id="Grupo_1114613" data-name="Grupo 1114613" transform="translate(-502.051 -4290)">
    <g data-type="innerShadowGroup">
      <g transform="matrix(1, 0, 0, 1, 502.05, 4290)" filter="url(#Trazado_873828)">
        <g id="Trazado_873828-3" data-name="Trazado 873828" transform="translate(9 6)" fill="#bce0fc">
          <path d="M 31.70703125 61.4140625 C 27.69572067260742 61.4140625 23.80547142028809 60.62889099121094 20.14433097839355 59.08036041259766 C 16.60707092285156 57.58423233032227 13.42987155914307 55.44195938110352 10.7009916305542 52.71308135986328 C 7.972101211547852 49.98419189453125 5.829841136932373 46.80699157714844 4.333701133728027 43.26974105834961 C 2.785171270370483 39.60859298706055 2.000001192092896 35.71834182739258 2.000001192092896 31.70703125 C 2.000001192092896 27.69573211669922 2.785171270370483 23.80547142028809 4.333701133728027 20.14433097839355 C 5.829841136932373 16.60707092285156 7.972101211547852 13.42987155914307 10.7009916305542 10.7009916305542 C 13.42987155914307 7.972101211547852 16.60707092285156 5.829841136932373 20.14433097839355 4.333701133728027 C 23.80547142028809 2.785171270370483 27.69573211669922 2.000001192092896 31.70703125 2.000001192092896 C 35.71834182739258 2.000001192092896 39.60859298706055 2.785171270370483 43.26974105834961 4.333701133728027 C 46.80699157714844 5.829841136932373 49.98419189453125 7.972101211547852 52.71308135986328 10.7009916305542 C 55.44195938110352 13.42987155914307 57.58423233032227 16.60707092285156 59.08036041259766 20.14433097839355 C 60.62889099121094 23.80547142028809 61.4140625 27.69572067260742 61.4140625 31.70703125 C 61.4140625 35.71834182739258 60.62889099121094 39.60859298706055 59.08036041259766 43.26974105834961 C 57.58423233032227 46.80699157714844 55.44195938110352 49.98419189453125 52.71308135986328 52.71308135986328 C 49.98419189453125 55.44195938110352 46.80699157714844 57.58423233032227 43.26974105834961 59.08036041259766 C 39.60859298706055 60.62889099121094 35.71834182739258 61.4140625 31.70703125 61.4140625 Z" stroke="none"/>
          <path d="M 31.70703125 3.999996185302734 C 27.96484375 3.999996185302734 24.33671188354492 4.732006072998047 20.92343139648438 6.175712585449219 C 17.62457275390625 7.571006774902344 14.66105651855469 9.569347381591797 12.11519622802734 12.11519622802734 C 9.569347381591797 14.66105651855469 7.571006774902344 17.62457275390625 6.175712585449219 20.92343139648438 C 4.732006072998047 24.33671188354492 3.999996185302734 27.96484375 3.999996185302734 31.70703125 C 3.999996185302734 35.44921875 4.732006072998047 39.07734680175781 6.175712585449219 42.49063110351562 C 7.571006774902344 45.78948974609375 9.5693359375 48.75300598144531 12.11519622802734 51.29886627197266 C 14.66105651855469 53.8447265625 17.62457275390625 55.84305572509766 20.92343139648438 57.23834991455078 C 24.33671188354492 58.68205642700195 27.96484375 59.41406631469727 31.70703125 59.41406631469727 C 35.44921875 59.41406631469727 39.07734680175781 58.68205642700195 42.49063110351562 57.23834991455078 C 45.78948974609375 55.84305572509766 48.75300598144531 53.8447265625 51.29886627197266 51.29886627197266 C 53.8447265625 48.75300598144531 55.84305572509766 45.78948974609375 57.23834991455078 42.49063110351562 C 58.68205642700195 39.07734680175781 59.41406631469727 35.44921875 59.41406631469727 31.70703125 C 59.41406631469727 27.96484375 58.68205642700195 24.33671188354492 57.23834991455078 20.92343139648438 C 55.84305572509766 17.62457275390625 53.8447265625 14.66105651855469 51.29886627197266 12.11519622802734 C 48.75300598144531 9.5693359375 45.78948974609375 7.571006774902344 42.49063110351562 6.175712585449219 C 39.07734680175781 4.732006072998047 35.44921875 3.999996185302734 31.70703125 3.999996185302734 M 31.70703125 -3.814697265625e-06 C 49.21834945678711 -3.814697265625e-06 63.41406631469727 14.19572448730469 63.41406631469727 31.70703125 C 63.41406631469727 49.21834945678711 49.21834945678711 63.41406631469727 31.70703125 63.41406631469727 C 14.19572448730469 63.41406631469727 -3.814697265625e-06 49.21834945678711 -3.814697265625e-06 31.70703125 C -3.814697265625e-06 14.19572448730469 14.19572448730469 -3.814697265625e-06 31.70703125 -3.814697265625e-06 Z" stroke="none" fill="#fff"/>
        </g>
      </g>
      <g id="Trazado_873828-4" data-name="Trazado 873828" transform="translate(511.051 4296)" fill="#bce0fc">
        <path d="M 31.70703125 61.4140625 C 27.69572067260742 61.4140625 23.80547142028809 60.62889099121094 20.14433097839355 59.08036041259766 C 16.60707092285156 57.58423233032227 13.42987155914307 55.44195938110352 10.7009916305542 52.71308135986328 C 7.972101211547852 49.98419189453125 5.829841136932373 46.80699157714844 4.333701133728027 43.26974105834961 C 2.785171270370483 39.60859298706055 2.000001192092896 35.71834182739258 2.000001192092896 31.70703125 C 2.000001192092896 27.69573211669922 2.785171270370483 23.80547142028809 4.333701133728027 20.14433097839355 C 5.829841136932373 16.60707092285156 7.972101211547852 13.42987155914307 10.7009916305542 10.7009916305542 C 13.42987155914307 7.972101211547852 16.60707092285156 5.829841136932373 20.14433097839355 4.333701133728027 C 23.80547142028809 2.785171270370483 27.69573211669922 2.000001192092896 31.70703125 2.000001192092896 C 35.71834182739258 2.000001192092896 39.60859298706055 2.785171270370483 43.26974105834961 4.333701133728027 C 46.80699157714844 5.829841136932373 49.98419189453125 7.972101211547852 52.71308135986328 10.7009916305542 C 55.44195938110352 13.42987155914307 57.58423233032227 16.60707092285156 59.08036041259766 20.14433097839355 C 60.62889099121094 23.80547142028809 61.4140625 27.69572067260742 61.4140625 31.70703125 C 61.4140625 35.71834182739258 60.62889099121094 39.60859298706055 59.08036041259766 43.26974105834961 C 57.58423233032227 46.80699157714844 55.44195938110352 49.98419189453125 52.71308135986328 52.71308135986328 C 49.98419189453125 55.44195938110352 46.80699157714844 57.58423233032227 43.26974105834961 59.08036041259766 C 39.60859298706055 60.62889099121094 35.71834182739258 61.4140625 31.70703125 61.4140625 Z" stroke="none"/>
        <path d="M 31.70703125 3.999996185302734 C 27.96484375 3.999996185302734 24.33671188354492 4.732006072998047 20.92343139648438 6.175712585449219 C 17.62457275390625 7.571006774902344 14.66105651855469 9.569347381591797 12.11519622802734 12.11519622802734 C 9.569347381591797 14.66105651855469 7.571006774902344 17.62457275390625 6.175712585449219 20.92343139648438 C 4.732006072998047 24.33671188354492 3.999996185302734 27.96484375 3.999996185302734 31.70703125 C 3.999996185302734 35.44921875 4.732006072998047 39.07734680175781 6.175712585449219 42.49063110351562 C 7.571006774902344 45.78948974609375 9.5693359375 48.75300598144531 12.11519622802734 51.29886627197266 C 14.66105651855469 53.8447265625 17.62457275390625 55.84305572509766 20.92343139648438 57.23834991455078 C 24.33671188354492 58.68205642700195 27.96484375 59.41406631469727 31.70703125 59.41406631469727 C 35.44921875 59.41406631469727 39.07734680175781 58.68205642700195 42.49063110351562 57.23834991455078 C 45.78948974609375 55.84305572509766 48.75300598144531 53.8447265625 51.29886627197266 51.29886627197266 C 53.8447265625 48.75300598144531 55.84305572509766 45.78948974609375 57.23834991455078 42.49063110351562 C 58.68205642700195 39.07734680175781 59.41406631469727 35.44921875 59.41406631469727 31.70703125 C 59.41406631469727 27.96484375 58.68205642700195 24.33671188354492 57.23834991455078 20.92343139648438 C 55.84305572509766 17.62457275390625 53.8447265625 14.66105651855469 51.29886627197266 12.11519622802734 C 48.75300598144531 9.5693359375 45.78948974609375 7.571006774902344 42.49063110351562 6.175712585449219 C 39.07734680175781 4.732006072998047 35.44921875 3.999996185302734 31.70703125 3.999996185302734 M 31.70703125 -3.814697265625e-06 C 49.21834945678711 -3.814697265625e-06 63.41406631469727 14.19572448730469 63.41406631469727 31.70703125 C 63.41406631469727 49.21834945678711 49.21834945678711 63.41406631469727 31.70703125 63.41406631469727 C 14.19572448730469 63.41406631469727 -3.814697265625e-06 49.21834945678711 -3.814697265625e-06 31.70703125 C -3.814697265625e-06 14.19572448730469 14.19572448730469 -3.814697265625e-06 31.70703125 -3.814697265625e-06 Z" stroke="none"/>
      </g>
      <g transform="matrix(1, 0, 0, 1, 502.05, 4290)" filter="url(#Trazado_873828-2)">
        <g id="Trazado_873828-5" data-name="Trazado 873828" transform="translate(9 6)" fill="#fff">
          <path d="M 31.70703125 61.4140625 C 27.69572067260742 61.4140625 23.80547142028809 60.62889099121094 20.14433097839355 59.08036041259766 C 16.60707092285156 57.58423233032227 13.42987155914307 55.44195938110352 10.7009916305542 52.71308135986328 C 7.972101211547852 49.98419189453125 5.829841136932373 46.80699157714844 4.333701133728027 43.26974105834961 C 2.785171270370483 39.60859298706055 2.000001192092896 35.71834182739258 2.000001192092896 31.70703125 C 2.000001192092896 27.69573211669922 2.785171270370483 23.80547142028809 4.333701133728027 20.14433097839355 C 5.829841136932373 16.60707092285156 7.972101211547852 13.42987155914307 10.7009916305542 10.7009916305542 C 13.42987155914307 7.972101211547852 16.60707092285156 5.829841136932373 20.14433097839355 4.333701133728027 C 23.80547142028809 2.785171270370483 27.69573211669922 2.000001192092896 31.70703125 2.000001192092896 C 35.71834182739258 2.000001192092896 39.60859298706055 2.785171270370483 43.26974105834961 4.333701133728027 C 46.80699157714844 5.829841136932373 49.98419189453125 7.972101211547852 52.71308135986328 10.7009916305542 C 55.44195938110352 13.42987155914307 57.58423233032227 16.60707092285156 59.08036041259766 20.14433097839355 C 60.62889099121094 23.80547142028809 61.4140625 27.69572067260742 61.4140625 31.70703125 C 61.4140625 35.71834182739258 60.62889099121094 39.60859298706055 59.08036041259766 43.26974105834961 C 57.58423233032227 46.80699157714844 55.44195938110352 49.98419189453125 52.71308135986328 52.71308135986328 C 49.98419189453125 55.44195938110352 46.80699157714844 57.58423233032227 43.26974105834961 59.08036041259766 C 39.60859298706055 60.62889099121094 35.71834182739258 61.4140625 31.70703125 61.4140625 Z" stroke="none"/>
          <path d="M 31.70703125 3.999996185302734 C 27.96484375 3.999996185302734 24.33671188354492 4.732006072998047 20.92343139648438 6.175712585449219 C 17.62457275390625 7.571006774902344 14.66105651855469 9.569347381591797 12.11519622802734 12.11519622802734 C 9.569347381591797 14.66105651855469 7.571006774902344 17.62457275390625 6.175712585449219 20.92343139648438 C 4.732006072998047 24.33671188354492 3.999996185302734 27.96484375 3.999996185302734 31.70703125 C 3.999996185302734 35.44921875 4.732006072998047 39.07734680175781 6.175712585449219 42.49063110351562 C 7.571006774902344 45.78948974609375 9.5693359375 48.75300598144531 12.11519622802734 51.29886627197266 C 14.66105651855469 53.8447265625 17.62457275390625 55.84305572509766 20.92343139648438 57.23834991455078 C 24.33671188354492 58.68205642700195 27.96484375 59.41406631469727 31.70703125 59.41406631469727 C 35.44921875 59.41406631469727 39.07734680175781 58.68205642700195 42.49063110351562 57.23834991455078 C 45.78948974609375 55.84305572509766 48.75300598144531 53.8447265625 51.29886627197266 51.29886627197266 C 53.8447265625 48.75300598144531 55.84305572509766 45.78948974609375 57.23834991455078 42.49063110351562 C 58.68205642700195 39.07734680175781 59.41406631469727 35.44921875 59.41406631469727 31.70703125 C 59.41406631469727 27.96484375 58.68205642700195 24.33671188354492 57.23834991455078 20.92343139648438 C 55.84305572509766 17.62457275390625 53.8447265625 14.66105651855469 51.29886627197266 12.11519622802734 C 48.75300598144531 9.5693359375 45.78948974609375 7.571006774902344 42.49063110351562 6.175712585449219 C 39.07734680175781 4.732006072998047 35.44921875 3.999996185302734 31.70703125 3.999996185302734 M 31.70703125 -3.814697265625e-06 C 49.21834945678711 -3.814697265625e-06 63.41406631469727 14.19572448730469 63.41406631469727 31.70703125 C 63.41406631469727 49.21834945678711 49.21834945678711 63.41406631469727 31.70703125 63.41406631469727 C 14.19572448730469 63.41406631469727 -3.814697265625e-06 49.21834945678711 -3.814697265625e-06 31.70703125 C -3.814697265625e-06 14.19572448730469 14.19572448730469 -3.814697265625e-06 31.70703125 -3.814697265625e-06 Z" stroke="none"/>
        </g>
      </g>
      <g id="Trazado_873828-6" data-name="Trazado 873828" transform="translate(511.051 4296)" fill="none">
        <path d="M 31.70703125 61.4140625 C 27.69572067260742 61.4140625 23.80547142028809 60.62889099121094 20.14433097839355 59.08036041259766 C 16.60707092285156 57.58423233032227 13.42987155914307 55.44195938110352 10.7009916305542 52.71308135986328 C 7.972101211547852 49.98419189453125 5.829841136932373 46.80699157714844 4.333701133728027 43.26974105834961 C 2.785171270370483 39.60859298706055 2.000001192092896 35.71834182739258 2.000001192092896 31.70703125 C 2.000001192092896 27.69573211669922 2.785171270370483 23.80547142028809 4.333701133728027 20.14433097839355 C 5.829841136932373 16.60707092285156 7.972101211547852 13.42987155914307 10.7009916305542 10.7009916305542 C 13.42987155914307 7.972101211547852 16.60707092285156 5.829841136932373 20.14433097839355 4.333701133728027 C 23.80547142028809 2.785171270370483 27.69573211669922 2.000001192092896 31.70703125 2.000001192092896 C 35.71834182739258 2.000001192092896 39.60859298706055 2.785171270370483 43.26974105834961 4.333701133728027 C 46.80699157714844 5.829841136932373 49.98419189453125 7.972101211547852 52.71308135986328 10.7009916305542 C 55.44195938110352 13.42987155914307 57.58423233032227 16.60707092285156 59.08036041259766 20.14433097839355 C 60.62889099121094 23.80547142028809 61.4140625 27.69572067260742 61.4140625 31.70703125 C 61.4140625 35.71834182739258 60.62889099121094 39.60859298706055 59.08036041259766 43.26974105834961 C 57.58423233032227 46.80699157714844 55.44195938110352 49.98419189453125 52.71308135986328 52.71308135986328 C 49.98419189453125 55.44195938110352 46.80699157714844 57.58423233032227 43.26974105834961 59.08036041259766 C 39.60859298706055 60.62889099121094 35.71834182739258 61.4140625 31.70703125 61.4140625 Z" stroke="none"/>
        <path d="M 31.70703125 3.999996185302734 C 27.96484375 3.999996185302734 24.33671188354492 4.732006072998047 20.92343139648438 6.175712585449219 C 17.62457275390625 7.571006774902344 14.66105651855469 9.569347381591797 12.11519622802734 12.11519622802734 C 9.569347381591797 14.66105651855469 7.571006774902344 17.62457275390625 6.175712585449219 20.92343139648438 C 4.732006072998047 24.33671188354492 3.999996185302734 27.96484375 3.999996185302734 31.70703125 C 3.999996185302734 35.44921875 4.732006072998047 39.07734680175781 6.175712585449219 42.49063110351562 C 7.571006774902344 45.78948974609375 9.5693359375 48.75300598144531 12.11519622802734 51.29886627197266 C 14.66105651855469 53.8447265625 17.62457275390625 55.84305572509766 20.92343139648438 57.23834991455078 C 24.33671188354492 58.68205642700195 27.96484375 59.41406631469727 31.70703125 59.41406631469727 C 35.44921875 59.41406631469727 39.07734680175781 58.68205642700195 42.49063110351562 57.23834991455078 C 45.78948974609375 55.84305572509766 48.75300598144531 53.8447265625 51.29886627197266 51.29886627197266 C 53.8447265625 48.75300598144531 55.84305572509766 45.78948974609375 57.23834991455078 42.49063110351562 C 58.68205642700195 39.07734680175781 59.41406631469727 35.44921875 59.41406631469727 31.70703125 C 59.41406631469727 27.96484375 58.68205642700195 24.33671188354492 57.23834991455078 20.92343139648438 C 55.84305572509766 17.62457275390625 53.8447265625 14.66105651855469 51.29886627197266 12.11519622802734 C 48.75300598144531 9.5693359375 45.78948974609375 7.571006774902344 42.49063110351562 6.175712585449219 C 39.07734680175781 4.732006072998047 35.44921875 3.999996185302734 31.70703125 3.999996185302734 M 31.70703125 -3.814697265625e-06 C 49.21834945678711 -3.814697265625e-06 63.41406631469727 14.19572448730469 63.41406631469727 31.70703125 C 63.41406631469727 49.21834945678711 49.21834945678711 63.41406631469727 31.70703125 63.41406631469727 C 14.19572448730469 63.41406631469727 -3.814697265625e-06 49.21834945678711 -3.814697265625e-06 31.70703125 C -3.814697265625e-06 14.19572448730469 14.19572448730469 -3.814697265625e-06 31.70703125 -3.814697265625e-06 Z" stroke="none" fill="#fff"/>
      </g>
    </g>
    <g id="Grupo_1114612" data-name="Grupo 1114612" transform="translate(496.06 4300.006)">
      <g id="Grupo_1114611" data-name="Grupo 1114611" transform="translate(28.636 8.639)">
        <g id="Grupo_1114606" data-name="Grupo 1114606" transform="translate(0 10.994)">
          <path id="Trazado_907917" data-name="Trazado 907917" d="M41.267,159.822a.446.446,0,0,1-.722.35l-4.374-3.444a.446.446,0,0,1,0-.7l4.374-3.444a.446.446,0,0,1,.722.35v1.355h8.427a5.243,5.243,0,0,1,5.236,5.236v2.93a10.238,10.238,0,0,0-4.028,0v-2.93a1.214,1.214,0,0,0-1.208-1.208H41.267Z" transform="translate(-36.001 -152.487)" fill="#ffe177" fill-rule="evenodd"/>
          <path id="Trazado_907918" data-name="Trazado 907918" d="M41.267,164.913a.446.446,0,0,1-.722.35l-4.374-3.444a.446.446,0,0,1,0-.7l.066-.052,4.308,3.392a.446.446,0,0,0,.722-.35Zm0-6.89v0ZM54.93,166.74v.806a10.238,10.238,0,0,0-4.028,0v-.806a10.238,10.238,0,0,1,4.028,0ZM50.9,164.616v-.806a1.214,1.214,0,0,0-1.208-1.208H41.267v.806h8.427a1.214,1.214,0,0,1,1.208,1.208Z" transform="translate(-36.001 -157.577)" fill="#ffd064" fill-rule="evenodd"/>
        </g>
        <g id="Grupo_1114607" data-name="Grupo 1114607" transform="translate(13.024 0)">
          <path id="Trazado_907919" data-name="Trazado 907919" d="M198.138,21.266a.446.446,0,0,1-.35-.722l3.444-4.374a.446.446,0,0,1,.7,0l3.444,4.374a.446.446,0,0,1-.35.722H203.6v7.19a7.638,7.638,0,0,0-4.028-1.98v-5.21Z" transform="translate(-197.69 -16)" fill="#c2ed56" fill-rule="evenodd"/>
          <path id="Trazado_907920" data-name="Trazado 907920" d="M241,16.237l.052-.067a.446.446,0,0,1,.7,0l3.444,4.374a.446.446,0,0,1-.35.722h-.8a.446.446,0,0,0,.349-.722Zm2.417,5.03h-.806V27.8a7.694,7.694,0,0,1,.806.66Z" transform="translate(-237.511 -16)" fill="#b7e546" fill-rule="evenodd"/>
        </g>
        <g id="Grupo_1114608" data-name="Grupo 1114608" transform="translate(19.329 10.994)">
          <path id="Trazado_907921" data-name="Trazado 907921" d="M286.8,159.822a.446.446,0,0,0,.722.35l4.374-3.444a.446.446,0,0,0,0-.7l-4.374-3.444a.446.446,0,0,0-.722.35v1.355H276.763a5.249,5.249,0,0,0-.809.063,7.637,7.637,0,0,1,1.922,3.965H286.8Z" transform="translate(-275.954 -152.487)" fill="#8ac9fe" fill-rule="evenodd"/>
          <path id="Trazado_907922" data-name="Trazado 907922" d="M286.8,164.913a.446.446,0,0,0,.722.35l4.374-3.444a.446.446,0,0,0,0-.7l-.066-.052-4.308,3.392a.446.446,0,0,1-.722-.35Zm0-6.89v0Zm-10.243,1.361a7.628,7.628,0,0,1,1.317,3.218H286.8v.806h-8.926a7.637,7.637,0,0,0-1.922-3.965A5.258,5.258,0,0,1,276.559,159.384Z" transform="translate(-275.954 -157.577)" fill="#60b7ff" fill-rule="evenodd"/>
        </g>
        <g id="Grupo_1114609" data-name="Grupo 1114609" transform="translate(21.346 18.059)">
          <path id="Trazado_907923" data-name="Trazado 907923" d="M312.8,257.074a.446.446,0,0,1,.07.8l-4.777,2.86a.446.446,0,0,1-.655-.25l-1.659-5.314a.446.446,0,0,1,.585-.55l1.074.41A10.258,10.258,0,0,0,301,244.423v-4.23a14.274,14.274,0,0,1,10.279,16.3Z" transform="translate(-300.999 -240.193)" fill="#fe646f" fill-rule="evenodd"/>
          <path id="Trazado_907924" data-name="Trazado 907924" d="M308.3,260.606l-.21.126a.446.446,0,0,1-.655-.25l-1.659-5.314a.446.446,0,0,1,.585-.55l.314.12a.436.436,0,0,0-.093.43l1.659,5.314A.455.455,0,0,0,308.3,260.606Zm-.839-5.875.779.3a10.258,10.258,0,0,0-6.437-10.607v-3.983q-.4-.135-.806-.247v4.23a10.258,10.258,0,0,1,6.464,10.31Z" transform="translate(-300.999 -240.191)" fill="#fd4755" fill-rule="evenodd"/>
        </g>
        <g id="Grupo_1114610" data-name="Grupo 1114610" transform="translate(9.173 23.179)">
          <circle id="Elipse_12829" data-name="Elipse 12829" cx="7.743" cy="7.743" r="7.743" fill="#837683"/>
          <path id="Trazado_907925" data-name="Trazado 907925" d="M244.509,311.493a7.707,7.707,0,0,1-1.292,4.284,7.752,7.752,0,0,1-5.763,3.429q.34.03.688.03a7.8,7.8,0,0,0,1.108-.079l.14-.021a7.744,7.744,0,0,0-1.248-15.386q-.348,0-.688.03A7.744,7.744,0,0,1,244.509,311.493Z" transform="translate(-230.399 -303.75)" fill="#685e68" fill-rule="evenodd"/>
          <path id="Trazado_907926" data-name="Trazado 907926" d="M184.631,409.145a5.41,5.41,0,0,0-5.376,4.825,7.717,7.717,0,0,0,5.376,2.171,7.809,7.809,0,0,0,1.108-.079,7.72,7.72,0,0,0,4.268-2.092A5.408,5.408,0,0,0,184.631,409.145Z" transform="translate(-176.888 -400.655)" fill="#8ac9fe" fill-rule="evenodd"/>
          <path id="Trazado_907927" data-name="Trazado 907927" d="M237.456,409.188c3.219.409,4.516,2.844,4.814,5.763a7.779,7.779,0,0,0,1.25-.981,5.408,5.408,0,0,0-5.376-4.825A5.478,5.478,0,0,0,237.456,409.188Z" transform="translate(-230.401 -400.654)" fill="#60b7ff" fill-rule="evenodd"/>
          <circle id="Elipse_12830" data-name="Elipse 12830" cx="2.734" cy="2.734" r="2.734" transform="matrix(0.987, -0.16, 0.16, 0.987, 4.6, 3.496)" fill="#f6dccd"/>
          <path id="Trazado_907928" data-name="Trazado 907928" d="M244.118,344a2.734,2.734,0,0,1-2.39,2.712,2.734,2.734,0,1,0,0-5.425A2.734,2.734,0,0,1,244.118,344Z" transform="translate(-234.329 -338.245)" fill="#f1cbbc" fill-rule="evenodd"/>
        </g>
      </g>
      <path id="Trazado_907929" data-name="Trazado 907929" d="M59.456,26.56v-1.1a.644.644,0,0,0-.644-.644h-8.4a8.232,8.232,0,0,0-1.179-2.739h9.574a.644.644,0,0,0,.644-.644v-.946l3.854,3.034Zm-8.83,1.01a13.631,13.631,0,0,1,9,15.314.644.644,0,0,0,.4.718l1.137.434-4.209,2.521L55.5,41.873l.693.264a.645.645,0,0,0,.87-.535,10.905,10.905,0,0,0-6.434-11.1V27.57ZM47.565,13.261a.645.645,0,0,0-.645.645v5.051a8.242,8.242,0,0,0-2.739-1.179V13.905a.645.645,0,0,0-.645-.645H42.516L45.551,9.4l3.035,3.856Zm16.742,9.407-4.375-3.443a1.09,1.09,0,0,0-1.765.856v.711H48.773a5.918,5.918,0,0,0-.909.07l-.013,0a.642.642,0,0,0,.358-.575V14.549H49a1.091,1.091,0,0,0,.857-1.765L46.408,8.41a1.09,1.09,0,0,0-1.713,0L41.25,12.784a1.09,1.09,0,0,0,.857,1.765h.786v3.759a.644.644,0,0,0,.543.637,6.978,6.978,0,0,1,3.688,1.813.647.647,0,0,0,.441.175.764.764,0,0,0,.11-.01.641.641,0,0,0-.185,1.01,6.983,6.983,0,0,1,1.76,3.631.644.644,0,0,0,.508.529.632.632,0,0,0-.167.091.642.642,0,0,0-.254.512v4.23a.644.644,0,0,0,.408.6,9.613,9.613,0,0,1,6.085,9.093l-.256-.1a1.091,1.091,0,0,0-1.43,1.344l1.66,5.314a1.072,1.072,0,0,0,.653.694,1.11,1.11,0,0,0,.392.074,1.079,1.079,0,0,0,.556-.157l4.775-2.861a1.09,1.09,0,0,0-.171-1.954l-1.028-.392A14.911,14.911,0,0,0,50.26,26.108h7.907v.86a1.084,1.084,0,0,0,.615.981,1.085,1.085,0,0,0,1.15-.124l4.375-3.445a1.081,1.081,0,0,0,.417-.857A1.068,1.068,0,0,0,64.307,22.667ZM33.9,24.819a.644.644,0,0,0-.644.644v1.1L29.4,23.525l3.855-3.035v.946a.644.644,0,0,0,.644.644h8.427a4.6,4.6,0,0,1,4.591,4.591v2.171a10.94,10.94,0,0,0-2.739,0V26.672a1.858,1.858,0,0,0-1.853-1.853Zm8.825,1.456a.555.555,0,0,1,.167.4V29.6a.645.645,0,0,0,.772.632,9.619,9.619,0,0,1,3.773,0,.7.7,0,0,0,.127.012.645.645,0,0,0,.644-.645V26.672a5.886,5.886,0,0,0-5.88-5.88H34.546V20.08a1.09,1.09,0,0,0-1.765-.857l-4.375,3.444a1.07,1.07,0,0,0-.416.857,1.082,1.082,0,0,0,.417.857l4.374,3.444a1.09,1.09,0,0,0,1.765-.857v-.86h7.783A.558.558,0,0,1,42.726,26.275ZM51.278,43.75a7.1,7.1,0,1,0-11.452,0A6.036,6.036,0,0,1,43.3,40.092a3.378,3.378,0,1,1,4.495,0A6.039,6.039,0,0,1,51.278,43.75Zm-7.816-6.177a2.09,2.09,0,1,1,2.09,2.09,2.092,2.092,0,0,1-2.09-2.09Zm-2.6,7.311a4.762,4.762,0,0,1,9.379,0,7.083,7.083,0,0,1-9.379,0Zm4.69-13.711a8.387,8.387,0,1,0,8.387,8.387A8.4,8.4,0,0,0,45.551,31.173Z" fill-rule="evenodd"/>
    </g>
  </g>
</svg>
