<svg xmlns="http://www.w3.org/2000/svg" xmlns:xlink="http://www.w3.org/1999/xlink" width="113" height="113" viewBox="0 0 113 113">
  <defs>
    <filter id="Trazado_906462" x="0" y="0" width="113" height="113" filterUnits="userSpaceOnUse">
      <feOffset dy="3" input="SourceAlpha"/>
      <feGaussianBlur stdDeviation="3" result="blur"/>
      <feFlood flood-opacity="0.161"/>
      <feComposite operator="in" in2="blur"/>
      <feComposite in="SourceGraphic"/>
    </filter>
  </defs>
  <g id="Grupo_1114239" data-name="Grupo 1114239" transform="translate(-586.051 -2827)">
    <g transform="matrix(1, 0, 0, 1, 586.05, 2827)" filter="url(#Trazado_906462)">
      <g id="Trazado_906462-2" data-name="Trazado 906462" transform="translate(9 6)" fill="#f3f0ea">
        <path d="M 47.49993515014648 93.5 C 41.28932189941406 93.5 35.26528167724609 92.28397369384766 29.59514808654785 89.88571929931641 C 24.1176815032959 87.56894683837891 19.1981086730957 84.25197601318359 14.97306823730469 80.02693176269531 C 10.74802875518799 75.80189514160156 7.431055068969727 70.88231658935547 5.11428165435791 65.40485382080078 C 2.716028451919556 59.73471832275391 1.500001788139343 53.71067810058594 1.500001788139343 47.50006484985352 C 1.500001788139343 41.28932189941406 2.716028451919556 35.26528167724609 5.11428165435791 29.59514617919922 C 7.431055068969727 24.11767959594727 10.74802875518799 19.19810676574707 14.97306823730469 14.97306632995605 C 19.1981086730957 10.74802684783936 24.1176815032959 7.431053161621094 29.59514808654785 5.114280223846436 C 35.26528167724609 2.716026782989502 41.28932189941406 1.5 47.49993515014648 1.5 C 53.71054840087891 1.5 59.73458862304688 2.716026782989502 65.40472412109375 5.114280223846436 C 70.88218688964844 7.431053161621094 75.80176544189453 10.74802684783936 80.02680206298828 14.97306632995605 C 84.25183868408203 19.19810676574707 87.56881713867188 24.11767959594727 89.88558959960938 29.59514617919922 C 92.28384399414062 35.26528167724609 93.49987030029297 41.28932189941406 93.49987030029297 47.49993515014648 C 93.49987030029297 53.71067810058594 92.28384399414062 59.73471832275391 89.88558959960938 65.40485382080078 C 87.56881713867188 70.88231658935547 84.25183868408203 75.80189514160156 80.02680206298828 80.02693176269531 C 75.80176544189453 84.25197601318359 70.88218688964844 87.56894683837891 65.40472412109375 89.88571929931641 C 59.73458862304688 92.28397369384766 53.71054840087891 93.5 47.49993515014648 93.5 Z" stroke="none"/>
        <path d="M 47.49993515014648 3 C 41.49116516113281 3 35.66371917724609 4.176155090332031 30.17947387695312 6.495796203613281 C 24.88081359863281 8.7369384765625 20.12149047851562 11.94596862792969 16.03372192382812 16.03372192382812 C 11.94596862792969 20.12149047851562 8.7369384765625 24.88081359863281 6.495796203613281 30.17947387695312 C 4.1761474609375 35.66372299194336 3 41.49116897583008 3 47.50006103515625 C 3 53.50883102416992 4.1761474609375 59.33627700805664 6.495796203613281 64.82052612304688 C 8.7369384765625 70.11918640136719 11.94596862792969 74.87850952148438 16.03372192382812 78.96627807617188 C 20.12149047851562 83.05403137207031 24.88081359863281 86.2630615234375 30.17947387695312 88.50419616699219 C 35.66371917724609 90.82384490966797 41.49116516113281 92 47.49993515014648 92 C 53.50870513916016 92 59.33615112304688 90.82384490966797 64.82039642333984 88.50419616699219 C 70.11905670166016 86.2630615234375 74.87837982177734 83.05403137207031 78.96614837646484 78.96627807617188 C 83.05390167236328 74.87850952148438 86.26293182373047 70.11918640136719 88.50407409667969 64.82052612304688 C 90.82372283935547 59.33627700805664 91.99987030029297 53.50883102416992 91.99987030029297 47.49993896484375 C 91.99987030029297 41.49116897583008 90.82372283935547 35.66372299194336 88.50407409667969 30.17947387695312 C 86.26293182373047 24.88081359863281 83.05390167236328 20.12149047851562 78.96614837646484 16.03372192382812 C 74.87837982177734 11.94596862792969 70.11905670166016 8.7369384765625 64.82039642333984 6.495796203613281 C 59.33615112304688 4.176155090332031 53.50870513916016 3 47.49993515014648 3 M 47.49993515014648 0 C 73.73342895507812 0 94.99987030029297 21.26644897460938 94.99987030029297 47.49993896484375 L 94.99987030029297 47.50006103515625 C 94.99987030029297 73.73355102539062 73.73342895507812 95 47.49993515014648 95 C 21.26644134521484 95 0 73.73355102539062 0 47.50006103515625 L 0 47.49993896484375 C 0 21.26644897460938 21.26644134521484 0 47.49993515014648 0 Z" stroke="none" fill="#fff"/>
      </g>
    </g>
    <g id="Grupo_1114238" data-name="Grupo 1114238" transform="translate(604.048 2841.891)">
      <g id="Grupo_1114237" data-name="Grupo 1114237" transform="translate(9.189 9.094)">
        <g id="Grupo_1114235" data-name="Grupo 1114235" transform="translate(0)">
          <path id="Trazado_907182" data-name="Trazado 907182" d="M47.685,20.171a21.483,21.483,0,0,1,6.29,2.608l4.088-1.815,4.818,4.818-1.815,4.086a21.481,21.481,0,0,1,2.608,6.292l4.17,1.605v6.813l-4.171,1.606a21.483,21.483,0,0,1-2.608,6.29l1.815,4.088-4.818,4.818-4.086-1.815a21.477,21.477,0,0,1-6.292,2.608l-1.605,4.17H39.266L37.66,62.171a21.484,21.484,0,0,1-6.29-2.608l-4.088,1.815-4.818-4.818,1.815-4.086a21.483,21.483,0,0,1-2.608-6.292L17.5,44.578V37.765l4.171-1.605a21.481,21.481,0,0,1,2.608-6.291l-1.815-4.087,4.818-4.818,4.088,1.815a21.486,21.486,0,0,1,6.29-2.608L39.266,16h6.813Z" transform="translate(-17.501 -16)" fill="#ffe177" fill-rule="evenodd"/>
          <path id="Trazado_907183" data-name="Trazado 907183" d="M95.5,59.564l-4.088,1.815-.629-.629,3.832-1.7q.436.269.885.516Zm16.314-39.392a21.483,21.483,0,0,1,6.29,2.608l-1.162.516a28.336,28.336,0,0,0-7.175-3.124L108.164,16h2.047Zm6.292,39.393a21.477,21.477,0,0,1-6.292,2.608l-1.605,4.17h-2.047l1.605-4.17a28.326,28.326,0,0,0,7.177-3.124ZM90.785,21.593l.629-.629L95.5,22.779q-.448.247-.885.516Zm29.992,0,1.417-.629,4.818,4.818L125.2,29.867a21.481,21.481,0,0,1,2.608,6.292l4.17,1.605v6.813L127.8,46.183a21.482,21.482,0,0,1-2.608,6.29l1.815,4.088-4.818,4.818-1.417-.629,4.188-4.188-1.815-4.088a21.483,21.483,0,0,0,2.608-6.29l4.171-1.606V37.765l-4.17-1.605a21.481,21.481,0,0,0-2.608-6.292l1.815-4.086Z" transform="translate(-81.633 -16)" fill="#ffd064" fill-rule="evenodd"/>
          <circle id="Elipse_12775" data-name="Elipse 12775" cx="13.347" cy="13.347" r="13.347" transform="translate(9.115 15.241) rotate(-13.3)" fill="#eceff1"/>
          <path id="Trazado_907184" data-name="Trazado 907184" d="M125.53,110.68a13.347,13.347,0,0,0,0,26.694q.536,0,1.062-.042a13.348,13.348,0,0,1,0-26.61Q126.066,110.681,125.53,110.68Z" transform="translate(-100.359 -98.856)" fill="#d1d1d6" fill-rule="evenodd"/>
        </g>
        <g id="Grupo_1114236" data-name="Grupo 1114236" transform="translate(24.816 25.227)">
          <circle id="Elipse_12776" data-name="Elipse 12776" cx="15.661" cy="15.661" r="15.661" transform="translate(0 3.396)" fill="#fe646f"/>
          <path id="Trazado_907185" data-name="Trazado 907185" d="M337.239,245.192a15.661,15.661,0,1,1,0,31.322c-.209,0-.417-.005-.624-.013a15.66,15.66,0,0,0,0-31.3c.207-.008.415-.013.624-.013Z" transform="translate(-321.578 -241.796)" fill="#fd4755" fill-rule="evenodd"/>
          <circle id="Elipse_12777" data-name="Elipse 12777" cx="10.064" cy="10.064" r="10.064" transform="translate(5.597 8.993)" fill="#eceff1"/>
          <path id="Trazado_907186" data-name="Trazado 907186" d="M271.093,290.011c.21,0,.418.007.624.02a10.064,10.064,0,0,0,0,20.088c-.207.013-.415.02-.624.02a10.064,10.064,0,0,1,0-20.128Z" transform="translate(-255.432 -281.018)" fill="#d1d1d6" fill-rule="evenodd"/>
          <circle id="Elipse_12778" data-name="Elipse 12778" cx="4.467" cy="4.467" r="4.467" transform="translate(9.843 16.633) rotate(-22.514)" fill="#fe646f"/>
          <path id="Trazado_907187" data-name="Trazado 907187" d="M310.315,334.829a4.5,4.5,0,0,1,.624.044,4.467,4.467,0,0,0,0,8.846,4.467,4.467,0,1,1-.624-8.89Z" transform="translate(-294.653 -320.239)" fill="#fd4755" fill-rule="evenodd"/>
          <path id="Trazado_907188" data-name="Trazado 907188" d="M412.506,223.978l-5.6,5.6a.365.365,0,0,1-.344.1l-4.391-.946a.368.368,0,0,1-.287-.287l-.946-4.391a.365.365,0,0,1,.1-.344l5.6-5.6a.375.375,0,0,1,.631.186l.844,3.918a.368.368,0,0,0,.287.287l3.918.844a.375.375,0,0,1,.186.631Z" transform="translate(-377.863 -218.001)" fill="#e3a76f" fill-rule="evenodd"/>
          <path id="Trazado_907189" data-name="Trazado 907189" d="M418.743,261.234l-5.6,5.6a.365.365,0,0,1-.344.1l-4.391-.946a.368.368,0,0,1-.287-.287l-.065-.3,4.368.941a.365.365,0,0,0,.344-.1l5.6-5.6a.4.4,0,0,0,.053-.066l.136.029a.375.375,0,0,1,.186.631Z" transform="translate(-384.1 -255.256)" fill="#c48958" fill-rule="evenodd"/>
        </g>
      </g>
      <path id="Trazado_907190" data-name="Trazado 907190" d="M66.944,40.389l-2.5-.539L59.9,44.4l2.5.539ZM37.81,8.109a1,1,0,0,1,.7.613l1.42,3.687a22.434,22.434,0,0,1,5.612,2.327l3.613-1.605a1,1,0,0,1,1.112.207l4.817,4.817a1,1,0,0,1,.207,1.112l-1.6,3.612a22.429,22.429,0,0,1,2.327,5.615L59.7,29.913a1,1,0,0,1,.64.932v1.524a1,1,0,1,1-2,0v-.838l-3.529-1.359a1,1,0,0,1-.613-.7,20.437,20.437,0,0,0-2.488-6,1,1,0,0,1-.062-.93l1.537-3.459-3.848-3.847-3.46,1.537a1,1,0,0,1-.93-.062,20.432,20.432,0,0,0-6-2.486,1,1,0,0,1-.7-.613l-1.36-3.531h-5.44l-1.36,3.531a1,1,0,0,1-.7.613,20.437,20.437,0,0,0-6,2.486,1,1,0,0,1-.93.062L19,15.236l-3.848,3.847,1.537,3.46a1,1,0,0,1-.062.93,20.415,20.415,0,0,0-2.486,6,1,1,0,0,1-.613.7L10,31.532v5.441l3.53,1.359a1,1,0,0,1,.613.7,20.426,20.426,0,0,0,2.487,6,1,1,0,0,1,.062.93l-1.537,3.459L19,53.268l3.46-1.537a1,1,0,0,1,.93.062,20.437,20.437,0,0,0,6,2.486,1,1,0,0,1,.7.613l1.4,3.642a1,1,0,0,1-.459,1.887h-.271a1,1,0,0,1-.932-.64l-1.42-3.687A22.413,22.413,0,0,1,22.8,53.768l-3.614,1.6a1,1,0,0,1-1.111-.207l-4.818-4.817a1,1,0,0,1-.206-1.112l1.605-3.612a22.394,22.394,0,0,1-2.328-5.614L8.642,38.591A1,1,0,0,1,8,37.659V30.846a1,1,0,0,1,.639-.932l3.687-1.419a22.4,22.4,0,0,1,2.328-5.613l-1.605-3.613a1,1,0,0,1,.206-1.112l4.818-4.817a1,1,0,0,1,1.111-.207L22.8,14.737a22.418,22.418,0,0,1,5.612-2.327l1.42-3.687a1,1,0,0,1,.7-.613H37.81ZM64.14,53.365a14.656,14.656,0,1,1-8.286-13.206,1.03,1.03,0,0,0,.021.211l.925,4.295-.222.223a11.067,11.067,0,1,0,1.41,1.416l.226-.226L62.508,47a.981.981,0,0,0,.193.022,14.691,14.691,0,0,1,1.439,6.34Zm-8.981-7.057a9.079,9.079,0,1,0,1.409,1.417L54,50.294a5.475,5.475,0,1,1-1.406-1.419Zm-2.614,5.44L50.2,54.089a1,1,0,0,1-1.414-1.413l2.353-2.353a3.468,3.468,0,1,0,1.4,1.424Zm5.4-11.266,4.546-4.546.54,2.5-4.546,4.546Zm11.709.024-5.318,5.318a16.659,16.659,0,1,1-7.268-7.291l5.307-5.306a1,1,0,0,1,1.683.5l.653,3.034.311-.311a1,1,0,1,1,1.413,1.413l-.311.311,3.034.654a1,1,0,0,1,.5,1.683ZM33.506,39.343l7.218-8.925a1,1,0,1,0-1.554-1.256L32.65,37.223,29.1,33.677a1,1,0,0,0-1.413,1.413l4.331,4.332a1,1,0,0,0,.707.292h.053A1,1,0,0,0,33.506,39.343Zm-2.214,6.919A12.349,12.349,0,1,1,46.519,34.07a1,1,0,0,0,1,.984h.015a1,1,0,0,0,.984-1.013A14.346,14.346,0,1,0,22.96,43.2a14.417,14.417,0,0,0,7.868,5,.989.989,0,0,0,.233.028,1,1,0,0,0,.231-1.971Z" fill-rule="evenodd"/>
    </g>
  </g>
</svg>
