<svg xmlns="http://www.w3.org/2000/svg" xmlns:xlink="http://www.w3.org/1999/xlink" width="81.414" height="81.414" viewBox="0 0 81.414 81.414">
  <defs>
    <filter id="Trazado_873828" x="0" y="0" width="81.414" height="81.414" filterUnits="userSpaceOnUse">
      <feOffset dy="3" input="SourceAlpha"/>
      <feGaussianBlur stdDeviation="3" result="blur"/>
      <feFlood flood-opacity="0.161"/>
      <feComposite operator="in" in2="blur"/>
    </filter>
    <filter id="Trazado_873828-2" x="0" y="0" width="81.414" height="81.414" filterUnits="userSpaceOnUse">
      <feOffset dy="3" input="SourceAlpha"/>
      <feGaussianBlur stdDeviation="3" result="blur-2"/>
      <feFlood flood-opacity="0.161" result="color"/>
      <feComposite operator="out" in="SourceGraphic" in2="blur-2"/>
      <feComposite operator="in" in="color"/>
      <feComposite operator="in" in2="SourceGraphic"/>
    </filter>
  </defs>
  <g id="Grupo_1114616" data-name="Grupo 1114616" transform="translate(-817.051 -4290)">
    <g data-type="innerShadowGroup">
      <g transform="matrix(1, 0, 0, 1, 817.05, 4290)" filter="url(#Trazado_873828)">
        <g id="Trazado_873828-3" data-name="Trazado 873828" transform="translate(9 6)" fill="#bce0fc">
          <path d="M 31.70703125 61.4140625 C 27.69572067260742 61.4140625 23.80547142028809 60.62889099121094 20.14433097839355 59.08036041259766 C 16.60707092285156 57.58423233032227 13.42987155914307 55.44195938110352 10.7009916305542 52.71308135986328 C 7.972101211547852 49.98419189453125 5.829841136932373 46.80699157714844 4.333701133728027 43.26974105834961 C 2.785171270370483 39.60859298706055 2.000001192092896 35.71834182739258 2.000001192092896 31.70703125 C 2.000001192092896 27.69573211669922 2.785171270370483 23.80547142028809 4.333701133728027 20.14433097839355 C 5.829841136932373 16.60707092285156 7.972101211547852 13.42987155914307 10.7009916305542 10.7009916305542 C 13.42987155914307 7.972101211547852 16.60707092285156 5.829841136932373 20.14433097839355 4.333701133728027 C 23.80547142028809 2.785171270370483 27.69573211669922 2.000001192092896 31.70703125 2.000001192092896 C 35.71834182739258 2.000001192092896 39.60859298706055 2.785171270370483 43.26974105834961 4.333701133728027 C 46.80699157714844 5.829841136932373 49.98419189453125 7.972101211547852 52.71308135986328 10.7009916305542 C 55.44195938110352 13.42987155914307 57.58423233032227 16.60707092285156 59.08036041259766 20.14433097839355 C 60.62889099121094 23.80547142028809 61.4140625 27.69572067260742 61.4140625 31.70703125 C 61.4140625 35.71834182739258 60.62889099121094 39.60859298706055 59.08036041259766 43.26974105834961 C 57.58423233032227 46.80699157714844 55.44195938110352 49.98419189453125 52.71308135986328 52.71308135986328 C 49.98419189453125 55.44195938110352 46.80699157714844 57.58423233032227 43.26974105834961 59.08036041259766 C 39.60859298706055 60.62889099121094 35.71834182739258 61.4140625 31.70703125 61.4140625 Z" stroke="none"/>
          <path d="M 31.70703125 3.999996185302734 C 27.96484375 3.999996185302734 24.33671188354492 4.732006072998047 20.92343139648438 6.175712585449219 C 17.62457275390625 7.571006774902344 14.66105651855469 9.569347381591797 12.11519622802734 12.11519622802734 C 9.569347381591797 14.66105651855469 7.571006774902344 17.62457275390625 6.175712585449219 20.92343139648438 C 4.732006072998047 24.33671188354492 3.999996185302734 27.96484375 3.999996185302734 31.70703125 C 3.999996185302734 35.44921875 4.732006072998047 39.07734680175781 6.175712585449219 42.49063110351562 C 7.571006774902344 45.78948974609375 9.5693359375 48.75300598144531 12.11519622802734 51.29886627197266 C 14.66105651855469 53.8447265625 17.62457275390625 55.84305572509766 20.92343139648438 57.23834991455078 C 24.33671188354492 58.68205642700195 27.96484375 59.41406631469727 31.70703125 59.41406631469727 C 35.44921875 59.41406631469727 39.07734680175781 58.68205642700195 42.49063110351562 57.23834991455078 C 45.78948974609375 55.84305572509766 48.75300598144531 53.8447265625 51.29886627197266 51.29886627197266 C 53.8447265625 48.75300598144531 55.84305572509766 45.78948974609375 57.23834991455078 42.49063110351562 C 58.68205642700195 39.07734680175781 59.41406631469727 35.44921875 59.41406631469727 31.70703125 C 59.41406631469727 27.96484375 58.68205642700195 24.33671188354492 57.23834991455078 20.92343139648438 C 55.84305572509766 17.62457275390625 53.8447265625 14.66105651855469 51.29886627197266 12.11519622802734 C 48.75300598144531 9.5693359375 45.78948974609375 7.571006774902344 42.49063110351562 6.175712585449219 C 39.07734680175781 4.732006072998047 35.44921875 3.999996185302734 31.70703125 3.999996185302734 M 31.70703125 -3.814697265625e-06 C 49.21834945678711 -3.814697265625e-06 63.41406631469727 14.19572448730469 63.41406631469727 31.70703125 C 63.41406631469727 49.21834945678711 49.21834945678711 63.41406631469727 31.70703125 63.41406631469727 C 14.19572448730469 63.41406631469727 -3.814697265625e-06 49.21834945678711 -3.814697265625e-06 31.70703125 C -3.814697265625e-06 14.19572448730469 14.19572448730469 -3.814697265625e-06 31.70703125 -3.814697265625e-06 Z" stroke="none" fill="#fff"/>
        </g>
      </g>
      <g id="Trazado_873828-4" data-name="Trazado 873828" transform="translate(826.051 4296)" fill="#bce0fc">
        <path d="M 31.70703125 61.4140625 C 27.69572067260742 61.4140625 23.80547142028809 60.62889099121094 20.14433097839355 59.08036041259766 C 16.60707092285156 57.58423233032227 13.42987155914307 55.44195938110352 10.7009916305542 52.71308135986328 C 7.972101211547852 49.98419189453125 5.829841136932373 46.80699157714844 4.333701133728027 43.26974105834961 C 2.785171270370483 39.60859298706055 2.000001192092896 35.71834182739258 2.000001192092896 31.70703125 C 2.000001192092896 27.69573211669922 2.785171270370483 23.80547142028809 4.333701133728027 20.14433097839355 C 5.829841136932373 16.60707092285156 7.972101211547852 13.42987155914307 10.7009916305542 10.7009916305542 C 13.42987155914307 7.972101211547852 16.60707092285156 5.829841136932373 20.14433097839355 4.333701133728027 C 23.80547142028809 2.785171270370483 27.69573211669922 2.000001192092896 31.70703125 2.000001192092896 C 35.71834182739258 2.000001192092896 39.60859298706055 2.785171270370483 43.26974105834961 4.333701133728027 C 46.80699157714844 5.829841136932373 49.98419189453125 7.972101211547852 52.71308135986328 10.7009916305542 C 55.44195938110352 13.42987155914307 57.58423233032227 16.60707092285156 59.08036041259766 20.14433097839355 C 60.62889099121094 23.80547142028809 61.4140625 27.69572067260742 61.4140625 31.70703125 C 61.4140625 35.71834182739258 60.62889099121094 39.60859298706055 59.08036041259766 43.26974105834961 C 57.58423233032227 46.80699157714844 55.44195938110352 49.98419189453125 52.71308135986328 52.71308135986328 C 49.98419189453125 55.44195938110352 46.80699157714844 57.58423233032227 43.26974105834961 59.08036041259766 C 39.60859298706055 60.62889099121094 35.71834182739258 61.4140625 31.70703125 61.4140625 Z" stroke="none"/>
        <path d="M 31.70703125 3.999996185302734 C 27.96484375 3.999996185302734 24.33671188354492 4.732006072998047 20.92343139648438 6.175712585449219 C 17.62457275390625 7.571006774902344 14.66105651855469 9.569347381591797 12.11519622802734 12.11519622802734 C 9.569347381591797 14.66105651855469 7.571006774902344 17.62457275390625 6.175712585449219 20.92343139648438 C 4.732006072998047 24.33671188354492 3.999996185302734 27.96484375 3.999996185302734 31.70703125 C 3.999996185302734 35.44921875 4.732006072998047 39.07734680175781 6.175712585449219 42.49063110351562 C 7.571006774902344 45.78948974609375 9.5693359375 48.75300598144531 12.11519622802734 51.29886627197266 C 14.66105651855469 53.8447265625 17.62457275390625 55.84305572509766 20.92343139648438 57.23834991455078 C 24.33671188354492 58.68205642700195 27.96484375 59.41406631469727 31.70703125 59.41406631469727 C 35.44921875 59.41406631469727 39.07734680175781 58.68205642700195 42.49063110351562 57.23834991455078 C 45.78948974609375 55.84305572509766 48.75300598144531 53.8447265625 51.29886627197266 51.29886627197266 C 53.8447265625 48.75300598144531 55.84305572509766 45.78948974609375 57.23834991455078 42.49063110351562 C 58.68205642700195 39.07734680175781 59.41406631469727 35.44921875 59.41406631469727 31.70703125 C 59.41406631469727 27.96484375 58.68205642700195 24.33671188354492 57.23834991455078 20.92343139648438 C 55.84305572509766 17.62457275390625 53.8447265625 14.66105651855469 51.29886627197266 12.11519622802734 C 48.75300598144531 9.5693359375 45.78948974609375 7.571006774902344 42.49063110351562 6.175712585449219 C 39.07734680175781 4.732006072998047 35.44921875 3.999996185302734 31.70703125 3.999996185302734 M 31.70703125 -3.814697265625e-06 C 49.21834945678711 -3.814697265625e-06 63.41406631469727 14.19572448730469 63.41406631469727 31.70703125 C 63.41406631469727 49.21834945678711 49.21834945678711 63.41406631469727 31.70703125 63.41406631469727 C 14.19572448730469 63.41406631469727 -3.814697265625e-06 49.21834945678711 -3.814697265625e-06 31.70703125 C -3.814697265625e-06 14.19572448730469 14.19572448730469 -3.814697265625e-06 31.70703125 -3.814697265625e-06 Z" stroke="none"/>
      </g>
      <g transform="matrix(1, 0, 0, 1, 817.05, 4290)" filter="url(#Trazado_873828-2)">
        <g id="Trazado_873828-5" data-name="Trazado 873828" transform="translate(9 6)" fill="#fff">
          <path d="M 31.70703125 61.4140625 C 27.69572067260742 61.4140625 23.80547142028809 60.62889099121094 20.14433097839355 59.08036041259766 C 16.60707092285156 57.58423233032227 13.42987155914307 55.44195938110352 10.7009916305542 52.71308135986328 C 7.972101211547852 49.98419189453125 5.829841136932373 46.80699157714844 4.333701133728027 43.26974105834961 C 2.785171270370483 39.60859298706055 2.000001192092896 35.71834182739258 2.000001192092896 31.70703125 C 2.000001192092896 27.69573211669922 2.785171270370483 23.80547142028809 4.333701133728027 20.14433097839355 C 5.829841136932373 16.60707092285156 7.972101211547852 13.42987155914307 10.7009916305542 10.7009916305542 C 13.42987155914307 7.972101211547852 16.60707092285156 5.829841136932373 20.14433097839355 4.333701133728027 C 23.80547142028809 2.785171270370483 27.69573211669922 2.000001192092896 31.70703125 2.000001192092896 C 35.71834182739258 2.000001192092896 39.60859298706055 2.785171270370483 43.26974105834961 4.333701133728027 C 46.80699157714844 5.829841136932373 49.98419189453125 7.972101211547852 52.71308135986328 10.7009916305542 C 55.44195938110352 13.42987155914307 57.58423233032227 16.60707092285156 59.08036041259766 20.14433097839355 C 60.62889099121094 23.80547142028809 61.4140625 27.69572067260742 61.4140625 31.70703125 C 61.4140625 35.71834182739258 60.62889099121094 39.60859298706055 59.08036041259766 43.26974105834961 C 57.58423233032227 46.80699157714844 55.44195938110352 49.98419189453125 52.71308135986328 52.71308135986328 C 49.98419189453125 55.44195938110352 46.80699157714844 57.58423233032227 43.26974105834961 59.08036041259766 C 39.60859298706055 60.62889099121094 35.71834182739258 61.4140625 31.70703125 61.4140625 Z" stroke="none"/>
          <path d="M 31.70703125 3.999996185302734 C 27.96484375 3.999996185302734 24.33671188354492 4.732006072998047 20.92343139648438 6.175712585449219 C 17.62457275390625 7.571006774902344 14.66105651855469 9.569347381591797 12.11519622802734 12.11519622802734 C 9.569347381591797 14.66105651855469 7.571006774902344 17.62457275390625 6.175712585449219 20.92343139648438 C 4.732006072998047 24.33671188354492 3.999996185302734 27.96484375 3.999996185302734 31.70703125 C 3.999996185302734 35.44921875 4.732006072998047 39.07734680175781 6.175712585449219 42.49063110351562 C 7.571006774902344 45.78948974609375 9.5693359375 48.75300598144531 12.11519622802734 51.29886627197266 C 14.66105651855469 53.8447265625 17.62457275390625 55.84305572509766 20.92343139648438 57.23834991455078 C 24.33671188354492 58.68205642700195 27.96484375 59.41406631469727 31.70703125 59.41406631469727 C 35.44921875 59.41406631469727 39.07734680175781 58.68205642700195 42.49063110351562 57.23834991455078 C 45.78948974609375 55.84305572509766 48.75300598144531 53.8447265625 51.29886627197266 51.29886627197266 C 53.8447265625 48.75300598144531 55.84305572509766 45.78948974609375 57.23834991455078 42.49063110351562 C 58.68205642700195 39.07734680175781 59.41406631469727 35.44921875 59.41406631469727 31.70703125 C 59.41406631469727 27.96484375 58.68205642700195 24.33671188354492 57.23834991455078 20.92343139648438 C 55.84305572509766 17.62457275390625 53.8447265625 14.66105651855469 51.29886627197266 12.11519622802734 C 48.75300598144531 9.5693359375 45.78948974609375 7.571006774902344 42.49063110351562 6.175712585449219 C 39.07734680175781 4.732006072998047 35.44921875 3.999996185302734 31.70703125 3.999996185302734 M 31.70703125 -3.814697265625e-06 C 49.21834945678711 -3.814697265625e-06 63.41406631469727 14.19572448730469 63.41406631469727 31.70703125 C 63.41406631469727 49.21834945678711 49.21834945678711 63.41406631469727 31.70703125 63.41406631469727 C 14.19572448730469 63.41406631469727 -3.814697265625e-06 49.21834945678711 -3.814697265625e-06 31.70703125 C -3.814697265625e-06 14.19572448730469 14.19572448730469 -3.814697265625e-06 31.70703125 -3.814697265625e-06 Z" stroke="none"/>
        </g>
      </g>
      <g id="Trazado_873828-6" data-name="Trazado 873828" transform="translate(826.051 4296)" fill="none">
        <path d="M 31.70703125 61.4140625 C 27.69572067260742 61.4140625 23.80547142028809 60.62889099121094 20.14433097839355 59.08036041259766 C 16.60707092285156 57.58423233032227 13.42987155914307 55.44195938110352 10.7009916305542 52.71308135986328 C 7.972101211547852 49.98419189453125 5.829841136932373 46.80699157714844 4.333701133728027 43.26974105834961 C 2.785171270370483 39.60859298706055 2.000001192092896 35.71834182739258 2.000001192092896 31.70703125 C 2.000001192092896 27.69573211669922 2.785171270370483 23.80547142028809 4.333701133728027 20.14433097839355 C 5.829841136932373 16.60707092285156 7.972101211547852 13.42987155914307 10.7009916305542 10.7009916305542 C 13.42987155914307 7.972101211547852 16.60707092285156 5.829841136932373 20.14433097839355 4.333701133728027 C 23.80547142028809 2.785171270370483 27.69573211669922 2.000001192092896 31.70703125 2.000001192092896 C 35.71834182739258 2.000001192092896 39.60859298706055 2.785171270370483 43.26974105834961 4.333701133728027 C 46.80699157714844 5.829841136932373 49.98419189453125 7.972101211547852 52.71308135986328 10.7009916305542 C 55.44195938110352 13.42987155914307 57.58423233032227 16.60707092285156 59.08036041259766 20.14433097839355 C 60.62889099121094 23.80547142028809 61.4140625 27.69572067260742 61.4140625 31.70703125 C 61.4140625 35.71834182739258 60.62889099121094 39.60859298706055 59.08036041259766 43.26974105834961 C 57.58423233032227 46.80699157714844 55.44195938110352 49.98419189453125 52.71308135986328 52.71308135986328 C 49.98419189453125 55.44195938110352 46.80699157714844 57.58423233032227 43.26974105834961 59.08036041259766 C 39.60859298706055 60.62889099121094 35.71834182739258 61.4140625 31.70703125 61.4140625 Z" stroke="none"/>
        <path d="M 31.70703125 3.999996185302734 C 27.96484375 3.999996185302734 24.33671188354492 4.732006072998047 20.92343139648438 6.175712585449219 C 17.62457275390625 7.571006774902344 14.66105651855469 9.569347381591797 12.11519622802734 12.11519622802734 C 9.569347381591797 14.66105651855469 7.571006774902344 17.62457275390625 6.175712585449219 20.92343139648438 C 4.732006072998047 24.33671188354492 3.999996185302734 27.96484375 3.999996185302734 31.70703125 C 3.999996185302734 35.44921875 4.732006072998047 39.07734680175781 6.175712585449219 42.49063110351562 C 7.571006774902344 45.78948974609375 9.5693359375 48.75300598144531 12.11519622802734 51.29886627197266 C 14.66105651855469 53.8447265625 17.62457275390625 55.84305572509766 20.92343139648438 57.23834991455078 C 24.33671188354492 58.68205642700195 27.96484375 59.41406631469727 31.70703125 59.41406631469727 C 35.44921875 59.41406631469727 39.07734680175781 58.68205642700195 42.49063110351562 57.23834991455078 C 45.78948974609375 55.84305572509766 48.75300598144531 53.8447265625 51.29886627197266 51.29886627197266 C 53.8447265625 48.75300598144531 55.84305572509766 45.78948974609375 57.23834991455078 42.49063110351562 C 58.68205642700195 39.07734680175781 59.41406631469727 35.44921875 59.41406631469727 31.70703125 C 59.41406631469727 27.96484375 58.68205642700195 24.33671188354492 57.23834991455078 20.92343139648438 C 55.84305572509766 17.62457275390625 53.8447265625 14.66105651855469 51.29886627197266 12.11519622802734 C 48.75300598144531 9.5693359375 45.78948974609375 7.571006774902344 42.49063110351562 6.175712585449219 C 39.07734680175781 4.732006072998047 35.44921875 3.999996185302734 31.70703125 3.999996185302734 M 31.70703125 -3.814697265625e-06 C 49.21834945678711 -3.814697265625e-06 63.41406631469727 14.19572448730469 63.41406631469727 31.70703125 C 63.41406631469727 49.21834945678711 49.21834945678711 63.41406631469727 31.70703125 63.41406631469727 C 14.19572448730469 63.41406631469727 -3.814697265625e-06 49.21834945678711 -3.814697265625e-06 31.70703125 C -3.814697265625e-06 14.19572448730469 14.19572448730469 -3.814697265625e-06 31.70703125 -3.814697265625e-06 Z" stroke="none" fill="#fff"/>
      </g>
    </g>
    <g id="Grupo_1114615" data-name="Grupo 1114615" transform="translate(837.051 4307)">
      <path id="Trazado_907930" data-name="Trazado 907930" d="M46.066,49v3.777c0,2.436-8.453,4.406-18.883,4.406A74.313,74.313,0,0,1,19,56.748V52.972a74.313,74.313,0,0,0,8.183.434C37.613,53.406,46.066,51.436,46.066,49Z" transform="translate(-6.67 -17.787)" fill="#fcd770"/>
      <path id="Trazado_907931" data-name="Trazado 907931" d="M23.406,49a1.888,1.888,0,0,0,3.777,0,1.888,1.888,0,0,0,3.777,0H46.066c0,2.436-8.453,4.406-18.883,4.406A74.313,74.313,0,0,1,19,52.972Z" transform="translate(-6.67 -17.787)" fill="#ffeaa7"/>
      <path id="Trazado_907932" data-name="Trazado 907932" d="M53.107,46.458H38V42.14c1.316.063,2.581.157,3.777.277,1.347.138,2.618.308,3.777.516a30.723,30.723,0,0,1,3.777.881C51.7,44.551,53.107,45.463,53.107,46.458Z" transform="translate(-13.711 -15.245)" fill="#b4dd7f"/>
      <path id="Trazado_907933" data-name="Trazado 907933" d="M22.873,42.14v4.318L17.56,42.593c.5-.063,1.007-.126,1.536-.176,1.19-.12,2.442-.214,3.745-.277Z" transform="translate(-6.136 -15.245)" fill="#b4dd7f"/>
      <path id="Trazado_907934" data-name="Trazado 907934" d="M12.7,52.972v3.777C6.368,56.037,2,54.527,2,52.777V49C2,50.75,6.368,52.261,12.7,52.972Z" transform="translate(-0.371 -17.787)" fill="#fc6e51"/>
      <path id="Trazado_907935" data-name="Trazado 907935" d="M17.107,46.725,12.7,50.7C6.368,49.985,2,48.475,2,46.725c0-1.322,2.5-2.511,6.464-3.317,1.02-.208,2.134-.4,3.33-.548Z" transform="translate(-0.371 -15.511)" fill="#ff826e"/>
      <path id="Trazado_907936" data-name="Trazado 907936" d="M57.036,5l-1.259,5.036L53.888,8.147,52,6.259Z" transform="translate(-18.898 -1.482)" fill="#ff826e"/>
      <g id="Grupo_1114614" data-name="Grupo 1114614" transform="translate(8.094 11.701)">
        <path id="Trazado_907937" data-name="Trazado 907937" d="M47.777,23.63V36.074c-1.158-.208-2.43-.378-3.777-.516V25.751h1.888Z" transform="translate(-24.028 -20.086)" fill="#e6e9ed"/>
        <path id="Trazado_907938" data-name="Trazado 907938" d="M53.777,18V34.869A30.723,30.723,0,0,0,50,33.988V21.544L53.147,18Z" transform="translate(-26.251 -18)" fill="#e6e9ed"/>
        <path id="Trazado_907939" data-name="Trazado 907939" d="M41.777,27v9.807c-1.2-.12-2.461-.214-3.777-.277V27Z" transform="translate(-21.804 -21.335)" fill="#e6e9ed"/>
        <path id="Trazado_907940" data-name="Trazado 907940" d="M23.777,34.566v4.494h-.031c-1.3.063-2.556.157-3.745.277V35.2l1.366-1.366a2.534,2.534,0,0,0,1.781.736Z" transform="translate(-15.134 -23.866)" fill="#e6e9ed"/>
        <path id="Trazado_907941" data-name="Trazado 907941" d="M17.136,36v4.142c-.529.05-1.039.113-1.536.176-1.2.151-2.31.34-3.33.548Z" transform="translate(-12.27 -24.67)" fill="#e6e9ed"/>
      </g>
      <path id="Trazado_907942" data-name="Trazado 907942" d="M29.777,30V41.959a1.888,1.888,0,0,1-3.777,0V30Z" transform="translate(-9.264 -10.746)" fill="#838f9b"/>
      <path id="Trazado_907943" data-name="Trazado 907943" d="M35.777,37.641v4.318a1.888,1.888,0,1,1-3.777,0V30h3.777Z" transform="translate(-11.487 -10.746)" fill="#838f9b"/>
      <path id="Trazado_907944" data-name="Trazado 907944" d="M31.7,17.736v1.888H24.147v3.147h-.629A2.514,2.514,0,0,1,21,20.254V15.848a5.034,5.034,0,0,1,5.036-5.036v.629a1.888,1.888,0,0,0,3.777,0V10.7l5.665-.516V3.574A1.572,1.572,0,0,1,37.057,2H37.1a1.526,1.526,0,0,1,1.523,1.53v7.5a2.518,2.518,0,0,1-2.291,2.505l-4.633.422Z" transform="translate(-7.411 -0.371)" fill="#b4dd7f"/>
      <circle id="Elipse_12831" data-name="Elipse 12831" cx="6" cy="6" r="6" transform="translate(2 2.026)" fill="#fcd770"/>
      <path id="Trazado_907945" data-name="Trazado 907945" d="M32.777,15.82v.743a1.888,1.888,0,0,1-3.777,0v-.629h2.518Z" transform="translate(-10.376 -5.492)" fill="#f0d0b4"/>
      <ellipse id="Elipse_12832" data-name="Elipse 12832" cx="3.5" cy="4" rx="3.5" ry="4" transform="translate(17 2.026)" fill="#f0d0b4"/>
      <path id="Trazado_907946" data-name="Trazado 907946" d="M36.249,28.116V11.071H34.707l-5.036,5.665H24.919V14.164l4.062-.369a3.13,3.13,0,0,0,2.858-3.088L34.99,7.555,37.22,9.785,39,2.652,31.871,4.436,34.1,6.665,31.843,8.922V3.157A2.168,2.168,0,0,0,29.648,1a2.2,2.2,0,0,0-1.564.642A2.179,2.179,0,0,0,27.437,3.2V9.238l-3.617.33a4.406,4.406,0,1,0-6.269.349,5.672,5.672,0,0,0-4.591,5.56v1L2.443,26.992l.89.89,9.626-9.626v1.628a3.127,3.127,0,0,0,.524,1.733l-5.7,5.7C3.913,28.127,1,29.394,1,31.213V34.99c0,3.306,9.816,5.036,19.513,5.036S40.026,38.3,40.026,34.99V31.213c0-1.305-1.5-2.326-3.777-3.1ZM37.272,4.383l-.735,2.939-2.2-2.2Zm-22.9,18.123a3.126,3.126,0,0,0,1.733.524V26.3c-.831.047-1.676.108-2.518.186V23.291Zm24.018,8.078H24.919V27.563C32.518,27.991,37.121,29.411,38.392,30.584Zm-17.249-10.7H23.66v11.33a1.259,1.259,0,1,1-2.518,0Zm-3.777,0h2.518v11.33a1.259,1.259,0,1,1-2.518,0Zm-1.259,7.68v2.414l-3-2.183C14.046,27.7,15.049,27.622,16.107,27.563Zm2.518,6.168a2.5,2.5,0,0,0,1.888-.87,2.5,2.5,0,0,0,4.317-1.018h13.6c-1.511,1.474-8.053,3.147-17.917,3.147-2.452,0-4.7-.1-6.713-.281l2.6-2.343a2.51,2.51,0,0,0,2.226,1.366ZM34.99,12.648V27.733c-.784-.213-1.63-.4-2.518-.569V15.48ZM30.237,18l.976-1.1V26.948c-.82-.13-1.664-.241-2.518-.336V18Zm-2.8,0v8.489c-.842-.077-1.686-.14-2.518-.186V18Zm-8.183-6.925h1.224l.035,0,.037,0h.65l.572-.052v.055a1.259,1.259,0,1,1-2.518,0ZM17.366,6.665a3.147,3.147,0,1,1,3.147,3.147A3.151,3.151,0,0,1,17.366,6.665Zm-3.147,8.812A4.409,4.409,0,0,1,18,11.121a2.515,2.515,0,0,0,5.031-.05V10.9l5.665-.515V3.2a.932.932,0,0,1,.276-.665.977.977,0,0,1,.716-.277.9.9,0,0,1,.9.9v7.5a1.879,1.879,0,0,1-1.718,1.88l-5.206.474v5.61H17.366V13.589H16.107v8.183a1.891,1.891,0,0,1-1.888-1.888ZM12.33,24.55v2.062c-.805.09-1.6.194-2.377.315Zm-1.067,3.461,4.475,3.255L12.11,34.536c-6.245-.727-9.851-2.187-9.851-3.323C2.259,30.228,5.368,28.8,11.263,28.011Zm-9,6.979V33.121c1.777,1.242,5.273,2.123,9.442,2.627v2.515C5.71,37.52,2.259,36.1,2.259,34.99Zm18.254,3.777a74.934,74.934,0,0,1-7.553-.361v-2.52c2.4.24,4.981.363,7.553.363,7.618,0,15.306-1.068,18.254-3.128V34.99C38.767,36.567,31.822,38.767,20.513,38.767Z"/>
      <path id="Trazado_907947" data-name="Trazado 907947" d="M10.888,11.294a.63.63,0,0,1-.629-.629H9a1.886,1.886,0,0,0,1.259,1.773v1.375h1.259V12.553h1.259V10.665a1.891,1.891,0,0,0-1.888-1.888.63.63,0,0,1-.629-.629V7.518h.629a.63.63,0,0,1,.629.629h1.259a1.886,1.886,0,0,0-1.259-1.773V5H10.259V6.259H9V8.147a1.891,1.891,0,0,0,1.888,1.888.63.63,0,0,1,.629.629v.629Z" transform="translate(-2.964 -1.482)"/>
      <path id="Trazado_907948" data-name="Trazado 907948" d="M5,11H6.259v1.259H5Z" transform="translate(-1.482 -3.706)"/>
      <path id="Trazado_907949" data-name="Trazado 907949" d="M17,11h1.259v1.259H17Z" transform="translate(-5.929 -3.706)"/>
      <path id="Trazado_907950" data-name="Trazado 907950" d="M7.924,14.848A6.924,6.924,0,1,0,1,7.924,6.932,6.932,0,0,0,7.924,14.848Zm0-12.589A5.665,5.665,0,1,1,2.259,7.924,5.672,5.672,0,0,1,7.924,2.259Z" transform="translate(0 0)"/>
    </g>
  </g>
</svg>
